<svg xmlns="http://www.w3.org/2000/svg" width="24" height="24" viewBox="0 0 24 24">
  <path fill="#526075" fill-rule="evenodd" d="M19.4183415,11.219122 C19.9795976,11.219122 20.4432439,11.6827683 20.4432439,12.2440244 L20.4432439,12.2440244 L20.4432439,13.0005 L20.4432439,13.0005 L20.784878,13.0005 C21.3217317,13.0005 21.7609756,13.4397439 21.7609756,13.9765976 L21.7609756,13.9765976 L21.7609756,20.9800976 C21.7609756,21.5169512 21.3217317,21.9561951 20.784878,21.9561951 L20.784878,21.9561951 L3.21512195,21.9561951 C2.67826829,21.9561951 2.23902439,21.5169512 2.23902439,20.9800976 L2.23902439,20.9800976 L2.23902439,13.9765976 C2.23902439,13.4397439 2.67826829,13.0005 3.21512195,13.0005 L3.21512195,13.0005 L3.50795122,13.0005 L3.50795122,12.2440244 C3.50795122,11.6827683 3.97159756,11.219122 4.53285366,11.219122 C5.09410976,11.219122 5.5577561,11.6827683 5.5577561,12.2440244 L5.5577561,12.2440244 L5.5577561,13.0005 L18.393439,13.0005 L18.393439,12.2440244 C18.393439,11.6827683 18.8570854,11.219122 19.4183415,11.219122 Z M7.31473171,17.4661463 C6.50945122,17.3441341 5.80178049,18.0274024 5.92379268,18.8570854 C5.997,19.3695366 6.41184146,19.784378 6.92429268,19.8575854 C7.75397561,19.9795976 8.46164634,19.2963293 8.31523171,18.4666463 C8.24202439,17.9541951 7.82718293,17.5393537 7.31473171,17.4661463 Z M12.1952195,17.4661463 C11.389939,17.3441341 10.6822683,18.0274024 10.8042805,18.8570854 C10.8774878,19.3695366 11.2923293,19.784378 11.8047805,19.8575854 C12.6344634,19.9795976 13.3421341,19.2963293 13.1957195,18.4666463 C13.1225122,17.9541951 12.7076707,17.5393537 12.1952195,17.4661463 Z M17.0757073,17.4661463 C16.2704268,17.3441341 15.5627561,18.0274024 15.6847683,18.8570854 C15.7579756,19.3695366 16.1728171,19.784378 16.6852683,19.8575854 C17.5149512,19.9795976 18.222622,19.2963293 18.0762073,18.4666463 C18.003,17.9541951 17.5881585,17.5393537 17.0757073,17.4661463 Z M11.7026898,6.45637896 L12,6.46064634 C14.0742073,6.46064634 15.9043902,7.31473171 17.4905488,8.65686585 C17.612561,8.77887805 17.6857683,8.92529268 17.7101707,9.09610976 C17.7345732,9.26692683 17.6857683,9.41334146 17.5637561,9.53535366 L17.5637561,9.53535366 L16.7096707,10.3650366 C16.4900488,10.5846585 16.1484146,10.5602561 15.9043902,10.3650366 C13.5861585,8.48604878 10.3650366,8.5592561 8.21762195,10.3650366 C7.998,10.5602561 7.63196341,10.5846585 7.41234146,10.3650366 L7.41234146,10.3650366 L6.46064634,9.38893902 C6.33863415,9.26692683 6.26542683,9.09610976 6.26542683,8.92529268 C6.26542683,8.63246341 6.4362439,8.51045122 6.46064634,8.48604878 C7.92479268,7.21712195 10.0234024,6.38743902 12,6.46064634 Z M12,2.04380488 L12.3710959,2.05191311 C15.4585404,2.16347068 18.4140872,3.37186069 20.7604756,5.46014634 C20.8824878,5.5577561 20.9556951,5.70417073 20.9556951,5.8749878 C20.9556951,6.02140244 20.9068902,6.16781707 20.784878,6.28982927 L20.784878,6.28982927 L19.8575854,7.21712195 C19.6379634,7.4367439 19.2963293,7.46114634 19.0523049,7.24152439 C15.0259024,3.65436585 9.02290244,3.58115854 5.06970732,7.09510976 C4.82568293,7.31473171 4.48404878,7.29032927 4.26442683,7.07070732 L4.26442683,7.07070732 L3.31273171,6.14341463 C3.19071951,6.02140244 3.14191463,5.8749878 3.14191463,5.70417073 C3.14191463,5.5577561 3.21512195,5.41134146 3.31273171,5.31373171 L3.31273171,5.31373171 L3.33713415,5.28932927 C5.70417073,3.16631707 8.77887805,1.995 12,2.04380488 L12,2.04380488 Z"/>
</svg>
