<svg xmlns="http://www.w3.org/2000/svg" width="24" height="24" viewBox="0 0 24 24">
  <path fill="#526075" fill-rule="evenodd" d="M16.8433295,6.08795455 L14.6149432,6.08795455 C14.3648182,6.08795455 14.1601705,6.29260227 14.1601705,6.54272727 L14.1601705,7.22488636 C14.1601705,7.47501136 14.3648182,7.67965909 14.6149432,7.67965909 L15.8655682,7.67965909 C16.1156932,7.67965909 16.3203409,7.88430682 16.3203409,8.13443182 L16.3203409,9.38505682 C16.3203409,9.63518182 16.5249886,9.83982955 16.7751136,9.83982955 L17.4572727,9.83982955 C17.7073977,9.83982955 17.9120455,9.63518182 17.9120455,9.38505682 L17.9120455,7.15667045 C17.9120455,6.56546591 17.4345341,6.08795455 16.8433295,6.08795455 Z M9.38505682,6.08795455 L7.15667045,6.08795455 L7.11119318,6.08795455 C6.54272727,6.11069318 6.08795455,6.58820455 6.08795455,7.15667045 L6.08795455,9.38505682 L6.08795455,9.40779545 C6.11069318,9.63518182 6.29260227,9.83982955 6.54272727,9.83982955 L7.22488636,9.83982955 L7.247625,9.83982955 C7.47501136,9.81709091 7.67965909,9.63518182 7.67965909,9.38505682 L7.67965909,8.13443182 L7.67965909,8.11169318 C7.70239773,7.88430682 7.88430682,7.67965909 8.13443182,7.67965909 L9.38505682,7.67965909 L9.40779545,7.67965909 C9.63518182,7.65692045 9.83982955,7.47501136 9.83982955,7.22488636 L9.83982955,6.54272727 L9.83982955,6.51998864 C9.81709091,6.26986364 9.63518182,6.08795455 9.38505682,6.08795455 Z M14.4785114,9.68065909 C14.2966023,9.52148864 14.0237386,9.54422727 13.8645682,9.70339773 L11.6361818,11.9317841 L11.6134432,11.9545227 C11.4315341,12.1136932 11.1586705,12.0909545 10.9995,11.9317841 L10.3855568,11.3178409 L10.3628182,11.2951023 C10.1809091,11.1359318 9.90804545,11.1586705 9.748875,11.3178409 L9.27136364,11.7953523 L9.248625,11.8180909 C9.08945455,12 9.11219318,12.2728636 9.27136364,12.4320341 L11.0222386,14.1829091 L11.0449773,14.2056477 C11.2268864,14.3648182 11.49975,14.3420795 11.6589205,14.1829091 L15.0015,10.8403295 L15.0242386,10.8175909 C15.1834091,10.6356818 15.1606705,10.3628182 15.0015,10.2036477 L14.50125,9.70339773 L14.4785114,9.68065909 Z M7.22488636,14.2738636 L6.54272727,14.2738636 C6.29260227,14.2738636 6.08795455,14.4785114 6.08795455,14.7286364 L6.08795455,16.9570227 C6.08795455,17.5482273 6.56546591,18.0257386 7.15667045,18.0257386 L9.38505682,18.0257386 C9.63518182,18.0257386 9.83982955,17.8210909 9.83982955,17.5709659 L9.83982955,16.8888068 C9.83982955,16.6386818 9.63518182,16.4340341 9.38505682,16.4340341 L8.13443182,16.4340341 C7.88430682,16.4340341 7.67965909,16.2293864 7.67965909,15.9792614 L7.67965909,14.7286364 C7.67965909,14.4785114 7.47501136,14.2738636 7.22488636,14.2738636 Z M17.4572727,14.2738636 L16.7751136,14.2738636 L16.752375,14.2738636 C16.5249886,14.2966023 16.3203409,14.4785114 16.3203409,14.7286364 L16.3203409,15.9792614 L16.3203409,16.002 C16.2976023,16.2293864 16.1156932,16.4340341 15.8655682,16.4340341 L14.6149432,16.4340341 L14.5922045,16.4340341 C14.3648182,16.4567727 14.1601705,16.6386818 14.1601705,16.8888068 L14.1601705,17.5709659 L14.1601705,17.5937045 C14.1829091,17.8210909 14.3648182,18.0257386 14.6149432,18.0257386 L16.8433295,18.0257386 L16.8888068,18.0257386 C17.4572727,18.003 17.9120455,17.5254886 17.9120455,16.9570227 L17.9120455,14.7286364 L17.9120455,14.7058977 C17.8893068,14.4557727 17.7073977,14.2738636 17.4572727,14.2738636 Z M12,1.995 C17.5254886,1.995 22.005,6.47451136 22.005,12 C22.005,17.5254886 17.5254886,22.005 12,22.005 C6.47451136,22.005 1.995,17.5254886 1.995,12 C1.995,6.47451136 6.47451136,1.995 12,1.995 Z"/>
</svg>
