<svg xmlns="http://www.w3.org/2000/svg" width="24" height="24" viewBox="0 0 24 24">
  <path fill="#526075" fill-rule="evenodd" d="M11.5553333,2.3285 C11.8221333,2.17286667 12.1778667,2.17286667 12.4446667,2.3285 L12.4446667,2.3285 L19.5593333,6.44166667 C19.8261333,6.61953333 20.004,6.90856667 20.004,7.21983333 L20.004,7.21983333 L20.004,16.7801667 C20.004,17.1136667 19.8261333,17.4027 19.5593333,17.5583333 L19.5593333,17.5583333 L12.4446667,21.6715 C12.1778667,21.8271333 11.8221333,21.8271333 11.5553333,21.6715 L11.5553333,21.6715 L4.44066667,17.5583333 C4.17386667,17.3804667 3.996,17.0914333 3.996,16.7801667 L3.996,16.7801667 L3.996,7.21983333 C3.996,6.88633333 4.17386667,6.5973 4.44066667,6.44166667 L4.44066667,6.44166667 Z M11.5331,5.97476667 C10.0657,5.97476667 8.8651,7.17536667 8.8651,8.64276667 C8.8651,9.84336667 9.6655,10.8661 10.7549333,11.1996 L10.7549333,11.1996 L10.7549333,17.336 C10.7549333,17.5805667 10.9550333,17.7806667 11.1996,17.7806667 L11.1996,17.7806667 L12.0889333,17.7806667 C12.3335,17.7806667 12.5336,17.5805667 12.5336,17.336 L12.5336,17.336 L12.5336,16.002 L13.7786667,16.002 C14.0232333,16.002 14.2233333,15.8019 14.2233333,15.5573333 L14.2233333,15.5573333 L14.2233333,14.2233333 C14.2233333,13.9787667 14.0232333,13.7786667 13.7786667,13.7786667 L13.7786667,13.7786667 L12.5336,13.7786667 L12.5336,11.1106667 C13.5118667,10.7104667 14.2011,9.75443333 14.2011,8.64276667 C14.2011,7.17536667 13.0005,5.97476667 11.5331,5.97476667 Z M11.5331,7.75343333 C12.0242652,7.75343333 12.4224333,8.15160143 12.4224333,8.64276667 C12.4224333,9.1339319 12.0242652,9.5321 11.5331,9.5321 C11.0419348,9.5321 10.6437667,9.1339319 10.6437667,8.64276667 C10.6437667,8.15160143 11.0419348,7.75343333 11.5331,7.75343333 Z"/>
</svg>
