<svg xmlns="http://www.w3.org/2000/svg" width="24" height="24" viewBox="0 0 24 24">
  <path fill="#526075" fill-rule="evenodd" d="M7.74433315,18.1679243 L9.63359519,18.2354581 C9.82967832,18.2455324 10.0305314,18.2514539 10.2569826,18.2544412 L10.2569826,18.2544412 L10.3845782,18.2558415 L12.9253661,18.2557997 C13.0276591,18.2546474 13.112841,18.2526444 13.1941477,18.249306 L13.1941477,18.249306 L13.4396789,18.2347995 L15.3495994,18.1679093 L15.4830191,18.1685023 C16.2108185,18.205375 16.7847731,18.7892791 16.784307,19.5188768 C16.8194056,20.3069123 16.1969473,20.9465218 15.4073862,20.9815333 L15.4073862,20.9815333 L13.3985025,21.0576408 L12.9739004,21.0697706 L10.4243722,21.0705913 C10.2454379,21.0695989 10.0829849,21.0675105 9.9307074,21.0639786 L9.9307074,21.0639786 L7.63549001,20.9813454 C6.85660562,20.946785 6.22742801,20.2894959 6.26335801,19.5178677 C6.2992658,18.7467164 6.97141058,18.1336098 7.74433315,18.1679243 L7.74433315,18.1679243 Z M12,3.42857143 C14.2512791,3.42857143 16.5025583,3.51203517 18.7310972,3.67896266 C20.118249,3.78329235 21.5054008,4.95178478 21.7100625,6.2246069 C22.0966458,8.79111707 22.0966458,11.3784932 21.7100625,13.9450034 C21.5054008,15.1969595 20.0955088,16.365452 18.7310972,16.4906476 C17.0710631,16.6158432 15.411029,16.699307 13.7509949,16.7410388 C13.4553724,16.7619048 13.1370097,16.7619048 12.8413872,16.7619048 L12.8413872,16.7619048 L11.1586128,16.7619048 C10.7265492,16.7619048 10.2944855,16.7619048 9.86242183,16.7410388 C8.33882888,16.699307 6.79249574,16.6367091 5.26890279,16.5115135 C3.90449119,16.4071838 2.4945992,15.2386914 2.28993746,13.9658693 C1.90335418,11.3993591 1.90335418,8.81198301 2.28993746,6.24547284 C2.4945992,4.99351666 3.90449119,3.82502422 5.26890279,3.6998286 C7.49744173,3.51203517 9.74872086,3.42857143 12,3.42857143 Z M8.76136364,11.004329 L6.94318182,11.004329 L6.94318182,12.8225108 L8.76136364,12.8225108 L8.76136364,11.004329 Z M16.1477273,11.004329 L11.4886364,11.004329 C10.9865593,11.004329 10.5795455,11.4113429 10.5795455,11.9134199 C10.5795455,12.415497 10.9865593,12.8225108 11.4886364,12.8225108 L11.4886364,12.8225108 L16.1477273,12.8225108 C16.6498043,12.8225108 17.0568182,12.415497 17.0568182,11.9134199 C17.0568182,11.4113429 16.6498043,11.004329 16.1477273,11.004329 L16.1477273,11.004329 Z M8.76136364,7.36796537 L6.94318182,7.36796537 L6.94318182,9.18614719 L8.76136364,9.18614719 L8.76136364,7.36796537 Z M16.1477273,7.36796537 L11.4886364,7.36796537 C10.9865593,7.36796537 10.5795455,7.77497923 10.5795455,8.27705628 C10.5795455,8.77913332 10.9865593,9.18614719 11.4886364,9.18614719 L11.4886364,9.18614719 L16.1477273,9.18614719 C16.6498043,9.18614719 17.0568182,8.77913332 17.0568182,8.27705628 C17.0568182,7.77497923 16.6498043,7.36796537 16.1477273,7.36796537 L16.1477273,7.36796537 Z"/>
</svg>
