<svg xmlns="http://www.w3.org/2000/svg" width="24" height="24" viewBox="0 0 24 24">
  <path fill="#526075" fill-rule="evenodd" d="M19.5448679,3.56252218 C20.0378428,3.56252218 20.4374778,3.96215723 20.4374778,4.45513206 L20.4374778,19.5448679 C20.4374778,20.0378428 20.0378428,20.4374778 19.5448679,20.4374778 L4.45513206,20.4374778 C3.96215723,20.4374778 3.56252218,20.0378428 3.56252218,19.5448679 L3.56252218,4.45513206 C3.56252218,3.96215723 3.96215723,3.56252218 4.45513206,3.56252218 L19.5448679,3.56252218 Z M18.564957,5.43415037 L5.43415037,5.43415037 L5.43415037,18.564957 L18.564957,18.564957 L18.564957,5.43415037 Z M15.4630494,7.5369506 C16.0153341,7.5369506 16.4630494,7.98466585 16.4630494,8.5369506 L16.4630494,15.4630494 C16.4630494,16.0153341 16.0153341,16.4630494 15.4630494,16.4630494 L8.5369506,16.4630494 C7.98466585,16.4630494 7.5369506,16.0153341 7.5369506,15.4630494 L7.5369506,8.5369506 C7.5369506,7.98466585 7.98466585,7.5369506 8.5369506,7.5369506 L15.4630494,7.5369506 Z M13.7852198,12.8926099 L10.2147802,12.8926099 C9.72180542,12.8926099 9.32217036,13.2922449 9.32217036,13.7852198 C9.32217036,14.2781946 9.72180542,14.6778296 10.2147802,14.6778296 L10.2147802,14.6778296 L13.7852198,14.6778296 C14.2781946,14.6778296 14.6778296,14.2781946 14.6778296,13.7852198 C14.6778296,13.2922449 14.2781946,12.8926099 13.7852198,12.8926099 L13.7852198,12.8926099 Z"/>
</svg>
