<svg xmlns="http://www.w3.org/2000/svg" width="24" height="24" viewBox="0 0 24 24">
  <path fill="#526075" fill-rule="evenodd" d="M18.1394318,14.2738636 C18.1394318,14.4102955 18.0484773,14.50125 17.9120455,14.50125 L6.08795455,14.50125 C5.95152273,14.50125 5.86056818,14.4102955 5.86056818,14.2738636 L5.86056818,12.9095455 L2.90454545,12.9095455 C2.42703409,12.9095455 2.01773864,12.5229886 1.995,12.0454773 L1.995,12 L1.995,5.40579545 C1.995,4.90554545 2.40429545,4.49625 2.90454545,4.49625 L5.86056818,4.49625 L5.86056818,3.13193182 C5.86056818,2.9955 5.95152273,2.90454545 6.08795455,2.90454545 L17.9120455,2.90454545 C18.0484773,2.90454545 18.1394318,2.9955 18.1394318,3.13193182 L18.1394318,7.67965909 C18.1394318,7.81609091 18.0484773,7.90704545 17.9120455,7.90704545 L6.08795455,7.90704545 C5.95152273,7.90704545 5.86056818,7.81609091 5.86056818,7.67965909 L5.86056818,6.31534091 L3.81409091,6.31534091 L3.81409091,11.0904545 L5.86056818,11.0904545 L5.86056818,9.72613636 C5.86056818,9.58970455 5.95152273,9.49875 6.08795455,9.49875 L17.9120455,9.49875 C18.0484773,9.49875 18.1394318,9.58970455 18.1394318,9.72613636 L18.1394318,11.0904545 L21.0954545,11.0904545 C21.5729659,11.0904545 21.9822614,11.4770114 22.005,11.9545227 L22.005,12 L22.005,18.5942045 C22.005,19.0944545 21.5957045,19.50375 21.0954545,19.50375 L18.1394318,19.50375 L18.1394318,20.8680682 C18.1394318,21.0045 18.0484773,21.0954545 17.9120455,21.0954545 L6.08795455,21.0954545 C5.95152273,21.0954545 5.86056818,21.0045 5.86056818,20.8680682 L5.86056818,16.3203409 C5.86056818,16.1839091 5.95152273,16.0929545 6.08795455,16.0929545 L17.9120455,16.0929545 C18.0484773,16.0929545 18.1394318,16.1839091 18.1394318,16.3203409 L18.1394318,17.6846591 L20.1859091,17.6846591 L20.1859091,12.9095455 L18.1394318,12.9095455 L18.1394318,14.2738636 Z"/>
</svg>
