<svg xmlns="http://www.w3.org/2000/svg" width="24" height="24" viewBox="0 0 24 24">
  <path fill="#526075" fill-rule="evenodd" d="M19.2763636,16.0929545 C19.7786917,16.0929545 20.1859091,16.5001719 20.1859091,17.0025 L20.1859091,17.0025 L20.1859091,21.0954545 C20.1859091,21.5977826 19.7786917,22.005 19.2763636,22.005 L19.2763636,22.005 L4.72363636,22.005 C4.22130828,22.005 3.81409091,21.5977826 3.81409091,21.0954545 L3.81409091,21.0954545 L3.81409091,17.0025 C3.81409091,16.5001719 4.22130828,16.0929545 4.72363636,16.0929545 L4.72363636,16.0929545 Z M7.45227273,17.9120455 C6.82436263,17.9120455 6.31534091,18.4210672 6.31534091,19.0489773 C6.31534091,19.6768874 6.82436263,20.1859091 7.45227273,20.1859091 C8.08018282,20.1859091 8.58920455,19.6768874 8.58920455,19.0489773 C8.58920455,18.4210672 8.08018282,17.9120455 7.45227273,17.9120455 Z M12,17.9120455 C11.3720899,17.9120455 10.8630682,18.4210672 10.8630682,19.0489773 C10.8630682,19.6768874 11.3720899,20.1859091 12,20.1859091 C12.6279101,20.1859091 13.1369318,19.6768874 13.1369318,19.0489773 C13.1369318,18.4210672 12.6279101,17.9120455 12,17.9120455 Z M16.5477273,17.9120455 C15.9198172,17.9120455 15.4107955,18.4210672 15.4107955,19.0489773 C15.4107955,19.6768874 15.9198172,20.1859091 16.5477273,20.1859091 C17.1756374,20.1859091 17.6846591,19.6768874 17.6846591,19.0489773 C17.6846591,18.4210672 17.1756374,17.9120455 16.5477273,17.9120455 Z M17.8006261,1.99495214 C18.2632443,1.99165844 18.654668,2.33611132 18.7101716,2.7954 L18.7101716,2.7954 L20.1290625,14.4876068 C20.1334319,14.5300368 20.1091349,14.57022 20.0695313,14.5860614 C20.0299276,14.6019029 19.9846208,14.5895613 19.9585227,14.5558227 C19.7942966,14.3455588 19.5431511,14.2216603 19.2763636,14.2192909 L19.2763636,14.2192909 L4.72363636,14.2192909 C4.45746898,14.2220998 4.20679727,14.344929 4.04147727,14.5535489 C4.0155835,14.5867536 3.97099835,14.5990815 3.93172452,14.5838956 C3.89245069,14.5687097 3.86775702,14.5295941 3.8709375,14.4876068 L3.8709375,14.4876068 L5.28300682,2.7954 C5.33851038,2.33611132 5.7299341,1.99165844 6.19255227,1.99495214 L6.19255227,1.99495214 Z M10.7903045,4.98740455 C10.5197359,4.80801883 10.1602326,4.84415937 9.93078409,5.07381136 L9.93078409,5.07381136 L8.06394205,6.94065341 C7.97854616,7.02595433 7.93056328,7.14170423 7.93056328,7.26240511 C7.93056328,7.383106 7.97854616,7.49885589 8.06394205,7.58415682 L8.06394205,7.58415682 L8.38455682,7.90704545 C8.46985774,7.99244134 8.58560763,8.04042422 8.70630852,8.04042422 C8.82700941,8.04042422 8.9427593,7.99244134 9.02806023,7.90704545 L9.02806023,7.90704545 L9.72613636,7.20669545 L9.72613636,10.6174909 C9.72613636,10.868655 9.92974505,11.0722636 10.1809091,11.0722636 L10.1809091,11.0722636 L10.6356818,11.0722636 C10.8868459,11.0722636 11.0904545,10.868655 11.0904545,10.6174909 L11.0904545,10.6174909 L11.0904545,5.60134773 C11.1007743,5.35908727 10.9878249,5.12805427 10.7903045,4.98740455 Z M13.8190909,4.88280682 L13.3643182,4.88280682 C13.1131541,4.88280682 12.9094875,5.0864155 12.9094875,5.33757955 L12.9094875,5.33757955 L12.9094875,10.3559966 C12.9074243,10.5913308 13.0203217,10.8128813 13.2119693,10.949475 C13.482538,11.1288607 13.8420413,11.0927202 14.0714898,10.8630682 L14.0714898,10.8630682 L15.936058,9.00532159 C16.0260016,8.92002067 16.0739845,8.80427077 16.0739845,8.68356989 C16.0739845,8.562869 16.0260016,8.44711911 15.9406057,8.36181818 L15.9406057,8.36181818 L15.6199909,8.04575114 C15.4426125,7.86942502 15.1561398,7.86942502 14.9787614,8.04575114 L14.9787614,8.04575114 L14.2738636,8.748375 L14.2738636,5.33757955 C14.2738636,5.0864155 14.070255,4.88280682 13.8190909,4.88280682 L13.8190909,4.88280682 Z"/>
</svg>
