<svg xmlns="http://www.w3.org/2000/svg" width="24" height="24" viewBox="0 0 24 24">
  <path fill="#526075" fill-rule="evenodd" d="M11.7876988,2.18533902 C11.9529505,2.08631296 12.1593007,2.08631296 12.3245524,2.18533902 C14.391439,3.33957439 17.3856183,4.39864024 21.3095305,4.98429878 C21.5680044,5.02178095 21.7600517,5.24289487 21.7609756,5.50407073 L21.7609756,5.50407073 L21.7609756,9.82818293 C21.7609756,15.2227488 18.5740171,19.2003463 12.2001,21.7609756 C12.0716375,21.8123045 11.9283625,21.8123045 11.7999,21.7609756 C5.50081708,19.2703 2.31385854,15.4179683 2.23902439,10.2039805 L2.23902439,10.2039805 L2.23902439,5.51627195 C2.24063392,5.25051763 2.4389761,5.02712169 2.70267073,4.99405976 C6.72175244,4.50357073 9.74765488,3.44450488 11.7876988,2.18533902 Z M13.2284737,6.45598838 C12.5311926,5.82457312 11.4688074,5.82457312 10.7715263,6.45598838 C10.0742452,7.08740366 9.96917473,8.1445804 10.5285329,8.90089024 L10.5285329,8.90089024 L8.41040122,12.5612561 C8.34234006,12.5535457 8.27391596,12.5494728 8.20542073,12.5490549 C7.29122484,12.548584 6.51689323,13.2227855 6.39157277,14.1283511 C6.26625229,15.0339168 6.82838419,15.8930703 7.70834942,16.1408919 C8.58831467,16.3887135 9.51618976,15.9491854 9.88186829,15.111311 L9.88186829,15.111311 L14.1181317,15.111311 C14.4090833,15.777965 15.0672002,16.209046 15.7945793,16.2094207 C16.8053614,16.2094207 17.6247621,15.3900199 17.6247621,14.3792378 C17.6247621,13.3684557 16.8053614,12.5490549 15.7945793,12.5490549 C15.726084,12.5494728 15.6576599,12.5535457 15.5895988,12.5612561 L15.5895988,12.5612561 L13.4714671,8.90089024 C14.0308253,8.1445804 13.9257548,7.08740366 13.2284737,6.45598838 Z M12.2049805,9.64760488 L14.3231122,13.3079707 C14.2412798,13.4166841 14.1724828,13.5346218 14.1181317,13.6593659 L14.1181317,13.6593659 L9.88186829,13.6593659 C9.82751716,13.5346218 9.75872019,13.4166841 9.6768878,13.3079707 L9.6768878,13.3079707 L11.7950195,9.64760488 C11.8632979,9.65124462 11.9317216,9.65124462 12,9.64760488 C12.0682784,9.65124462 12.1367021,9.65124462 12.2049805,9.64760488 L12.2049805,9.64760488 Z"/>
</svg>
