<svg xmlns="http://www.w3.org/2000/svg" width="24" height="24" viewBox="0 0 24 24">
  <path fill="#526075" fill-rule="evenodd" d="M20.004,2.9704875 L3.996,2.9704875 C2.89545,2.9704875 1.995,3.8709375 1.995,4.9714875 L1.995,14.9764875 C1.995,16.0770375 2.89545,16.9774875 3.996,16.9774875 L5.246625,16.9774875 L5.246625,20.50425 C5.246625,20.954475 5.7969,21.1795875 6.09705,20.854425 L9.9739875,16.9774875 L20.004,16.9774875 C21.10455,16.9774875 22.005,16.0770375 22.005,14.9764875 L22.005,4.9714875 C22.005,3.8709375 21.10455,2.9704875 20.004,2.9704875 Z M6.3721875,11.2246125 C5.6718375,11.2246125 5.1215625,10.6743375 5.1215625,9.9739875 C5.1215625,9.2736375 5.6718375,8.7233625 6.3721875,8.7233625 C7.0725375,8.7233625 7.6228125,9.2736375 7.6228125,9.9739875 C7.6228125,10.6743375 7.0725375,11.2246125 6.3721875,11.2246125 Z M12,11.2246125 C11.29965,11.2246125 10.749375,10.6743375 10.749375,9.9739875 C10.749375,9.2736375 11.29965,8.7233625 12,8.7233625 C12.70035,8.7233625 13.250625,9.2736375 13.250625,9.9739875 C13.250625,10.6743375 12.70035,11.2246125 12,11.2246125 Z M17.6278125,11.2246125 C16.9274625,11.2246125 16.3771875,10.6743375 16.3771875,9.9739875 C16.3771875,9.2736375 16.9274625,8.7233625 17.6278125,8.7233625 C18.3281625,8.7233625 18.8784375,9.2736375 18.8784375,9.9739875 C18.8784375,10.6743375 18.3281625,11.2246125 17.6278125,11.2246125 Z"/>
</svg>
