<svg xmlns="http://www.w3.org/2000/svg" width="24" height="24" viewBox="0 0 24 24">
  <path fill="#526075" fill-rule="evenodd" d="M12.8993258,2.46714607 L20.0939326,6.62652809 C20.6560112,6.94129213 20.9932584,7.54833708 20.9932584,8.17786517 L20.9932584,16.0469663 C20.9932584,16.6989775 20.6560112,17.2835393 20.0939326,17.5983034 L19.0677416,18.1912107 L15.4364837,16.0949458 C15.4536786,15.3424208 15.0989133,14.6030168 14.4464354,14.15383 L14.2906126,14.0554494 C13.1942841,13.4224839 11.7924143,13.7981138 11.1594488,14.8944422 C10.5264833,15.9907707 10.9021132,17.3926404 11.9984416,18.025606 C12.7496363,18.4593084 13.6442786,18.4194884 14.336732,17.998759 L14.336732,17.998759 L16.8707416,19.4612107 L12.8993258,21.7576854 C12.3372472,22.0724494 11.6627528,22.0724494 11.1006742,21.7576854 L3.90606742,17.5983034 C3.34398876,17.2835393 3.00674157,16.6764944 3.00674157,16.0469663 L3.00674157,8.17786517 C3.00674157,7.52585393 3.34398876,6.94129213 3.90606742,6.62652809 L5.23674157,5.85621067 L9.17374575,8.13008835 C9.15655085,8.88261331 9.51131618,9.62201734 10.163794,10.0712041 L10.3196169,10.1695847 C11.4159453,10.8025502 12.8178151,10.4269204 13.4507806,9.33059191 C14.0837462,8.23426346 13.7081163,6.83239369 12.6117878,6.19942816 C11.8602348,5.76551881 10.9650971,5.80558386 10.2725065,6.22687763 L10.2725065,6.22687763 L7.43174157,4.58721067 L11.1006742,2.46714607 C11.6627528,2.12989888 12.3372472,2.12989888 12.8993258,2.46714607 Z"/>
</svg>
