<svg xmlns="http://www.w3.org/2000/svg" width="24" height="24" viewBox="0 0 24 24">
  <path fill="#526075" fill-rule="evenodd" d="M19.0717159,4.92828409 C15.1606705,1.01723864 8.83932955,1.01723864 4.92828409,4.92828409 C1.01723864,8.83932955 1.01723864,15.1606705 4.92828409,19.0717159 C8.83932955,22.9827614 15.1606705,22.9827614 19.0717159,19.0717159 C22.9827614,15.1606705 22.9827614,8.83932955 19.0717159,4.92828409 Z M7.36131818,16.6386818 L6.77011364,17.2298864 C6.58820455,17.4117955 6.31534091,17.3890568 6.15617045,17.2071477 C3.51848864,14.2283864 3.51848864,9.72613636 6.15617045,6.77011364 C6.31534091,6.58820455 6.61094318,6.58820455 6.77011364,6.747375 L7.36131818,7.33857955 C7.52048864,7.49775 7.52048864,7.747875 7.38405682,7.90704545 C6.49725,8.90754545 5.997,10.1354318 5.88330682,11.3860568 C5.72413636,13.0232386 6.22438636,14.7058977 7.38405682,16.0247386 C7.52048864,16.2293864 7.52048864,16.4795114 7.36131818,16.6386818 Z M10.2036477,13.7053977 C10.3400795,13.8873068 10.3173409,14.1146932 10.1809091,14.2738636 L9.56696591,14.8878068 C9.38505682,15.0697159 9.08945455,15.0469773 8.93028409,14.8650682 C7.58870455,13.2051477 7.58870455,10.8175909 8.93028409,9.15767045 C9.08945455,8.97576136 9.38505682,8.95302273 9.56696591,9.13493182 L10.1809091,9.72613636 C10.3400795,9.88530682 10.3400795,10.1126932 10.2036477,10.2718636 C9.90804545,10.6584205 9.72613636,11.1131932 9.65792045,11.5907045 C9.56696591,12.3183409 9.748875,13.0914545 10.2036477,13.7053977 Z M15.0469773,14.8423295 C14.8878068,15.0242386 14.5922045,15.0469773 14.4102955,14.8650682 L13.8190909,14.2738636 C13.6599205,14.1146932 13.6599205,13.8873068 13.7963523,13.7053977 C14.1829091,13.2051477 14.3648182,12.5912045 14.3648182,11.9772614 C14.3648182,11.3860568 14.1601705,10.7721136 13.7963523,10.2718636 C13.6599205,10.0899545 13.6826591,9.86256818 13.8190909,9.70339773 L14.4330341,9.08945455 C14.6149432,8.90754545 14.9105455,8.93028409 15.0697159,9.11219318 C16.3885568,10.7948523 16.3885568,13.2051477 15.0469773,14.8423295 Z M17.8665682,17.2298864 C17.7073977,17.4117955 17.4117955,17.4117955 17.252625,17.252625 L16.6614205,16.6614205 C16.50225,16.50225 16.50225,16.252125 16.6386818,16.0929545 C17.6619205,14.9332841 18.1621705,13.4780114 18.1621705,12.0227386 C18.1621705,10.5674659 17.6619205,9.11219318 16.6386818,7.95252273 C16.50225,7.79335227 16.50225,7.54322727 16.6614205,7.38405682 L17.252625,6.79285227 C17.4345341,6.61094318 17.7073977,6.63368182 17.8665682,6.81559091 C20.50425,9.748875 20.50425,14.251125 17.8665682,17.2298864 Z"/>
</svg>
