<svg xmlns="http://www.w3.org/2000/svg" width="24" height="24" viewBox="0 0 24 24">
  <path fill="#526075" fill-rule="evenodd" d="M12,1.995 C6.47451136,1.995 1.995,6.47451136 1.995,12 C1.995,17.5254886 6.47451136,22.005 12,22.005 C17.5254886,22.005 22.005,17.5254886 22.005,12 C22.005,6.47451136 17.5254886,1.995 12,1.995 Z M10.2946023,16.7751136 L6.9975,16.7751136 C6.63368182,16.7751136 6.29260227,16.5704659 6.11069318,16.2748636 C5.92878409,15.9565227 5.92878409,15.5699659 6.11069318,15.251625 L7.79335227,12.3410795 C8.02073864,11.9545227 8.49825,11.8408295 8.88480682,12.0454773 C9.27136364,12.2728636 9.38505682,12.750375 9.18040909,13.1369318 L7.97526136,15.1834091 L10.2946023,15.1834091 C10.7266364,15.1834091 11.0904545,15.5472273 11.0904545,15.9792614 C11.0904545,16.4112955 10.7266364,16.7751136 10.2946023,16.7751136 Z M10.7721136,10.3400795 C10.5447273,10.7266364 10.0672159,10.8403295 9.68065909,10.6356818 C9.29410227,10.4082955 9.18040909,9.93078409 9.38505682,9.54422727 L11.1131932,6.56546591 C11.2951023,6.247125 11.6361818,6.06521591 12,6.06521591 C12.3638182,6.06521591 12.7048977,6.26986364 12.8868068,6.56546591 L14.6376818,9.58970455 C14.8650682,9.97626136 14.7286364,10.4537727 14.3420795,10.6811591 C14.2056477,10.749375 14.0692159,10.7948523 13.9555227,10.7948523 C13.6826591,10.7948523 13.4097955,10.6584205 13.2733636,10.3855568 L12,8.20264773 L10.7721136,10.3400795 Z M17.8893068,16.2748636 C17.7073977,16.5704659 17.3663182,16.7751136 17.0025,16.7751136 L13.4780114,16.7751136 C13.0459773,16.7751136 12.6821591,16.4112955 12.6821591,15.9792614 C12.6821591,15.5472273 13.0459773,15.1834091 13.4780114,15.1834091 L16.0247386,15.1834091 L14.8423295,13.1141932 C14.6149432,12.7276364 14.751375,12.250125 15.1379318,12.0227386 C15.5244886,11.7953523 16.002,11.9317841 16.2293864,12.3183409 L17.9120455,15.2288864 C18.0712159,15.5472273 18.0712159,15.9565227 17.8893068,16.2748636 Z"/>
</svg>
