<svg xmlns="http://www.w3.org/2000/svg" width="24" height="24" viewBox="0 0 24 24">
  <path fill="#526075" fill-rule="evenodd" d="M12,1.995 C14.2283864,1.995 16.2976023,2.72263636 17.9575227,3.97326136 C17.6391818,4.15517045 17.3663182,4.38255682 17.1161932,4.67815909 C16.9570227,4.88280682 16.8205909,5.08745455 16.7068977,5.31484091 C16.3203409,5.04197727 15.8883068,4.79185227 15.4562727,4.58720455 C16.3885568,6.22438636 17.0252386,8.52098864 17.1389318,11.0904545 L17.1389318,11.0904545 L20.1404318,11.0904545 C20.0722159,10.6129432 19.9812614,10.1354318 19.8448295,9.68065909 C20.4815114,9.61244318 21.0499773,9.33957955 21.5274886,8.93028409 C21.8230909,9.88530682 22.005,10.9312841 22.005,12 C22.005,17.5254886 17.5254886,22.005 12,22.005 C6.47451136,22.005 1.995,17.5254886 1.995,12 C1.995,6.47451136 6.47451136,1.995 12,1.995 Z M15.2971023,12.9095455 L12,12.9095455 L12,20.1859091 C13.250625,20.1859091 15.0697159,17.3208409 15.2971023,12.9095455 L15.2971023,12.9095455 Z M20.1404318,12.9095455 L17.1389318,12.9095455 C17.0025,15.4790114 16.3885568,17.7756136 15.4562727,19.4127955 C17.9802614,18.2303864 19.8220909,15.7973523 20.1404318,12.9095455 L20.1404318,12.9095455 Z M12,3.81409091 L12,11.0904545 L15.2971023,11.0904545 C15.2061477,9.06671591 14.751375,7.15667045 14.0237386,5.746875 C13.4097955,4.56446591 12.6366818,3.81409091 12,3.81409091 L12,3.81409091 Z M19.50375,4.97376136 C19.5947045,4.97376136 19.7083977,4.97376136 19.8220909,4.9965 C20.50425,5.13293182 21.0272386,5.65592045 21.1636705,6.33807955 C21.254625,6.77011364 21.1636705,7.17940909 20.9590227,7.54322727 L20.9590227,7.54322727 L20.9371263,7.56007071 C20.9236515,7.56849242 20.9135455,7.57354545 20.9135455,7.58870455 L20.9135455,7.58870455 L20.8274086,7.70921419 C20.5222906,8.09872652 20.0412087,8.36181818 19.50375,8.36181818 L19.50375,8.36181818 L19.3218409,8.36181818 L19.3218409,8.36181818 L19.2603624,8.35592298 C19.2233068,8.34918561 19.1929886,8.33907955 19.1626705,8.33907955 C18.4805114,8.20264773 17.9575227,7.67965909 17.8210909,6.9975 C17.7983523,6.747375 17.7983523,6.51998864 17.8438295,6.29260227 L17.8438295,6.29260227 L17.8741477,6.15701263 C17.8994129,6.06774242 17.9347841,5.98184091 17.9802614,5.90604545 L17.9802614,5.90604545 L17.9802614,5.88330682 C18.003,5.83782955 18.0257386,5.79235227 18.0484773,5.746875 C18.0484773,5.72413636 18.0712159,5.72413636 18.0712159,5.70139773 C18.0939545,5.65592045 18.1166932,5.61044318 18.1621705,5.56496591 L18.1621705,5.56496591 L18.2535461,5.46664236 C18.4072424,5.30978788 18.5714659,5.18977841 18.7988523,5.13293182 L18.7988523,5.13293182 L18.9125455,5.08829672 C18.9883409,5.05966288 19.0641364,5.03439773 19.1399318,5.01923864 L19.1399318,5.01923864 L19.2595202,4.99734217 C19.342053,4.98386742 19.4279545,4.97376136 19.50375,4.97376136 Z"/>
</svg>
