<svg xmlns="http://www.w3.org/2000/svg" width="24" height="24" viewBox="0 0 24 24">
  <path fill="#526075" fill-rule="evenodd" d="M16.4466667,3.329 C16.7801667,3.329 17.0692,3.50686667 17.2248333,3.77366667 L17.2248333,3.77366667 L21.6715,11.5553333 C21.8271333,11.8221333 21.8271333,12.1778667 21.6715,12.4446667 L21.6715,12.4446667 L17.2248333,20.2263333 C17.0692,20.4931333 16.7579333,20.671 16.4466667,20.671 L16.4466667,20.671 L7.55333333,20.671 C7.21983333,20.671 6.9308,20.4931333 6.77516667,20.2263333 L6.77516667,20.2263333 L2.3285,12.4446667 C2.17286667,12.1556333 2.17286667,11.8221333 2.3285,11.5553333 L2.3285,11.5553333 L6.77516667,3.77366667 C6.9308,3.50686667 7.24206667,3.329 7.55333333,3.329 L7.55333333,3.329 Z M14.4456667,6.57506667 L9.55433333,6.57506667 C9.10966667,6.57506667 8.70946667,6.7974 8.48713333,7.17536667 L8.48713333,7.17536667 L6.04146667,11.3997 C5.81913333,11.7776667 5.81913333,12.2445667 6.04146667,12.6225333 L6.04146667,12.6225333 L8.48713333,16.8468667 C8.70946667,17.2026 9.10966667,17.4471667 9.55433333,17.4471667 L9.55433333,17.4471667 L14.4234333,17.4471667 C14.8681,17.4471667 15.2683,17.2248333 15.4906333,16.8468667 L15.4906333,16.8468667 L17.9363,12.6225333 C18.1586333,12.2223333 18.1586333,11.7554333 17.9585333,11.3997 L17.9585333,11.3997 L15.5128667,7.17536667 C15.2905333,6.81963333 14.8903333,6.57506667 14.4456667,6.57506667 L14.4456667,6.57506667 Z M14.001,8.10916667 C14.1566333,8.10916667 14.2900333,8.1981 14.3789667,8.3315 L14.3789667,8.3315 L16.3799667,11.7776667 C16.4689,11.9110667 16.4689,12.0889333 16.3799667,12.2223333 L16.3799667,12.2223333 L14.3789667,15.6685 C14.3122667,15.8019 14.1566333,15.8908333 14.001,15.8908333 L14.001,15.8908333 L9.999,15.8908333 C9.84336667,15.8908333 9.70996667,15.8019 9.62103333,15.6685 L9.62103333,15.6685 L7.62003333,12.2223333 C7.5311,12.0889333 7.5311,11.9110667 7.62003333,11.7776667 L7.62003333,11.7776667 L9.62103333,8.3315 C9.68773333,8.1981 9.84336667,8.10916667 9.999,8.10916667 L9.999,8.10916667 Z M12.6225333,10.666 L11.333,10.666 C11.2440667,10.666 11.1773667,10.7104667 11.1329,10.7771667 L11.1329,10.7771667 L10.4881333,11.8888333 C10.4436667,11.9555333 10.4436667,12.0444667 10.4881333,12.1111667 L10.4881333,12.1111667 L11.1329,13.2228333 C11.1773667,13.2895333 11.2440667,13.334 11.333,13.334 L11.333,13.334 L12.6225333,13.334 C12.7114667,13.334 12.7781667,13.2895333 12.8226333,13.2228333 L12.8226333,13.2228333 L13.4674,12.1111667 C13.5118667,12.0444667 13.5118667,11.9555333 13.4674,11.8888333 L13.4674,11.8888333 L12.8226333,10.7771667 C12.7781667,10.7104667 12.7114667,10.666 12.6225333,10.666 L12.6225333,10.666 Z"/>
</svg>
