<svg xmlns="http://www.w3.org/2000/svg" width="24" height="24" viewBox="0 0 24 24">
  <path fill="#526075" fill-rule="evenodd" d="M19.5593333,6.44166667 L12.4446667,2.3285 C12.1778667,2.17286667 11.8221333,2.17286667 11.5553333,2.3285 L4.44066667,6.44166667 C4.17386667,6.5973 3.996,6.88633333 3.996,7.21983333 L3.996,16.7801667 C3.996,17.0914333 4.17386667,17.3804667 4.44066667,17.5583333 L11.5553333,21.6715 C11.8221333,21.8271333 12.1778667,21.8271333 12.4446667,21.6715 L19.5593333,17.5583333 C19.8261333,17.4027 20.004,17.1136667 20.004,16.7801667 L20.004,7.21983333 C20.004,6.90856667 19.8261333,6.61953333 19.5593333,6.44166667 Z M11.8221333,8.88733333 L11.7776667,17.8696 L9.7322,16.669 L9.7322,9.8656 L6.81963333,11.5553333 L6.81963333,9.15413333 L12.2668,6.15263333 L14.5568333,7.3977 L11.8221333,8.88733333 Z M15.7352,16.7801667 L13.4674,17.8473667 L13.4674,9.88783333 L15.7352,8.68723333 L15.7352,16.7801667 Z"/>
</svg>
