<svg xmlns="http://www.w3.org/2000/svg" width="24" height="24" viewBox="0 0 24 24">
  <path fill="#526075" fill-rule="evenodd" d="M12.0685528,2.0033375 L12.2001,2.0200125 L20.2041,3.5707875 C20.6793375,3.645825 21.0045,4.046025 21.0045,4.49625 L21.0045,4.49625 L21.0045,10.0240125 C21.0045,14.0760375 18.8784375,17.8779375 15.3266625,20.10405 L15.3266625,20.10405 L12.550275,21.854925 C12.2001,22.055025 11.7748875,22.055025 11.449725,21.854925 L11.449725,21.854925 L8.6733375,20.10405 C5.1215625,17.8779375 2.9955,14.10105 2.9955,10.0240125 L2.9955,10.0240125 L2.9955,4.49625 C2.9955,4.046025 3.3206625,3.645825 3.7959,3.5707875 L3.7959,3.5707875 L11.7999,2.0200125 C11.9249625,1.995 12.0750375,1.995 12.2001,2.0200125 Z M11.749875,6.747375 L9.49875,6.747375 C8.8734375,6.747375 8.3731875,7.247625 8.3731875,7.8729375 L8.3731875,7.8729375 L8.3731875,14.6263125 C8.3731875,15.251625 8.8734375,15.751875 9.49875,15.751875 L9.49875,15.751875 L11.749875,15.751875 C13.8759375,15.751875 15.6268125,14.001 15.6268125,11.8749375 L15.6268125,11.8749375 L15.6268125,10.6243125 C15.6268125,8.49825 13.90095,6.747375 11.749875,6.747375 L11.749875,6.747375 Z M11.749875,8.49825 C12.9254625,8.49825 13.8759375,9.448725 13.8759375,10.649325 L13.8759375,10.649325 L13.8759375,11.8749375 C13.8759375,13.050525 12.9254625,14.001 11.749875,14.001 L11.749875,14.001 L10.1240625,14.001 L10.1240625,8.49825 Z"/>
</svg>
