<svg xmlns="http://www.w3.org/2000/svg" width="24" height="24" viewBox="0 0 24 24">
  <path fill="#526075" fill-rule="evenodd" d="M9.748875,4.1210625 C10.0240125,4.1210625 10.249125,4.346175 10.249125,4.6213125 L10.249125,7.6228125 C10.249125,7.89795 10.0240125,8.1230625 9.748875,8.1230625 L3.245625,8.1230625 C2.9704875,8.1230625 2.745375,7.89795 2.745375,7.6228125 L2.745375,4.6213125 C2.745375,4.346175 2.9704875,4.1210625 3.245625,4.1210625 L9.748875,4.1210625 Z M9.748875,9.8739375 C10.0240125,9.8739375 10.249125,10.09905 10.249125,10.3741875 L10.249125,13.3756875 C10.249125,13.650825 10.0240125,13.8759375 9.748875,13.8759375 L2.49525,13.8759375 C2.2201125,13.8759375 1.995,13.650825 1.995,13.3756875 L1.995,10.3741875 C1.995,10.09905 2.2201125,9.8739375 2.49525,9.8739375 L9.748875,9.8739375 Z M9.748875,15.6268125 C10.0240125,15.6268125 10.249125,15.851925 10.249125,16.1270625 L10.249125,19.1285625 C10.249125,19.4037 10.0240125,19.6288125 9.748875,19.6288125 L3.245625,19.6288125 C2.9704875,19.6288125 2.745375,19.4037 2.745375,19.1285625 L2.745375,16.1270625 C2.745375,15.851925 2.9704875,15.6268125 3.245625,15.6268125 L9.748875,15.6268125 Z M14.6263125,2.3701875 C16.052025,2.3701875 17.2276125,3.5207625 17.252625,4.9214625 C17.4027,4.89645 17.5777875,4.8714375 17.752875,4.8714375 C19.0035,4.8714375 20.004,5.8719375 20.004,7.1225625 C20.004,7.3977 19.953975,7.647825 19.8789375,7.89795 C21.154575,8.7984 22.005,10.29915 22.005,12 C22.005,13.2756375 21.5297625,14.451225 20.7293625,15.3266625 C20.7293625,15.4267125 20.754375,15.5267625 20.754375,15.6268125 C20.754375,17.2776375 19.4037,18.6283125 17.752875,18.6283125 C17.652825,18.6283125 17.5777875,18.6283125 17.50275,18.6283125 C17.50275,18.70335 17.50275,18.8034 17.50275,18.8784375 C17.50275,20.4042 16.2771375,21.6298125 14.751375,21.6298125 C13.2256125,21.6298125 12,20.4042 12,18.8784375 L12,4.8714375 L12,4.8714375 C12.0750375,3.4707375 13.2256125,2.3701875 14.6263125,2.3701875 Z"/>
</svg>
