<svg xmlns="http://www.w3.org/2000/svg" width="24" height="24" viewBox="0 0 24 24">
  <path fill="#526075" fill-rule="evenodd" d="M9.61244318,10.3400795 L10.4765114,13.5234886 L8.748375,13.5234886 L9.61244318,10.3400795 Z M16.3203409,7.22488636 L15.4107955,7.22488636 C15.1606705,7.22488636 14.9560227,7.42953409 14.9560227,7.67965909 L14.9560227,16.3203409 C14.9560227,16.5704659 15.1606705,16.7751136 15.4107955,16.7751136 L16.3203409,16.7751136 C16.5704659,16.7751136 16.7751136,16.5704659 16.7751136,16.3203409 L16.7751136,7.67965909 C16.7751136,7.42953409 16.5704659,7.22488636 16.3203409,7.22488636 Z M10.8630682,7.56596591 C10.7948523,7.33857955 10.5902045,7.20214773 10.3628182,7.22488636 L8.88480682,7.22488636 C8.65742045,7.17940909 8.43003409,7.33857955 8.38455682,7.56596591 L6.08795455,15.9565227 C6.08795455,15.9565227 6.08795455,15.9565227 6.08795455,15.9565227 C6.01973864,16.2066477 6.17890909,16.4567727 6.40629545,16.50225 L7.38405682,16.7751136 C7.63418182,16.8433295 7.88430682,16.7068977 7.92978409,16.4567727 L8.20264773,15.4562727 L10.9540227,15.4562727 L11.2268864,16.4567727 C11.2951023,16.7068977 11.5452273,16.8433295 11.7726136,16.7751136 L12.750375,16.50225 C13.0005,16.4340341 13.1369318,16.1839091 13.0687159,15.9337841 L10.8630682,7.56596591 Z M12,1.995 C17.5254886,1.995 22.005,6.47451136 22.005,12 C22.005,17.5254886 17.5254886,22.005 12,22.005 C6.47451136,22.005 1.995,17.5254886 1.995,12 C1.995,6.47451136 6.47451136,1.995 12,1.995 Z"/>
</svg>
