<svg xmlns="http://www.w3.org/2000/svg" width="24" height="24" viewBox="0 0 24 24">
  <path fill="#526075" fill-rule="evenodd" d="M12,1.995 C6.47451136,1.995 1.995,6.47451136 1.995,12 C1.995,17.5254886 6.47451136,22.005 12,22.005 C17.5254886,22.005 22.005,17.5254886 22.005,12 C22.005,6.47451136 17.5254886,1.995 12,1.995 Z M9.27136364,16.8205909 C9.27136364,17.3208409 8.86206818,17.7301364 8.36181818,17.7301364 C7.86156818,17.7301364 7.45227273,17.3208409 7.45227273,16.8205909 L7.45227273,13.4097955 C7.45227273,13.2733636 7.54322727,13.1824091 7.67965909,13.1824091 L9.04397727,13.1824091 C9.18040909,13.1824091 9.27136364,13.2733636 9.27136364,13.4097955 L9.27136364,16.8205909 Z M12.9095455,16.8205909 C12.9095455,17.3208409 12.50025,17.7301364 12,17.7301364 C11.49975,17.7301364 11.0904545,17.3208409 11.0904545,16.8205909 L11.0904545,13.4097955 C11.0904545,13.2733636 11.1814091,13.1824091 11.3178409,13.1824091 L12.6821591,13.1824091 C12.8185909,13.1824091 12.9095455,13.2733636 12.9095455,13.4097955 L12.9095455,16.8205909 Z M16.5477273,16.8205909 C16.5477273,17.3208409 16.1384318,17.7301364 15.6381818,17.7301364 C15.1379318,17.7301364 14.7286364,17.3208409 14.7286364,16.8205909 L14.7286364,13.4097955 C14.7286364,13.2733636 14.8195909,13.1824091 14.9560227,13.1824091 L16.3203409,13.1824091 C16.4567727,13.1824091 16.5477273,13.2733636 16.5477273,13.4097955 L16.5477273,16.8205909 Z M17.0025,11.0449773 C17.0025,11.2951023 16.7978523,11.49975 16.5477273,11.49975 L7.45227273,11.49975 C7.20214773,11.49975 6.9975,11.2951023 6.9975,11.0449773 L6.9975,10.1354318 C6.9975,9.88530682 7.20214773,9.68065909 7.45227273,9.68065909 L11.0904545,9.68065909 L11.0904545,7.17940909 C11.0904545,6.67915909 11.49975,6.26986364 12,6.26986364 C12.50025,6.26986364 12.9095455,6.67915909 12.9095455,7.17940909 L12.9095455,9.68065909 L16.5477273,9.68065909 C16.7978523,9.68065909 17.0025,9.88530682 17.0025,10.1354318 L17.0025,11.0449773 Z"/>
</svg>
