<svg xmlns="http://www.w3.org/2000/svg" width="18" height="20" viewBox="0 0 18 20">
  <path fill="#526075" fill-rule="evenodd" d="M11.1006742,2.45028371 C11.6627528,2.13551966 12.3372472,2.13551966 12.8993258,2.45028371 L12.8993258,2.45028371 L20.0939326,6.60966573 C20.6560112,6.92442978 20.9932584,7.50899157 20.9932584,8.16100281 L20.9932584,8.16100281 L20.9932584,16.0301039 C20.9932584,16.659632 20.6560112,17.266677 20.0939326,17.581441 L20.0939326,17.581441 L12.8993258,21.740823 C12.3372472,22.0780702 11.6627528,22.0780702 11.1006742,21.740823 L11.1006742,21.740823 L3.90606742,17.581441 C3.34398876,17.266677 3.00674157,16.6821152 3.00674157,16.0301039 L3.00674157,16.0301039 L3.00674157,8.16100281 C3.00674157,7.53147472 3.34398876,6.92442978 3.90606742,6.60966573 L3.90606742,6.60966573 Z M12.50025,5.67865909 L11.5452273,5.67865909 C11.2723636,5.67865909 11.0677159,5.88330682 11.0677159,6.15617045 L11.0677159,11.0449773 L8.33907955,13.7736136 L8.33907955,12.8868068 C8.33907955,12.6139432 8.13443182,12.4092955 7.86156818,12.4092955 L7.38405682,12.4092955 C7.11119318,12.4092955 6.90654545,12.6139432 6.90654545,12.8868068 L6.90654545,16.1156932 C6.90654545,16.3885568 7.11119318,16.5932045 7.38405682,16.5932045 L10.5902045,16.5932045 C10.8630682,16.5932045 11.0677159,16.3885568 11.0677159,16.1156932 L11.0677159,15.6381818 C11.0677159,15.3653182 10.8630682,15.1606705 10.5902045,15.1606705 L9.70339773,15.1606705 L12,12.7958523 L14.3420795,15.1379318 L13.4552727,15.1379318 C13.1824091,15.1379318 12.9777614,15.3425795 12.9777614,15.6154432 L12.9777614,16.0929545 C12.9777614,16.3658182 13.1824091,16.5704659 13.4552727,16.5704659 L16.6614205,16.5704659 C16.9342841,16.5704659 17.1389318,16.3658182 17.1389318,16.0929545 L17.1389318,12.8868068 C17.1389318,12.6139432 16.9342841,12.4092955 16.6614205,12.4092955 L16.1839091,12.4092955 C15.9110455,12.4092955 15.7063977,12.6139432 15.7063977,12.8868068 L15.7063977,13.7736136 L12.9777614,11.0449773 L12.9777614,6.15617045 C12.9777614,5.88330682 12.7731136,5.67865909 12.50025,5.67865909 Z" transform="translate(-3 -2)"/>
</svg>
