<svg xmlns="http://www.w3.org/2000/svg" width="24" height="24" viewBox="0 0 24 24">
  <path fill="#526075" fill-rule="evenodd" d="M21.3602333,9.35423333 C21.6048,9.35423333 21.8049,9.55433333 21.8271333,9.7989 L21.8271333,9.7989 L21.8271333,19.0924333 C21.8271333,19.5815667 21.4269333,19.9817667 20.9378,19.9817667 L20.9378,19.9817667 L3.08443333,19.9817667 C2.5953,19.9817667 2.1951,19.5815667 2.1951,19.0924333 L2.1951,19.0924333 L2.1951,9.7989 C2.1951,9.55433333 2.3952,9.35423333 2.63976667,9.35423333 L2.63976667,9.35423333 Z M16.6245333,15.2460667 C15.8908333,15.1349 15.2460667,15.7574333 15.3572333,16.5133667 C15.4239333,16.9802667 15.8019,17.3582333 16.2688,17.4249333 C17.0247333,17.5361 17.6695,16.8913333 17.5361,16.1576333 C17.4694,15.6907333 17.0914333,15.3127667 16.6245333,15.2460667 Z M8.64276667,16.4911333 C8.77616667,15.7352 8.1314,15.1126667 7.37546667,15.2238333 C6.90856667,15.2905333 6.5306,15.6685 6.4639,16.1354 C6.35273333,16.8691 6.97526667,17.5138667 7.7312,17.4027 C8.1981,17.336 8.57606667,16.9580333 8.64276667,16.4911333 Z M13.0894333,16.4911333 C13.2228333,15.7352 12.5780667,15.1126667 11.8221333,15.2238333 C11.3552333,15.2905333 10.9772667,15.6685 10.9105667,16.1354 C10.7994,16.8691 11.4219333,17.5138667 12.1778667,17.4027 C12.6447667,17.336 13.0227333,16.9580333 13.0894333,16.4911333 Z M20.9155667,4.01823333 C21.4269333,4.01823333 21.8049,4.41843333 21.8271333,4.90756667 L21.8271333,4.90756667 L21.8271333,7.57556667 L2.1951,7.57556667 L2.1951,4.90756667 C2.1951,4.41843333 2.5953,4.01823333 3.08443333,4.01823333 L3.08443333,4.01823333 Z"/>
</svg>
