<svg xmlns="http://www.w3.org/2000/svg" width="24" height="24" viewBox="0 0 24 24">
  <path fill="#526075" fill-rule="evenodd" d="M12,1.995 C17.5254886,1.995 22.005,6.47451136 22.005,12 C22.005,17.5254886 17.5254886,22.005 12,22.005 C6.47451136,22.005 1.995,17.5254886 1.995,12 C1.995,6.47451136 6.47451136,1.995 12,1.995 Z M12,5.70139773 C10.9312841,5.70139773 10.0672159,6.56546591 10.0672159,7.63418182 C10.0672159,8.02073864 10.1809091,8.36181818 10.3628182,8.65742045 L10.3628182,8.65742045 L7.95252273,12.8413295 L7.95252273,12.8413295 L7.92978409,12.8413295 C6.86106818,12.8413295 5.997,13.7053977 5.997,14.7741136 C5.997,15.8428295 6.86106818,16.7068977 7.92978409,16.7068977 C8.65742045,16.7068977 9.31684091,16.2976023 9.63518182,15.6836591 L9.63518182,15.6836591 L14.3648182,15.6836591 C14.6831591,16.2976023 15.3198409,16.7068977 16.0702159,16.7068977 C17.1389318,16.7068977 18.003,15.8428295 18.003,14.7741136 C18.003,13.7053977 17.1389318,12.8413295 16.0702159,12.8413295 L16.0702159,12.8413295 L16.0474773,12.8413295 L13.6371818,8.65742045 C13.8190909,8.36181818 13.9327841,7.998 13.9327841,7.63418182 C13.9327841,6.56546591 13.0687159,5.70139773 12,5.70139773 Z M12.3183409,9.54422727 L14.6149432,13.5234886 C14.4785114,13.6826591 14.3648182,13.8873068 14.2738636,14.0919545 L14.2738636,14.0919545 L9.72613636,14.0919545 C9.63518182,13.8873068 9.52148864,13.6826591 9.38505682,13.5234886 L9.38505682,13.5234886 L11.6816591,9.54422727 C11.7953523,9.56696591 11.8863068,9.56696591 12,9.56696591 L12.107798,9.56612374 C12.1768561,9.56443939 12.2425455,9.55938636 12.3183409,9.54422727 L12.3183409,9.54422727 Z"/>
</svg>
