<svg xmlns="http://www.w3.org/2000/svg" width="24" height="24" viewBox="0 0 24 24">
  <path fill="#526075" fill-rule="evenodd" d="M12,1.995 C6.47451136,1.995 1.995,6.47451136 1.995,12 C1.995,17.5254886 6.47451136,22.005 12,22.005 C17.5254886,22.005 22.005,17.5254886 22.005,12 C22.005,6.47451136 17.5254886,1.995 12,1.995 Z M11.0904545,16.5477273 C11.0904545,16.7978523 10.8858068,17.0025 10.6356818,17.0025 L7.45227273,17.0025 C7.20214773,17.0025 6.9975,16.7978523 6.9975,16.5477273 L6.9975,13.3643182 C6.9975,13.1141932 7.20214773,12.9095455 7.45227273,12.9095455 L10.6356818,12.9095455 C10.8858068,12.9095455 11.0904545,13.1141932 11.0904545,13.3643182 L11.0904545,16.5477273 Z M11.0904545,10.6356818 C11.0904545,10.8858068 10.8858068,11.0904545 10.6356818,11.0904545 L7.45227273,11.0904545 C7.20214773,11.0904545 6.9975,10.8858068 6.9975,10.6356818 L6.9975,7.45227273 C6.9975,7.20214773 7.20214773,6.9975 7.45227273,6.9975 L10.6356818,6.9975 C10.8858068,6.9975 11.0904545,7.20214773 11.0904545,7.45227273 L11.0904545,10.6356818 Z M17.0025,16.5477273 C17.0025,16.7978523 16.7978523,17.0025 16.5477273,17.0025 L13.3643182,17.0025 C13.1141932,17.0025 12.9095455,16.7978523 12.9095455,16.5477273 L12.9095455,13.3643182 C12.9095455,13.1141932 13.1141932,12.9095455 13.3643182,12.9095455 L16.5477273,12.9095455 C16.7978523,12.9095455 17.0025,13.1141932 17.0025,13.3643182 L17.0025,16.5477273 Z M17.0025,10.6356818 C17.0025,10.8858068 16.7978523,11.0904545 16.5477273,11.0904545 L13.3643182,11.0904545 C13.1141932,11.0904545 12.9095455,10.8858068 12.9095455,10.6356818 L12.9095455,7.45227273 C12.9095455,7.20214773 13.1141932,6.9975 13.3643182,6.9975 L16.5477273,6.9975 C16.7978523,6.9975 17.0025,7.20214773 17.0025,7.45227273 L17.0025,10.6356818 Z"/>
</svg>
