<svg xmlns="http://www.w3.org/2000/svg" width="24" height="24" viewBox="0 0 24 24">
  <path fill="#526075" fill-rule="evenodd" d="M12,1.995 C6.47451136,1.995 1.995,6.47451136 1.995,12 C1.995,17.5254886 6.47451136,22.005 12,22.005 C17.5254886,22.005 22.005,17.5254886 22.005,12 C22.005,6.47451136 17.5254886,1.995 12,1.995 Z M17.1389318,11.1131932 C17.1389318,11.3860568 16.9342841,11.5907045 16.6614205,11.5907045 L16.1839091,11.5907045 C15.9110455,11.5907045 15.7063977,11.3860568 15.7063977,11.1131932 L15.7063977,10.2263864 L12.9777614,12.9550227 L12.9777614,17.8438295 C12.9777614,18.1166932 12.7731136,18.3213409 12.50025,18.3213409 L11.5452273,18.3213409 C11.2723636,18.3213409 11.0677159,18.1166932 11.0677159,17.8438295 L11.0677159,12.9550227 L8.33907955,10.2263864 L8.33907955,11.1131932 C8.33907955,11.3860568 8.13443182,11.5907045 7.86156818,11.5907045 L7.38405682,11.5907045 C7.11119318,11.5907045 6.90654545,11.3860568 6.90654545,11.1131932 L6.90654545,7.88430682 C6.90654545,7.61144318 7.11119318,7.40679545 7.38405682,7.40679545 L10.5902045,7.40679545 C10.8630682,7.40679545 11.0677159,7.61144318 11.0677159,7.88430682 L11.0677159,8.36181818 C11.0677159,8.63468182 10.8630682,8.83932955 10.5902045,8.83932955 L9.70339773,8.83932955 L12,11.2041477 L14.3420795,8.86206818 L13.4552727,8.86206818 C13.1824091,8.86206818 12.9777614,8.65742045 12.9777614,8.38455682 L12.9777614,7.90704545 C12.9777614,7.63418182 13.1824091,7.42953409 13.4552727,7.42953409 L16.6614205,7.42953409 C16.9342841,7.42953409 17.1389318,7.63418182 17.1389318,7.90704545 L17.1389318,11.1131932 Z"/>
</svg>
