<svg xmlns="http://www.w3.org/2000/svg" width="24" height="24" viewBox="0 0 24 24">
  <path fill="#526075" fill-rule="evenodd" d="M17.1275625,16.7773875 L18.8284125,18.4032 C18.9284625,18.4782375 19.053525,18.5282625 19.1785875,18.5282625 L19.1785875,18.5282625 L21.6798375,18.5282625 C21.0295125,20.554275 19.153575,22.005 16.9274625,22.005 C14.70135,22.005 12.8254125,20.5292625 12.1750875,18.5282625 L12.1750875,18.5282625 L15.1765875,18.5282625 C15.2766375,18.5282625 15.3766875,18.50325 15.451725,18.453225 C15.50175,18.4282125 15.5267625,18.4032 15.551775,18.3781875 L15.551775,18.3781875 L17.1275625,16.7773875 Z M1.995,14.751375 C3.996,15.7768875 7.047525,16.352175 10.1991,16.50225 C10.1740875,16.6773375 10.1740875,16.8274125 10.1740875,17.0025 C10.1740875,18.9784875 11.0245125,20.754375 12.3751875,21.9799875 L12.3751875,21.9799875 L12,21.9799875 C5.49675,21.9799875 2.1700875,20.3291625 1.995,19.70385 L1.995,19.70385 Z M16.9274625,12 C19.6038,12 21.8049,14.1260625 21.90495,16.7773875 L21.90495,16.7773875 L19.5787875,16.7773875 L17.6028,14.90145 L17.452725,14.751375 L17.452725,14.751375 L17.3825939,14.6920861 C17.1871602,14.5537454 16.9302417,14.5735083 16.752375,14.751375 L16.752375,14.751375 L14.751375,16.7773875 L11.949975,16.7773875 C12.050025,14.1260625 14.251125,12 16.9274625,12 Z M1.995,7.2726375 C4.3711875,8.4732375 8.2731375,9.048525 12,9.048525 C15.7268625,9.048525 19.6288125,8.4732375 22.005,7.29765 L22.005,7.29765 L22.005,12.2251125 C21.9799875,12.2751375 21.9299625,12.350175 21.854925,12.4252125 C20.6293125,11.09955 18.8784375,10.2741375 16.9274625,10.2741375 C14.10105,10.2741375 11.6748375,12 10.6743375,14.4762375 C5.046525,14.2761375 2.145075,12.8004 1.995,12.2251125 L1.995,12.2251125 Z M12,1.995 C17.5256089,1.995 22.005,3.08125234 22.005,4.4212125 C22.005,5.76117266 17.5256089,6.847425 12,6.847425 C6.47439108,6.847425 1.995,5.76117266 1.995,4.4212125 C1.995,3.08125234 6.47439108,1.995 12,1.995 Z"/>
</svg>
