<svg xmlns="http://www.w3.org/2000/svg" width="24" height="24" viewBox="0 0 24 24">
  <path fill="#526075" fill-rule="evenodd" d="M21.6389634,16.9536951 L20.2968293,21.1509146 C20.1748171,21.5657561 19.784378,21.8341829 19.3695366,21.8341829 L4.58165854,21.8341829 C4.21562195,21.8341829 3.89839024,21.6389634 3.72757317,21.3217317 L2.40984146,18.9058902 C2.19021951,18.4910488 2.4342439,17.9785976 2.92229268,17.9053902 L20.5896585,15.6847683 C21.2973293,15.5871585 21.8585854,16.2704268 21.6389634,16.9536951 Z M7.97359756,6.41184146 C8.48604878,5.5577561 9.80378049,5.89939024 9.80378049,6.89989024 L9.80378049,6.89989024 L9.80378049,14.0254024 C9.80378049,14.5134512 9.4377439,14.9282927 8.94969512,15.0015 L8.94969512,15.0015 L4.50845122,15.5871585 C3.70317073,15.7091707 3.14191463,14.8306829 3.53235366,14.1474146 L3.53235366,14.1474146 Z M12.3172317,3.1175122 C12.3172317,2.19021951 13.5129512,1.79978049 14.0742073,2.53185366 L14.0742073,2.53185366 L21.1509146,11.6583659 C21.4437439,12.1708171 21.3705366,12.8784878 20.784878,13.3665366 C20.6872683,13.4641463 20.5652561,13.5129512 20.4188415,13.5373537 L20.4188415,13.5373537 L13.4397439,14.4402439 C12.8540854,14.5134512 12.3172317,14.0742073 12.3172317,13.4641463 L12.3172317,13.4641463 Z"/>
</svg>
