<svg xmlns="http://www.w3.org/2000/svg" width="24" height="24" viewBox="0 0 24 24">
  <path fill="#526075" fill-rule="evenodd" d="M22.005,14.751375 L22.005,19.70385 C21.8299125,20.3291625 18.50325,22.005 12,22.005 C5.49675,22.005 2.1700875,20.354175 1.995,19.7288625 L1.995,19.7288625 L1.995,14.7763875 C4.3711875,15.9769875 8.2731375,16.552275 12,16.552275 C15.7268625,16.552275 19.6288125,15.9769875 22.005,14.751375 L22.005,14.751375 Z M22.005,7.247625 L22.005,12.1750875 C21.8299125,12.8004 18.50325,14.4762375 12,14.4762375 C5.49675,14.4762375 2.1700875,12.8254125 1.995,12.2251125 L1.995,12.2251125 L1.995,7.2726375 C4.3711875,8.4732375 8.2731375,9.048525 12,9.048525 C15.7268625,9.048525 19.6288125,8.4732375 22.005,7.247625 L22.005,7.247625 Z M12,2.0200125 C17.4565388,2.0200125 21.8799375,3.09506636 21.8799375,4.4212125 C21.8799375,5.74735864 17.4565388,6.8224125 12,6.8224125 C6.54346119,6.8224125 2.1200625,5.74735864 2.1200625,4.4212125 C2.1200625,3.09506636 6.54346119,2.0200125 12,2.0200125 Z"/>
</svg>
