<svg xmlns="http://www.w3.org/2000/svg" width="24" height="24" viewBox="0 0 24 24">
  <path fill="#526075" fill-rule="evenodd" d="M21.5169512,14.1474146 L17.9785976,12.0976098 C17.6857683,11.9267927 17.2953293,11.9267927 17.0025,12.0976098 L13.4641463,14.1474146 C13.1713171,14.3182317 12.9760976,14.6354634 12.9760976,15.0015 L12.9760976,18.8326829 C12.9760976,19.1743171 13.1713171,19.4915488 13.4641463,19.6867683 L17.0025,21.7365732 C17.2953293,21.9073902 17.6857683,21.9073902 17.9785976,21.7365732 L21.5169512,19.6867683 C21.8097805,19.5159512 22.005,19.1987195 22.005,18.8326829 L22.005,15.0015 C22.005,14.6354634 21.8097805,14.3182317 21.5169512,14.1474146 Z M10.5358537,14.1474146 L6.9975,12.0976098 C6.70467073,11.9267927 6.31423171,11.9267927 6.02140244,12.0976098 L2.48304878,14.1474146 C2.19021951,14.3182317 1.995,14.6354634 1.995,15.0015 L1.995,18.8326829 C1.995,19.1743171 2.19021951,19.4915488 2.48304878,19.6867683 L6.02140244,21.7365732 C6.31423171,21.9073902 6.70467073,21.9073902 6.9975,21.7365732 L10.5358537,19.6867683 C10.8286829,19.5159512 11.0239024,19.1987195 11.0239024,18.8326829 L11.0239024,15.0015 C11.0239024,14.6354634 10.8286829,14.3182317 10.5358537,14.1474146 Z M16.7584756,9.65736585 L16.7584756,5.31373171 C16.7584756,4.97209756 16.5632561,4.65486585 16.2704268,4.45964634 L12.4880488,2.28782927 C12.1952195,2.1170122 11.8047805,2.1170122 11.5119512,2.28782927 L7.72957317,4.45964634 C7.4367439,4.63046341 7.24152439,4.94769512 7.24152439,5.31373171 L7.24152439,9.68176829 C7.24152439,10.0234024 7.4367439,10.3406341 7.72957317,10.5358537 L11.5119512,12.6832683 C11.8047805,12.8540854 12.1952195,12.8540854 12.4880488,12.6832683 L16.2704268,10.5114512 C16.5632561,10.3406341 16.7584756,10.0234024 16.7584756,9.65736585 Z"/>
</svg>
