<svg xmlns="http://www.w3.org/2000/svg" width="24" height="24" viewBox="0 0 24 24">
  <path fill="#526075" fill-rule="evenodd" d="M19.8039,9.9739875 C20.3791875,9.648825 21.1295625,9.848925 21.454725,10.4242125 C21.5797875,10.5993 21.6298125,10.7994 21.6298125,11.0245125 L21.6298125,11.0245125 L21.6298125,17.152575 C21.6298125,17.6028 21.4047,17.9779875 21.0295125,18.2031 L21.0295125,18.2031 L14.9764875,21.8049 C14.4012,22.1300625 13.6758375,21.954975 13.3256625,21.3796875 C13.2006,21.1795875 13.150575,20.9794875 13.150575,20.754375 L13.150575,20.754375 L13.150575,14.5262625 C13.150575,14.10105 13.3756875,13.70085 13.750875,13.4757375 L13.750875,13.4757375 Z M2.5202625,10.4242125 C2.845425,9.848925 3.5958,9.648825 4.1710875,9.9739875 L4.1710875,9.9739875 L10.2241125,13.4757375 C10.5993,13.70085 10.8244125,14.10105 10.8244125,14.5262625 L10.8244125,14.5262625 L10.8244125,20.7293625 C10.8244125,20.954475 10.749375,21.1795875 10.649325,21.354675 C10.3241625,21.9299625 9.5737875,22.1300625 8.9985,21.7798875 L8.9985,21.7798875 L2.945475,18.2031 C2.5702875,17.9779875 2.345175,17.5777875 2.345175,17.152575 L2.345175,17.152575 L2.345175,11.0245125 C2.345175,10.8244125 2.4202125,10.5993 2.5202625,10.4242125 Z M10.6243125,2.3952 C11.4247125,1.9199625 12.4252125,1.9199625 13.2256125,2.3952 L13.2256125,2.3952 L18.9784875,5.746875 C19.3786875,5.997 19.653825,6.4722375 19.6038,6.947475 C19.553775,7.347675 19.3286625,7.6728375 19.0035,7.8729375 L19.0035,7.8729375 L13.2256125,11.29965 C12.4252125,11.7748875 11.4247125,11.7748875 10.6243125,11.29965 L10.6243125,11.29965 L4.89645,7.9229625 C4.49625,7.6728375 4.2211125,7.1976 4.2711375,6.7223625 C4.3211625,6.3221625 4.546275,5.997 4.8714375,5.7969 L4.8714375,5.7969 Z"/>
</svg>
