<svg xmlns="http://www.w3.org/2000/svg" width="24" height="24" viewBox="0 0 24 24">
  <path fill="#526075" fill-rule="evenodd" d="M19.2763636,16.0929545 C19.7408815,16.0929545 20.1269743,16.4458675 20.1797604,16.8968117 L20.1859091,17.0025 L20.1859091,21.0954545 C20.1859091,21.5599724 19.8329962,21.9460652 19.3820519,21.9988513 L19.2763636,22.005 L4.72363636,22.005 C4.25911851,22.005 3.87302574,21.6520871 3.82023962,21.2011428 L3.81409091,21.0954545 L3.81409091,17.0025 C3.81409091,16.5379821 4.16700383,16.1518894 4.61794811,16.0991033 L4.72363636,16.0929545 L19.2763636,16.0929545 Z M17.1161932,17.7756136 C16.4112955,17.7756136 15.8428295,18.3440795 15.8428295,19.0489773 C15.8428295,19.753875 16.4112955,20.3223409 17.1161932,20.3223409 C17.7983523,20.3223409 18.3895568,19.753875 18.3895568,19.0489773 C18.3895568,18.3440795 17.8210909,17.7756136 17.1161932,17.7756136 Z M19.2763636,1.995 C19.7140824,1.995 20.0753741,2.28160156 20.1675787,2.67965929 L20.1859091,2.79085227 L20.1404318,14.4785114 C20.1404318,14.5694659 20.0267386,14.6149432 19.9585227,14.5467273 C19.8220909,14.3713149 19.6188353,14.2460204 19.3917142,14.2138018 L19.2763636,14.2056477 L4.72363636,14.2056477 C4.45077273,14.2056477 4.20064773,14.3420795 4.04147727,14.5467273 C3.98300649,14.6246883 3.89112384,14.6024137 3.88038431,14.5228616 L3.88230682,14.4785114 L3.88230682,2.79085227 C3.94483807,2.37397727 4.27486411,2.05263613 4.679725,2.00197423 L4.79185227,1.995 L19.2763636,1.995 Z M12.2245336,4.47161525 C11.2515547,4.47161525 10.6100302,4.58922807 10.0219661,5.40271678 C10.8500079,6.06918945 11.6017532,6.49961972 11.8538621,7.77562577 L11.8910909,8.005 L11.8871877,7.99145264 C11.8340001,7.83548206 11.3936066,6.72516098 9.48736237,6.20640442 C8.2363896,6.37302259 7.295487,7.51974763 7.295487,8.87229512 C7.295487,10.1954394 8.22569752,11.3323634 9.45528615,11.5283848 L9.46597822,11.5283848 L14.5233297,11.5185837 L14.8227078,11.5185837 C15.9132995,11.3029602 16.704513,10.2934501 16.704513,9.11732184 C16.704513,8.08820962 16.0950647,7.16690916 15.1969304,6.81407068 C14.8013237,5.41251785 13.6145033,4.47161525 12.2245336,4.47161525 Z"/>
</svg>
