<svg xmlns="http://www.w3.org/2000/svg" width="24" height="24" viewBox="0 0 24 24">
  <path fill="#526075" fill-rule="evenodd" d="M12,1.995 C14.653491,1.995 17.1983019,3.04909519 19.0746034,4.92539665 C20.9509048,6.80169813 22.005,9.34650901 22.005,12 C22.005,17.5256089 17.5256089,22.005 12,22.005 C6.47439108,22.005 1.995,17.5256089 1.995,12 C1.995,6.47439108 6.47439108,1.995 12,1.995 Z M17.6568542,6.34314575 C16.1374759,4.82376738 14.1683058,5.55316093 12.000541,7.27288725 C9.83242619,5.55322961 7.86314219,4.82369584 6.34369228,6.34314575 C4.82431391,7.86252412 5.55370746,9.83169423 7.27343378,11.999459 C5.55338479,14.1677015 4.82353427,16.1372428 6.34314575,17.6568542 C7.86275723,19.1764657 9.83229847,18.4466152 12.0004568,16.7263212 C14.1686669,18.4467704 16.1379509,19.1763042 17.6574008,17.6568542 C19.1770123,16.1372428 18.4471617,14.1677015 16.7268677,11.9995432 C18.4468391,9.83169423 19.1762326,7.86252412 17.6568542,6.34314575 Z M15.3934422,13.5303308 C16.4863632,14.962685 16.6768125,15.8090154 16.2431872,16.2426407 C15.8092817,16.6765462 14.9608094,16.48215 13.532084,15.3926931 C13.8433912,15.0982713 14.1581133,14.7916342 14.4748737,14.4748737 L14.4748737,14.4748737 L14.6729218,14.2757326 C14.8695701,14.0768732 15.0619257,13.8788776 15.2491469,13.681914 Z M8.60819303,13.5303785 C8.90161862,13.8427172 9.20857318,14.1577741 9.5256728,14.4748737 L9.5256728,14.4748737 L9.72481395,14.6729218 C9.97481825,14.9201464 10.2234572,15.160586 10.4703969,15.3925686 C9.04044042,16.4819887 8.19144468,16.6767261 7.75735931,16.2426407 C7.33425554,15.8195369 7.50856068,15.0022502 8.52760298,13.6371626 Z M11.9988594,9.9132878 C12.1921048,10.0925897 12.3925507,10.283039 12.6003987,10.4849597 L12.6003987,10.4849597 L13.0612067,10.9393398 L13.487202,11.3707911 C13.6994122,11.5886837 13.8990353,11.7984418 14.0864523,12.0003028 C13.9071649,12.1918165 13.7168309,12.3921381 13.5150403,12.5998521 L13.5150403,12.5998521 L13.0606602,13.0606602 C12.6852115,13.4361089 12.3320215,13.7770353 12.000071,14.0850809 C11.8083007,13.9067569 11.6081858,13.7166146 11.4006944,13.5150403 L11.4006944,13.5150403 L10.9398864,13.0606602 C10.5640644,12.6848382 10.2228334,12.3313194 9.91454715,11.9990811 C10.0934914,11.8074927 10.283517,11.6075038 10.4849597,11.4001479 L10.4849597,11.4001479 L10.9393398,10.9393398 L11.3707911,10.5133445 C11.5306268,10.3576771 11.6860853,10.2087829 11.8372604,10.0665114 Z M7.75790585,7.75735931 C8.1918114,7.32345376 9.04028367,7.51785003 10.4690091,8.60730686 L10.318086,8.75085315 L10.318086,8.75085315 L10.1207846,8.9397546 L9.72426741,9.32707819 L9.32707819,9.72426741 C9.07993004,9.97419446 8.83956255,10.222757 8.60764649,10.4696215 C7.51846823,9.04004983 7.32392034,8.19134482 7.75790585,7.75735931 Z M13.6264383,8.53446634 C15.0006846,7.50590301 15.818804,7.33352263 16.2426407,7.75735931 C16.6764842,8.19120279 16.4822056,9.03949436 15.3931607,10.4678494 C15.2833647,10.3530351 15.1729186,10.2370788 15.0607919,10.1207846 L15.0607919,10.1207846 L14.6734683,9.72426741 L14.2762791,9.32707819 C14.0262748,9.07985365 13.7776359,8.83941396 13.5306962,8.60743144 Z"/>
</svg>
