<svg xmlns="http://www.w3.org/2000/svg" width="24" height="24" viewBox="0 0 24 24">
  <path fill="#526075" fill-rule="evenodd" d="M15.4134706,3.28976471 C15.6724235,3.28976471 15.8842941,3.50163529 15.8842941,3.76058824 L15.8842941,6.58552941 C15.8842941,6.84448235 15.6724235,7.05635294 15.4134706,7.05635294 L11.6468824,7.05635294 C11.3879294,7.05635294 11.1760588,6.84448235 11.1760588,6.58552941 L11.1760588,3.76058824 C11.1760588,3.50163529 11.3879294,3.28976471 11.6468824,3.28976471 L15.4134706,3.28976471 Z M9.29276471,3.28976471 C9.55171765,3.28976471 9.76358824,3.50163529 9.76358824,3.76058824 L9.76358824,6.58552941 C9.76358824,6.84448235 9.55171765,7.05635294 9.29276471,7.05635294 L6.23241176,7.05635294 C5.97345882,7.05635294 5.76158824,6.84448235 5.76158824,6.58552941 L5.76158824,3.76058824 C5.76158824,3.50163529 5.97345882,3.28976471 6.23241176,3.28976471 L9.29276471,3.28976471 Z M15.4134706,8.46882353 C15.6724235,8.46882353 15.8842941,8.68069412 15.8842941,8.93964706 L15.8842941,11.7645882 C15.8842941,12.0235412 15.6724235,12.2354118 15.4134706,12.2354118 L11.6468824,12.2354118 C11.3879294,12.2354118 11.1760588,12.0235412 11.1760588,11.7645882 L11.1760588,8.93964706 C11.1760588,8.68069412 11.3879294,8.46882353 11.6468824,8.46882353 L15.4134706,8.46882353 Z M9.29276471,8.46882353 C9.55171765,8.46882353 9.76358824,8.68069412 9.76358824,8.93964706 L9.76358824,11.7645882 C9.76358824,12.0235412 9.55171765,12.2354118 9.29276471,12.2354118 L2.70123529,12.2354118 C2.44228235,12.2354118 2.23041176,12.0235412 2.23041176,11.7645882 L2.23041176,8.93964706 C2.23041176,8.68069412 2.44228235,8.46882353 2.70123529,8.46882353 L9.29276471,8.46882353 Z M6.02054118,15.2957647 L5.07889412,15.2957647 C4.81994118,15.2957647 4.60807059,15.5076353 4.60807059,15.7665882 L4.60807059,16.7082353 C4.60807059,16.9671882 4.81994118,17.1790588 5.07889412,17.1790588 L6.02054118,17.1790588 C6.27949412,17.1790588 6.49136471,16.9671882 6.49136471,16.7082353 L6.49136471,15.7665882 C6.49136471,15.5076353 6.27949412,15.2957647 6.02054118,15.2957647 Z M17.8617529,9.64588235 L18.1207059,9.85775294 C18.7563176,10.3756588 19.2506824,11.0348118 19.4154706,11.9058353 L19.4154706,11.9529176 C20.1452471,11.7410471 21.0398118,11.7881294 21.6989647,12.1883294 L21.7695882,12.2354118 L22.005,12.4002 L21.8637529,12.6591529 C21.2987647,13.8362118 20.1217059,14.1657882 18.9446471,14.1187059 C17.1555176,18.6386118 13.3653882,20.7102353 8.77485882,20.7102353 C6.42074118,20.7102353 4.25495294,19.7685882 3.00727059,17.6969647 L2.93664706,17.6028 L2.93664706,17.5557176 L2.74831765,17.1790588 C2.34811765,16.2374118 2.18332941,15.0132706 2.23041176,14.001 L2.23041176,13.8832941 L2.23041176,13.8597529 C2.25395294,13.7420471 2.34811765,13.6714235 2.46582353,13.6478824 L2.48936471,13.6478824 L16.8259412,13.6478824 C17.2026,13.4595529 17.4615529,13.3183059 17.6028,13.2476824 C17.3438471,12.8710235 17.2026,12.4002 17.1555176,11.9058353 C17.1084353,11.2937647 17.2496824,10.4698235 17.6263412,9.97545882 L17.6734235,9.92837647 L17.8617529,9.64588235 Z"/>
</svg>
