<svg xmlns="http://www.w3.org/2000/svg" width="24" height="24" viewBox="0 0 24 24">
  <path fill="#526075" fill-rule="evenodd" d="M12,1.995 C7.67965909,1.995 3.97326136,4.746375 2.58620455,8.58920455 L8.79385227,8.58920455 L8.15717045,7.95252273 C7.97526136,7.77061364 7.97526136,7.45227273 8.15717045,7.27036364 L8.49825,6.92928409 C8.68015909,6.747375 8.9985,6.747375 9.18040909,6.92928409 L11.4542727,9.20314773 C11.6361818,9.38505682 11.6361818,9.70339773 11.4542727,9.88530682 L9.18040909,12.1591705 C8.9985,12.3410795 8.68015909,12.3410795 8.49825,12.1591705 L8.15717045,11.8180909 C7.97526136,11.6361818 7.97526136,11.3178409 8.15717045,11.1359318 L8.79385227,10.49925 L2.10869318,10.49925 C2.04047727,10.9995 1.995,11.49975 1.995,12 C1.995,12.750375 2.08595455,13.50075 2.245125,14.2056477 L14.4785114,14.2056477 L13.8418295,13.5917045 C13.6599205,13.4097955 13.6599205,13.0914545 13.8418295,12.9095455 L14.1829091,12.5684659 C14.3648182,12.3865568 14.6831591,12.3865568 14.8650682,12.5684659 L17.1389318,14.8423295 C17.3208409,15.0242386 17.3208409,15.3425795 17.1389318,15.5244886 L14.8650682,17.7983523 C14.6831591,17.9802614 14.3648182,17.9802614 14.1829091,17.7983523 L13.8418295,17.4572727 C13.6599205,17.2753636 13.6599205,16.9570227 13.8418295,16.7751136 L14.4785114,16.1384318 L2.88180682,16.1384318 C4.47351136,19.5947045 7.95252273,22.005 12,22.005 C17.5254886,22.005 22.005,17.5254886 22.005,12 C22.005,6.47451136 17.5254886,1.995 12,1.995 Z"/>
</svg>
