<svg xmlns="http://www.w3.org/2000/svg" width="24" height="24" viewBox="0 0 24 24">
  <path fill="#526075" fill-rule="evenodd" d="M14.0237386,10.3173409 C13.50075,9.97626136 12.7958523,10.3400795 12.7958523,10.9767614 L12.7958523,18.0257386 L12.7958523,18.0484773 C12.8185909,18.2758636 13.0005,18.4805114 13.250625,18.4805114 L13.9327841,18.4805114 L13.9555227,18.4805114 C14.1829091,18.4577727 14.3875568,18.2758636 14.3875568,18.0257386 L14.3875568,12.5229886 L15.2743636,13.1596705 L15.2971023,13.1824091 C15.50175,13.2961023 15.751875,13.250625 15.9110455,13.0687159 L16.3203409,12.5229886 L16.3430795,12.50025 C16.4567727,12.2956023 16.4112955,12.0454773 16.2293864,11.8863068 L14.0692159,10.3400795 L14.0237386,10.3173409 Z M10.5447273,10.1809091 L9.86256818,10.1809091 L9.83982955,10.1809091 C9.61244318,10.2036477 9.40779545,10.3855568 9.40779545,10.6356818 L9.40779545,16.1384318 L8.52098864,15.50175 L8.49825,15.4790114 C8.29360227,15.3653182 8.04347727,15.4107955 7.88430682,15.5927045 L7.47501136,16.1384318 L7.45227273,16.1611705 C7.33857955,16.3658182 7.38405682,16.6159432 7.56596591,16.7751136 L9.72613636,18.3213409 L9.748875,18.3440795 C10.2718636,18.6851591 10.9767614,18.3213409 10.9767614,17.6846591 L10.9767614,10.6356818 L10.9767614,10.6129432 C10.9995,10.3628182 10.7948523,10.1809091 10.5447273,10.1809091 Z M12,2.90454545 C15.3880568,2.90454545 18.1394318,5.49675 18.1394318,8.70289773 C18.1394318,9.08945455 18.0939545,9.49875 18.0257386,9.86256818 C20.3450795,10.6811591 22.005,12.8185909 22.005,15.2971023 C22.005,18.4350341 19.3673182,20.9817614 16.0929545,21.0954545 L16.0929545,21.0954545 L7.90704545,21.0954545 L7.90704545,21.0954545 C4.63268182,20.9817614 1.995,18.4350341 1.995,15.2971023 C1.995,12.8185909 3.65492045,10.6811591 5.97426136,9.86256818 C5.90604545,9.49875 5.86056818,9.08945455 5.86056818,8.70289773 C5.86056818,5.49675 8.61194318,2.90454545 12,2.90454545 Z"/>
</svg>
