<svg xmlns="http://www.w3.org/2000/svg" width="24" height="24" viewBox="0 0 24 24">
  <path fill="#526075" fill-rule="evenodd" d="M11.6339634,2.84908537 C16.8804878,2.84908537 21.1509146,3.82518293 21.1509146,5.04530488 C21.1509146,6.26542683 16.8804878,7.24152439 11.6339634,7.24152439 C6.38743902,7.24152439 2.1170122,6.26542683 2.1170122,5.04530488 C2.1170122,3.82518293 6.38743902,2.84908537 11.6339634,2.84908537 Z M20.9068902,7.60756098 C21.0289024,7.60756098 21.1265122,7.70517073 21.1509146,7.82718293 L21.1509146,7.85158537 L21.1509146,11.5119512 C21.1509146,11.7071707 21.0533049,11.8779878 20.8824878,11.9511951 C20.6872683,12.0488049 20.4676463,12.1464146 20.2724268,12.219622 C19.5403537,11.5363537 18.5154512,11.0971098 17.392939,11.0971098 C15.6359634,11.0971098 14.1474146,12.1220122 13.5861585,13.5617561 C12.9516951,13.5861585 12.3172317,13.610561 11.6339634,13.5861585 C7.82718293,13.5861585 4.75247561,13.0249024 2.40984146,11.9511951 C2.23902439,11.8779878 2.14141463,11.7315732 2.1170122,11.5607561 L2.1170122,11.5119512 L2.1170122,7.85158537 C2.1170122,7.82718293 2.1170122,7.80278049 2.14141463,7.77837805 C2.19021951,7.65636585 2.33663415,7.58315854 2.45864634,7.63196341 C5.02090244,8.58365854 8.09560976,9.07170732 11.6339634,9.07170732 C15.1967195,9.07170732 18.2470244,8.58365854 20.8336829,7.63196341 C20.8580854,7.63196341 20.8824878,7.60756098 20.9068902,7.60756098 Z M17.4173415,12.8540854 C18.9058902,12.8540854 20.1016098,13.9521951 20.2480244,15.3675366 C21.1997195,15.8555854 21.8585854,16.8316829 21.8585854,17.9785976 C21.8585854,19.5891585 20.5408537,20.9068902 18.8814878,20.9068902 L16.0752073,20.9068902 C14.5622561,20.9068902 13.3421341,19.7111707 13.3421341,18.222622 C13.3421341,17.2709268 13.8301829,16.4412439 14.5866585,15.9775976 C14.5866585,15.8799878 14.5622561,15.782378 14.5622561,15.6847683 C14.5622561,14.1230122 15.8555854,12.8540854 17.4173415,12.8540854 Z M2.45864634,13.9033902 C5.02090244,14.9038902 8.07120732,15.391939 11.6339634,15.391939 C12.1464146,15.391939 12.6344634,15.391939 13.1225122,15.3675366 C12.219622,16.002 11.6339634,17.0269024 11.6339634,18.1494146 C11.6339634,19.2719268 12.1952195,20.2480244 13.0737073,20.9068902 C12.610061,20.9312927 12.1220122,20.9312927 11.6339634,20.9068902 C7.82718293,20.8580854 4.75247561,20.2724268 2.40984146,19.1743171 C2.23902439,19.1011098 2.14141463,18.9546951 2.14141463,18.783878 L2.14141463,18.7350732 L2.14141463,14.1230122 C2.14141463,14.0986098 2.14141463,14.0742073 2.16581707,14.0254024 C2.19021951,13.9033902 2.31223171,13.8545854 2.45864634,13.9033902 Z"/>
</svg>
