<svg xmlns="http://www.w3.org/2000/svg" width="24" height="24" viewBox="0 0 24 24">
  <path fill="#526075" fill-rule="evenodd" d="M9.48188764,7.45840449 C9.34698876,7.39095506 9.18960674,7.39095506 9.05470787,7.45840449 L6.73894382,8.69497753 C6.5815618,8.76242697 6.49162921,8.91980899 6.49162921,9.09967416 L6.51411236,11.6177865 C6.51411236,11.7751685 6.60404494,11.9325506 6.73894382,12 L9.09967416,13.3040225 C9.23457303,13.3714719 9.39195506,13.3714719 9.52685393,13.3040225 L11.7302022,12.1124157 L13.843618,13.3265056 L13.843618,14.7879101 L12.0674494,15.9570337 L11.1006742,15.3949551 C10.9657753,15.3050225 10.7859101,15.3050225 10.6510112,15.3949551 L9.52685393,16.0244831 C9.39195506,16.1144157 9.30202247,16.2493146 9.30202247,16.4066966 L9.30202247,17.7107191 C9.30202247,17.8681011 9.39195506,18.0254831 9.52685393,18.0929326 L10.6510112,18.7449438 C10.7859101,18.8348764 10.9657753,18.8348764 11.1006742,18.7449438 L12.2023483,18.0929326 C12.3372472,18.003 12.4271798,17.8681011 12.4271798,17.7107191 L12.4271798,16.7439438 L14.3382472,15.4848876 L15.7546854,16.2942809 C15.8895843,16.3842135 16.0694494,16.3842135 16.2043483,16.2942809 L17.9130674,15.3050225 C18.0479663,15.2150899 18.1378989,15.080191 18.1378989,14.922809 L18.1378989,12.9667753 C18.1378989,12.8093933 18.0479663,12.6520112 17.9130674,12.5845618 L16.2043483,11.5953034 C16.0694494,11.5053708 15.8895843,11.5053708 15.7546854,11.5953034 L14.2483146,12.5171124 L12.1124157,11.2805393 L12.0899326,9.14464045 C12.0899326,8.98725843 12,8.8298764 11.842618,8.76242697 L9.48188764,7.45840449 Z M12.8993258,2.46714607 L20.0939326,6.62652809 C20.6560112,6.94129213 20.9932584,7.54833708 20.9932584,8.17786517 L20.9932584,16.0469663 C20.9932584,16.6989775 20.6560112,17.2835393 20.0939326,17.5983034 L12.8993258,21.7576854 C12.3372472,22.0724494 11.6627528,22.0724494 11.1006742,21.7576854 L3.90606742,17.5983034 C3.34398876,17.2835393 3.00674157,16.6764944 3.00674157,16.0469663 L3.00674157,8.17786517 C3.00674157,7.52585393 3.34398876,6.94129213 3.90606742,6.62652809 L11.1006742,2.46714607 C11.6627528,2.12989888 12.3372472,2.12989888 12.8993258,2.46714607 Z"/>
</svg>
