<svg xmlns="http://www.w3.org/2000/svg" width="24" height="24" viewBox="0 0 24 24">
  <path fill="#526075" fill-rule="evenodd" d="M20.2041,3.5707875 L12.2001,2.0200125 C12.0750375,1.995 11.9249625,1.995 11.7999,2.0200125 L3.7959,3.5707875 C3.3206625,3.645825 2.9955,4.046025 2.9955,4.49625 L2.9955,10.0240125 C2.9955,14.10105 5.1215625,17.8779375 8.6733375,20.10405 L11.449725,21.854925 C11.7748875,22.055025 12.2001,22.055025 12.550275,21.854925 L15.3266625,20.10405 C18.8784375,17.8779375 21.0045,14.0760375 21.0045,10.0240125 L21.0045,4.49625 C21.0045,4.046025 20.6793375,3.645825 20.2041,3.5707875 Z M9.448725,6.6723375 C9.0235125,7.6228125 8.7233625,8.848425 8.648325,10.3741875 L6.8224125,10.3741875 C7.09755,8.7733875 8.0730375,7.4227125 9.448725,6.6723375 Z M6.8224125,12.1250625 L8.648325,12.1250625 C8.748375,13.7258625 9.09855,15.0015 9.5988,15.9269625 C8.148075,15.1765875 7.09755,13.7758875 6.8224125,12.1250625 Z M12,16.002 C11.5747875,16.002 10.6243125,14.6763375 10.4242125,12.1250625 L13.6008,12.1250625 C13.3756875,14.6763375 12.4252125,16.002 12,16.002 Z M10.3992,10.3741875 C10.549275,7.647825 11.549775,6.247125 12,6.247125 C12.450225,6.247125 13.450725,7.647825 13.6008,10.3741875 L10.3992,10.3741875 Z M14.4012,15.9269625 C14.90145,15.0015 15.251625,13.7258625 15.351675,12.1250625 L17.1775875,12.1250625 C16.90245,13.7758875 15.851925,15.1765875 14.4012,15.9269625 Z M15.351675,10.3741875 C15.2766375,8.848425 14.9764875,7.5978 14.551275,6.6723375 C15.90195,7.4227125 16.90245,8.7733875 17.1775875,10.3741875 L15.351675,10.3741875 Z"/>
</svg>
