<svg xmlns="http://www.w3.org/2000/svg" width="24" height="24" viewBox="0 0 24 24">
  <path fill="#526075" fill-rule="evenodd" d="M19.8903068,4.97376136 L17.2071477,2.29060227 C17.0025,2.10869318 16.752375,1.995 16.4795114,1.995 L4.81459091,1.995 C4.26886364,1.995 3.81409091,2.44977273 3.81409091,2.9955 L3.81409091,20.9817614 C3.81409091,21.5502273 4.26886364,21.9822614 4.81459091,21.9822614 L19.1626705,21.9822614 C19.7311364,21.9822614 20.1631705,21.5274886 20.1631705,20.9817614 L20.1631705,5.67865909 C20.1859091,5.40579545 20.0722159,5.15567045 19.8903068,4.97376136 Z M6.58820455,7.747875 L11.5907045,7.77061364 C11.8408295,7.77061364 12.0454773,7.97526136 12.0454773,8.22538636 L12.0454773,9.11219318 C12.0454773,9.36231818 11.8408295,9.56696591 11.5907045,9.56696591 L6.58820455,9.56696591 C6.33807955,9.56696591 6.13343182,9.36231818 6.13343182,9.11219318 L6.13343182,8.20264773 C6.13343182,7.95252273 6.33807955,7.747875 6.58820455,7.747875 Z M15.4562727,16.8433295 C15.4562727,17.0934545 15.251625,17.2981023 15.0015,17.2981023 L6.58820455,17.2981023 C6.33807955,17.2981023 6.13343182,17.0934545 6.13343182,16.8433295 L6.13343182,15.9337841 C6.13343182,15.6836591 6.33807955,15.4790114 6.58820455,15.4790114 L15.0015,15.4790114 C15.251625,15.4790114 15.4562727,15.6836591 15.4562727,15.9337841 L15.4562727,16.8433295 Z M15.4562727,12.9777614 C15.4562727,13.2278864 15.251625,13.4325341 15.0015,13.4325341 L6.58820455,13.4325341 C6.33807955,13.4325341 6.13343182,13.2278864 6.13343182,12.9777614 L6.13343182,12.0682159 C6.13343182,11.8180909 6.33807955,11.6134432 6.58820455,11.6134432 L15.0015,11.6361818 C15.251625,11.6361818 15.4562727,11.8408295 15.4562727,12.0909545 L15.4562727,12.9777614 Z M18.5714659,6.38355682 L16.4567727,6.38355682 C16.1384318,6.38355682 15.8883068,6.13343182 15.8883068,5.81509091 L15.8883068,3.70039773 C15.8883068,3.45027273 16.1839091,3.33657955 16.3658182,3.49575 L18.753375,5.88330682 C18.9580227,6.08795455 18.8215909,6.38355682 18.5714659,6.38355682 Z"/>
</svg>
