<svg xmlns="http://www.w3.org/2000/svg" width="24" height="24" viewBox="0 0 24 24">
  <path fill="#526075" fill-rule="evenodd" d="M12,1.995 C17.5254886,1.995 22.005,6.47451136 22.005,12 C22.005,17.5254886 17.5254886,22.005 12,22.005 C9.33957955,22.005 6.92928409,20.9590227 5.13293182,19.2763636 L5.13293182,19.2763636 L10.749375,19.2763636 C10.9995,19.5492273 11.3633182,19.7311364 11.7726136,19.7311364 C12.5229886,19.7311364 13.1369318,19.1171932 13.1369318,18.3668182 C13.1369318,17.6164432 12.5229886,17.0025 11.7726136,17.0025 C11.2723636,17.0025 10.8175909,17.2753636 10.5902045,17.6846591 L10.5902045,17.6846591 L3.76861364,17.6846591 C3.31384091,17.0252386 2.92728409,16.2976023 2.63168182,15.5244886 L2.63168182,15.5244886 L7.27036364,15.5244886 C7.67965909,15.50175 8.02073864,15.1606705 8.02073864,14.7286364 L8.02073864,14.7286364 L8.02073864,11.8863068 L10.4082955,11.8863068 L10.4082955,12.7276364 C10.4310341,13.2733636 10.8858068,13.7053977 11.4315341,13.7053977 L11.4315341,13.7053977 L14.2966023,13.7053977 C14.5467273,14.0464773 14.9560227,14.2738636 15.4107955,14.2738636 C16.1611705,14.2738636 16.7751136,13.6599205 16.7751136,12.9095455 C16.7751136,12.1591705 16.1611705,11.5452273 15.4107955,11.5452273 C14.9560227,11.5452273 14.5467273,11.7726136 14.2966023,12.1136932 L14.2966023,12.1136932 L12,12.1136932 L12,11.2723636 C11.9772614,10.7266364 11.5224886,10.2946023 10.9767614,10.2946023 L10.9767614,10.2946023 L8.02073864,10.2946023 L8.02073864,8.47551136 L13.3870568,8.47551136 C13.6371818,8.81659091 14.0464773,9.04397727 14.50125,9.04397727 C15.251625,9.04397727 15.8655682,8.43003409 15.8655682,7.67965909 C15.8655682,6.92928409 15.251625,6.31534091 14.50125,6.31534091 C14.0464773,6.31534091 13.6371818,6.54272727 13.3870568,6.88380682 L13.3870568,6.88380682 L7.17940909,6.88380682 C6.77011364,6.90654545 6.42903409,7.247625 6.42903409,7.67965909 L6.42903409,7.67965909 L6.42903409,10.2946023 L2.13143182,10.2946023 C2.95002273,5.58770455 7.06571591,1.995 12,1.995 Z M6.42903409,11.8863068 L6.42903409,13.9327841 L2.17690909,13.9327841 C2.06321591,13.3188409 1.995,12.6594205 1.995,12 L1.995,12 L1.995,11.8863068 L6.42903409,11.8863068 Z"/>
</svg>
