<svg xmlns="http://www.w3.org/2000/svg" width="24" height="24" viewBox="0 0 24 24">
  <path fill="#526075" fill-rule="evenodd" d="M21.0045,5.997 L10.9995,5.997 L10.1991,3.2206125 C10.0740375,2.7954 9.69885,2.49525 9.248625,2.49525 L2.9955,2.49525 C2.445225,2.49525 1.995,2.945475 1.995,3.49575 L1.995,20.50425 C1.995,21.054525 2.445225,21.50475 2.9955,21.50475 L21.0045,21.50475 C21.554775,21.50475 22.005,21.054525 22.005,20.50425 L22.005,6.9975 C22.005,6.447225 21.554775,5.997 21.0045,5.997 Z M5.246625,6.747375 C4.546275,6.747375 3.996,6.1971 3.996,5.49675 C3.996,4.7964 4.546275,4.246125 5.246625,4.246125 C5.946975,4.246125 6.49725,4.7964 6.49725,5.49675 C6.49725,6.1971 5.946975,6.747375 5.246625,6.747375 Z M15.10155,12.850425 L12.450225,15.5267625 C12.2001,15.7768875 11.7999,15.7768875 11.5747875,15.5267625 L8.89845,12.850425 C8.648325,12.6003 8.648325,12.2001 8.89845,11.9749875 L9.348675,11.5247625 C9.5988,11.2746375 9.999,11.2746375 10.2241125,11.5247625 L12,13.30065 L13.7758875,11.5247625 C14.0260125,11.2746375 14.4262125,11.2746375 14.651325,11.5247625 L15.10155,11.9749875 C15.351675,12.2001 15.351675,12.6003 15.10155,12.850425 Z"/>
</svg>
