<svg xmlns="http://www.w3.org/2000/svg" width="24" height="24" viewBox="0 0 24 24">
  <path fill="#526075" fill-rule="evenodd" d="M11.1996,18.7144667 C12.2001,19.7594333 13.2673,20.7154667 14.4234333,21.5603333 C13.8676,21.7159667 13.2895333,21.8049 12.7114667,21.8493667 C11.333,21.9605333 9.999,21.7604333 8.77616667,21.338 C9.6655,20.5153667 10.4659,19.6260333 11.1996,18.7144667 Z M11.3107667,2.35073333 C16.6912333,1.95053333 21.3824667,6.01923333 21.7604333,11.3997 C22.0494667,15.4684 19.8261333,19.1146667 16.4244333,20.8488667 C14.9348,19.8039 13.5563333,18.6033 12.2890333,17.2693 C14.1566333,14.5568333 15.4684,11.6220333 16.4466667,8.88733333 L16.4466667,8.88733333 L16.8024,9.57656667 C16.9135667,9.7989 17.1803667,9.88783333 17.4027,9.77666667 L17.4027,9.77666667 L17.8029,9.57656667 C18.0252333,9.4654 18.1141667,9.1986 18.003,8.97626667 L18.003,8.97626667 L16.669,6.30826667 C16.5578333,6.08593333 16.2910333,5.997 16.0687,6.10816667 L16.0687,6.10816667 L13.4229333,7.4644 C13.2006,7.57556667 13.1116667,7.84236667 13.2228333,8.0647 L13.2228333,8.0647 L13.4229333,8.4649 C13.5341,8.68723333 13.8009,8.77616667 14.0232333,8.665 L14.0232333,8.665 L14.8014,8.2648 C13.8898333,10.7549333 12.7114667,13.4007 11.0662,15.8686 C9.999,14.5790667 9.02073333,13.1783667 8.15363333,11.6665 L8.15363333,11.6665 L8.9985,11.9333 C9.24306667,12.0222333 9.48763333,11.8888333 9.55433333,11.6442667 L9.55433333,11.6442667 L9.68773333,11.2218333 C9.77666667,10.9772667 9.64326667,10.7327 9.3987,10.666 L9.3987,10.666 L6.55283333,9.7989 C6.30826667,9.70996667 6.0637,9.84336667 5.997,10.0879333 L5.997,10.0879333 L5.1299,12.9338 C5.04096667,13.1783667 5.17436667,13.4229333 5.41893333,13.4896333 L5.41893333,13.4896333 L5.84136667,13.6230333 C6.08593333,13.7119667 6.3305,13.5785667 6.3972,13.334 L6.3972,13.334 L6.61953333,12.6003 C7.62003333,14.3345 8.7317,15.9353 9.97676667,17.3804667 C9.10966667,18.5143667 8.1314,19.5815667 6.9975,20.5376 C4.35173333,18.9590333 2.48413333,16.1354 2.23956667,12.8226333 C1.8616,7.41993333 5.90806667,2.75093333 11.3107667,2.35073333 Z"/>
</svg>
