<svg xmlns="http://www.w3.org/2000/svg" width="24" height="24" viewBox="0 0 24 24">
  <path fill="#526075" fill-rule="evenodd" d="M11.8875843,3.00674157 C14.9902584,3.00674157 17.5308539,5.18760674 17.9130674,8.02048315 L17.7332022,8.13289888 C17.6432697,8.22283146 17.5308539,8.26779775 17.4184382,8.26779775 L14.3382472,8.26779775 C14.0909326,7.88558427 13.6637528,7.63826966 13.2140899,7.63826966 C12.8093933,7.63826966 12.4271798,7.79565169 12.157382,8.11041573 C11.8875843,8.42517978 11.7751685,8.85235955 11.8651011,9.27953933 C11.9325506,9.61678652 12.1124157,9.93155056 12.4046966,10.1338989 C13.0117416,10.5835618 13.8661011,10.4486629 14.315764,9.84161798 L17.845618,9.84161798 C17.845618,9.84161798 17.845618,9.86410112 17.845618,9.86410112 C19.2620562,10.3587303 20.4086966,11.3479888 21.1056742,12.5845618 L15.9795169,12.5845618 L15.9120674,12.5845618 C15.6422697,12.5845618 15.3949551,12.7194607 15.1926067,12.8993258 L12.6295281,15.8221348 L12.6070449,15.844618 C12.5171124,15.9120674 12.4271798,15.9570337 12.314764,15.9570337 L10.4711461,15.9570337 L10.4486629,15.9120674 C10.2912809,15.6647528 10.0664494,15.4848876 9.81913483,15.3949551 C9.66175281,15.3275056 9.48188764,15.2825393 9.32450562,15.2825393 C8.73994382,15.2825393 8.20034831,15.6422697 7.97551685,16.2268315 C7.84061798,16.5865618 7.86310112,16.9912584 7.998,17.3509888 C8.15538202,17.7107191 8.42517978,18.003 8.78491011,18.160382 C8.94229213,18.2278315 9.1221573,18.2503146 9.30202247,18.2503146 C9.75168539,18.2727978 10.2013483,18.0479663 10.4486629,17.6432697 L12.8093933,17.6432697 L12.8543596,17.6432697 C13.1241573,17.6207865 13.3939551,17.5083708 13.5963034,17.3060225 L16.316764,14.3832135 L16.3392472,14.3607303 C16.4291798,14.2707978 16.5640787,14.2033483 16.6764944,14.2033483 L21.7127191,14.2033483 C21.7801685,14.5405955 21.8026517,14.8778427 21.8026517,15.2150899 C21.8026517,18.317764 19.1946067,20.8358764 15.9570337,20.9482921 L15.9570337,20.9482921 L7.84061798,20.9482921 L7.84061798,20.9482921 C4.60304494,20.8808427 1.995,18.3627303 1.995,15.2600562 C1.995,12.8093933 3.63626966,10.6959775 5.92955056,9.88658427 C5.86210112,9.52685393 5.81713483,9.1221573 5.81713483,8.73994382 C5.81713483,5.56982022 8.53759551,3.00674157 11.8875843,3.00674157 Z"/>
</svg>
