<svg xmlns="http://www.w3.org/2000/svg" width="24" height="24" viewBox="0 0 24 24">
  <path fill="#526075" fill-rule="evenodd" d="M12,2.90454545 C15.3880568,2.90454545 18.1394318,5.49675 18.1394318,8.70289773 C18.1394318,9.08945455 18.0939545,9.49875 18.0257386,9.86256818 C20.3450795,10.6811591 22.005,12.8185909 22.005,15.2971023 C22.005,18.3620589 19.4885745,20.8629892 16.3203403,21.083598 L16.0929545,21.0954545 L7.90704545,21.0954545 C4.63268182,20.9817614 1.995,18.4350341 1.995,15.2971023 C1.995,13.2546477 3.12222408,11.4438145 4.81678372,10.4117665 C5.92188827,11.5502254 7.11764982,12.5613129 8.38883517,13.4391274 C8.3806486,13.7488134 8.43508265,14.0659693 8.55885808,14.3723243 C9.04399917,15.5730906 10.4106972,16.1532195 11.6114635,15.6680784 C12.8122298,15.1829373 13.3923587,13.8162393 12.9072176,12.615473 C12.4220765,11.4147067 11.0553785,10.8345778 9.85461219,11.3197189 C9.652102,11.4015383 9.46724465,11.5084319 9.30217304,11.635375 L8.97823666,11.4018971 C7.8681053,10.5832198 6.82494556,9.64963496 5.86121867,8.60665127 L5.86056818,8.70289773 C5.86056818,5.49675 8.61194318,2.90454545 12,2.90454545 Z"/>
</svg>
