<svg xmlns="http://www.w3.org/2000/svg" width="24" height="24" viewBox="0 0 24 24">
  <path fill="#526075" fill-rule="evenodd" d="M21.0045,5.997 L10.9995,5.997 L10.1991,3.2206125 C10.0740375,2.7954 9.69885,2.49525 9.248625,2.49525 L2.9955,2.49525 C2.445225,2.49525 1.995,2.945475 1.995,3.49575 L1.995,20.50425 C1.995,21.054525 2.445225,21.50475 2.9955,21.50475 L21.0045,21.50475 C21.554775,21.50475 22.005,21.054525 22.005,20.50425 L22.005,6.9975 C22.005,6.447225 21.554775,5.997 21.0045,5.997 Z M5.246625,6.747375 C4.546275,6.747375 3.996,6.1971 3.996,5.49675 C3.996,4.7964 4.546275,4.246125 5.246625,4.246125 C5.946975,4.246125 6.49725,4.7964 6.49725,5.49675 C6.49725,6.1971 5.946975,6.747375 5.246625,6.747375 Z M16.50225,17.752875 C16.50225,18.0280125 16.2771375,18.253125 16.002,18.253125 L7.998,18.253125 C7.7228625,18.253125 7.49775,18.0280125 7.49775,17.752875 L7.49775,17.0025 C7.49775,16.7273625 7.7228625,16.50225 7.998,16.50225 L16.002,16.50225 C16.2771375,16.50225 16.50225,16.7273625 16.50225,17.0025 L16.50225,17.752875 Z M16.50225,14.251125 C16.50225,14.5262625 16.2771375,14.751375 16.002,14.751375 L7.998,14.751375 C7.7228625,14.751375 7.49775,14.5262625 7.49775,14.251125 L7.49775,13.50075 C7.49775,13.2256125 7.7228625,13.0005 7.998,13.0005 L16.002,13.0005 C16.2771375,13.0005 16.50225,13.2256125 16.50225,13.50075 L16.50225,14.251125 Z M16.50225,10.749375 C16.50225,11.0245125 16.2771375,11.249625 16.002,11.249625 L7.998,11.249625 C7.7228625,11.249625 7.49775,11.0245125 7.49775,10.749375 L7.49775,9.999 C7.49775,9.7238625 7.7228625,9.49875 7.998,9.49875 L16.002,9.49875 C16.2771375,9.49875 16.50225,9.7238625 16.50225,9.999 L16.50225,10.749375 Z"/>
</svg>
