<svg xmlns="http://www.w3.org/2000/svg" width="24" height="24" viewBox="0 0 24 24">
  <path fill="#526075" fill-rule="evenodd" d="M12.1136932,6.08795455 L11.9090455,6.08795455 C8.79385227,6.11069318 6.31534091,6.70189773 6.31534091,7.45227273 C6.31534091,8.20264773 8.86206818,8.81659091 12,8.81659091 C15.1379318,8.81659091 17.6846591,8.20264773 17.6846591,7.45227273 C17.6846591,6.70189773 15.1379318,6.08795455 12,6.08795455 L12.1136932,6.08795455 Z M17.4572727,9.15767045 C17.4345341,9.15767045 17.4117955,9.15767045 17.3663182,9.18040909 C15.8655682,9.748875 14.0692159,10.0217386 12,10.0217386 C9.93078409,10.0217386 8.13443182,9.72613636 6.63368182,9.15767045 C6.51998864,9.11219318 6.38355682,9.18040909 6.33807955,9.29410227 C6.33807955,9.31684091 6.31534091,9.33957955 6.31534091,9.38505682 L6.31534091,11.49975 L6.31534091,11.5452273 C6.33807955,11.7043977 6.42903409,11.8635682 6.58820455,11.9317841 C7.97526136,12.5684659 9.79435227,12.9095455 12,12.9322841 C14.2283864,12.9550227 16.0247386,12.6366818 17.4345341,11.9317841 C17.5937045,11.8635682 17.6846591,11.7043977 17.6846591,11.5224886 L17.6846591,9.40779545 L17.6846591,9.38505682 C17.6619205,9.248625 17.5709659,9.15767045 17.4572727,9.15767045 Z M14.7741136,14.50125 L11.0449773,14.50125 C10.7721136,14.50125 10.4765114,14.5694659 10.4765114,15.0469773 C10.4765114,15.3425795 10.7038977,15.6609205 11.0677159,15.7063977 C11.3860568,15.7746136 12.1364318,15.8200909 12.7048977,15.8655682 C12.8868068,15.8655682 12.7048977,15.9792614 12.7048977,15.9792614 L12,16.4340341 L9.52148864,16.4340341 C9.52148864,16.4340341 8.49825,15.7291364 7.86156818,15.2743636 C6.79285227,14.5694659 6.38355682,15.2743636 6.38355682,15.2743636 C6.38355682,15.2743636 6.26986364,15.5244886 6.38355682,15.6609205 C6.97476136,16.1384318 9.04397727,17.8438295 9.18040909,17.9802614 C9.33957955,18.0939545 9.52148864,18.0484773 9.52148864,18.0484773 L13.7736136,18.0484773 C14.1146932,18.0712159 14.3193409,18.253125 14.3193409,18.253125 C14.3193409,18.253125 15.0015,18.7988523 15.1606705,18.9125455 C15.50175,19.1626705 15.6836591,18.9125455 15.6836591,18.9125455 L17.5937045,17.0025 C17.5937045,17.0025 17.7756136,16.8205909 17.5937045,16.7068977 C17.4117955,16.5932045 15.1834091,14.751375 15.0697159,14.6149432 C14.9105455,14.50125 14.7741136,14.50125 14.7741136,14.50125 L14.7741136,14.50125 Z M12,1.995 C17.5254886,1.995 22.005,6.47451136 22.005,12 C22.005,17.5254886 17.5254886,22.005 12,22.005 C6.47451136,22.005 1.995,17.5254886 1.995,12 C1.995,6.47451136 6.47451136,1.995 12,1.995 Z"/>
</svg>
