<svg xmlns="http://www.w3.org/2000/svg" width="24" height="24" viewBox="0 0 24 24">
  <path fill="#526075" fill-rule="evenodd" d="M20.3791875,2.045025 L17.3776875,2.045025 C17.10255,2.045025 16.8774375,2.2701375 16.8774375,2.545275 L16.8774375,4.1710875 L13.8759375,4.1710875 L13.8759375,2.545275 C13.8759375,2.2701375 13.650825,2.045025 13.3756875,2.045025 L10.3741875,2.045025 C10.09905,2.045025 9.8739375,2.2701375 9.8739375,2.545275 L9.8739375,4.1710875 L6.8724375,4.1710875 L6.8724375,2.545275 C6.8724375,2.2701375 6.647325,2.045025 6.3721875,2.045025 L3.3706875,2.045025 C3.09555,2.045025 2.8704375,2.2701375 2.8704375,2.545275 L2.8704375,4.1710875 L2.8704375,5.6718375 L2.8704375,16.2021 C2.8704375,16.552275 3.045525,16.8774375 3.3706875,17.052525 L11.3746875,21.8049 C11.69985,21.9799875 12.0750375,21.9799875 12.4002,21.8049 L20.4042,17.052525 C20.70435,16.8774375 20.90445,16.552275 20.90445,16.2021 L20.90445,5.6718375 L20.90445,4.6713375 L20.90445,2.545275 C20.8794375,2.2701375 20.654325,2.045025 20.3791875,2.045025 Z M8.9985,15.8019 C8.9985,16.0770375 8.7733875,16.30215 8.49825,16.30215 L7.49775,16.30215 C7.2226125,16.30215 6.9975,16.0770375 6.9975,15.8019 L6.9975,11.549775 C6.9975,11.2746375 7.2226125,11.049525 7.49775,11.049525 L8.49825,11.049525 C8.7733875,11.049525 8.9985,11.2746375 8.9985,11.549775 L8.9985,15.8019 Z M12.8754375,15.8019 C12.8754375,16.0770375 12.650325,16.30215 12.3751875,16.30215 L11.3746875,16.30215 C11.09955,16.30215 10.8744375,16.0770375 10.8744375,15.8019 L10.8744375,8.048025 C10.8744375,7.7728875 11.09955,7.547775 11.3746875,7.547775 L12.3751875,7.547775 C12.650325,7.547775 12.8754375,7.7728875 12.8754375,8.048025 L12.8754375,15.8019 Z M16.752375,15.8019 C16.752375,16.0770375 16.5272625,16.30215 16.252125,16.30215 L15.251625,16.30215 C14.9764875,16.30215 14.751375,16.0770375 14.751375,15.8019 L14.751375,10.049025 C14.751375,9.7738875 14.9764875,9.548775 15.251625,9.548775 L16.252125,9.548775 C16.5272625,9.548775 16.752375,9.7738875 16.752375,10.049025 L16.752375,15.8019 Z"/>
</svg>
