<svg xmlns="http://www.w3.org/2000/svg" width="24" height="24" viewBox="0 0 24 24">
  <path fill="#526075" fill-rule="evenodd" d="M20.2041,3.5707875 L12.2001,2.0200125 C12.0750375,1.995 11.9249625,1.995 11.7999,2.0200125 L3.7959,3.5707875 C3.3206625,3.645825 2.9955,4.046025 2.9955,4.49625 L2.9955,10.0240125 C2.9955,14.10105 5.1215625,17.8779375 8.6733375,20.10405 L11.449725,21.854925 C11.7748875,22.055025 12.2001,22.055025 12.550275,21.854925 L15.3266625,20.10405 C18.8784375,17.8779375 21.0045,14.0760375 21.0045,10.0240125 L21.0045,4.49625 C21.0045,4.046025 20.6793375,3.645825 20.2041,3.5707875 Z M16.50225,15.0015 C16.50225,15.2766375 16.2771375,15.50175 16.002,15.50175 L7.998,15.50175 C7.7228625,15.50175 7.49775,15.2766375 7.49775,15.0015 L7.49775,14.251125 C7.49775,13.9759875 7.7228625,13.750875 7.998,13.750875 L16.002,13.750875 C16.2771375,13.750875 16.50225,13.9759875 16.50225,14.251125 L16.50225,15.0015 Z M16.50225,11.49975 C16.50225,11.7748875 16.2771375,12 16.002,12 L7.998,12 C7.7228625,12 7.49775,11.7748875 7.49775,11.49975 L7.49775,10.749375 C7.49775,10.4742375 7.7228625,10.249125 7.998,10.249125 L16.002,10.249125 C16.2771375,10.249125 16.50225,10.4742375 16.50225,10.749375 L16.50225,11.49975 Z M16.50225,7.998 C16.50225,8.2731375 16.2771375,8.49825 16.002,8.49825 L7.998,8.49825 C7.7228625,8.49825 7.49775,8.2731375 7.49775,7.998 L7.49775,7.247625 C7.49775,6.9724875 7.7228625,6.747375 7.998,6.747375 L16.002,6.747375 C16.2771375,6.747375 16.50225,6.9724875 16.50225,7.247625 L16.50225,7.998 Z"/>
</svg>
