<svg xmlns="http://www.w3.org/2000/svg" width="24" height="24" viewBox="0 0 24 24">
  <path fill="#526075" fill-rule="evenodd" d="M21.0045,16.6773375 C21.554775,16.6773375 22.005,17.1275625 22.005,17.6778375 L22.005,17.6778375 L22.005,21.0045 C22.005,21.554775 21.554775,22.005 21.0045,22.005 L21.0045,22.005 L2.9955,22.005 C2.445225,22.005 1.995,21.554775 1.995,21.0045 L1.995,21.0045 L1.995,17.6778375 C1.995,17.1275625 2.445225,16.6773375 2.9955,16.6773375 L2.9955,16.6773375 Z M5.2716375,17.9279625 C4.49625,17.9279625 3.8709375,18.553275 3.8709375,19.3286625 C3.8709375,20.10405 4.49625,20.7293625 5.2716375,20.7293625 C6.0220125,20.7293625 6.647325,20.10405 6.6723375,19.3286625 C6.6723375,18.553275 6.047025,17.9279625 5.2716375,17.9279625 Z M21.0045,9.3236625 C21.554775,9.3236625 22.005,9.7738875 22.005,10.3241625 L22.005,10.3241625 L22.005,13.650825 C22.005,14.2011 21.554775,14.651325 21.0045,14.651325 L21.0045,14.651325 L2.9955,14.651325 C2.445225,14.651325 1.995,14.2011 1.995,13.650825 L1.995,13.650825 L1.995,10.3241625 C1.995,9.7738875 2.445225,9.3236625 2.9955,9.3236625 L2.9955,9.3236625 Z M5.2716375,10.5993 C4.49625,10.5993 3.8709375,11.2246125 3.8709375,12 C3.8709375,12.7753875 4.49625,13.4007 5.2716375,13.4007 C6.0220125,13.4007 6.6723375,12.7753875 6.6723375,12 C6.6723375,11.2246125 6.047025,10.5993 5.2716375,10.5993 Z M21.0045,1.995 C21.554775,1.995 22.005,2.445225 22.005,2.9955 L22.005,2.9955 L22.005,6.3221625 C22.005,6.8724375 21.554775,7.3226625 21.0045,7.3226625 L21.0045,7.3226625 L2.9955,7.3226625 C2.445225,7.3226625 1.995,6.8724375 1.995,6.3221625 L1.995,6.3221625 L1.995,2.9955 C1.995,2.445225 2.445225,1.995 2.9955,1.995 L2.9955,1.995 Z M5.2716375,3.245625 C4.49625,3.245625 3.8709375,3.8709375 3.8709375,4.646325 C3.8709375,5.4217125 4.49625,6.047025 5.2716375,6.047025 C6.0220125,6.047025 6.6723375,5.4217125 6.6723375,4.646325 C6.6723375,3.8709375 6.047025,3.245625 5.2716375,3.245625 Z"/>
</svg>
