<svg xmlns="http://www.w3.org/2000/svg" width="24" height="24" viewBox="0 0 24 24">
  <path fill="#526075" fill-rule="evenodd" d="M17.681 11.31L21.522 13.61C21.867 13.84 21.89 13.863 21.89 14.162L21.89 18.716C21.89 18.969 21.775 19.222 21.522 19.36L17.612 21.66C17.359 21.798 17.29 21.798 16.991 21.66L13.081 19.36C12.828 19.222 12.713 19.13 12.713 18.716L12.713 14.254C12.713 13.886 12.782 13.794 13.081 13.61L16.991 11.31C17.29 11.172 17.428 11.172 17.681 11.31zM17.2356547 13.2189433L17.2192493 13.2353487 15.0865471 14.4001322C15.0537363 14.4165376 15.0373309 14.432943 15.0209255 14.4657538 14.9881147 14.5477808 15.0045201 14.6298078 15.0701417 14.679024L15.0865471 14.6954294 17.2192493 15.7781859C17.2520601 15.7945913 17.3012763 15.7945913 17.3504925 15.7781859L17.3668979 15.7617805 19.4503838 14.679024C19.4831946 14.6626186 19.4996 14.6462132 19.5160054 14.6134024 19.5553784 14.5609052 19.5422541 14.487409 19.5018312 14.4349117L19.4503838 14.3837268 17.3668979 13.2189433C17.3340871 13.2025379 17.2848709 13.1861325 17.2356547 13.2189433zM7.078 11.31L10.919 13.61C11.264 13.84 11.287 13.863 11.287 14.162L11.287 18.716C11.287 18.969 11.172 19.222 10.919 19.36L7.009 21.66C6.756 21.798 6.687 21.798 6.388 21.66L2.478 19.36C2.225 19.222 2.11 19.13 2.11 18.716L2.11 14.254C2.11 13.886 2.179 13.794 2.478 13.61L6.388 11.31C6.687 11.172 6.825 11.172 7.078 11.31zM6.63265466 13.2189433L6.61624926 13.2353487 4.48354709 14.4001322C4.45073629 14.4165376 4.43433088 14.432943 4.41792548 14.4657538 4.38511468 14.5477808 4.40152008 14.6298078 4.46714169 14.679024L4.48354709 14.6954294 6.61624926 15.7781859C6.64906007 15.7945913 6.69827627 15.7945913 6.74749247 15.7781859L6.76389787 15.7617805 8.84738384 14.679024C8.88019465 14.6626186 8.89660005 14.6462132 8.91300545 14.6134024 8.95237841 14.5609052 8.93925409 14.487409 8.89883118 14.4349117L8.84738384 14.3837268 6.76389787 13.2189433C6.73108707 13.2025379 6.68187087 13.1861325 6.63265466 13.2189433zM12.391 2.10425L16.232 4.40425C16.577 4.63425 16.6 4.65725 16.6 4.95625L16.6 9.51025C16.6 9.76325 16.485 10.01625 16.232 10.15425L12.322 12.45425C12.069 12.59225 12 12.59225 11.701 12.45425L7.791 10.15425C7.538 10.01625 7.423 9.92425 7.423 9.51025L7.423 5.04825C7.423 4.68025 7.492 4.58825 7.791 4.40425L11.701 2.10425C12 1.96625 12.138 1.96625 12.391 2.10425zM11.9456547 4.01319333L11.9292493 4.02959873 9.79654709 5.19438222C9.76373629 5.21078762 9.74733088 5.22719302 9.73092548 5.26000383 9.69811468 5.34203083 9.71452008 5.42405784 9.78014169 5.47327404L9.79654709 5.48967945 11.9292493 6.57243593C11.9620601 6.58884134 12.0112763 6.58884134 12.0604925 6.57243593L12.0768979 6.55603053 14.1603838 5.47327404C14.1931946 5.45686864 14.2096 5.44046324 14.2260054 5.40765244 14.2653784 5.35515516 14.2522541 5.28165896 14.2118312 5.22916167L14.1603838 5.17797682 12.0768979 4.01319333C12.0440871 3.99678792 11.9948709 3.98038252 11.9456547 4.01319333z"/>
</svg>
