<svg xmlns="http://www.w3.org/2000/svg" width="24" height="24" viewBox="0 0 24 24">
  <path fill="#526075" fill-rule="evenodd" d="M19.2763636,16.0929545 C19.7766136,16.0929545 20.1859091,16.50225 20.1859091,17.0025 L20.1859091,17.0025 L20.1859091,21.0954545 C20.1859091,21.5957045 19.7766136,22.005 19.2763636,22.005 L19.2763636,22.005 L4.72363636,22.005 C4.22338636,22.005 3.81409091,21.5957045 3.81409091,21.0954545 L3.81409091,21.0954545 L3.81409091,17.0025 C3.81409091,16.50225 4.22338636,16.0929545 4.72363636,16.0929545 L4.72363636,16.0929545 Z M17.1161932,17.7756136 C16.4112955,17.7756136 15.8428295,18.3440795 15.8428295,19.0489773 C15.8428295,19.753875 16.4112955,20.3223409 17.1161932,20.3223409 C17.7983523,20.3223409 18.3895568,19.753875 18.3895568,19.0489773 C18.3895568,18.3440795 17.8210909,17.7756136 17.1161932,17.7756136 Z M17.7983523,1.995 C18.2758636,1.995 18.6624205,2.33607955 18.7078977,2.79085227 L18.7078977,2.79085227 L20.1404318,14.4785114 C20.1404318,14.5694659 20.0267386,14.6149432 19.9585227,14.5467273 C19.7993523,14.3420795 19.5492273,14.2056477 19.2763636,14.2056477 L19.2763636,14.2056477 L4.72363636,14.2056477 C4.45077273,14.2056477 4.20064773,14.3420795 4.04147727,14.5467273 C3.97326136,14.6376818 3.85956818,14.5922045 3.88230682,14.4785114 L3.88230682,14.4785114 L5.29210227,2.79085227 C5.36031818,2.33607955 5.746875,1.995 6.20164773,1.995 L6.20164773,1.995 Z"/>
</svg>
