<svg xmlns="http://www.w3.org/2000/svg" width="24" height="24" viewBox="0 0 24 24">
  <path fill="#526075" fill-rule="evenodd" d="M6.5973,13.0005 C7.0725375,15.551775 9.29865,17.50275 12,17.50275 C14.70135,17.50275 16.9274625,15.551775 17.4027,13.0005 L17.4027,13.0005 L21.50475,13.0005 C21.7798875,13.0005 22.005,13.2256125 22.005,13.50075 L22.005,13.50075 L22.005,21.0045 C22.005,21.554775 21.554775,22.005 21.0045,22.005 L21.0045,22.005 L2.9955,22.005 C2.445225,22.005 1.995,21.554775 1.995,21.0045 L1.995,21.0045 L1.995,13.50075 C1.995,13.2256125 2.2201125,13.0005 2.49525,13.0005 L2.49525,13.0005 Z M12,8.49825 C13.9259625,8.49825 15.50175,10.0740375 15.50175,12 C15.50175,13.9259625 13.9259625,15.50175 12,15.50175 C10.0740375,15.50175 8.49825,13.9259625 8.49825,12 C8.49825,10.0740375 10.0740375,8.49825 12,8.49825 Z M12,10.9995 C11.449725,10.9995 10.9995,11.449725 10.9995,12 C10.9995,12.550275 11.449725,13.0005 12,13.0005 C12.550275,13.0005 13.0005,12.550275 13.0005,12 C13.0005,11.449725 12.550275,10.9995 12,10.9995 Z M21.0045,1.995 C21.554775,1.995 22.005,2.445225 22.005,2.9955 L22.005,2.9955 L22.005,10.49925 C22.005,10.7743875 21.7798875,10.9995 21.50475,10.9995 L21.50475,10.9995 L17.4027,10.9995 C16.9274625,8.448225 14.70135,6.49725 12,6.49725 C9.29865,6.49725 7.0725375,8.448225 6.5973,10.9995 L6.5973,10.9995 L2.49525,10.9995 C2.2201125,10.9995 1.995,10.7743875 1.995,10.49925 L1.995,10.49925 L1.995,2.9955 C1.995,2.445225 2.445225,1.995 2.9955,1.995 L2.9955,1.995 Z"/>
</svg>
