<svg xmlns="http://www.w3.org/2000/svg" width="24" height="24" viewBox="0 0 24 24">
  <path fill="#526075" fill-rule="evenodd" d="M11.6975233,4.22867442 L11.6509884,4.25194186 L5.06630233,7.85839535 C4.9965,7.90493023 4.92669767,7.97473256 4.88016279,8.04453488 C4.76382558,8.25394186 4.83362791,8.53315116 5.04303488,8.64948837 L5.06630233,8.67275581 L6.32274419,9.37077907 L11.0693023,6.85789535 C11.5346512,6.57868605 12.1163372,6.57868605 12.6049535,6.81136047 L12.6514884,6.83462791 L17.6307209,9.37077907 L18.9104302,8.67275581 C18.9802326,8.62622093 19.0500349,8.5564186 19.0965698,8.48661628 C19.212907,8.2772093 19.1431047,7.998 18.9336977,7.88166279 L18.9104302,7.85839535 L12.3257442,4.25194186 C12.1163372,4.15887209 11.8836628,4.13560465 11.6975233,4.22867442 Z M11.8836628,8.83562791 L8.5564186,10.580686 L11.6277209,12.2559419 C11.8138605,12.3722791 12.0465349,12.3722791 12.2559419,12.2792093 L12.3024767,12.2559419 L15.3737791,10.6039535 L11.8836628,8.83562791 Z M12.9074302,2.22767442 L20.3530116,6.34601163 C20.9579651,6.67175581 21.3069767,7.29997674 21.3069767,7.97473256 L21.3069767,16.0485349 C21.3069767,16.7232907 20.9346977,17.3515116 20.3530116,17.6772558 L12.9074302,21.7723256 C12.3490116,22.0748023 11.6742558,22.0748023 11.1158372,21.7723256 L3.67025581,17.6539884 C3.06530233,17.3282442 2.7162907,16.7000233 2.7162907,16.0252674 L2.7162907,7.97473256 C2.7162907,7.29997674 3.08856977,6.67175581 3.67025581,6.34601163 L11.0925698,2.22767442 C11.6509884,1.92519767 12.3490116,1.92519767 12.9074302,2.22767442 Z"/>
</svg>
