<svg xmlns="http://www.w3.org/2000/svg" width="24" height="24" viewBox="0 0 24 24">
  <path fill="#526075" fill-rule="evenodd" d="M16.8804878,2.1170122 C17.1489146,2.1170122 17.3685366,2.33663415 17.3685366,2.60506098 L17.3685366,5.77737805 C17.3685366,6.04580488 17.1489146,6.26542683 16.8804878,6.26542683 L7.1195122,6.26542683 C6.85108537,6.26542683 6.63146341,6.04580488 6.63146341,5.77737805 L6.63146341,2.60506098 C6.63146341,2.33663415 6.85108537,2.1170122 7.1195122,2.1170122 L16.8804878,2.1170122 Z M16.8804878,7.72957317 C17.1489146,7.72957317 17.3685366,7.94919512 17.3685366,8.21762195 L17.3685366,11.389939 C17.3685366,11.6583659 17.1489146,11.8779878 16.8804878,11.8779878 L7.1195122,11.8779878 C6.85108537,11.8779878 6.63146341,11.6583659 6.63146341,11.389939 L6.63146341,8.21762195 C6.63146341,7.94919512 6.85108537,7.72957317 7.1195122,7.72957317 L16.8804878,7.72957317 Z M16.8804878,13.3421341 C17.1489146,13.3421341 17.3685366,13.5617561 17.3685366,13.8301829 L17.3685366,17.0025 C17.3685366,17.2709268 17.1489146,17.4905488 16.8804878,17.4905488 L7.1195122,17.4905488 C6.85108537,17.4905488 6.63146341,17.2709268 6.63146341,17.0025 L6.63146341,13.8301829 C6.63146341,13.5617561 6.85108537,13.3421341 7.1195122,13.3421341 L16.8804878,13.3421341 Z M4.67926829,11.8779878 C4.94769512,11.8779878 5.16731707,12.0976098 5.16731707,12.3660366 L5.16731707,18.4666463 C5.16731707,18.7350732 5.38693902,18.9546951 5.65536585,18.9546951 L18.3446341,18.9546951 C18.613061,18.9546951 18.8326829,18.7350732 18.8326829,18.4666463 L18.8326829,12.3660366 C18.8326829,12.0976098 19.0523049,11.8779878 19.3207317,11.8779878 L21.2729268,11.8779878 C21.5413537,11.8779878 21.7609756,12.0976098 21.7609756,12.3660366 L21.7609756,21.394939 C21.7609756,21.6633659 21.5413537,21.8829878 21.2729268,21.8829878 L2.72707317,21.8829878 C2.45864634,21.8829878 2.23902439,21.6633659 2.23902439,21.394939 L2.23902439,12.3660366 C2.23902439,12.0976098 2.45864634,11.8779878 2.72707317,11.8779878 L4.67926829,11.8779878 Z"/>
</svg>
