<svg xmlns="http://www.w3.org/2000/svg" width="24" height="24" viewBox="0 0 24 24">
  <g fill="none" fill-rule="evenodd">
    <path fill="#526075" d="M8.7233625,12.750375 C8.2231125,12.750375 7.8229125,13.150575 7.8229125,13.650825 C7.8229125,14.151075 8.2231125,14.551275 8.7233625,14.551275 C9.2236125,14.551275 9.6238125,14.151075 9.6238125,13.650825 C9.648825,13.150575 9.2236125,12.750375 8.7233625,12.750375 Z"/>
    <path fill="#526075" d="M21.0045,5.997 L10.9995,5.997 L10.1991,3.2206125 C10.0740375,2.7954 9.69885,2.49525 9.248625,2.49525 L2.9955,2.49525 C2.445225,2.49525 1.995,2.945475 1.995,3.49575 L1.995,20.50425 C1.995,21.054525 2.445225,21.50475 2.9955,21.50475 L21.0045,21.50475 C21.554775,21.50475 22.005,21.054525 22.005,20.50425 L22.005,6.9975 C22.005,6.447225 21.554775,5.997 21.0045,5.997 Z M3.996,5.49675 C3.996,4.7964 4.546275,4.246125 5.246625,4.246125 C5.946975,4.246125 6.49725,4.7964 6.49725,5.49675 C6.49725,6.1971 5.946975,6.747375 5.246625,6.747375 C4.546275,6.747375 3.996,6.1971 3.996,5.49675 Z M17.952975,14.151075 C17.952975,14.4262125 17.7278625,14.651325 17.452725,14.651325 L16.152075,14.651325 L16.152075,15.851925 C16.152075,16.1270625 15.9269625,16.352175 15.651825,16.352175 L14.4012,16.352175 C14.1260625,16.352175 13.90095,16.1270625 13.90095,15.851925 L13.90095,14.651325 L11.2246125,14.651325 C10.8244125,15.6268125 9.8739375,16.3271625 8.748375,16.3271625 C7.2726375,16.3271625 6.0720375,15.1265625 6.0720375,13.650825 C6.0720375,12.1750875 7.2726375,10.9744875 8.748375,10.9744875 C9.948975,10.9744875 10.9744875,11.7748875 11.29965,12.8754375 L17.452725,12.8754375 C17.7278625,12.8754375 17.952975,13.10055 17.952975,13.3756875 L17.952975,14.151075 L17.952975,14.151075 Z"/>
  </g>
</svg>
