<svg xmlns="http://www.w3.org/2000/svg" width="24" height="24" viewBox="0 0 24 24">
  <path fill="#526075" fill-rule="evenodd" d="M12,1.995 C6.47451136,1.995 1.995,6.47451136 1.995,12 C1.995,17.5254886 6.47451136,22.005 12,22.005 C17.5254886,22.005 22.005,17.5254886 22.005,12 C22.005,6.47451136 17.5254886,1.995 12,1.995 Z M11.3405795,9.95352273 L10.9995,10.2946023 C10.8175909,10.4765114 10.49925,10.4765114 10.3173409,10.2946023 L9.68065909,9.65792045 L9.68065909,16.8888068 C9.68065909,17.1616705 9.47601136,17.3663182 9.20314773,17.3663182 L8.248125,17.3663182 C7.97526136,17.3663182 7.77061364,17.1616705 7.77061364,16.8888068 L7.77061364,9.65792045 L7.13393182,10.2946023 C6.95202273,10.4765114 6.63368182,10.4765114 6.45177273,10.2946023 L6.11069318,9.95352273 C5.92878409,9.77161364 5.92878409,9.45327273 6.11069318,9.27136364 L8.38455682,6.9975 C8.56646591,6.81559091 8.88480682,6.81559091 9.06671591,6.9975 L11.3405795,9.27136364 C11.5224886,9.45327273 11.5224886,9.748875 11.3405795,9.95352273 Z M17.8893068,9.95352273 L17.5482273,10.2946023 C17.3663182,10.4765114 17.0479773,10.4765114 16.8660682,10.2946023 L16.2293864,9.65792045 L16.2293864,16.8888068 C16.2293864,17.1616705 16.0247386,17.3663182 15.751875,17.3663182 L14.7968523,17.3663182 C14.5239886,17.3663182 14.3193409,17.1616705 14.3193409,16.8888068 L14.3193409,9.65792045 L13.6826591,10.2946023 C13.50075,10.4765114 13.1824091,10.4765114 13.0005,10.2946023 L12.6594205,9.95352273 C12.4775114,9.77161364 12.4775114,9.45327273 12.6594205,9.27136364 L14.9332841,6.9975 C15.1151932,6.81559091 15.4335341,6.81559091 15.6154432,6.9975 L17.8893068,9.27136364 C18.0712159,9.45327273 18.0712159,9.748875 17.8893068,9.95352273 Z"/>
</svg>
