<svg xmlns="http://www.w3.org/2000/svg" width="24" height="24" viewBox="0 0 24 24">
  <path fill="#526075" fill-rule="evenodd" d="M10.4082955,11.1359318 C10.1581705,11.1359318 9.95352273,11.3405795 9.95352273,11.5907045 L9.95352273,15.5699659 C9.95352273,15.6381818 9.97626136,15.7063977 9.999,15.7746136 C10.1126932,16.002 10.3855568,16.0929545 10.6129432,15.9792614 L14.5922045,13.9782614 C14.6831591,13.9327841 14.751375,13.8645682 14.7968523,13.7736136 C14.9105455,13.5462273 14.8195909,13.2733636 14.5922045,13.1596705 L10.6129432,11.1586705 C10.5447273,11.1586705 10.4765114,11.1359318 10.4082955,11.1359318 Z M12,2.90454545 C15.3880568,2.90454545 18.1394318,5.49675 18.1394318,8.70289773 C18.1394318,9.08945455 18.0939545,9.49875 18.0257386,9.86256818 C20.3450795,10.6811591 22.005,12.8185909 22.005,15.2971023 C22.005,18.4350341 19.3673182,20.9817614 16.0929545,21.0954545 L16.0929545,21.0954545 L7.90704545,21.0954545 L7.90704545,21.0954545 C4.63268182,20.9817614 1.995,18.4350341 1.995,15.2971023 C1.995,12.8185909 3.65492045,10.6811591 5.97426136,9.86256818 C5.90604545,9.49875 5.86056818,9.08945455 5.86056818,8.70289773 C5.86056818,5.49675 8.61194318,2.90454545 12,2.90454545 Z"/>
</svg>
