<svg xmlns="http://www.w3.org/2000/svg" width="24" height="24" viewBox="0 0 24 24">
  <path fill="#526075" fill-rule="evenodd" d="M9.04397727,5.40579545 C8.04347727,5.40579545 7.22488636,6.22438636 7.22488636,7.22488636 L7.22488636,17.0025 L4.72363636,17.0025 C4.22338636,17.0025 3.81409091,16.5932045 3.81409091,16.0929545 L3.81409091,2.90454545 C3.81409091,2.40429545 4.22338636,1.995 4.72363636,1.995 L14.2738636,1.995 C14.7741136,1.995 15.1834091,2.40429545 15.1834091,2.90454545 L15.1834091,5.40579545 L9.04397727,5.40579545 Z M20.1859091,7.90704545 L20.1859091,21.0954545 C20.1859091,21.5957045 19.7766136,22.005 19.2763636,22.005 L9.72613636,22.005 C9.22588636,22.005 8.81659091,21.5957045 8.81659091,21.0954545 L8.81659091,7.90704545 C8.81659091,7.40679545 9.22588636,6.9975 9.72613636,6.9975 L19.2763636,6.9975 C19.7766136,6.9975 20.1859091,7.40679545 20.1859091,7.90704545 Z M18.0257386,16.5477273 C18.0257386,16.2976023 17.8210909,16.0929545 17.5709659,16.0929545 L11.4315341,16.0929545 C11.1814091,16.0929545 10.9767614,16.2976023 10.9767614,16.5477273 L10.9767614,17.2298864 C10.9767614,17.4800114 11.1814091,17.6846591 11.4315341,17.6846591 L17.5709659,17.6846591 C17.8210909,17.6846591 18.0257386,17.4800114 18.0257386,17.2298864 L18.0257386,16.5477273 Z M18.0257386,11.7726136 C18.0257386,11.5224886 17.8210909,11.3178409 17.5709659,11.3178409 L11.4315341,11.3178409 C11.1814091,11.3178409 10.9767614,11.5224886 10.9767614,11.7726136 L10.9767614,12.4547727 C10.9767614,12.7048977 11.1814091,12.9095455 11.4315341,12.9095455 L17.5709659,12.9095455 C17.8210909,12.9095455 18.0257386,12.7048977 18.0257386,12.4547727 L18.0257386,11.7726136 Z"/>
</svg>
