<svg xmlns="http://www.w3.org/2000/svg" width="24" height="24" viewBox="0 0 24 24">
  <path fill="#526075" fill-rule="evenodd" d="M18.7761136,7.88430682 C18.753375,7.38405682 18.3668182,6.9975 17.8665682,6.9975 L16.3203409,6.9975 L16.3203409,6.42903409 C16.3203409,3.97326136 14.3420795,1.995 11.8863068,1.995 C9.43053409,1.995 7.45227273,3.97326136 7.45227273,6.42903409 L7.45227273,6.9975 L5.90604545,6.9975 C5.40579545,6.9975 4.9965,7.38405682 4.9965,7.88430682 L4.60994318,21.0727159 C4.58720455,21.5957045 5.01923864,22.005 5.51948864,22.005 L18.253125,22.005 C18.7761136,22.005 19.1854091,21.5729659 19.1626705,21.0727159 L18.7761136,7.88430682 Z M9.04397727,6.42903409 C9.04397727,4.86006818 10.3173409,3.58670455 11.8863068,3.58670455 C13.4552727,3.58670455 14.7286364,4.86006818 14.7286364,6.42903409 L14.7286364,6.9975 L9.04397727,6.9975 L9.04397727,6.42903409 Z M15.1151932,15.1379318 C15.1151932,16.9115455 13.6826591,18.3668182 11.8863068,18.3668182 C10.0899545,18.3668182 8.65742045,16.9115455 8.65742045,15.1379318 L8.65742045,11.9317841 C8.65742045,11.49975 9.02123864,11.1359318 9.45327273,11.1359318 C9.88530682,11.1359318 10.249125,11.49975 10.249125,11.9317841 L10.249125,15.1379318 C10.249125,16.0474773 10.9995,16.7751136 11.8863068,16.7751136 C12.7731136,16.7751136 13.5234886,16.0247386 13.5234886,15.1379318 L13.5234886,11.9317841 C13.5234886,11.49975 13.8873068,11.1359318 14.3193409,11.1359318 C14.751375,11.1359318 15.1151932,11.49975 15.1151932,11.9317841 L15.1151932,15.1379318 Z"/>
</svg>
