<svg xmlns="http://www.w3.org/2000/svg" width="24" height="24" viewBox="0 0 24 24">
  <path fill="#526075" fill-rule="evenodd" d="M14.4557727,3.35931818 C16.5932045,3.35931818 18.2986023,5.08745455 18.2986023,7.22488636 C18.2986023,9.36231818 16.5704659,11.0904545 14.4557727,11.0904545 C12.3183409,11.0904545 10.6129432,9.36231818 10.6129432,7.22488636 C10.6129432,5.08745455 12.3410795,3.35931818 14.4557727,3.35931818 Z M6.06521591,4.26886364 C7.95252273,4.26886364 9.47601136,5.79235227 9.47601136,7.67965909 C9.47601136,9.56696591 7.95252273,11.0904545 6.06521591,11.0904545 C4.17790909,11.0904545 2.65442045,9.56696591 2.65442045,7.67965909 C2.65442045,5.79235227 4.20064773,4.26886364 6.06521591,4.26886364 Z M8.90754545,13.7053977 C8.65742045,13.7053977 8.45277273,13.9100455 8.45277273,14.1601705 L8.45277273,17.0934545 C8.45277273,17.1616705 8.47551136,17.2071477 8.49825,17.2753636 C8.58920455,17.50275 8.86206818,17.6164432 9.08945455,17.50275 L12.4775114,16.0247386 C12.5912045,15.9792614 12.6594205,15.8883068 12.7048977,15.7973523 C12.7958523,15.5699659 12.7048977,15.2971023 12.4775114,15.2061477 L9.08945455,13.7281364 C9.04397727,13.7281364 8.97576136,13.7053977 8.90754545,13.7053977 Z M18.3668182,11.0904545 C18.6169432,11.0904545 18.8215909,11.2951023 18.8215909,11.5452273 L18.8215909,13.5689659 L21.3910568,12.6139432 C21.6184432,12.5229886 21.8913068,12.6366818 21.9822614,12.8868068 C22.005,12.9322841 22.005,13.0005 22.005,13.0459773 L22.005,18.4122955 C22.005,18.6624205 21.8003523,18.8670682 21.5502273,18.8670682 C21.50475,18.8670682 21.4365341,18.8670682 21.3910568,18.8443295 L18.8215909,17.8893068 L18.8215909,18.9807614 C18.8215909,19.8903068 18.1166932,20.6406818 17.252625,20.6406818 L3.56396591,20.6406818 C2.69989773,20.6406818 1.995,19.8903068 1.995,18.9807614 L1.995,11.5452273 C1.995,11.2951023 2.19964773,11.0904545 2.44977273,11.0904545 L18.3668182,11.0904545 Z"/>
</svg>
