<svg xmlns="http://www.w3.org/2000/svg" width="24" height="24" viewBox="0 0 24 24">
  <path fill="#526075" fill-rule="evenodd" d="M9.9739875,13.0255125 C10.5242625,13.0255125 10.9744875,13.4757375 10.9744875,14.0260125 L10.9744875,14.0260125 L10.9744875,21.0045 C10.9744875,21.554775 10.5242625,22.005 9.9739875,22.005 L9.9739875,22.005 L2.9955,22.005 C2.445225,22.005 1.995,21.554775 1.995,21.0045 L1.995,21.0045 L1.995,14.0260125 C1.995,13.4757375 2.445225,13.0255125 2.9955,13.0255125 L2.9955,13.0255125 Z M21.0045,13.0255125 C21.554775,13.0255125 22.005,13.4757375 22.005,14.0260125 L22.005,14.0260125 L22.005,21.0045 C22.005,21.554775 21.554775,22.005 21.0045,22.005 L21.0045,22.005 L14.0260125,22.005 C13.4757375,22.005 13.0255125,21.554775 13.0255125,21.0045 L13.0255125,21.0045 L13.0255125,14.0260125 C13.0255125,13.4757375 13.4757375,13.0255125 14.0260125,13.0255125 L14.0260125,13.0255125 Z M9.9739875,1.995 C10.5242625,1.995 10.9744875,2.445225 10.9744875,2.9955 L10.9744875,2.9955 L10.9744875,9.9739875 C10.9744875,10.5242625 10.5242625,10.9744875 9.9739875,10.9744875 L9.9739875,10.9744875 L2.9955,10.9744875 C2.445225,10.9744875 1.995,10.5242625 1.995,9.9739875 L1.995,9.9739875 L1.995,2.9955 C1.995,2.445225 2.445225,1.995 2.9955,1.995 L2.9955,1.995 Z M21.0045,1.995 C21.554775,1.995 22.005,2.445225 22.005,2.9955 L22.005,2.9955 L22.005,9.9739875 C22.005,10.5242625 21.554775,10.9744875 21.0045,10.9744875 L21.0045,10.9744875 L14.0260125,10.9744875 C13.4757375,10.9744875 13.0255125,10.5242625 13.0255125,9.9739875 L13.0255125,9.9739875 L13.0255125,2.9955 C13.0255125,2.445225 13.4757375,1.995 14.0260125,1.995 L14.0260125,1.995 Z"/>
</svg>
