<svg xmlns="http://www.w3.org/2000/svg" width="24" height="24" viewBox="0 0 24 24">
  <path fill="#526075" fill-rule="evenodd" d="M15.4562727,10.0217386 L16.2293864,13.0459773 C16.3658182,13.5689659 16.8660682,13.9327841 17.4345341,13.9327841 L17.4345341,13.9327841 L21.8230909,13.9327841 C20.9135455,18.5259886 16.8660682,22.005 12,22.005 C7.20214773,22.005 3.17740909,18.6169432 2.22238636,14.1146932 L2.22238636,14.1146932 L6.63368182,14.1146932 C7.11119318,14.1146932 7.54322727,13.8645682 7.747875,13.4552727 L7.747875,13.4552727 L8.93028409,11.1814091 L11.3405795,16.1384318 C11.5452273,16.5704659 11.9772614,16.8205909 12.4775114,16.8205909 L12.4775114,16.8205909 L12.5912045,16.8205909 C13.1141932,16.7751136 13.5462273,16.4567727 13.6826591,15.9792614 L13.6826591,15.9792614 L15.4562727,10.0217386 Z M12,1.995 C17.5254886,1.995 22.005,6.47451136 22.005,12 L22.005,12 L22.005,12.3410795 L17.6846591,12.3410795 L16.4340341,7.70239773 C16.3203409,7.247625 15.9337841,6.92928409 15.4562727,6.92928409 C14.9787614,6.92928409 14.5922045,7.20214773 14.4557727,7.65692045 L14.4557727,7.65692045 L12.3638182,14.6831591 L9.86256818,9.47601136 C9.70339773,9.11219318 9.33957955,8.88480682 8.95302273,8.88480682 C8.56646591,8.88480682 8.20264773,9.11219318 8.02073864,9.45327273 L8.02073864,9.45327273 L6.45177273,12.5229886 L2.01773864,12.5229886 C1.995,12.3410795 1.995,12.1819091 1.995,12 C1.995,6.47451136 6.47451136,1.995 12,1.995 Z"/>
</svg>
