<svg xmlns="http://www.w3.org/2000/svg" width="24" height="24" viewBox="0 0 24 24">
  <path fill="#526075" fill-rule="evenodd" d="M12,1.995 C6.47451136,1.995 1.995,6.47451136 1.995,12 C1.995,17.5254886 6.47451136,22.005 12,22.005 C17.5254886,22.005 22.005,17.5254886 22.005,12 C22.005,6.47451136 17.5254886,1.995 12,1.995 Z M16.9115455,16.9797614 C16.0247386,16.9797614 15.3198409,16.2748636 15.3198409,15.3880568 C15.3198409,14.751375 15.6836591,14.2056477 16.2293864,13.9555227 L16.2293864,12 C16.2293864,11.8635682 16.1384318,11.7726136 16.002,11.7726136 L12.6821591,11.7726136 L12.6821591,13.9555227 C13.2278864,14.2056477 13.5917045,14.751375 13.5917045,15.3880568 C13.5917045,16.2748636 12.8868068,16.9797614 12,16.9797614 C11.1131932,16.9797614 10.4082955,16.2748636 10.4082955,15.3880568 C10.4082955,14.751375 10.7721136,14.2056477 11.3178409,13.9555227 L11.3178409,11.7726136 L7.998,11.7726136 C7.86156818,11.7726136 7.77061364,11.8635682 7.77061364,12 L7.77061364,13.9555227 C8.31634091,14.2056477 8.68015909,14.751375 8.68015909,15.3880568 C8.68015909,16.2748636 7.97526136,16.9797614 7.08845455,16.9797614 C6.20164773,16.9797614 5.49675,16.2748636 5.49675,15.3880568 C5.49675,14.751375 5.86056818,14.2056477 6.40629545,13.9555227 L6.40629545,12 C6.40629545,11.1131932 7.11119318,10.4082955 7.998,10.4082955 L11.3178409,10.4082955 L11.3178409,9.20314773 C10.6584205,8.93028409 10.1809091,8.27086364 10.1809091,7.52048864 C10.1809091,6.51998864 10.9995,5.70139773 12,5.70139773 C13.0005,5.70139773 13.8190909,6.51998864 13.8190909,7.52048864 C13.8190909,8.29360227 13.3415795,8.93028409 12.6821591,9.20314773 L12.6821591,10.4082955 L16.002,10.4082955 C16.8888068,10.4082955 17.5937045,11.1131932 17.5937045,12 L17.5937045,13.9555227 C18.1394318,14.2056477 18.50325,14.751375 18.50325,15.3880568 C18.50325,16.2748636 17.7756136,16.9797614 16.9115455,16.9797614 Z"/>
</svg>
