<svg xmlns="http://www.w3.org/2000/svg" width="24" height="24" viewBox="0 0 24 24">
  <path fill="#526075" fill-rule="evenodd" d="M12,1.995 C6.47451136,1.995 1.995,6.47451136 1.995,12 C1.995,14.4785114 2.88180682,16.7296364 4.38255682,18.4805114 L8.65742045,14.2056477 L8.65742045,9.04397727 C8.11169318,8.748375 7.747875,8.17990909 7.747875,7.54322727 C7.747875,6.61094318 8.52098864,5.83782955 9.45327273,5.83782955 C10.3855568,5.83782955 11.1586705,6.61094318 11.1586705,7.54322727 C11.1586705,8.20264773 10.7948523,8.77111364 10.249125,9.04397727 L10.249125,12.6139432 L12.6366818,10.2263864 C12.5912045,10.0672159 12.5684659,9.90804545 12.5684659,9.72613636 C12.5684659,8.79385227 13.3415795,8.02073864 14.2738636,8.02073864 C15.2061477,8.02073864 15.9792614,8.79385227 15.9792614,9.72613636 C15.9792614,10.6584205 15.2061477,11.4315341 14.2738636,11.4315341 C14.0919545,11.4315341 13.9327841,11.4087955 13.7736136,11.3633182 L11.3405795,13.750875 L14.9787614,13.750875 C15.2743636,13.2051477 15.8428295,12.8413295 16.4795114,12.8413295 C17.4117955,12.8413295 18.1849091,13.6144432 18.1849091,14.5467273 C18.1849091,15.4790114 17.4117955,16.252125 16.4795114,16.252125 C15.8200909,16.252125 15.251625,15.8883068 14.9787614,15.3425795 L9.748875,15.3425795 L5.49675,19.5947045 C7.247625,21.0954545 9.52148864,22.005 12,22.005 C17.5254886,22.005 22.005,17.5254886 22.005,12 C22.005,6.47451136 17.5254886,1.995 12,1.995 Z"/>
</svg>
