<svg xmlns="http://www.w3.org/2000/svg" width="24" height="24" viewBox="0 0 24 24">
  <path fill="#526075" fill-rule="evenodd" d="M16.6841591,3.15467045 L11.6589205,8.20264773 L15.0015,8.20264773 C15.2743636,7.63418182 15.8655682,7.22488636 16.5477273,7.22488636 C17.4800114,7.22488636 18.253125,7.998 18.253125,8.93028409 C18.253125,9.86256818 17.4800114,10.6356818 16.5477273,10.6356818 C15.9110455,10.6356818 15.3653182,10.2946023 15.0697159,9.77161364 L11.2041477,9.77161364 C11.1359318,9.90804545 11.0449773,10.0217386 10.9312841,10.1354318 C10.2718636,10.7948523 9.18040909,10.7948523 8.52098864,10.1354318 C7.86156818,9.47601136 7.86156818,8.38455682 8.52098864,7.72513636 C8.9985,7.247625 9.68065909,7.11119318 10.2718636,7.31584091 L15.1151932,2.49525 C14.1374318,2.17690909 13.0914545,1.995 12,1.995 C6.47451136,1.995 1.995,6.47451136 1.995,12 C1.995,15.8200909 4.15517045,19.1626705 7.31584091,20.8453295 L12.3410795,15.8200909 L8.9985,15.8200909 C8.90754545,15.9792614 8.81659091,16.1384318 8.68015909,16.2748636 C8.02073864,16.9342841 6.92928409,16.9342841 6.26986364,16.2748636 C5.61044318,15.6154432 5.61044318,14.5239886 6.26986364,13.8645682 C6.92928409,13.2051477 8.02073864,13.2051477 8.68015909,13.8645682 C8.79385227,13.9782614 8.88480682,14.0919545 8.95302273,14.2283864 L12.7958523,14.2283864 C13.0914545,13.7281364 13.6371818,13.3643182 14.2738636,13.3643182 C15.2061477,13.3643182 15.9792614,14.1374318 15.9792614,15.0697159 C15.9792614,16.002 15.2061477,16.7751136 14.2738636,16.7751136 C14.0919545,16.7751136 13.9100455,16.752375 13.7281364,16.6841591 L8.88480682,21.50475 C9.86256818,21.8230909 10.9085455,22.005 12,22.005 C17.5254886,22.005 22.005,17.5254886 22.005,12 C22.005,8.17990909 19.8448295,4.83732955 16.6841591,3.15467045 Z"/>
</svg>
