<svg xmlns="http://www.w3.org/2000/svg" width="24" height="24" viewBox="0 0 24 24">
  <path fill="#526075" fill-rule="evenodd" d="M20.2041,3.5707875 L12.2001,2.0200125 C12.0750375,1.995 11.9249625,1.995 11.7999,2.0200125 L3.7959,3.5707875 C3.3206625,3.645825 2.9955,4.046025 2.9955,4.49625 L2.9955,10.0240125 C2.9955,14.10105 5.1215625,17.8779375 8.6733375,20.10405 L11.449725,21.854925 C11.7748875,22.055025 12.2001,22.055025 12.550275,21.854925 L15.3266625,20.10405 C18.8784375,17.8779375 21.0045,14.0760375 21.0045,10.0240125 L21.0045,4.49625 C21.0045,4.046025 20.6793375,3.645825 20.2041,3.5707875 Z M16.952475,9.89895 L12.3251625,14.4762375 L12.3251625,14.4762375 L11.249625,15.5267625 C11.049525,15.7268625 10.7243625,15.7268625 10.549275,15.5267625 L9.49875,14.451225 L9.49875,14.451225 L7.047525,11.9249625 C6.847425,11.7248625 6.847425,11.3997 7.047525,11.2246125 L7.7728875,10.5242625 C7.9729875,10.3241625 8.29815,10.3241625 8.4732375,10.5242625 L10.9244625,13.0255125 L15.5767875,8.448225 C15.7768875,8.248125 16.10205,8.248125 16.2771375,8.448225 L16.9774875,9.1735875 C17.152575,9.3987 17.152575,9.69885 16.952475,9.89895 Z"/>
</svg>
