<svg xmlns="http://www.w3.org/2000/svg" width="24" height="24" viewBox="0 0 24 24">
  <path fill="#526075" fill-rule="evenodd" d="M21.0045,5.997 L10.9995,5.997 L10.1991,3.2206125 C10.0740375,2.7954 9.69885,2.49525 9.248625,2.49525 L2.9955,2.49525 C2.445225,2.49525 1.995,2.945475 1.995,3.49575 L1.995,20.50425 C1.995,21.054525 2.445225,21.50475 2.9955,21.50475 L21.0045,21.50475 C21.554775,21.50475 22.005,21.054525 22.005,20.50425 L22.005,6.9975 C22.005,6.447225 21.554775,5.997 21.0045,5.997 Z M5.246625,6.747375 C4.546275,6.747375 3.996,6.1971 3.996,5.49675 C3.996,4.7964 4.546275,4.246125 5.246625,4.246125 C5.946975,4.246125 6.49725,4.7964 6.49725,5.49675 C6.49725,6.1971 5.946975,6.747375 5.246625,6.747375 Z M17.6278125,14.3761875 L15.1265625,16.8774375 C14.9264625,17.0775375 14.5762875,17.0775375 14.3761875,16.8774375 L14.001,16.50225 C13.8009,16.30215 13.8009,15.951975 14.001,15.751875 L14.70135,15.051525 L6.747375,15.051525 C6.447225,15.051525 6.2221125,14.8264125 6.2221125,14.5262625 L6.2221125,13.4757375 C6.2221125,13.1755875 6.447225,12.950475 6.747375,12.950475 L14.70135,12.950475 L14.001,12.250125 C13.8009,12.050025 13.8009,11.69985 14.001,11.49975 L14.3761875,11.1245625 C14.5762875,10.9244625 14.9264625,10.9244625 15.1265625,11.1245625 L17.6278125,13.6258125 C17.8279125,13.8259125 17.8279125,14.1760875 17.6278125,14.3761875 Z"/>
</svg>
