<svg xmlns="http://www.w3.org/2000/svg" width="24" height="24" viewBox="0 0 24 24">
  <path fill="#526075" fill-rule="evenodd" d="M8.9985,10.0234024 L9.97459756,12.8540854 C10.1454146,13.2933293 10.5602561,13.5861585 11.0239024,13.5861585 L11.0239024,13.5861585 L13.5373537,13.5861585 L14.5378537,15.4407439 C14.7086707,15.7579756 15.0259024,15.9775976 15.391939,16.002 L15.391939,16.002 L15.4895488,16.002 C15.8311829,16.002 16.1240122,15.8555854 16.3436341,15.5871585 L16.3436341,15.5871585 L17.9053902,13.6593659 L17.9053902,13.6837683 L20.1992195,13.6837683 C19.3451341,16.1972195 17.612561,18.4178415 15.2455244,19.9063902 L15.2455244,19.9063902 L12.5368537,21.614561 C12.1952195,21.8097805 11.780378,21.8097805 11.4631463,21.614561 L11.4631463,21.614561 L8.75447561,19.9063902 C6.33863415,18.393439 4.60606098,16.1484146 3.77637805,13.610561 L3.77637805,13.610561 L6.77787805,13.610561 C7.24152439,13.610561 7.63196341,13.3421341 7.80278049,12.9272927 L7.80278049,12.9272927 L8.9985,10.0234024 Z M12.0668808,2.2227561 L12.1952195,2.23902439 L20.004,3.75197561 C20.4676463,3.84958537 20.784878,4.24002439 20.784878,4.67926829 L20.784878,4.67926829 L20.784878,10.0722073 C20.784878,10.7310732 20.7116707,11.3655366 20.614061,11.9755976 L20.614061,11.9755976 L17.612561,11.9755976 C17.2709268,11.9755976 16.9780976,12.1220122 16.7584756,12.390439 L16.7584756,12.390439 L15.5871585,13.8301829 L14.8550854,12.4636463 C14.6598659,12.0976098 14.2938293,11.8779878 13.8789878,11.8779878 L13.8789878,11.8779878 L11.4631463,11.8779878 L10.0966098,7.92479268 C9.95019512,7.48554878 9.5597561,7.21712195 9.09610976,7.19271951 C8.63246341,7.16831707 8.21762195,7.46114634 8.04680488,7.8759878 L8.04680488,7.8759878 L6.38743902,11.8779878 L3.36153659,11.8779878 C3.26392683,11.2923293 3.21512195,10.6822683 3.21512195,10.0722073 L3.21512195,10.0722073 L3.21512195,4.67926829 C3.21512195,4.24002439 3.53235366,3.84958537 3.996,3.75197561 L3.996,3.75197561 L11.8047805,2.23902439 C11.9267927,2.21462195 12.0732073,2.21462195 12.1952195,2.23902439 Z"/>
</svg>
