<svg xmlns="http://www.w3.org/2000/svg" width="24" height="24" viewBox="0 0 24 24">
  <path fill="#526075" fill-rule="evenodd" d="M12.0685528,2.0033375 L12.2001,2.0200125 L20.2041,3.5707875 C20.6793375,3.645825 21.0045,4.046025 21.0045,4.49625 L21.0045,4.49625 L21.0045,10.0240125 C21.0045,14.0760375 18.8784375,17.8779375 15.3266625,20.10405 L15.3266625,20.10405 L12.550275,21.854925 C12.2001,22.055025 11.7748875,22.055025 11.449725,21.854925 L11.449725,21.854925 L8.6733375,20.10405 C5.1215625,17.8779375 2.9955,14.10105 2.9955,10.0240125 L2.9955,10.0240125 L2.9955,4.49625 C2.9955,4.046025 3.3206625,3.645825 3.7959,3.5707875 L3.7959,3.5707875 L11.7999,2.0200125 C11.9249625,1.995 12.0750375,1.995 12.2001,2.0200125 Z M12.2751375,6.3721875 C12.1250625,6.29715 11.949975,6.29715 11.7999,6.3721875 L11.7999,6.3721875 L7.4727375,8.69835 C6.9975,8.948475 7.1725875,9.648825 7.69785,9.648825 L7.69785,9.648825 L8.89845,9.648825 L8.89845,13.90095 L8.0730375,13.90095 C7.7979,13.90095 7.5727875,14.1260625 7.5727875,14.4012 L7.5727875,14.4012 L7.5727875,15.151575 C7.5727875,15.4267125 7.7979,15.651825 8.0730375,15.651825 L8.0730375,15.651825 L15.8269125,15.651825 C16.10205,15.651825 16.3271625,15.4267125 16.3271625,15.151575 L16.3271625,15.151575 L16.3271625,14.4012 C16.3271625,14.1260625 16.10205,13.90095 15.8269125,13.90095 L15.8269125,13.90095 L15.1265625,13.90095 L15.1265625,9.648825 L16.3271625,9.648825 C16.852425,9.648825 17.0275125,8.9734875 16.6023,8.69835 L16.6023,8.69835 Z M13.3756875,9.648825 L13.3756875,13.90095 L10.6243125,13.90095 L10.6243125,9.648825 L13.3756875,9.648825 Z"/>
</svg>
