<svg xmlns="http://www.w3.org/2000/svg" width="24" height="24" viewBox="0 0 24 24">
  <path fill="#526075" fill-rule="evenodd" d="M13.3570836,13.005 L13.3570836,15.1202123 C13.3570836,15.7023503 13.8289997,16.1742663 14.4111377,16.1742663 C14.9544665,16.1742663 15.4017797,15.763175 15.4590067,15.2350631 L15.4651917,15.1202123 L15.4651917,13.005 L17.3570836,13.005 L17.3570836,15.1202123 C17.3570836,15.7023503 17.8289997,16.1742663 18.4111377,16.1742663 C18.9544665,16.1742663 19.4017797,15.763175 19.4590067,15.2350631 L19.4651917,15.1202123 L19.4651917,13.005 L21.1373439,13.005 C21.5774033,13.005 21.9207463,13.3139365 21.9888198,13.7357537 L22,13.8434463 L22,19.6672486 C22,20.1065177 21.6711644,20.4492442 21.2634678,20.4993721 L21.1600454,20.5056949 L2.8399546,20.5056949 C2.39989522,20.5056949 2.0565522,20.1774498 2.00633409,19.7704853 L2,19.6672486 L2,13.8434463 C2,13.4041771 2.32883558,13.0614506 2.73653217,13.0113227 L2.8399546,13.005 L13.3570836,13.005 Z M6.70506833,15.1919889 C5.86000965,15.1919889 5.14170978,15.8680358 5.14170978,16.7553474 C5.14170978,17.6004061 5.81775672,18.318706 6.70506833,18.318706 C7.55012701,18.318706 8.26842689,17.642659 8.26842689,16.7553474 C8.26842689,15.8680358 7.55012701,15.1919889 6.70506833,15.1919889 Z M13.3570836,3 L13.3570836,5.11521229 C13.3570836,5.69735027 13.8289997,6.16926634 14.4111377,6.16926634 C14.9544665,6.16926634 15.4017797,5.75817501 15.4590067,5.23006309 L15.4651917,5.11521229 L15.4651917,3 L17.3570836,3 L17.3570836,5.11521229 C17.3570836,5.69735027 17.8289997,6.16926634 18.4111377,6.16926634 C18.9544665,6.16926634 19.4017797,5.75817501 19.4590067,5.23006309 L19.4651917,5.11521229 L19.4651917,3 L21.1373439,3 C21.5774033,3 21.9207463,3.30893654 21.9888198,3.73075373 L22,3.83844625 L22,9.6622486 C22,10.1015177 21.6711644,10.4442442 21.2634678,10.4943721 L21.1600454,10.5006949 L2.8399546,10.5006949 C2.39989522,10.5006949 2.0565522,10.1724498 2.00633409,9.7654853 L2,9.6622486 L2,3.83844625 C2,3.39917711 2.32883558,3.05645064 2.73653217,3.00632272 L2.8399546,3 L13.3570836,3 Z M6.70506833,5.18698887 C5.86000965,5.18698887 5.14170978,5.86303581 5.14170978,6.75034743 C5.14170978,7.5954061 5.81775672,8.31370598 6.70506833,8.31370598 C7.55012701,8.31370598 8.26842689,7.63765904 8.26842689,6.75034743 C8.26842689,5.86303581 7.55012701,5.18698887 6.70506833,5.18698887 Z"/>
</svg>
