<svg xmlns="http://www.w3.org/2000/svg" width="24" height="24" viewBox="0 0 24 24">
  <path fill="#526075" fill-rule="evenodd" d="M18.0257386,6.54272727 C16.8433295,6.54272727 15.8655682,7.52048864 15.8655682,8.70289773 C15.8655682,9.15767045 16.002,9.58970455 16.2748636,9.95352273 L14.50125,12.1364318 C14.251125,12.0454773 14.001,12 13.7281364,12 C13.250625,12 12.7958523,12.1591705 12.4320341,12.4320341 L10.8630682,11.4087955 C10.8630682,11.3405795 10.8630682,11.2723636 10.8630682,11.2041477 C10.8630682,10.1354318 9.999,9.27136364 8.93028409,9.27136364 C7.86156818,9.27136364 6.9975,10.1354318 6.9975,11.2041477 C6.9975,11.5679659 7.08845455,11.8863068 7.27036364,12.1819091 L5.61044318,14.1146932 C5.45127273,14.0692159 5.31484091,14.0464773 5.17840909,14.0464773 C4.29160227,14.0464773 3.58670455,14.751375 3.58670455,15.6381818 C3.58670455,16.5249886 4.29160227,17.2298864 5.17840909,17.2298864 C6.06521591,17.2298864 6.77011364,16.5249886 6.77011364,15.6381818 C6.77011364,15.4562727 6.747375,15.2971023 6.67915909,15.1379318 L8.45277273,13.0914545 C8.58920455,13.1369318 8.748375,13.1369318 8.90754545,13.1369318 C9.36231818,13.1369318 9.77161364,12.9777614 10.0899545,12.7276364 L11.5679659,13.7053977 C11.5452273,13.8418295 11.5224886,14.001 11.5224886,14.1601705 C11.5224886,15.3425795 12.50025,16.3203409 13.6826591,16.3203409 C14.8650682,16.3203409 15.8428295,15.3425795 15.8428295,14.1601705 C15.8428295,13.7963523 15.751875,13.4552727 15.5927045,13.1369318 L17.50275,10.7948523 C17.6619205,10.8403295 17.8438295,10.8630682 18.003,10.8630682 C19.1854091,10.8630682 20.1631705,9.88530682 20.1631705,8.70289773 C20.1859091,7.52048864 19.2081477,6.54272727 18.0257386,6.54272727 Z M12,1.995 C17.5254886,1.995 22.005,6.47451136 22.005,12 C22.005,17.5254886 17.5254886,22.005 12,22.005 C6.47451136,22.005 1.995,17.5254886 1.995,12 C1.995,6.47451136 6.47451136,1.995 12,1.995 Z"/>
</svg>
