<svg xmlns="http://www.w3.org/2000/svg" width="24" height="24" viewBox="0 0 24 24">
  <path fill="#526075" fill-rule="evenodd" d="M19.2763636,1.995 L4.72363636,1.995 C4.22338636,1.995 3.81409091,2.40429545 3.81409091,2.90454545 L3.81409091,21.0954545 C3.81409091,21.5957045 4.22338636,22.005 4.72363636,22.005 L19.2763636,22.005 C19.7766136,22.005 20.1859091,21.5957045 20.1859091,21.0954545 L20.1859091,2.90454545 C20.1859091,2.40429545 19.7766136,1.995 19.2763636,1.995 Z M11.1586705,6.56546591 L12,4.86006818 L12.8413295,6.56546591 L14.7286364,6.83832955 L13.3643182,8.15717045 L13.6826591,10.0444773 L12,9.15767045 L10.3173409,10.0444773 L10.6356818,8.15717045 L9.27136364,6.83832955 L11.1586705,6.56546591 Z M14.2738636,17.6846591 C14.2738636,17.9347841 14.0692159,18.1394318 13.8190909,18.1394318 L7.56596591,18.1394318 C7.31584091,18.1394318 7.11119318,17.9347841 7.11119318,17.6846591 L7.11119318,17.0025 C7.11119318,16.752375 7.31584091,16.5477273 7.56596591,16.5477273 L13.8190909,16.5477273 C14.0692159,16.5477273 14.2738636,16.752375 14.2738636,17.0025 L14.2738636,17.6846591 Z M17.0025,14.0464773 C17.0025,14.2966023 16.7978523,14.50125 16.5477273,14.50125 L7.67965909,14.50125 C7.42953409,14.50125 7.22488636,14.2966023 7.22488636,14.0464773 L7.22488636,13.3643182 C7.22488636,13.1141932 7.42953409,12.9095455 7.67965909,12.9095455 L16.5477273,12.9095455 C16.7978523,12.9095455 17.0025,13.1141932 17.0025,13.3643182 L17.0025,14.0464773 Z"/>
</svg>
