<svg xmlns="http://www.w3.org/2000/svg" width="24" height="24" viewBox="0 0 24 24">
  <path fill="#526075" fill-rule="evenodd" d="M16.9274625,12 C19.6788375,12 21.9299625,14.251125 21.9299625,17.0025 C21.9299625,19.7788875 19.70385,22.005 16.9274625,22.005 C14.151075,22.005 11.9249625,19.753875 11.9249625,17.0025 C11.9249625,14.2261125 14.1760875,12 16.9274625,12 Z M1.995,14.751375 C3.996,15.7768875 7.047525,16.352175 10.1991,16.50225 C10.1740875,16.6773375 10.1740875,16.8274125 10.1740875,17.0025 C10.1740875,18.8796881 10.9415961,20.576286 12.1763819,21.7920623 L12.3751875,21.9799875 L12,21.9799875 C5.63223437,21.9799875 2.31007716,20.3972304 2.01004681,19.7442431 L1.995,19.70385 L1.995,14.751375 Z M16.752375,13.750875 C16.2021,13.750875 15.751875,14.2011 15.751875,14.751375 L15.751875,14.751375 L15.751875,17.50275 C15.751875,17.7778875 15.851925,18.0280125 16.052025,18.2031 L17.30265,19.453725 C17.50275,19.653825 17.752875,19.753875 18.003,19.753875 C18.253125,19.753875 18.50325,19.653825 18.70335,19.453725 C19.10355,19.053525 19.10355,18.4282125 18.70335,18.053025 L18.70335,18.053025 L17.752875,17.10255 L17.752875,14.751375 C17.752875,14.2011 17.30265,13.750875 16.752375,13.750875 Z M22.005,7.2726375 L22.005,12.2001 C21.9799875,12.250125 21.9299625,12.3251625 21.854925,12.4002 C20.6293125,11.0745375 18.8784375,10.249125 16.9274625,10.249125 C14.10105,10.249125 11.6748375,12 10.6743375,14.4762375 C5.17442983,14.2806852 2.27836734,12.8668201 2.00949559,12.2657064 L1.995,12.2251125 L1.995,7.2726375 C4.3711875,8.4732375 8.2731375,9.048525 12,9.048525 C15.7268625,9.048525 19.653825,8.49825 22.005,7.2726375 Z M12,1.995 C17.5256089,1.995 22.005,3.08125234 22.005,4.4212125 C22.005,5.76117266 17.5256089,6.847425 12,6.847425 C6.47439108,6.847425 1.995,5.76117266 1.995,4.4212125 C1.995,3.08125234 6.47439108,1.995 12,1.995 Z"/>
</svg>
