<svg xmlns="http://www.w3.org/2000/svg" width="24" height="24" viewBox="0 0 24 24">
  <path fill="#526075" fill-rule="evenodd" d="M12.0685528,2.0033375 L12.2001,2.0200125 L20.2041,3.5707875 C20.6793375,3.645825 21.0045,4.046025 21.0045,4.49625 L21.0045,4.49625 L21.0045,10.0240125 C21.0045,14.0760375 18.8784375,17.8779375 15.3266625,20.10405 L15.3266625,20.10405 L12.550275,21.854925 C12.2001,22.055025 11.7748875,22.055025 11.449725,21.854925 L11.449725,21.854925 L8.6733375,20.10405 C5.1215625,17.8779375 2.9955,14.10105 2.9955,10.0240125 L2.9955,10.0240125 L2.9955,4.49625 C2.9955,4.046025 3.3206625,3.645825 3.7959,3.5707875 L3.7959,3.5707875 L11.7999,2.0200125 C11.9249625,1.995 12.0750375,1.995 12.2001,2.0200125 Z M12.650325,6.5222625 C11.69985,6.2721375 10.6743375,6.4222125 9.8239125,6.9224625 C8.948475,7.4227125 8.348175,8.2231125 8.09805,9.1986 C7.847925,10.149075 7.998,11.1745875 8.49825,12.0250125 C8.9985,12.90045 9.7989,13.50075 10.7743875,13.750875 C11.09955,13.8259125 11.3997,13.8759375 11.7248625,13.8759375 C12.0750375,13.8759375 12.450225,13.8009 12.8004,13.70085 L12.8004,13.70085 L14.451225,16.4772375 C14.5762875,16.70235 14.8764375,16.8024 15.1265625,16.652325 L15.1265625,16.652325 L15.7768875,16.2771375 C16.0270125,16.152075 16.10205,15.8269125 15.951975,15.6018 L15.951975,15.6018 L14.30115,12.8254125 C15.5267625,11.649825 15.8269125,9.7738875 14.9264625,8.248125 C14.4262125,7.3726875 13.6258125,6.7723875 12.650325,6.5222625 Z M11.7248625,8.1230625 C11.89995,8.1230625 12.050025,8.148075 12.2251125,8.1981 C12.7253625,8.348175 13.150575,8.6733375 13.450725,9.09855 C14.001,10.049025 13.70085,11.2746375 12.750375,11.8249125 C12.30015,12.10005 11.7748875,12.1750875 11.249625,12.050025 C10.7243625,11.89995 10.29915,11.5747875 10.0240125,11.1245625 C9.748875,10.6743375 9.6738375,10.149075 9.7989,9.6238125 C9.948975,9.09855 10.2741375,8.6733375 10.7243625,8.3982 C11.0245125,8.2231125 11.3746875,8.1230625 11.7248625,8.1230625 Z"/>
</svg>
