<svg xmlns="http://www.w3.org/2000/svg" width="24" height="24" viewBox="0 0 24 24">
  <path fill="#526075" fill-rule="evenodd" d="M15.50175,4.9965 L8.49825,4.9965 L8.49825,6.9975 L15.50175,6.9975 L15.50175,4.9965 Z M10.1240625,11.3997 C9.848925,11.3997 9.6238125,11.6248125 9.6238125,11.89995 L9.6238125,16.352175 C9.6238125,16.4272125 9.648825,16.50225 9.6738375,16.552275 C9.7738875,16.8024 10.0740375,16.9274625 10.3241625,16.8024 L15.351675,14.5762875 C15.4767375,14.5262625 15.551775,14.4262125 15.6018,14.3261625 C15.70185,14.0760375 15.6018,13.7758875 15.351675,13.6758375 L10.3241625,11.449725 C10.2741375,11.3997 10.1991,11.3997 10.1240625,11.3997 Z M15.851925,2.9955 C16.6773375,2.9955 17.452725,3.5707875 17.50275,4.4212125 L17.50275,4.4712375 L17.50275,6.9975 L20.50425,6.9975 C21.3296625,6.9975 22.005,7.6728375 22.005,8.49825 L22.005,19.50375 C22.005,20.3291625 21.3296625,21.0045 20.50425,21.0045 L3.49575,21.0045 C2.6703375,21.0045 1.995,20.3291625 1.995,19.50375 L1.995,8.49825 C1.995,7.6728375 2.6703375,6.9975 3.49575,6.9975 L6.49725,6.9975 L6.49725,4.4712375 C6.49725,3.5958 7.247625,3.0205125 8.0730375,2.9955 L8.1230625,2.9955 L15.851925,2.9955 Z"/>
</svg>
