<svg xmlns="http://www.w3.org/2000/svg" width="24" height="24" viewBox="0 0 24 24">
  <path fill="#526075" fill-rule="evenodd" d="M18.2076477,8.43003409 C17.8665682,5.06471591 15.0242386,2.42703409 11.5452273,2.42703409 C7.86156818,2.42703409 4.86006818,5.42853409 4.86006818,9.11219318 C4.86006818,9.33957955 4.88280682,9.58970455 4.90554545,9.81709091 C3.15467045,10.9540227 1.995,12.9322841 1.995,15.1834091 C1.995,18.7078977 4.86006818,21.5729659 8.38455682,21.5729659 C9.56696591,21.5729659 13.8190909,21.5729659 15.0469773,21.5729659 C18.8898068,21.5729659 22.005,18.4577727 22.005,14.6149432 C22.005,11.9317841 20.4587727,9.58970455 18.2076477,8.43003409 Z M16.252125,17.1844091 C15.5927045,17.1844091 15.0242386,16.8205909 14.751375,16.2748636 L9.70339773,16.2748636 C9.40779545,16.8205909 8.83932955,17.1844091 8.20264773,17.1844091 C7.27036364,17.1844091 6.49725,16.4112955 6.49725,15.4790114 C6.49725,14.5694659 7.22488636,13.8190909 8.11169318,13.7736136 L10.1809091,9.49875 C9.97626136,9.22588636 9.83982955,8.86206818 9.83982955,8.49825 C9.83982955,7.56596591 10.6129432,6.79285227 11.5452273,6.79285227 C12.4775114,6.79285227 13.250625,7.56596591 13.250625,8.49825 C13.250625,9.40779545 12.5229886,10.1581705 11.6134432,10.2036477 L9.56696591,14.4785114 C9.61244318,14.5467273 9.68065909,14.6376818 9.72613636,14.7058977 L14.7741136,14.7058977 C15.0697159,14.1601705 15.6381818,13.7963523 16.2748636,13.7963523 C17.2071477,13.7963523 17.9802614,14.5694659 17.9802614,15.50175 C17.9575227,16.4340341 17.2071477,17.1844091 16.252125,17.1844091 Z"/>
</svg>
