<?xml version="1.0" encoding="utf-8"?>
<!-- Generator: Adobe Illustrator 17.0.0, SVG Export Plug-In . SVG Version: 6.00 Build 0)  -->
<!DOCTYPE svg PUBLIC "-//W3C//DTD SVG 1.1//EN" "http://www.w3.org/Graphics/SVG/1.1/DTD/svg11.dtd">
<svg version="1.1" id="Layer_1" xmlns="http://www.w3.org/2000/svg" xmlns:xlink="http://www.w3.org/1999/xlink" x="0px" y="0px"
	 width="96px" height="96px" viewBox="0 0 96 96" enable-background="new 0 0 96 96" xml:space="preserve">
<path d="M12,28h72c2.2,0,4-1.8,4-4s-1.8-4-4-4H12c-2.2,0-4,1.8-4,4S9.8,28,12,28z M12,44h56c2.2,0,4-1.8,4-4s-1.8-4-4-4H12
	c-2.2,0-4,1.8-4,4S9.8,44,12,44z M84,52H12c-2.2,0-4,1.8-4,4s1.8,4,4,4h72c2.2,0,4-1.8,4-4S86.2,52,84,52z M68,68H12
	c-2.2,0-4,1.8-4,4s1.8,4,4,4h56c2.2,0,4-1.8,4-4S70.2,68,68,68z"/>
</svg>
