<?xml version="1.0" encoding="utf-8"?>
<!-- Generator: Adobe Illustrator 17.0.0, SVG Export Plug-In . SVG Version: 6.00 Build 0)  -->
<!DOCTYPE svg PUBLIC "-//W3C//DTD SVG 1.1//EN" "http://www.w3.org/Graphics/SVG/1.1/DTD/svg11.dtd">
<svg version="1.1" id="Layer_1" xmlns="http://www.w3.org/2000/svg" xmlns:xlink="http://www.w3.org/1999/xlink" x="0px" y="0px"
	 width="96px" height="96px" viewBox="0 0 96 96" enable-background="new 0 0 96 96" xml:space="preserve">
<path d="M88,24c0-2.2-1.8-4-4-4H12c-2.2,0-4,1.8-4,4s1.8,4,4,4h72C86.2,28,88,26.2,88,24z M88,40c0-2.2-1.8-4-4-4H28
	c-2.2,0-4,1.8-4,4s1.8,4,4,4h56C86.2,44,88,42.2,88,40z M8,56c0,2.2,1.8,4,4,4h72c2.2,0,4-1.8,4-4s-1.8-4-4-4H12C9.8,52,8,53.8,8,56
	z M24,72c0,2.2,1.8,4,4,4h56c2.2,0,4-1.8,4-4s-1.8-4-4-4H28C25.8,68,24,69.8,24,72z"/>
</svg>
