<?xml version="1.0" encoding="utf-8"?>
<!-- Generator: Adobe Illustrator 17.0.0, SVG Export Plug-In . SVG Version: 6.00 Build 0)  -->
<!DOCTYPE svg PUBLIC "-//W3C//DTD SVG 1.1//EN" "http://www.w3.org/Graphics/SVG/1.1/DTD/svg11.dtd">
<svg version="1.1" id="Layer_1" xmlns="http://www.w3.org/2000/svg" xmlns:xlink="http://www.w3.org/1999/xlink" x="0px" y="0px"
	 width="96px" height="96px" viewBox="0 0 96 96" enable-background="new 0 0 96 96" xml:space="preserve">
<path d="M84,80H64c-1.4,0-2.8-0.8-3.5-2L29.7,24H12c-2.2,0-4-1.8-4-4s1.8-4,4-4h20c1.4,0,2.8,0.8,3.5,2l30.8,54H84c2.2,0,4,1.8,4,4
	S86.2,80,84,80z M80,20c0-2.2-1.8-4-4-4H56c-2.2,0-4,1.8-4,4s1.8,4,4,4h20C78.2,24,80,22.2,80,20z"/>
</svg>
