<?xml version="1.0" encoding="utf-8"?>
<!-- Generator: Adobe Illustrator 17.0.0, SVG Export Plug-In . SVG Version: 6.00 Build 0)  -->
<!DOCTYPE svg PUBLIC "-//W3C//DTD SVG 1.1//EN" "http://www.w3.org/Graphics/SVG/1.1/DTD/svg11.dtd">
<svg version="1.1" id="Layer_1" xmlns="http://www.w3.org/2000/svg" xmlns:xlink="http://www.w3.org/1999/xlink" x="0px" y="0px"
	 width="96px" height="96px" viewBox="0 0 96 96" enable-background="new 0 0 96 96" xml:space="preserve">
<path d="M88,44c-2.2,0-4,1.8-4,4c0,18.5-14,33.8-32,35.8V35.5c6.9-1.8,12-8,12-15.5c0-8.8-7.2-16-16-16s-16,7.2-16,16
	c0,7.5,5.1,13.7,12,15.5v48.3c-18-2-32-17.2-32-35.8c0-2.2-1.8-4-4-4c-2.2,0-4,1.8-4,4c0,24.3,19.7,44,44,44c24.3,0,44-19.7,44-44
	C92,45.8,90.2,44,88,44z M40,20c0-4.4,3.6-8,8-8s8,3.6,8,8s-3.6,8-8,8S40,24.4,40,20z"/>
</svg>
