<?xml version="1.0" encoding="utf-8"?>
<!-- Generator: Adobe Illustrator 22.1.0, SVG Export Plug-In . SVG Version: 6.00 Build 0)  -->
<svg version="1.1" id="Layer_1" xmlns="http://www.w3.org/2000/svg" xmlns:xlink="http://www.w3.org/1999/xlink" x="0px" y="0px"
	 viewBox="0 0 96 96" style="enable-background:new 0 0 96 96;" xml:space="preserve">
<g>
	<path d="M16.1,32.5c-3,0-5.4,2.4-5.4,5.4v22.7c0,3,2.4,5.4,5.4,5.4c3,0,5.4-2.4,5.4-5.4V37.9C21.6,34.9,19.1,32.5,16.1,32.5z"/>
	<path d="M23.7,68.7c0,3.2,2.6,5.8,5.8,5.8h4v12c0,3,2.4,5.4,5.4,5.4c3,0,5.4-2.4,5.4-5.4v-12h7.3v12c0,3,2.4,5.4,5.4,5.4
		c3,0,5.4-2.4,5.4-5.4v-12h4c3.2,0,5.8-2.6,5.8-5.8V33.5H23.7V68.7z"/>
	<path d="M60,12L60,12l3.8-6.9c0.2-0.4,0.1-0.8-0.3-1c-0.4-0.2-0.8-0.1-1,0.3l-3.8,7C55.4,9.9,51.8,9.1,48,9.1s-7.4,0.8-10.6,2.2
		l-3.8-7c-0.2-0.4-0.7-0.5-1-0.3c-0.4,0.2-0.5,0.7-0.3,1L36,12c-7.5,3.9-12.5,11.2-12.5,19.6h49C72.5,23.2,67.5,15.9,60,12z
		 M36.8,22.7c-1.1,0-2.1-0.9-2.1-2.1s0.9-2.1,2.1-2.1s2.1,0.9,2.1,2.1C38.9,21.8,38,22.7,36.8,22.7z M59.2,22.7
		c-1.1,0-2.1-0.9-2.1-2.1s0.9-2.1,2.1-2.1s2.1,0.9,2.1,2.1C61.2,21.8,60.3,22.7,59.2,22.7z"/>
	<path d="M79.9,32.5c-3,0-5.4,2.4-5.4,5.4v22.7c0,3,2.4,5.4,5.4,5.4c3,0,5.4-2.4,5.4-5.4V37.9C85.3,34.9,82.9,32.5,79.9,32.5z"/>
</g>
</svg>
