<?xml version="1.0" encoding="utf-8"?>
<!-- Generator: Adobe Illustrator 17.0.0, SVG Export Plug-In . SVG Version: 6.00 Build 0)  -->
<!DOCTYPE svg PUBLIC "-//W3C//DTD SVG 1.1//EN" "http://www.w3.org/Graphics/SVG/1.1/DTD/svg11.dtd">
<svg version="1.1" id="Layer_1" xmlns="http://www.w3.org/2000/svg" xmlns:xlink="http://www.w3.org/1999/xlink" x="0px" y="0px"
	 width="96px" height="96px" viewBox="0 0 96 96" enable-background="new 0 0 96 96" xml:space="preserve">
<g>
	<path d="M51.842,51.981L51.275,30.61C53.504,29.248,55,26.799,55,24c0-4.273-3.477-7.75-7.75-7.75S39.5,19.727,39.5,24
		c0,2.818,1.517,5.282,3.772,6.639l0.729,27.468c0.04,1.502,0.918,2.854,2.274,3.503c1.356,0.646,2.96,0.48,4.154-0.432
		c4.587-3.507,7.839,0.01,8.194,0.424c2.268,2.633,1.436,5.615-0.1,7.528c-1.677,2.087-4.943,3.826-8.633,1.846
		c-1.949-1.046-4.372-0.313-5.416,1.633c-1.045,1.947-0.313,4.372,1.633,5.416c2.252,1.209,4.663,1.793,7.042,1.793
		c4.374,0,8.64-1.977,11.613-5.682c4.389-5.469,4.356-12.604-0.079-17.755C61.31,52.46,56.749,50.899,51.842,51.981z M47.25,23.75
		c0.138,0,0.25,0.112,0.25,0.25c0,0.275-0.5,0.275-0.5,0C47,23.862,47.112,23.75,47.25,23.75z"/>
	<path d="M53.656,48.001c0.044-0.043,0.059-0.058,0.074-0.073C53.699,47.958,53.656,48.001,53.656,48.001z"/>
	<path d="M79.112,16.887c-17.156-17.155-45.069-17.155-62.225,0c-17.156,17.156-17.156,45.07,0,62.225
		c17.156,17.155,45.07,17.156,62.225,0C96.267,61.956,96.268,34.042,79.112,16.887z M73.456,73.456
		c-13.08,13.08-33.801,13.965-47.922,2.668L41.5,59.157V47.843L41.343,48L19.877,70.467C8.579,56.345,9.464,35.624,22.544,22.544
		s33.801-13.965,47.922-2.668L53.625,37.718l0.031,10.283l22.467-22.467C87.421,39.655,86.536,60.376,73.456,73.456z"/>
	<path d="M53.73,47.928C53.757,47.901,53.761,47.897,53.73,47.928L53.73,47.928z"/>
</g>
</svg>
