<?xml version="1.0" encoding="utf-8"?>
<!-- Generator: Adobe Illustrator 22.1.0, SVG Export Plug-In . SVG Version: 6.00 Build 0)  -->
<svg version="1.1" id="Layer_1" xmlns="http://www.w3.org/2000/svg" xmlns:xlink="http://www.w3.org/1999/xlink" x="0px" y="0px"
	 viewBox="0 0 96 96" style="enable-background:new 0 0 96 96;" xml:space="preserve">
<path d="M32,54.9c2.6-1.9,5.3-3.4,8.3-4.6c3-1.1,5.8-2,8.4-2.6c2.7-0.6,5-1,7-1.2c2-0.2,3.4-0.4,4.1-0.4l-6.4-16.9
	c-0.3-0.7-0.7-1.4-1.1-2c-0.4-0.5-1-1-1.7-1.4c-0.7-0.4-1.6-0.6-2.6-0.6c-1,0-1.9,0.2-2.5,0.6c-0.7,0.4-1.2,0.9-1.7,1.4
	c-0.5,0.6-0.9,1.3-1.2,2L32,54.9z M74.9,85.6L64,57.2c-0.4,0-1.5,0-3.3,0.1c-1.7,0.1-3.9,0.4-6.4,0.9s-5.4,1.3-8.5,2.5
	c-3.1,1.1-6.2,2.8-9.4,4.9c-3.1,2.1-6.1,4.8-9,8s-5.4,7.2-7.5,12H7l25-62.6c0.9-2.3,2.1-4.4,3.5-6.2c1.3-1.5,2.9-3,4.9-4.3
	c2-1.3,4.5-2,7.5-2c3,0,5.5,0.7,7.5,2c2.1,1.3,3.7,2.8,5,4.3c1.5,1.8,2.7,3.9,3.5,6.2l25,62.6L74.9,85.6L74.9,85.6z"/>
</svg>
