<?xml version="1.0" encoding="utf-8"?>
<!-- Generator: Adobe Illustrator 17.0.0, SVG Export Plug-In . SVG Version: 6.00 Build 0)  -->
<!DOCTYPE svg PUBLIC "-//W3C//DTD SVG 1.1//EN" "http://www.w3.org/Graphics/SVG/1.1/DTD/svg11.dtd">
<svg version="1.1" id="Layer_1" xmlns="http://www.w3.org/2000/svg" xmlns:xlink="http://www.w3.org/1999/xlink" x="0px" y="0px"
	 width="96px" height="96px" viewBox="0 0 96 96" enable-background="new 0 0 96 96" xml:space="preserve">
<g>
	<path d="M80,4H16C9.383,4,4,9.383,4,16v64c0,6.617,5.383,12,12,12h64c6.617,0,12-5.383,12-12V16C92,9.383,86.617,4,80,4z M84,80
		c0,2.206-1.794,4-4,4H16c-2.206,0-4-1.794-4-4V16c0-2.206,1.794-4,4-4h64c2.206,0,4,1.794,4,4V80z"/>
	<path d="M32.35,39.692l0.349,1.265c0.536,1.939,0.801,3.632,1.059,5.268c0.791,5.035,1.417,9.01,8.922,14.177
		c2.044,1.408,3.949,3.325,4.576,3.954l1.111,1.111l1.009-0.993c0.691-0.677,2.556-2.429,4.929-4.037
		c6.701-4.539,9.648-18.969,9.771-19.581l0.239-1.197l-15.939-5.911L32.35,39.692z"/>
</g>
</svg>
