<?xml version="1.0" encoding="utf-8"?>
<!-- Generator: Adobe Illustrator 17.0.0, SVG Export Plug-In . SVG Version: 6.00 Build 0)  -->
<!DOCTYPE svg PUBLIC "-//W3C//DTD SVG 1.1//EN" "http://www.w3.org/Graphics/SVG/1.1/DTD/svg11.dtd">
<svg version="1.1" id="Layer_1" xmlns="http://www.w3.org/2000/svg" xmlns:xlink="http://www.w3.org/1999/xlink" x="0px" y="0px"
	 width="96px" height="96px" viewBox="0 0 96 96" enable-background="new 0 0 96 96" xml:space="preserve">
<path d="M90.866,70.678l-0.003-23.63l-2.733-0.666c-6.207-1.511-14.579-5.451-14.154-8.916c0.323-2.623,2.454-4.349,5.669-6.683
	c3.157-2.291,7.48-5.429,5.831-10.65C81.867,8.701,54.873,8.433,49.419,8.87c-4.085-0.056-11.939,0.557-18.97,1.766
	c-14.38,2.471-17.206,5.895-18.06,8.601c-1.649,5.221,2.674,8.36,5.831,10.651c3.216,2.334,5.347,4.06,5.669,6.682
	c0.425,3.466-7.946,7.405-14.149,8.916L7,46.149v25.949h0.04C7.023,72.296,7,72.493,7,72.695C7,83.05,28.814,87.767,49.082,87.767
	s42.082-4.716,42.082-15.072C91.165,71.996,91.057,71.326,90.866,70.678z M49.082,80.604c-21.381,0-33.582-5.125-34.817-7.611
	h-0.214V54.526h0.112v-2.849c5.779-1.816,17.967-6.769,16.836-15.98c-0.726-5.912-5.261-9.203-8.571-11.606
	c-1.101-0.799-2.719-1.974-3.15-2.632c3.018-2.913,22.327-5.741,30.595-5.413l0.001-0.028c13.086-1.215,27.574,3.024,28.762,6.254
	c-0.339,0.639-2.05,1.88-3.198,2.714c-3.31,2.403-7.845,5.694-8.571,11.607c-1.131,9.21,11.057,14.164,16.836,15.98v1.953v9.107
	v8.46v0.9h0.188C82.613,75.5,70.42,80.604,49.082,80.604z"/>
<path fill="none" stroke="#000000" stroke-width="6" stroke-linecap="round" stroke-miterlimit="10" d="M18,54.5c0,0,28,16.5,59,0"
	/>
</svg>
