<?xml version="1.0" encoding="utf-8"?>
<!-- Generator: Adobe Illustrator 17.0.0, SVG Export Plug-In . SVG Version: 6.00 Build 0)  -->
<!DOCTYPE svg PUBLIC "-//W3C//DTD SVG 1.1//EN" "http://www.w3.org/Graphics/SVG/1.1/DTD/svg11.dtd">
<svg version="1.1" id="Layer_1" xmlns="http://www.w3.org/2000/svg" xmlns:xlink="http://www.w3.org/1999/xlink" x="0px" y="0px"
	 width="96px" height="96px" viewBox="0 0 96 96" enable-background="new 0 0 96 96" xml:space="preserve">
<path d="M72,12H24L0,36v36c0,6.6,5.6,12,12.2,12H84c6.6,0,12-5.4,12-12V36.1L72,12z M27.3,20h41.5l15.9,16.1L64,36c0,8-7.2,16-16,16
	c-8.8,0-16-8-16-16H11.3L27.3,20z M88,72c0,2.2-1.8,4-4,4H12.2C9.9,76,8,74.2,8,72V44h17h0.2c3.5,9.1,12.6,16,22.6,16
	c10,0,19.1-6.9,22.6-16L88,44.1V72z"/>
</svg>
