<?xml version="1.0" encoding="utf-8"?>
<!-- Generator: Adobe Illustrator 17.0.0, SVG Export Plug-In . SVG Version: 6.00 Build 0)  -->
<!DOCTYPE svg PUBLIC "-//W3C//DTD SVG 1.1//EN" "http://www.w3.org/Graphics/SVG/1.1/DTD/svg11.dtd">
<svg version="1.1" id="Layer_1" xmlns="http://www.w3.org/2000/svg" xmlns:xlink="http://www.w3.org/1999/xlink" x="0px" y="0px"
	 width="96px" height="96px" viewBox="0 0 96 96" enable-background="new 0 0 96 96" xml:space="preserve">
<path d="M12,52h62.3L53.2,73.2c-1.6,1.6-1.6,4.1,0,5.7c1.6,1.6,4.1,1.6,5.7,0l28-28c1.6-1.6,1.6-4.1,0-5.7l-28-28
	C58,16.4,57,16,56,16c-1,0-2,0.4-2.8,1.2c-1.6,1.6-1.6,4.1,0,5.7L74.3,44H12c-2.2,0-4,1.8-4,4S9.8,52,12,52z"/>
</svg>
