<?xml version="1.0" encoding="utf-8"?>
<!-- Generator: Adobe Illustrator 17.0.0, SVG Export Plug-In . SVG Version: 6.00 Build 0)  -->
<!DOCTYPE svg PUBLIC "-//W3C//DTD SVG 1.1//EN" "http://www.w3.org/Graphics/SVG/1.1/DTD/svg11.dtd">
<svg version="1.1" id="Layer_1" xmlns="http://www.w3.org/2000/svg" xmlns:xlink="http://www.w3.org/1999/xlink" x="0px" y="0px"
	 width="96px" height="96px" viewBox="0 0 96 96" enable-background="new 0 0 96 96" xml:space="preserve">
<path d="M44,12v62.3L22.8,53.2c-1.6-1.6-4.1-1.6-5.7,0c-1.6,1.6-1.6,4.1,0,5.7l28,28c1.6,1.6,4.1,1.6,5.7,0l28-28
	C79.6,58,80,57,80,56c0-1-0.4-2-1.2-2.8c-1.6-1.6-4.1-1.6-5.7,0L52,74.3V12c0-2.2-1.8-4-4-4S44,9.8,44,12z"/>
</svg>
