<?xml version="1.0" encoding="utf-8"?>
<!-- Generator: Adobe Illustrator 21.0.0, SVG Export Plug-In . SVG Version: 6.00 Build 0)  -->
<svg version="1.1" id="Layer_1" xmlns="http://www.w3.org/2000/svg" xmlns:xlink="http://www.w3.org/1999/xlink" x="0px" y="0px"
	 viewBox="0 0 96 96" style="enable-background:new 0 0 96 96;" xml:space="preserve">
<g>
	<path d="M69.3,66.1c0,5.1-3.3,9.4-7.8,11v4.6h-7.8v-4.6c-4.5-1.6-7.8-5.9-7.8-11h7.8c0,2.2,1.8,3.9,3.9,3.9c2.2,0,3.9-1.8,3.9-3.9
		c0-2.2-1.8-3.9-3.9-3.9c-6.5,0-11.8-5.3-11.8-11.7c0-5.1,3.3-9.4,7.8-11v-4.6h7.8v4.6c4.5,1.6,7.8,5.9,7.8,11h-7.8
		c0-2.2-1.8-3.9-3.9-3.9c-2.2,0-3.9,1.8-3.9,3.9c0.1,2.2,1.9,3.9,4,3.9C64.1,54.4,69.3,59.7,69.3,66.1z"/>
	<path d="M88.2,19.8H27.1c-4.4,0-8,3.6-8,8v61.1c0,4.4,3.6,8,8,8h61.1c4.4,0,8-3.6,8-8V27.8C96.2,23.4,92.6,19.8,88.2,19.8z
		 M86.5,82.4c0.1,2.7-2.1,4.9-4.8,4.9H33.5c-2.7,0-4.8-2.2-4.8-4.8V34.2c0-2.7,2.2-4.8,4.8-4.8h48.2c2.7,0,4.8,2.2,4.8,4.8V82.4z"/>
	<path d="M67.2,10.2h-53c-2.6,0-4.8,2.1-4.8,4.8v53c0,2.6-2.1,4.8-4.8,4.8c-2.6,0-4.8-2.1-4.8-4.8V8.5c0-4.4,3.6-8,8-8h59.5
		c2.6,0,4.8,2.2,4.7,4.9C72,8,69.9,10.2,67.2,10.2z"/>
</g>
</svg>
