<?xml version="1.0" encoding="utf-8"?>
<!-- Generator: Adobe Illustrator 21.0.0, SVG Export Plug-In . SVG Version: 6.00 Build 0)  -->
<svg version="1.1" id="Layer_1" xmlns="http://www.w3.org/2000/svg" xmlns:xlink="http://www.w3.org/1999/xlink" x="0px" y="0px"
	 viewBox="0 0 96 96" style="enable-background:new 0 0 96 96;" xml:space="preserve">
<g>
	<path d="M49.3,48.9c10.4,0,18.9-9.4,18.9-20.9S59.7,7,49.3,7C38.9,7,30.4,16.4,30.4,28S38.9,48.9,49.3,48.9z M49.3,12.5
		c7.4,0,13.4,6.9,13.4,15.4s-6,15.4-13.4,15.4S35.9,36.5,35.9,28S41.9,12.5,49.3,12.5z"/>
	<path d="M60.6,52.8H38c-12.5,0-22.6,10.1-22.6,22.6c0,2.6,0.4,5.1,1.3,7.5l0.5,1.4l1.4,0.4c10.1,2.8,21,4.2,32.2,4.2
		c10,0,19.7-1.1,28.9-3.4l1.4-0.3l0.5-1.3c1.1-2.7,1.7-5.5,1.7-8.5C83.2,63,73,52.8,60.6,52.8z M76.9,80.5
		c-8.3,1.9-17.1,2.9-26.1,2.9c-10.2,0-20-1.2-29.3-3.6c-0.4-1.4-0.6-2.9-0.6-4.3c0-4.5,1.8-8.8,5-12.1c3.2-3.2,7.5-5,12.1-5h22.6
		c4.5,0,8.8,1.8,12.1,5c3.2,3.2,5,7.5,5,12.1C77.7,77.2,77.4,78.9,76.9,80.5z"/>
</g>
</svg>
