<?xml version="1.0" encoding="utf-8"?>
<!-- Generator: Adobe Illustrator 17.0.0, SVG Export Plug-In . SVG Version: 6.00 Build 0)  -->
<!DOCTYPE svg PUBLIC "-//W3C//DTD SVG 1.1//EN" "http://www.w3.org/Graphics/SVG/1.1/DTD/svg11.dtd">
<svg version="1.1" id="Layer_1" xmlns="http://www.w3.org/2000/svg" xmlns:xlink="http://www.w3.org/1999/xlink" x="0px" y="0px"
	 width="96px" height="96px" viewBox="0 0 96 96" enable-background="new 0 0 96 96" xml:space="preserve">
<path d="M16.887,16.887c-17.156,17.156-17.156,45.07,0,62.225s45.07,17.156,62.225,0s17.156-45.07,0-62.225
	S34.043-0.268,16.887,16.887z M22.544,22.544c13.08-13.08,33.801-13.965,47.922-2.668L48,42.343L42.343,48L19.877,70.467
	C8.579,56.345,9.464,35.624,22.544,22.544z M73.456,73.456c-13.08,13.08-33.801,13.965-47.922,2.668L48,53.657
	c2.828-2.828,1.266-1.266,2.828-2.828s0.814-0.868,2.828-2.828l22.467-22.467C87.421,39.655,86.536,60.376,73.456,73.456z"/>
</svg>
