<?xml version="1.0" encoding="utf-8"?>
<!-- Generator: Adobe Illustrator 17.0.0, SVG Export Plug-In . SVG Version: 6.00 Build 0)  -->
<!DOCTYPE svg PUBLIC "-//W3C//DTD SVG 1.1//EN" "http://www.w3.org/Graphics/SVG/1.1/DTD/svg11.dtd">
<svg version="1.1" id="Layer_1" xmlns="http://www.w3.org/2000/svg" xmlns:xlink="http://www.w3.org/1999/xlink" x="0px" y="0px"
	 width="96px" height="96px" viewBox="0 0 96 96" enable-background="new 0 0 96 96" xml:space="preserve">
<path d="M48,4C23.7,4,4,23.7,4,48c0,24.3,19.7,44,44,44c24.3,0,44-19.7,44-44C92,23.7,72.3,4,48,4z M12,48c0-8.5,3-16.3,7.9-22.5
	l50.6,50.6C64.3,81,56.5,84,48,84C28.1,84,12,67.9,12,48z M76.1,70.5L25.5,19.9C31.7,15,39.5,12,48,12c19.9,0,36,16.1,36,36
	C84,56.5,81,64.3,76.1,70.5z"/>
</svg>
