<?xml version="1.0" encoding="utf-8"?>
<!-- Generator: Adobe Illustrator 17.0.0, SVG Export Plug-In . SVG Version: 6.00 Build 0)  -->
<!DOCTYPE svg PUBLIC "-//W3C//DTD SVG 1.1//EN" "http://www.w3.org/Graphics/SVG/1.1/DTD/svg11.dtd">
<svg version="1.1" id="Layer_1" xmlns="http://www.w3.org/2000/svg" xmlns:xlink="http://www.w3.org/1999/xlink" x="0px" y="0px"
	 width="96px" height="96px" viewBox="0 0 96 96" enable-background="new 0 0 96 96" xml:space="preserve">
<path d="M48,4c-6.6,0-12,5.4-12,12v64c0,6.6,5.4,12,12,12s12-5.4,12-12V16C60,9.4,54.6,4,48,4z M52,80c0,2.2-1.8,4-4,4s-4-1.8-4-4
	V16c0-2.2,1.8-4,4-4s4,1.8,4,4V80z M80,28c-6.6,0-12,5.4-12,12v40c0,6.6,5.4,12,12,12s12-5.4,12-12V40C92,33.4,86.6,28,80,28z
	 M84,80c0,2.2-1.8,4-4,4s-4-1.8-4-4V40c0-2.2,1.8-4,4-4s4,1.8,4,4V80z M16,52C9.4,52,4,57.4,4,64v16c0,6.6,5.4,12,12,12
	c6.6,0,12-5.4,12-12V64C28,57.4,22.6,52,16,52z M20,80c0,2.2-1.8,4-4,4s-4-1.8-4-4V64c0-2.2,1.8-4,4-4s4,1.8,4,4V80z"/>
</svg>
