<?xml version="1.0" encoding="utf-8"?>
<!-- Generator: Adobe Illustrator 17.0.0, SVG Export Plug-In . SVG Version: 6.00 Build 0)  -->
<!DOCTYPE svg PUBLIC "-//W3C//DTD SVG 1.1//EN" "http://www.w3.org/Graphics/SVG/1.1/DTD/svg11.dtd">
<svg version="1.1" id="Layer_1" xmlns="http://www.w3.org/2000/svg" xmlns:xlink="http://www.w3.org/1999/xlink" x="0px" y="0px"
	 width="96px" height="96px" viewBox="0 0 96 96" enable-background="new 0 0 96 96" xml:space="preserve">
<path d="M96,76c-8-8-12-20-16-40C76.5,18.7,65.7,4,48,4S19.5,18.7,16,36C12,56,8,68,0,76h36.7c-0.4,1.3-0.7,2.6-0.7,4
	c0,6.6,5.4,12,12,12s12-5.4,12-12c0-1.4-0.3-2.7-0.7-4H96z M23.8,37.6C25,31.6,30.3,12,48,12s23,19.6,24.2,25.6
	C74.6,50,77.2,59.9,81,68H15C18.8,59.9,21.4,50,23.8,37.6z M52,80c0,2.2-1.8,4-4,4s-4-1.8-4-4s1.8-4,4-4S52,77.8,52,80z"/>
</svg>
