<?xml version="1.0" encoding="utf-8"?>
<!-- Generator: Adobe Illustrator 22.1.0, SVG Export Plug-In . SVG Version: 6.00 Build 0)  -->
<svg version="1.1" id="Layer_1" xmlns="http://www.w3.org/2000/svg" xmlns:xlink="http://www.w3.org/1999/xlink" x="0px" y="0px"
	 viewBox="0 0 96 96" style="enable-background:new 0 0 96 96;" xml:space="preserve">
<g>
	<path d="M48.6,46.4c-0.8,0-1.5,0.3-2,1c-0.3,0.4-0.5,1-0.6,1.8h5.1c-0.1-1-0.4-1.7-0.8-2.2C49.9,46.6,49.3,46.4,48.6,46.4z"/>
	<path d="M30.1,49.4h-2.9v3.8h3c1,0,1.7-0.2,2.1-0.5c0.4-0.4,0.6-0.8,0.6-1.4c0-0.6-0.2-1-0.6-1.3C31.8,49.6,31.1,49.4,30.1,49.4z"
		/>
	<path d="M31.5,45.4c0.4-0.3,0.5-0.8,0.5-1.4c0-0.5-0.2-1-0.5-1.3c-0.4-0.3-1-0.5-1.9-0.5h-2.6v3.6h2.5
		C30.5,45.8,31.2,45.7,31.5,45.4z"/>
	<path d="M13.5,30.8L2,47.2l11.2,18h0.1H94V30.8H13.5z M37.9,54.5c-0.5,0.8-1.1,1.4-1.9,1.8c-0.5,0.3-1.2,0.5-2.2,0.6
		c-1.3,0.2-2.2,0.3-2.6,0.3h-10V38.5h10.9c1.8,0,3.2,0.4,4.2,1.3c1,0.9,1.5,2,1.5,3.3c0,1.1-0.3,2.1-1,2.9c-0.5,0.5-1.1,0.9-2,1.3
		c1.4,0.3,2.3,0.9,3,1.7c0.6,0.8,1,1.8,1,3C38.6,52.9,38.4,53.7,37.9,54.5z M56.4,51.7H46c0.1,0.8,0.3,1.5,0.7,1.9
		c0.5,0.6,1.2,0.9,2,0.9c0.5,0,1-0.1,1.5-0.4c0.3-0.2,0.6-0.4,0.9-0.9l5.1,0.5c-0.8,1.4-1.7,2.3-2.8,2.9s-2.7,0.9-4.8,0.9
		c-1.8,0-3.2-0.3-4.3-0.8c-1-0.5-1.9-1.3-2.6-2.4s-1-2.4-1-3.9c0-2.1,0.7-3.8,2-5.2c1.4-1.3,3.2-2,5.6-2c1.9,0,3.5,0.3,4.6,0.9
		s2,1.4,2.6,2.6s0.9,2.6,0.9,4.4V51.7z M64.6,57.5c-1.3,0-2.3-0.2-2.9-0.5c-0.6-0.3-1.1-0.8-1.4-1.5c-0.3-0.7-0.4-1.8-0.4-3.3v-4.8
		H58v-3.8h1.9v-2.5l5.2-2.7v5.2H68v3.8h-2.9v4.8c0,0.6,0.1,1,0.2,1.1c0.2,0.3,0.5,0.4,0.9,0.4c0.4,0,0.9-0.1,1.6-0.3l0.4,3.6
		C66.9,57.4,65.7,57.5,64.6,57.5z M80.6,57.2c-0.2-0.4-0.3-0.6-0.4-0.8c-0.1-0.2-0.1-0.5-0.2-0.9c-0.7,0.7-1.4,1.1-2,1.4
		c-0.9,0.4-2,0.6-3.2,0.6c-1.6,0-2.9-0.4-3.7-1.1c-0.8-0.8-1.3-1.7-1.3-2.8c0-1,0.3-1.9,0.9-2.6s1.7-1.2,3.4-1.5
		c2-0.4,3.2-0.7,3.8-0.8c0.6-0.2,1.2-0.4,1.8-0.6c0-0.6-0.1-1.1-0.4-1.3c-0.3-0.3-0.7-0.4-1.4-0.4c-0.9,0-1.5,0.1-1.9,0.4
		c-0.3,0.2-0.6,0.6-0.8,1.2l-5-0.5c0.2-0.9,0.5-1.6,0.8-2.1c0.4-0.5,0.9-0.9,1.5-1.3c0.5-0.3,1.1-0.5,2-0.6c0.8-0.1,1.7-0.2,2.7-0.2
		c1.6,0,2.8,0.1,3.8,0.3s1.7,0.5,2.4,1.1c0.4,0.4,0.8,0.9,1.1,1.6c0.3,0.7,0.4,1.4,0.4,2v6c0,0.6,0,1.1,0.1,1.5
		c0.1,0.4,0.3,0.8,0.5,1.4H80.6z"/>
	<path d="M75.5,52.3c-0.3,0.3-0.4,0.6-0.4,1c0,0.4,0.1,0.7,0.4,1c0.3,0.3,0.7,0.4,1.3,0.4c0.6,0,1.1-0.1,1.6-0.4
		c0.5-0.3,0.9-0.6,1.1-1c0.2-0.4,0.3-0.9,0.3-1.6v-0.8c-0.7,0.3-1.5,0.5-2.2,0.7C76.5,51.7,75.8,52,75.5,52.3z"/>
</g>
</svg>
