<?xml version="1.0" encoding="utf-8"?>
<!-- Generator: Adobe Illustrator 22.1.0, SVG Export Plug-In . SVG Version: 6.00 Build 0)  -->
<svg version="1.1" id="Layer_1" xmlns="http://www.w3.org/2000/svg" xmlns:xlink="http://www.w3.org/1999/xlink" x="0px" y="0px"
	 viewBox="0 0 96 96" style="enable-background:new 0 0 96 96;" xml:space="preserve">
<g>
	<path d="M26.9,49.4h-2.6v3.4h2.6c0.9,0,1.5-0.2,1.9-0.5c0.4-0.3,0.6-0.7,0.6-1.3c0-0.5-0.2-0.9-0.5-1.2
		C28.4,49.5,27.8,49.4,26.9,49.4z"/>
	<polygon points="73.4,50 77,50 75.2,44 	"/>
	<path d="M28.2,45.8c0.3-0.3,0.5-0.7,0.5-1.2c0-0.5-0.2-0.9-0.5-1.1S27.3,43,26.5,43h-2.3v3.2h2.3C27.3,46.2,27.9,46,28.2,45.8z"/>
	<path d="M13.5,30.8L2,47.2l11.2,18h0.1H94V30.8H13.5z M33.9,54c-0.4,0.7-1,1.2-1.7,1.7c-0.4,0.3-1.1,0.4-2,0.6
		c-1.2,0.2-1.9,0.2-2.3,0.2h-9V39.6h9.7c1.6,0,2.9,0.4,3.7,1.2c0.9,0.8,1.3,1.8,1.3,3c0,1-0.3,1.8-0.9,2.6c-0.4,0.5-1,0.8-1.8,1.1
		c1.2,0.3,2.1,0.8,2.7,1.5c0.6,0.7,0.9,1.6,0.9,2.7C34.5,52.5,34.3,53.3,33.9,54z M50.8,56.4H36.6V39.6h13.9v3.6h-8.7v2.7h8.1v3.4
		h-8.1v3.3h9V56.4z M62.3,56.4h-5.2V43.7h-5.3v-4.1h15.8v4.1h-5.3V56.4z M79,56.4l-0.8-2.8h-5.9l-0.8,2.8h-5.3l6.3-16.8h5.7
		l6.3,16.8H79z"/>
</g>
</svg>
