<?xml version="1.0" encoding="utf-8"?>
<!-- Generator: Adobe Illustrator 17.0.0, SVG Export Plug-In . SVG Version: 6.00 Build 0)  -->
<!DOCTYPE svg PUBLIC "-//W3C//DTD SVG 1.1//EN" "http://www.w3.org/Graphics/SVG/1.1/DTD/svg11.dtd">
<svg version="1.1" id="Layer_1" xmlns="http://www.w3.org/2000/svg" xmlns:xlink="http://www.w3.org/1999/xlink" x="0px" y="0px"
	 width="96px" height="96px" viewBox="0 0 96 96" enable-background="new 0 0 96 96" xml:space="preserve">
<path d="M76.8,89H19.2C13.024,89,8,83.976,8,77.8V20.2C8,14.024,13.024,9,19.2,9h57.6C82.976,9,88,14.024,88,20.2v57.6
	C88,83.976,82.976,89,76.8,89z M19.2,17c-1.765,0-3.2,1.436-3.2,3.2v57.6c0,1.765,1.436,3.2,3.2,3.2h57.6c1.765,0,3.2-1.436,3.2-3.2
	V20.2c0-1.765-1.436-3.2-3.2-3.2H19.2z"/>
<polygon points="60,71.774 46.852,49.861 31.625,61.281 9.171,38.829 14.829,33.171 32.375,50.719 49.148,38.139 60,56.226 
	80.57,21.942 87.43,26.058 "/>
</svg>
