<?xml version="1.0" encoding="utf-8"?>
<!-- Generator: Adobe Illustrator 17.0.0, SVG Export Plug-In . SVG Version: 6.00 Build 0)  -->
<!DOCTYPE svg PUBLIC "-//W3C//DTD SVG 1.1//EN" "http://www.w3.org/Graphics/SVG/1.1/DTD/svg11.dtd">
<svg version="1.1" id="Layer_1" xmlns="http://www.w3.org/2000/svg" xmlns:xlink="http://www.w3.org/1999/xlink" x="0px" y="0px"
	 width="96px" height="96px" viewBox="0 0 96 96" enable-background="new 0 0 96 96" xml:space="preserve">
<path d="M80,20H68v-4c0-6.6-5.4-12-12-12H40c-6.6,0-12,5.4-12,12v4H16C9.4,20,4,25.4,4,32v40c0,6.6,5.4,12,12,12h64
	c6.6,0,12-5.4,12-12V32C92,25.4,86.6,20,80,20z M68,28v48H28V28H68z M36,16c0-2.2,1.8-4,4-4h16c2.2,0,4,1.8,4,4v4H36V16z M12,72V32
	c0-2.2,1.8-4,4-4h4v48h-4C13.8,76,12,74.2,12,72z M84,72c0,2.2-1.8,4-4,4h-4V28h4c2.2,0,4,1.8,4,4V72z"/>
</svg>
