<?xml version="1.0" encoding="utf-8"?>
<!-- Generator: Adobe Illustrator 22.1.0, SVG Export Plug-In . SVG Version: 6.00 Build 0)  -->
<svg version="1.1" id="Layer_1" xmlns="http://www.w3.org/2000/svg" xmlns:xlink="http://www.w3.org/1999/xlink" x="0px" y="0px"
	 viewBox="0 0 96 96" style="enable-background:new 0 0 96 96;" xml:space="preserve">
<title>矩形</title>
<desc>Created with Sketch.</desc>
<title>形状结合</title>
<desc>Created with Sketch.</desc>
<g>
	<path d="M32.6,56.2c-9.3,0-15,9.5-15,19.8c0,4.4-1.9,7.7-5.6,9.7c-0.4,0.2-0.5,0.8-0.3,1.2c3,5.1,11.3,6.9,17,6.9
		c1.5,0,2.8-0.1,3.9-0.4c6.4-1.3,14.3-5.2,16.2-16C51,64.8,41.9,56.2,32.6,56.2z"/>
	<path d="M81.8,4.4l-0.6-0.5C77.7,1.1,72.6,1.8,70,5.3L39.4,50.2l0.6,0.2c5,1.7,9.3,5.1,12.2,9.6l0.1,0.2l30.8-45.1
		C85.3,11.7,84.7,7.1,81.8,4.4z"/>
</g>
</svg>
