<?xml version="1.0" encoding="utf-8"?>
<!-- Generator: Adobe Illustrator 17.0.0, SVG Export Plug-In . SVG Version: 6.00 Build 0)  -->
<!DOCTYPE svg PUBLIC "-//W3C//DTD SVG 1.1//EN" "http://www.w3.org/Graphics/SVG/1.1/DTD/svg11.dtd">
<svg version="1.1" id="Layer_1" xmlns="http://www.w3.org/2000/svg" xmlns:xlink="http://www.w3.org/1999/xlink" x="0px" y="0px"
	 width="96px" height="96px" viewBox="0 0 96 96" enable-background="new 0 0 96 96" xml:space="preserve">
<g>
	<path d="M48,4C23.7,4,4,23.699,4,48s19.7,44,44,44s44-19.699,44-44S72.3,4,48,4z M48,84c-19.882,0-36-16.118-36-36s16.118-36,36-36
		s36,16.118,36,36S67.882,84,48,84z"/>
	<path d="M29.167,46.667h38.166c1.454,0,2.794-0.789,3.498-2.061c0.705-1.271,0.665-2.826-0.105-4.059L64.06,29.88
		c-1.171-1.873-3.639-2.444-5.513-1.272c-1.873,1.171-2.442,3.639-1.272,5.512l2.842,4.547H29.167c-2.209,0-4,1.791-4,4
		S26.958,46.667,29.167,46.667z"/>
	<path d="M68.333,51H30.167c-1.454,0-2.793,0.789-3.499,2.061c-0.705,1.272-0.664,2.826,0.106,4.06l6.666,10.667
		c0.759,1.214,2.062,1.881,3.396,1.881c0.724,0,1.457-0.197,2.116-0.608c1.874-1.171,2.443-3.639,1.272-5.513L37.383,59h30.95
		c2.209,0,4-1.791,4-4S70.542,51,68.333,51z"/>
</g>
</svg>
