<?xml version="1.0" encoding="utf-8"?>
<!-- Generator: Adobe Illustrator 21.0.0, SVG Export Plug-In . SVG Version: 6.00 Build 0)  -->
<svg version="1.1" id="Layer_1" xmlns="http://www.w3.org/2000/svg" xmlns:xlink="http://www.w3.org/1999/xlink" x="0px" y="0px"
	 viewBox="0 0 96 96" style="enable-background:new 0 0 96 96;" xml:space="preserve">
<path d="M72.9,52.6c-10.5,0-19.1,8.5-19.1,18.9c0,10.5,8.6,18.9,19.1,18.9c10.5,0,19.1-8.5,19.1-18.9C92,61,83.4,52.6,72.9,52.6
	L72.9,52.6z M72.7,83.8c-1,1-2.6,1-3.6,0L61,75.8c-1-0.9-1-2.5,0-3.5c0,0,0,0,0,0c1-1,2.6-1,3.6,0l6.3,6.2L83,66.6c1-1,2.6-1,3.6,0
	c1,1,1,2.6,0,3.5L72.7,83.8z"/>
<path d="M48.7,71.5c0-5.4,1.8-10.4,4.8-14.4H27l0-4.6h6.4v-5.2l-9.3,0l0-3.9L38,28h12.9L63,40.1l-3.1,3l-11-10.8l-8.4,0l-10,11.1
	h7.3v9.2h5.3V36.2H48v7.2h7.6v3.9l-7.6,0l0,5.2h10c3.1-2.4,6.8-4,10.8-4.7c0.1-0.5,0.1-1,0.1-1.5V24.4C57,24.4,50,21,43.6,16
	c-6.5,5-13.4,8.5-25.4,8.5v21.9c0,10.4,13.4,28.9,25.4,28.9c1.7,0,3.5-0.4,5.3-1.1C48.8,73.2,48.7,72.4,48.7,71.5z"/>
<path d="M50.8,81.3c-2.4,1-4.8,1.6-7.2,1.6c-15.1,0-32-23.3-32-36.4V18.8c15,0,23.8-4.4,32-10.7c8.2,6.3,16.9,10.7,32,10.7v27.6
	c0,0.4,0,0.8,0,1.2c1.2,0.1,2.4,0.3,3.6,0.6c0.1-0.6,0.1-1.2,0.1-1.7V15.9C62.4,15.9,52.6,11,43.6,4C34.5,11,24.7,15.9,8,15.9v30.7
	c0,14.6,18.8,40.5,35.6,40.5c3,0,6.1-0.8,9.2-2.3C52,83.6,51.4,82.5,50.8,81.3L50.8,81.3z"/>
</svg>
