<?xml version="1.0" encoding="utf-8"?>
<!-- Generator: Adobe Illustrator 22.1.0, SVG Export Plug-In . SVG Version: 6.00 Build 0)  -->
<svg version="1.1" id="Layer_1" xmlns="http://www.w3.org/2000/svg" xmlns:xlink="http://www.w3.org/1999/xlink" x="0px" y="0px"
	 viewBox="0 0 96 96" style="enable-background:new 0 0 96 96;" xml:space="preserve">
<g>
	<g>
		<path d="M38.6,33.5c-3.1,0-5.7,1.1-7.7,3.1c-2.9,2.9-2.8,6.4-2.8,11.4s-0.1,8.5,2.8,11.4c2,2,4.6,3.1,7.7,3.1c5.3,0,9.5-3,10.5-9
			h-5.6c-0.6,2.3-2,4-4.8,4c-1.5,0-2.8-0.6-3.6-1.5c-1.1-1.2-1.4-2.6-1.4-8c0-5.5,0.3-6.8,1.4-8c0.8-0.9,2-1.5,3.6-1.5
			c2.8,0,4.2,1.8,4.8,4h5.6C48.1,36.6,43.9,33.5,38.6,33.5L38.6,33.5z"/>
	</g>
	<g>
		<path d="M66.5,38.5h-1.9l-0.9,5.7h-4.2l0.9-5.7h-2l-0.9,5.7h-2.7V46h2.5l-0.6,3.8h-2.7v1.7h2.4l-1,6.1h2l0.9-6.1h4.3l-1,6.1h2
			l1-6.1h2.6v-1.7h-2.4l0.6-3.8h2.6v-1.8h-2.3L66.5,38.5L66.5,38.5z M63.3,46l-0.6,3.8h-4.2l0.6-3.8H63.3L63.3,46z"/>
	</g>
</g>
<g>
	<path d="M48,4C23.7,4,4,23.7,4,48s19.7,44,44,44s44-19.7,44-44S72.3,4,48,4L48,4z M48,86c-21,0-38-17-38-38s17-38,38-38
		s38,17,38,38S69,86,48,86L48,86z"/>
</g>
</svg>
