<?xml version="1.0" encoding="utf-8"?>
<!-- Generator: Adobe Illustrator 22.1.0, SVG Export Plug-In . SVG Version: 6.00 Build 0)  -->
<svg version="1.1" id="Layer_1" xmlns="http://www.w3.org/2000/svg" xmlns:xlink="http://www.w3.org/1999/xlink" x="0px" y="0px"
	 viewBox="0 0 96 96" style="enable-background:new 0 0 96 96;" xml:space="preserve">
<g>
	<g>
		<path d="M34,33.5c-3.1,0-5.7,1.1-7.7,3.1c-2.9,2.9-2.8,6.4-2.8,11.4s-0.1,8.5,2.8,11.4c2,2,4.6,3.1,7.7,3.1c5.3,0,9.5-3,10.5-9
			h-5.6c-0.6,2.3-2,4-4.8,4c-1.5,0-2.8-0.6-3.6-1.5c-1.1-1.2-1.4-2.6-1.4-8c0-5.5,0.3-6.8,1.4-8c0.8-0.9,2-1.5,3.6-1.5
			c2.8,0,4.2,1.8,4.8,4h5.6C43.5,36.6,39.3,33.5,34,33.5L34,33.5z"/>
	</g>
	<g>
		<polygon points="53.9,42.4 52.1,42.4 52.1,47.1 47.4,47.1 47.4,48.9 52.1,48.9 52.1,53.6 53.9,53.6 53.9,48.9 58.5,48.9 
			58.5,47.1 53.9,47.1 53.9,42.4 		"/>
	</g>
	<g>
		<polygon points="67.8,42.4 66,42.4 66,47.1 61.3,47.1 61.3,48.9 66,48.9 66,53.6 67.8,53.6 67.8,48.9 72.5,48.9 72.5,47.1 
			67.8,47.1 67.8,42.4 		"/>
	</g>
</g>
<g>
	<path d="M48,4C23.7,4,4,23.7,4,48s19.7,44,44,44s44-19.7,44-44S72.3,4,48,4L48,4z M48,86c-21,0-38-17-38-38s17-38,38-38
		s38,17,38,38S69,86,48,86L48,86z"/>
</g>
</svg>
