<?xml version="1.0" encoding="utf-8"?>
<!-- Generator: Adobe Illustrator 21.0.0, SVG Export Plug-In . SVG Version: 6.00 Build 0)  -->
<svg version="1.1" id="Layer_1" xmlns="http://www.w3.org/2000/svg" xmlns:xlink="http://www.w3.org/1999/xlink" x="0px" y="0px"
	 viewBox="0 0 96 96" style="enable-background:new 0 0 96 96;" xml:space="preserve">
<path d="M72.4,26.4l-3.8,2.2V24L48.9,12.6L29.2,24v5.1L25.7,27L6,38.4v22.7l19.7,11.4l3.8-2.2v4.6l19.7,11.4l19.7-11.4v-5.1l3.6,2.1
	l19.7-11.4V37.8L72.4,26.4z M36.7,28.3l12.2-7l12.2,7v4.6l-8.4,4.8v5.1l-3.6-2.1L45.3,43v-4.6l-8.6-5V28.3z M29.5,52.2v9.5l-3.8,2.2
	l-12.2-7V42.7l12.2-7l0,0l0,0l13.6,7.7v3.1l-5.2,3l0,0L29.5,52.2z M61.3,56.8L61.3,56.8l0,8.6l0,0v5.1l-12.2,7l-12.2-7V66l0,0v-8.6
	l0,0v-0.8l0,0v-0.1l12.2-7l12.2,7v0.1l0,0V56.8z M84.6,56.2l-12.2,7l-3.6-2.1v-9l-4.4-2.5l-4.3-2.2v-4.5v-0.8l0.9-0.5v0l7.5-4.3v0
	l3.8-2.2l12.2,7V56.2z"/>
</svg>
