<?xml version="1.0" encoding="utf-8"?>
<!-- Generator: Adobe Illustrator 17.0.0, SVG Export Plug-In . SVG Version: 6.00 Build 0)  -->
<!DOCTYPE svg PUBLIC "-//W3C//DTD SVG 1.1//EN" "http://www.w3.org/Graphics/SVG/1.1/DTD/svg11.dtd">
<svg version="1.1" id="Layer_1" xmlns="http://www.w3.org/2000/svg" xmlns:xlink="http://www.w3.org/1999/xlink" x="0px" y="0px"
	 width="96px" height="96px" viewBox="0 0 96 96" enable-background="new 0 0 96 96" xml:space="preserve">
<path d="M72,8H24c-6.63,0-12,5.37-12,12v56c0,6.63,5.37,12,12,12h48c6.63,0,12-5.37,12-12V20C84,13.37,78.63,8,72,8z M76,76
	c0,2.21-1.79,4-4,4H24c-2.21,0-4-1.79-4-4V20c0-2.21,1.79-4,4-4h48c2.21,0,4,1.79,4,4V76z"/>
<path d="M72,26c0,3.314-2.686,6-6,6H30c-3.314,0-6-2.686-6-6l0,0c0-3.314,2.686-6,6-6h36C69.314,20,72,22.686,72,26L72,26z"/>
<path d="M37,42c0,2.209-1.791,4-4,4l0,0c-2.209,0-4-1.791-4-4l0,0c0-2.209,1.791-4,4-4l0,0C35.209,38,37,39.791,37,42L37,42z"/>
<path d="M53,42c0,2.209-1.791,4-4,4l0,0c-2.209,0-4-1.791-4-4l0,0c0-2.209,1.791-4,4-4l0,0C51.209,38,53,39.791,53,42L53,42z"/>
<path d="M68,42c0,2.209-1.791,4-4,4l0,0c-2.209,0-4-1.791-4-4l0,0c0-2.209,1.791-4,4-4l0,0C66.209,38,68,39.791,68,42L68,42z"/>
<path d="M37,55c0,2.209-1.791,4-4,4l0,0c-2.209,0-4-1.791-4-4l0,0c0-2.209,1.791-4,4-4l0,0C35.209,51,37,52.791,37,55L37,55z"/>
<path d="M53,55c0,2.209-1.791,4-4,4l0,0c-2.209,0-4-1.791-4-4l0,0c0-2.209,1.791-4,4-4l0,0C51.209,51,53,52.791,53,55L53,55z"/>
<path d="M68,55c0,2.209-1.791,4-4,4l0,0c-2.209,0-4-1.791-4-4l0,0c0-2.209,1.791-4,4-4l0,0C66.209,51,68,52.791,68,55L68,55z"/>
<path d="M37,68c0,2.209-1.791,4-4,4l0,0c-2.209,0-4-1.791-4-4l0,0c0-2.209,1.791-4,4-4l0,0C35.209,64,37,65.791,37,68L37,68z"/>
<path d="M53,68c0,2.209-1.791,4-4,4l0,0c-2.209,0-4-1.791-4-4l0,0c0-2.209,1.791-4,4-4l0,0C51.209,64,53,65.791,53,68L53,68z"/>
<path d="M68,68c0,2.209-1.791,4-4,4l0,0c-2.209,0-4-1.791-4-4l0,0c0-2.209,1.791-4,4-4l0,0C66.209,64,68,65.791,68,68L68,68z"/>
</svg>
