<?xml version="1.0" encoding="utf-8"?>
<!-- Generator: Adobe Illustrator 17.0.0, SVG Export Plug-In . SVG Version: 6.00 Build 0)  -->
<!DOCTYPE svg PUBLIC "-//W3C//DTD SVG 1.1//EN" "http://www.w3.org/Graphics/SVG/1.1/DTD/svg11.dtd">
<svg version="1.1" id="Layer_1" xmlns="http://www.w3.org/2000/svg" xmlns:xlink="http://www.w3.org/1999/xlink" x="0px" y="0px"
	 width="96px" height="96px" viewBox="0 0 96 96" enable-background="new 0 0 96 96" xml:space="preserve">
<g>
	<path fill="#050404" d="M80,12h-8c0-2.209-1.791-4-4-4s-4,1.791-4,4H32c0-2.209-1.791-4-4-4s-4,1.791-4,4h-8C9.37,12,4,17.37,4,24
		v56c0,6.63,5.37,12,12,12h64c6.63,0,12-5.37,12-12V24C92,17.37,86.63,12,80,12z M84,80c0,2.21-1.79,4-4,4H16c-2.21,0-4-1.79-4-4V40
		h72V80z M84,32H12v-8c0-2.21,1.79-4,4-4h8c0,2.209,1.791,4,4,4s4-1.791,4-4h32c0,2.209,1.791,4,4,4s4-1.791,4-4h8
		c2.21,0,4,1.79,4,4V32z"/>
	<circle fill="#050404" cx="24" cy="54" r="4"/>
	<circle fill="#050404" cx="40" cy="54" r="4"/>
	<circle fill="#050404" cx="56" cy="54" r="4"/>
	<circle fill="#050404" cx="72" cy="54" r="4"/>
	<circle fill="#050404" cx="24" cy="68" r="4"/>
	<circle fill="#050404" cx="40" cy="68" r="4"/>
	<circle fill="#050404" cx="56" cy="68" r="4"/>
	<circle fill="#050404" cx="72" cy="68" r="4"/>
</g>
</svg>
