<?xml version="1.0" encoding="utf-8"?>
<!-- Generator: Adobe Illustrator 17.0.0, SVG Export Plug-In . SVG Version: 6.00 Build 0)  -->
<!DOCTYPE svg PUBLIC "-//W3C//DTD SVG 1.1//EN" "http://www.w3.org/Graphics/SVG/1.1/DTD/svg11.dtd">
<svg version="1.1" id="Layer_1" xmlns="http://www.w3.org/2000/svg" xmlns:xlink="http://www.w3.org/1999/xlink" x="0px" y="0px"
	 width="96px" height="96px" viewBox="0 0 96 96" enable-background="new 0 0 96 96" xml:space="preserve">
<path d="M84,20H72L64,8H32l-8,12H12C5.4,20,0,25.4,0,32.1V76c0,6.6,5.4,12,12,12h72c6.6,0,12-5.3,12-11.9V32.1
	C96,25.5,90.6,20,84,20z M88,76.1c0,2.2-1.8,3.9-4,3.9H12c-2.2,0-4-1.8-4-4V32.1c0-2.2,1.8-4.1,4-4.1h16.3l8-12h23.6l7.9,12H84
	c2.2,0,4,1.9,4,4.1V76.1z M48,32c-11,0-20,9-20,20s9,20,20,20c11,0,20-9,20-20S59,32,48,32z M48,64c-6.6,0-12-5.4-12-12
	s5.4-12,12-12c6.6,0,12,5.4,12,12S54.6,64,48,64z"/>
</svg>
