<?xml version="1.0" encoding="utf-8"?>
<!-- Generator: Adobe Illustrator 17.0.0, SVG Export Plug-In . SVG Version: 6.00 Build 0)  -->
<!DOCTYPE svg PUBLIC "-//W3C//DTD SVG 1.1//EN" "http://www.w3.org/Graphics/SVG/1.1/DTD/svg11.dtd">
<svg version="1.1" id="Layer_1" xmlns="http://www.w3.org/2000/svg" xmlns:xlink="http://www.w3.org/1999/xlink" x="0px" y="0px"
	 width="96px" height="96px" viewBox="0 0 96 96" enable-background="new 0 0 96 96" xml:space="preserve">
<g>
	<path d="M80,18H16C9.383,18,4,23.383,4,30v42c0,6.617,5.383,12,12,12h64c6.617,0,12-5.383,12-12V30C92,23.383,86.617,18,80,18z
		 M84,72c0,2.206-1.794,4-4,4H16c-2.206,0-4-1.794-4-4V52h72V72z M84,36H12v-6c0-2.206,1.794-4,4-4h64c2.206,0,4,1.794,4,4V36z"/>
	<rect x="68" y="60" width="8" height="8"/>
	<rect x="56" y="60" width="8" height="8"/>
	<rect x="44" y="60" width="8" height="8"/>
</g>
</svg>
