<?xml version="1.0" encoding="utf-8"?>
<!-- Generator: Adobe Illustrator 22.1.0, SVG Export Plug-In . SVG Version: 6.00 Build 0)  -->
<svg version="1.1" id="Layer_1" xmlns="http://www.w3.org/2000/svg" xmlns:xlink="http://www.w3.org/1999/xlink" x="0px" y="0px"
	 viewBox="0 0 96 96" style="enable-background:new 0 0 96 96;" xml:space="preserve">
<g>
	<path d="M8,32c2.2,0,4-1.8,4-4V16c0-2.2,1.8-4,4-4h12c2.2,0,4-1.8,4-4s-1.8-4-4-4H16C9.4,4,4,9.4,4,16v12C4,30.2,5.8,32,8,32z"/>
	<path d="M80,4H68c-2.2,0-4,1.8-4,4s1.8,4,4,4h12c2.2,0,4,1.8,4,4v12c0,2.2,1.8,4,4,4s4-1.8,4-4V16C92,9.4,86.6,4,80,4z"/>
	<path d="M88,64c-2.2,0-4,1.8-4,4v12c0,2.2-1.8,4-4,4H68c-2.2,0-4,1.8-4,4s1.8,4,4,4h12c6.6,0,12-5.4,12-12V68
		C92,65.8,90.2,64,88,64z"/>
	<path d="M28,84H16c-2.2,0-4-1.8-4-4V68c0-2.2-1.8-4-4-4s-4,1.8-4,4v12c0,6.6,5.4,12,12,12h12c2.2,0,4-1.8,4-4S30.2,84,28,84z"/>
	<path d="M76.6,39.3l-8.5-8.5c-1.8-1.8-4.8-1.8-6.6,0L34.7,57.6c-1.9,1.9-0.6,5.1,2.1,5.1h0c0.8,0,1.6-0.3,2.1-0.9L64.8,36l7.5,7.5
		c1.9,1.9,5.1,0.6,5.1-2.1C77.4,40.6,77.1,39.9,76.6,39.3z"/>
	<path d="M19,34.2c0,5.5,4.5,10,10,10s10-4.5,10-10c0-5.5-4.5-10-10-10S19,28.7,19,34.2z M33,34.2c0,2.2-1.8,4-4,4s-4-1.8-4-4
		s1.8-4,4-4S33,32,33,34.2z"/>
	<path d="M74,66.7H22c-1.7,0-3,1.3-3,3s1.3,3,3,3h52c1.7,0,3-1.3,3-3S75.7,66.7,74,66.7z"/>
</g>
</svg>
