<?xml version="1.0" encoding="utf-8"?>
<!-- Generator: Adobe Illustrator 17.0.0, SVG Export Plug-In . SVG Version: 6.00 Build 0)  -->
<!DOCTYPE svg PUBLIC "-//W3C//DTD SVG 1.1//EN" "http://www.w3.org/Graphics/SVG/1.1/DTD/svg11.dtd">
<svg version="1.1" id="Layer_1" xmlns="http://www.w3.org/2000/svg" xmlns:xlink="http://www.w3.org/1999/xlink" x="0px" y="0px"
	 width="96px" height="96px" viewBox="0 0 96 96" enable-background="new 0 0 96 96" xml:space="preserve">
<g>
	<polygon points="23.218,28.793 16.589,34.738 16.589,44.17 38.279,43.746 	"/>
	<polygon points="52.099,38.661 68.19,23.323 62.109,16.903 52.099,16.903 	"/>
	<path d="M46.166,40.366c0,0,0.594,2.735,3.091,0c0.238-2.378,0-25.92,0-25.92h8.68L47.434,4.458l-9.948,9.75h8.561L46.166,40.366z"
		/>
	<polygon points="44.541,38.463 44.541,16.705 34.531,16.705 28.45,23.125 	"/>
	<path d="M23.218,24.869l18.786,18.548c0,0,2.854,1.348,2.259-1.415c-2.537-2.707-18.429-18.785-18.429-18.785l5.35-6.315H16.589
		l0.447,14.03L23.218,24.869z"/>
	<path d="M52.377,42.201c-0.594,2.762,2.259,1.415,2.259,1.415l18.786-18.548l6.183,6.064l0.447-14.03H65.456l5.35,6.315
		C70.806,23.416,54.913,39.494,52.377,42.201z"/>
	<polygon points="58.361,43.944 80.052,44.368 80.052,34.936 73.422,28.991 	"/>
	<path d="M49.84,55.183c0,0-0.594-2.735-3.091,0c-0.238,2.378,0,25.92,0,25.92h-8.68l10.503,9.987l9.948-9.75h-8.561L49.84,55.183z"
		/>
	<polygon points="51.465,57.086 51.465,78.844 61.475,78.844 67.556,72.424 	"/>
	<path d="M72.788,70.68L54.002,52.132c0,0-2.854-1.348-2.259,1.415c2.536,2.707,18.429,18.785,18.429,18.785l-5.35,6.315h14.596
		l-0.447-14.03L72.788,70.68z"/>
	<polygon points="72.788,66.756 79.417,60.811 79.417,51.379 57.727,51.803 	"/>
	<polygon points="43.907,56.888 27.816,72.226 33.897,78.646 43.907,78.646 	"/>
	<path d="M43.629,53.348c0.594-2.762-2.259-1.415-2.259-1.415L22.584,70.482l-6.183-6.064l-0.447,14.03H30.55l-5.35-6.315
		C25.2,72.133,41.093,56.055,43.629,53.348z"/>
	<polygon points="22.584,66.558 37.645,51.605 15.954,51.181 15.954,60.613 	"/>
	<path d="M91.824,47.68l-9.75-9.948v8.561l-26.158,0.119c0,0-2.735,0.594,0,3.091c2.378,0.238,25.92,0,25.92,0v8.68L91.824,47.68z"
		/>
	<path d="M40.052,46.411c-2.378-0.238-25.92,0-25.92,0v-8.68L4.145,48.235l9.75,9.948v-8.561l26.158-0.119
		C40.052,49.503,42.787,48.908,40.052,46.411z"/>
</g>
</svg>
