<?xml version="1.0" encoding="utf-8"?>
<!-- Generator: Adobe Illustrator 17.0.0, SVG Export Plug-In . SVG Version: 6.00 Build 0)  -->
<!DOCTYPE svg PUBLIC "-//W3C//DTD SVG 1.1//EN" "http://www.w3.org/Graphics/SVG/1.1/DTD/svg11.dtd">
<svg version="1.1" id="Layer_1" xmlns="http://www.w3.org/2000/svg" xmlns:xlink="http://www.w3.org/1999/xlink" x="0px" y="0px"
	 width="96px" height="96px" viewBox="0 0 96 96" enable-background="new 0 0 96 96" xml:space="preserve">
<path d="M70.827,7H26.173C16.152,7,8,15.152,8,25.173v45.154C8,80.348,16.152,88.5,26.173,88.5h44.654
	C80.848,88.5,89,80.348,89,70.327V25.173C89,15.152,80.848,7,70.827,7z M81,27.083v2.667v8V56.5v13.827
	c0,5.61-4.563,10.173-10.173,10.173H26.173C20.563,80.5,16,75.937,16,70.327V56.5h-0.083V27.083H16v-1.911
	C16,19.563,20.563,15,26.173,15h44.654C76.437,15,81,19.563,81,25.173V27.083z"/>
</svg>
