<?xml version="1.0" encoding="utf-8"?>
<!-- Generator: Adobe Illustrator 17.0.0, SVG Export Plug-In . SVG Version: 6.00 Build 0)  -->
<!DOCTYPE svg PUBLIC "-//W3C//DTD SVG 1.1//EN" "http://www.w3.org/Graphics/SVG/1.1/DTD/svg11.dtd">
<svg version="1.1" id="Layer_1" xmlns="http://www.w3.org/2000/svg" xmlns:xlink="http://www.w3.org/1999/xlink" x="0px" y="0px"
	 width="96px" height="96px" viewBox="0 0 96 96" enable-background="new 0 0 96 96" xml:space="preserve">
<g>
	<path d="M48,92c24.3,0,44-19.699,44-44S72.3,4,48,4S4,23.699,4,48S23.7,92,48,92z M48,12c19.882,0,36,16.118,36,36S67.882,84,48,84
		S12,67.882,12,48S28.118,12,48,12z"/>
	<path d="M47.167,63.5c-2.209,0-4-1.791-4-4V23.029c0-2.209,1.791-4,4-4s4,1.791,4,4V59.5C51.167,61.709,49.376,63.5,47.167,63.5z"
		/>
	<circle cx="47.25" cy="71.083" r="4.25"/>
</g>
</svg>
