<?xml version="1.0" encoding="utf-8"?>
<!-- Generator: Adobe Illustrator 17.0.0, SVG Export Plug-In . SVG Version: 6.00 Build 0)  -->
<!DOCTYPE svg PUBLIC "-//W3C//DTD SVG 1.1//EN" "http://www.w3.org/Graphics/SVG/1.1/DTD/svg11.dtd">
<svg version="1.1" id="Layer_1" xmlns="http://www.w3.org/2000/svg" xmlns:xlink="http://www.w3.org/1999/xlink" x="0px" y="0px"
	 width="96px" height="96px" viewBox="0 0 96 96" enable-background="new 0 0 96 96" xml:space="preserve">
<path d="M48,4C23.7,4,4,23.7,4,48s19.7,44,44,44s44-19.7,44-44S72.3,4,48,4z M48,84c-19.9,0-36-16.1-36-36s16.1-36,36-36
	s36,16.1,36,36S67.9,84,48,84z M58.6,37.2L44.5,51.3l-5.7-5.7c-1.6-1.6-4.1-1.6-5.7,0c-1.6,1.6-1.6,4.1,0,5.7l8.5,8.5
	c1.6,1.6,4.1,1.6,5.7,0l17-17c1.6-1.6,1.6-4.1,0-5.7C62.7,35.6,60.2,35.6,58.6,37.2z"/>
</svg>
