<?xml version="1.0" encoding="utf-8"?>
<!-- Generator: Adobe Illustrator 17.0.0, SVG Export Plug-In . SVG Version: 6.00 Build 0)  -->
<!DOCTYPE svg PUBLIC "-//W3C//DTD SVG 1.1//EN" "http://www.w3.org/Graphics/SVG/1.1/DTD/svg11.dtd">
<svg version="1.1" id="Layer_1" xmlns="http://www.w3.org/2000/svg" xmlns:xlink="http://www.w3.org/1999/xlink" x="0px" y="0px"
	 width="96px" height="96px" viewBox="0 0 96 96" enable-background="new 0 0 96 96" xml:space="preserve">
<path d="M68,44H52V28c0-2.209-1.791-4-4-4s-4,1.791-4,4v16H28c-2.209,0-4,1.791-4,4s1.791,4,4,4h16v16c0,2.209,1.791,4,4,4
	s4-1.791,4-4V52h16c2.209,0,4-1.791,4-4S70.209,44,68,44z"/>
<path d="M48,92C23.738,92,4,72.262,4,48S23.738,4,48,4s44,19.738,44,44S72.262,92,48,92z M48,12c-19.851,0-36,16.149-36,36
	s16.149,36,36,36s36-16.149,36-36S67.851,12,48,12z"/>
</svg>
