<?xml version="1.0" encoding="utf-8"?>
<!-- Generator: Adobe Illustrator 17.0.0, SVG Export Plug-In . SVG Version: 6.00 Build 0)  -->
<!DOCTYPE svg PUBLIC "-//W3C//DTD SVG 1.1//EN" "http://www.w3.org/Graphics/SVG/1.1/DTD/svg11.dtd">
<svg version="1.1" id="Layer_1" xmlns="http://www.w3.org/2000/svg" xmlns:xlink="http://www.w3.org/1999/xlink" x="0px" y="0px"
	 width="96px" height="96px" viewBox="0 0 96 96" enable-background="new 0 0 96 96" xml:space="preserve">
<path d="M48,4C23.7,4,4,23.699,4,48s19.7,44,44,44s44-19.699,44-44S72.3,4,48,4z M49.75,78.167c-2.347,0-4.25-1.903-4.25-4.25
	s1.903-4.25,4.25-4.25S54,71.57,54,73.917S52.097,78.167,49.75,78.167z M60.438,43.513c-1.328,1.483-2.611,2.623-3.642,3.54
	c-2.105,1.87-2.615,2.429-2.798,3.624c-0.232,1.509-0.486,7.515-0.592,10.947C53.339,63.79,51.562,65.5,49.41,65.5
	c-0.042,0-0.084-0.001-0.126-0.002c-2.208-0.068-3.942-1.914-3.874-4.122c0.049-1.562,0.309-9.481,0.68-11.909
	c0.639-4.17,3.055-6.317,5.393-8.394c0.97-0.862,1.972-1.753,2.994-2.895c1.034-1.157,1.706-3.866,0.986-6.226
	c-0.7-2.296-2.533-3.836-5.447-4.576c-2.273-0.577-4.088-0.413-5.551,0.502c-2.442,1.526-3.624,4.985-3.874,6.189
	c-0.446,2.154-2.549,3.555-4.707,3.123c-2.157-0.433-3.561-2.513-3.142-4.672c0.152-0.779,1.647-7.724,7.409-11.377
	c3.332-2.112,7.425-2.636,11.833-1.518c5.649,1.435,9.602,4.984,11.131,9.995C64.576,34.406,63.475,40.119,60.438,43.513z"/>
</svg>
