<?xml version="1.0" encoding="utf-8"?>
<!-- Generator: Adobe Illustrator 17.0.0, SVG Export Plug-In . SVG Version: 6.00 Build 0)  -->
<!DOCTYPE svg PUBLIC "-//W3C//DTD SVG 1.1//EN" "http://www.w3.org/Graphics/SVG/1.1/DTD/svg11.dtd">
<svg version="1.1" id="Layer_1" xmlns="http://www.w3.org/2000/svg" xmlns:xlink="http://www.w3.org/1999/xlink" x="0px" y="0px"
	 width="96px" height="96px" viewBox="0 0 96 96" enable-background="new 0 0 96 96" xml:space="preserve">
<path d="M48,4C23.7,4,4,23.699,4,48c0,24.301,19.7,44,44,44s44-19.699,44-44C92,23.699,72.3,4,48,4z M64.283,42.827l-16.971,16.97
	c-1.562,1.561-4.096,1.561-5.657,0l-8.484-8.481c-1.562-1.563-1.562-4.097,0-5.658c1.563-1.562,4.095-1.562,5.657,0l5.656,5.656
	L58.627,37.17c1.562-1.56,4.096-1.56,5.657-0.001C65.848,38.733,65.845,41.264,64.283,42.827z"/>
</svg>
