<?xml version="1.0" encoding="utf-8"?>
<!-- Generator: Adobe Illustrator 17.0.0, SVG Export Plug-In . SVG Version: 6.00 Build 0)  -->
<!DOCTYPE svg PUBLIC "-//W3C//DTD SVG 1.1//EN" "http://www.w3.org/Graphics/SVG/1.1/DTD/svg11.dtd">
<svg version="1.1" id="Layer_1" xmlns="http://www.w3.org/2000/svg" xmlns:xlink="http://www.w3.org/1999/xlink" x="0px" y="0px"
	 width="96px" height="96px" viewBox="0 0 96 96" enable-background="new 0 0 96 96" xml:space="preserve">
<g>
	<path d="M48,4C23.7,4,4,23.699,4,48s19.7,44,44,44s44-19.699,44-44S72.3,4,48,4z M48,84c-19.882,0-36-16.118-36-36s16.118-36,36-36
		s36,16.118,36,36S67.882,84,48,84z"/>
	<path d="M65.172,33.171L43.625,54.718L30.4,44.8c-1.768-1.324-4.273-0.967-5.6,0.8c-1.325,1.767-0.967,4.275,0.8,5.6l16,12
		c0.037,0.028,0.078,0.046,0.116,0.073c0.077,0.054,0.156,0.101,0.236,0.149c0.134,0.08,0.269,0.152,0.409,0.215
		c0.083,0.037,0.164,0.073,0.249,0.104c0.155,0.058,0.312,0.102,0.471,0.14c0.072,0.017,0.142,0.039,0.215,0.052
		C43.528,63.974,43.762,64,43.997,64c0,0,0.001,0,0.001,0c0.001,0,0.001,0,0.002,0c0.282,0,0.564-0.037,0.841-0.096
		c0.084-0.018,0.163-0.049,0.246-0.073c0.19-0.054,0.377-0.116,0.558-0.198c0.098-0.044,0.189-0.097,0.284-0.149
		c0.156-0.087,0.307-0.182,0.453-0.291c0.095-0.071,0.186-0.145,0.276-0.225c0.055-0.049,0.117-0.086,0.17-0.139l24-24
		c1.562-1.562,1.562-4.095,0-5.657C69.268,31.61,66.732,31.61,65.172,33.171z"/>
</g>
</svg>
