<?xml version="1.0" encoding="utf-8"?>
<!-- Generator: Adobe Illustrator 21.0.0, SVG Export Plug-In . SVG Version: 6.00 Build 0)  -->
<svg version="1.1" id="Layer_1" xmlns="http://www.w3.org/2000/svg" xmlns:xlink="http://www.w3.org/1999/xlink" x="0px" y="0px"
	 viewBox="0 0 96 96" style="enable-background:new 0 0 96 96;" xml:space="preserve">
<g>
	<path d="M67.4,58.4h8.4c-0.7,6.7-3.2,12.3-7.4,16.9c-5,5.5-11.7,8.1-20.2,8.1c-7.3,0-13.5-2.2-18.3-6.7c-6.6-6-9.8-15.1-9.8-27.5
		c0-9.4,2.4-17.1,7.4-23.1c5.3-6.6,12.6-9.8,22-9.8c7.9,0,14.1,2.1,18.5,6.3s6.8,9.1,7.3,14.5h-8.4c-1-4.1-2.8-7.3-5.6-9.7
		c-2.8-2.4-6.7-3.6-11.8-3.6c-6.2,0-11.1,2.2-14.9,6.6c-3.8,4.4-5.7,11.2-5.7,20.3c0,7.4,1.7,13.5,5.1,18.1
		c3.4,4.6,8.5,6.9,15.3,6.9c6.2,0,10.9-2.4,14.2-7.3C65.2,66.1,66.5,62.7,67.4,58.4z"/>
</g>
</svg>
