<?xml version="1.0" encoding="utf-8"?>
<!-- Generator: Adobe Illustrator 24.0.0, SVG Export Plug-In . SVG Version: 6.00 Build 0)  -->
<svg version="1.1" xmlns="http://www.w3.org/2000/svg" xmlns:xlink="http://www.w3.org/1999/xlink" x="0px" y="0px"
	 viewBox="0 0 96 96" style="enable-background:new 0 0 96 96;" xml:space="preserve">
<g id="Layer_1">
</g>
<g id="图层_2">
	<g>
		<path d="M84,8.1H12c-4.4,0-8,3.6-8,8v64c0,4.4,3.6,8,8,8h72c4.4,0,8-3.6,8-8v-64C92,11.7,88.4,8.1,84,8.1z M84,81.1H12
			c-0.6,0-1-0.4-1-1V28h74v52.1C85,80.7,84.6,81.1,84,81.1z"/>
		<path d="M25.8,38.8c-1.5-1.2-3.7-1-4.9,0.5c-1.2,1.5-1,3.7,0.5,4.9l11.8,9.6l-11.9,9.7c-1.5,1.2-1.7,3.4-0.5,4.9
			c0.7,0.9,1.7,1.3,2.7,1.3c0.8,0,1.6-0.3,2.2-0.8L41,56.6c0.8-0.7,1.3-1.7,1.3-2.7s-0.5-2.1-1.3-2.7L25.8,38.8z"/>
		<path d="M67.1,61.2H46.6c-1.9,0-3.5,1.6-3.5,3.5s1.6,3.5,3.5,3.5h20.6c1.9,0,3.5-1.6,3.5-3.5S69.1,61.2,67.1,61.2z"/>
	</g>
</g>
</svg>
