<?xml version="1.0" encoding="utf-8"?>
<!-- Generator: Adobe Illustrator 17.0.0, SVG Export Plug-In . SVG Version: 6.00 Build 0)  -->
<!DOCTYPE svg PUBLIC "-//W3C//DTD SVG 1.1//EN" "http://www.w3.org/Graphics/SVG/1.1/DTD/svg11.dtd">
<svg version="1.1" id="Layer_1" xmlns="http://www.w3.org/2000/svg" xmlns:xlink="http://www.w3.org/1999/xlink" x="0px" y="0px"
	 width="96px" height="96px" viewBox="0 0 96 96" enable-background="new 0 0 96 96" xml:space="preserve">
<path d="M72,12h-4.697C65.652,7.342,61.223,4,56,4H40c-5.223,0-9.652,3.342-11.303,8H24c-6.63,0-12,5.37-12,12v56
	c0,6.63,5.37,12,12,12h48c6.63,0,12-5.37,12-12V24C84,17.37,78.63,12,72,12z M40,12h16c2.209,0,4,1.791,4,4c0,2.209-1.791,4-4,4H40
	c-2.209,0-4-1.791-4-4C36,13.791,37.791,12,40,12z M76,80c0,2.21-1.79,4-4,4H24c-2.21,0-4-1.79-4-4V24c0-2.21,1.79-4,4-4h4.697
	c1.648,4.658,6.08,8,11.303,8h16c5.223,0,9.652-3.342,11.303-8H72c2.21,0,4,1.79,4,4V80z"/>
</svg>
