<?xml version="1.0" encoding="utf-8"?>
<!-- Generator: Adobe Illustrator 17.0.0, SVG Export Plug-In . SVG Version: 6.00 Build 0)  -->
<!DOCTYPE svg PUBLIC "-//W3C//DTD SVG 1.1//EN" "http://www.w3.org/Graphics/SVG/1.1/DTD/svg11.dtd">
<svg version="1.1" id="Layer_1" xmlns="http://www.w3.org/2000/svg" xmlns:xlink="http://www.w3.org/1999/xlink" x="0px" y="0px"
	 width="96px" height="96px" viewBox="0 0 96 96" enable-background="new 0 0 96 96" xml:space="preserve">
<path d="M48,4C23.7,4,4,23.7,4,48c0,24.3,19.7,44,44,44s44-19.7,44-44C92,23.7,72.3,4,48,4z M48,84c-19.9,0-36-16.1-36-36
	c0-19.9,16.1-36,36-36s36,16.1,36,36C84,67.9,67.9,84,48,84z M62.8,57.2c1.6,1.6,1.6,4.1,0,5.7C62,63.6,61,64,60,64
	c-1,0-2-0.4-2.8-1.2l-12-12C44.4,50.1,44,49.1,44,48V24c0-2.2,1.8-4,4-4s4,1.8,4,4v22.3L62.8,57.2z"/>
</svg>
