<?xml version="1.0" encoding="utf-8"?>
<!-- Generator: Adobe Illustrator 21.0.0, SVG Export Plug-In . SVG Version: 6.00 Build 0)  -->
<svg version="1.1" id="Layer_1" xmlns="http://www.w3.org/2000/svg" xmlns:xlink="http://www.w3.org/1999/xlink" x="0px" y="0px"
	 viewBox="0 0 96 96" style="enable-background:new 0 0 96 96;" xml:space="preserve">
<path d="M93.4,42.7c1-1.5,0.7-3.5-0.7-4.6c-1.5-1.1-3.5-0.8-4.6,0.7C88,38.9,69.7,60.5,48,60.5c-21.1,0-40.2-21.8-40.3-22
	c-1.1-1.3-3.3-1.5-4.6-0.3c-1.3,1.1-1.5,3.3-0.3,4.6c0.3,0.5,4.3,5,10.5,9.9l-8.5,8.7c-1.3,1.3-1.1,3.5,0.2,4.6c0.3,0.7,1.1,1,2,1
	c0.9,0,1.7-0.4,2.3-1l9-9.4c4.3,2.9,9.4,5.8,15,7.8l-3.5,11.7c-0.5,1.8,0.5,3.6,2.3,4.1h1c1.5,0,2.8-1,3.2-2.5l3.5-11.7
	c2.6,0.5,5.4,0.8,8.2,0.8c2.8,0,5.6-0.3,8.2-0.8l3.5,11.5c0.3,1.5,1.8,2.5,3.2,2.5c0.3,0,0.7,0,0.8-0.2c1.8-0.5,2.8-2.3,2.3-4.1
	l-3.5-11.5c5.6-2,10.7-4.8,15-7.8l8.9,9.3c0.6,0.6,1.4,1,2.3,1c0.9,0,1.7-0.4,2.3-1c1.3-1.2,1.3-3.3,0.2-4.6l-8.4-8.7
	C89.5,47.5,93.4,42.7,93.4,42.7L93.4,42.7z"/>
</svg>
