<?xml version="1.0" encoding="utf-8"?>
<!-- Generator: Adobe Illustrator 17.0.0, SVG Export Plug-In . SVG Version: 6.00 Build 0)  -->
<!DOCTYPE svg PUBLIC "-//W3C//DTD SVG 1.1//EN" "http://www.w3.org/Graphics/SVG/1.1/DTD/svg11.dtd">
<svg version="1.1" id="Layer_1" xmlns="http://www.w3.org/2000/svg" xmlns:xlink="http://www.w3.org/1999/xlink" x="0px" y="0px"
	 width="96px" height="96px" viewBox="0 0 96 96" enable-background="new 0 0 96 96" xml:space="preserve">
<g>
	<path d="M66.828,58.83c1.562-1.562,1.562-4.095,0-5.656l-12-12c-0.75-0.75-1.768-1.172-2.828-1.172s-2.078,0.422-2.828,1.172
		l-12,12c-1.562,1.562-1.562,4.095,0,5.656c1.562,1.562,4.095,1.562,5.656,0L48,53.659v26.343c0,2.209,1.791,4,4,4s4-1.791,4-4
		V53.659l5.172,5.171C62.733,60.393,65.267,60.393,66.828,58.83z"/>
	<path d="M60,8C44.327,8,31.002,18.019,26.058,32H24C10.746,32,0,42.745,0,56.001c0,13.255,10.746,24.001,24.001,24.001
		c0.026,0,0.051-0.002,0.077-0.002H40v-8H24c-2.209,0-4.313-0.448-6.227-1.257C12.029,68.313,8,62.628,8,56c0-8.837,7.164-16,16-16
		h8.298C34.24,26.434,45.896,16,60,16c15.464,0,28,12.536,28,28c0,14.105-10.431,25.775-24,27.716v8.065
		C81.999,77.79,96,62.529,96,44C96,24.118,79.882,8,60,8z"/>
</g>
</svg>
