<?xml version="1.0" encoding="utf-8"?>
<!-- Generator: Adobe Illustrator 24.0.1, SVG Export Plug-In . SVG Version: 6.00 Build 0)  -->
<svg version="1.1" id="Layer_1" xmlns="http://www.w3.org/2000/svg" xmlns:xlink="http://www.w3.org/1999/xlink" x="0px" y="0px"
	 viewBox="0 0 96 96" style="enable-background:new 0 0 96 96;" xml:space="preserve">
<style type="text/css">
	.st0{fill:#091F42;}
</style>
<title>形状结合</title>
<desc>Created with Sketch.</desc>
<title>Fill 3</title>
<desc>Created with Sketch.</desc>
<title>路径</title>
<desc>Created with Sketch.</desc>
<title>形状</title>
<desc>Created with Sketch.</desc>
<g>
	<path class="st0" d="M16,76V24.7c-4.7,1.6-8,6.1-8,11.3v40c0,6.6,5.4,12,12,12h40c5.2,0,9.7-3.3,11.3-8H20C17.8,80,16,78.2,16,76z"
		/>
	<path class="st0" d="M76,8H36c-6.6,0-12,5.4-12,12v40c0,6.6,5.4,12,12,12h40c6.6,0,12-5.4,12-12V20C88,13.4,82.6,8,76,8z M80,60
		c0,2.2-1.8,4-4,4H36c-2.2,0-4-1.8-4-4V20c0-2.2,1.8-4,4-4h40c2.2,0,4,1.8,4,4V60z"/>
</g>
</svg>
