<?xml version="1.0" encoding="utf-8"?>
<!-- Generator: Adobe Illustrator 17.0.0, SVG Export Plug-In . SVG Version: 6.00 Build 0)  -->
<!DOCTYPE svg PUBLIC "-//W3C//DTD SVG 1.1//EN" "http://www.w3.org/Graphics/SVG/1.1/DTD/svg11.dtd">
<svg version="1.1" id="Layer_1" xmlns="http://www.w3.org/2000/svg" xmlns:xlink="http://www.w3.org/1999/xlink" x="0px" y="0px"
	 width="96px" height="96px" viewBox="0 0 96 96" enable-background="new 0 0 96 96" xml:space="preserve">
<path d="M60,12c-15.7,0-29,10-33.9,24H24l0,0C10.7,36,0,46.7,0,60c0,13.3,10.7,24,24,24c0,0,0.1,0,0.1,0H60c19.9,0,36-16.1,36-36
	C96,28.1,79.9,12,60,12z M60,76H24c-8.8,0-16-7.2-16-16s7.2-16,16-16h8.3C34.2,30.4,45.9,20,60,20c15.5,0,28,12.5,28,28
	C88,63.5,75.5,76,60,76z"/>
</svg>
