<?xml version="1.0" encoding="utf-8"?>
<!-- Generator: Adobe Illustrator 17.0.0, SVG Export Plug-In . SVG Version: 6.00 Build 0)  -->
<!DOCTYPE svg PUBLIC "-//W3C//DTD SVG 1.1//EN" "http://www.w3.org/Graphics/SVG/1.1/DTD/svg11.dtd">
<svg version="1.1" id="Layer_1" xmlns="http://www.w3.org/2000/svg" xmlns:xlink="http://www.w3.org/1999/xlink" x="0px" y="0px"
	 width="96px" height="96px" viewBox="0 0 96 96" enable-background="new 0 0 96 96" xml:space="preserve">
<g>
	<path d="M59,47H43.461v-0.705c0-1.408,0.25-2.749,0.701-3.969c1.355-3.66,4.525-6.228,8.221-6.228c4.928,0,8.922,1.853,8.922,7.484
		h4.461C65.766,35.136,59.774,31,52.383,31S39,37.848,38.999,46.296c0,0.017,0.001,0.032,0.001,0.049v1.734
		c-2.389,1.384-4,3.962-4,6.921v4c0,4.418,3.582,8,8,8h16c4.418,0,8-3.582,8-8v-4C67,50.582,63.418,47,59,47z"/>
	<path d="M60,8C44.327,8,31.002,18.02,26.058,32H24C10.746,32,0,42.745,0,56.001c0,13.255,10.746,24.001,24.001,24.001
		c0.026,0,0.051-0.002,0.077-0.002H28l40-0.22C85.999,77.79,96,62.529,96,44C96,24.118,79.882,8,60,8z M68,71.716v0.034L28,72h-4
		c-2.209,0-4.313-0.448-6.228-1.257C12.029,68.313,8,62.628,8,56c0-8.837,7.164-16,16-16h8.298C34.24,26.434,45.896,16,60,16
		c15.464,0,28,12.536,28,28C88,58.105,81.569,69.775,68,71.716z"/>
</g>
</svg>
