<?xml version="1.0" encoding="utf-8"?>
<!-- Generator: Adobe Illustrator 24.0.1, SVG Export Plug-In . SVG Version: 6.00 Build 0)  -->
<svg version="1.1" id="Layer_1" xmlns="http://www.w3.org/2000/svg" xmlns:xlink="http://www.w3.org/1999/xlink" x="0px" y="0px"
	 viewBox="0 0 96 96" style="enable-background:new 0 0 96 96;" xml:space="preserve">
<style type="text/css">
	.st0{fill:#091F42;}
</style>
<title>形状结合</title>
<desc>Created with Sketch.</desc>
<title>Fill 3</title>
<desc>Created with Sketch.</desc>
<title>路径</title>
<desc>Created with Sketch.</desc>
<title>形状</title>
<desc>Created with Sketch.</desc>
<title>形状结合</title>
<desc>Created with Sketch.</desc>
<path id="形状结合" class="st0" d="M86.7,9.6c1.4,2.2,1.4,5.8,0,8L56,48.4l30,30c2.2,2.2,2.2,5.8,0,8c-2.2,2.2-5.8,2.2-8,0
	l-30-30l-30,30c-2.2,2.2-5.8,2.2-8,0c-2.2-2.2-2.2-5.8,0-8l30-30L9.3,17.6c-1.5-2.2-1.5-5.8,0-8c2.2-2.2,5.8-2.2,8,0L48,40.4
	L78.8,9.6C80.9,7.5,84.6,7.5,86.7,9.6z"/>
</svg>
