<?xml version="1.0" encoding="utf-8"?>
<!-- Generator: Adobe Illustrator 24.0.1, SVG Export Plug-In . SVG Version: 6.00 Build 0)  -->
<svg version="1.1" id="Layer_1" xmlns="http://www.w3.org/2000/svg" xmlns:xlink="http://www.w3.org/1999/xlink" x="0px" y="0px"
	 viewBox="0 0 96 96" style="enable-background:new 0 0 96 96;" xml:space="preserve">
<style type="text/css">
	.st0{fill-rule:evenodd;clip-rule:evenodd;fill:#091F42;}
</style>
<title>形状结合</title>
<desc>Created with Sketch.</desc>
<g id="页面-1">
	<g id="默认" transform="translate(-155.000000, -735.000000)">
		<g id="编组-8" transform="translate(0.000000, 722.000000)">
			<g id="编组-7" transform="translate(141.000000, 0.000000)">
				<path id="形状结合" class="st0" d="M62,21c22.1,0,40,17.9,40,40s-17.9,40-40,40S22,83.1,22,61S39.9,21,62,21z M81.9,43.8
					c-6.7-7.8-17.4-10.9-27.3-8l0,0l-1.1,0.4C42.8,39.9,35.8,49.8,35.8,61l0,0l0,1.2C36.3,73.1,43.5,82.6,54,86
					c10.9,3.5,22.8-0.5,29.4-9.8l0,0l0.7-1l-7.8-5.7l-0.7,1.1C71.5,76.4,64,79,57.1,76.9c-6.9-2.1-11.6-8.5-11.7-15.7
					c-0.1-7.2,4.5-13.7,11.3-15.9c6.2-2.1,13-0.3,17.4,4.4l0,0l0.5,0.5l-6.1,4.7l19.7,8V39.7l-6,4.6L81.9,43.8z"/>
			</g>
		</g>
	</g>
</g>
</svg>
