<?xml version="1.0" encoding="utf-8"?>
<!-- Generator: Adobe Illustrator 17.0.0, SVG Export Plug-In . SVG Version: 6.00 Build 0)  -->
<!DOCTYPE svg PUBLIC "-//W3C//DTD SVG 1.1//EN" "http://www.w3.org/Graphics/SVG/1.1/DTD/svg11.dtd">
<svg version="1.1" id="Layer_1" xmlns="http://www.w3.org/2000/svg" xmlns:xlink="http://www.w3.org/1999/xlink" x="0px" y="0px"
	 width="96px" height="96px" viewBox="0 0 96 96" enable-background="new 0 0 96 96" xml:space="preserve">
<path d="M60,11.999c-15.673,0-28.998,10.02-33.942,24H24l0,0C10.746,35.999,0,46.744,0,60c0,13.255,10.746,24.001,24.001,24.001
	c0.026,0,0.051-0.002,0.077-0.002H60c19.882,0,36-16.118,36-36S79.882,11.999,60,11.999z M60,75.999H24c-8.836,0-16-7.163-16-16
	s7.164-16,16-16h8.298c1.942-13.566,13.599-24,27.702-24c15.464,0,28,12.536,28,28S75.464,75.999,60,75.999z"/>
<path d="M67.5,59c2.485,0,4.5-2.015,4.5-4.5c0-2.485-2.015-4.5-4.5-4.5h-0.768c-0.16-1-0.342-1.142-0.547-1.571l0.544-0.668
	c1.757-1.757,1.757-4.669,0-6.427c-1.757-1.757-4.607-1.788-6.364-0.031l-0.793,0.528C59.142,41.626,59,41.428,58,41.268V40.5
	c0-2.485-2.015-4.5-4.5-4.5S49,38.015,49,40.5v0.768c0,0.16-0.642,0.342-1.071,0.547l-0.418-0.544c-1.757-1.757-4.544-1.757-6.302,0
	c-1.757,1.757-1.726,4.607,0.031,6.364l0.559,0.793C41.595,48.858,41.428,49,41.268,50H40.5c-2.485,0-4.5,2.015-4.5,4.5
	c0,2.485,2.015,4.5,4.5,4.5h0.768c0.16,0,0.342,0.642,0.547,1.071l-0.544,0.418c-1.757,1.757-1.757,4.544,0,6.302
	c1.757,1.757,4.607,1.726,6.364-0.031l0.293-0.559C48.358,66.405,49,66.572,49,66.732V67.5c0,2.485,2.015,4.5,4.5,4.5
	s4.5-2.015,4.5-4.5v-0.768c1-0.16,1.142-0.342,1.571-0.547l0.668,0.544c1.757,1.757,4.669,1.757,6.427,0
	c1.757-1.757,1.788-4.607,0.031-6.364l-0.528-0.293C66.374,59.642,66.572,59,66.732,59H67.5z M59.878,55.209
	c-0.48,2.344-2.325,4.189-4.669,4.669C54.819,59.958,54.414,60,54,60s-0.819-0.042-1.209-0.122c-2.344-0.48-4.189-2.325-4.669-4.669
	C48.042,54.819,48,54.414,48,54s0.042-0.819,0.122-1.209c0.48-2.344,2.325-4.189,4.669-4.669C53.181,48.042,53.586,48,54,48
	s0.819,0.042,1.209,0.122c2.344,0.48,4.189,2.325,4.669,4.669C59.958,53.181,60,53.586,60,54S59.958,54.819,59.878,55.209z"/>
</svg>
