<?xml version="1.0" encoding="utf-8"?>
<!-- Generator: Adobe Illustrator 17.0.0, SVG Export Plug-In . SVG Version: 6.00 Build 0)  -->
<!DOCTYPE svg PUBLIC "-//W3C//DTD SVG 1.1//EN" "http://www.w3.org/Graphics/SVG/1.1/DTD/svg11.dtd">
<svg version="1.1" id="Layer_1" xmlns="http://www.w3.org/2000/svg" xmlns:xlink="http://www.w3.org/1999/xlink" x="0px" y="0px"
	 width="96px" height="96px" viewBox="0 0 96 96" enable-background="new 0 0 96 96" xml:space="preserve">
<path fill="#272636" d="M89.284,28.275l-23.311-23.5c0,0-6.355-0.819-5.876,5.049l-0.004,6.361l-21.7,18.427L25.02,35.412
	c0,0-4.897,1.625-3.108,5.87l7.786,7.692l0,0l0.002,0.002l4.687,4.742L5.265,89.43c-0.403,0.523,0.274,1.192,0.792,0.781
	l35.318-29.422l13.302,13.459c0,0,5.377,1.47,5.711-2.601l-0.322-13.872l19.103-22.005l8.315-0.477
	C87.483,35.291,94.007,33.982,89.284,28.275z"/>
</svg>
