<?xml version="1.0" encoding="utf-8"?>
<!-- Generator: Adobe Illustrator 17.0.0, SVG Export Plug-In . SVG Version: 6.00 Build 0)  -->
<!DOCTYPE svg PUBLIC "-//W3C//DTD SVG 1.1//EN" "http://www.w3.org/Graphics/SVG/1.1/DTD/svg11.dtd">
<svg version="1.1" id="Layer_1" xmlns="http://www.w3.org/2000/svg" xmlns:xlink="http://www.w3.org/1999/xlink" x="0px" y="0px"
	 width="96px" height="96px" viewBox="0 0 96 96" enable-background="new 0 0 96 96" xml:space="preserve">
<path d="M84,12H12C5.4,12,0,17.4,0,24v48c0,6.6,5.4,12,12,12h72c6.6,0,12-5.4,12-12V24C96,17.4,90.6,12,84,12z M60,20v56H36V20H60z
	 M8,72V24c0-2.2,1.8-4,4-4h16v56H12C9.8,76,8,74.2,8,72z M88,72c0,2.2-1.8,4-4,4H68V20h16c2.2,0,4,1.8,4,4V72z"/>
</svg>
