<?xml version="1.0" encoding="utf-8"?>
<!-- Generator: Adobe Illustrator 17.0.0, SVG Export Plug-In . SVG Version: 6.00 Build 0)  -->
<!DOCTYPE svg PUBLIC "-//W3C//DTD SVG 1.1//EN" "http://www.w3.org/Graphics/SVG/1.1/DTD/svg11.dtd">
<svg version="1.1" id="Layer_1" xmlns="http://www.w3.org/2000/svg" xmlns:xlink="http://www.w3.org/1999/xlink" x="0px" y="0px"
	 width="96px" height="96px" viewBox="0 0 96 96" enable-background="new 0 0 96 96" xml:space="preserve">
<path d="M72,56L72,56h-8V40h8c8.8,0,16-7.2,16-16S80.8,8,72,8c-8.8,0-16,7.2-16,16v8H40v-8c0-8.8-7.2-16-16-16S8,15.2,8,24
	s7.2,16,16,16h8v16h-8l0,0l0,0c-8.8,0-16,7.2-16,16s7.2,16,16,16c8.8,0,16-7.2,16-16l0,0v-8h16v8c0,0,0,0,0,0c0,8.8,7.2,16,16,16
	c8.8,0,16-7.2,16-16S80.8,56,72,56z M72,16c4.4,0,8,3.6,8,8s-3.6,8-8,8h-8v-8C64,19.6,67.6,16,72,16z M16,24c0-4.4,3.6-8,8-8
	s8,3.6,8,8v8h-8C19.6,32,16,28.4,16,24z M24,80c-4.4,0-8-3.6-8-8s3.6-8,8-8l0,0h8v8C32,76.4,28.4,80,24,80z M40,56V40h16v16H40z
	 M72,80c-4.4,0-8-3.6-8-8l0,0v-8h8c4.4,0,8,3.6,8,8S76.4,80,72,80z"/>
</svg>
