<?xml version="1.0" encoding="utf-8"?>
<!-- Generator: Adobe Illustrator 17.0.0, SVG Export Plug-In . SVG Version: 6.00 Build 0)  -->
<!DOCTYPE svg PUBLIC "-//W3C//DTD SVG 1.1//EN" "http://www.w3.org/Graphics/SVG/1.1/DTD/svg11.dtd">
<svg version="1.1" id="Layer_1" xmlns="http://www.w3.org/2000/svg" xmlns:xlink="http://www.w3.org/1999/xlink" x="0px" y="0px"
	 width="96px" height="96px" viewBox="0 0 96 96" enable-background="new 0 0 96 96" xml:space="preserve">
<g>
	<path d="M82.073,1.488H63.008h-3.813H13.439C7.121,1.488,2,6.609,2,12.927v68.634C2,87.879,7.121,93,13.439,93h68.634
		c6.318,0,11.439-5.121,11.439-11.439V12.927C93.512,6.609,88.391,1.488,82.073,1.488z M85.886,81.561
		c0,2.106-1.707,3.813-3.813,3.813H13.439c-2.106,0-3.813-1.707-3.813-3.813V12.927c0-2.106,1.707-3.813,3.813-3.813h45.756h3.813
		h19.065c2.106,0,3.813,1.707,3.813,3.813V81.561z"/>
	<path d="M18,56h28c2.209,0,4-1.791,4-4V20c0-2.209-1.791-4-4-4H18c-2.209,0-4,1.791-4,4v32C14,54.209,15.791,56,18,56z M22,24h20
		v24H22V24z"/>
	<path d="M80.25,64c0,2.209-1.791,4-4,4h-59c-2.209,0-4-1.791-4-4s1.791-4,4-4h59C78.459,60,80.25,61.791,80.25,64z"/>
	<path d="M80.25,76c0,2.209-1.791,4-4,4h-59c-2.209,0-4-1.791-4-4s1.791-4,4-4h59C78.459,72,80.25,73.791,80.25,76z"/>
	<path d="M81,24c0,2.209-1.791,4-4,4H58c-2.209,0-4-1.791-4-4s1.791-4,4-4h19C79.209,20,81,21.791,81,24z"/>
	<path d="M81,36c0,2.209-1.791,4-4,4H58c-2.209,0-4-1.791-4-4s1.791-4,4-4h19C79.209,32,81,33.791,81,36z"/>
	<path d="M81,48c0,2.209-1.791,4-4,4H58c-2.209,0-4-1.791-4-4s1.791-4,4-4h19C79.209,44,81,45.791,81,48z"/>
</g>
</svg>
