<?xml version="1.0" encoding="utf-8"?>
<!-- Generator: Adobe Illustrator 22.1.0, SVG Export Plug-In . SVG Version: 6.00 Build 0)  -->
<svg version="1.1" id="Layer_1" xmlns="http://www.w3.org/2000/svg" xmlns:xlink="http://www.w3.org/1999/xlink" x="0px" y="0px"
	 viewBox="0 0 96 96" style="enable-background:new 0 0 96 96;" xml:space="preserve">
<g>
	<path d="M71.1,46.2c-13.8,0-24.9,11.2-24.9,24.9C46.2,84.8,57.3,96,71.1,96C84.8,96,96,84.8,96,71.1C96,57.3,84.8,46.2,71.1,46.2z
		 M71.1,89.8c-10.3,0-18.7-8.4-18.7-18.7s8.4-18.7,18.7-18.7c10.3,0,18.7,8.4,18.7,18.7S81.4,89.8,71.1,89.8z"/>
	<polygon points="75.2,66.5 71.1,58.6 67,66.5 58.6,68.1 64.4,74.7 63.4,83.5 71.1,79.7 78.8,83.5 77.7,74.7 83.5,68.1 	"/>
	<path d="M32,20c-2.2,0-4,1.8-4,4s1.8,4,4,4h32c2.2,0,4-1.8,4-4s-1.8-4-4-4H32z"/>
	<path d="M58,40c0-2.2-1.8-4-4-4H32c-2.2,0-4,1.8-4,4s1.8,4,4,4h10h12C56.2,44,58,42.2,58,40z"/>
	<path d="M38,88H20c-2.2,0-4-1.8-4-4V12c0-2.2,1.8-4,4-4h56c2.2,0,4,1.8,4,4v28c0,2.2,1.8,4,4,4s4-1.8,4-4V12c0-6.6-5.4-12-12-12H20
		C13.4,0,8,5.4,8,12v72c0,6.6,5.4,12,12,12h18c2.2,0,4-1.8,4-4S40.2,88,38,88z"/>
	<path d="M38,52h-6c-2.2,0-4,1.8-4,4s1.8,4,4,4h6c2.2,0,4-1.8,4-4S40.2,52,38,52z"/>
</g>
</svg>
