<?xml version="1.0" encoding="utf-8"?>
<!-- Generator: Adobe Illustrator 17.0.0, SVG Export Plug-In . SVG Version: 6.00 Build 0)  -->
<!DOCTYPE svg PUBLIC "-//W3C//DTD SVG 1.1//EN" "http://www.w3.org/Graphics/SVG/1.1/DTD/svg11.dtd">
<svg version="1.1" id="Layer_1" xmlns="http://www.w3.org/2000/svg" xmlns:xlink="http://www.w3.org/1999/xlink" x="0px" y="0px"
	 width="96px" height="96px" viewBox="0 0 96 96" enable-background="new 0 0 96 96" xml:space="preserve">
<path d="M52,16v16c0,6.6,5.4,12,12,12h16c6.6,0,12-5.4,12-12V16c0-6.6-5.4-12-12-12H64C57.4,4,52,9.4,52,16z M60,16c0-2.2,1.8-4,4-4
	h16c2.2,0,4,1.8,4,4v16c0,2.2-1.8,4-4,4H64c-2.2,0-4-1.8-4-4V16z M4,16v64c0,6.6,5.4,12,12,12h16c6.6,0,12-5.4,12-12V16
	c0-6.6-5.4-12-12-12H16C9.4,4,4,9.4,4,16z M12,16c0-2.2,1.8-4,4-4h16c2.2,0,4,1.8,4,4v64c0,2.2-1.8,4-4,4H16c-2.2,0-4-1.8-4-4V16z
	 M52,64v16c0,6.6,5.4,12,12,12h16c6.6,0,12-5.4,12-12V64c0-6.6-5.4-12-12-12H64C57.4,52,52,57.4,52,64z M60,64c0-2.2,1.8-4,4-4h16
	c2.2,0,4,1.8,4,4v16c0,2.2-1.8,4-4,4H64c-2.2,0-4-1.8-4-4V64z"/>
</svg>
