<?xml version="1.0" encoding="utf-8"?>
<!-- Generator: Adobe Illustrator 17.0.0, SVG Export Plug-In . SVG Version: 6.00 Build 0)  -->
<!DOCTYPE svg PUBLIC "-//W3C//DTD SVG 1.1//EN" "http://www.w3.org/Graphics/SVG/1.1/DTD/svg11.dtd">
<svg version="1.1" id="Layer_1" xmlns="http://www.w3.org/2000/svg" xmlns:xlink="http://www.w3.org/1999/xlink" x="0px" y="0px"
	 width="96px" height="96px" viewBox="0 0 96 96" enable-background="new 0 0 96 96" xml:space="preserve">
<path d="M77.883,22H68v-9.882C68,6.539,63.462,2,57.883,2H18.118C12.539,2,8,6.539,8,12.118v39.765C8,57.462,12.539,62,18.118,62H28
	v9.883C28,77.462,32.539,82,38.118,82h39.765C83.462,82,88,77.462,88,71.883V32.118C88,26.539,83.462,22,77.883,22z M18.118,54
	C16.95,54,16,53.05,16,51.883V12.118C16,10.95,16.95,10,18.118,10h39.765C59.05,10,60,10.95,60,12.118V22H38.118
	C32.539,22,28,26.539,28,32.118V54H18.118z M60,30v21.883C60,53.05,59.05,54,57.883,54H36V32.118C36,30.95,36.95,30,38.118,30H60z
	 M80,71.883C80,73.05,79.05,74,77.883,74H38.118C36.95,74,36,73.05,36,71.883V62h21.883C63.462,62,68,57.462,68,51.883V30h9.883
	C79.05,30,80,30.95,80,32.118V71.883z"/>
</svg>
