<?xml version="1.0" encoding="utf-8"?>
<!-- Generator: Adobe Illustrator 21.0.0, SVG Export Plug-In . SVG Version: 6.00 Build 0)  -->
<svg version="1.1" id="Layer_1" xmlns="http://www.w3.org/2000/svg" xmlns:xlink="http://www.w3.org/1999/xlink" x="0px" y="0px"
	 viewBox="0 0 96 96" style="enable-background:new 0 0 96 96;" xml:space="preserve">
<g>
	<path d="M69.3,36.9h-44c-1.1,0-2.3,0.1-3.3,0.4v-16l0-0.3c0,0-0.2-4.2,2.2-6.8c1.4-1.5,3.5-2.2,6.4-2.2c2.3,0,3,0,4.2,0
		c2.4,0,6.8,0,30.4,0.1c1.3,0.1,8.1,1.1,8.1,8v9.3c0,2.2,1.8,4,4,4s4-1.8,4-4v-9.3c0-11.8-10.2-15.6-15.6-16l-0.3,0
		C41.6,4,37.1,4,34.7,4c-1.2,0-1.9,0-4.2,0c-5.2,0-9.3,1.6-12.2,4.8C13.8,13.5,13.9,20,14,21.3v20.3c-2.9,2.9-4.7,6.9-4.7,11.3v23.3
		c0,8.8,7.2,16,16,16h44c8.8,0,16-7.2,16-16V52.9C85.3,44.1,78.2,36.9,69.3,36.9z M77.3,76.2c0,4.4-3.6,8-8,8h-44c-4.4,0-8-3.6-8-8
		V52.9c0-4.4,3.6-8,8-8h44c4.4,0,8,3.6,8,8V76.2z"/>
	<path d="M47.9,52.4c-6.8,0-12.4,5.6-12.4,12.4s5.6,12.4,12.4,12.4c6.8,0,12.4-5.6,12.4-12.4S54.7,52.4,47.9,52.4z M47.9,69.1
		c-2.4,0-4.4-2-4.4-4.4s2-4.4,4.4-4.4c2.4,0,4.4,2,4.4,4.4S50.3,69.1,47.9,69.1z"/>
</g>
</svg>
