<?xml version="1.0" encoding="utf-8"?>
<!-- Generator: Adobe Illustrator 24.0.1, SVG Export Plug-In . SVG Version: 6.00 Build 0)  -->
<svg version="1.1" id="图层_1" xmlns="http://www.w3.org/2000/svg" xmlns:xlink="http://www.w3.org/1999/xlink" x="0px" y="0px"
	 viewBox="0 0 96 96" style="enable-background:new 0 0 96 96;" xml:space="preserve">
<style type="text/css">
	.st0{fill:#080000;}
</style>
<title>04 21 应用管理图标、资源管理图标2个icon设计</title>
<path class="st0" d="M40.6,1.2L72,15.3c0.9,0.4,1.7,1,2.4,1.8L86,32.1c0.4,0.5,0.4,1.2-0.1,1.7c-0.4,0.3-0.9,0.4-1.3,0.2L53.1,19.7
	c-0.9-0.4-1.7-1-2.4-1.8L39.1,3c-0.5-0.5-0.4-1.2,0-1.7C39.5,1,40.1,0.9,40.6,1.2z"/>
<path class="st0" d="M80.1,36.7L51.7,23.9c-0.8-0.3-1.6,0-2,0.8c-0.1,0.2-0.1,0.4-0.1,0.6v7.3c8.1,0.4,15.5,4.3,20.6,10.6l9.9-3.9
	c0.7-0.3,1-1.2,0.7-1.9C80.6,37.1,80.4,36.8,80.1,36.7z"/>
<path class="st0" d="M46.4,32.6v-7.3c0-0.8-0.7-1.5-1.5-1.5c-0.2,0-0.4,0-0.6,0.1L15.9,36.7c-0.7,0.3-1.1,1.1-0.8,1.9
	c0.1,0.4,0.4,0.6,0.8,0.8l9.9,3.9C30.9,36.9,38.4,33,46.4,32.6z"/>
<path class="st0" d="M42.6,94.9L11.7,81.1c-1.5-0.7-2.5-2.2-2.5-3.8V44c0-1.2,1-2.2,2.2-2.2c0.3,0,0.6,0.1,0.8,0.2L43,54
	c1.6,0.6,2.6,2.2,2.6,3.9v34.8c0,1.2-1,2.2-2.3,2.2C43.1,95,42.9,94.9,42.6,94.9z"/>
<path class="st0" d="M53.4,94.9l30.9-13.7c1.5-0.7,2.5-2.2,2.5-3.8V44c0-1.2-1-2.2-2.2-2.2c-0.3,0-0.6,0.1-0.8,0.2L53,54
	c-1.6,0.6-2.6,2.2-2.6,3.9v34.8c0,1.2,1,2.2,2.3,2.2C52.9,95,53.1,94.9,53.4,94.9z"/>
</svg>
