<?xml version="1.0" encoding="utf-8"?>
<!-- Generator: Adobe Illustrator 17.0.0, SVG Export Plug-In . SVG Version: 6.00 Build 0)  -->
<!DOCTYPE svg PUBLIC "-//W3C//DTD SVG 1.1//EN" "http://www.w3.org/Graphics/SVG/1.1/DTD/svg11.dtd">
<svg version="1.1" id="Layer_1" xmlns="http://www.w3.org/2000/svg" xmlns:xlink="http://www.w3.org/1999/xlink" x="0px" y="0px"
	 width="96px" height="96px" viewBox="0 0 96 96" enable-background="new 0 0 96 96" xml:space="preserve">
<path d="M80,8H16C9.37,8,4,13.37,4,20v40c0,6.63,5.37,12,12,12h28v8H32c-2.209,0-4,1.791-4,4c0,2.209,1.791,4,4,4h32
	c2.209,0,4-1.791,4-4c0-2.209-1.791-4-4-4H52v-8h28c6.63,0,12-5.37,12-12V20C92,13.37,86.63,8,80,8z M84,60c0,2.21-1.79,4-4,4H16
	c-2.21,0-4-1.79-4-4V20c0-2.21,1.79-4,4-4h64c2.21,0,4,1.79,4,4V60z"/>
</svg>
