<?xml version="1.0" encoding="utf-8"?>
<!-- Generator: Adobe Illustrator 22.1.0, SVG Export Plug-In . SVG Version: 6.00 Build 0)  -->
<svg version="1.1" id="Layer_1" xmlns="http://www.w3.org/2000/svg" xmlns:xlink="http://www.w3.org/1999/xlink" x="0px" y="0px"
	 viewBox="0 0 96 96" style="enable-background:new 0 0 96 96;" xml:space="preserve">
<style type="text/css">
	.st0{fill:#040000;}
</style>
<path d="M80,8H16C9.4,8,4,13.4,4,20v40c0,6.6,5.4,12,12,12h28v8H32c-2.2,0-4,1.8-4,4s1.8,4,4,4h32c2.2,0,4-1.8,4-4s-1.8-4-4-4H52v-8
	h28c6.6,0,12-5.4,12-12V20C92,13.4,86.6,8,80,8z M84,60c0,2.2-1.8,4-4,4H16c-2.2,0-4-1.8-4-4V20c0-2.2,1.8-4,4-4h64c2.2,0,4,1.8,4,4
	V60z"/>
<g>
	<rect x="25.8" y="28" class="st0" width="8" height="8"/>
	<rect x="25.8" y="44" class="st0" width="8" height="8"/>
	<rect x="41.8" y="28" class="st0" width="28.5" height="8"/>
	<rect x="41.8" y="44" class="st0" width="28.5" height="8"/>
</g>
</svg>
