<?xml version="1.0" encoding="utf-8"?>
<!-- Generator: Adobe Illustrator 17.0.0, SVG Export Plug-In . SVG Version: 6.00 Build 0)  -->
<!DOCTYPE svg PUBLIC "-//W3C//DTD SVG 1.1//EN" "http://www.w3.org/Graphics/SVG/1.1/DTD/svg11.dtd">
<svg version="1.1" id="Layer_1" xmlns="http://www.w3.org/2000/svg" xmlns:xlink="http://www.w3.org/1999/xlink" x="0px" y="0px"
	 width="96px" height="96px" viewBox="0 0 96 96" enable-background="new 0 0 96 96" xml:space="preserve">
<path d="M11.8,39.167c-1.345,0-2.658-0.678-3.413-1.908c-1.156-1.883-0.566-4.346,1.317-5.501l36.12-22.167
	c1.884-1.155,4.345-0.566,5.502,1.317c1.155,1.883,0.565,4.346-1.317,5.501l-36.12,22.167C13.236,38.976,12.514,39.167,11.8,39.167z
	"/>
<path d="M86.163,39.167c-0.681,0-1.37-0.174-2.002-0.54L45.911,16.46c-1.912-1.108-2.563-3.555-1.456-5.466s3.556-2.563,5.466-1.456
	l38.251,22.167c1.911,1.108,2.562,3.555,1.455,5.466C88.886,38.452,87.543,39.167,86.163,39.167z"/>
<path d="M63.25,47.5h-28.5c-2.209,0-4-1.791-4-4s1.791-4,4-4h28.5c2.209,0,4,1.791,4,4S65.459,47.5,63.25,47.5z"/>
<path d="M63.25,58.5h-28.5c-2.209,0-4-1.791-4-4s1.791-4,4-4h28.5c2.209,0,4,1.791,4,4S65.459,58.5,63.25,58.5z"/>
<path d="M63.25,69.5h-28.5c-2.209,0-4-1.791-4-4s1.791-4,4-4h28.5c2.209,0,4,1.791,4,4S65.459,69.5,63.25,69.5z"/>
<g>
	<path d="M78.523,32.833v43.801c0,1.551-1.297,2.812-2.89,2.812H23.608c-1.594,0-2.89-1.262-2.89-2.812V32.833h-7.226v43.801
		c0,5.427,4.538,9.843,10.116,9.843h52.024c5.578,0,10.116-4.416,10.116-9.843V32.833H78.523z"/>
</g>
</svg>
