<?xml version="1.0" encoding="utf-8"?>
<!-- Generator: Adobe Illustrator 21.0.0, SVG Export Plug-In . SVG Version: 6.00 Build 0)  -->
<svg version="1.1" id="Layer_1" xmlns="http://www.w3.org/2000/svg" xmlns:xlink="http://www.w3.org/1999/xlink" x="0px" y="0px"
	 width="96px" height="96px" viewBox="0 0 96 96" style="enable-background:new 0 0 96 96;" xml:space="preserve">
<g>
	<path d="M36.9,11.1L36.9,11.1C36.9,5,41.9,0,48,0h0c6.1,0,11.1,5,11.1,11.1v0c0,6.1-5,11.1-11.1,11.1h0
		C41.9,22.2,36.9,17.2,36.9,11.1z"/>
	<path d="M11.1,66.5V44.3c0-4.1,3.3-7.4,7.4-7.4h0c4.1,0,7.4,3.3,7.4,7.4v22.2c0,4.1-3.3,7.4-7.4,7.4h0
		C14.4,73.8,11.1,70.5,11.1,66.5z"/>
	<path d="M40.6,88.6V44.3c0-4.1,3.3-7.4,7.4-7.4h0c4.1,0,7.4,3.3,7.4,7.4v44.3c0,4.1-3.3,7.4-7.4,7.4h0C43.9,96,40.6,92.7,40.6,88.6
		z"/>
	<path d="M70.2,66.5V44.3c0-4.1,3.3-7.4,7.4-7.4h0c4.1,0,7.4,3.3,7.4,7.4l0,22.2c0,4.1-3.3,7.4-7.4,7.4h0
		C73.5,73.8,70.2,70.5,70.2,66.5z"/>
</g>
</svg>
