<?xml version="1.0" encoding="utf-8"?>
<!-- Generator: Adobe Illustrator 17.0.0, SVG Export Plug-In . SVG Version: 6.00 Build 0)  -->
<!DOCTYPE svg PUBLIC "-//W3C//DTD SVG 1.1//EN" "http://www.w3.org/Graphics/SVG/1.1/DTD/svg11.dtd">
<svg version="1.1" id="Layer_1" xmlns="http://www.w3.org/2000/svg" xmlns:xlink="http://www.w3.org/1999/xlink" x="0px" y="0px"
	 width="96px" height="96px" viewBox="0 0 96 96" enable-background="new 0 0 96 96" xml:space="preserve">
<g id="Wlk7Oe.tif">
	<g>
		<path d="M85.19,31.244c-0.372-2.374-0.206-4.394-1.017-5.882c-1.945-3.569-4.012-7.181-6.66-10.228
			c-2.806-3.228-6.023-6.464-11.125-5.447c-0.401,0.08-0.903-0.324-1.353-0.517c-1.94-0.834-3.833-2.19-5.829-2.363
			c-1.91-0.166-3.866,0.385-5.633-0.816c-0.054-0.036-0.144-0.056-0.205-0.039c-1.597,0.431-3.192,0.868-4.851,1.322
			c0.12-0.417,0.207-0.717,0.293-1.017c-0.977-0.059-2.133-0.487-2.903-0.116c-4.681,2.258-9.412,4.471-13.835,7.176
			c-2.088,1.277-3.565,3.58-5.233,5.492c-0.392,0.45-0.439,1.201-0.644,1.813c-0.113-0.172-0.226-0.344-0.34-0.516
			c-0.439,2.094-0.189,4.914-1.466,6.126c-2.438,2.315-2.957,5.169-3.927,7.977c-0.327,0.948-0.804,1.897-0.876,2.87
			c-0.124,1.676,0.181,3.388,0.018,5.056c-1.022,10.424,1.058,20.111,6.664,29.002c0.214,0.339,0.334,0.737,0.497,1.108
			c-4.96-6.404-7.959-13.593-8.273-21.649c-0.303-7.781-0.554-15.626,3.2-22.938c-0.201-0.046-0.403-0.092-0.604-0.138
			c-0.63,1.686-1.26,3.373-2.135,5.715c-0.6-1.208-0.97-1.955-1.341-2.702c-0.523,1.279-0.804,2.667-0.755,4.043
			c0.109,3.088,0.447,6.168,0.568,9.255c0.116,2.963-0.293,5.991,0.169,8.888c2.056,12.88,8.796,23.121,18.575,31.45
			c3.726,3.174,8.188,5.109,13.058,5.724c2.577,0.325,5.23,0.058,7.848,0.058c0.019-0.188,0.038-0.375,0.056-0.563
			c-1.726-0.581-3.418-1.315-5.187-1.706c-2.391-0.528-4.644-1.058-5.959-3.463c-0.274-0.501-1.151-0.699-1.778-0.971
			c-0.642-0.278-1.633-0.279-1.923-0.743c-1.041-1.666-2.835-1.986-4.325-2.862c-0.339-0.199-0.34-0.972-0.538-1.614
			c-1.537-0.619-3.082-1.447-2.443-3.479c-3.814-1.891-3.968-5.808-5.73-9.43c1.175,0.347,1.921,0.568,2.668,0.789
			c-0.255-0.604-0.7-0.876-1.149-1.142c-0.535-0.318-1.194-0.523-1.586-0.966c-1.062-1.199-1.886-2.63-3.035-3.727
			c-1.874-1.79-2.001-3.343-0.682-4.539c-0.753-2.297-2.107-4.104-2.191-6.425c-0.094-2.603-0.022-5.212-0.022-8.364
			c-0.262,3.529-0.485,6.529-0.708,9.529c-0.184-0.037-0.368-0.073-0.551-0.11c0.827-6.916-0.586-14.333,5.443-20.274
			c-0.836,0.102-1.174,0.143-2.02,0.246c3.572-4.327,6.638-8.458,12.481-10.109c-0.431,0.712-0.579,0.957-0.776,1.283
			c0.378,0.044,0.719,0.127,1.056,0.111c0.398-0.018,0.792-0.122,1.313-0.209c-1.606-1.207-1.306-1.7,1.494-3.476
			c-1.307,0.627-2.614,1.254-4.274,2.05c2.04-2.857,4.802-2.348,7.287-2.694c0.604-0.084,1.175-0.414,1.76-0.631
			c-0.063-0.148-0.127-0.297-0.19-0.445c-0.869,0.085-1.737,0.17-2.606,0.255c-0.004-0.095-0.009-0.19-0.013-0.284
			c1.804-0.519,3.607-1.038,5.859-1.687c-0.756,0.618-1.175,0.961-1.593,1.303c3.854-0.577,7.663-1.132,11.392-0.794
			c7.372,0.668,11.902,5.644,15.741,11.41c0.943,1.416,2.193,2.663,2.931,4.169c0.567,1.158,0.696,2.594,0.768,3.92
			c0.185,3.424,0.327,6.858,0.264,10.283c-0.015,0.841-0.682,2.025-1.398,2.422c-1.292,0.717-1.691,1.703-2.009,2.995
			c-0.88,3.579-3.999,6.374-7.511,6.632c0.907-0.78,1.629-1.4,2.352-2.02c-0.129-0.148-0.257-0.297-0.386-0.445
			c-0.819,0.741-1.717,1.412-2.443,2.235c-2.265,2.568-10.597,2.571-12.711-0.014c-0.825-1.009-1.746-1.941-2.626-2.906
			c-3.624-3.971-6.258-8.361-5.796-14.009c0.065-0.794,0.388-1.568,0.7-2.765c-2.091,3.178-2.644,7.691-1.521,11.821
			c0.51,1.874,0.642,3.589-1.143,5.163c2.942,4.301,6.615,7.295,11.807,8.526c-0.208-0.64-0.355-1.09-0.512-1.572
			c0.857,0.066,1.538,0.119,2.262,0.175c-0.855-0.526-1.63-1.004-2.405-1.481c1.774-0.254,3.3,0.062,4.83,0.086
			c1.544,0.024,3.13-0.081,4.629-0.427c1.498-0.346,2.956-0.966,4.347-1.642c1.392-0.677,2.707-1.527,4.003-2.383
			c1.062-0.701,2.045-1.521,3.064-2.288c0.135,0.189,0.27,0.378,0.405,0.567c0.311-1.283,0.622-2.565,0.946-3.9
			c0.502,0.358,0.775,0.553,1.076,0.768c0.376-1.09,0.691-2.005,1.006-2.921c0.106,0.04,0.212,0.081,0.317,0.121
			c-0.047,0.482-0.094,0.965-0.141,1.447c0.116,0.022,0.232,0.045,0.348,0.068c0.666-2.092,1.333-4.184,1.976-6.205
			c0.044,0.055,0.216,0.273,0.437,0.553c0.132-5.428,1.104-10.785-0.934-16.401C82.669,28.374,83.762,29.618,85.19,31.244z"/>
		<path d="M52.551,26.746c-4.762,0.288-9.273,3.587-10.573,7.902c5.67-6.702,9.841-8.738,13.667-7.034
			c-1.808,0.357-3.961,0.782-6.114,1.207c0.059,0.265,0.118,0.531,0.178,0.796c4.47-2.098,8.316-0.298,12.058,2.157
			c0.139-0.219,0.279-0.439,0.418-0.658c-0.767-1.086-1.534-2.171-2.307-3.266c1.562-1.963,1.562-1.963,0.404-3.49
			c0.623,1.86-0.141,2.665-1.698,2.816c-1.363,0.132-2.771,0.208-2.652-1.339C54.851,26.14,53.715,26.676,52.551,26.746z"/>
		<path d="M56.322,50.079c-1.376-1.336-2.91-2.825-4.288-4.162C52.367,49.489,53.622,50.68,56.322,50.079z"/>
		<path d="M45.034,34.541c2.68-3.118,6.115-4.747,10.191-5.145C51.286,28.919,47.415,30.861,45.034,34.541z"/>
	</g>
</g>
</svg>
