<?xml version="1.0" encoding="utf-8"?>
<!-- Generator: Adobe Illustrator 22.1.0, SVG Export Plug-In . SVG Version: 6.00 Build 0)  -->
<svg version="1.1" id="Layer_1" xmlns="http://www.w3.org/2000/svg" xmlns:xlink="http://www.w3.org/1999/xlink" x="0px" y="0px"
	 viewBox="0 0 96 96" style="enable-background:new 0 0 96 96;" xml:space="preserve">
<style type="text/css">
	.st0{fill:#040000;}
</style>
<g>
	<path class="st0" d="M50.8,41.5h-9c-1.8,0-3.6,1.8-3.6,3.5v5.7c0,1.8,1.3,3.7,3.5,3.9H45h8.7c0,0,0,0,0,0c0,0,0.1,0,0.1,0
		c0,0,0.1,0,0.1,0c0,0,0.1,0,0.1,0c0,0,0,0,0.1,0c0,0,0-0.1,0.1-0.1c0,0,0,0,0,0c0-0.1,0-0.1,0-0.2v-0.3v-1.5c0,0,0,0,0-0.1
		c0,0,0,0,0,0c0,0,0,0,0,0c0,0,0,0,0,0c0,0,0-0.1,0-0.1c0,0,0,0,0,0c0,0-0.1-0.1-0.1-0.1c0,0,0,0-0.1,0c0,0-0.1,0-0.1,0
		c0,0,0.1,0,0.1,0c-0.1,0-0.1-0.1-0.2-0.1H43.2c-1.2,0-1.5-0.6-1.5-1.5v-0.9v0h10.2c1.7-0.1,2.9-0.6,2.9-1.8v-3.2
		C54.7,42.8,52.7,41.5,50.8,41.5z M43.2,52.3l10.5,0V54L45,54c-1.6-0.1-2.4-0.7-2.7-1.8C42.6,52.3,42.8,52.3,43.2,52.3z M51.5,46
		c0,0.5-0.5,0.7-1,0.7h-9v-1.1c0-0.8,0.5-1.4,1.4-1.4h7.1c0.8,0,1.5,0.4,1.5,1V46z"/>
	<polygon class="st0" points="54.2,52.3 54.2,52.3 54.2,52.3 	"/>
	<path class="st0" d="M76.5,36.8h-2.6c-0.3,0-0.6,0.2-0.6,0.6v0.2v2.4c0,0.3,0.2,0.6,0.6,0.6h2.5h0c0.3,0,0.6-0.2,0.6-0.6v-2.6
		C77,37,76.8,36.8,76.5,36.8z M73.9,39.9C73.9,39.9,73.9,39.9,73.9,39.9l0-0.6c0.2,0.2,0.4,0.4,0.6,0.6H73.9z"/>
	<path class="st0" d="M70.5,43.2c-1.1-1.2-2.7-1.8-4.7-1.8h-7.4c-1.5,0-2.5,0.9-2.6,2.5v14.8c0,0.3,0.2,0.5,0.5,0.5h2.5
		c0.2,0,0.4-0.1,0.4-0.5v-4.2h6.3c0.2,0,0.5,0,0.7,0c0.1,0,0.2,0,0.2,0c0,0,0,0,0,0c0,0,0,0,0,0c0.9-0.1,1.6-0.2,2.2-0.4
		c0,0,0,0,0,0c0,0,0,0,0,0c0.1,0,0.1-0.1,0.2-0.1c-0.1,0-0.1,0.1-0.1,0.1c0.8-0.3,1.4-0.8,2-1.5c0.5-0.6,0.8-1.3,1.1-2
		c0.2-0.7,0.3-1.5,0.3-2.4C72.2,46.1,71.7,44.4,70.5,43.2z M59.3,45.2c0-0.6,0.3-0.9,1-1H65c1.1,0,1.9,0.2,2.5,0.6c0,0,0,0,0,0
		c0,0,0,0,0,0c0,0,0,0,0,0c0.1,0.1,0.2,0.1,0.3,0.2c0.5,0.6,1,1.5,1,2.8c0,1.4-0.4,2.3-1,2.9c-0.1,0.1-0.3,0.2-0.5,0.3
		c-0.1,0-0.2,0.1-0.3,0.1c-0.1,0-0.2,0.1-0.3,0.1c-0.1,0-0.2,0.1-0.4,0.1c-0.1,0-0.2,0.1-0.4,0.1c-0.1,0-0.2,0-0.4,0.1
		c-0.2,0-0.4,0-0.6,0c-0.1,0-0.2,0-0.2,0h-5.4V45.2z M68.5,53.6c-0.7,0.3-1.7,0.4-2.9,0.4h-5.8v-1.8h4.9c1.5,0,2.7-0.3,3.3-1
		c0.8-0.8,1.2-1.9,1.2-3.3c0-0.6-0.1-1.1-0.2-1.6c0.9,0.9,1.3,2.1,1.4,3.1C70.6,51.3,69.8,52.9,68.5,53.6z"/>
	<path class="st0" d="M18.9,36.8h-2.5c-0.2,0-0.5,0.2-0.5,0.5l0,4.3H9.6c-1.3,0-2.3,0.2-3.1,0.5c-0.8,0.3-1.5,0.8-2,1.5
		c-0.5,0.6-0.8,1.3-1.1,2C3.1,46.2,3,47,3,47.9c0,1.9,0.5,3.3,1.3,4.5c0,0,0,0.1,0.1,0.1c0,0,0.1,0.1,0.1,0.1c0,0,0-0.1-0.1-0.1
		c0.1,0.1,0.2,0.2,0.3,0.3c1.1,1.2,2.7,1.8,4.7,1.8h3h4.4c1.5,0,2.5-0.9,2.6-2.5V37.2C19.4,36.9,19.1,36.8,18.9,36.8z M9.5,44.4
		C9.5,44.4,9.5,44.4,9.5,44.4l-0.4,0L9.5,44.4z M12.4,54h-3c-1.9,0-3.3-0.5-4.3-1.6c-0.9-0.9-1.1-2.7-0.5-4.3c0.3-0.7,0.8-1.7,2-2.4
		C6.1,46.4,6,47.2,6,48.1c0,1.3,0.4,2.4,1.1,3.2c0.7,0.7,1.7,1,3.1,1l4.7,0c0.1,0,0.3,0,0.4-0.1C15,53.4,14.1,54,12.4,54z
		 M15.9,50.8c0,0.6-0.3,0.9-1,1h-4.7c-1.3,0-2.2-0.3-2.8-0.8c-0.5-0.5-1-1.5-1-2.8c0-1.4,0.5-2.3,1-2.9c0.4-0.4,1-0.7,1.8-0.8
		c0.4-0.1,0.8-0.1,1.2-0.1h5.4V50.8z"/>
	<path class="st0" d="M76.6,41.5H74h-0.2c-0.3,0-0.5,0.2-0.5,0.5v12.2c0,0.3,0.2,0.5,0.5,0.5h2.8c0.3,0,0.5-0.2,0.5-0.5v-4.7v-7.5
		C77,41.7,76.8,41.5,76.6,41.5z M76.5,44.8c-0.4-1-0.9-2-1.4-2.8h1.4V44.8z"/>
	<path class="st0" d="M33.2,41.5h-9c-1.8,0-3.6,1.8-3.6,3.5v5.7c0,1.8,1.3,3.7,3.5,3.9h3.2h8.7h0c0,0,0,0,0,0s0,0,0,0c0,0,0,0,0.1,0
		c0,0,0,0,0,0c0,0,0.1,0,0.1,0c0,0,0,0,0,0c0,0,0,0,0,0c0,0,0.1,0,0.1,0c0,0,0,0,0.1,0c0,0,0,0,0.1,0c0,0,0-0.1,0.1-0.1
		c0,0,0,0,0-0.1c0-0.1,0-0.1,0-0.2v-1.8v0c0-0.1,0-0.2-0.1-0.2c0,0,0,0,0,0c0,0,0,0,0,0c0,0,0,0,0,0c0,0,0,0,0,0c0,0,0,0,0,0
		c0,0-0.1-0.1-0.1-0.1c0,0,0,0-0.1,0c0,0-0.1,0-0.1,0c0,0,0,0,0,0c0,0,0,0,0,0c0,0,0,0-0.1,0c0,0,0,0,0,0c0,0,0,0,0,0h0H25.6
		c-1.2,0-1.5-0.6-1.5-1.5v-0.9v0h10.2c1.7-0.1,2.9-0.6,2.9-1.8v-3.2C37.1,42.8,35.1,41.5,33.2,41.5z M25.6,52.3l10.5,0l0,1.7l-8.6,0
		c-1.6-0.1-2.4-0.7-2.7-1.8C25,52.3,25.2,52.3,25.6,52.3z M33.9,46c0,0.5-0.5,0.7-1,0.7h-9v-1.1c0-0.8,0.5-1.4,1.4-1.4h7.1
		c0.8,0,1.5,0.4,1.5,1V46z"/>
	<g>
		<polygon class="st0" points="90,54.6 90,54.6 90,54.6 		"/>
		<path class="st0" d="M87,41.5h-8.5l0,12.6c0,0.3,0.2,0.5,0.5,0.5l2.4,0c0.3,0,0.5-0.2,0.5-0.5v-9.7h4.9c0.5,0,0.9,0.1,1.3,0.2
			c1,0.3,1.5,1.1,1.5,2.4v7.2c0,0.2,0.2,0.5,0.5,0.5h0h0h2.5c0.1,0,0.1,0,0.2,0c0,0,0,0,0,0c0,0,0.1,0,0.1-0.1
			c0.1-0.1,0.1-0.2,0.1-0.3v-4.4v-3C93,42.9,90.5,41.5,87,41.5z M88,44.5C88,44.5,88,44.5,88,44.5c1,0.2,1.9,0.5,2.7,1.1
			C89.9,45.1,89,44.7,88,44.5z M92.5,54h-2.4v-7.1c0-0.5-0.1-0.9-0.2-1.2c1.4,0.7,2.6,2,2.6,4L92.5,54z"/>
	</g>
</g>
</svg>
