<?xml version="1.0" encoding="utf-8"?>
<!-- Generator: Adobe Illustrator 24.0.1, SVG Export Plug-In . SVG Version: 6.00 Build 0)  -->
<svg version="1.1" id="Layer_1" xmlns="http://www.w3.org/2000/svg" xmlns:xlink="http://www.w3.org/1999/xlink" x="0px" y="0px"
	 viewBox="0 0 96 96" style="enable-background:new 0 0 96 96;" xml:space="preserve">
<style type="text/css">
	.st0{fill:#040000;}
</style>
<path class="st0" d="M48,4.9L3.2,21.5l1,3.5c1.5,5.4,2.2,10.2,3,14.7c2.2,14.1,4,25.2,25,39.7c5.7,3.9,11.1,9.3,12.8,11.1l3.1,3.1
	l2.8-2.8c1.9-1.9,7.2-6.8,13.8-11.3c18.7-12.7,27-53.1,27.3-54.8l0.7-3.3L48,4.9z M25.2,63.4c0.4,0.4,0.7,0.8,1.1,1.2
	C25.9,64.2,25.6,63.8,25.2,63.4z M20.6,57.4c0.3,0.4,0.5,0.9,0.8,1.3C21.1,58.2,20.8,57.8,20.6,57.4z M21.5,58.8
	c0.3,0.5,0.6,0.9,1,1.4C22.1,59.7,21.8,59.3,21.5,58.8z M22.6,60.4c0.3,0.4,0.6,0.8,1,1.2C23.2,61.2,22.9,60.8,22.6,60.4z
	 M23.8,61.8c0.4,0.5,0.8,0.9,1.2,1.4C24.6,62.7,24.2,62.3,23.8,61.8z M32.2,69.7c0.6,0.4,1.1,0.9,1.7,1.3
	C33.3,70.6,32.7,70.1,32.2,69.7z M26.7,64.9c0.5,0.5,0.9,0.9,1.5,1.4C27.6,65.8,27.1,65.4,26.7,64.9z M28.4,66.5
	c0.4,0.4,0.9,0.8,1.4,1.2C29.3,67.3,28.8,66.9,28.4,66.5z M30.2,68.1c0.6,0.5,1.1,0.9,1.7,1.4C31.3,69,30.8,68.6,30.2,68.1z
	 M36.6,72.9c-0.7-0.5-1.4-1-2.1-1.5C35.2,71.9,35.9,72.4,36.6,72.9c2.9,1.9,5.6,4.2,7.9,6.2C42.2,77.1,39.5,74.8,36.6,72.9z
	 M44.8,79.4c0.3,0.3,0.6,0.6,0.9,0.8C45.4,80,45.1,79.7,44.8,79.4z M60.1,73c-5,3.4-9.2,6.9-12,9.5c0,0-0.1-0.1-0.1-0.1V48.2H16.8
	c0.5,2.1,1.2,4.1,2.1,6c-2.2-4.8-3-9.8-3.9-15.7c-0.6-3.6-1.2-7.6-2.2-12.1L48,13.4l0,0v34.8h28.5C71.6,60.4,66,69,60.1,73z
	 M20.5,57.2c-0.6-1-1.1-1.9-1.5-2.9C19.4,55.3,19.9,56.3,20.5,57.2z M76.7,47.7c0.1-0.3,0.3-0.7,0.4-1C77,47,76.8,47.4,76.7,47.7z"
	/>
</svg>
