<?xml version="1.0" encoding="utf-8"?>
<!-- Generator: Adobe Illustrator 17.0.0, SVG Export Plug-In . SVG Version: 6.00 Build 0)  -->
<!DOCTYPE svg PUBLIC "-//W3C//DTD SVG 1.1//EN" "http://www.w3.org/Graphics/SVG/1.1/DTD/svg11.dtd">
<svg version="1.1" id="Layer_1" xmlns="http://www.w3.org/2000/svg" xmlns:xlink="http://www.w3.org/1999/xlink" x="0px" y="0px"
	 width="96px" height="96px" viewBox="0 0 96 96" enable-background="new 0 0 96 96" xml:space="preserve">
<path d="M84,12H32L0,48l32,36h52c6.6,0,12-5.4,12-12V24C96,17.4,90.6,12,84,12z M88,72c0,2.2-1.8,4-4,4H35.6L10.7,48l24.9-28H84
	c2.2,0,4,1.8,4,4V72z M74.8,57.2c1.6,1.6,1.6,4.1,0,5.7C74,63.6,73,64,72,64s-2-0.4-2.8-1.2L60,53.7l-9.2,9.2C50,63.6,49,64,48,64
	s-2-0.4-2.8-1.2c-1.6-1.6-1.6-4.1,0-5.7l9.2-9.2l-9.2-9.2c-1.6-1.6-1.6-4.1,0-5.7c1.6-1.6,4.1-1.6,5.7,0l9.2,9.2l9.2-9.2
	c1.6-1.6,4.1-1.6,5.7,0c1.6,1.6,1.6,4.1,0,5.7L65.7,48L74.8,57.2z"/>
</svg>
