<?xml version="1.0" encoding="utf-8"?>
<!-- Generator: Adobe Illustrator 21.0.0, SVG Export Plug-In . SVG Version: 6.00 Build 0)  -->
<svg version="1.1" id="图层_1" xmlns="http://www.w3.org/2000/svg" xmlns:xlink="http://www.w3.org/1999/xlink" x="0px" y="0px"
	 viewBox="0 0 96 96" style="enable-background:new 0 0 96 96;" xml:space="preserve">
<style type="text/css">
	.st0{fill:#CED4E0;}
</style>
<title>Group 6</title>
<desc>Created with Sketch.</desc>
<g id="User-Center-Page">
	<g id="Artboard" transform="translate(-1734.000000, -321.000000)">
		<g id="Group-12" transform="translate(1494.000000, 231.000000)">
			<g id="Group-6" transform="translate(240.000000, 90.000000)">
				<path id="Fill-1-Copy-3" class="st0" d="M31.6,78.5c-0.5,0-0.8-0.5-1.2-0.8c-5.1-5.1-10.2-10.2-15.3-15.3
					c-1.3-1.3-0.4-1.9,0.4-2.7C31.1,44.2,46.7,28.6,62.3,13c2.8-2.8,5.6-5.6,8.4-8.4c0.9-0.9,1.5-1,2.5,0c5,5.1,10.1,10.1,15.2,15.1
					c1,1,0.9,1.6,0,2.5c-18.5,18.4-37,36.9-55.5,55.4C32.5,78,32.1,78.4,31.6,78.5"/>
				<path id="Fill-6-Copy" class="st0" d="M14.5,78.5c-2,0-4.1,0-6.1,0c-1,0-1.4-0.4-1.4-1.4c0-4.2,0-8.4,0-12.6
					c0-0.3-0.1-0.8,0.3-0.9c0.3-0.1,0.6,0.2,0.8,0.5c4.5,4.4,8.9,8.9,13.3,13.3c0.2,0.2,0.5,0.4,0.4,0.8c-0.1,0.5-0.6,0.3-0.9,0.3
					C18.8,78.5,16.6,78.5,14.5,78.5"/>
				<path id="Fill-3-Copy" class="st0" d="M37,86c9.2,0,18.3,0,27.5,0c1.7,0,2.2,0.5,2.2,2.3c-0.2,4.1,0.4,3.6-3.6,3.6
					c-17.9,0-35.9,0-53.8,0c-2.3,0-2.3,0-2.3-2.4c0-3.9-0.4-3.4,3.4-3.4C19.2,86,28.1,86,37,86"/>
			</g>
		</g>
	</g>
</g>
</svg>
