<?xml version="1.0" encoding="utf-8"?>
<!-- Generator: Adobe Illustrator 21.0.0, SVG Export Plug-In . SVG Version: 6.00 Build 0)  -->
<svg version="1.1" id="图层_1" xmlns="http://www.w3.org/2000/svg" xmlns:xlink="http://www.w3.org/1999/xlink" x="0px" y="0px"
	 viewBox="0 0 96 96" style="enable-background:new 0 0 96 96;" xml:space="preserve">
<style type="text/css">
	.st0{fill:#445073;}
</style>
<title>排序</title>
<desc>Created with Sketch.</desc>
<g id="账单管理">
	<g id="Artboard" transform="translate(-824.000000, -283.000000)">
		<g id="排序" transform="translate(824.000000, 283.000000)">
			<path id="Shape" class="st0" d="M90.1,28.1L67.6,6.8c-2-1.9-5.1-2.5-7.7-1.4s-4.3,3.5-4.4,6.2V86c0,3.3,2.8,6,6.3,6
				c3.5,0,6.3-2.7,6.3-6V24.4l13.1,12.5c2.5,2.4,6.6,2.3,9-0.1C92.7,34.4,92.6,30.5,90.1,28.1z M34.1,4c-3.5,0-6.3,2.7-6.3,6v61.6
				L14.7,59.1c-1.2-1.1-2.8-1.8-4.5-1.8S7,58,5.8,59.1c-2.4,2.4-2.4,6.2,0,8.5l22.5,21.5c1.3,1.3,3.1,2,5,2c0.9,0,1.8-0.1,2.7-0.5
				c2.6-1,4.3-3.4,4.4-6V10C40.3,6.7,37.5,4,34.1,4z"/>
		</g>
	</g>
</g>
</svg>
