<?xml version="1.0" encoding="utf-8"?>
<!-- Generator: Adobe Illustrator 21.0.0, SVG Export Plug-In . SVG Version: 6.00 Build 0)  -->
<svg version="1.1" id="图层_1" xmlns="http://www.w3.org/2000/svg" xmlns:xlink="http://www.w3.org/1999/xlink" x="0px" y="0px"
	 viewBox="0 0 96 96" style="enable-background:new 0 0 96 96;" xml:space="preserve">
<style type="text/css">
	.st0{fill:#445073;}
</style>
<title>Group 13</title>
<desc>Created with Sketch.</desc>
<g id="Browser-Page">
	<g id="Artboard" transform="translate(-1590.000000, -191.000000)">
		<g id="Group-5" transform="translate(445.000000, 165.000000)">
			<g id="Group-2" transform="translate(1145.000000, 26.000000)">
				<g id="Group-13">
					<path id="Fill-4" class="st0" d="M47.8,54.8c-3.3-2.6-6.5-5.2-9.8-7.8C26.9,38.1,15.7,29.3,4.5,20.4c-0.6-0.5-0.7-0.9-0.6-1.6
						c0.6-2.8,2.7-4.6,5.5-4.6c20.5,0,40.9,0,61.4,0c5.2,0,10.3,0,15.5,0c2.8,0,5.1,2,5.5,4.8c0.1,0.5,0,0.9-0.5,1.3
						C77,31.6,62.6,43.1,48.3,54.5C48.1,54.5,48,54.6,47.8,54.8"/>
					<path id="Fill-1" class="st0" d="M3.9,34.5c1.3,0.9,2.4,1.8,3.6,2.6C19.6,46.2,31.8,55.2,44,64.3c2.5,1.9,5.1,1.9,7.7,0
						c13.1-9.6,26.3-19.2,39.4-28.8c0.2-0.1,0.4-0.3,0.7-0.5c0,0.3,0,0.6,0,0.8c0,13.5,0,27,0,40.5c0,3.2-2.4,5.5-5.7,5.5
						c-25.6,0-51.1,0-76.7,0c-3.1,0-5.6-2.3-5.6-5.3c0-13.8,0-27.7,0-41.5C3.9,34.9,3.9,34.8,3.9,34.5"/>
				</g>
			</g>
		</g>
	</g>
</g>
</svg>
