<?xml version="1.0" encoding="utf-8"?>
<!-- Generator: Adobe Illustrator 21.0.0, SVG Export Plug-In . SVG Version: 6.00 Build 0)  -->
<svg version="1.1" id="图层_1" xmlns="http://www.w3.org/2000/svg" xmlns:xlink="http://www.w3.org/1999/xlink" x="0px" y="0px"
	 viewBox="0 0 96 96" style="enable-background:new 0 0 96 96;" xml:space="preserve">
<style type="text/css">
	.st0{fill:#445073;}
</style>
<title>Group 20</title>
<desc>Created with Sketch.</desc>
<g id="Artboard" transform="translate(-661.000000, -184.000000)">
	<g id="Group-10">
		<g id="Group-7" transform="translate(661.000000, 184.000000)">
			<g id="Group-20">
				<path id="Fill-1" class="st0" d="M65,55.8c0.4-0.4,0.6-0.6,0.9-0.8c1.7-1.4,3.4-2.6,5-4.1c5-4.5,7.1-10.5,6-17.9
					c-1.5-9.6-8.6-15.6-16.5-14.2C53,20.1,47.4,29,48.2,38c0.5,5.8,2.9,10.3,6.9,13.4c1.8,1.4,3.6,2.8,5.5,4.3
					c-0.5,0.2-0.8,0.4-1.2,0.5c-2.9,1.3-5.9,2.3-8.7,3.8c-4.7,2.5-8.8,6.2-11.8,11.6c-1.3,2.4-2,4.9-1.9,7.8c0.1,3.8,0,7.6,0,11.4
					c0,0.4,0,0.8,0.1,1.2h51.2v-1.4c0-3.6-0.1-7.2,0-10.8c0.1-4.4-1.2-8-3.4-11.3c-3.8-5.5-8.7-8.7-14.2-10.7
					C68.8,57.3,67,56.6,65,55.8"/>
				<g id="Group-5">
					<g id="Clip-4">
					</g>
					<path id="Fill-3" class="st0" d="M29.7,39.1c-5.2,1.6-9.8,4-13.4,7.3c-3,2.8-4.6,5.9-4.5,9.5c0.1,3.3,0,6.5,0,9.8v1.2H30V70
						H7.7v-1c0-4.2,0.1-8.4,0-12.5c-0.2-4.8,2.1-8.8,6.2-12.4c3.9-3.4,8.7-5.9,14.1-7.8c0.4-0.1,0.8-0.3,1.2-0.4
						C16.3,26,21.4,12.5,33.2,7C46,1,60.5,5.4,66.4,12.7c-1.1,0.5-2.2,1.1-3.3,1.6C55.6,5,38.5,5.4,30.9,12c-4.6,4-6,8.6-4.7,13.7
						c1.4,5.2,6.2,8.5,12.1,11C35.3,37.6,32.5,38.2,29.7,39.1z"/>
				</g>
			</g>
		</g>
	</g>
</g>
</svg>
