<?xml version="1.0" encoding="utf-8"?>
<!-- Generator: Adobe Illustrator 17.0.0, SVG Export Plug-In . SVG Version: 6.00 Build 0)  -->
<!DOCTYPE svg PUBLIC "-//W3C//DTD SVG 1.1//EN" "http://www.w3.org/Graphics/SVG/1.1/DTD/svg11.dtd">
<svg version="1.1" id="Layer_1" xmlns="http://www.w3.org/2000/svg" xmlns:xlink="http://www.w3.org/1999/xlink" x="0px" y="0px"
	 width="96px" height="96px" viewBox="0 0 96 96" enable-background="new 0 0 96 96" xml:space="preserve">
<path fill="#284164" d="M88.29,72.788L63.909,48.407l24.38-24.38c4.489-4.489,4.489-11.763,0-16.252
	c-4.489-4.489-11.763-4.489-16.252,0l-24.38,24.38l-24.38-24.38c-4.489-4.489-11.763-4.489-16.252,0
	c-4.489,4.489-4.489,11.763,0,16.252l24.38,24.38L7.024,72.788c-4.489,4.489-4.489,11.763,0,16.252
	c2.245,2.245,5.186,3.367,8.126,3.367c2.941-0.001,5.882-1.123,8.126-3.367l24.381-24.381L72.038,89.04
	c2.245,2.245,5.186,3.367,8.126,3.367c2.94,0,5.881-1.122,8.126-3.367C92.779,84.551,92.779,77.277,88.29,72.788z"/>
</svg>
