<?xml version="1.0" encoding="utf-8"?>
<!-- Generator: Adobe Illustrator 21.0.0, SVG Export Plug-In . SVG Version: 6.00 Build 0)  -->
<svg version="1.1" id="图层_1" xmlns="http://www.w3.org/2000/svg" xmlns:xlink="http://www.w3.org/1999/xlink" x="0px" y="0px"
	 viewBox="0 0 96 96" style="enable-background:new 0 0 96 96;" xml:space="preserve">
<style type="text/css">
	.st0{fill:#445073;}
</style>
<title>Shape</title>
<desc>Created with Sketch.</desc>
<g id="账单管理">
	<g id="Artboard" transform="translate(-499.000000, -284.000000)">
		<g id="Group-2" transform="translate(156.000000, 263.000000)">
			<g id="筛选" transform="translate(343.000000, 21.000000)">
				<path id="Shape" class="st0" d="M40.7,92c-0.7,0-1.5-0.4-1.8-0.4c-1.1-0.7-1.8-2.2-1.8-3.3V56.4L4.8,9.9C4,8.8,3.7,7.3,4.4,5.8
					C5.1,4.7,6.2,4,7.7,4h80.6c1.5,0,2.6,0.7,3.3,1.8c0.7,1.1,0.4,2.6-0.4,3.7L59,56.4V81c0,1.5-0.7,2.6-2.2,3.3l-14.7,7.3
					C41.8,92,41.4,92,40.7,92z"/>
			</g>
		</g>
	</g>
</g>
</svg>
