<?xml version="1.0" encoding="utf-8"?>
<!-- Generator: Adobe Illustrator 21.0.0, SVG Export Plug-In . SVG Version: 6.00 Build 0)  -->
<svg version="1.1" id="图层_1" xmlns="http://www.w3.org/2000/svg" xmlns:xlink="http://www.w3.org/1999/xlink" x="0px" y="0px"
	 viewBox="0 0 96 96" style="enable-background:new 0 0 96 96;" xml:space="preserve">
<style type="text/css">
	.st0{fill:#445073;}
</style>
<title>Shape</title>
<desc>Created with Sketch.</desc>
<g id="续费管理">
	<g id="Group-2" transform="translate(-20.000000, -17.000000)">
		<path id="Shape" class="st0" d="M68,21c6.1,0,11.8,1.2,17.1,3.5c5.3,2.3,10,5.5,13.9,9.4c4,4,7.1,8.6,9.4,14
			C110.8,53.2,112,59,112,65c0,6.1-1.2,11.8-3.5,17.1c-2.3,5.3-5.5,10-9.4,13.9c-4,4-8.6,7.1-13.9,9.4c-5.3,2.3-11,3.5-17.1,3.5
			c-6.1,0-11.8-1.2-17.2-3.5c-5.4-2.3-10-5.5-14-9.4c-4-4-7.1-8.6-9.4-13.9C25.2,76.8,24,71.1,24,65c0-6.1,1.2-11.8,3.5-17.2
			c2.3-5.4,5.5-10,9.4-14c4-4,8.6-7.1,14-9.4C56.2,22.2,62,21,68,21z M73.3,59c0-1.6-0.5-2.9-1.5-4c-1-1.1-2.3-1.6-3.8-1.6
			c-1.5,0-2.8,0.5-3.8,1.6c-1,1.1-1.6,2.4-1.6,4v32.9c0,1.6,0.5,2.8,1.6,3.8c1,0.9,2.3,1.4,3.8,1.4c1.5,0,2.8-0.5,3.8-1.5
			c1-1,1.6-2.3,1.6-3.8L73.3,59z M68,46.8c1.9,0,3.5-0.7,4.9-2c1.3-1.3,2-3,2-4.9c0-1.9-0.7-3.5-2-4.9c-1.3-1.3-3-2-4.9-2
			c-1.9,0-3.5,0.7-4.9,2c-1.4,1.3-2.1,3-2.1,4.9c0,1.9,0.7,3.5,2.1,4.9C64.5,46.1,66.2,46.8,68,46.8z"/>
	</g>
</g>
</svg>
