<?xml version="1.0" encoding="utf-8"?>
<!-- Generator: Adobe Illustrator 21.0.0, SVG Export Plug-In . SVG Version: 6.00 Build 0)  -->
<svg version="1.1" id="图层_1" xmlns="http://www.w3.org/2000/svg" xmlns:xlink="http://www.w3.org/1999/xlink" x="0px" y="0px"
	 viewBox="0 0 96 96" style="enable-background:new 0 0 96 96;" xml:space="preserve">
<style type="text/css">
	.st0{fill:#BDC3D5;}
</style>
<title>Combined Shape</title>
<desc>Created with Sketch.</desc>
<g id="续费管理">
	<g id="Group-3" transform="translate(-209.000000, -21.000000)">
		<path id="Combined-Shape" class="st0" d="M221.8,77.8c-4.9,0-8.8-3.9-8.8-8.8s3.9-8.8,8.8-8.8c4.9,0,8.8,3.9,8.8,8.8
			S226.7,77.8,221.8,77.8z M257,77.8c-4.9,0-8.8-3.9-8.8-8.8s3.9-8.8,8.8-8.8s8.8,3.9,8.8,8.8S261.9,77.8,257,77.8z M292.2,77.8
			c-4.9,0-8.8-3.9-8.8-8.8s3.9-8.8,8.8-8.8c4.9,0,8.8,3.9,8.8,8.8S297.1,77.8,292.2,77.8z"/>
	</g>
</g>
</svg>
