<?xml version="1.0" encoding="utf-8"?>
<!-- Generator: Adobe Illustrator 21.0.0, SVG Export Plug-In . SVG Version: 6.00 Build 0)  -->
<svg version="1.1" id="图层_1" xmlns="http://www.w3.org/2000/svg" xmlns:xlink="http://www.w3.org/1999/xlink" x="0px" y="0px"
	 viewBox="0 0 96 96" style="enable-background:new 0 0 96 96;" xml:space="preserve">
<style type="text/css">
	.st0{fill:#284164;}
</style>
<title>Group 6</title>
<desc>Created with Sketch.</desc>
<g id="续费管理">
	<g id="Group-2" transform="translate(-374.000000, -18.000000)">
		<g id="Group-6" transform="translate(375.000000, 19.000000)">
			<g id="Line">
				<path class="st0" d="M2.8,91.8c-0.3,0-0.5-0.1-0.7-0.3c-0.4-0.4-0.4-1,0-1.4l88-88c0.4-0.4,1-0.4,1.4,0s0.4,1,0,1.4l-88,88
					C3.3,91.7,3.1,91.8,2.8,91.8z"/>
			</g>
			<g id="Line_1_">
				<path class="st0" d="M90.8,91.8c-0.3,0-0.5-0.1-0.7-0.3l-88-88c-0.4-0.4-0.4-1,0-1.4s1-0.4,1.4,0l88,88c0.4,0.4,0.4,1,0,1.4
					C91.3,91.7,91.1,91.8,90.8,91.8z"/>
			</g>
		</g>
	</g>
</g>
</svg>
