<?xml version="1.0" encoding="utf-8"?>
<!-- Generator: Adobe Illustrator 21.0.0, SVG Export Plug-In . SVG Version: 6.00 Build 0)  -->
<svg version="1.1" id="图层_1" xmlns="http://www.w3.org/2000/svg" xmlns:xlink="http://www.w3.org/1999/xlink" x="0px" y="0px"
	 viewBox="0 0 96 96" style="enable-background:new 0 0 96 96;" xml:space="preserve">
<style type="text/css">
	.st0{fill:#D0021B;}
</style>
<title>Fill 1</title>
<desc>Created with Sketch.</desc>
<g id="Buy-Page">
	<g id="Artboard" transform="translate(-1343.000000, -320.000000)">
		<path id="Fill-1" class="st0" d="M1385.4,395.8h11.1v-11.1h-11.1V395.8z M1385.4,379h11.1v-22.3h-11.1V379z M1391,407.1
			c-12.7,0-25.5,0-38.2,0c-3.5,0-6-2.7-5.7-6.1c0.1-1,0.5-2,1-2.8c11.6-20.4,23.3-40.9,35-61.3c1-1.7,2-3.5,3-5.2c2.3-4,7.6-4,9.9,0
			c12.8,22.3,25.5,44.6,38.2,66.9c2.3,4-0.4,8.6-5,8.6C1416.4,407.1,1403.7,407.1,1391,407.1z"/>
	</g>
</g>
</svg>
