<?xml version="1.0" encoding="utf-8"?>
<!-- Generator: Adobe Illustrator 21.0.0, SVG Export Plug-In . SVG Version: 6.00 Build 0)  -->
<svg version="1.1" id="图层_1" xmlns="http://www.w3.org/2000/svg" xmlns:xlink="http://www.w3.org/1999/xlink" x="0px" y="0px"
	 viewBox="0 0 96 96" style="enable-background:new 0 0 96 96;" xml:space="preserve">
<style type="text/css">
	.st0{fill:#445073;}
</style>
<title>Fill 1</title>
<desc>Created with Sketch.</desc>
<g id="Home-Page">
	<g id="Artboard" transform="translate(-1261.000000, -187.000000)">
		<g id="Group-10">
			<path id="Fill-1" class="st0" d="M1311.5,235.6c0.5-0.4,0.8-0.7,1.1-1c2-1.6,4-3.2,6-4.9c6-5.3,8.6-12.5,7.2-21.4
				c-1.7-11.5-10.3-18.7-19.8-17.1c-8.9,1.5-15.6,12.1-14.6,23c0.6,7,3.4,12.3,8.3,16.1c2.1,1.7,4.3,3.3,6.6,5.2
				c-0.6,0.3-1,0.4-1.4,0.6c-3.5,1.5-7.1,2.7-10.5,4.6c-5.7,3-10.6,7.4-14.1,13.9c-1.5,2.8-2.3,5.9-2.3,9.4c0.1,4.5,0,9.1,0,13.6
				c0,0.5,0,0.9,0.1,1.4h61.5v-1.6c0-4.3-0.1-8.6,0-12.9c0.2-5.2-1.4-9.6-4.1-13.5c-4.5-6.6-10.4-10.5-17.1-12.8
				C1316.1,237.3,1313.9,236.5,1311.5,235.6"/>
		</g>
	</g>
</g>
</svg>
