<?xml version="1.0" encoding="utf-8"?>
<!-- Generator: Adobe Illustrator 22.1.0, SVG Export Plug-In . SVG Version: 6.00 Build 0)  -->
<svg version="1.1" id="Layer_1" xmlns="http://www.w3.org/2000/svg" xmlns:xlink="http://www.w3.org/1999/xlink" x="0px" y="0px"
	 viewBox="0 0 96 96" style="enable-background:new 0 0 96 96;" xml:space="preserve">
<style type="text/css">
	.st0{fill:#3860F4;}
</style>
<title>合并形状</title>
<desc>Created with Sketch.</desc>
<path class="st0" d="M79.2,4H16.8C11.9,4,8,7.7,8,12.3v77.3c0,1.3,1.1,2.4,2.5,2.4c0.4,0,0.8-0.1,1.1-0.3l20.9-10.1h46.7
	c4.8,0,8.8-3.7,8.8-8.3v-61C88,7.7,84.1,4,79.2,4z M42,56H26c-3.3,0-6-2.7-6-6s2.7-6,6-6h16c3.3,0,6,2.7,6,6S45.3,56,42,56z M70,32
	H26c-3.3,0-6-2.7-6-6s2.7-6,6-6h44c3.3,0,6,2.7,6,6S73.3,32,70,32z"/>
</svg>
