<?xml version="1.0" encoding="utf-8"?>
<!-- Generator: Adobe Illustrator 17.0.0, SVG Export Plug-In . SVG Version: 6.00 Build 0)  -->
<!DOCTYPE svg PUBLIC "-//W3C//DTD SVG 1.1//EN" "http://www.w3.org/Graphics/SVG/1.1/DTD/svg11.dtd">
<svg version="1.1" id="Layer_1" xmlns="http://www.w3.org/2000/svg" xmlns:xlink="http://www.w3.org/1999/xlink" x="0px" y="0px"
	 width="96px" height="96px" viewBox="0 0 96 96" enable-background="new 0 0 96 96" xml:space="preserve">
<g>
	<path d="M68.994,27.526c-0.876-0.548-1.973-0.608-2.901-0.157l-14.814,7.183c-1.034,0.501-1.691,1.55-1.691,2.699v16.232
		c0,1.033,0.531,1.994,1.407,2.542c0.485,0.305,1.038,0.458,1.593,0.458c0.446,0,0.895-0.1,1.309-0.301L68.71,49
		c1.034-0.501,1.691-1.55,1.691-2.699V30.068C70.401,29.035,69.87,28.075,68.994,27.526z M64.401,44.421l-8.814,4.274v-9.564
		l8.814-4.274V44.421z"/>
	<path d="M80.198,6.003c-0.666-1.283-1.992-2.17-3.537-2.17H24.5c-2.209,0-4,1.791-4,4v64.929c0,2.209,1.791,4,4,4h13.284v13.07
		c0,1.36,0.691,2.628,1.836,3.364c0.656,0.422,1.408,0.636,2.165,0.636c0.563,0,1.129-0.119,1.658-0.36l35.494-16.169
		c1.427-0.649,2.342-2.072,2.342-3.64V8.735C81.278,7.709,80.884,6.736,80.198,6.003z M40.126,21.264
		c-1.426,0.65-2.342,2.073-2.342,3.64v43.859H28.5V11.833h32.328L40.126,21.264z M60.827,76.763l-15.043,6.853v-6.853h0.035v-8
		h-0.035V27.477l26.877-12.243l0.006,55.891L60.827,76.763z"/>
</g>
</svg>
