<?xml version="1.0" encoding="utf-8"?>
<!-- Generator: Adobe Illustrator 17.0.0, SVG Export Plug-In . SVG Version: 6.00 Build 0)  -->
<!DOCTYPE svg PUBLIC "-//W3C//DTD SVG 1.1//EN" "http://www.w3.org/Graphics/SVG/1.1/DTD/svg11.dtd">
<svg version="1.1" id="Layer_1" xmlns="http://www.w3.org/2000/svg" xmlns:xlink="http://www.w3.org/1999/xlink" x="0px" y="0px"
	 width="96px" height="96px" viewBox="0 0 96 96" enable-background="new 0 0 96 96" xml:space="preserve">
<path d="M48,80c-1,0-2-0.4-2.8-1.2l-28-28c-1.6-1.6-1.6-4.1,0-5.7l28-28c1.6-1.6,4.1-1.6,5.7,0c1.6,1.6,1.6,4.1,0,5.7L25.7,48
	l25.2,25.2c1.6,1.6,1.6,4.1,0,5.7C50,79.6,49,80,48,80z M74.8,78.8c1.6-1.6,1.6-4.1,0-5.7L49.7,48l25.2-25.2c1.6-1.6,1.6-4.1,0-5.7
	c-1.6-1.6-4.1-1.6-5.7,0l-28,28c-1.6,1.6-1.6,4.1,0,5.7l28,28C70,79.6,71,80,72,80S74,79.6,74.8,78.8z"/>
</svg>
