<?xml version="1.0" encoding="utf-8"?>
<!-- Generator: Adobe Illustrator 22.1.0, SVG Export Plug-In . SVG Version: 6.00 Build 0)  -->
<svg version="1.1" id="Layer_1" xmlns="http://www.w3.org/2000/svg" xmlns:xlink="http://www.w3.org/1999/xlink" x="0px" y="0px"
	 viewBox="0 0 96 96" style="enable-background:new 0 0 96 96;" xml:space="preserve">
<path d="M78.9,52.8c-1.6,1.6-4.1,1.6-5.7,0L48.1,27.7L22.9,52.8c-1.6,1.6-4.1,1.6-5.7,0s-1.6-4.1,0-5.7l28-28c1.6-1.6,4.1-1.6,5.7,0
	l28,28c0.8,0.9,1.2,1.9,1.2,2.9S79.7,52,78.9,52.8z M80.1,74c0-1-0.4-2-1.2-2.8l-28-28c-1.6-1.6-4.1-1.6-5.7,0l-28,28
	c-1.6,1.6-1.6,4.1,0,5.7s4.1,1.6,5.7,0l25.2-25.2l25.2,25.1c1.6,1.6,4.1,1.6,5.7,0C79.7,76,80.1,75,80.1,74z"/>
</svg>
