<?xml version="1.0" encoding="utf-8"?>
<!-- Generator: Adobe Illustrator 21.0.0, SVG Export Plug-In . SVG Version: 6.00 Build 0)  -->
<svg version="1.1" id="Layer_1" xmlns="http://www.w3.org/2000/svg" xmlns:xlink="http://www.w3.org/1999/xlink" x="0px" y="0px"
	 viewBox="0 0 96 96" style="enable-background:new 0 0 96 96;" xml:space="preserve">
<g>
	<path d="M79.8,47.7c-3.7-4.1-8.8-6.7-14.2-7.2l-2.8-0.2l1.9-2.2c0.6-1.2,0.8-2.4,0.9-3.8v-0.2l0.1-8.1c0-1.1-0.3-2.1-0.9-3.2
		l-0.2-0.5v-0.1c0.3-0.7,0.4-1.1,0.4-1.7c0-1.5-0.8-2.9-2.3-4.1c-1.4-1.2-3.5-2.2-6.2-3.1c-4.9-1.6-11.7-2.5-18.5-2.5
		s-13.5,0.9-18.5,2.5c-2.7,0.9-4.7,1.9-6.2,3.1C11.8,17.6,11,19,11,20.5c0,0.6,0.1,1.2,0.4,1.7l0.1,0.1l-0.2,0.5
		c-0.6,1.1-0.9,2.1-0.9,3.2v8.1c0,1.3,0.5,2.7,1.3,3.8l0.1,0.2L11.6,39c-0.7,1.2-1,2.3-1,3.3v8.1c0,1.2,0.4,2.4,1.2,3.8l0.1,0.2
		L11.4,55c-0.7,1.2-1,2.3-1,3.3v8.1c0,3.4,2.8,6.5,7.9,8.9C23.5,77.7,30.5,79,38,79c3.1,0,9.1-0.7,9.2-0.7h0.1l0.1,0.1
		c2,2.1,4.4,3.8,7.1,4.9c2.8,1.2,5.7,1.8,8.8,1.8c12.2,0,22.2-10,22.2-22.3C85.6,57.3,83.6,51.9,79.8,47.7z M21.4,17
		c4.5-1.4,10.5-2.1,16.9-2.1c13.7,0,23.3,3.4,23.3,6.5c0,1.5-2.3,3.1-6.4,4.3c-4.5,1.4-10.5,2.1-16.9,2.1c-13.7,0-23.3-3.4-23.3-6.5
		C15,19.8,17.3,18.2,21.4,17z M14.4,26.7l0.5,0.5c2,1.8,5.3,3.3,9.6,4.3c4,0.9,8.7,1.4,13.6,1.4c4.9,0,9.6-0.5,13.6-1.4
		c4.3-1,7.6-2.5,9.6-4.3l0.5-0.5v7.4c0,2.5-2.4,5-6.7,6.9c-4.5,2-10.6,3.2-17,3.2c-6.4,0-12.5-1.1-17-3.2c-4.3-1.9-6.7-4.4-6.7-6.9
		V26.7z M46.2,48.8l-0.4,0.6c-1.8,2.4-3,5.3-3.7,8.2c0,0.2-0.1,0.5-0.1,0.7c-0.1,0.6-0.2,1.2-0.2,1.8v0.3h-0.3c-0.4,0-0.9,0-1.4,0.1
		c-0.5,0.1-1,0.1-1.4,0.1c-6.4,0-12.5-1.1-17.1-3.2c-4.3-1.9-6.8-4.4-6.8-6.9l-0.1-8.4l0.5,0.5c2.1,2.1,5.4,3.8,9.4,5
		c4.1,1.2,8.9,1.9,13.9,1.9c2.4,0,4.7-0.3,7-0.5L46.2,48.8z M45.2,74.2c-2.3,0.3-4.5,0.4-6.8,0.4c-6.5,0-12.6-0.9-17.2-2.6
		c-4.3-1.6-6.8-3.8-6.8-5.9v-6.9l0.5,0.4c4.4,3.5,13.4,5.7,23.5,5.7c1,0,1.9,0,2.9-0.1h0.3v0.3c0.4,2.3,1.1,4.5,2.3,6.3
		c0.3,0.7,0.8,1.3,1.5,2l0.4,0.4H45.2z M76.4,75.7c-3.4,3.5-8.1,5.4-13,5.4c-5.1,0-9.9-2.1-13.4-5.9c-0.8-0.8-1.4-1.7-2.1-2.6
		c-1.9-3-2.9-6.4-2.9-9.9v-0.1c0-1,0.1-2.1,0.3-3.1c0.1-0.9,0.4-1.8,0.6-2.7c2.2-6.6,8-11.4,14.9-12.3c0.8-0.1,1.6-0.1,2.3-0.1H64
		c4.7,0.2,9.2,2.2,12.5,5.6c3.3,3.4,5.2,8,5.2,12.8S79.9,72.2,76.4,75.7z"/>
	<path d="M72.5,61.1c-0.8-0.6-1.9-0.4-2.5,0.4l-3.9,5.2v-16c0-1-0.8-1.8-1.8-1.8s-1.8,0.8-1.8,1.8v15.8l-3.9-5.2
		c-0.6-0.8-1.7-0.9-2.5-0.4c-0.8,0.6-0.9,1.7-0.4,2.5l7,9.4c0.6,0.8,1.7,0.9,2.5,0.4c0.1-0.1,0.3-0.2,0.4-0.4l7-9.4
		C73.5,62.8,73.3,61.6,72.5,61.1z"/>
</g>
</svg>
