<?xml version="1.0" encoding="utf-8"?>
<!-- Generator: Adobe Illustrator 17.0.0, SVG Export Plug-In . SVG Version: 6.00 Build 0)  -->
<!DOCTYPE svg PUBLIC "-//W3C//DTD SVG 1.1//EN" "http://www.w3.org/Graphics/SVG/1.1/DTD/svg11.dtd">
<svg version="1.1" id="Layer_1" xmlns="http://www.w3.org/2000/svg" xmlns:xlink="http://www.w3.org/1999/xlink" x="0px" y="0px"
	 width="96px" height="96px" viewBox="0 0 96 96" enable-background="new 0 0 96 96" xml:space="preserve">
<path d="M88,28v56c0,6.6-5.4,12-12,12H20c-6.6,0-12-5.4-12-12V28c0-6.6,5.4-12,12-12h16v8H20c-2.2,0-4,1.8-4,4v56c0,2.2,1.8,4,4,4
	h56c2.2,0,4-1.8,4-4V28c0-2.2-1.8-4-4-4H60v-8h16C82.6,16,88,21.4,88,28z M66.8,45.2c-1.6-1.6-4.1-1.6-5.7,0L52,54.3V4v0
	c0-2.2-1.8-4-4-4s-4,1.8-4,4v50.3l-9.2-9.2c-1.6-1.6-4.1-1.6-5.7,0c-1.6,1.6-1.6,4.1,0,5.7l16,16c0.8,0.8,1.8,1.2,2.8,1.2
	s2.1-0.4,2.8-1.2l16-16C68.4,49.3,68.4,46.7,66.8,45.2z"/>
</svg>
