<?xml version="1.0" encoding="utf-8"?>
<!-- Generator: Adobe Illustrator 17.0.0, SVG Export Plug-In . SVG Version: 6.00 Build 0)  -->
<!DOCTYPE svg PUBLIC "-//W3C//DTD SVG 1.1//EN" "http://www.w3.org/Graphics/SVG/1.1/DTD/svg11.dtd">
<svg version="1.1" id="Layer_1" xmlns="http://www.w3.org/2000/svg" xmlns:xlink="http://www.w3.org/1999/xlink" x="0px" y="0px"
	 width="96px" height="96px" viewBox="0 0 96 96" enable-background="new 0 0 96 96" xml:space="preserve">
<g>
	<path fill="#070606" d="M61.704,5.937c-15.832,0-28.712,12.88-28.712,28.712c0,6.681,2.3,12.832,6.142,17.715
		c-0.323,0.169-0.634,0.368-0.91,0.632L25.08,65.546c-1.965-1.089-4.221-1.713-6.621-1.713c-7.559,0-13.708,6.149-13.708,13.709
		c0,7.559,6.149,13.708,13.708,13.708c7.559,0,13.708-6.149,13.708-13.708c0-2.252-0.556-4.372-1.521-6.248l13.103-12.511
		c0.346-0.331,0.606-0.714,0.807-1.12c4.788,3.577,10.725,5.698,17.149,5.698c15.832,0,28.713-12.88,28.713-28.712
		S77.536,5.937,61.704,5.937z M18.458,83.25c-3.147,0-5.708-2.561-5.708-5.708c0-3.148,2.561-5.709,5.708-5.709
		s5.708,2.561,5.708,5.709C24.167,80.689,21.606,83.25,18.458,83.25z M61.704,55.36c-11.421,0-20.712-9.292-20.712-20.712
		s9.291-20.712,20.712-20.712s20.713,9.292,20.713,20.712S73.125,55.36,61.704,55.36z"/>
	<circle fill="#070606" cx="61.439" cy="34.03" r="7.326"/>
</g>
</svg>
