<?xml version="1.0" encoding="utf-8"?>
<!-- Generator: Adobe Illustrator 22.1.0, SVG Export Plug-In . SVG Version: 6.00 Build 0)  -->
<svg version="1.1" id="Layer_1" xmlns="http://www.w3.org/2000/svg" xmlns:xlink="http://www.w3.org/1999/xlink" x="0px" y="0px"
	 viewBox="0 0 96 96" style="enable-background:new 0 0 96 96;" xml:space="preserve">
<style type="text/css">
	.st0{fill:#000400;}
</style>
<g>
	<path class="st0" d="M83.1,64.9c-3.3,0-5.9,2.6-5.9,5.9c0,1,0.2,1.9,0.6,2.7c-8.3,4.2-24.4,1.4-39.3-7.1
		c-6.2-3.5-11.7-7.7-16.1-12.3c-0.5-0.6-1.4-0.6-2-0.1h0c-0.6,0.5-0.6,1.5-0.1,2c4.6,4.7,10.3,9.1,16.7,12.8
		C47.9,75,59,78.3,68,78.3c4.6,0,8.6-0.9,11.7-2.6c0.9,0.6,2.1,1,3.3,1c3.3,0,5.9-2.6,5.9-5.9S86.3,64.9,83.1,64.9z M83.1,73.8
		c-1.7,0-3.1-1.4-3.1-3c0-1.7,1.4-3,3.1-3c1.7,0,3.1,1.4,3.1,3C86.1,72.5,84.8,73.8,83.1,73.8z"/>
	<path class="st0" d="M14.6,46.2c0.7-0.4,0.9-1.2,0.6-1.9C12.4,39,11.9,34.2,14,30.7c2.8-4.9,10.3-6.8,20.2-5.3
		c0.8,0.1,1.5-0.4,1.6-1.1l0,0c0.1-0.8-0.4-1.5-1.2-1.7c-11.2-1.7-19.6,0.7-23.1,6.7C9,33.6,9.4,39.4,12.6,45.6
		C13,46.4,13.9,46.6,14.6,46.2L14.6,46.2z"/>
	<path class="st0" d="M82.1,30.8c2.8,4.8,0.8,12.2-5.4,19.9c-0.5,0.6-0.4,1.5,0.2,2l0,0c0.6,0.5,1.5,0.4,2-0.2
		c7.1-8.8,9.2-17.2,5.7-23.2c-2.5-4.3-7.6-6.8-14.5-7.2c-0.8,0-1.5,0.6-1.5,1.4v0c0,0.8,0.6,1.4,1.3,1.4
		C75.8,25.3,80.1,27.4,82.1,30.8z"/>
	<path class="st0" d="M12.7,64.9c-0.2-9.4,10.3-22.1,25.8-31c6.2-3.6,12.8-6.2,19-7.7c0.8-0.2,1.2-0.9,1.1-1.7v0
		c-0.2-0.8-0.9-1.3-1.7-1.1c-6.5,1.5-13.3,4.3-19.7,8c-17,9.7-28,23.6-27.2,34.2c-1.7,1-2.9,2.9-2.9,5c0,3.2,2.7,5.9,5.9,5.9
		s5.9-2.6,5.9-5.9C18.8,67.5,16,64.8,12.7,64.9z M12.9,73.8c-1.7,0-3.1-1.4-3.1-3c0-1.7,1.4-3,3.1-3s3.1,1.4,3.1,3
		C16,72.5,14.6,73.8,12.9,73.8z"/>
	<path class="st0" d="M48,89.1c-5.7,0-11.1-5.4-14.7-14.6c-0.3-0.7-1.1-1.1-1.8-0.8l0,0c-0.7,0.3-1.1,1.1-0.8,1.8
		C34.7,85.9,41.2,92,48,92c4.9,0,9.6-3.1,13.4-8.7c0.5-0.7,0.3-1.6-0.4-2h0c-0.6-0.4-1.5-0.2-1.9,0.4C55.9,86.5,52,89.1,48,89.1z"/>
	<path class="st0" d="M48,15.7c2.2,0,4.1-1.2,5.1-3C61.2,17.5,67,32.9,67,50.2c0,6.9-0.9,13.7-2.6,19.6c-0.2,0.7,0.2,1.5,0.9,1.8
		l0,0c0.8,0.2,1.6-0.2,1.8-0.9c1.8-6.2,2.7-13.2,2.7-20.4c0-19-6.5-35.3-15.9-40.3c0,0,0,0,0,0C54,6.7,51.3,4,48,4
		c-3.3,0-5.9,2.6-5.9,5.9S44.8,15.7,48,15.7z M48,6.9c1.7,0,3.1,1.4,3.1,3s-1.4,3-3.1,3s-3.1-1.4-3.1-3S46.4,6.9,48,6.9z"/>
	<path class="st0" d="M46.9,44.9c-1.5,0.3-2.7,1.2-3.5,2.4c-0.8,1.2-1.1,2.7-0.7,4.1c0.6,2.6,2.9,4.3,5.4,4.3c0.4,0,0.8,0,1.2-0.1
		c1.5-0.3,2.7-1.2,3.5-2.4c0.8-1.2,1.1-2.7,0.7-4.1C52.8,46.1,49.9,44.2,46.9,44.9z"/>
</g>
</svg>
