<?xml version="1.0" encoding="utf-8"?>
<!-- Generator: Adobe Illustrator 17.0.0, SVG Export Plug-In . SVG Version: 6.00 Build 0)  -->
<!DOCTYPE svg PUBLIC "-//W3C//DTD SVG 1.1//EN" "http://www.w3.org/Graphics/SVG/1.1/DTD/svg11.dtd">
<svg version="1.1" id="Layer_1" xmlns="http://www.w3.org/2000/svg" xmlns:xlink="http://www.w3.org/1999/xlink" x="0px" y="0px"
	 width="96px" height="96px" viewBox="0 0 96 96" enable-background="new 0 0 96 96" xml:space="preserve">
<g>
	<path d="M60,16c0-6.627-5.373-12-12-12S36,9.373,36,16s5.373,12,12,12S60,22.627,60,16z"/>
	<path d="M60,80c0-6.627-5.373-12-12-12s-12,5.373-12,12s5.373,12,12,12S60,86.627,60,80z"/>
	<path d="M60,48c0-6.627-5.373-12-12-12s-12,5.373-12,12s5.373,12,12,12S60,54.627,60,48z"/>
</g>
</svg>
