<?xml version="1.0" encoding="utf-8"?>
<!-- Generator: Adobe Illustrator 22.1.0, SVG Export Plug-In . SVG Version: 6.00 Build 0)  -->
<svg version="1.1" id="Layer_1" xmlns="http://www.w3.org/2000/svg" xmlns:xlink="http://www.w3.org/1999/xlink" x="0px" y="0px"
	 viewBox="0 0 96 96" style="enable-background:new 0 0 96 96;" xml:space="preserve">
<g>
	<path d="M16,36C9.4,36,4,41.4,4,48s5.4,12,12,12s12-5.4,12-12S22.6,36,16,36z"/>
	<path d="M80,36c-6.6,0-12,5.4-12,12s5.4,12,12,12s12-5.4,12-12S86.6,36,80,36z"/>
	<path d="M48,36c-6.6,0-12,5.4-12,12s5.4,12,12,12s12-5.4,12-12S54.6,36,48,36z"/>
</g>
</svg>
