<?xml version="1.0" encoding="utf-8"?>
<!-- Generator: Adobe Illustrator 24.0.1, SVG Export Plug-In . SVG Version: 6.00 Build 0)  -->
<svg version="1.1" id="Layer_1" xmlns="http://www.w3.org/2000/svg" xmlns:xlink="http://www.w3.org/1999/xlink" x="0px" y="0px"
	 viewBox="0 0 96 96" style="enable-background:new 0 0 96 96;" xml:space="preserve">
<g>
	<path d="M52.9,39.4c-6.7,0-7.7,4.3-7.7,8.9s1.3,8.9,7.7,8.9c6.6,0,7.7-4.9,7.7-8.9C60.7,44.3,59.6,39.4,52.9,39.4z M52.9,54.4
		c-3,0-3.3-3.9-3.3-6c0-2.2,0.4-6.2,3.3-6.2c2.9,0,3.3,4,3.3,6.2C56.2,50.4,55.9,54.4,52.9,54.4z"/>
	<path d="M26.3,43.1c2.2-0.3,5,0,5,0l0.5-2.8c0,0-3.1-0.5-5.4-0.3c-4,0.3-7.3,2-7.3,8.6c0,6.2,2.4,8.1,7.3,8.5
		c3.1,0.3,5.4-0.3,5.4-0.3l-0.5-2.7c0,0-3.6,0.5-5.5-0.2c-1.8-0.7-2.3-3.6-2.3-5.3C23.4,46.8,24,43.4,26.3,43.1z"/>
	<path d="M86.7,39.9h-6.1v2.8h6.5c1.5,0,2.4,0.5,2.9,1.4c0.4,0.7,0.6,2.3,0.6,4.3s-0.2,3.8-0.6,4.5c-0.4,0.7-1.2,1.1-2.3,1.1
		s-2.4,0-2.9,0v-8.6L80.6,45v11.7c2.3,0.2,4.5,0.2,6.9,0.2c2.8,0,4.8-0.6,5.9-1.9c1.1-1.2,1.7-3.4,1.7-6.8s-0.8-5.3-1.8-6.6
		C91.9,40.3,89.5,39.9,86.7,39.9z"/>
	<path d="M38.4,51.6c0-1.5,0-11.5,0-11.5L34,39.8c0,11.3,0,5.6,0,12.1c0,6,7.3,5.5,11,4.9L44.5,54C41.8,54.1,38.4,54,38.4,51.6z"/>
	<path d="M12.5,40v11.5c0,2-1.3,2.8-2.7,2.8S7,53.6,7,51.4v-9.8H5.7v1.6H4v1.7H2.5v6.4c0,2.3,1.4,6.1,7.2,6.1c6,0,7.2-3.8,7.2-5.9
		V40.1L12.5,40L12.5,40z"/>
	<path d="M73.1,40v11.5c0,2-1.3,2.8-2.7,2.8s-2.7-0.7-2.7-2.8V40.1h-4.5v11.2c0,2.3,1.4,6.1,7.2,6.1c6,0,7.2-3.8,7.2-5.9V40.1
		L73.1,40L73.1,40z"/>
	<rect x="5.6" y="40" width="1.1" height="1.1"/>
	<rect x="4" y="40.1" width="0.9" height="0.9"/>
	<rect x="4.1" y="38.7" width="0.7" height="0.7"/>
	<rect x="1.1" y="40.2" width="0.6" height="0.6"/>
	<rect x="2.4" y="43.2" width="1.1" height="1.1"/>
	<rect x="1" y="41.7" width="0.8" height="0.7"/>
	<rect x="4" y="41.5" width="1.1" height="1.1"/>
	<rect x="2.5" y="41.6" width="0.9" height="0.9"/>
	<rect x="2.6" y="40.2" width="0.8" height="0.7"/>
	<rect x="2.7" y="38.8" width="0.6" height="0.6"/>
	<rect x="1.2" y="38.9" width="0.4" height="0.4"/>
</g>
</svg>
