<?xml version="1.0" encoding="utf-8"?>
<!-- Generator: Adobe Illustrator 17.0.0, SVG Export Plug-In . SVG Version: 6.00 Build 0)  -->
<!DOCTYPE svg PUBLIC "-//W3C//DTD SVG 1.1//EN" "http://www.w3.org/Graphics/SVG/1.1/DTD/svg11.dtd">
<svg version="1.1" id="Layer_1" xmlns="http://www.w3.org/2000/svg" xmlns:xlink="http://www.w3.org/1999/xlink" x="0px" y="0px"
	 width="96px" height="96px" viewBox="0 0 96 96" enable-background="new 0 0 96 96" xml:space="preserve">
<path d="M80,4H68c-2.2,0-4,1.8-4,4c0,2.2,1.8,4,4,4h12c2.2,0,4,1.8,4,4v12c0,2.2,1.8,4,4,4s4-1.8,4-4V16C92,9.4,86.6,4,80,4z M28,4
	H16C9.4,4,4,9.4,4,16v12c0,2.2,1.8,4,4,4c2.2,0,4-1.8,4-4V16c0-2.2,1.8-4,4-4h12c2.2,0,4-1.8,4-4C32,5.8,30.2,4,28,4z M88,64
	c-2.2,0-4,1.8-4,4v12c0,2.2-1.8,4-4,4H68c-2.2,0-4,1.8-4,4s1.8,4,4,4h12c6.6,0,12-5.4,12-12V68C92,65.8,90.2,64,88,64z M28,84H16
	c-2.2,0-4-1.8-4-4V68c0-2.2-1.8-4-4-4c-2.2,0-4,1.8-4,4v12c0,6.6,5.4,12,12,12h12c2.2,0,4-1.8,4-4S30.2,84,28,84z"/>
</svg>
