<?xml version="1.0" encoding="utf-8"?>
<!-- Generator: Adobe Illustrator 21.0.0, SVG Export Plug-In . SVG Version: 6.00 Build 0)  -->
<svg version="1.1" id="Layer_1" xmlns="http://www.w3.org/2000/svg" xmlns:xlink="http://www.w3.org/1999/xlink" x="0px" y="0px"
	 viewBox="0 0 96 96" style="enable-background:new 0 0 96 96;" xml:space="preserve">
<g>
	<path d="M48,14.9C26.7,14.9,8.5,28,0.9,46.7C8.5,65.3,26.7,78.5,48,78.5c21.3,0,39.6-13.2,47.1-31.8C87.6,28,69.4,14.9,48,14.9z
		 M48,72.1c-17.7,0-33-10.4-40.2-25.4C15,31.6,30.3,21.2,48,21.2c17.7,0,33,10.4,40.2,25.4C81.1,61.7,65.8,72.1,48,72.1z"/>
	<path d="M48,29.7c-9.4,0-17,7.6-17,17s7.6,17,17,17c9.4,0,17-7.6,17-17S57.4,29.7,48,29.7z M48,57.3c-5.9,0-10.6-4.7-10.6-10.6
		S42.2,36.1,48,36.1c5.9,0,10.6,4.7,10.6,10.6S53.9,57.3,48,57.3z"/>
</g>
</svg>
