<?xml version="1.0" encoding="utf-8"?>
<!-- Generator: Adobe Illustrator 22.1.0, SVG Export Plug-In . SVG Version: 6.00 Build 0)  -->
<svg version="1.1" id="Layer_1" xmlns="http://www.w3.org/2000/svg" xmlns:xlink="http://www.w3.org/1999/xlink" x="0px" y="0px"
	 viewBox="0 0 96 96" style="enable-background:new 0 0 96 96;" xml:space="preserve">
<g>
	<path d="M80.8,12c1.3,0,3.2,2.2,3.2,5.5v15.9c-4.5,3-7.5,8.4-7.5,14.6s3,11.6,7.5,14.6v15.8c0,3.3-1.9,5.5-3.2,5.5H15.2
		c-1.3,0-3.2-2.2-3.2-5.5V62.6c4.5-3,7.5-8.4,7.5-14.6s-3-11.6-7.5-14.6V17.5c0-3.3,1.9-5.5,3.2-5.5H80.8 M80.8,4H15.2
		C9.1,4,4,10.1,4,17.5V39c4.1,0,7.5,4,7.5,9S8.1,57,4,57v21.4C4,85.9,9.1,92,15.2,92h65.5C86.9,92,92,85.9,92,78.5V57.1
		c-4.1,0-7.5-4-7.5-9s3.4-9,7.5-9V17.5C92,10.1,86.9,4,80.8,4L80.8,4z"/>
</g>
<g>
	<path d="M29.9,52.5h36.3c2.2,0,4-1.8,4-4s-1.8-4-4-4H29.9c-2.2,0-4,1.8-4,4S27.6,52.5,29.9,52.5z"/>
	<path d="M66.1,58.5H29.9c-2.2,0-4,1.8-4,4s1.8,4,4,4h36.3c2.2,0,4-1.8,4-4S68.4,58.5,66.1,58.5z"/>
	<path d="M29.9,37.5h20.3c2.2,0,4-1.8,4-4s-1.8-4-4-4H29.9c-2.2,0-4,1.8-4,4S27.6,37.5,29.9,37.5z"/>
</g>
</svg>
