<?xml version="1.0" encoding="utf-8"?>
<!-- Generator: Adobe Illustrator 22.1.0, SVG Export Plug-In . SVG Version: 6.00 Build 0)  -->
<svg version="1.1" id="Layer_1" xmlns="http://www.w3.org/2000/svg" xmlns:xlink="http://www.w3.org/1999/xlink" x="0px" y="0px"
	 viewBox="0 0 96 96" style="enable-background:new 0 0 96 96;" xml:space="preserve">
<g>
	<polygon points="51.7,51.4 55,51.4 53.4,39.8 	"/>
	<path d="M13.5,26.2L2,47.3l11.2,23h0.1H94v-44H13.5V26.2z M40.2,40.1h-8.3v4.8h7.5V50h-7.5v11.3h-6.3V35.1h14.6
		C40.2,35.1,40.2,40.1,40.2,40.1z M56.7,61.3l-0.8-5.2h-4.7l-0.8,5.2H44l6-26.2h7.2l5.9,26.2H56.7z M80.7,65.5l-3.6-3.6
		c-0.1,0-0.2,0-0.2,0c-0.1,0-0.2,0-0.3,0c-0.3,0-0.6,0-1,0s-0.6,0-0.9,0c-2.6,0-4.6-0.6-6-1.7c-1.4-1.2-2.2-3.4-2.4-6.8v-12
		c0-2.5,0.8-4.3,2.4-5.3c1.6-1.1,3.6-1.6,6-1.6c0.3,0,0.6,0,1,0c0.3,0,0.6,0.1,1,0.1c1.7,0.2,3.2,0.9,4.6,1.9s2.1,2.8,2.1,5.1v11.7
		c0,1.4-0.2,2.6-0.6,3.6s-0.9,1.8-1.4,2.4l3.1,3L80.7,65.5z"/>
	<path d="M74.7,39.2L74.7,39.2C74.6,39.2,74.6,39.2,74.7,39.2c-0.7,0-1.2,0.2-1.6,0.6c-0.5,0.4-0.7,0.9-0.7,1.7v13.3
		c0,0.7,0.2,1.3,0.7,1.7s1,0.6,1.5,0.6c0,0,0,0,0.1,0c0,0,0,0,0.1,0c0.5,0,1-0.2,1.5-0.6s0.7-0.9,0.7-1.7V41.4
		c0-0.7-0.2-1.3-0.7-1.7C75.7,39.4,75.3,39.2,74.7,39.2z"/>
</g>
</svg>
