<?xml version="1.0" encoding="utf-8"?>
<!-- Generator: Adobe Illustrator 21.0.0, SVG Export Plug-In . SVG Version: 6.00 Build 0)  -->
<svg version="1.1" id="Layer_1" xmlns="http://www.w3.org/2000/svg" xmlns:xlink="http://www.w3.org/1999/xlink" x="0px" y="0px"
	 viewBox="0 0 96 96" style="enable-background:new 0 0 96 96;" xml:space="preserve">
<path d="M87.5,29.4h-16V8.6c0-4.4-3.6-8-8-8h-56c-4.4,0-8,3.6-8,8v36.8c0,4.4,3.6,8,8,8h1.6v19.2l19.2-14.4v11.2c0,4.4,3.6,8,8,8h24
	l25.6,19.2V77.4h1.6c4.4,0,8-3.6,8-8v-32C95.5,33,91.9,29.4,87.5,29.4z M31.4,43.8l-12.7,9.6v-9.6h-4.8c-2.7,0-4.8-2.1-4.8-4.8V15
	c0-2.7,2.1-4.8,4.8-4.8h43.2c2.7,0,4.8,2.1,4.8,4.8v24c0,2.7-2.1,4.8-4.8,4.8H31.4z M85.7,62.7c0,2.7-2.2,4.8-4.8,4.8h-4.8V77
	l-12.8-9.6H42.5c-2.7,0-4.8-2.1-4.8-4.8V53h25.6c4.4,0,8-3.6,8-8v-6.4h9.6c2.7,0,4.8,2.1,4.8,4.8V62.7z"/>
</svg>
