<?xml version="1.0" encoding="utf-8"?>
<!-- Generator: Adobe Illustrator 22.1.0, SVG Export Plug-In . SVG Version: 6.00 Build 0)  -->
<svg version="1.1" id="Layer_1" xmlns="http://www.w3.org/2000/svg" xmlns:xlink="http://www.w3.org/1999/xlink" x="0px" y="0px"
	 viewBox="0 0 96 96" style="enable-background:new 0 0 96 96;" xml:space="preserve">
<style type="text/css">
	.st0{fill:#324558;}
</style>
<g id="组件">
	<g id="功能icon_x2F_文件视频">
		<path id="形状" class="st0" d="M13.2,90.5c-4.3,0-7.7-3.5-7.7-7.7V13.2C5.5,9,9,5.5,13.2,5.5h69.5c4.3,0,7.7,3.5,7.7,7.7v69.5
			c0,4.3-3.5,7.7-7.7,7.7H13.2z M19,13.2h-7.7v17H19V13.2z M84.7,13.2H77v17h7.7V13.2z M19,39.5h-7.7v17H19V39.5z M84.7,39.5H77v17
			h7.7V39.5z M19,65.7h-7.7v17H19V65.7z M84.7,65.7H77v17h7.7V65.7z M71.2,13.2H24.8v69.5h46.4V13.2z M42.6,33.3
			c4.9,0,19.6,9.8,19.6,14.7S47.5,62.7,42.6,62.7s-4.9-4.9-4.9-4.9V38.2C37.7,38.2,37.6,33.3,42.6,33.3z"/>
	</g>
</g>
</svg>
