<?xml version="1.0" encoding="utf-8"?>
<!-- Generator: Adobe Illustrator 22.1.0, SVG Export Plug-In . SVG Version: 6.00 Build 0)  -->
<svg version="1.1" id="Layer_1" xmlns="http://www.w3.org/2000/svg" xmlns:xlink="http://www.w3.org/1999/xlink" x="0px" y="0px"
	 viewBox="0 0 96 96" style="enable-background:new 0 0 96 96;" xml:space="preserve">
<style type="text/css">
	.st0{fill:#040000;}
</style>
<path class="st0" d="M35.8,50.8h24.4c2.1,0,3.7,1.7,3.7,3.7l0,0c0,2.1-1.7,3.7-3.7,3.7H35.8c-2.1,0-3.7-1.7-3.7-3.7l0,0
	C32.1,52.5,33.7,50.8,35.8,50.8z"/>
<path class="st0" d="M35.8,37h10.4c2.1,0,3.7,1.7,3.7,3.7l0,0c0,2.1-1.7,3.7-3.7,3.7H35.8c-2.1,0-3.7-1.7-3.7-3.7l0,0
	C32.1,38.7,33.7,37,35.8,37z"/>
<path class="st0" d="M35.8,64.6h24.4c2.1,0,3.7,1.7,3.7,3.7l0,0c0,2.1-1.7,3.7-3.7,3.7H35.8c-2.1,0-3.7-1.7-3.7-3.7l0,0
	C32.1,66.2,33.7,64.6,35.8,64.6z"/>
<g id="功能icon_x2F_文件_1_" transform="translate(10.000000, 0.000000)">
	<path id="形状_2_" class="st0" d="M45.3,13.5l20.1,20.1v46.3c0,1.4-1.2,2.6-2.6,2.6H13.2c-1.4,0-2.6-1.2-2.6-2.6V16.1
		c0-1.4,1.2-2.6,2.6-2.6H45.3 M48.6,5.5H13.2c-5.8,0-10.6,4.7-10.6,10.6v63.8c0,5.8,4.7,10.6,10.6,10.6h49.6
		c5.8,0,10.6-4.7,10.6-10.6V30.3L48.6,5.5L48.6,5.5z"/>
</g>
</svg>
