<?xml version="1.0" encoding="utf-8"?>
<!-- Generator: Adobe Illustrator 22.1.0, SVG Export Plug-In . SVG Version: 6.00 Build 0)  -->
<svg version="1.1" id="Layer_1" xmlns="http://www.w3.org/2000/svg" xmlns:xlink="http://www.w3.org/1999/xlink" x="0px" y="0px"
	 viewBox="0 0 96 96" style="enable-background:new 0 0 96 96;" xml:space="preserve">
<style type="text/css">
	.st0{fill:#324558;}
</style>
<g id="组件">
	<g id="功能icon_x2F_文件图片">
		<path id="合并形状" class="st0" d="M33.2,42.2c-3.2,0-5.8-2.6-6-6c0-3.4,2.8-6,6-6c3.4,0,6,2.8,6,6
			C39.2,39.7,36.4,42.2,33.2,42.2z M59.7,38.6l17.5,33H18.5l15-21.1l9,12.6L59.7,38.6z M87.2,10.4c1.9,0,3.3,1.4,3.3,3.3v68.6
			c0,1.9-1.4,3.3-3.3,3.3H8.8c-1.9,0-3.3-1.4-3.3-3.3V13.7c0-1.9,1.4-3.3,3.3-3.3H87.2z M81.8,77.2h0.2V18.5H14.2v58.7H81.8z"/>
	</g>
</g>
</svg>
