<?xml version="1.0" encoding="utf-8"?>
<!-- Generator: Adobe Illustrator 17.0.0, SVG Export Plug-In . SVG Version: 6.00 Build 0)  -->
<!DOCTYPE svg PUBLIC "-//W3C//DTD SVG 1.1//EN" "http://www.w3.org/Graphics/SVG/1.1/DTD/svg11.dtd">
<svg version="1.1" id="Layer_1" xmlns="http://www.w3.org/2000/svg" xmlns:xlink="http://www.w3.org/1999/xlink" x="0px" y="0px"
	 width="96px" height="96px" viewBox="0 0 96 96" enable-background="new 0 0 96 96" xml:space="preserve">
<path d="M88,28v56c0,6.6-5.4,12-12,12H20c-6.6,0-12-5.4-12-12V12C8,5.4,13.4,0,20,0h40L88,28z M60,28h16.7L60,11.3V28z M80,84V36H52
	V8H20c-1.4,0-2.4,0.7-2.8,1.2C16.7,9.6,16,10.6,16,12v72c0,1.4,0.7,2.4,1.2,2.8c0.4,0.4,1.4,1.2,2.8,1.2h56c1.4,0,2.4-0.7,2.8-1.2
	S80,85.4,80,84z"/>
</svg>
