<?xml version="1.0" encoding="utf-8"?>
<!-- Generator: Adobe Illustrator 22.1.0, SVG Export Plug-In . SVG Version: 6.00 Build 0)  -->
<svg version="1.1" id="Layer_1" xmlns="http://www.w3.org/2000/svg" xmlns:xlink="http://www.w3.org/1999/xlink" x="0px" y="0px"
	 viewBox="0 0 96 96" style="enable-background:new 0 0 96 96;" xml:space="preserve">
<style type="text/css">
	.st0{fill:#000400;}
</style>
<g id="组件">
	<g id="功能icon_x2F_文件夹" transform="translate(0.000000, -1.000000)">
		<path id="合并形状" class="st0" d="M33.2,75.8V52.7c0-2,1.6-3.7,3.7-3.7h44.7l0-16.8H44.9c-1.6,0-3-0.7-3.8-2.1l-4.9-8H14.4
			v53.7H33.2z M86,23.3c2.5,0,4.5,2.1,4.5,4.6v52.4c0,2.5-2,4.5-4.5,4.5H10c-2.5,0-4.5-2-4.5-4.5V17.7c0-2.5,2-4.5,4.5-4.5h28.7
			c1.6,0,3,0.7,3.8,2.1l4.9,8H86z"/>
	</g>
</g>
</svg>
