<?xml version="1.0" encoding="utf-8"?>
<!-- Generator: Adobe Illustrator 17.0.0, SVG Export Plug-In . SVG Version: 6.00 Build 0)  -->
<!DOCTYPE svg PUBLIC "-//W3C//DTD SVG 1.1//EN" "http://www.w3.org/Graphics/SVG/1.1/DTD/svg11.dtd">
<svg version="1.1" id="Layer_1" xmlns="http://www.w3.org/2000/svg" xmlns:xlink="http://www.w3.org/1999/xlink" x="0px" y="0px"
	 width="96px" height="96px" viewBox="0 0 96 96" enable-background="new 0 0 96 96" xml:space="preserve">
<g>
	<path d="M48,4C23.7,4,4,23.699,4,48s19.7,44,44,44s44-19.699,44-44S72.3,4,48,4z M48,84c-19.882,0-36-16.118-36-36s16.118-36,36-36
		s36,16.118,36,36S67.882,84,48,84z"/>
	<path d="M64.883,32.583l-16.462,1.485l-17.711-1.445l1.522,15.229L30.754,64.11l18.105-1.429l16.025,1.502L63.38,48.375
		L64.883,32.583z M56.004,55.316l-7.086-0.664L39.58,55.39l0.688-7.574l-0.644-6.439l8.831,0.721l7.551-0.681l-0.663,6.958
		L56.004,55.316z"/>
</g>
</svg>
