<?xml version="1.0" encoding="utf-8"?>
<!-- Generator: Adobe Illustrator 17.0.0, SVG Export Plug-In . SVG Version: 6.00 Build 0)  -->
<!DOCTYPE svg PUBLIC "-//W3C//DTD SVG 1.1//EN" "http://www.w3.org/Graphics/SVG/1.1/DTD/svg11.dtd">
<svg version="1.1" id="Layer_1" xmlns="http://www.w3.org/2000/svg" xmlns:xlink="http://www.w3.org/1999/xlink" x="0px" y="0px"
	 width="96px" height="96px" viewBox="0 0 96 96" enable-background="new 0 0 96 96" xml:space="preserve">
<path d="M64,12c-12,0-24-8-36-8S8,8,8,8v48v8v24c0,2.2,1.8,4,4,4c2.2,0,4-1.8,4-4V61.4c3.2-0.7,7.3-1.4,12-1.4c12,0,24,8,36,8
	s20-4,20-4V8C84,8,76,12,64,12z M76,58.4c-3.9,1.1-8,1.6-12,1.6c-5.8,0-11.6-2.3-17-4.1c-6.1-2-12.4-3.9-19-3.9c-4,0-8.1,0.4-12,1.2
	V13.6c3.9-1.1,8-1.6,12-1.6c5.8,0,11.6,2.3,17,4.1c6.1,2,12.4,3.9,19,3.9c4,0,8.1-0.4,12-1.2V58.4z"/>
</svg>
