<?xml version="1.0" encoding="utf-8"?>
<!-- Generator: Adobe Illustrator 17.0.0, SVG Export Plug-In . SVG Version: 6.00 Build 0)  -->
<!DOCTYPE svg PUBLIC "-//W3C//DTD SVG 1.1//EN" "http://www.w3.org/Graphics/SVG/1.1/DTD/svg11.dtd">
<svg version="1.1" id="Layer_1" xmlns="http://www.w3.org/2000/svg" xmlns:xlink="http://www.w3.org/1999/xlink" x="0px" y="0px"
	 width="96px" height="96px" viewBox="0 0 96 96" enable-background="new 0 0 96 96" xml:space="preserve">
<path d="M37.4,24.4l2.3,3.6H44h36c2.2,0,4,1.8,4,4v44c0,2.2-1.8,4-4,4H16c-2.2,0-4-1.8-4-4V20c0-2.2,1.8-4,4-4h16L37.4,24.4z M36,8
	H16C9.4,8,4,13.4,4,20v56c0,6.6,5.4,12,12,12h64c6.6,0,12-5.4,12-12V32c0-6.6-5.4-12-12-12H44L36,8L36,8z"/>
</svg>
