<?xml version="1.0" encoding="utf-8"?>
<!-- Generator: Adobe Illustrator 21.0.0, SVG Export Plug-In . SVG Version: 6.00 Build 0)  -->
<svg version="1.1" id="Layer_1" xmlns="http://www.w3.org/2000/svg" xmlns:xlink="http://www.w3.org/1999/xlink" x="0px" y="0px"
	 viewBox="0 0 96 96" style="enable-background:new 0 0 96 96;" xml:space="preserve">
<path d="M12.9,28v41L48,89.5L83.1,69V28L48,7.5L12.9,28z M77.3,66.1L48,83.6L18.7,66.1V30.9L48,13.4l29.3,17.6V66.1z M51.3,51.7
	v19.8c0,1.4-1.1,2.6-2.6,2.6c-1.4,0-2.5-1.1-2.6-2.5c0,0,0-0.1,0-0.1V51.7L28.2,41.4c-1.2-0.7-1.6-2.3-0.9-3.5
	c0.3-0.6,0.9-1,1.5-1.2c0.7-0.2,1.4-0.1,1.9,0.3l17.9,10.2L66.5,37c1.2-0.7,2.7-0.3,3.4,0.9c0,0,0,0,0,0.1c0.7,1.2,0.3,2.8-0.9,3.5
	L51.3,51.7L51.3,51.7L51.3,51.7z"/>
</svg>
