<?xml version="1.0" encoding="utf-8"?>
<!-- Generator: Adobe Illustrator 21.0.0, SVG Export Plug-In . SVG Version: 6.00 Build 0)  -->
<svg version="1.1" id="图层_1" xmlns="http://www.w3.org/2000/svg" xmlns:xlink="http://www.w3.org/1999/xlink" x="0px" y="0px"
	 viewBox="0 0 96 96" style="enable-background:new 0 0 96 96;" xml:space="preserve">
<g>
	<path d="M45.2,87.7H18.7c-4.2,0-7.6-3.5-7.6-8V8.3h61c4.2,0,7.6,3.6,7.6,8v29.9c0,1.2,1,2.1,2.1,2.1s2.1-1,2.1-2.1V16.3
		C84.1,9.5,78.7,4,72.1,4H8.9H6.8v2.1v73.6c0,6.7,5.3,12.2,11.9,12.2h26.5c1.2,0,2.1-1,2.1-2.1C47.4,88.7,46.4,87.7,45.2,87.7z"/>
	<path d="M71,31.9H21.9c-1.2,0-2.1,1-2.1,2.1c0,1.2,1,2.1,2.1,2.1H71c1.2,0,2.1-1,2.1-2.1C73.1,32.9,72.2,31.9,71,31.9z"/>
	<path d="M71.2,19H22.2C21,19,20,20,20,21.2c0,1.2,1,2.1,2.1,2.1h49.1c1.2,0,2.1-1,2.1-2.1C73.4,20,72.4,19,71.2,19z"/>
	<path d="M71.2,49.1c-11.9,0-21.5,9.6-21.5,21.5c0,11.9,9.6,21.5,21.5,21.5c11.9,0,21.5-9.6,21.5-21.5C92.7,58.7,83,49.1,71.2,49.1z
		 M71.2,87.7C61.7,87.7,54,80,54,70.5c0-9.5,7.7-17.2,17.2-17.2c9.5,0,17.2,7.7,17.2,17.2C88.4,80,80.7,87.7,71.2,87.7z"/>
	<path d="M83.5,62.7c-0.8-0.8-2.2-0.8-3,0L68,75.1c0,0,0,0,0,0L62,69c-0.8-0.8-2.2-0.8-3,0c-0.8,0.8-0.8,2.2,0,3l6.1,6.1
		c1.7,1.7,4.4,1.7,6.1,0l12.4-12.4C84.4,64.9,84.4,63.5,83.5,62.7z"/>
</g>
</svg>
