<?xml version="1.0" encoding="utf-8"?>
<!-- Generator: Adobe Illustrator 22.1.0, SVG Export Plug-In . SVG Version: 6.00 Build 0)  -->
<svg version="1.1" id="Layer_1" xmlns="http://www.w3.org/2000/svg" xmlns:xlink="http://www.w3.org/1999/xlink" x="0px" y="0px"
	 viewBox="0 0 96 96" style="enable-background:new 0 0 96 96;" xml:space="preserve">
<g>
	<path d="M77.9,44.6v-0.8V14.1C77.9,8.5,73.3,4,67.7,4h-59h-2v2v64.7c0,5.6,4.5,10.1,10.2,10.1h24.4h0.9l0.6-0.6l34.6-34.9
		L77.9,44.6z M73.8,42.4L40.3,76.7H16.9c-3.4,0-6.1-2.7-6.1-6V8h56.9c3.4,0,6.1,2.7,6.1,6.1V42.4z"/>
	<path d="M83.5,65.4l5.8-5.9l-10.9-11l-5.7,6l0,0L71.2,56l-22,22l-0.4,0.4L48.6,79l-2,10L46,92l2.9-0.6l10-2l0.6-0.1l0.4-0.4
		L80.9,68l0,0l1.7-1.7L83.5,65.4L83.5,65.4z M78.5,54.2l5.2,5l-3,3.1l-5.1-4.9L78.5,54.2z M57.5,85.5L51,86.9l1.6-6.7l20-19.9
		l5.2,5.1L57.5,85.5z"/>
	<path d="M64.6,34H18.1c-1.1,0-2,0.8-2,1.9c0,1,0.9,1.9,2,1.9h46.5c1.1,0,2-0.8,2-1.9C66.6,34.8,65.7,34,64.6,34z"/>
	<path d="M64.6,20.9H18.1c-1.1,0-2,0.8-2,1.9c0,1,0.9,1.9,2,1.9h46.5c1.1,0,2-0.8,2-1.9C66.6,21.7,65.7,20.9,64.6,20.9z"/>
</g>
</svg>
