<?xml version="1.0" encoding="utf-8"?>
<!-- Generator: Adobe Illustrator 22.1.0, SVG Export Plug-In . SVG Version: 6.00 Build 0)  -->
<svg version="1.1" id="Layer_1" xmlns="http://www.w3.org/2000/svg" xmlns:xlink="http://www.w3.org/1999/xlink" x="0px" y="0px"
	 viewBox="0 0 96 96" style="enable-background:new 0 0 96 96;" xml:space="preserve">
<path d="M80.7,57.6c-6.2,0-11.3,5.1-11.3,11.3c0,2.9,1.1,5.5,2.9,7.5c-6.4,6.3-15,10-24.2,10c-8.7,0-16.8-3.2-23.1-8.9
	c1.1-1.7,1.7-3.8,1.7-6c0-6.2-5.1-11.3-11.3-11.3c-0.3,0-0.5,0-0.8,0c-0.7-2.7-1-5.5-1-8.3c0-14.5,9.1-27.3,22.3-32.3
	c1.3,4.8,5.7,8.2,10.9,8.2c5.5,0,10-3.9,11.1-9.1c13.9,4.1,23.9,16.6,24.7,31.3c0.1,1.2,1.1,2.1,2.3,2c1.2-0.1,2.1-1.1,2-2.3
	c-0.9-17-12.7-31.3-28.9-35.5c-1-5.2-5.6-9.1-11.1-9.1c-5.8,0-10.5,4.3-11.2,9.9C20,20.5,9.2,35.2,9.2,51.9c0,3.2,0.4,6.4,1.2,9.4
	C6.6,63.2,4,67.1,4,71.5c0,6.2,5.1,11.3,11.3,11.3c2.5,0,4.8-0.8,6.7-2.2c7.1,6.4,16.3,10,26,10c10.6,0,20.5-4.3,27.7-11.6
	c1.5,0.7,3.2,1.2,5,1.2c6.2,0,11.3-5.1,11.3-11.3C92,62.7,86.9,57.6,80.7,57.6z M46.7,9.6c3.9,0,7,3.1,7,7c0,3.9-3.1,7-7,7
	c-3.6,0-6.5-2.7-6.9-6.1c0.2-0.4,0.2-0.9,0-1.3c0-0.1-0.1-0.1-0.1-0.2C40,12.4,43,9.6,46.7,9.6z M8.3,71.5c0-3.9,3.1-7,7-7
	s7,3.1,7,7c0,3.9-3.1,7-7,7S8.3,75.4,8.3,71.5z M80.7,75.9c-3.9,0-7-3.1-7-7c0-3.9,3.1-7,7-7c3.9,0,7,3.1,7,7
	C87.7,72.8,84.6,75.9,80.7,75.9z"/>
</svg>
