<?xml version="1.0" encoding="utf-8"?>
<!-- Generator: Adobe Illustrator 21.0.0, SVG Export Plug-In . SVG Version: 6.00 Build 0)  -->
<svg version="1.1" id="图层_1" xmlns="http://www.w3.org/2000/svg" xmlns:xlink="http://www.w3.org/1999/xlink" x="0px" y="0px"
	 viewBox="0 0 96 96" style="enable-background:new 0 0 96 96;" xml:space="preserve">
<g>
	<path d="M45.9,3.3c-18.9,0-34.1,15.6-34.1,34.8c0,5.5,2.4,12.2,6.7,19.9c2.3,4.2,5.2,8.6,8.4,13.1c3.2,4.5,6.7,8.9,10.2,13
		c1.2,1.4,2.3,2.7,3.4,3.9c0.6,0.7,1,1.2,1.3,1.4l0,0c2.4,2.6,6.3,2.6,8.6,0c0.2-0.2,0.6-0.7,1.3-1.4c1-1.1,2.1-2.4,3.4-3.9
		c3.5-4.1,6.9-8.5,10.2-13c3.2-4.5,6.1-8.9,8.4-13.1c4.3-7.7,6.6-14.4,6.6-19.8C80.1,18.9,64.8,3.3,45.9,3.3z M69.8,55.9
		c-2.2,4-5,8.3-8.1,12.7c-3.2,4.4-6.6,8.7-10,12.8c-1.2,1.4-2.3,2.7-3.3,3.8c-0.6,0.7-1,1.1-1.2,1.4c-0.7,0.8-1.8,0.9-2.5,0.1l0,0
		c-0.2-0.2-0.6-0.7-1.2-1.4c-1-1.1-2.1-2.4-3.3-3.8c-3.4-4-6.8-8.3-10-12.8c-3.2-4.4-5.9-8.6-8.1-12.7c-4-7.1-6.1-13.2-6.1-17.8
		c0-16.9,13.4-30.6,30-30.6c16.6,0,30,13.7,30,30.6C75.9,42.7,73.8,48.8,69.8,55.9z"/>
	<path d="M47,18.1c-10.3,0-18.6,8.5-18.6,19c0,10.5,8.3,19,18.6,19c3.1,0,6.1-0.8,8.7-2.2c1-0.5,1.4-1.8,0.9-2.9
		c-0.5-1-1.8-1.4-2.8-0.9c-2.1,1.1-4.4,1.7-6.8,1.7c-8,0-14.5-6.6-14.5-14.8S39,22.3,47,22.3c8,0,14.5,6.6,14.5,14.8
		c0,1.8-0.3,3.5-0.9,5.2c-0.4,1.1,0.1,2.3,1.2,2.7c1.1,0.4,2.3-0.1,2.7-1.2c0.8-2.1,1.2-4.4,1.2-6.7C65.6,26.6,57.2,18.1,47,18.1z"
		/>
</g>
</svg>
