<?xml version="1.0" encoding="utf-8"?>
<!-- Generator: Adobe Illustrator 22.1.0, SVG Export Plug-In . SVG Version: 6.00 Build 0)  -->
<svg version="1.1" id="Layer_1" xmlns="http://www.w3.org/2000/svg" xmlns:xlink="http://www.w3.org/1999/xlink" x="0px" y="0px"
	 viewBox="0 0 96 96" style="enable-background:new 0 0 96 96;" xml:space="preserve">
<path d="M64.6,58.5c0.8-0.6,1.6-1.3,2.3-2c5.5-5.6,7.6-12.7,3.8-16.3c-1.1-1-2.4-1.5-3.9-1.7c3.8-5.1,4.9-10.8,1.6-13.8
	c-3.3-3.1-9.2-1.8-14.3,2.2c1.1-2.4,1.7-5.4,1.7-8.5c0-7.7-3.6-14.3-8.9-14.3c-5.3,0-8.9,6.5-8.9,14.3c0,3.2,0.6,6.1,1.7,8.5
	c-5.1-4-11-5.3-14.3-2.2c-3.5,3.3-2,9.8,2.7,15.2c-0.2,0.1-0.3,0.2-0.4,0.4c-3.8,3.6-1.7,10.7,3.8,16.3c0.7,0.7,1.5,1.4,2.3,2
	c-2.4-0.3-4.5,0.2-6.1,1.6c-3.8,3.6-1.7,10.7,3.8,16.3c4.6,4.7,10.5,7,14.5,5.5v7.9c0,1.2,1,2.1,2.2,2.1c1.2,0,2.2-0.9,2.2-2.1v-9.4
	c0,0.1,0.1,0.1,0.1,0.2c0.9,0.8,2.2,0.8,3.1-0.1c0.8-0.8,0.8-2.2-0.1-3c-1.6-1.5-0.2-6.2,3.9-10.3c4.1-4.1,8.9-5.6,10.5-4.1
	c1.6,1.5,0.2,6.2-3.9,10.3c-1.5,1.5-3.2,2.8-4.9,3.6c-1.1,0.5-1.5,1.8-1,2.8c0.5,1,1.8,1.5,2.9,0.9c2.1-1,4.2-2.6,6-4.4
	c5.5-5.6,7.6-12.7,3.8-16.3C69.1,58.6,67,58.2,64.6,58.5z M63.8,53.5c-4.1,4.1-8.9,5.6-10.5,4.1c-1.6-1.5-0.2-6.2,3.9-10.3
	c4.1-4.1,8.9-5.6,10.5-4.1C69.3,44.6,67.9,49.4,63.8,53.5z M45.8,34.1c-0.3-0.6-0.7-1.3-1.2-1.9c0.4,0.1,0.8,0.2,1.2,0.3V34.1z
	 M45.7,45.1c0.1,0,0.1-0.1,0.1-0.2v1.2c-0.2-0.2-0.4-0.5-0.6-0.7C45.4,45.4,45.5,45.3,45.7,45.1z M50.2,46.4
	c0.6,0.2,1.2,0.3,1.8,0.4c-0.7,0.9-1.3,1.8-1.8,2.8V46.4z M65.4,27.6c1.6,1.5,0.2,6.2-3.9,10.3s-8.9,5.6-10.5,4.1
	c-1.6-1.5-0.2-6.2,3.9-10.3C59,27.7,63.9,26.2,65.4,27.6z M46.9,8.2c2.2,0,4.6,4.4,4.6,10.1S49,28.4,46.9,28.4
	c-2.2,0-4.6-4.4-4.6-10.1S44.7,8.2,46.9,8.2z M28.3,27.6c1.6-1.5,6.4,0,10.5,4.1s5.4,8.9,3.9,10.3c-0.2,0.2-0.4,0.3-0.6,0.4
	c-3.1-2.5-6.5-3.9-9.4-4.1c-0.2-0.1-0.3-0.3-0.5-0.4C28.1,33.9,26.7,29.1,28.3,27.6z M30.6,43.2c0.2-0.2,0.4-0.3,0.6-0.4
	c3.1,2.5,6.5,3.9,9.4,4.1c0.2,0.1,0.3,0.3,0.5,0.4c4.1,4.1,5.4,8.9,3.9,10.3c-1.6,1.5-6.4,0-10.5-4.1C30.4,49.4,29,44.6,30.6,43.2z
	 M45,77.6c-1.6,1.5-6.4,0-10.5-4.1c-4.1-4.1-5.4-8.9-3.9-10.3c1.6-1.5,6.4,0,10.5,4.1C45.1,71.4,46.5,76.2,45,77.6z M44.2,64.4
	c-0.7-0.7-1.5-1.4-2.3-2c1.4,0.2,2.8,0.1,3.9-0.3v4.2C45.3,65.6,44.8,64.9,44.2,64.4z M50.2,69.6v-9c0,0.1,0.1,0.1,0.1,0.2
	c1.6,1.5,3.7,1.9,6.1,1.6c-0.8,0.6-1.6,1.3-2.3,2C52.5,66,51.1,67.8,50.2,69.6z"/>
</svg>
