<?xml version="1.0" encoding="utf-8"?>
<!-- Generator: Adobe Illustrator 22.1.0, SVG Export Plug-In . SVG Version: 6.00 Build 0)  -->
<svg version="1.1" id="Layer_1" xmlns="http://www.w3.org/2000/svg" xmlns:xlink="http://www.w3.org/1999/xlink" x="0px" y="0px"
	 viewBox="0 0 96 96" style="enable-background:new 0 0 96 96;" xml:space="preserve">
<g>
	<path d="M81,17c0-7.1-5.9-13-13-13S55,9.9,55,17s13,25.5,13,25.5S81,24.4,81,17z M62.5,15c0-3.1,2.4-5.5,5.5-5.5
		c3.1,0,5.5,2.4,5.5,5.5s-2.6,5.5-5.5,5.5C64.9,20.5,62.5,18.1,62.5,15z"/>
	<path d="M82.1,25.3c-0.5,1.3-1.3,2.6-1.8,3.9c0.6,0.7,0.9,1.6,1.5,2.4H79c-0.7,1.3-1.5,2.6-2.2,3.7h6.8c1.7,4,2.6,8.2,2.9,12.8
		H71.8c0-1.7-0.2-3.1-0.4-4.8c-0.2,0.2-0.4,0.4-0.4,0.5L68,48H49.8V35.2h9.4c-0.7-1.1-1.5-2.4-2.2-3.7h-7.2v-18
		c0.5,0.2,1.1,0.2,1.7,0.4c0.4-2,0.9-4,1.8-5.7C51.5,8,49.8,7.8,48,7.8c-23.3,0-42.2,18.9-42.2,42C5.8,73.1,24.7,92,48,92
		c23.3,0,42.2-18.9,42.2-42.2C90,40.7,87,32.2,82.1,25.3z M46,48H27.8c0.2-4.6,0.7-8.8,1.7-12.8H46V48z M30.8,31.5
		c3.3-9.9,9-16.9,15.4-18v18H30.8z M39,12.6c-5.3,3.7-9.7,10.5-12.3,18.9H14.3C19.4,22.1,28.4,15.2,39,12.6z M12.4,35.2h13.4
		c-0.9,4-1.5,8.2-1.6,12.8H9.5C9.9,43.4,10.8,39.2,12.4,35.2z M9.5,51.7h14.7c0.2,4.6,0.7,8.8,1.6,12.8H12.4
		C10.8,60.5,9.9,56.2,9.5,51.7z M14.1,68.2h12.7c2.6,8.6,7,15.4,12.3,19.1C28.4,84.7,19.2,77.7,14.1,68.2z M46.2,86.3
		c-6.6-1.1-12.3-8.2-15.6-18.2h15.6V86.3z M46.3,64.5h-0.2H29.7c-0.9-4-1.7-8.2-1.7-12.8h18.3V64.5z M49.8,51.7H68
		c-0.2,4.6-0.7,8.8-1.7,12.8H49.8V51.7z M49.8,68.2h15.4c-3.3,9.9-9,17.1-15.4,18.2V68.2z M56.8,87.2c5.3-3.7,9.7-10.4,12.3-19.1
		h12.7C76.6,77.7,67.6,84.7,56.8,87.2z M83.6,64.5H70c0.9-4,1.5-8.2,1.7-12.8h14.7C86.1,56.2,85.2,60.5,83.6,64.5z"/>
</g>
</svg>
