<?xml version="1.0" encoding="utf-8"?>
<!-- Generator: Adobe Illustrator 22.1.0, SVG Export Plug-In . SVG Version: 6.00 Build 0)  -->
<svg version="1.1" id="Layer_1" xmlns="http://www.w3.org/2000/svg" xmlns:xlink="http://www.w3.org/1999/xlink" x="0px" y="0px"
	 viewBox="0 0 96 96" style="enable-background:new 0 0 96 96;" xml:space="preserve">
<g>
	<path d="M14.6,21.9H6.1C5,21.9,4,22.8,4,23.8c0,1,1,1.9,2.1,1.9h8.5c1.2,0,2.1-0.8,2.1-1.9C16.8,22.8,15.8,21.9,14.6,21.9z"/>
	<path d="M14.6,46.1H6.1C5,46.1,4,47,4,48s1,1.9,2.1,1.9h8.5c1.2,0,2.1-0.8,2.1-1.9S15.8,46.1,14.6,46.1z"/>
	<path d="M14.6,70.3H6.1C5,70.3,4,71.2,4,72.2c0,1,1,1.9,2.1,1.9h8.5c1.2,0,2.1-0.8,2.1-1.9C16.8,71.2,15.8,70.3,14.6,70.3z"/>
	<path d="M27.4,25.7h61.7c1.2,0,2.1-0.8,2.1-1.9c0-1-1-1.9-2.1-1.9H27.4c-1.2,0-2.1,0.8-2.1,1.9C25.3,24.8,26.2,25.7,27.4,25.7z"/>
	<path d="M27.9,49.9h61.7c1.2,0,2.1-0.8,2.1-1.9s-1-1.9-2.1-1.9H27.9c-1.2,0-2.1,0.8-2.1,1.9S26.8,49.9,27.9,49.9z"/>
	<path d="M89.9,70.3H28.2c-1.2,0-2.1,0.8-2.1,1.9c0,1,1,1.9,2.1,1.9h61.7c1.2,0,2.1-0.8,2.1-1.9C92,71.2,91,70.3,89.9,70.3z"/>
</g>
</svg>
