<?xml version="1.0" encoding="utf-8"?>
<!-- Generator: Adobe Illustrator 22.1.0, SVG Export Plug-In . SVG Version: 6.00 Build 0)  -->
<svg version="1.1" id="Layer_1" xmlns="http://www.w3.org/2000/svg" xmlns:xlink="http://www.w3.org/1999/xlink" x="0px" y="0px"
	 viewBox="0 0 96 96" style="enable-background:new 0 0 96 96;" xml:space="preserve">
<g>
	<path d="M48,4C23.7,4,4,23.7,4,48s19.7,44,44,44c10.1,0,19.7-3.4,27.4-9.6c0.9-0.7,1.1-2.1,0.3-3c-0.7-0.9-2.1-1.1-3-0.3
		c-7,5.6-15.6,8.6-24.7,8.6C26.1,87.7,8.3,69.9,8.3,48S26.1,8.3,48,8.3S87.7,26.1,87.7,48c0,7.5-2.1,14.7-6,21c-0.6,1-0.3,2.3,0.7,3
		s2.3,0.3,3-0.7C89.7,64.3,92,56.3,92,48C92,23.7,72.3,4,48,4z"/>
	<path d="M49.1,38.3c-1.2,0-2.1,1-2.1,2.1v27.4c0,1.2,1,2.1,2.1,2.1c1.2,0,2.1-1,2.1-2.1V40.5C51.2,39.3,50.3,38.3,49.1,38.3z"/>
	<path d="M51.2,27.6c0-1.2-1-2.1-2.1-2.1c-1.2,0-2.1,1-2.1,2.1v3.8c0,1.2,1,2.1,2.1,2.1c1.2,0,2.1-1,2.1-2.1V27.6z"/>
</g>
</svg>
