<?xml version="1.0" encoding="utf-8"?>
<!-- Generator: Adobe Illustrator 22.1.0, SVG Export Plug-In . SVG Version: 6.00 Build 0)  -->
<svg version="1.1" id="Layer_1" xmlns="http://www.w3.org/2000/svg" xmlns:xlink="http://www.w3.org/1999/xlink" x="0px" y="0px"
	 viewBox="0 0 96 96" style="enable-background:new 0 0 96 96;" xml:space="preserve">
<g>
	<path d="M87.3,36.9c-1.2,0-2.2,1-2.2,2.2v26.6L48.9,86.2V48.5c0-0.2,0-0.3-0.1-0.5l37-21c1.5-0.8,1.4-3-0.1-3.8l-38-19
		c-0.6-0.3-1.3-0.3-1.9,0l-38,19c-1,0.5-1.4,1.6-1.1,2.6c-0.1,0.2-0.1,0.4-0.1,0.6V67c0,0.8,0.4,1.5,1,1.8l38,22.9c0,0,0,0,0,0
		c0.1,0.1,0.2,0.1,0.3,0.2c0,0,0,0,0.1,0c0.2,0.1,0.5,0.1,0.8,0.1c0,0,0,0,0,0c0.2,0,0.5-0.1,0.7-0.2c0,0,0.1,0,0.1,0
		c0,0,0.1,0,0.1,0l40.5-22.9c0.7-0.4,1.1-1.1,1.1-1.9V39.1C89.4,37.9,88.5,36.9,87.3,36.9z M44.6,86L10.9,65.7V28.9L44.6,48
		c0,0.2-0.1,0.3-0.1,0.5V86z M80.2,25.3L46.7,44.2L13.3,25.3L46.7,8.6L80.2,25.3z"/>
	<path d="M32.6,47.4L20,39.8c-1-0.6-2.3-0.3-3,0.7c-0.6,1-0.3,2.3,0.7,3l12.7,7.6c1,0.6,2.3,0.3,3-0.7C34,49.3,33.7,48,32.6,47.4z"
		/>
</g>
</svg>
