<?xml version="1.0" encoding="utf-8"?>
<!-- Generator: Adobe Illustrator 22.1.0, SVG Export Plug-In . SVG Version: 6.00 Build 0)  -->
<svg version="1.1" id="Layer_1" xmlns="http://www.w3.org/2000/svg" xmlns:xlink="http://www.w3.org/1999/xlink" x="0px" y="0px"
	 viewBox="0 0 96 96" style="enable-background:new 0 0 96 96;" xml:space="preserve">
<g>
	<path d="M48,46.9c25.1,0,44-8.1,44-18.8S73.1,9.2,48,9.2S4,17.3,4,28.1S22.9,46.9,48,46.9z M48,14c23.1,0,39.2,7.4,39.2,14.1
		S71.1,42.2,48,42.2c-23.1,0-39.2-7.4-39.2-14.1C8.8,21.4,24.9,14,48,14z"/>
	<path d="M88.1,60.2C88.1,60.2,88.1,60.2,88.1,60.2L88.1,60.2c-0.4-0.4-0.9-0.6-1.5-0.6c-1.2,0-2.2,1-2.2,2.2c0,0.6,0.3,1.2,0.7,1.6
		l0,0c1.4,1.5,2.3,3.2,2.3,4.7c0,6.7-16.2,14.2-39.4,14.2C24.8,82.2,8.7,74.8,8.7,68c0-1.7,0.5-3.1,2.3-4.7c0,0,0,0,0.1-0.1
		c0,0,0,0,0,0l0,0c0.4-0.4,0.6-0.9,0.6-1.5c0-1.2-1-2.2-2.2-2.2c-0.6,0-1.1,0.2-1.5,0.6l0,0c-2.4,2.4-3.8,5-3.8,7.8
		C4.1,78.7,23,86.8,48,86.8c25,0,43.9-8.1,43.9-18.7C91.9,65.2,90.5,62.6,88.1,60.2C88.1,60.2,88.1,60.2,88.1,60.2z"/>
	<path d="M48,66.9c25,0,43.9-8.1,43.9-18.7c0-2.8-1.4-5.4-3.8-7.8c0,0,0,0,0,0c0,0,0,0,0-0.1l0,0c-0.4-0.4-0.9-0.6-1.5-0.6
		c-1.2,0-2.2,1-2.2,2.2c0,0.6,0.3,1.2,0.7,1.6l0,0c1.4,1.5,2.3,3.2,2.3,4.7c0,6.7-16.2,14.2-39.4,14.2c-23.2,0-39.4-7.5-39.4-14.2
		c0-1.7,0.5-3.1,2.3-4.7c0,0,0,0,0.1-0.1c0,0,0,0,0,0l0,0c0.4-0.4,0.6-0.9,0.6-1.5c0-1.2-1-2.2-2.2-2.2c-0.6,0-1.1,0.2-1.5,0.6l0,0
		c-2.4,2.4-3.8,5-3.8,7.8C4.1,58.8,23,66.9,48,66.9z"/>
</g>
</svg>
