<?xml version="1.0" encoding="utf-8"?>
<!-- Generator: Adobe Illustrator 22.1.0, SVG Export Plug-In . SVG Version: 6.00 Build 0)  -->
<svg version="1.1" id="Layer_1" xmlns="http://www.w3.org/2000/svg" xmlns:xlink="http://www.w3.org/1999/xlink" x="0px" y="0px"
	 viewBox="0 0 96 96" style="enable-background:new 0 0 96 96;" xml:space="preserve">
<g>
	<path d="M28.4,14.1h61.1c1.3,0,2.4-1.1,2.4-2.4s-1.1-2.4-2.4-2.4H28.4c-1.3,0-2.4,1.1-2.4,2.4S27.1,14.1,28.4,14.1z"/>
	<path d="M14.8,9.3H6.4C5.1,9.3,4,10.4,4,11.7s1.1,2.4,2.4,2.4h8.3c1.3,0,2.4-1.1,2.4-2.4S16.1,9.3,14.8,9.3z"/>
	<path d="M89.6,33.5H28.4c-1.3,0-2.4,1.1-2.4,2.4c0,1.3,1.1,2.4,2.4,2.4h61.1c1.3,0,2.4-1.1,2.4-2.4C92,34.6,90.9,33.5,89.6,33.5z"
		/>
	<path d="M14.8,33.5H6.4c-1.3,0-2.4,1.1-2.4,2.4c0,1.3,1.1,2.4,2.4,2.4h8.3c1.3,0,2.4-1.1,2.4-2.4C17.2,34.6,16.1,33.5,14.8,33.5z"
		/>
	<path d="M54.4,81.9H28.4c-1.3,0-2.4,1.1-2.4,2.4c0,1.3,1.1,2.4,2.4,2.4h25.9c1.3,0,2.4-1.1,2.4-2.4C56.8,83,55.7,81.9,54.4,81.9z"
		/>
	<path d="M14.8,81.9H6.4C5.1,81.9,4,83,4,84.3c0,1.3,1.1,2.4,2.4,2.4h8.3c1.3,0,2.4-1.1,2.4-2.4C17.2,83,16.1,81.9,14.8,81.9z"/>
	<path d="M54.4,57.7H28.4c-1.3,0-2.4,1.1-2.4,2.4c0,1.3,1.1,2.4,2.4,2.4h25.9c1.3,0,2.4-1.1,2.4-2.4C56.8,58.8,55.7,57.7,54.4,57.7z
		"/>
	<path d="M14.8,57.7H6.4c-1.3,0-2.4,1.1-2.4,2.4c0,1.3,1.1,2.4,2.4,2.4h8.3c1.3,0,2.4-1.1,2.4-2.4C17.2,58.8,16.1,57.7,14.8,57.7z"
		/>
	<path d="M89.6,66.7H79V56.2c0-1.3-1.1-2.4-2.4-2.4c-1.3,0-2.4,1.1-2.4,2.4v10.5H63.6c-1.3,0-2.4,1.1-2.4,2.4c0,1.3,1.1,2.4,2.4,2.4
		h10.5v10.5c0,1.3,1.1,2.4,2.4,2.4c1.3,0,2.4-1.1,2.4-2.4V71.6h10.5c1.3,0,2.4-1.1,2.4-2.4C92,67.8,90.9,66.7,89.6,66.7z"/>
</g>
</svg>
