<?xml version="1.0" encoding="utf-8"?>
<!-- Generator: Adobe Illustrator 21.0.0, SVG Export Plug-In . SVG Version: 6.00 Build 0)  -->
<svg version="1.1" id="图层_1" xmlns="http://www.w3.org/2000/svg" xmlns:xlink="http://www.w3.org/1999/xlink" x="0px" y="0px"
	 viewBox="0 0 96 96" style="enable-background:new 0 0 96 96;" xml:space="preserve">
<g>
	<path d="M56.2,24.7H44.2c-1.2,0-2.2,1-2.2,2.2c0,1.2,1,2.2,2.2,2.2h12.1c1.2,0,2.2-1,2.2-2.2S57.5,24.7,56.2,24.7z"/>
	<path d="M78.2,24.7H66.2c-1.2,0-2.2,1-2.2,2.2c0,1.2,1,2.2,2.2,2.2h12.1c1.2,0,2.2-1,2.2-2.2S79.5,24.7,78.2,24.7z"/>
	<path d="M56.2,38.1H44.2c-1.2,0-2.2,1-2.2,2.2c0,1.2,1,2.2,2.2,2.2h12.1c1.2,0,2.2-1,2.2-2.2C58.5,39.1,57.5,38.1,56.2,38.1z"/>
	<path d="M78.2,38.1H66.2c-1.2,0-2.2,1-2.2,2.2c0,1.2,1,2.2,2.2,2.2h12.1c1.2,0,2.2-1,2.2-2.2C80.4,39.1,79.5,38.1,78.2,38.1z"/>
	<path d="M56.2,51.5H44.2c-1.2,0-2.2,1-2.2,2.2c0,1.2,1,2.2,2.2,2.2h12.1c1.2,0,2.2-1,2.2-2.2C58.5,52.5,57.5,51.5,56.2,51.5z"/>
	<path d="M78.2,51.5H66.2c-1.2,0-2.2,1-2.2,2.2c0,1.2,1,2.2,2.2,2.2h12.1c1.2,0,2.2-1,2.2-2.2C80.4,52.5,79.5,51.5,78.2,51.5z"/>
	<path d="M56.2,64.9H44.2c-1.2,0-2.2,1-2.2,2.2c0,1.2,1,2.2,2.2,2.2h12.1c1.2,0,2.2-1,2.2-2.2C58.5,65.9,57.5,64.9,56.2,64.9z"/>
	<path d="M78.2,64.9H66.2c-1.2,0-2.2,1-2.2,2.2c0,1.2,1,2.2,2.2,2.2h12.1c1.2,0,2.2-1,2.2-2.2C80.4,65.9,79.5,64.9,78.2,64.9z"/>
	<path d="M34.2,24.7H22.1c-1.2,0-2.2,1-2.2,2.2c0,1.2,1,2.2,2.2,2.2h12.1c1.2,0,2.2-1,2.2-2.2S35.5,24.7,34.2,24.7z"/>
	<path d="M34.2,38.1H22.1c-1.2,0-2.2,1-2.2,2.2c0,1.2,1,2.2,2.2,2.2h12.1c1.2,0,2.2-1,2.2-2.2C36.5,39.1,35.5,38.1,34.2,38.1z"/>
	<path d="M34.2,51.5H22.1c-1.2,0-2.2,1-2.2,2.2c0,1.2,1,2.2,2.2,2.2h12.1c1.2,0,2.2-1,2.2-2.2C36.5,52.5,35.5,51.5,34.2,51.5z"/>
	<path d="M34.2,64.9H22.1c-1.2,0-2.2,1-2.2,2.2c0,1.2,1,2.2,2.2,2.2h12.1c1.2,0,2.2-1,2.2-2.2C36.5,65.9,35.5,64.9,34.2,64.9z"/>
	<path d="M89.6,59.2c-1.3,0-2.4,1.1-2.4,2.5v19.9H16.2c-4,0-7.3-3.3-7.3-7.5V14.5h70.9c4,0,7.3,3.3,7.3,7.5l0,22.3
		c0,1.3,1.1,2.4,2.4,2.4c1.3,0,2.4-1.1,2.4-2.4l0-22.3c0-6.9-5.5-12.4-12.2-12.4H6.4H4V12v62.1c0,6.9,5.5,12.4,12.2,12.4h73.3H92V84
		V61.7C92,60.3,90.9,59.2,89.6,59.2z"/>
</g>
</svg>
