<?xml version="1.0" encoding="utf-8"?>
<!-- Generator: Adobe Illustrator 22.1.0, SVG Export Plug-In . SVG Version: 6.00 Build 0)  -->
<svg version="1.1" id="Layer_1" xmlns="http://www.w3.org/2000/svg" xmlns:xlink="http://www.w3.org/1999/xlink" x="0px" y="0px"
	 viewBox="0 0 96 96" style="enable-background:new 0 0 96 96;" xml:space="preserve">
<g>
	<path d="M48.2,7.8L48.2,7.8C24.9,7.8,6.1,26.6,6.1,49.9C6.1,73.1,24.9,92,48.2,92c9.7,0,18.8-3.3,26.2-9.2c0.9-0.7,1-2,0.3-2.9
		c-0.7-0.9-2-1-2.9-0.3c-6.7,5.3-14.9,8.3-23.7,8.3c-21,0-38-17-38-38c0-21,17-38,38-38c21,0,38,17,38,38c0,7.2-2,14.1-5.7,20.1
		c-0.6,1-0.3,2.2,0.7,2.8c1,0.6,2.2,0.3,2.8-0.7c4.1-6.6,6.3-14.3,6.3-22.3C90.3,26.6,71.5,7.8,48.2,7.8z"/>
	<path d="M7.2,21.7c0.5,0,1.1-0.2,1.5-0.6L22.8,7.8c0.9-0.8,0.9-2.2,0.1-3.1c-0.8-0.9-2.2-0.9-3.1-0.1L5.7,17.9
		c-0.9,0.8-0.9,2.2-0.1,3.1C6,21.5,6.6,21.7,7.2,21.7L7.2,21.7z"/>
	<path d="M90.3,17.9L76.2,4.6c-0.9-0.8-2.3-0.8-3.1,0.1c-0.8,0.9-0.8,2.3,0.1,3.1l14.1,13.3c0.4,0.4,0.9,0.6,1.5,0.6l0,0
		c0.6,0,1.2-0.2,1.6-0.7C91.2,20.1,91.2,18.7,90.3,17.9z"/>
	<path d="M74.2,47.8L74.2,47.8c0,0-0.1,0-0.1,0c0,0,0,0,0,0H49.6V23.4c0,0,0-0.1,0-0.1c0,0,0-0.1,0-0.1c0-1.2-1-2.3-2.2-2.3
		c-1.2,0-2.2,1-2.2,2.3c0,0,0,0.1,0,0.1c0,0,0,0.1,0,0.1v24.4c-1.2,0-2.3,1-2.3,2.2c0,1.1,0.8,2,1.9,2.2c0.1,0,0.2,0.1,0.4,0.1h0v0
		c0,0,0,0.1,0,0.2c0.1,1.2,1,2.1,2.2,2.1c1.2,0,2.2-1,2.2-2.3H74c0,0,0.1,0,0.1,0h0c1.2,0,2.3-1,2.3-2.2
		C76.4,48.8,75.4,47.8,74.2,47.8z"/>
</g>
</svg>
