<?xml version="1.0" encoding="utf-8"?>
<!-- Generator: Adobe Illustrator 22.1.0, SVG Export Plug-In . SVG Version: 6.00 Build 0)  -->
<svg version="1.1" id="Layer_1" xmlns="http://www.w3.org/2000/svg" xmlns:xlink="http://www.w3.org/1999/xlink" x="0px" y="0px"
	 viewBox="0 0 96 96" style="enable-background:new 0 0 96 96;" xml:space="preserve">
<g>
	<path d="M37.1,52.4c0.6-0.4,0.7-1.5,0.4-2c-0.6-0.8-1.7-0.7-2.4-0.5c-6.6,2.2-14.2,11.4-14.2,19.6v1.3h1.3l25,0l27.1,0h1.3v-1.3
		c0-9.9-7.9-20.1-19-22.8c4-2.8,6.6-7.4,6.6-12.6c0-8.5-6.9-15.4-15.3-15.4c-8.5,0-15.3,6.9-15.3,15.4c0,8.5,6.9,15.4,15.3,15.4
		c0.2,0,0.4,0,0.5,0c0,0,0.1,0,0.1,0c12.4,0,21.8,8.1,22.6,18l-23.2,0l-22.6,0.1C26.2,61,32.2,55.6,37.1,52.4z M36.3,34.1
		c0-6.5,5.2-11.7,11.7-11.7c6.4,0,11.7,5.2,11.7,11.7c0,6.5-5.2,11.7-11.7,11.7C41.5,45.7,36.3,40.5,36.3,34.1z"/>
	<path d="M48,4.1C23.7,4.1,4,23.7,4,48c0,24.3,19.7,43.9,44,43.9c10.1,0,19.7-3.4,27.4-9.6c0.9-0.7,1.1-2.1,0.3-3
		c-0.7-0.9-2.1-1.1-3-0.3c-7,5.5-15.6,8.6-24.7,8.6C26.1,87.6,8.3,69.9,8.3,48C8.3,26.1,26.1,8.4,48,8.4S87.7,26.1,87.7,48
		c0,7.5-2.1,14.7-6,20.9c-0.6,1-0.3,2.3,0.7,3c1,0.6,2.3,0.3,3-0.7C89.7,64.3,92,56.3,92,48C92,23.7,72.3,4.1,48,4.1z"/>
</g>
</svg>
