<?xml version="1.0" encoding="utf-8"?>
<!-- Generator: Adobe Illustrator 22.1.0, SVG Export Plug-In . SVG Version: 6.00 Build 0)  -->
<svg version="1.1" id="Layer_1" xmlns="http://www.w3.org/2000/svg" xmlns:xlink="http://www.w3.org/1999/xlink" x="0px" y="0px"
	 viewBox="0 0 96 96" style="enable-background:new 0 0 96 96;" xml:space="preserve">
<g>
	<path d="M32.5,32.5c-1,1-1,2.5,0,3.5l27.7,27.7c1,1,2.5,1,3.5,0c1-1,1-2.5,0-3.5L36,32.5C35,31.6,33.5,31.6,32.5,32.5z"/>
	<path d="M38,47c-4.9,2.2-10.8,1.3-14.8-2.7L12.9,34.1c-5.2-5.2-5.2-13.5,0-18.7l2.5-2.5c5.2-5.2,13.5-5.2,18.7,0l10.3,10.3
		c4.1,4.1,4.9,10.1,2.6,15c-0.3,0.9-0.2,2,0.5,2.7c1,1,2.5,1,3.5,0c0.2-0.2,0.4-0.4,0.5-0.7c3.2-6.6,2.1-14.7-3.4-20.1L37.2,9.2
		c-6.9-6.9-18-6.9-24.9,0l-3.1,3.1c-6.9,6.9-6.9,18,0,24.9l10.9,10.9c5.4,5.4,13.4,6.5,19.9,3.5c0,0,0,0,0.1,0c0,0,0.1,0,0.1-0.1
		c0.2-0.1,0.4-0.3,0.6-0.5c1-1,1-2.5,0-3.5C40.1,46.7,38.9,46.6,38,47z"/>
	<path d="M86.8,58.8L75.9,47.9c-5.5-5.5-13.6-6.6-20.1-3.4c-0.2,0.1-0.5,0.3-0.7,0.5c-1,1-1,2.5,0,3.5c0.7,0.7,1.8,0.8,2.7,0.5
		c4.9-2.3,11-1.5,15,2.6l10.3,10.3c5.2,5.2,5.2,13.5,0,18.7l-2.5,2.5c-5.2,5.2-13.5,5.2-18.7,0L51.7,72.8c-4-4-4.9-10-2.7-14.8
		c0.5-0.9,0.3-2.1-0.4-2.8c-1-1-2.5-1-3.5,0c-0.2,0.2-0.3,0.4-0.5,0.6c0,0,0,0.1-0.1,0.1c0,0,0,0,0,0.1c-3.1,6.5-1.9,14.5,3.5,19.9
		l10.9,10.9c6.9,6.9,18,6.9,24.9,0l3.1-3.1C93.7,76.8,93.7,65.7,86.8,58.8z"/>
</g>
</svg>
