<?xml version="1.0" encoding="utf-8"?>
<!-- Generator: Adobe Illustrator 22.1.0, SVG Export Plug-In . SVG Version: 6.00 Build 0)  -->
<svg version="1.1" id="Layer_1" xmlns="http://www.w3.org/2000/svg" xmlns:xlink="http://www.w3.org/1999/xlink" x="0px" y="0px"
	 viewBox="0 0 96 96" style="enable-background:new 0 0 96 96;" xml:space="preserve">
<g>
	<path d="M85.9,27.7c-0.1-0.1-0.3-0.3-0.6-0.6c-0.5-0.5-1.1-1-1.7-1.6c-1.8-1.6-3.5-3.2-5.2-4.8c-0.2-0.2-0.2-0.2-0.4-0.3
		c-2.2-2-4.1-3.7-5.5-4.8c-0.8-0.7-1.4-1.2-1.9-1.5c-0.3-0.2-0.6-0.4-0.8-0.5c-0.3-0.1-0.6-0.2-1-0.2c-1.1,0-2,0.9-2,2v3.9v3.9v7.9
		v2h2h13.8v55.1H33.4c-3.3,0-5.9-2.7-5.9-5.9V17.3H61c1.1,0,2-0.9,2-2s-0.9-2-2-2H25.6h-2v2v60.8h-4.9c-3,0-5.5-2.4-5.5-5.4V7.6
		h52.4c3.1,0,5.5,2.4,5.5,5.4v0.3h3.7V13c0-5-4.1-9-9.2-9H11.3H9.5v1.8v65c0,5,4.1,9,9.2,9h4.9v2.4c0,5.4,4.4,9.8,9.9,9.8h51.1h1.9
		v-2v-59v-2h0C86.5,28.6,86.3,28,85.9,27.7z M70.7,29.1L70.7,29.1v-5.9v-3.9v0c1.3,1.1,2.8,2.4,4.6,4.1c0.2,0.2,0.2,0.2,0.4,0.3
		c1.7,1.5,3.4,3.1,5.2,4.7c0.3,0.2,0.5,0.5,0.8,0.7H70.7z"/>
	<path d="M75.8,41.3H37.9c-1,0-1.8,0.8-1.8,1.8c0,1,0.8,1.8,1.8,1.8h37.9c1,0,1.8-0.8,1.8-1.8C77.7,42.1,76.8,41.3,75.8,41.3z"/>
	<path d="M75.8,52.1H37.9c-1,0-1.8,0.8-1.8,1.8c0,1,0.8,1.8,1.8,1.8h37.9c1,0,1.8-0.8,1.8-1.8C77.7,52.9,76.8,52.1,75.8,52.1z"/>
	<path d="M75.8,64.7H37.9c-1,0-1.8,0.8-1.8,1.8c0,1,0.8,1.8,1.8,1.8h37.9c1,0,1.8-0.8,1.8-1.8C77.7,65.5,76.8,64.7,75.8,64.7z"/>
</g>
</svg>
