<?xml version="1.0" encoding="utf-8"?>
<!-- Generator: Adobe Illustrator 22.1.0, SVG Export Plug-In . SVG Version: 6.00 Build 0)  -->
<svg version="1.1" id="Layer_1" xmlns="http://www.w3.org/2000/svg" xmlns:xlink="http://www.w3.org/1999/xlink" x="0px" y="0px"
	 viewBox="0 0 96 96" style="enable-background:new 0 0 96 96;" xml:space="preserve">
<g>
	<path d="M74.2,46.7c-0.9-0.9-1.9-1.6-3.2-2.1c-2.3-1-4.9-1-7.2-0.2v-3.6c0-1.4-0.5-2.8-1.6-3.8c-1-1-2.3-1.6-3.8-1.6h-1.7
		c0.3-1,0.5-2.1,0.5-3.2c0-1.4-0.3-2.8-0.8-4c-0.6-1.2-1.3-2.3-2.2-3.2c-0.9-0.9-2-1.7-3.2-2.2c-2.5-1.1-5.5-1.1-8,0
		c-1.2,0.6-2.3,1.3-3.2,2.2c-0.9,0.9-1.7,2-2.2,3.2c-0.6,1.2-0.8,2.6-0.8,4c0,1.1,0.2,2.2,0.5,3.2h-4.9c-1.4,0-2.8,0.6-3.8,1.6
		c-1,1-1.6,2.3-1.6,3.8v5.6c0.1,1.2,0.3,1.9,0.7,2.6c0.5,0.8,1.3,1.3,2.2,1.4h0.4c0.5,0,1.1-0.1,1.7-0.4c0.4-0.2,0.8-0.5,1.3-0.6
		l0.5-0.2c1.4-0.6,2.7-0.6,3.8-0.1c0.6,0.2,1.1,0.6,1.6,1c0.5,0.5,0.8,1,1,1.6c0.3,0.6,0.4,1.2,0.4,1.9c0,0.7-0.1,1.3-0.4,1.9
		c-0.3,0.6-0.6,1.1-1,1.6c-0.5,0.5-1,0.8-1.6,1c-1.2,0.5-2.5,0.5-3.8-0.1l-0.5-0.1l-0.4-0.2c-1.6-1-3.1-1-4.2-0.1
		c-0.8,0.6-1.4,1.6-1.7,2.7L27,66.4c0,1.5,0.6,2.8,1.6,3.8c1,1,2.4,1.6,3.8,1.6h26c1.4,0,2.8-0.6,3.9-1.6c1-1,1.6-2.3,1.6-3.8v-3.2
		C66.1,64,68.8,64,71,63c1.2-0.5,2.3-1.2,3.2-2.1c0.9-0.9,1.6-2,2.1-3.2c0.5-1.2,0.8-2.6,0.8-3.9c0-1.4-0.3-2.7-0.8-3.9
		C75.8,48.7,75.1,47.6,74.2,46.7z M72.8,56.1c-0.3,0.7-0.8,1.4-1.4,1.9c-0.5,0.5-1.2,1-1.9,1.3c-1.4,0.6-3.1,0.6-4.5,0.1
		c-0.7-0.3-1.4-0.6-1.9-1.1l-3.2-2.8v10.8c0,0.5-0.1,0.7-0.5,1c-0.3,0.3-0.6,0.5-1,0.5H32.5c-0.5,0-0.8-0.1-1.1-0.5
		c-0.3-0.3-0.5-0.6-0.5-1v-5.5c0.5,0.3,0.9,0.5,1.2,0.6c2.3,1.1,4.8,1,6.9,0.1c1-0.5,2-1.1,2.8-1.9s1.4-1.7,1.9-2.7
		c0.5-1,0.7-2.2,0.7-3.4s-0.3-2.4-0.7-3.4c-0.5-1-1.1-2-1.9-2.8s-1.7-1.4-2.8-1.9c-2.1-0.9-4.8-0.9-6.7,0c-0.3,0.1-0.6,0.3-0.8,0.3
		c-0.2,0.1-0.5,0.2-0.6,0.3v-5.4c0-0.4,0.1-0.7,0.5-1c0.3-0.3,0.6-0.5,1-0.5h12.3L42.2,36c-0.5-0.5-0.8-1.2-1-1.8
		c-0.3-0.6-0.4-1.3-0.4-2.1c0-0.9,0.2-1.7,0.5-2.5s0.8-1.4,1.4-2c0.6-0.6,1.2-1,2-1.4c1.5-0.6,3.3-0.6,4.8,0c0.8,0.3,1.4,0.8,2,1.4
		c0.6,0.6,1,1.2,1.4,2s0.5,1.6,0.5,2.5c0,1.5-0.5,2.7-1.4,3.8l-2.8,3.2h9.3c0.5,0,0.7,0.1,1,0.5c0.3,0.3,0.5,0.6,0.5,1.1v11.3
		l3.2-2.7c0.5-0.5,1.2-0.8,1.9-1.1c1.4-0.6,3-0.5,4.5,0.1c0.7,0.3,1.4,0.7,1.9,1.3c0.5,0.5,1,1.2,1.3,1.9c0.3,0.7,0.5,1.5,0.5,2.3
		C73.2,54.6,73.1,55.4,72.8,56.1z"/>
	<polygon points="92,48 92,48 92,48 	"/>
	<path d="M48,4C23.7,4,4,23.7,4,48c0,24.3,19.7,44,44,44c10,0,19.1-3.4,26.5-9c0.3-0.3,0.5-0.8,0.5-1.3c0-1.1-0.8-1.9-1.9-1.9
		c-0.6,0-1,0.2-1.4,0.6c-6.6,4.9-14.8,7.8-23.6,7.8c-22,0-39.9-17.9-39.9-39.9S26.1,8.4,48.1,8.4S88,26.3,88,48.3
		c0,6.7-1.6,13.1-4.5,18.6V67c-0.1,0.2-0.1,0.4-0.1,0.6c0,1.1,0.9,1.9,1.9,1.9c0.8,0,1.6-0.5,1.8-1.3c3-6.1,4.9-12.9,4.9-20.2
		C92,23.7,72.3,4,48,4z"/>
</g>
</svg>
