<?xml version="1.0" encoding="utf-8"?>
<!-- Generator: Adobe Illustrator 22.1.0, SVG Export Plug-In . SVG Version: 6.00 Build 0)  -->
<svg version="1.1" id="Layer_1" xmlns="http://www.w3.org/2000/svg" xmlns:xlink="http://www.w3.org/1999/xlink" x="0px" y="0px"
	 viewBox="0 0 96 96" style="enable-background:new 0 0 96 96;" xml:space="preserve">
<g>
	<path d="M75.8,4H11.6H9.5v2.1v75.4c0,5.8,4.8,10.5,10.7,10.5h50.3h0.9l0.6-0.6l13.9-14.1l0.6-0.6v-0.8V14.5C86.5,8.7,81.7,4,75.8,4
		z M69.5,87.8H20.2c-3.5,0-6.4-2.8-6.4-6.3V8.2h62c3.5,0,6.4,2.8,6.4,6.3v60.4L69.5,87.8z"/>
	<path d="M76.9,64.8h-9.6c-3.6,0-6.4,2.8-6.4,6.3v12.6c0,1.2,1,2.1,2.1,2.1s2.1-0.9,2.1-2.1V71c0-1.2,1-2.1,2.1-2.1h9.6
		c1.2,0,2.1-0.9,2.1-2.1S78.1,64.8,76.9,64.8z"/>
	<path d="M26.6,22.9h44c1.2,0,2.1-0.9,2.1-2.1c0-1.2-1-2.1-2.1-2.1h-44c-1.2,0-2.1,0.9-2.1,2.1C24.5,21.9,25.4,22.9,26.6,22.9z"/>
	<path d="M26.6,35.4h44c1.2,0,2.1-0.9,2.1-2.1c0-1.2-1-2.1-2.1-2.1h-44c-1.2,0-2.1,0.9-2.1,2.1C24.5,34.5,25.4,35.4,26.6,35.4z"/>
	<path d="M72.8,48c0-1.2-1-2.1-2.1-2.1h-44c-1.2,0-2.1,0.9-2.1,2.1s1,2.1,2.1,2.1h44C71.8,50.1,72.8,49.2,72.8,48z"/>
</g>
</svg>
