<?xml version="1.0" encoding="utf-8"?>
<!-- Generator: Adobe Illustrator 21.0.0, SVG Export Plug-In . SVG Version: 6.00 Build 0)  -->
<svg version="1.1" id="图层_1" xmlns="http://www.w3.org/2000/svg" xmlns:xlink="http://www.w3.org/1999/xlink" x="0px" y="0px"
	 viewBox="0 0 96 96" style="enable-background:new 0 0 96 96;" xml:space="preserve">
<g>
	<path d="M76.9,37H28.5V22.7c0-7.9,6.4-14.3,14.3-14.3h7.7c7.9,0,14.3,6.4,14.3,14.3v7.9c0,0,0.6,1.5,2.3,1.5c1.7,0,2.1-1.5,2.1-1.5
		v0v-7.9C69.2,12.4,60.8,4,50.5,4h-7.7c-10.3,0-18.7,8.4-18.7,18.7V37h-6.6c0,0,0,0,0,0c-3.6,0-6.6,2.9-6.6,6.6v0v41.8
		c0,3.6,3,6.6,6.6,6.6h59.4c0,0,0,0,0,0c3.6,0,6.6-2.9,6.6-6.6V43.6C83.5,39.9,80.5,37,76.9,37z M79.1,85.4c0,1.2-1,2.2-2.2,2.2
		H17.5c-1.2,0-2.2-1-2.2-2.2V43.6c0-1.2,1-2.2,2.2-2.2h59.4c1.2,0,2.2,1,2.2,2.2V85.4z"/>
	<path d="M48.3,51.4c-1.2,0-2.2,1-2.2,2.2c0,0,0,0,0,0v20.7c0,1.2,1,2.2,2.2,2.2c1.2,0,2.2-1,2.2-2.2c0,0,0,0,0,0V53.6
		C50.5,52.4,49.6,51.4,48.3,51.4z"/>
</g>
</svg>
