<?xml version="1.0" encoding="utf-8"?>
<!-- Generator: Adobe Illustrator 21.0.0, SVG Export Plug-In . SVG Version: 6.00 Build 0)  -->
<svg version="1.1" id="图层_1" xmlns="http://www.w3.org/2000/svg" xmlns:xlink="http://www.w3.org/1999/xlink" x="0px" y="0px"
	 viewBox="0 0 96 96" style="enable-background:new 0 0 96 96;" xml:space="preserve">
<g>
	<path d="M59.3,51.1c6.6-3.3,11.2-10.2,11.2-18.2c0-11.2-9-20.3-20.2-20.3s-20.2,9.1-20.2,20.3c0,7.4,4,13.9,9.9,17.5
		C20.7,54.2,6.1,71.4,6.1,92h3.6c0-21.4,17.2-38.8,38.4-38.8c21.2,0,38.4,17.4,38.4,38.8h3.6C90.1,72.5,77.1,56,59.3,51.1z
		 M33.8,32.9c0-9.2,7.4-16.7,16.5-16.7s16.5,7.5,16.5,16.7s-7.4,16.7-16.5,16.7S33.8,42.1,33.8,32.9z"/>
	<path d="M24.2,53.2c4.1,0,7.5-3.4,7.5-7.5s-3.3-7.5-7.5-7.5c-0.3,0-0.5,0-0.7,0c-0.2-1.2-0.3-2.4-0.3-3.7
		c0-14.9,11.9-26.9,26.6-26.9c10.4,0,20.6,7.6,25,18c0.4,0.8,0.6,1,3.7,2.6c0.1,0.1,0.1,0.1,0.3,0.1c0.7,0.3,1.4,0.7,2.1,1.1V43
		c0,0-0.1,0-0.1,0c-1,0.4-2,0.7-3,1.1c-0.1,0-0.1,0-0.2,0.1c-1.2,0.4-2.1,0.8-2.8,1.1c-0.4,0.2-0.7,0.3-1,0.4
		c-0.2,0.1-0.3,0.1-0.4,0.2c-0.1,0.1-0.1,0.1-0.3,0.2c-0.4,0.2-1.2,0.8-0.6,2c0.6,1.2,2.7,0.8,3,0.6c0.7-0.3,2.2-0.7,3.4-1.1
		c0.1,0,0.1,0,0.2-0.1c0.9-0.3,1.9-0.7,2.9-1c0.6-0.2,1.1-0.4,1.3-0.5l1.2-0.4v-1.3v-16v-1.1l-1-0.5c-0.2-0.1-0.5-0.3-1-0.5
		c-0.7-0.4-1.4-0.7-2.1-1.1c-0.1-0.1-0.1-0.1-0.3-0.1c-0.8-0.4-1.4-0.7-1.8-1c-0.1-0.1-0.2-0.1-0.3-0.2C72.9,12.3,61.5,4,49.8,4
		C33.1,4,19.5,17.7,19.5,34.5c0,1.7,0.1,3.3,0.4,5c-1.9,1.4-3.2,3.6-3.2,6.2C16.7,49.9,20,53.2,24.2,53.2z M78.2,24.2
		c0-0.1-0.1-0.2-0.1-0.3C78.1,24,78.1,24.1,78.2,24.2z M28,45.7c0,2.1-1.7,3.9-3.8,3.9c-2.1,0-3.8-1.7-3.8-3.9
		c0-2.1,1.7-3.9,3.8-3.9C26.3,41.8,28,43.6,28,45.7z"/>
</g>
</svg>
