<?xml version="1.0" encoding="utf-8"?>
<!-- Generator: Adobe Illustrator 22.1.0, SVG Export Plug-In . SVG Version: 6.00 Build 0)  -->
<svg version="1.1" id="Layer_1" xmlns="http://www.w3.org/2000/svg" xmlns:xlink="http://www.w3.org/1999/xlink" x="0px" y="0px"
	 viewBox="0 0 96 96" style="enable-background:new 0 0 96 96;" xml:space="preserve">
<g>
	<path d="M90.1,89.2c-0.1-0.4-0.1-0.4-0.2-0.6c-0.1-0.2-0.2-0.3-0.3-0.5c-0.2-0.2-0.5-0.6-0.8-0.9c-0.6-0.7-1.5-1.6-2.7-2.9
		c-1.8-1.9-3.7-3.8-8.2-8.4c-4.5-4.5-6.3-6.4-8.2-8.4c-0.9-0.9-1.6-1.7-2.2-2.3c6.2-6.7,9.7-15.5,9.7-24.9c0-20-16-36.3-35.7-36.3
		S5.8,20.3,5.8,40.3c0,20,16,36.3,35.7,36.3c0.4,0,0.9,0,1.4-0.1c0.4,0,0.7-0.1,1.2-0.1c1.1-0.1,1.6-0.2,2-0.2c0.8,0,2.1-0.3,4-0.8
		c0.2-0.1,0.5-0.1,0.7-0.2c0.7-0.2,1.5-0.4,2.2-0.7c0.4-0.1,0.8-0.2,1-0.3c1.1-0.4,1.8-1.6,1.4-2.8c-0.4-1.2-1.6-1.8-2.7-1.4
		c-0.2,0.1-0.5,0.2-0.9,0.3c-0.7,0.2-1.4,0.4-2.1,0.6c-0.2,0.1-0.4,0.1-0.7,0.2c-1.5,0.4-2.6,0.7-2.9,0.7c-0.7,0-1.2,0-2.5,0.2
		c-0.5,0.1-0.8,0.1-1.1,0.1c-0.4,0-0.7,0-1.1,0c-17.3,0-31.3-14.3-31.3-31.9c0-17.6,14-31.9,31.3-31.9c17.3,0,31.3,14.3,31.3,31.9
		c0,8.9-3.6,17.2-9.8,23.2c-0.8,1.5-0.8,1.5-0.6,2.2c0.1,0.4,0.1,0.4,0.2,0.6c0.1,0.2,0.2,0.3,0.3,0.5c0.2,0.2,0.5,0.6,0.8,0.9
		c0.6,0.7,1.5,1.6,2.7,2.9c1.8,1.9,3.7,3.8,8.2,8.4c4.5,4.6,6.3,6.5,8.2,8.4c1.1,1.2,2,2.1,2.6,2.8c0.2,0.3,0.4,0.5,0.5,0.6
		c0.1,0.2,0.2,0.3,0.3,0.5c0.8,0.9,2.1,1,3.1,0.3C90.3,90,90.3,90,90.1,89.2z M85.9,89.4c0,0.3,0,0.6,0,0.8
		C85.8,89.9,85.8,89.7,85.9,89.4z"/>
	<path d="M41.3,19.5C30,19.5,20.8,28.7,20.8,40c0,11.3,9.2,20.5,20.5,20.5c11.3,0,20.5-9.2,20.5-20.5S52.6,19.5,41.3,19.5z
		 M41.3,56.3c-9,0-16.4-7.3-16.4-16.4s7.3-16.4,16.4-16.4S57.6,30.9,57.6,40S50.3,56.3,41.3,56.3z"/>
</g>
</svg>
