<?xml version="1.0" encoding="utf-8"?>
<!-- Generator: Adobe Illustrator 21.0.0, SVG Export Plug-In . SVG Version: 6.00 Build 0)  -->
<svg version="1.1" id="图层_1" xmlns="http://www.w3.org/2000/svg" xmlns:xlink="http://www.w3.org/1999/xlink" x="0px" y="0px"
	 viewBox="0 0 96 96" style="enable-background:new 0 0 96 96;" xml:space="preserve">
<path d="M81,9.4H6.2H4v2.2v50.6c0,6.1,4.9,11,11,11h22.4l-5.7,13.2h-9.1c-1.2,0-2.2,1-2.2,2.2c0,1.2,1,2.2,2.2,2.2h52.8
	c1.2,0,2.2-1,2.2-2.2c0-1.2-1-2.2-2.2-2.2h-9.1c0-0.1-0.1-0.2-0.2-0.3l-7.7-9.9c-0.7-1-2.1-1.1-3.1-0.4c-1,0.7-1.1,2.1-0.4,3.1
	l5.8,7.4H36.6l5.7-13.2h47.6H92V71V20.4C92,14.4,87.1,9.4,81,9.4z M8.4,62.2V13.8H81c3.6,0,6.6,3,6.6,6.6v48.4H15
	C11.4,68.8,8.4,65.9,8.4,62.2z"/>
</svg>
