<?xml version="1.0" encoding="utf-8"?>
<!-- Generator: Adobe Illustrator 22.1.0, SVG Export Plug-In . SVG Version: 6.00 Build 0)  -->
<svg version="1.1" id="Layer_1" xmlns="http://www.w3.org/2000/svg" xmlns:xlink="http://www.w3.org/1999/xlink" x="0px" y="0px"
	 viewBox="0 0 96 96" style="enable-background:new 0 0 96 96;" xml:space="preserve">
<g>
	<path d="M48,4C23.7,4,4,23.7,4,48s19.7,44,44,44c9.8,0,19.1-3.2,26.7-9c0.8-0.6,1-1.8,0.4-2.7c-0.6-0.8-1.8-1-2.7-0.4
		c-6.9,5.3-15.4,8.2-24.3,8.2c-22.2,0-40.2-18-40.2-40.2c0-22.2,18-40.2,40.2-40.2s40.2,18,40.2,40.2c0,7.5-2,14.7-5.9,20.9
		c-0.6,0.9-0.3,2.1,0.6,2.6c0.9,0.6,2.1,0.3,2.6-0.6C89.8,64.1,92,56.2,92,48C92,23.7,72.3,4,48,4z"/>
	<path d="M75.9,30.1c-0.8-0.6-2-0.5-2.7,0.3L53.3,56L35.5,42.1L34.1,41l-1.2,1.3L19.2,57.4c-0.7,0.8-0.6,2,0.1,2.7
		c0.8,0.7,2,0.6,2.7-0.1l12.5-13.8l17.9,14l1.5,1.2l1.2-1.5l21.1-27C76.9,32,76.7,30.8,75.9,30.1z"/>
</g>
</svg>
