<?xml version="1.0" encoding="utf-8"?>
<!-- Generator: Adobe Illustrator 21.0.0, SVG Export Plug-In . SVG Version: 6.00 Build 0)  -->
<svg version="1.1" id="图层_1" xmlns="http://www.w3.org/2000/svg" xmlns:xlink="http://www.w3.org/1999/xlink" x="0px" y="0px"
	 viewBox="0 0 96 96" style="enable-background:new 0 0 96 96;" xml:space="preserve">
<g>
	<path d="M81,16.4H4v53.3c0,5.9,4.9,10.8,11,10.8h67.3c1.2,0,2.2-1,2.2-2.1c0-1.2-1-2.1-2.2-2.1H15c-3.7,0-6.6-2.9-6.6-6.5v-49H81
		c3.6,0,6.6,2.9,6.6,6.5v42.4c0,1.2,1,2.1,2.2,2.1c1.2,0,2.2-1,2.2-2.1V27.2C92,21.3,87.1,16.4,81,16.4z"/>
	<path d="M80.4,44.6V28.1H15.6v16.5H80.4z M20.2,32.7h55.7V40H20.2V32.7z"/>
</g>
</svg>
