<?xml version="1.0" encoding="utf-8"?>
<!-- Generator: Adobe Illustrator 22.1.0, SVG Export Plug-In . SVG Version: 6.00 Build 0)  -->
<svg version="1.1" id="Layer_1" xmlns="http://www.w3.org/2000/svg" xmlns:xlink="http://www.w3.org/1999/xlink" x="0px" y="0px"
	 viewBox="0 0 96 96" style="enable-background:new 0 0 96 96;" xml:space="preserve">
<g>
	<path d="M15.2,43.5l12.6,7.6c1,0.6,2.3,0.3,2.9-0.7c0.6-1,0.3-2.3-0.7-2.9l-12.6-7.6c-1-0.6-2.3-0.3-2.9,0.7
		C13.8,41.6,14.1,42.9,15.2,43.5z"/>
	<path d="M55.6,80.6L47,85.5v0L46.2,86V48l33.5-19l3.4-2.1c0.7-0.4,0.8-1,0.9-1.4c0.1-0.8-0.3-1.7-1.2-2.2L45,4.4
		c-0.6-0.3-1.3-0.3-1.9,0L5.2,23.3c-1.4,0.9-1.2,3-1.2,3.2v40.4c0,0.7,0.4,1.5,1,1.8c0,0,37,22.4,37.7,22.7c0.5,0.2,0.9,0.4,1.3,0.4
		c-0.2,0-0.4,0-0.6-0.1c0,0,0.1,0,0.1,0c0,0-0.1,0-0.1,0c0.2,0.1,0.5,0.1,0.7,0.1c0.5,0,0.9-0.1,1.3-0.3l12.3-7.1
		c1.1-0.6,1.4-2,0.8-3C57.9,80.3,56.6,80,55.6,80.6z M41.8,85.9L8.3,65.7V28.9l33.5,19V85.9z M44,44.2L10.7,25.4L44,8.7l33.3,16.6
		L44,44.2z"/>
	<path d="M90.9,50.5l-0.4-0.2c0,0-0.1,0-0.2,0h0.1l-16.9-8.4c-0.5-0.2-1-0.2-1.5,0l-16.8,8.4c-1.2,0.5-1.5,1.5-1.5,2.1V71
		c0,0.6,0.3,1.1,0.8,1.4c0,0,17.2,10.3,17.3,10.3c0,0,1,0.8,2,0.1l17.4-10.4c0.5-0.3,0.8-0.8,0.8-1.4V51.9
		C92,51.2,91.5,50.7,90.9,50.5z M71.2,78.6L57,70.1V54.7l14.2,8V78.6z M72.9,59.9L59,52l13.8-6.9L86.7,52L72.9,59.9z M88.7,70.1
		l-14.2,8.5V62.7l14.2-8V70.1z"/>
</g>
</svg>
