<?xml version="1.0" encoding="utf-8"?>
<!-- Generator: Adobe Illustrator 22.1.0, SVG Export Plug-In . SVG Version: 6.00 Build 0)  -->
<svg version="1.1" id="Layer_1" xmlns="http://www.w3.org/2000/svg" xmlns:xlink="http://www.w3.org/1999/xlink" x="0px" y="0px"
	 viewBox="0 0 96 96" style="enable-background:new 0 0 96 96;" xml:space="preserve">
<path d="M59,52.6c7.8-4.3,13.2-12.7,13.2-22.3c0-14-11.3-25.4-25.3-25.4S21.6,16.3,21.6,30.3s11.3,25.4,25.3,25.4c0.3,0,0.6,0,0.9,0
	c0.1,0,0.1,0,0.2,0c20.4,0,38,14.6,39.5,30.9H45.8H8.5c0.9-10.9,8-20.6,19.2-26.2c1.1-0.5,1.5-1.9,1-3c-0.5-1.1-1.9-1.5-3-1
	C12.4,63.2,4,75.4,4,88.9v2.2h2.2h39.6h44H92v-2.2C92,72.2,77.6,57.1,59,52.6z M26,30.3c0-11.6,9.4-21,20.9-21s20.9,9.4,20.9,21
	s-9.4,21-20.9,21S26,41.9,26,30.3z"/>
</svg>
