<?xml version="1.0" encoding="utf-8"?>
<!-- Generator: Adobe Illustrator 22.1.0, SVG Export Plug-In . SVG Version: 6.00 Build 0)  -->
<svg version="1.1" id="Layer_1" xmlns="http://www.w3.org/2000/svg" xmlns:xlink="http://www.w3.org/1999/xlink" x="0px" y="0px"
	 viewBox="0 0 96 96" style="enable-background:new 0 0 96 96;" xml:space="preserve">
<g>
	<path d="M48,4C23.7,4,4,23.7,4,48s19.7,44,44,44c10.1,0,19.7-3.4,27.4-9.6c0.9-0.7,1.1-2.1,0.3-3c-0.7-0.9-2.1-1.1-3-0.3
		c-7,5.6-15.6,8.6-24.7,8.6C26.1,87.7,8.3,69.9,8.3,48S26.1,8.3,48,8.3S87.7,26.1,87.7,48c0,7.5-2.1,14.7-6,21c-0.6,1-0.3,2.3,0.7,3
		s2.3,0.3,3-0.7C89.7,64.3,92,56.3,92,48C92,23.7,72.3,4,48,4z"/>
	<path d="M56.4,47c3.7-3.4,5.6-6.5,5.6-9.4c-0.3-7.8-4.4-11.9-12.2-12.2c-9-0.2-13.5,4.7-13.5,14.5c0,0,0.2,2,2.5,2
		c2.3,0,2.4-2,2.4-2c-0.1-6.6,2.9-9.7,9.1-9.4c4.1,0.5,6.3,2.8,6.4,7c-0.3,1.9-1.9,4.3-4.7,7.3c-3.7,3.7-5.6,7.1-5.6,10.1v3
		c0,0,0.3,1.8,2.3,1.8c2,0,2.3-1.8,2.3-1.8v-2.1C51.1,53.4,52.8,50.4,56.4,47z"/>
	<path d="M46.9,66.3v0.8c0,1.6,1.3,2.9,2.9,2.9c1.6,0,2.9-1.3,2.9-2.9v-0.8c0-1.6-1.3-2.9-2.9-2.9C48.2,63.4,46.9,64.7,46.9,66.3z"
		/>
</g>
</svg>
