<?xml version="1.0" encoding="utf-8"?>
<!-- Generator: Adobe Illustrator 21.0.0, SVG Export Plug-In . SVG Version: 6.00 Build 0)  -->
<svg version="1.1" id="图层_1" xmlns="http://www.w3.org/2000/svg" xmlns:xlink="http://www.w3.org/1999/xlink" x="0px" y="0px"
	 viewBox="0 0 96 96" style="enable-background:new 0 0 96 96;" xml:space="preserve">
<g>
	<path d="M73.1,56.8c-9.6,0-17.3,7.6-17.3,17.2c0,9.7,7.8,17.3,17.3,17.3c9.4,0,17.1-7.7,17.3-17.3C90.4,64.4,82.7,56.8,73.1,56.8z
		 M73.1,87.7c-7.5,0-13.5-6-13.5-13.5c0-7.5,6-13.5,13.5-13.5c7.4,0,13.4,6,13.5,13.5C86.6,81.7,80.6,87.7,73.1,87.7z"/>
	<path d="M80.9,72.1H65.4c-1.1,0-2.1,0.9-2.1,2.1c0,1.1,0.9,2.1,2.1,2.1h15.4c1.1,0,2.1-0.9,2.1-2.1C82.9,73.1,82,72.1,80.9,72.1z"
		/>
	<path d="M69.9,33.6H20.7c-1.1,0-2.1,0.9-2.1,2.1c0,1.2,0.9,2.1,2.1,2.1h49.3c1.1,0,2.1-0.9,2.1-2.1C72,34.5,71,33.6,69.9,33.6z"/>
	<path d="M54.4,87.2h-37c-4.2,0-7.7-3.6-7.7-7.9V7.8H71c4.2,0,7.7,3.6,7.7,7.9v35.8c0,1.2,1,2.2,2.2,2.2c1.2,0,2.2-1,2.2-2.2V15.7
		h0.1c0-6.8-5.5-12.2-12.1-12.2H7.7H5.6v2.1v73.7c0,6.8,5.2,12.2,12,12.2h36.8c1.2-0.1,2-1,2-2.2C56.4,88.2,55.5,87.3,54.4,87.2z"/>
	<path d="M70.1,20.6H20.8c-1.1,0-2.1,0.9-2.1,2.1c0,1.2,0.9,2.1,2.1,2.1h49.3c1.1,0,2.1-0.9,2.1-2.1C72.4,21.6,71.5,20.6,70.1,20.6z
		"/>
</g>
</svg>
