<?xml version="1.0" encoding="utf-8"?>
<!-- Generator: Adobe Illustrator 21.0.0, SVG Export Plug-In . SVG Version: 6.00 Build 0)  -->
<svg version="1.1" id="图层_1" xmlns="http://www.w3.org/2000/svg" xmlns:xlink="http://www.w3.org/1999/xlink" x="0px" y="0px"
	 viewBox="0 0 96 96" style="enable-background:new 0 0 96 96;" xml:space="preserve">
<path d="M89.7,34.6C82.1,11.5,57.2-1,34.1,6.5C11,14.1-1.6,39,6,62.1c7.6,23.1,32.5,35.6,55.6,28.1c9.5-3.1,17.1-9.2,22.4-16.8
	c0.2-0.4,0.3-0.9,0.1-1.4c-0.4-1.1-1.4-1.6-2.5-1.2c-0.6,0.2-0.9,0.5-1.1,1c-4.8,6.7-11.6,12-20,14.8c-13.4,4.4-27.5,1.3-37.7-7
	l2-13.4L17,58.7H9.5c-1.9-7.1-1.7-14.3,0.2-21L21,35.8l3.6-9l7.2-3.6l1.7-11.9c0.7-0.3,1.4-0.5,2.1-0.8C43.7,8,52,8,59.5,10.3
	L58,19.5L44.4,31.4l-13,22.3l17.4,15.5l16.1-6.1l-1.7-12l11.4-2.8l7.1,7.1l6.1-2.5c-0.1,0.8-0.2,1.5-0.4,2.3v0c0,0.2,0,0.4,0,0.6
	c0.4,1.1,1.5,1.5,2.5,1.2c0.8-0.3,1.3-1,1.3-1.8C92.3,48.5,92,41.5,89.7,34.6z M15.6,62.2l5.6,5.1l-1.4,9.5c-4-4-7.2-8.9-9.2-14.5
	H15.6z M28.6,21l-6.7,3.4l-3.4,8.4L10.9,34c3.4-8.8,10-16.4,18.8-20.9L28.6,21z M82.6,51.3l-6.8-6.8l-16.3,4.1l1.8,12.3l-11.6,4.3
	L35.9,53l11.3-19.3l14.1-12.3l1.6-9.8C73.4,15.8,82.2,24.4,86,36.1c1.4,4.3,2.1,8.7,2.1,13L82.6,51.3z"/>
</svg>
