<?xml version="1.0" encoding="utf-8"?>
<!-- Generator: Adobe Illustrator 22.1.0, SVG Export Plug-In . SVG Version: 6.00 Build 0)  -->
<svg version="1.1" id="Layer_1" xmlns="http://www.w3.org/2000/svg" xmlns:xlink="http://www.w3.org/1999/xlink" x="0px" y="0px"
	 viewBox="0 0 96 96" style="enable-background:new 0 0 96 96;" xml:space="preserve">
<g>
	<path d="M80.8,10.4H46.1V5.7C46.1,4.8,45.1,4,44,4s-2.1,0.8-2.1,1.7v4.8H6.7H4.6v2.1v40.8c0,6,4.7,10.8,10.6,10.8h74.1h2.1V62V21.2
		C91.4,15.3,86.7,10.4,80.8,10.4z M87.2,59.9h-72c-3.5,0-6.3-2.9-6.3-6.5V14.7h72c3.5,0,6.3,2.9,6.3,6.5V59.9z"/>
	<path d="M39.5,67.2L20.3,88.4c-0.8,0.9-0.7,2.2,0.1,3c0.9,0.8,2.2,0.7,3-0.1l19.2-21.2c0.8-0.9,0.7-2.2-0.1-3
		C41.6,66.3,40.3,66.3,39.5,67.2z"/>
	<path d="M57,67.2c-0.8-0.9-2.1-0.9-3-0.1c-0.9,0.8-0.9,2.2-0.1,3l19.2,21.2c0.8,0.9,2.1,0.9,3,0.1c0.9-0.8,0.9-2.2,0.1-3L57,67.2z"
		/>
	<path d="M48.2,26.6H17.1c-1.2,0-2.1,1-2.1,2.1c0,1.2,0.9,2.1,2.1,2.1h31.2c1.2,0,2.1-1,2.1-2.1C50.4,27.5,49.4,26.6,48.2,26.6z"/>
	<path d="M48.2,40.4H17.1c-1.2,0-2.1,1-2.1,2.1s0.9,2.1,2.1,2.1h31.2c1.2,0,2.1-1,2.1-2.1S49.4,40.4,48.2,40.4z"/>
	<path d="M69.1,21.6C69.1,21.6,69.1,21.6,69.1,21.6L69.1,21.6C69,21.6,69,21.6,69.1,21.6c-0.1-0.1-0.2-0.2-0.2-0.2c0,0,0,0-0.1-0.1
		c0,0,0,0,0,0c0,0-0.1,0-0.1-0.1c-0.1,0-0.1-0.1-0.2-0.1c0,0-0.1,0-0.1-0.1c0,0-0.1,0-0.1,0c-0.1,0-0.1-0.1-0.2-0.1c0,0-0.1,0-0.1,0
		c0,0-0.1,0-0.1,0c-0.1,0-0.1,0-0.2,0c0,0-0.1,0-0.1,0c0,0-0.1,0-0.1,0c0,0-0.1,0-0.1,0c0,0-0.1,0-0.1,0c0,0-0.1,0-0.1,0
		c0,0-0.1,0-0.1,0c-0.1,0-0.1,0-0.2,0c0,0-0.1,0-0.1,0c0,0-0.1,0-0.1,0c-0.1,0-0.1,0-0.2,0.1c0,0-0.1,0-0.1,0c0,0-0.1,0-0.1,0.1
		c-0.1,0-0.1,0.1-0.2,0.1c0,0-0.1,0-0.1,0.1c0,0,0,0,0,0c0,0,0,0-0.1,0.1c-0.1,0-0.1,0.1-0.1,0.1c0,0,0,0-0.1,0.1l0,0c0,0,0,0,0,0
		l-9.6,11.7c-0.7,0.9-0.6,2.3,0.3,3c0.9,0.8,2.2,0.6,3-0.3l5.8-7.2v8.2c0,5.5-1.9,9.3-5.2,11.8c-1.1,0.9-2.4,1.6-3.6,2
		c-0.7,0.3-1.3,0.4-1.5,0.5c-1.1,0.2-1.9,1.4-1.7,2.5c0.2,1.2,1.3,1.9,2.5,1.7c1.8-0.4,4.3-1.4,6.9-3.4c4.3-3.3,6.8-8.4,6.8-15.2
		v-8.2l5.8,7.2c0.7,0.9,2.1,1,3,0.3c0.9-0.8,1-2.1,0.3-3L69.1,21.6z"/>
</g>
</svg>
