<?xml version="1.0" encoding="utf-8"?>
<!-- Generator: Adobe Illustrator 22.1.0, SVG Export Plug-In . SVG Version: 6.00 Build 0)  -->
<svg version="1.1" id="Layer_1" xmlns="http://www.w3.org/2000/svg" xmlns:xlink="http://www.w3.org/1999/xlink" x="0px" y="0px"
	 viewBox="0 0 96 96" style="enable-background:new 0 0 96 96;" xml:space="preserve">
<g>
	<path d="M77.2,44.9v-0.8V14.2C77.2,8.6,72.6,4,67,4H7.8h-2v2v65.1c0,5.6,4.6,10.1,10.2,10.1h24.5h0.9l0.6-0.6l34.7-35.2L77.2,44.9z
		 M39.6,77.2H15.9c-3.4,0-6.1-2.7-6.1-6.1V8.1H67c3.4,0,6.1,2.7,6.1,6.1v29.1L39.6,77.2z"/>
	<path d="M88.8,57.5l-8.2-8.1l-1.4-1.4l-1.4,1.4l-6.1,6.1L49.2,77.8l-0.4,0.4l-0.1,0.6l-2,10.2L46,92l3-0.6l10.2-2l0.6-0.1l0.4-0.4
		l22.5-22.4l6.1-6.1l1.4-1.4L88.8,57.5z M81.3,62.1L76,56.9l3.2-3.2l5.3,5.3L81.3,62.1z M57.8,85.5l-6.6,1.3l1.3-6.6l20.6-20.5
		l5.3,5.3L57.8,85.5z"/>
	<path d="M41.1,20.3c-8.6-0.1-12.9,4.4-12.9,13.7c0,0,0.2,1.9,2.4,1.9s2.3-1.9,2.3-1.9c-0.1-6.2,2.7-9.2,8.7-8.9
		c3.9,0.4,6,2.7,6.1,6.6c-0.3,1.8-1.8,4.1-4.4,6.9c-3.5,3.5-5.3,6.7-5.3,9.5v2.9c0,0,0.3,1.7,2.2,1.7s2.2-1.7,2.2-1.7v-2
		c0-2.3,1.7-5.2,5.1-8.4c3.5-3.2,5.3-6.2,5.3-8.9C52.4,24.4,48.5,20.6,41.1,20.3z"/>
	<path d="M41.1,56.2c-1.6,0-2.8,1.2-2.8,2.8v0.7c0,1.5,1.2,2.8,2.8,2.8c1.6,0,2.8-1.2,2.8-2.8V59C43.9,57.5,42.7,56.2,41.1,56.2z"/>
</g>
</svg>
