<?xml version="1.0" encoding="utf-8"?>
<!-- Generator: Adobe Illustrator 22.1.0, SVG Export Plug-In . SVG Version: 6.00 Build 0)  -->
<svg version="1.1" id="Layer_1" xmlns="http://www.w3.org/2000/svg" xmlns:xlink="http://www.w3.org/1999/xlink" x="0px" y="0px"
	 viewBox="0 0 96 96" style="enable-background:new 0 0 96 96;" xml:space="preserve">
<path d="M89.9,34.2c-7.6-23.1-32.5-35.6-55.6-28c-23.1,7.6-35.6,32.5-28,55.6c7.6,23.1,32.5,35.6,55.6,28c9.5-3.1,17-9.2,22.4-16.8
	c0.2-0.4,0.3-0.9,0.1-1.4c-0.4-1.1-1.4-1.6-2.5-1.2c-0.6,0.2-0.9,0.5-1.1,1c-4.8,6.7-11.6,12-20,14.7c-13.4,4.4-27.5,1.3-37.6-7
	l2-13.4l-7.8-7.3H9.7C7.8,51.2,8,44,9.9,37.4l11.3-1.9l3.6-9l7.2-3.6l1.7-11.9c0.7-0.3,1.4-0.5,2.1-0.8c8.1-2.6,16.4-2.6,23.9-0.3
	l-1.5,9.2L44.5,31.1l-13,22.3L49,68.8l16.1-6.1l-1.7-12L74.8,48l7.1,7.1l6.1-2.5c-0.1,0.8-0.2,1.5-0.4,2.3v0c0,0.2,0,0.4,0,0.6
	c0.4,1.1,1.5,1.5,2.5,1.2c0.8-0.3,1.3-1,1.3-1.8C92.5,48.2,92.1,41.1,89.9,34.2z M15.8,61.8l5.6,5.1L20,76.3c-4-4-7.2-8.9-9.2-14.5
	H15.8z M28.8,20.7L22.1,24l-3.4,8.3l-7.6,1.3c3.4-8.8,10-16.3,18.8-20.8L28.8,20.7z M82.7,51l-6.8-6.8l-16.3,4.1l1.8,12.3l-11.6,4.3
	L36.1,52.6l11.3-19.3L61.4,21l1.6-9.8c10.6,4.2,19.3,12.9,23.1,24.6c1.4,4.3,2.1,8.7,2.1,12.9L82.7,51z"/>
</svg>
