<?xml version="1.0" encoding="utf-8"?>
<!-- Generator: Adobe Illustrator 21.0.0, SVG Export Plug-In . SVG Version: 6.00 Build 0)  -->
<svg version="1.1" id="图层_1" xmlns="http://www.w3.org/2000/svg" xmlns:xlink="http://www.w3.org/1999/xlink" x="0px" y="0px"
	 viewBox="0 0 96 96" style="enable-background:new 0 0 96 96;" xml:space="preserve">
<path d="M86.8,21.1c-0.7-0.4-1.5-0.2-2,0.4L48.1,56.7l-16-16c-0.7-0.7-1.8-0.7-2.6,0c-0.7,0.7-0.7,1.8,0,2.6l17.2,17.2
	c0.7,0.7,1.8,0.7,2.6,0l34.9-33.6v25.7c0,19.8-16.1,35.8-35.8,35.8h-0.7c-19.8,0-35.8-16-35.8-35.8V16.1h7.3
	c8.1,0,16.1-1.8,23.5-5.5l5.3-2.8l5.5,2.8c7.3,3.7,15.4,5.5,23.5,5.5h9.2c1.1,0,1.8-0.7,1.8-1.8s-0.7-1.8-1.8-1.8h-9.2
	c-7.5,0-15-1.8-21.8-5.1L49,4.2c-0.6-0.2-1.1-0.2-1.7,0l-6.2,3.1c-6.8,3.3-14.3,5.1-21.8,5.1h-9.2c-1.1,0-1.8,0.7-1.8,1.8v38.3
	c0,21.8,17.6,39.4,39.4,39.4h0.7c21.8,0,39.4-17.6,39.4-39.4V22.7C87.9,22,87.6,21.4,86.8,21.1z"/>
</svg>
