<?xml version="1.0" encoding="utf-8"?>
<!-- Generator: Adobe Illustrator 22.1.0, SVG Export Plug-In . SVG Version: 6.00 Build 0)  -->
<svg version="1.1" id="Layer_1" xmlns="http://www.w3.org/2000/svg" xmlns:xlink="http://www.w3.org/1999/xlink" x="0px" y="0px"
	 viewBox="0 0 96 96" style="enable-background:new 0 0 96 96;" xml:space="preserve">
<g>
	<path d="M54.6,77.7L52,58.6H40.9l-3.3,19l9.2,8.6L54.6,77.7z M41.2,75.8l2.1-13.7h6.1L51.3,76l-4.8,4.9L41.2,75.8z"/>
	<path d="M59.2,52.7c7.9-4.4,13.2-12.7,13.2-22.4C72.4,16.2,61,4.8,47.1,4.8c-13.9,0-25.3,11.4-25.3,25.5s11.4,25.5,25.3,25.5
		c0.4,0,0.5,0,0.9,0h0.2c20.3,0,37.9,14.5,39.4,31H45.8H8.6c0.9-11,8.1-20.7,19.1-26.4c1.1-0.5,1.5-1.8,0.9-2.9
		c-0.6-1.1-1.8-1.5-2.9-0.9C12.3,63.1,4,75.4,4,89v2.2h2.2h39.6h44H92V89C92,72.1,77.7,57.1,59.2,52.7z M46.9,51.2
		C35.4,51.2,26,41.8,26,30.3S35.3,9.4,46.9,9.4c11.6,0,20.9,9.3,20.9,20.9C67.9,41.8,58.5,51.2,46.9,51.2z"/>
</g>
</svg>
