<?xml version="1.0" encoding="utf-8"?>
<!-- Generator: Adobe Illustrator 21.0.0, SVG Export Plug-In . SVG Version: 6.00 Build 0)  -->
<svg version="1.1" id="图层_1" xmlns="http://www.w3.org/2000/svg" xmlns:xlink="http://www.w3.org/1999/xlink" x="0px" y="0px"
	 viewBox="0 0 96 96" style="enable-background:new 0 0 96 96;" xml:space="preserve">
<path d="M54.9,45.9c0,0,0,0.1,0,0.1h0c1.2,10,9.7,17.7,20,17.7c10.3,0,18.8-7.7,20-17.7c0,0,0,0,0,0c0-0.4,0-0.9-0.3-1.3L77.2,12.2
	C77,11.6,76.6,11,76,10.7c-0.2-0.1-0.4-0.2-0.7-0.2c0,0,0,0-0.1,0c-0.1,0-0.2,0-0.3,0c0,0-0.1,0-0.1,0H50.3V6.9c0-1.6-1-2.9-2.3-2.9
	s-2.3,1.3-2.3,2.9v3.5H21c0,0-0.1,0-0.1,0c0,0-0.1,0-0.1,0c-0.5,0-0.9,0.2-1.2,0.5c0,0,0,0,0,0c-0.1,0.1-0.2,0.2-0.3,0.3
	c0,0.1-0.1,0.1-0.1,0.2c0,0-0.1,0.1-0.1,0.1c-0.1,0.2-0.2,0.5-0.3,0.7L1.5,44.7c-0.2,0.4-0.3,0.8-0.3,1.2c0,0,0,0.1,0,0.1h0
	c1.2,10,9.7,17.7,20,17.7c10.3,0,18.8-7.7,20-17.7c0,0,0,0,0,0c0-0.4,0-0.9-0.3-1.3L25,15.1h20.6v72.2H21c-1.2,0-2.2,1-2.2,2.3
	c0,1.3,1,2.3,2.2,2.3h53.9c1.2,0,2.2-1,2.2-2.3c0-1.3-1-2.3-2.2-2.3H50.3V15.1H71L55.2,44.7C55,45.1,54.9,45.5,54.9,45.9z
	 M36.3,46.3c-1.2,7.3-7.6,12.8-15.2,12.8c-6.9,0-12.7-4.5-14.7-10.7h24.3c1.1,0,1.9-1,1.9-2.3c0-1.3-0.9-2.3-1.9-2.3H7.3l13.8-25.9
	L36.3,46.3z M84.6,43.7H61l13.8-25.9L90,46.3c-1.2,7.3-7.6,12.8-15.2,12.8c-6.9,0-12.7-4.5-14.7-10.7h24.5c1.1,0,1.9-1,1.9-2.3
	C86.6,44.7,85.7,43.7,84.6,43.7z"/>
</svg>
