<?xml version="1.0" encoding="utf-8"?>
<!-- Generator: Adobe Illustrator 22.1.0, SVG Export Plug-In . SVG Version: 6.00 Build 0)  -->
<svg version="1.1" id="Layer_1" xmlns="http://www.w3.org/2000/svg" xmlns:xlink="http://www.w3.org/1999/xlink" x="0px" y="0px"
	 viewBox="0 0 96 96" style="enable-background:new 0 0 96 96;" xml:space="preserve">
<g>
	<path d="M48,4C23.7,4,4,23.7,4,48s19.7,44,44,44c9.7,0,19-3.2,26.6-8.9c0.9-0.7,1.1-2,0.4-2.9s-2-1.1-2.9-0.4
		c-6.9,5.2-15.2,8.1-24.1,8.1C26,87.8,8.2,70,8.2,48S26,8.2,48,8.2S87.8,26,87.8,48c0,8.1-2.4,15.9-7,22.5c-0.7,1-0.4,2.3,0.5,2.9
		c1,0.7,2.3,0.4,2.9-0.5C89.3,65.6,92,57,92,48C92,23.7,72.3,4,48,4z"/>
	<path d="M48,58.5c1.2,0,2.1-0.9,2.1-2.1v-0.1l6.8,7.8c0.8,0.9,2.1,1,3,0.2c0.9-0.8,1-2.1,0.2-3l-10-11.4V25c0-1.2-0.9-2.1-2.1-2.1
		s-2.1,0.9-2.1,2.1v20.2l-0.5-0.6c-0.8-0.9-2.1-1-3-0.2c-0.9,0.8-1,2.1-0.2,3l3.7,4.2v4.9C45.9,57.5,46.8,58.5,48,58.5z"/>
</g>
</svg>
