<?xml version="1.0" encoding="utf-8"?>
<!-- Generator: Adobe Illustrator 17.0.0, SVG Export Plug-In . SVG Version: 6.00 Build 0)  -->
<!DOCTYPE svg PUBLIC "-//W3C//DTD SVG 1.1//EN" "http://www.w3.org/Graphics/SVG/1.1/DTD/svg11.dtd">
<svg version="1.1" id="Layer_1" xmlns="http://www.w3.org/2000/svg" xmlns:xlink="http://www.w3.org/1999/xlink" x="0px" y="0px"
	 width="96px" height="96px" viewBox="0 0 96 96" enable-background="new 0 0 96 96" xml:space="preserve">
<g>
	<path d="M70,14H29.978c-0.896-0.123-1.928-0.103-2.962-0.042C26.679,13.978,26.341,14,26,14C11.664,14,0,26.561,0,42
		s11.664,28,26,28c4.399,0,10.842-1.258,15.358-4h13.285c4.517,2.742,10.959,4,15.357,4c14.337,0,26-12.561,26-28S84.337,14,70,14z
		 M70,62c-4.118,0-9.307-1.423-11.812-3.238L57.139,58H38.861l-1.05,0.762C35.307,60.578,30.119,62,26,62c-9.925,0-18-8.972-18-20
		c0-11.028,8.075-20,18-20c0.499,0,0.994-0.027,1.486-0.056c0.538-0.032,1.165-0.063,1.463-0.009L29.305,22H70
		c9.925,0,18,8.972,18,20C88,53.028,79.925,62,70,62z"/>
	<path d="M76,38h-4v-4c0-2.209-1.791-4-4-4s-4,1.791-4,4v4h-4c-2.209,0-4,1.791-4,4s1.791,4,4,4h4v4c0,2.209,1.791,4,4,4
		s4-1.791,4-4v-4h4c2.209,0,4-1.791,4-4S78.209,38,76,38z"/>
	<circle cx="28" cy="32" r="4"/>
	<circle cx="21" cy="44" r="4"/>
</g>
</svg>
