<?xml version="1.0" encoding="utf-8"?>
<!-- Generator: Adobe Illustrator 24.1.3, SVG Export Plug-In . SVG Version: 6.00 Build 0)  -->
<svg version="1.1" id="图层_1" xmlns="http://www.w3.org/2000/svg" xmlns:xlink="http://www.w3.org/1999/xlink" x="0px" y="0px"
	 viewBox="0 0 24 24" style="enable-background:new 0 0 24 24;" xml:space="preserve">
<style type="text/css">
	.st0{fill-rule:evenodd;clip-rule:evenodd;}
</style>
<g>
	<path class="st0" d="M1.8,10.2C1.8,10.2,1.8,10.2,1.8,10.2L2,9.9c0,0,0.1-0.1,0.1-0.1h4.2c0,0,0.1,0,0,0.1l-0.2,0.3
		c0,0-0.1,0.1-0.1,0.1L1.8,10.2z"/>
	<path class="st0" d="M0,11.3C0,11.3,0,11.3,0,11.3l0.2-0.4c0,0,0.1-0.1,0.1-0.1h5.3c0,0,0.1,0,0.1,0.1l-0.1,0.3
		c0,0-0.1,0.1-0.1,0.1L0,11.3z"/>
	<path class="st0" d="M2.9,12.4C2.8,12.4,2.8,12.3,2.9,12.4L3,12c0,0,0.1-0.1,0.1-0.1h2.3c0,0,0.1,0,0.1,0.1l0,0.3
		c0,0,0,0.1-0.1,0.1L2.9,12.4z"/>
	<g transform="translate(55)">
		<path class="st0" d="M-40,10c-0.7,0.2-1.2,0.3-2,0.5c-0.2,0-0.2,0.1-0.3-0.1c-0.2-0.2-0.3-0.3-0.5-0.4c-0.7-0.4-1.4-0.3-2.1,0.2
			c-0.8,0.5-1.2,1.3-1.2,2.2c0,0.9,0.7,1.7,1.6,1.8c0.8,0.1,1.5-0.2,2-0.8c0.1-0.1,0.2-0.3,0.3-0.4c-0.4,0-0.9,0-2.3,0
			c-0.2,0-0.3-0.2-0.2-0.4c0.2-0.4,0.4-1,0.6-1.3c0-0.1,0.1-0.2,0.3-0.2h4.3c0,0.3,0,0.6-0.1,0.9c-0.1,0.8-0.4,1.6-1,2.3
			c-0.8,1.1-1.9,1.8-3.3,2c-1.1,0.2-2.2-0.1-3.1-0.8c-0.9-0.7-1.4-1.5-1.5-2.6c-0.2-1.3,0.2-2.4,1-3.4c0.8-1.1,1.9-1.8,3.3-2
			c1.1-0.2,2.2-0.1,3.1,0.6c0.6,0.4,1.1,1,1.4,1.6C-39.8,9.9-39.9,10-40,10z"/>
		<path d="M-36.1,16.5c-1.1,0-2-0.3-2.9-1c-0.7-0.6-1.1-1.4-1.3-2.3c-0.2-1.3,0.2-2.5,0.9-3.5c0.9-1.1,1.9-1.7,3.3-2
			c1.2-0.2,2.3-0.1,3.3,0.6c0.9,0.6,1.5,1.5,1.6,2.6c0.2,1.6-0.3,2.9-1.3,4c-0.8,0.8-1.7,1.3-2.8,1.5
			C-35.5,16.4-35.8,16.4-36.1,16.5z M-33.3,11.8c0-0.2,0-0.3,0-0.4c-0.2-1.2-1.3-1.8-2.4-1.6c-1.1,0.2-1.8,0.9-2,2
			c-0.2,0.9,0.2,1.8,1.1,2.2c0.6,0.3,1.3,0.2,1.9-0.1C-33.9,13.5-33.4,12.8-33.3,11.8L-33.3,11.8z"/>
	</g>
</g>
</svg>
