<?xml version="1.0" encoding="utf-8"?>
<!-- Generator: Adobe Illustrator 22.1.0, SVG Export Plug-In . SVG Version: 6.00 Build 0)  -->
<svg version="1.1" id="Layer_1" xmlns="http://www.w3.org/2000/svg" xmlns:xlink="http://www.w3.org/1999/xlink" x="0px" y="0px"
	 viewBox="0 0 96 96" style="enable-background:new 0 0 96 96;" xml:space="preserve">
<g>
	<g>
		<path d="M48,4C23.7,4,4,23.7,4,48s19.7,44,44,44s44-19.7,44-44S72.3,4,48,4L48,4z M48,86c-21,0-38-17-38-38s17-38,38-38
			s38,17,38,38S69,86,48,86L48,86z"/>
	</g>
	<g>
		<path d="M35,33.5c-3.2,0-5.7,1.1-7.7,3.1c-2.9,2.9-2.8,6.4-2.8,11.4c0,4.9-0.1,8.5,2.8,11.4c2,2,4.6,3.1,7.7,3.1
			c3,0,5.8-0.9,8-3.2c2-2.1,2.7-4.6,2.7-8.7v-4.2H35V51h5.2v1.1c0,1.5-0.4,2.8-1.3,3.8c-0.9,1-2.3,1.6-4,1.6c-1.5,0-2.8-0.6-3.6-1.5
			c-1.1-1.2-1.4-2.6-1.4-8c0-5.5,0.3-6.8,1.4-8c0.8-0.9,2-1.5,3.6-1.5c2.8,0,4.5,1.5,5.1,4.2h5.6C45,37.8,41.6,33.5,35,33.5L35,33.5
			z"/>
	</g>
	<g>
		<path d="M61,33.5c-3.2,0-5.7,1.1-7.7,3.1c-2.9,2.9-2.8,6.4-2.8,11.4c0,4.9-0.1,8.5,2.8,11.4c2,2,4.5,3.1,7.7,3.1
			c3.2,0,5.7-1.1,7.7-3.1c2.9-2.9,2.8-6.4,2.8-11.4c0-4.9,0-8.5-2.8-11.4C66.7,34.6,64.2,33.5,61,33.5L61,33.5z M61,57.5
			c-1.5,0-2.8-0.6-3.6-1.5c-1.1-1.2-1.4-2.5-1.4-8c0-5.5,0.3-6.8,1.4-8c0.8-0.9,2.1-1.5,3.6-1.5c1.5,0,2.8,0.6,3.6,1.5
			c1.1,1.2,1.4,2.5,1.4,8c0,5.5-0.3,6.8-1.4,8C63.7,56.9,62.5,57.5,61,57.5L61,57.5z"/>
	</g>
</g>
</svg>
