<?xml version="1.0" encoding="utf-8"?>
<!-- Generator: Adobe Illustrator 21.0.0, SVG Export Plug-In . SVG Version: 6.00 Build 0)  -->
<svg version="1.1" id="Layer_1" xmlns="http://www.w3.org/2000/svg" xmlns:xlink="http://www.w3.org/1999/xlink" x="0px" y="0px"
	 viewBox="0 0 96 96" style="enable-background:new 0 0 96 96;" xml:space="preserve">
<style type="text/css">
	.st0{fill:#0C0A09;}
</style>
<g>
	<path class="st0" d="M56.7,33H39.3c-3.3,0-6,2.7-6,6v19.3c0,3.3,2.7,6,6,6h17.4c3.3,0,6-2.7,6-6V39C62.7,35.7,60,33,56.7,33z
		 M54.7,56.4H41.3V41h13.4V56.4z"/>
	<path class="st0" d="M89.3,51.7c2.2,0,4-1.8,4-4s-1.8-4-4-4H76.7v-4h12.6c2.2,0,4-1.8,4-4s-1.8-4-4-4H76.7v-3.2
		c0-6.5-5.3-11.7-11.7-11.7h-1.5V7.3c0-2.2-1.8-4-4-4s-4,1.8-4,4v9.4h-4V7.3c0-2.2-1.8-4-4-4s-4,1.8-4,4v9.4h-4V7.3c0-2.2-1.8-4-4-4
		s-4,1.8-4,4v9.4H30c-6.5,0-11.7,5.3-11.7,11.7v3.3H6.1c-2.2,0-4,1.8-4,4s1.8,4,4,4h12.1v4H6.1c-2.2,0-4,1.8-4,4s1.8,4,4,4h12.1v4
		H6.1c-2.2,0-4,1.8-4,4s1.8,4,4,4h12.1v4.5c0,6.5,5.3,11.7,11.7,11.7h0.8v9.4c0,2.2,1.8,4,4,4s4-1.8,4-4v-9.4h4v9.4c0,2.2,1.8,4,4,4
		s4-1.8,4-4v-9.4h4v9.4c0,2.2,1.8,4,4,4s4-1.8,4-4v-9.4H65c6.4,0,11.7-5.2,11.7-11.7v-4.5h12.6c2.2,0,4-1.8,4-4s-1.8-4-4-4H76.7v-4
		H89.3z M68.7,68.2c0,2-1.7,3.7-3.7,3.7H29.9c-2,0-3.7-1.7-3.7-3.7V28.5c0-2,1.7-3.7,3.7-3.7H65c2,0,3.7,1.7,3.7,3.7V68.2z"/>
</g>
</svg>
