<?xml version="1.0" encoding="utf-8"?>
<!-- Generator: Adobe Illustrator 21.0.0, SVG Export Plug-In . SVG Version: 6.00 Build 0)  -->
<svg version="1.1" id="Layer_1" xmlns="http://www.w3.org/2000/svg" xmlns:xlink="http://www.w3.org/1999/xlink" x="0px" y="0px"
	 width="96px" height="96px" viewBox="0 0 96 96" style="enable-background:new 0 0 96 96;" xml:space="preserve">
<g>
	<path d="M9.6,51.7L9.6,51.7c3.6,0,6.4-2.8,6.4-6.4V26.1h64v19.2c0,3.5,2.8,6.4,6.4,6.4h0.1c3.5,0,6.4-2.8,6.4-6.4V26.1V26
		c0-7-5.7-12.7-12.7-12.7H80H16h-0.1C8.9,13.3,3.2,19,3.2,26v0.1v19.2C3.2,48.9,6,51.7,9.6,51.7z"/>
	<circle cx="9.6" cy="74.1" r="9.6"/>
	<circle cx="86.4" cy="74.1" r="9.6"/>
</g>
</svg>
