<?xml version="1.0" encoding="utf-8"?>
<!-- Generator: Adobe Illustrator 17.0.0, SVG Export Plug-In . SVG Version: 6.00 Build 0)  -->
<!DOCTYPE svg PUBLIC "-//W3C//DTD SVG 1.1//EN" "http://www.w3.org/Graphics/SVG/1.1/DTD/svg11.dtd">
<svg version="1.1" id="Layer_1" xmlns="http://www.w3.org/2000/svg" xmlns:xlink="http://www.w3.org/1999/xlink" x="0px" y="0px"
	 width="96px" height="96px" viewBox="0 0 96 96" enable-background="new 0 0 96 96" xml:space="preserve">
<path d="M80,4H16C9.4,4,4,9.4,4,16v64c0,6.6,5.4,12,12,12h64c6.6,0,12-5.4,12-12V16C92,9.4,86.6,4,80,4z M84,16v28H52V12h28
	C82.2,12,84,13.8,84,16z M16,12h28v32H12V16C12,13.8,13.8,12,16,12z M12,80V52h32v32H16C13.8,84,12,82.2,12,80z M80,84H52V52h32v28
	C84,82.2,82.2,84,80,84z"/>
</svg>
