<?xml version="1.0" encoding="utf-8"?>
<!-- Generator: Adobe Illustrator 22.1.0, SVG Export Plug-In . SVG Version: 6.00 Build 0)  -->
<svg version="1.1" id="图层_1" xmlns="http://www.w3.org/2000/svg" xmlns:xlink="http://www.w3.org/1999/xlink" x="0px" y="0px"
	 viewBox="0 0 96.4 96.4" style="enable-background:new 0 0 96.4 96.4;" xml:space="preserve">
<style type="text/css">
	.st0{fill:#0C0015;}
</style>
<g>
	<path class="st0" d="M35.9,58.2c-2.2,1.2-6.1,3.4-9,5c-1,0.6-0.6,2.2,0.6,2.2h40.9c1.2,0,1.6-1.6,0.5-2.2c-3.1-1.6-6.3-3.2-9.4-4.7
		c-2-1-3-2.6-3-4.9c0-1.4,0-2.8,0-4.1c0-0.4,0.1-0.8,0.4-1.1c2-2.6,3.5-5.4,4.6-8.5c0.1-0.4,0.5-0.8,0.9-1c1.4-0.8,2.2-2.1,2.3-3.7
		c0-1.8,0-3.6,0-5.3c0-1-0.3-1.9-1-2.7c-0.2-0.3-0.4-0.7-0.4-1c0-2.5-0.1-5.1,0-7.6c0.2-5-2.6-9.2-7.5-10.8
		C50.5,5.9,45.2,5.9,40,7.9c-4.6,1.8-7.1,5.9-6.8,10.9c0.1,2.5,0.1,4.9,0,7.4c0,0.3-0.2,0.6-0.4,0.9c-0.6,0.8-0.9,1.7-0.9,2.7
		c0,1.7,0,3.4,0,5.2c0,1.3,0.5,2.4,1.4,3.3c0.3,0.3,0.5,0.6,0.6,1c0.9,3.3,2.4,6.3,4.4,9.1c0.1,0.2,0.4,0.5,0.4,0.7
		c0,1.8,0,3.6-0.1,5.4C38.4,56.2,37.4,57.4,35.9,58.2z"/>
	<path class="st0" d="M32.9,75.7c-12.2-2-20.6-6.5-20.6-11.6c0-3.6,4.2-6.9,11-9.2c0.6-0.2,1-0.8,0.9-1.4v0c-0.1-0.9-1-1.5-1.8-1.2
		C12.3,55.7,5.8,61.1,5.8,67.2c0,8,11.2,14.8,27.1,17.5V90l16.4-9.5l-16.4-9.5V75.7z"/>
	<path class="st0" d="M72.3,53.5L72.3,53.5c-0.1,0.6,0.3,1.2,0.9,1.4c6.7,2.3,10.9,5.6,10.9,9.2c0,6.1-11.9,11.2-27.9,12.5
		c-0.7,0.1-1.3,0.6-1.3,1.4v6.2c0,0.8,0.7,1.4,1.5,1.4c19.5-1.7,34.2-9.3,34.2-18.4c0-6-6.4-11.4-16.5-14.8
		C73.2,52,72.3,52.6,72.3,53.5z"/>
</g>
</svg>
