<?xml version="1.0" encoding="utf-8"?>
<!-- Generator: Adobe Illustrator 17.0.0, SVG Export Plug-In . SVG Version: 6.00 Build 0)  -->
<!DOCTYPE svg PUBLIC "-//W3C//DTD SVG 1.1//EN" "http://www.w3.org/Graphics/SVG/1.1/DTD/svg11.dtd">
<svg version="1.1" id="图层_1" xmlns="http://www.w3.org/2000/svg" xmlns:xlink="http://www.w3.org/1999/xlink" x="0px" y="0px"
	 width="19.7px" height="15.9px" viewBox="0 0 19.7 15.9" enable-background="new 0 0 19.7 15.9" xml:space="preserve">
<g>
	<path fill="#4683E6" d="M12.4,4.3c0,1.4-1.2,2.6-2.6,2.6c-1.4,0-2.6-1.2-2.6-2.6c0-1.4,1.2-2.6,2.6-2.6C11.3,1.7,12.4,2.9,12.4,4.3
		L12.4,4.3z"/>
	<path fill-rule="evenodd" clip-rule="evenodd" fill="#4683E6" d="M14.3,9.9c0-0.9-0.8-1.7-1.8-1.7H7.1c-1,0-1.8,0.8-1.8,1.7v2.6
		c0,0,0,0,0,0.1v0.6c0,0.6,0.5,1,1,1h0.7c0,0,0,0,0,0h5.4c0,0,0,0,0,0h0.7c0.6,0,1-0.5,1-1v-0.6c0,0,0,0,0-0.1V9.9z M7.7,9.2h4.2
		c0.8,0,1.4,0.5,1.4,1.1v0.3c-0.8,0.3-1.9,0.6-3.1,0.6c-0.3,0-0.5,0-0.8,0c-1.2,0-2.3-0.3-3.1-0.6v-0.3C6.3,9.7,7,9.2,7.7,9.2z"/>
</g>
</svg>
