<?xml version="1.0" encoding="utf-8"?>
<!-- Generator: Adobe Illustrator 17.0.0, SVG Export Plug-In . SVG Version: 6.00 Build 0)  -->
<!DOCTYPE svg PUBLIC "-//W3C//DTD SVG 1.1//EN" "http://www.w3.org/Graphics/SVG/1.1/DTD/svg11.dtd">
<svg version="1.1" id="Layer_1" xmlns="http://www.w3.org/2000/svg" xmlns:xlink="http://www.w3.org/1999/xlink" x="0px" y="0px"
	 width="96px" height="96px" viewBox="0 0 96 96" enable-background="new 0 0 96 96" xml:space="preserve">
<path d="M64.7,53.3C69.2,48.9,72,42.8,72,36V24C72,10.7,61.3,0,48,0S24,10.7,24,24v12c0,6.8,2.8,12.9,7.3,17.3
	C13,56.1,0,63.5,0,72.1V80c0,6.6,5.4,12,12,12h72c6.6,0,12-5.4,12-12v-7.9C96,63.5,83,56.1,64.7,53.3z M32,36V24c0-8.8,7.2-16,16-16
	c8.8,0,16,7.2,16,16v12c0,8.8-7.2,16-16,16C39.2,52,32,44.8,32,36z M88,80c0,2.2-1.8,4-4,4H12c-2.2,0-4-1.8-4-4v-7.9
	c0-0.9,2.3-3.9,9.2-6.8c8-3.4,19.2-5.3,30.8-5.3c11.6,0,22.8,1.9,30.8,5.3c6.9,2.9,9.2,5.9,9.2,6.8V80z"/>
</svg>
