<?xml version="1.0" encoding="utf-8"?>
<!-- Generator: Adobe Illustrator 17.0.0, SVG Export Plug-In . SVG Version: 6.00 Build 0)  -->
<!DOCTYPE svg PUBLIC "-//W3C//DTD SVG 1.1//EN" "http://www.w3.org/Graphics/SVG/1.1/DTD/svg11.dtd">
<svg version="1.1" id="图层_1" xmlns="http://www.w3.org/2000/svg" xmlns:xlink="http://www.w3.org/1999/xlink" x="0px" y="0px"
	 width="96.38px" height="96.38px" viewBox="0 0 96.38 96.38" enable-background="new 0 0 96.38 96.38" xml:space="preserve">
<path fill="#0C0015" d="M57.291,6.788c-0.105-0.024-0.21-0.05-0.316-0.073c-0.42-0.093-0.842-0.178-1.267-0.258
	c-0.175-0.033-0.351-0.064-0.527-0.094c-0.401-0.07-0.803-0.137-1.209-0.195c-0.199-0.029-0.4-0.051-0.599-0.076
	c-0.608-0.078-1.219-0.142-1.835-0.192c-0.351-0.029-0.701-0.06-1.055-0.081c-0.254-0.014-0.51-0.02-0.766-0.029
	c-0.287-0.011-0.573-0.028-0.862-0.033c-0.126-0.002-0.251,0.002-0.377,0.001c-0.092-0.001-0.182-0.007-0.274-0.007
	c-0.121,0-0.239,0.008-0.36,0.009c-0.471,0.004-0.939,0.016-1.406,0.036c-0.168,0.007-0.337,0.013-0.505,0.022
	c-1.29,0.071-2.565,0.201-3.821,0.391c-0.118,0.018-0.236,0.039-0.354,0.058c-0.497,0.08-0.991,0.168-1.482,0.265
	c-0.183,0.036-0.365,0.074-0.547,0.113c-0.422,0.09-0.841,0.188-1.258,0.291c-0.207,0.051-0.414,0.099-0.619,0.153
	c-0.382,0.101-0.76,0.212-1.138,0.324c-0.623,0.184-1.239,0.382-1.85,0.594c-0.061,0.021-0.122,0.04-0.183,0.062
	C18.869,13.658,7.505,28.748,7.505,46.451c0,22.426,18.258,40.67,40.7,40.67c22.426,0,40.671-18.244,40.671-40.67
	C88.875,27.136,75.355,10.931,57.291,6.788z M22.862,76.961c0.651-0.41,1.284-0.822,1.921-1.205
	c3.681-2.045,7.362-4.061,11.072-6.077c1.49-0.818,2.542-2.016,2.688-3.769c0.117-1.782,0.088-3.593,0.088-5.405
	c0-0.205-0.204-0.467-0.351-0.672c-1.987-2.775-3.506-5.785-4.382-9.115c-0.117-0.351-0.351-0.701-0.614-0.964
	c-0.964-0.906-1.432-2.016-1.432-3.331c0-1.724,0.029-3.447,0-5.171c0-1.023,0.321-1.899,0.935-2.717
	c0.175-0.263,0.38-0.614,0.38-0.906c0.029-2.454,0.088-4.937-0.029-7.391c-0.234-4.967,2.22-9.115,6.836-10.897
	c5.171-1.987,10.459-1.957,15.688-0.263c4.879,1.607,7.683,5.814,7.508,10.839c-0.088,2.542-0.058,5.083-0.029,7.625
	c0.029,0.321,0.175,0.73,0.38,0.993c0.643,0.818,0.964,1.694,0.964,2.717c0,1.782,0.029,3.564,0,5.346
	c-0.029,1.665-0.818,2.892-2.25,3.74c-0.38,0.205-0.73,0.614-0.876,0.993c-1.11,3.068-2.6,5.901-4.587,8.502
	c-0.205,0.292-0.351,0.701-0.351,1.081c-0.029,1.373,0,2.775-0.029,4.149c-0.029,2.279,0.993,3.856,3.009,4.879
	c4.648,2.324,9.301,4.703,14.024,7.107c-6.86,5.665-15.651,9.072-25.222,9.072C38.578,86.121,29.742,82.677,22.862,76.961z"/>
</svg>
