<?xml version="1.0" encoding="utf-8"?>
<!-- Generator: Adobe Illustrator 17.0.0, SVG Export Plug-In . SVG Version: 6.00 Build 0)  -->
<!DOCTYPE svg PUBLIC "-//W3C//DTD SVG 1.1//EN" "http://www.w3.org/Graphics/SVG/1.1/DTD/svg11.dtd">
<svg version="1.1" id="Layer_1" xmlns="http://www.w3.org/2000/svg" xmlns:xlink="http://www.w3.org/1999/xlink" x="0px" y="0px"
	 width="96px" height="96px" viewBox="0 0 96 96" enable-background="new 0 0 96 96" xml:space="preserve">
<path d="M87.6,14.5c-9.4-9.4-24.6-9.4-33.9,0L48,20.1l-5.7-5.7c-9.4-9.4-24.6-9.4-33.9,0C-1,23.8-1,39,8.4,48.4l5.7,5.7L48,88
	l33.9-33.9l5.7-5.7C97,39,97,23.8,87.6,14.5z M70.6,54.1L48,76.7L25.4,54.1L14.1,42.7c-6.2-6.2-6.2-16.4,0-22.6
	c6.2-6.2,16.4-6.2,22.6,0L48,31.4l11.3-11.3c6.2-6.2,16.4-6.2,22.6,0c6.2,6.2,6.2,16.4,0,22.6L70.6,54.1z"/>
</svg>
