<?xml version="1.0" encoding="utf-8"?>
<!-- Generator: Adobe Illustrator 22.1.0, SVG Export Plug-In . SVG Version: 6.00 Build 0)  -->
<svg version="1.1" id="Layer_1" xmlns="http://www.w3.org/2000/svg" xmlns:xlink="http://www.w3.org/1999/xlink" x="0px" y="0px"
	 viewBox="0 0 96 96" style="enable-background:new 0 0 96 96;" xml:space="preserve">
<g>
	<path d="M40.1,53.4c1.5,3.5,5,5.9,9.1,5.9h31c5.5,0,9.9-4.4,9.9-9.9c0-5.5-4.4-9.9-9.9-9.9h-31c-4.1,0-7.6,2.4-9.1,5.9H22.4V32.1
		c5-1.7,8.6-6.3,8.6-11.9c0-6.9-5.6-12.5-12.5-12.5c-6.9,0-12.5,5.6-12.5,12.5c0,5.5,3.6,10.2,8.6,11.9v46.3c0,0,0,0,0,0.1v0.2
		c0,2,1.7,3.7,3.7,3.7h21.9c1.5,3.5,5,5.9,9.1,5.9h31c5.5,0,9.9-4.4,9.9-9.9c0-5.5-4.4-9.9-9.9-9.9h-31c-4.1,0-7.6,2.4-9.1,5.9H22.4
		V53.4H40.1z M49.2,47.4h31c1.1,0,2,0.9,2,2c0,1.1-0.9,2-2,2h-31c-1.1,0-2-0.9-2-2C47.2,48.3,48.1,47.4,49.2,47.4z M49.2,76.4h31
		c1.1,0,2,0.9,2,2c0,1.1-0.9,2-2,2h-31c-1.1,0-2-0.9-2-2C47.2,77.3,48.1,76.4,49.2,76.4z M18.4,24.8c-2.5,0-4.6-2.1-4.6-4.6
		c0-2.5,2.1-4.6,4.6-4.6s4.6,2.1,4.6,4.6C23,22.7,20.9,24.8,18.4,24.8z"/>
	<path d="M49.2,30.3h31c5.5,0,9.9-4.4,9.9-9.9c0-5.5-4.4-9.9-9.9-9.9h-31c-5.5,0-9.9,4.4-9.9,9.9C39.2,25.9,43.7,30.3,49.2,30.3z
		 M49.2,18.5h31c1.1,0,2,0.9,2,2s-0.9,2-2,2h-31c-1.1,0-2-0.9-2-2S48.1,18.5,49.2,18.5z"/>
</g>
</svg>
