<?xml version="1.0" encoding="utf-8"?>
<!-- Generator: Adobe Illustrator 17.0.0, SVG Export Plug-In . SVG Version: 6.00 Build 0)  -->
<!DOCTYPE svg PUBLIC "-//W3C//DTD SVG 1.1//EN" "http://www.w3.org/Graphics/SVG/1.1/DTD/svg11.dtd">
<svg version="1.1" id="Layer_1" xmlns="http://www.w3.org/2000/svg" xmlns:xlink="http://www.w3.org/1999/xlink" x="0px" y="0px"
	 width="96px" height="96px" viewBox="0 0 96 96" enable-background="new 0 0 96 96" xml:space="preserve">
<path d="M90.294,36.723l-40-28c-1.377-0.964-3.21-0.964-4.588,0l-40,28c-1.43,1.001-2.046,2.814-1.521,4.479
	C4.71,42.867,6.254,44,8,44h8v34c0,6.63,5.37,12,12,12h40c6.63,0,12-5.37,12-12V44h8c1.746,0,3.29-1.132,3.815-2.797
	S91.725,37.724,90.294,36.723z M72.391,38.609C71.859,40.547,72,44,72,44v34c0,2.21-1.79,4-4,4H28c-2.21,0-4-1.79-4-4V44.375
	c0,0,0.053-4.71-0.892-5.74C22.562,37.625,20.689,36,20.689,36L48,16.883L75.311,36C75.311,36,72.697,37.493,72.391,38.609z"/>
</svg>
