<?xml version="1.0" encoding="utf-8"?>
<!-- Generator: Adobe Illustrator 22.1.0, SVG Export Plug-In . SVG Version: 6.00 Build 0)  -->
<svg version="1.1" id="Layer_1" xmlns="http://www.w3.org/2000/svg" xmlns:xlink="http://www.w3.org/1999/xlink" x="0px" y="0px"
	 viewBox="0 0 96 96" style="enable-background:new 0 0 96 96;" xml:space="preserve">
<g>
	<path d="M76.6,70.2c-0.3-0.8-0.7-1.6-1.2-2.4c-0.9-1.5-1.9-2.7-3.1-3.5c-1.8-1.2-3.7-1.7-5.9-1.3c-1.9,0.3-3.7,1.2-5.9,2.8
		c-0.7,0.6-1.5,1.1-2.3,1.5c-1.5,0.9-3.2,1.4-5.1,2c-0.2,0.1-0.5,0.1-0.7,0.2c-0.6-1.2-1.5-2-2.9-2.4c-1.2-0.4-2.4-0.5-3.6-0.6
		l-0.4,0c-0.7-0.1-1.4-0.1-2.2-0.2c-0.5,0-1-0.1-1.6-0.1c-0.9-0.1-1.6-0.3-2.3-0.8c-1.4-1-2.7-2.1-3.9-3c-1.9-1.5-3.6-2.6-5.4-3.3
		c-2.1-0.8-4.2-1.2-6.5-1.3c-0.6,0-1.2,0-1.7,0.1l-0.5,0.1c-1.4,0.1-2.9,0.5-4.5,1.3c-2.6,1.1-5,2.8-7.4,5.1C9.3,64.6,9,65,8.5,65.4
		c-0.4,0.4-0.7,0.7-1.1,1.1c-0.3,0.2-0.5,0.4-0.7,0.7c-1.4,1.7-1.1,4.3,0.6,5.7c1.7,1.4,4.3,1.1,5.7-0.6c0.3-0.3,0.4-0.7,0.6-1
		c0.7-1.1,1.5-2.2,2.6-3.1c1.2-1,2.5-1.9,4-2.5c1.8-0.8,3.6-0.9,5.5-0.5c1.9,0.4,3.4,1.1,4.7,2.1l1.1,0.9l0.3,0.3
		c0.8,0.7,1.7,1.4,2.5,2c1.5,1.2,3.1,2,4.7,2.4c1.7,0.5,3.5,0.5,5.2,0.6l0.1,0c0.4,0,0.8,0,1.2,0.1c-0.2,0.4-0.6,0.7-1.2,1
		c-1.7,0.8-3.4,1.1-5.2,0.7c-1.3-0.3-2.7-0.6-3.9-1c-2.3-0.8-4.6-1.8-6.7-2.7c-1.7-0.7-3.8-0.2-4.7,1.3c-0.6,0.9-0.7,2-0.4,3
		c0.3,1,1,1.8,1.9,2.2c0.3,0.2,0.7,0.3,1.1,0.5c0.7,0.3,1.4,0.6,2.1,0.9c2.8,1.1,5.3,2.1,8.1,2.7c2,0.4,3.6,0.6,5.4,0.4
		c1.7-0.2,3.4-0.6,5-1.3c2.3-1,3.8-2.4,4.9-4.4c0.4-0.1,0.8-0.2,1.2-0.3l0.2-0.1c0.9-0.2,2-0.5,3-0.9c1.2-0.4,2.3-0.8,3.3-1.3
		l0.5-0.2c1.6-0.7,3.1-1.6,4.5-2.7c0.7-0.6,1.4-1.1,2.3-1.5c0.8-0.3,1.1-0.1,1.2,0c0.1,0,0.1,0.1,0.2,0.2c0,0-0.1,0.1-0.1,0.1
		l-0.6,0.7c-0.5,0.6-1.2,1.4-1.9,2.1c-1.5,1.5-2.9,2.9-4.5,4.3c-1,0.9-2.2,1.8-3.3,2.6l-0.1,0.1c-1.6,1.2-3.4,2.2-5.3,2.9
		c-1.5,0.6-3.1,0.6-4.7,0.7l-0.4,0c-0.7,0-1.4,0.1-2.1,0.1l-25,0.7c-1.2,0-2.4,0.1-3.6,0.1l-1.6,0c-1,0-2,0-3,0.1
		c-1.3,0-2.3,0.6-2.9,1.6c-0.5,0.8-0.6,1.5-0.6,2.3c0,1.8,1.6,3.3,3.3,3.3c0.8,0,1.7,0,2.5-0.1l14.7-0.4c0.7,0,1.5,0,2.2,0l14.6-0.4
		c0.4,0,0.8,0,1.2,0c0.8,0,1.6,0,2.4-0.1l0.3,0c0.8,0,1.7-0.1,2.7-0.3c2.4-0.5,4.6-1.4,6.9-2.8c1.4-0.8,3-1.8,4.5-3.1l1-0.8
		c1-0.8,2-1.7,3-2.6c2.7-2.5,4.6-4.6,6.3-6.6c0.3-0.4,0.6-0.7,1-1.1c0.4-0.5,0.8-0.9,1.3-1.5C76.8,71.6,76.9,70.9,76.6,70.2z"/>
	<path d="M64.5,4H27.8c-6.1,0-11,4.9-11,11v31c0,2,1.6,3.7,3.7,3.7s3.7-1.6,3.7-3.7V15c0-1.3,0.7-2.2,1.1-2.6
		c0.4-0.4,1.3-1.1,2.6-1.1h29.3V37h25.7v44c0,1.3-0.7,2.2-1.1,2.6c-0.4,0.4-1.3,1.1-2.6,1.1c-2,0-3.7,1.6-3.7,3.7
		c0,1.9,1.5,3.5,3.4,3.6c0,0,0,0,0.2,0c6.1,0,11-4.9,11-11V29.7L64.5,4z M64.5,29.7V14.4l15.3,15.3H64.5z"/>
</g>
</svg>
