<?xml version="1.0" encoding="utf-8"?>
<!-- Generator: Adobe Illustrator 17.0.0, SVG Export Plug-In . SVG Version: 6.00 Build 0)  -->
<!DOCTYPE svg PUBLIC "-//W3C//DTD SVG 1.1//EN" "http://www.w3.org/Graphics/SVG/1.1/DTD/svg11.dtd">
<svg version="1.1" id="Layer_1" xmlns="http://www.w3.org/2000/svg" xmlns:xlink="http://www.w3.org/1999/xlink" x="0px" y="0px"
	 width="96px" height="96px" viewBox="0 0 96 96" enable-background="new 0 0 96 96" xml:space="preserve">
<g>
	<path d="M67.012,42.6c1.562,1.562,1.562,4.095,0,5.657c-0.78,0.781-1.805,1.172-2.828,1.172s-2.047-0.391-2.828-1.172l-9.094-9.094
		V70c0,2.209-1.79,4-4,4c-2.209,0-4-1.791-4-4V39.145l-8.545,8.546c-0.781,0.781-1.805,1.172-2.829,1.172s-2.047-0.391-2.829-1.172
		c-1.562-1.562-1.562-4.095,0-5.657l14.868-14.868c0.908-0.907,2.143-1.271,3.326-1.124c1.182-0.148,2.417,0.216,3.325,1.124
		L67.012,42.6z"/>
	<path d="M95.148,46.475L73.189,8.441c-0.714-1.238-2.035-2-3.464-2H25.809c-1.429,0-2.75,0.762-3.464,2L0.386,46.475
		c-0.715,1.238-0.715,2.762,0,4l21.959,38.032c0.714,1.237,2.035,2,3.464,2h43.917c1.429,0,2.75-0.763,3.464-2l21.959-38.032
		C95.863,49.237,95.863,47.713,95.148,46.475z M67.416,82.508H28.119L8.469,48.475l19.65-34.034h39.297l19.649,34.034L67.416,82.508
		z"/>
</g>
</svg>
