<?xml version="1.0" encoding="utf-8"?>
<!-- Generator: Adobe Illustrator 21.0.0, SVG Export Plug-In . SVG Version: 6.00 Build 0)  -->
<svg version="1.1" id="Layer_1" xmlns="http://www.w3.org/2000/svg" xmlns:xlink="http://www.w3.org/1999/xlink" x="0px" y="0px"
	 viewBox="0 0 96 96" style="enable-background:new 0 0 96 96;" xml:space="preserve">
<style type="text/css">
	.st0{fill:#231815;}
</style>
<g>
	<path class="st0" d="M52.7,45c-1.2,0-2.1,0.4-2.9,1.3c-0.7,0.8-1.1,2.2-1.1,4.2c0,1.9,0.4,3.3,1.1,4.2c0.7,0.8,1.7,1.3,2.9,1.3
		c1.3,0,2.3-0.4,2.9-1.2s1-2.3,1-4.5c0-1.8-0.4-3.1-1.1-3.9S53.9,45,52.7,45z"/>
	<path class="st0" d="M13.5,33L2.1,49.5l11.2,18h0.1H94V33H13.5z M39.6,60h-5.9v-7.7h-6.5V60h-5.9V40.8h5.9v6.7h6.5v-6.7h5.9V60z
		 M61.5,55.8c-0.8,1.4-1.8,2.5-3.3,3.3c-1.4,0.8-3.2,1.2-5.3,1.2c-2.2,0-3.9-0.3-5.4-1c-1.4-0.7-2.6-1.8-3.4-3.3
		c-0.9-1.5-1.3-3.3-1.3-5.6c0-3.1,0.9-5.6,2.6-7.3c1.7-1.7,4.2-2.6,7.3-2.6c3.2,0,5.6,0.9,7.4,2.6c1.7,1.7,2.6,4.1,2.6,7.2
		C62.6,52.5,62.3,54.3,61.5,55.8z M81.8,45.6h-6V60h-5.9V45.6h-6v-4.7h18V45.6z"/>
</g>
</svg>
