<?xml version="1.0" encoding="utf-8"?>
<!-- Generator: Adobe Illustrator 21.0.0, SVG Export Plug-In . SVG Version: 6.00 Build 0)  -->
<svg version="1.1" id="Layer_1" xmlns="http://www.w3.org/2000/svg" xmlns:xlink="http://www.w3.org/1999/xlink" x="0px" y="0px"
	 viewBox="0 0 96 96" style="enable-background:new 0 0 96 96;" xml:space="preserve">
<path d="M47.5,94.2c-25.8,0-46.8-21-46.8-46.8c0-25.8,21-46.8,46.8-46.8s46.8,21,46.8,46.8C94.3,73.3,73.3,94.2,47.5,94.2z
	 M47.5,7.4c-5.4,0-10.7,1.1-15.6,3.1c-4.8,2-9.1,4.9-12.7,8.6c-3.7,3.7-6.6,8-8.6,12.7c-2.1,4.9-3.1,10.2-3.1,15.6
	c0,5.4,1.1,10.7,3.1,15.6c2,4.8,4.9,9.1,8.6,12.7c3.7,3.7,8,6.6,12.7,8.6c4.9,2.1,10.2,3.1,15.6,3.1c5.4,0,10.7-1.1,15.6-3.1
	c4.8-2,9.1-4.9,12.7-8.6c3.7-3.7,6.6-8,8.6-12.7c2.1-4.9,3.1-10.2,3.1-15.6c0-5.4-1.1-10.7-3.1-15.6c-2-4.8-4.9-9.1-8.6-12.7
	c-3.7-3.7-8-6.6-12.7-8.6C58.2,8.5,52.9,7.4,47.5,7.4z"/>
<path d="M28.1,70.1c-1.4,0-2.6-1.2-2.6-2.6c0-5.6,1.6-8.2,4.6-13c-0.7-1.1-1.2-2.3-1.6-3.5c-1.2-4-0.9-8.1-0.3-10.4
	c1-3.4,2.6-6.1,5-8.1c2.2-1.9,5-3.2,8.6-4.1c6-1.4,13.9-1.5,24.4-1.5h2.8c0.8,0,1.5,0.3,2,0.9c0.5,0.6,0.7,1.4,0.6,2.1
	c-1.4,8.2-3.6,15-6.6,20.1c-2.6,4.5-5.8,7.8-9.5,9.8c-2.9,1.6-6.2,2.5-9.6,2.5c-0.6,0-1.2,0-1.9-0.1c-2.8-0.2-5.2-1-6.6-1.6
	c-0.7-0.3-1.4-0.6-2-1c-0.6-0.4-1-0.9-1.2-1.6c-0.2-0.7-0.1-1.4,0.3-2c0,0,0,0,0-0.1c-2.1,2.7-3.8,6.3-3.8,11.5
	C30.7,68.9,29.5,70.1,28.1,70.1z M36.7,54.8c0.5,0,0.9,0.1,1.3,0.4c0.4,0.2,0.8,0.5,1.3,0.6c1.2,0.5,3.6,1.3,6.5,1.3
	c2.5,0,4.9-0.6,7.1-1.8c6-3.3,10.4-11.1,12.9-23.2c-21.7,0-30.1,0.9-32.6,9.9c-0.4,1.3-0.7,4.3,0.3,7.5c0,0.1,0,0.1,0.1,0.2
	c0.7-0.9,1.6-1.8,2.4-2.7c2.8-2.8,5.9-5.1,9.1-6.8c3.2-1.7,6.3-2.6,8.9-2.6c1.4,0,2.6,1.2,2.6,2.6s-1.2,2.6-2.6,2.6
	c-1.7,0-4,0.7-6.5,2c-2.7,1.4-5.4,3.4-7.8,5.9c-0.4,0.4-0.8,0.8-1.2,1.2c-1.1,1.1-2.4,2.3-3.5,3.7C35.3,55.1,36,54.8,36.7,54.8z"/>
<g>
	<path d="M47.5,1.7C22.3,1.7,1.8,22.2,1.8,47.5c0,25.3,20.5,45.8,45.8,45.8c25.3,0,45.8-20.5,45.8-45.8C93.3,22.2,72.8,1.7,47.5,1.7
		z M76.6,76.6c-3.8,3.8-8.2,6.7-13.1,8.8c-5.1,2.1-10.4,3.2-16,3.2s-10.9-1.1-16-3.2c-4.9-2.1-9.3-5-13.1-8.8
		c-3.8-3.8-6.7-8.2-8.8-13.1c-2.1-5.1-3.2-10.4-3.2-16c0-5.5,1.1-10.9,3.2-16c2.1-4.9,5-9.3,8.8-13.1c3.8-3.8,8.2-6.7,13.1-8.8
		c5.1-2.1,10.4-3.2,16-3.2s10.9,1.1,16,3.2c4.9,2.1,9.3,5,13.1,8.8s6.7,8.2,8.8,13.1c2.1,5.1,3.2,10.4,3.2,16c0,5.5-1.1,10.9-3.2,16
		C83.3,68.4,80.3,72.8,76.6,76.6z"/>
	<path d="M70.2,28.5c0.3,0.4,0.4,0.8,0.4,1.3c-1.4,8.1-3.6,14.7-6.5,19.7C61.6,53.8,58.5,57,55,59c-2.8,1.5-5.9,2.3-9.1,2.3
		c-0.6,0-1.2,0-1.8-0.1c-2.7-0.2-4.9-1-6.3-1.5c-0.6-0.3-1.3-0.6-1.9-0.9c-0.8-0.5-1-1.4-0.6-2.2c0.3-0.5,0.8-0.8,1.4-0.8
		c0.3,0,0.6,0.1,0.8,0.2c0.5,0.3,0.9,0.5,1.4,0.7c1.2,0.5,3.8,1.4,6.9,1.4c2.7,0,5.3-0.7,7.6-1.9c6.5-3.6,11.1-12,13.6-25h-0.7
		c-21,0-31.3,0.5-34.1,10.7c-0.4,1.4-0.8,4.6,0.3,8c0.2,0.6,0.4,1.2,0.8,1.8c1-1.4,2.2-2.7,3.4-3.9c2.7-2.7,5.8-5,8.9-6.6
		c3.1-1.6,6-2.5,8.4-2.5c0.9,0,1.6,0.7,1.6,1.6c0,0.9-0.7,1.6-1.6,1.6c-1.9,0-4.3,0.8-6.9,2.1c-2.8,1.5-5.6,3.6-8.1,6
		c-3.4,3.4-9.2,7.7-9.2,17.4c0,0.9-0.7,1.6-1.6,1.6c-0.9,0-1.6-0.7-1.6-1.6c0-5.5,1.6-7.9,4.8-13c-0.8-1.2-1.4-2.4-1.8-3.7
		c-1.2-3.8-0.9-7.7-0.3-9.8c0.9-3.2,2.4-5.7,4.7-7.6c2.1-1.8,4.8-3,8.2-3.9c5.9-1.4,13.7-1.5,24.2-1.5h2.8
		C69.4,27.9,69.8,28.1,70.2,28.5L70.2,28.5L70.2,28.5z"/>
</g>
</svg>
