<?xml version="1.0" encoding="utf-8"?>
<!-- Generator: Adobe Illustrator 21.0.0, SVG Export Plug-In . SVG Version: 6.00 Build 0)  -->
<svg version="1.1" id="Layer_1" xmlns="http://www.w3.org/2000/svg" xmlns:xlink="http://www.w3.org/1999/xlink" x="0px" y="0px"
	 viewBox="0 0 96 96" style="enable-background:new 0 0 96 96;" xml:space="preserve">
<style type="text/css">
	.st0{fill:#050609;}
</style>
<g>
	<path class="st0" d="M8,26.8c0-0.3,0-0.6,0-0.9c0-0.3,0-0.6,0-0.9V26.8z"/>
	<path class="st0" d="M87.5,25.1c0,0.3,0,0.6,0,0.9c0,0.3,0,0.6,0,0.9V25.1z"/>
	<path class="st0" d="M87.5,70.5"/>
	<path class="st0" d="M8,71.3c0-0.3,0-0.6,0-0.9c0-0.3,0-0.6,0-0.9V71.3z"/>
	<path class="st0" d="M59,39.1h15c7.2,0,13-5.8,13.4-13.1C87,18.7,81.2,12.9,74,12.9H21.5c-7.2,0-13,5.8-13.4,13.1
		c0.4,7.3,6.3,13.1,13.4,13.1h17l0,4.6c0,1.4,0.4,3.3,1.7,5.1c-0.3,0.3-0.6,0.6-0.9,1c-1.8,2.2-2.5,5.1-2.7,7.6H21.5
		c-7.2,0-13,5.8-13.4,13.1c0.4,7.3,6.3,13.1,13.4,13.1H74c7.2,0,13-5.8,13.4-13.1C87,63.2,81.2,57.4,74,57.4H60.9
		c-0.2-2.5-0.9-5.3-2.7-7.6c-0.3-0.3-0.6-0.7-0.9-1c1.3-1.8,1.7-3.7,1.7-5.1V39.1z M16,26c0.4-2.9,2.7-5.2,5.5-5.2H74
		c2.8,0,5.1,2.3,5.5,5.2c-0.4,2.9-2.7,5.2-5.5,5.2H21.5C18.7,31.1,16.4,28.9,16,26z M51.7,39.1l0,4.8c0,0-0.1,1.5-3,2.1
		c-2.1-0.4-3-1.4-3-2.2v-4.7H51.7z M79.5,70.5c-0.4,2.9-2.7,5.2-5.5,5.2H21.5c-2.8,0-5.1-2.3-5.5-5.2c0.4-2.9,2.7-5.2,5.5-5.2H74
		C76.8,65.3,79.1,67.6,79.5,70.5z M43.9,57.4c0.1-1.2,0.4-2.3,1-3c0.3-0.4,0.8-0.8,2.1-0.9c0.6,0,1.2-0.1,1.7-0.1
		c0.5,0.1,1.1,0.1,1.7,0.1c1.3,0,1.8,0.5,2.1,0.9c0.6,0.7,0.9,1.8,1,3H43.9z"/>
</g>
</svg>
