<?xml version="1.0" encoding="utf-8"?>
<!-- Generator: Adobe Illustrator 21.0.0, SVG Export Plug-In . SVG Version: 6.00 Build 0)  -->
<svg version="1.1" id="Layer_1" xmlns="http://www.w3.org/2000/svg" xmlns:xlink="http://www.w3.org/1999/xlink" x="0px" y="0px"
	 viewBox="0 0 96 96" style="enable-background:new 0 0 96 96;" xml:space="preserve">
<style type="text/css">
	.st0{fill:#050609;}
</style>
<g>
	<path class="st0" d="M7.3,26.7c0-0.3,0-0.6,0-0.9c0-0.3,0-0.6,0-0.9V26.7z"/>
	<path class="st0" d="M74.7,39.2c7.3,0,13.3-5.9,13.7-13.4C88,18.3,82,12.4,74.7,12.4H21.1c-7.3,0-13.3,5.9-13.7,13.4
		c0.4,7.5,6.4,13.4,13.7,13.4H30v18.7h-8.9c-7.3,0-13.3,5.9-13.7,13.4c0.4,7.5,6.4,13.4,13.7,13.4h53.6c7.3,0,13.3-5.9,13.7-13.4
		C88,63.8,82,57.8,74.7,57.8H63.9V39.2H74.7z M15.5,25.8c0.4-3,2.7-5.3,5.6-5.3h53.6c2.8,0,5.2,2.3,5.6,5.3c-0.4,3-2.7,5.3-5.6,5.3
		H21.1C18.3,31.1,15.9,28.8,15.5,25.8z M80.3,71.2c-0.4,3-2.7,5.3-5.6,5.3H21.1c-2.8,0-5.2-2.3-5.6-5.3c0.4-3,2.7-5.3,5.6-5.3h53.6
		C77.6,66,79.9,68.3,80.3,71.2z M56.5,57.8H37.4V39.2h19.1V57.8z"/>
	<path class="st0" d="M88.5,24.9c0,0.3,0,0.6,0,0.9c0,0.3,0,0.6,0,0.9V24.9z"/>
	<path class="st0" d="M88.5,70.4c0,0.3,0,0.6,0,0.9c0,0.3,0,0.6,0,0.9V70.4z"/>
	<path class="st0" d="M7.3,72.1c0-0.3,0-0.6,0-0.9c0-0.3,0-0.6,0-0.9V72.1z"/>
</g>
</svg>
