<?xml version="1.0" encoding="utf-8"?>
<!-- Generator: Adobe Illustrator 21.0.0, SVG Export Plug-In . SVG Version: 6.00 Build 0)  -->
<svg version="1.1" id="Layer_1" xmlns="http://www.w3.org/2000/svg" xmlns:xlink="http://www.w3.org/1999/xlink" x="0px" y="0px"
	 viewBox="0 0 96 96" style="enable-background:new 0 0 96 96;" xml:space="preserve">
<style type="text/css">
	.st0{fill:#050609;}
</style>
<g>
	<path class="st0" d="M88.2,25.7c0,0.3,0,0.6,0,0.9c0,0.3,0,0.6,0,0.9V25.7z"/>
	<path class="st0" d="M7.8,27.4c0-0.3,0-0.6,0-0.9c0-0.3,0-0.6,0-0.9V27.4z"/>
	<path class="st0" d="M74.5,39.8c7.2,0,13.2-5.9,13.6-13.2c-0.4-7.4-6.4-13.2-13.6-13.2H21.5c-7.2,0-13.2,5.9-13.6,13.2
		c0.4,7.4,6.4,13.2,13.6,13.2h22.9v18.5H21.5c-7.2,0-13.2,5.9-13.6,13.2c0.4,7.4,6.4,13.2,13.6,13.2h53.1c7.2,0,13.2-5.9,13.6-13.2
		c-0.4-7.4-6.4-13.2-13.6-13.2H51.7V39.8H74.5z M80.1,71.5c-0.4,2.9-2.7,5.2-5.5,5.2H21.5c-2.8,0-5.1-2.3-5.5-5.2
		c0.4-2.9,2.7-5.2,5.5-5.2h53.1C77.4,66.3,79.7,68.6,80.1,71.5z M15.9,26.6c0.4-2.9,2.7-5.2,5.5-5.2h53.1c2.8,0,5.1,2.3,5.5,5.2
		c-0.4,2.9-2.7,5.2-5.5,5.2H21.5C18.6,31.8,16.3,29.5,15.9,26.6z"/>
	<path class="st0" d="M88.2,70.7c0,0.3,0,0.6,0,0.9c0,0.3,0,0.6,0,0.9V70.7z"/>
	<path class="st0" d="M7.8,72.4c0-0.3,0-0.6,0-0.9c0-0.3,0-0.6,0-0.9V72.4z"/>
</g>
</svg>
