<?xml version="1.0" encoding="utf-8"?>
<!-- Generator: Adobe Illustrator 21.0.0, SVG Export Plug-In . SVG Version: 6.00 Build 0)  -->
<svg version="1.1" id="Layer_1" xmlns="http://www.w3.org/2000/svg" xmlns:xlink="http://www.w3.org/1999/xlink" x="0px" y="0px"
	 viewBox="0 0 96 96" style="enable-background:new 0 0 96 96;" xml:space="preserve">
<g>
	<path d="M1.2,14.2v70.1h93.5V14.2H1.2z M48.2,78.5c1.4-8.3,8.6-14.6,17.3-14.6c8.7,0,15.9,6.3,17.3,14.6H48.2z M56.8,49.3
		c0-4.8,3.9-8.8,8.8-8.8c4.8,0,8.8,3.9,8.8,8.8c0,4.8-3.9,8.8-8.8,8.8C60.7,58.1,56.8,54.2,56.8,49.3z M88.9,78.5h-0.2
		c-1-8.2-6.2-15-13.4-18.3c3-2.7,4.9-6.6,4.9-10.9c0-8.1-6.5-14.6-14.6-14.6c-8.1,0-14.6,6.5-14.6,14.6c0,4.3,1.9,8.2,4.9,10.9
		c-7.2,3.3-12.4,10.2-13.5,18.3H7.1V20.1h81.8V78.5z"/>
	<path d="M39.2,46.4H15.9v-5.8h23.4V46.4z M30.5,52.2H15.9v5.8h14.6V52.2z"/>
</g>
</svg>
