<?xml version="1.0" encoding="utf-8"?>
<!-- Generator: Adobe Illustrator 22.1.0, SVG Export Plug-In . SVG Version: 6.00 Build 0)  -->
<svg version="1.1" id="图层_1" xmlns="http://www.w3.org/2000/svg" xmlns:xlink="http://www.w3.org/1999/xlink" x="0px" y="0px"
	 viewBox="0 0 96.4 96.4" style="enable-background:new 0 0 96.4 96.4;" xml:space="preserve">
<style type="text/css">
	.st0{fill:#0C0015;}
</style>
<g>
	<path class="st0" d="M81.2,26.2h-22v5.5h-22v-5.5h-22c-6.1,0-11,4.9-11,11v44c0,6.1,4.9,11,11,11h66c6.1,0,11-4.9,11-11v-44
		C92.2,31.1,87.3,26.2,81.2,26.2z M15.2,75.7c2.3-6.4,8.4-11,15.6-11c-6.1,0-11-4.9-11-11s4.9-11,11-11s11,4.9,11,11s-4.9,11-11,11
		c7.2,0,13.3,4.6,15.6,11H15.2z M78.4,70.2h-22l-0.5,0c-1.3-0.2-2.3-1.4-2.3-2.7c0-1.5,1.2-2.8,2.8-2.8h22c1.5,0,2.8,1.2,2.8,2.8
		S80,70.2,78.4,70.2z M78.4,59.2h-22l-0.5,0c-1.3-0.2-2.3-1.4-2.3-2.7c0-1.5,1.2-2.8,2.8-2.8h22c1.5,0,2.8,1.2,2.8,2.8
		S80,59.2,78.4,59.2z"/>
	<path class="st0" d="M53.7,9.7c0-3-2.5-5.5-5.5-5.5c-3,0-5.5,2.5-5.5,5.5v16.5h11V9.7z"/>
</g>
</svg>
