<?xml version="1.0" encoding="utf-8"?>
<!-- Generator: Adobe Illustrator 17.0.0, SVG Export Plug-In . SVG Version: 6.00 Build 0)  -->
<!DOCTYPE svg PUBLIC "-//W3C//DTD SVG 1.1//EN" "http://www.w3.org/Graphics/SVG/1.1/DTD/svg11.dtd">
<svg version="1.1" id="Layer_1" xmlns="http://www.w3.org/2000/svg" xmlns:xlink="http://www.w3.org/1999/xlink" x="0px" y="0px"
	 width="96px" height="96px" viewBox="0 0 96 96" enable-background="new 0 0 96 96" xml:space="preserve">
<path d="M80,4H16C9.4,4,4,9.4,4,16v64c0,6.6,5.4,12,12,12h64c6.6,0,12-5.4,12-12V16C92,9.4,86.6,4,80,4z M84,80c0,2.2-1.8,4-4,4
	H29.7L64,49.7l20,20V80z M84,58.3l-20-20L18.3,84H16c-2.2,0-4-1.8-4-4V16c0-2.2,1.8-4,4-4h64c2.2,0,4,1.8,4,4V58.3z M32,20
	c-6.6,0-12,5.4-12,12s5.4,12,12,12s12-5.4,12-12S38.6,20,32,20z M32,36c-2.2,0-4-1.8-4-4s1.8-4,4-4s4,1.8,4,4S34.2,36,32,36z"/>
</svg>
