<?xml version="1.0" encoding="utf-8"?>
<!-- Generator: Adobe Illustrator 21.0.0, SVG Export Plug-In . SVG Version: 6.00 Build 0)  -->
<svg version="1.1" id="图层_1" xmlns="http://www.w3.org/2000/svg" xmlns:xlink="http://www.w3.org/1999/xlink" x="0px" y="0px"
	 viewBox="0 0 16 16" style="enable-background:new 0 0 16 16;" xml:space="preserve">
<title>190311工业云logo</title>
<path d="M2.4,11l0.2,0.2c0.1,0.1,0.1,0.2,0.2,0.2l0.1-0.1l0.2,0.1v0.3c0.1,0.1,0.2,0.1,0.4,0.2H4c0-0.1,0.1-0.2,0.2-0.1l0,0v-0.4
	l0.2-0.1l0.4,0.3L5.6,11l0,0l0.3-0.2c0.2,0.1,0.3,0.1,0.5,0.2l0.1,0.6c0.6-0.2,1.2-0.4,1.7-0.7C10,10,11.3,8.4,12,6.5l-1-0.1
	c-0.1-0.2-0.1-0.3-0.2-0.5l0.7-0.8L10,3.7L9.2,4.3C9,4.3,8.9,4.2,8.7,4.1l-0.1-1H6.5l-0.1,1C6.2,4.2,6.1,4.2,5.9,4.3L5.1,3.6
	L3.6,5.1l0.7,0.8C4.2,6.1,4.2,6.2,4.1,6.4l-1,0.1v1.7L3,8.3L2.5,8L1.8,8.7l0.3,0.4C2.1,9.2,2,9.3,2,9.3H1.6c0.1-0.1,0-0.3-0.1-0.4
	c0.1-0.7,0.4-2.5,1.9-3.2c0.1-0.1,0.1-0.2,0.1-0.2s0,0-0.1-0.1C2.1,6,1.2,7.4,1.1,8.9C0.9,9,0.9,9.2,1,9.4c0.1,0.1,0.4,0.2,0.5,0v1
	H2c0,0.1,0.1,0.2,0.1,0.2L1.8,11l0.4,0.4l0.1-0.1L2.4,11z M5.3,7h0.5c0-0.1,0.1-0.2,0.1-0.2L5.6,6.4l0.7-0.7L6.7,6L7,5.8V5.3h1v0.5
	l0.2,0.1l0.4-0.3l0.7,0.7L9,6.7c0,0.1,0.1,0.2,0.1,0.2h0.5v1H9.1C9.1,8,9,8.1,9,8.1l0.3,0.4L8.6,9.3L8.2,9L8,9.1v0.5H7V9.1L6.8,9
	L6.4,9.3L5.6,8.6L6,8.2C6,8.1,5.9,8,5.9,8H5.3V7z M3.7,9.3c0.3,0,0.6,0.3,0.6,0.6S4,10.4,3.7,10.4s-0.6-0.3-0.6-0.6l0,0
	C3.1,9.5,3.4,9.3,3.7,9.3z M7.5,8.3c0.4,0,0.7-0.3,0.7-0.7S7.9,6.9,7.5,6.9S6.8,7.2,6.8,7.6l0,0C6.9,8,7.2,8.2,7.5,8.3L7.5,8.3z
	 M14.5,8.5l0.3-0.4l-0.7-0.7l-0.4,0.3l-0.2-0.1V7.4h-0.1c-0.2,0.5-0.5,1-0.8,1.5c0.2-0.2,0.6-0.2,0.8,0s0.2,0.6,0,0.8
	s-0.6,0.2-0.8,0c-0.1-0.2-0.2-0.4-0.1-0.6c-0.4,0.5-0.8,1-1.2,1.4l0.6,0.6l0.4-0.3l0.2,0.1v0.5h1v-0.5l0.2-0.1l0.4,0.3l0.7-0.7
	L14.5,10c0-0.1,0.1-0.1,0.1-0.2h0.5v-1h-0.5C14.6,8.7,14.5,8.6,14.5,8.5L14.5,8.5z M12.5,5.5c-0.8,3.9-4.3,6.6-8.2,6.6l-0.1,0.1
	c0,0,0,0,0.1,0.1c-0.1,0.2,1.4,0.4,3.3-0.4c2.8-1,4.9-3.4,5.4-6.3c0.5,0,0.8-0.5,0.8-0.9c0-0.5-0.5-0.8-0.9-0.8s-1,0.5-0.9,0.9
	C12,5.2,12.2,5.4,12.5,5.5L12.5,5.5z M12.8,4.3c0.2,0,0.4,0.2,0.4,0.4S13,5.2,12.8,5.2S12.4,5,12.4,4.8l0,0
	C12.4,4.5,12.5,4.3,12.8,4.3L12.8,4.3L12.8,4.3z M13.3,7.2c0.3,0,0.5-0.2,0.5-0.4c0-0.3-0.2-0.5-0.4-0.5c-0.3,0-0.5,0.2-0.5,0.4
	c0,0.1,0,0.2,0.1,0.3c-0.9,1.8-2.2,3.3-3.8,4.4c-4.9,2.6-6.7,0-6.7,0l-0.2,0.2c0.2,0.3,2,2.3,6,0.6C10.5,11.3,12.3,9.4,13.3,7.2
	L13.3,7.2z"/>
</svg>
