<?xml version="1.0" encoding="utf-8"?>
<!-- Generator: Adobe Illustrator 21.0.0, SVG Export Plug-In . SVG Version: 6.00 Build 0)  -->
<svg version="1.1" id="图层_1" xmlns="http://www.w3.org/2000/svg" xmlns:xlink="http://www.w3.org/1999/xlink" x="0px" y="0px"
	 viewBox="0 0 97.8 68" style="enable-background:new 0 0 97.8 68;" xml:space="preserve">
<title>190311工业云logo</title>
<path d="M10.3,54.9l1.1,1.6c0.5,0.6,1,1.2,1.6,1.7l0.8-0.7c0.5,0.3,1,0.5,1.6,0.7l0.2,2.1c0.8,0.5,1.7,1,2.6,1.5H21
	c0.3-0.6,1-1,1.7-1h0.1l0.2-2.5c0.5-0.2,1.1-0.4,1.6-0.7l2.7,2.3l5-4.9l0,0l2.1-1.8c1.1,0.5,2.1,1,3.3,1.4l0.3,4
	c4.1-1.1,8.1-2.6,11.8-4.6C62,47.7,70.7,37.5,75.9,23.7l-6.6-0.6c-0.4-1.1-0.8-2.2-1.3-3.3l4.7-5.6L62.4,4l-5.6,4.6
	c-1-0.5-2.1-1-3.2-1.4L52.9,0H38.5l-0.7,7.2c-1.1,0.4-2.2,0.8-3.3,1.3L29,3.9L18.7,14.1l4.6,5.6c-0.5,1-1,2.1-1.3,3.2l-7.2,0.6v12
	c-0.3,0.1-0.6,0.2-0.8,0.4l-2.7-2.2l-5,4.9l2.2,2.7c-0.3,0.5-0.5,1-0.7,1.6l-3.2,0.3c0.6-1,0.4-2.3-0.4-3.1
	C4.6,35.3,6.7,22.5,17.6,18c0.6-0.3,0.8-1,0.5-1.6c-0.1-0.2-0.2-0.3-0.4-0.5c0,0-13.4,4.6-16.7,24c-1.1,0.9-1.3,2.4-0.4,3.5
	s2.4,1.3,3.5,0.4c0.1-0.1,0.2-0.1,0.2-0.2v6.6l3.5,0.3C8,51,8.2,51.6,8.4,52.1l-2.3,2.7l2.5,2.5l0.6-0.8L10.3,54.9z M30.3,27.3
	l3.6-0.3c0.2-0.6,0.4-1.1,0.7-1.6l-2.3-2.8l5.1-5l2.8,2.3c0.5-0.3,1.1-0.5,1.6-0.7l0.3-3.6h7.1l0.3,3.6c0.6,0.2,1.1,0.4,1.6,0.7
	l2.8-2.3l5,5.1l-2.3,2.8c0.3,0.5,0.5,1,0.7,1.6l3.6,0.3v7.1l-3.6,0.3c-0.2,0.6-0.4,1.1-0.7,1.6l2.3,2.8l-5.1,5L51,41.9
	c-0.5,0.3-1.1,0.5-1.6,0.7l-0.3,3.6H42l-0.3-3.6c-0.6-0.2-1.1-0.4-1.6-0.7l-2.8,2.3l-5-5.1l2.3-2.8c-0.3-0.5-0.5-1.1-0.7-1.6
	l-3.6-0.3L30.3,27.3z M19.3,42.8c2.2,0,4,1.8,4,4s-1.8,4-4,4s-4-1.8-4-4S17.1,42.8,19.3,42.8z M45.6,35.6c2.6,0,4.7-2.1,4.7-4.7
	c0-2.6-2.1-4.7-4.7-4.7c-2.6,0-4.7,2.1-4.7,4.7l0,0C40.9,33.5,43,35.6,45.6,35.6L45.6,35.6z M93.8,37.4l2.2-2.6L91.2,30l-2.6,2.2
	c-0.5-0.2-1-0.5-1.6-0.6l-0.2-2.1c-0.2,0.1-0.4,0.1-0.6,0.1c-1.5,3.6-3.3,7-5.5,10.3c1.6-1.5,4-1.4,5.5,0.2c1.5,1.6,1.4,4-0.2,5.5
	s-4,1.4-5.5-0.2c-1-1.1-1.3-2.6-0.8-4c-2.5,3.6-5.3,6.9-8.3,9.9l4,4.1l2.6-2.2c0.5,0.2,1,0.5,1.5,0.6l0.3,3.4h6.8l0.4-3.4
	c0.5-0.2,1-0.4,1.5-0.6l2.6,2.2l4.8-4.8L93.7,48c0.2-0.5,0.5-1,0.6-1.5l3.4-0.3v-6.8L94.4,39C94.2,38.5,94,37.9,93.8,37.4L93.8,37.4
	z M79.5,16.7C68.4,59,32,62,22.8,62.1c-0.3,0-0.6,0.3-0.6,0.6c0,0.2,0.1,0.5,0.4,0.6c-0.4,1.6,9.6,2.4,22.8-2.5
	C76.6,49,81.9,22.4,82.6,17.3c3.2-0.3,5.6-3.2,5.3-6.4c-0.3-3.2-3.2-5.6-6.4-5.3c-3.2,0.3-5.6,3.2-5.3,6.4
	C76.3,14,77.6,15.8,79.5,16.7L79.5,16.7z M82,8.5c1.6,0,2.8,1.3,2.8,2.8s-1.3,2.8-2.8,2.8c-1.6,0-2.8-1.3-2.8-2.8l0,0
	C79.2,9.7,80.4,8.5,82,8.5z M85.5,28.3c1.9,0,3.4-1.5,3.4-3.3s-1.5-3.4-3.3-3.4c-1.9,0-3.4,1.5-3.4,3.3c0,0.9,0.3,1.7,0.9,2.3
	c-6,12.2-15.1,22.6-26.5,30.1c-34,18.2-46.2,0-46.2,0L9.2,59c1.7,2.3,13.5,16,41.7,4.3C75.4,53,84.3,30.8,85.3,28.2L85.5,28.3z"/>
</svg>
