<?xml version="1.0" encoding="utf-8"?>
<!-- Generator: Adobe Illustrator 22.1.0, SVG Export Plug-In . SVG Version: 6.00 Build 0)  -->
<svg version="1.1" id="Layer_1" xmlns="http://www.w3.org/2000/svg" xmlns:xlink="http://www.w3.org/1999/xlink" x="0px" y="0px"
	 viewBox="0 0 96 96" style="enable-background:new 0 0 96 96;" xml:space="preserve">
<path d="M4.7,57.5l0.5,0.7c0.2,0.3,0.5,0.5,0.7,0.8l0.3-0.3c0.2,0.2,0.5,0.2,0.7,0.3v1c0.3,0.2,0.8,0.5,1.2,0.7h1.4
	c0.2-0.3,0.5-0.5,0.8-0.5l0,0l0.2-1.2c0.2,0,0.5-0.2,0.7-0.3l1.2,1l2.2-2.2l0,0l1-0.8c0.5,0.2,1,0.5,1.5,0.7l0.2,1.9
	c1.9-0.5,3.7-1.2,5.4-2.2c5.6-2.9,9.5-7.4,11.9-13.7l-3-0.3c-0.2-0.5-0.3-1-0.7-1.5l2-2.5l-4.6-4.6l-2.5,2c-0.5-0.2-1-0.5-1.5-0.7
	l-0.3-3.4h-6.6l-0.3,3.2c-0.3,0.5-0.8,0.8-1.2,1l-2.5-2.2l-4.7,4.7l2,2.5c-0.2,0.5-0.3,1-0.5,1.5l-3.2,0.2v5.4
	c-0.2,0-0.2,0.2-0.3,0.2l-1.4-1l-2.2,2.2l1,1.2c-0.2,0.2-0.2,0.5-0.3,0.7L2,52.1c0.3-0.5,0.2-1-0.2-1.4c0.2-2.2,1.2-8,6.1-10
	c0.3-0.2,0.3-0.5,0.3-0.7s-0.2-0.2-0.2-0.2S2,42,0.5,50.8C0,51.3-0.2,52,0.2,52.5s1.2,0.5,1.5,0.2c0,0,0,0,0.2-0.2v3l1.5,0.2
	c0,0.2,0.2,0.5,0.3,0.7l-1,1.2l1.2,1.2l0.3-0.3L4.7,57.5z M13.7,45l1.7-0.2c0-0.2,0.2-0.5,0.3-0.7l-1-1.2l2.2-2.4l1.2,1
	c0.2-0.2,0.5-0.2,0.7-0.3l0.2-1.7h3.2l0.2,1.7c0.2,0,0.5,0.2,0.7,0.3l1.2-1l2.2,2.4l-1,1.2c0.2,0.2,0.2,0.5,0.3,0.7l1.7,0.2v3.2
	l-1.7,0.2c0,0.2-0.2,0.5-0.3,0.7l1,1.2L24,52.5l-1.2-1c-0.2,0.2-0.5,0.2-0.7,0.3L22,53.5h-3.2l-0.2-1.7c-0.2,0-0.5-0.2-0.7-0.3
	l-1,1.4l-2.2-2.4l1-1.2c-0.2-0.3-0.3-0.5-0.3-0.8l-1.7-0.2V45z M8.8,52.1c1,0,1.9,0.8,1.9,1.9s-0.8,1.9-1.9,1.9S6.9,55,6.9,54
	S7.8,52.1,8.8,52.1z M20.7,48.9c1.2,0,2.2-1,2.2-2.2s-1-2.2-2.2-2.2c-1.2,0-2,1-2,2.2l0,0C18.6,47.9,19.5,48.9,20.7,48.9z
	 M42.7,49.6l1-1.2l-2.2-2.2l-1.2,1c-0.2-0.2-0.5-0.2-0.7-0.3l-0.2-1c-0.2,0-0.2,0-0.3,0c-0.7,1.7-1.5,3.2-2.5,4.7
	c0.7-0.7,1.9-0.7,2.5,0.2c0.7,0.7,0.7,1.9-0.2,2.5c-0.7,0.7-1.9,0.7-2.5-0.2c-0.5-0.5-0.5-1.2-0.3-1.9c-1.2,1.7-2.4,3-3.7,4.6
	l1.9,1.9l1.2-1c0.2,0.2,0.5,0.2,0.7,0.3l0.2,1.5h3l0.2-1.5c0.2,0,0.5-0.2,0.7-0.3l1.2,1l2.2-2.2l-1-1.2c0.2-0.2,0.2-0.5,0.3-0.7
	l1.5-0.2v-3l-1.5-0.2C42.8,50.1,42.7,49.9,42.7,49.6z M95.2,45.9l0.3-0.5l-0.7-0.7L94.3,45c0,0-0.2,0-0.3-0.2v-0.5h-1.2v0.5
	c-0.2,0-0.2,0-0.3,0.2l-0.5-0.3l-0.8,0.8l0.3,0.5c0,0,0,0.2-0.2,0.3h-0.5v1.2h0.5c0,0.2,0,0.2,0.2,0.3l-0.3,0.5l0.8,0.8l0.5-0.3
	c0,0,0.2,0,0.3,0.2v0.5H94v-0.5c0.2,0,0.2,0,0.3-0.2h0.5l0.8-0.8l-0.3-0.5c0,0,0-0.2,0.2-0.3H96v-1h-0.5C95.3,46,95.3,46,95.2,45.9z
	 M93.5,48.1c-0.7,0-1.4-0.7-1.4-1.4s0.7-1.4,1.4-1.4s1.4,0.7,1.4,1.4l0,0C94.8,47.6,94.1,48.1,93.5,48.1z M58.8,39.3h4.1v-1H51.3v1
	h4.1v10h-4.9v1h12.9v-1h-4.9v-10H58.8z M76.7,37.2h-3v12h-0.8v-12h-3v12h-3v1h13v-1.2h-3C76.7,49.1,76.7,37.2,76.7,37.2z M83,42.1v1
	h2.5l-2.2,7.1h12.2v-1H87l1.9-6.1H96v-1H83z M95.5,37.6h-12v1h12V37.6z M79.7,38.4h-2.2L77,47.9h2.2L79.7,38.4z M69.4,47.9l-0.3-9.7
	h-2.2l0.3,9.7H69.4z M82.6,57.5c-0.2,0.2-0.3,0.2-0.5,0.2c-0.3,0-0.5-0.2-0.7-0.3c-0.2-0.3-0.3-0.7-0.3-1s0-0.7,0.3-1
	c0.2-0.2,0.5-0.3,0.7-0.3c0.2,0,0.3,0,0.5,0.2s0.3,0.3,0.3,0.5l0.5-0.2c0-0.3-0.2-0.7-0.5-0.8c-0.3-0.2-0.7-0.3-1-0.3
	c-0.3,0-0.5,0-0.8,0.2s-0.5,0.3-0.5,0.7c-0.2,0.3-0.2,0.7-0.2,1c0,0.5,0.2,1,0.5,1.4s0.7,0.5,1.2,0.5c0.3,0,0.7-0.2,1-0.3
	c0.3-0.2,0.5-0.5,0.5-1h-0.5C83,57.2,82.8,57.4,82.6,57.5z M84,58.2h0.7v-4.9H84V58.2z M50.6,54H51v3.6h-0.3v0.7H52v-0.7h-0.3V54H52
	v-0.7h-1.4V54z M86.9,54.7c-0.3,0-0.8,0.2-1.2,0.3c-0.3,0.3-0.5,0.8-0.5,1.5c0,0.5,0.2,1,0.5,1.4s0.7,0.5,1.2,0.5
	c0.3,0,0.5,0,0.8-0.2s0.5-0.3,0.7-0.7c0.2-0.3,0.2-0.7,0.2-1c0-0.5-0.2-1-0.5-1.4C87.7,54.7,87.4,54.5,86.9,54.7L86.9,54.7z
	 M87.7,57.4c-0.3,0.3-1,0.5-1.4,0.2c0,0,0,0-0.2-0.2c-0.3-0.7-0.3-1.4,0-2c0.3-0.3,1-0.5,1.4-0.2c0,0,0,0,0.2,0.2
	c0.2,0.3,0.3,0.7,0.3,1S87.9,57.2,87.7,57.4L87.7,57.4z M55.7,55c-0.2-0.2-0.2-0.2-0.3-0.3c-0.2,0-0.3-0.2-0.5-0.2
	c-0.5,0-0.8,0.2-1.2,0.5v-0.3h-0.5v3.6h0.7v-1.9c0-0.3,0-0.7,0.3-0.8c0.2-0.2,0.3-0.2,0.7-0.2c0.2,0,0.3,0,0.3,0.2
	c0.2,0,0.2,0.2,0.2,0.3s0,0.3,0,0.5v2.2h0.5v-2.2c0-0.2,0-0.3,0-0.5C55.9,55.3,55.7,55.2,55.7,55z M62.8,56.5c0,0.2,0,0.5-0.2,0.7
	c0,0.2-0.2,0.3-0.3,0.3c-0.2,0.2-0.3,0.2-0.5,0.2c-0.2,0-0.3,0-0.5-0.2c-0.2-0.2-0.2-0.2-0.2-0.3s0-0.3,0-0.7v-1.9h-0.7v2.2
	c0,0.2,0,0.3,0,0.5s0.2,0.3,0.2,0.5c0.3,0.2,0.3,0.2,0.5,0.3c0.2,0,0.3,0.2,0.5,0.2c0.5,0,0.8-0.2,1.2-0.7v0.5h0.5v-3.6h-0.7
	L62.8,56.5z M91.6,56.5c0,0.2,0,0.5-0.2,0.7c0,0.2-0.2,0.3-0.3,0.3c-0.2,0.2-0.3,0.2-0.5,0.2s-0.3,0-0.5-0.2
	c-0.2-0.2-0.2-0.2-0.2-0.3s0-0.3,0-0.7v-1.9h-0.7v2.2c0,0.2,0,0.3,0,0.5s0.2,0.3,0.2,0.5c0.2,0.2,0.2,0.2,0.3,0.3
	c0.2,0,0.3,0.2,0.5,0.2c0.5,0,0.8-0.2,1.2-0.7v0.5h0.5v-3.6h-0.7L91.6,56.5z M72,58.2h0.7v-3.6H72V58.2z M95.3,55
	c-0.2-0.3-0.5-0.5-1-0.5c-0.3,0-0.5,0-0.8,0.2C93.3,54.8,93,55,93,55.3c-0.2,0.3-0.2,0.7-0.2,1s0,0.7,0.2,1s0.3,0.5,0.5,0.7
	c0.2,0.2,0.5,0.2,0.8,0.2s0.8-0.2,1-0.5v0.5h0.5v-4.9h-0.7V55H95.3z M95.2,57.4c-0.2,0.2-0.3,0.3-0.7,0.3s-0.5-0.2-0.7-0.3
	c-0.2-0.3-0.3-0.7-0.3-1s0-0.7,0.3-1c0.2-0.2,0.3-0.3,0.7-0.3s0.5,0.2,0.7,0.3c0.2,0.3,0.3,0.7,0.3,1C95.3,56.9,95.3,57.2,95.2,57.4
	L95.2,57.4z M70.6,54.7c-0.2,0.2-0.3,0.3-0.3,0.5v-0.5h-0.5v3.6h0.7v-1.9c0-0.2,0-0.5,0.2-0.7c0-0.2,0.2-0.2,0.2-0.3
	c0.2,0,0.2-0.2,0.3-0.2c0.2,0,0.3,0,0.5,0.2l0.2-0.5c-0.3-0.2-0.7-0.2-0.8-0.2C70.8,54.5,70.6,54.7,70.6,54.7L70.6,54.7z M76.2,56.7
	v-0.8c0-0.2,0-0.3,0-0.5S76,55,76,55c-0.2-0.2-0.3-0.2-0.3-0.3c-0.2,0-0.5-0.2-0.7-0.2c-0.3,0-0.5,0-0.8,0.2c-0.2,0-0.3,0.2-0.5,0.3
	s-0.2,0.3-0.3,0.7h0.5c0-0.2,0.2-0.3,0.3-0.5s0.3-0.2,0.7-0.2c0.2,0,0.5,0,0.7,0.2c0.2,0.2,0.2,0.3,0.2,0.5c0,0,0,0,0,0.2
	C75.3,56,75,56,74.7,56c-0.2,0-0.3,0-0.5,0.2c-0.2,0-0.3,0.2-0.5,0.2c-0.2,0.2-0.2,0.2-0.3,0.3c0,0.2-0.2,0.3-0.2,0.5
	c0,0.3,0.2,0.5,0.3,0.7c0.3,0.2,0.5,0.3,0.8,0.3c0.2,0,0.5,0,0.7-0.2c0.2-0.2,0.5-0.2,0.7-0.3c0,0.2,0,0.3,0.2,0.5h0.7
	c0-0.2-0.2-0.3-0.2-0.3C76.2,57.4,76.2,57,76.2,56.7L76.2,56.7z M75.7,56.7c0,0.2,0,0.3-0.2,0.7c0,0.2-0.2,0.3-0.3,0.3
	c-0.2,0.2-0.3,0.2-0.7,0.2c-0.2,0-0.3,0-0.5-0.2c-0.2-0.2-0.2-0.5-0.2-0.7s0.2-0.2,0.2-0.2c0.2,0,0.3-0.2,0.5-0.2
	c0.3,0,0.7-0.2,1-0.2L75.7,56.7z M72,54h0.7v-0.7H72V54z M68.7,57.7h-0.2c0,0,0,0-0.2-0.2c0-0.2,0-0.2,0-0.3v-2h0.7v-0.5h-0.7v-1.2
	l-0.7,0.3v0.8h-0.5v0.5h0.5v2c0,0.2,0,0.5,0,0.7s0.2,0.2,0.3,0.3c0.2,0,0.3,0.2,0.5,0.2s0.3,0,0.5,0l-0.2-0.5
	C68.9,57.7,68.9,57.7,68.7,57.7L68.7,57.7z M59.1,55c-0.2-0.2-0.2-0.3-0.3-0.3c-0.3,0-0.5,0-0.7,0c-0.3,0-0.5,0-0.8,0.2
	c-0.2,0.2-0.5,0.3-0.5,0.7c-0.2,0.3-0.2,0.7-0.2,1s0,0.7,0.2,1c0.2,0.3,0.3,0.5,0.5,0.7s0.5,0.2,0.8,0.2s0.8-0.2,1-0.5v0.5h0.5v-4.9
	h-0.7L59.1,55z M58.8,57.5c-0.2,0.2-0.3,0.3-0.7,0.3s-0.5-0.2-0.7-0.3c-0.2-0.3-0.3-0.7-0.3-1s0-0.7,0.3-1c0.2-0.2,0.3-0.3,0.7-0.3
	s0.5,0.2,0.7,0.3c0.2,0.3,0.3,0.7,0.3,1C59.1,56.9,58.9,57.2,58.8,57.5L58.8,57.5z M77.2,58.2h0.7v-4.9h-0.7V58.2z M66.5,56.4
	c-0.3-0.2-0.5-0.2-0.8-0.3c-0.3,0-0.5-0.2-0.5-0.2c-0.2,0-0.2-0.2-0.2-0.2v-0.2c0-0.2,0-0.2,0.2-0.3c0.2-0.2,0.3-0.2,0.5-0.2
	c0.2,0,0.3,0,0.5,0.2s0.2,0.3,0.2,0.3h0.5c0-0.2-0.2-0.3-0.2-0.5c-0.2-0.2-0.3-0.3-0.5-0.3s-0.5,0-0.7,0s-0.3,0-0.5,0
	s-0.3,0.2-0.3,0.2c-0.2,0.2-0.2,0.2-0.3,0.3c0,0.2-0.2,0.3-0.2,0.5c0,0.3,0.2,0.7,0.5,0.8s0.7,0.2,0.8,0.3c0.2,0,0.3,0.2,0.7,0.2
	c0.2,0,0.2,0.2,0.2,0.3s0,0.3-0.2,0.3c-0.2,0.2-0.3,0.2-0.7,0.2c-0.2,0-0.5,0-0.7-0.2c-0.2-0.2-0.3-0.3-0.3-0.5L64,57.4
	c0,0.3,0.2,0.7,0.5,0.8s0.7,0.3,1,0.3c0.3,0,0.5,0,0.7-0.2c0.2,0,0.3-0.2,0.5-0.3s0.2-0.3,0.2-0.5s0-0.3-0.2-0.5
	C66.9,56.5,66.7,56.4,66.5,56.4L66.5,56.4z M36.1,40.3C31,59.6,14.6,60.9,10.3,60.9c-0.2,0-0.3,0.2-0.3,0.3c0,0.2,0,0.2,0.2,0.2
	c-0.2,0.7,4.4,1.2,10.3-1.2c14.2-5.4,16.6-17.4,16.9-19.8c1.5-0.2,2.5-1.5,2.4-2.9c-0.2-1.5-1.5-2.5-2.9-2.4
	c-1.5,0.2-2.5,1.5-2.4,2.9C34.7,39.1,35.2,39.8,36.1,40.3L36.1,40.3z M37.3,36.6c0.7,0,1.4,0.5,1.4,1.4s-0.7,1.2-1.4,1.2
	c-0.7,0-1.4-0.5-1.4-1.4l0,0C35.9,37.1,36.6,36.6,37.3,36.6L37.3,36.6L37.3,36.6z M38.8,45.5c0.8,0,1.5-0.7,1.5-1.5
	s-0.7-1.5-1.5-1.5s-1.5,0.7-1.5,1.5c0,0.3,0.2,0.8,0.3,1c-2.7,5.6-6.9,10.3-12,13.7c-15.4,8.3-21,0-21,0l-0.5,0.8
	c0.7,1,6.1,7.3,19,2C34.2,56.7,38.3,46.7,38.8,45.5L38.8,45.5z"/>
</svg>
