<?xml version="1.0" encoding="utf-8"?>
<!-- Generator: Adobe Illustrator 22.1.0, SVG Export Plug-In . SVG Version: 6.00 Build 0)  -->
<svg version="1.1" id="Layer_1" xmlns="http://www.w3.org/2000/svg" xmlns:xlink="http://www.w3.org/1999/xlink" x="0px" y="0px"
	 viewBox="0 0 96 96" style="enable-background:new 0 0 96 96;" xml:space="preserve">
<g>
	<path d="M35.9,41.8c-2.2-0.1-4.4,0-6.7,0c-0.1,0-0.1,0-0.2,0l-0.3,1.8c0.1,0.2,0.4,0.4,1,0.8c0.1,0.1,0.3,0.2,0.5,0.3
		c-0.5,0.3-0.9,0.5-1.4,0.7c-0.4,0.2-0.5,0.4-0.6,0.9c-0.4,2.9-0.9,5.7-1.4,8.6h0.4c0.7-0.4,1.5-0.5,2.3-0.8
		c0.4-0.1,0.6-0.3,0.6-0.7c0.1-0.8,0.2-1.5,0.3-2.3c0-0.3,0-0.5,0.4-0.4c1.2,0.2,2.4,0.1,3.5,0.1c1.5-0.1,2.7-1.1,3-2.5
		c0.2-1.3,0.4-2.6,0.6-3.9C38.1,43,37.2,41.9,35.9,41.8z M34.9,44.6c-0.2,1.2-0.3,2.4-0.6,3.6c-0.1,0.5-0.4,0.8-1,0.8
		c-0.4,0-0.8,0-1.2,0v0h-0.4c-1.1,0-1.1,0-1-1.1c0.2-1.3,0.4-2.5,0.6-3.8c0.1-0.4,0.2-0.5,0.6-0.5c0.7,0,1.4,0,2.1,0
		C34.8,43.7,35,43.9,34.9,44.6z"/>
	<path d="M88.2,44.4c1.6,0,3.2,0,4.8,0v-2.3c-0.3-0.8-0.5-0.9-1.5-1c-1.6,0-3.2,0-4.8,0c-0.8,0-1.5-0.1-2.3,0
		c-0.9,0.3-1.3,0.8-1.3,1.7c0,2.1,0,4.1,0,6.2c0,1.3,0.7,2,2,2c1.9,0,3.8,0,5.7,0c0.9,0,1.7-0.2,2.2-1v-4.3c-1.7,0-3.3,0-5,0
		c-0.1,0-0.2,0-0.3,0c-0.4,0.2-0.8,1.1-0.7,1.9c0.1,0.6,0.5,1.1,1.1,1.2c0.9,0,1.9,0,2.8,0c0.3,0,0.6-0.1,0.6-0.5
		c0-0.4-0.2-0.5-0.6-0.5c-0.5,0-1.1,0-1.6,0c-0.4,0-0.6-0.2-0.7-0.6c0-0.4,0.2-0.7,0.6-0.7c0.7,0,1.4,0,2,0c0.5,0,0.9,0.3,1.1,0.8
		c0.3,0.6,0.3,1.3,0,1.9c-0.2,0.6-0.6,0.9-1.3,0.9c-0.9,0-1.9,0-2.8,0c-0.8,0-1.4-0.3-1.9-1c-0.9-1.2-0.8-2.9,0.1-4
		C86.9,44.7,87.5,44.3,88.2,44.4z M86.5,42.1c1.8,0,3.7,0,5.5,0c0.6,0,0.4,0.4,0.4,0.8c0,0.3,0.1,0.6-0.5,0.6c-0.9,0-1.9,0-2.8,0
		c-0.9,0-1.8,0-2.7,0c-0.5,0-0.5-0.3-0.5-0.7C86,42.5,85.9,42.1,86.5,42.1z M85.5,45.7c-0.5,0.1-1,0-1.4,0c-0.3,0-0.4-0.4-0.4-0.7
		c0-0.4,0.2-0.6,0.6-0.6c0.7,0,1.5,0,2.3,0c-0.3,0.3-0.4,0.5-0.6,0.7C85.8,45.2,85.8,45.7,85.5,45.7z"/>
	<path d="M48,41.8c-0.7,0-1.4,0-2,0c-0.4,0-0.5,0.1-0.6,0.5c-0.2,1.6-0.5,3.1-0.7,4.7c-0.1,0.6,0,1.5-0.4,1.9
		c-0.5,0.4-1.3,0.1-2,0.1c0,0,0,0-0.1,0c-0.5,0-0.8-0.3-0.8-0.8c0.1-0.5,0.1-1,0.2-1.4c0.2-1.4,0.4-2.8,0.7-4.3
		c0.1-0.5-0.1-0.7-0.6-0.6c-0.6,0-1.2,0-1.8,0c-0.4,0-0.6,0.1-0.6,0.5c-0.3,1.9-0.6,3.8-0.9,5.6c-0.3,1.7,0.7,2.8,2.4,2.8
		c0.9,0,1.8,0,2.7,0c0.9,0,1.8,0,2.7,0c0.5,0,0.8-0.1,0.8-0.7c0.4-2.6,0.8-5.3,1.2-7.9C48.5,41.9,48.4,41.8,48,41.8z"/>
	<path d="M14.8,41.8c-0.9,0-1.9,0-2.8,0c-1,0-2,0-3.1,0c-0.3,0-0.4,0-0.5,0.3c-0.4,2.8-0.9,5.5-1.3,8.3c-0.1,0.3,0,0.4,0.3,0.4
		c0.7,0,1.4,0,2.2,0c0.3,0,0.4-0.1,0.5-0.4c0.3-1.8,0.6-3.7,0.9-5.5c0.2-1.3,0.2-1.3,1.4-1.3c0.3,0,0.6,0,0.8,0c0.7,0,1,0.3,0.8,1.1
		c-0.3,1.9-0.6,3.8-0.9,5.6c-0.1,0.4,0,0.5,0.4,0.5c0.5,0,1,0,1.5,0c0.9,0,0.9,0,1.1-0.9c0.1-0.3,0.1-0.7,0.2-1
		c0.2-1.5,0.5-3,0.7-4.5C17.3,42.9,16.3,41.8,14.8,41.8z"/>
	<path d="M24.4,45.4c-0.9,0-1.7,0-2.6,0c-0.7,0-1-0.5-0.7-1.1c0.2-0.4,0.6-0.6,1-0.6c1.3,0,2.7,0,4,0c0.2,0,0.4,0,0.6,0v0l0.8,0
		l0.3-1.8h-0.5c-0.1,0-0.1,0-0.2,0c-2,0-3.9,0-5.9,0c-1.4,0-2.7,1-3,2.3c-0.5,1.7,0.5,3,2.3,3c0.9,0,1.9,0,2.8,0
		c0.3,0,0.6,0.1,0.8,0.5c0.1,0.3,0,0.6-0.2,0.9c-0.2,0.3-0.6,0.4-0.9,0.4c-1.3,0-2.6,0-3.9,0c-1.4,0-1.4,0-1.5,1.4
		c0,0.4,0.1,0.4,0.4,0.4c1,0,2.1,0,3.1,0c1,0,2,0,3,0c1.3,0,2.2-0.6,2.8-1.8C27.6,47.1,26.5,45.3,24.4,45.4z"/>
	<path d="M68.8,46.6c-1-0.1-2-0.2-2.6,0.8c-0.2,0.3-0.4,0.2-0.6-0.1c-0.4-0.4-0.7-0.9-1.3-0.7c-0.2,0-0.5,0.1-0.5-0.1
		c0-0.3,0.3-0.2,0.5-0.2c1.1,0,2.2,0,3.2,0c1,0,1.3-0.3,1.3-1.3c0-0.7,0-1.4,0-2.2c0-0.6-0.3-0.9-1-0.9c-0.4,0-0.8,0-1.1,0
		c-0.2,0-0.4,0-0.4-0.3c0-0.3-0.2-0.3-0.3-0.3c-0.4,0-0.8,0-1.1,0c-0.1,0-0.3,0-0.3,0.1c0,0.5-0.3,0.4-0.6,0.4c-0.5,0-0.9,0-1.4,0
		c-0.4,0-0.5,0.1-0.5,0.5c0,2.1,0,4.3,0,6.4c0,2.1,0,2,2.1,2.1c0.7,0,1-0.2,1.1-0.9c-0.3,0-0.6,0-0.9,0c-0.3,0-0.5-0.1-0.5-0.5
		c0-0.7,0-1.4,0-2.1c0.2,0,0.3,0.1,0.3,0.2c0.9,1,1.8,1.9,2.7,2.8c0.1,0.1,0.3,0.3,0.5,0.3c0.7,0,1.4,0,2.2,0
		c-0.9-0.8-1.7-1.5-2.5-2.2C67.7,48,68.3,47.4,68.8,46.6z M63.8,44.8c0-0.3,0.1-0.4,0.4-0.4c0.4,0,0.9,0,1.3,0
		c0.7,0.1,0.9-0.2,1-0.9c-0.8,0-1.6,0-2.3,0c-0.3,0-0.4-0.1-0.4-0.4c0-0.4,0.1-0.4,0.5-0.4c0.7,0,1.5,0,2.2,0c0.4,0,0.6,0.1,0.6,0.5
		c0,0.5,0,1.1,0,1.6c0,0.4-0.2,0.5-0.5,0.5c-0.8,0-1.6,0-2.3,0C63.8,45.3,63.8,45.1,63.8,44.8z"/>
	<path d="M52.2,41.9c-1.5,0.1-2.7,1.2-2.9,2.6c-0.3,2-0.6,3.9-0.9,5.9c-0.1,0.3,0,0.5,0.3,0.5c0.7,0,1.4,0,2.1,0
		c0.4,0,0.5-0.1,0.5-0.5c0.3-1.9,0.6-3.7,0.9-5.6c0.1-0.8,0.5-1.1,1.3-1.1c0.5,0,1,0,1.5,0c0.2,0,0.4,0,0.5-0.2c0.3-0.5,0.6-1,1-1.6
		C54.9,41.8,53.6,41.8,52.2,41.9z"/>
	<path d="M7,41.8c-0.8,0-1.6,0-2.4,0c-0.1,0-0.1,0-0.2,0l-0.2,1.7c0.1,0.2,0.4,0.5,0.8,0.7c0.2,0.1,0.3,0.2,0.6,0.4
		c-0.6,0.3-1.1,0.6-1.6,0.8c-0.2,0.1-0.3,0.2-0.4,0.5C3.5,47.5,3.3,49,3,50.5c-0.1,0.4,0.1,0.4,0.4,0.4c0.7,0,1.4-0.1,2,0
		c0.5,0,0.6-0.2,0.6-0.6c0.2-1.3,0.4-2.5,0.6-3.8c0.2-1.4,0.4-2.8,0.7-4.1C7.3,42.1,7.5,41.8,7,41.8z"/>
	<path d="M80.8,42.7c0-0.6-0.3-0.9-0.9-0.9c-0.7,0-1.3,0-2,0c-0.4,0-0.5,0-0.5,0.5c0,0.4,0.2,0.5,0.5,0.4c0.2,0,0.4,0,0.6,0
		c0.1,0,0.1,0,0.2,0c0,0,0,0,0,0h0.7c0.1,0,0.2,0.1,0.2,0.2v1.2c0,0.1-0.1,0.2-0.2,0.2h-0.7c-0.1,0-0.2-0.1-0.2-0.2v-0.9
		c-0.1-0.3-0.4-0.1-0.7-0.2c-0.3,0-0.5,0-0.5,0.4c0,2.3-0.1,4.7-0.1,7c0,0.1-0.1,0.3,0.1,0.3c0.3,0.1,1.1-0.4,1.1-0.7
		c0-0.4,0-0.8,0-1.1c0,0,0,0,0-0.1c0,0,0,0,0,0v-1.2c0-0.1,0.1-0.2,0.2-0.2h0.7c0.1,0,0.2,0.1,0.2,0.2v2c0,0.1-0.1,0.2-0.2,0.3
		c0,0,0,0,0,0c0,0-0.1,0-0.2,0c0,0,0,0-0.1,0C79,50,79,50.1,79,50.2v0.3c0,0.1,0,0.2,0.2,0.3c0.8,0.4,1.6-0.2,1.7-1.1
		c0-1.1,0-2.3,0-3.4C80.8,45.1,80.8,43.9,80.8,42.7z M79.6,46.4c0,0.1-0.1,0.2-0.2,0.2h-0.7c-0.1,0-0.2-0.1-0.2-0.2v-1.2
		c0-0.1,0.1-0.2,0.2-0.2h0.7c0.1,0,0.2,0.1,0.2,0.2V46.4z"/>
	<path d="M59.1,48.8c0,0-0.1,0.1-0.1,0.1v1.9c0.6-0.4,1-0.8,1.5-1.1c1.2-0.7,0.9-1.8,0.9-3C60.7,47.4,60,48.2,59.1,48.8z"/>
	<path d="M72.7,46.6c-0.7,0.9-1.5,1.6-2.3,2.2c0,0,0,0-0.1,0v1.9c0.8-0.6,1.5-1.2,2.2-1.8c0.1-0.1,0.1-0.3,0.1-0.4
		C72.7,47.9,72.7,47.3,72.7,46.6z"/>
	<path d="M59.2,45c0.7,0.4,1.4,0.8,2.3,1.2c0-0.4,0-0.8,0-1.2c0-0.2-0.1-0.4-0.3-0.5c-0.6-0.3-1.3-0.7-1.9-1.1
		c-0.1,0-0.2-0.1-0.3-0.1v1.4C59.1,44.9,59.1,45,59.2,45z"/>
	<path d="M72.5,44.6c-0.7-0.4-1.4-0.9-2.2-1.2V45c0,0,0,0,0.1,0c0.7,0.4,1.5,0.8,2.3,1.2c0-0.4,0-0.7,0-1
		C72.7,45.1,72.8,44.8,72.5,44.6z"/>
	<path d="M71.5,41.9c-0.3-0.1-0.7-0.3-1-0.5c-0.1,0-0.1-0.1-0.2-0.1v1.5c0,0,0,0,0,0c0.8,0.4,1.5,0.8,2.3,1.2l0.1,0.1v-1.6l-0.5-0.3
		C72,42.1,71.8,42,71.5,41.9z"/>
	<path d="M61.5,44.2c0-0.4,0-0.7,0-0.9c0-0.2,0.1-0.5-0.1-0.7c-0.7-0.5-1.4-0.9-2.3-1.2v1.5c0,0,0.1,0,0.1,0.1
		C59.9,43.2,60.6,43.7,61.5,44.2z"/>
	<path d="M76.6,48.4h-1v-0.7c0-0.1,0.1-0.2,0.2-0.2h0.8c0.2-0.1,0.3-0.3,0.2-0.6c0-0.8,0-1.7,0-2.5c0-0.6-0.2-1-0.9-1
		c-0.3,0-0.3-0.1-0.3-0.3c0-0.2,0.1-0.3,0.3-0.3c0.1,0,0.2,0,0.3,0c0.3,0,0.7,0.1,0.6-0.5c0-0.6-0.3-0.4-0.6-0.4
		c-0.2,0-0.5,0.1-0.6-0.2v-0.2c0-0.1-0.1-0.2-0.2-0.2h-0.8c-0.1,0-0.1,0-0.2,0.1c0,0,0,0,0,0c0,0.8-0.6,0.5-1,0.5
		c-0.3,0-0.3,0.3-0.3,0.5c0,0.2-0.1,0.5,0.3,0.5c0.2,0,0.4,0,0.6,0c0.2,0,0.4,0,0.4,0.3c0,0.3-0.2,0.3-0.4,0.3c-0.1,0-0.3,0-0.4,0
		c-0.3,0-0.4,0-0.4,0.3c0,1.2,0,2.4,0,3.6c0,0.2,0.1,0.3,0.2,0.3h0.8c0.1,0,0.2,0.1,0.2,0.2v0.1c0,0,0,0,0,0v0.3c0,0,0,0,0,0v0.1h-1
		c-0.1,0-0.3,0.1-0.3,0.3v0.4c0,0.1,0.1,0.3,0.3,0.3h1V50c0,0.1,0,0.2,0,0.3v0.5c0.3-0.1,0.6-0.2,0.8-0.3c0.2-0.1,0.3-0.2,0.4-0.3
		v-0.9h1c0.1,0,0.3-0.1,0.3-0.3v-0.4C76.9,48.5,76.8,48.4,76.6,48.4z M75.1,46.7c-0.3,0-0.6,0.1-0.6-0.4c0-0.6,0.4-0.4,0.7-0.5
		c0.3,0,0.6,0,0.6,0.4C75.7,46.9,75.3,46.7,75.1,46.7z M75,45.1c-0.3,0-0.6,0-0.6-0.5c0-0.6,0.4-0.3,0.6-0.4c0.4,0,0.6-0.1,0.6,0.4
		C75.7,45.2,75.3,45.1,75,45.1z"/>
</g>
</svg>
