<?xml version="1.0" encoding="UTF-8"?>
<svg width="74px" height="74px" viewBox="0 0 74 74" version="1.1" xmlns="http://www.w3.org/2000/svg" xmlns:xlink="http://www.w3.org/1999/xlink">
    <!-- Generator: Sketch 63.1 (92452) - https://sketch.com -->
    <title>Intel-v</title>
    <desc>Created with Sketch.</desc>
    <g id="Intel-v" stroke="none" stroke-width="1" fill="none" fill-rule="evenodd">
        <path d="M28.19772,44.7188309 C21.8750127,45.3000297 15.2831284,44.3856621 14.3618099,39.4679818 C13.9124396,37.043547 15.0244983,34.4719271 16.4925299,32.8769543 L16.4925299,32.0236612 C13.8431825,34.336638 12.4058148,37.2652189 13.233892,40.7246152 C14.2898185,45.1633411 19.9471031,47.6766079 28.5790442,46.8406146 C31.9963913,46.5101672 36.4670086,45.4154142 39.5748667,43.7168753 L39.5748667,41.3071746 C36.7536072,42.9804828 32.0856481,44.3617921 28.19772,44.7188309 L28.19772,44.7188309 Z M44.8587959,31.9665521 C43.3588506,24.6775808 29.136304,24.2157707 19.9737825,29.7677547 L19.9737825,30.3808319 C29.1270072,25.6992855 42.112223,25.7258768 43.2949841,32.4376147 C43.6895112,34.6603988 42.4335869,36.97322 40.1895478,38.3055065 L40.1895478,40.0452152 C42.8895196,39.0605206 45.6627719,35.8692145 44.8587959,31.9665521 L44.8587959,31.9665521 Z M39.062958,39.9788535 C37.82426,39.8594648 37.4055535,39.1136643 37.4055535,38.249758 L37.4055535,30.9050382 L39.062958,30.9050382 L39.062958,39.9815749 L39.062958,39.9788535 Z M19.3231643,40.116864 C18.0830992,40.0000799 17.6618145,39.2529188 17.6618145,38.3852026 L17.6618145,33.5881162 L19.32043,33.5881162 L19.32043,40.12219 L19.3231643,40.116864 Z M17.6631817,32.692448 L19.3190628,32.692448 L19.3190628,31.1265935 L17.6631817,31.1265935 L17.6631817,32.692448 Z M29.2510293,40.0412498 C27.9124105,40.0412498 27.3417133,39.1136643 27.3417133,38.1954091 L27.3417133,31.825937 L28.9843134,31.825937 L28.9843134,33.5867555 L30.2216442,33.5867555 L30.2216442,34.9085454 L28.9829462,34.9085454 L28.9829462,38.0931648 C28.9829462,38.4701082 29.1629834,38.6770849 29.5550105,38.6770849 L30.2216442,38.6770849 L30.2216442,40.0398891 L29.2510293,40.0398891 L29.2510293,40.0412498 Z M32.2749821,37.3249328 C32.2749821,38.1595264 32.798961,38.7779297 33.7335606,38.7779297 C34.4589827,38.7779297 34.8203071,38.5788448 35.2416308,38.1595264 L36.2576358,39.1268822 C35.6082285,39.7651512 34.9229622,40.1527078 33.7216857,40.1527078 C32.1483428,40.1527078 30.6417179,39.2994147 30.6417179,36.8087738 C30.6417179,34.6789038 31.9550245,33.4752586 33.6828971,33.4752586 C35.4362772,33.4752586 36.4495869,34.8859194 36.4495869,36.7331208 L36.4495869,37.3209674 L32.2749821,37.3209674 L32.2749821,37.3249328 Z M33.6122728,34.830171 C33.0496615,34.830171 32.6149785,35.1168828 32.4323242,35.5070052 C32.3299815,35.7275108 32.2762711,35.9672991 32.2749821,36.2102751 L34.8056588,36.2102751 C34.774956,35.5070052 34.4549984,34.830171 33.6122728,34.830171 L33.6122728,34.830171 Z M22.4270772,34.9071847 L22.4270772,40.051863 L20.78311,40.051863 L20.78311,33.5855115 L24.1790901,33.5881162 C25.619036,33.5881162 26.1111012,34.601929 26.1111012,35.5202231 L26.1111012,40.051863 L24.4711183,40.051863 L24.4711183,35.5294756 C24.4711183,35.1433186 24.2724485,34.9071847 23.787063,34.9071847 L22.4270772,34.9071847 Z" id="Fill-1" fill="#000000"></path>
        <path d="M54.756,43.484 C55.764,42.938 56.632,42.252 57.36,41.44 C58.032,42.28 58.858,42.966 59.852,43.47 L60.51,42.308 C59.6,41.846 58.83,41.188 58.186,40.348 C59.026,39.06 59.586,37.478 59.894,35.63 L59.894,34.496 L54.784,34.496 L54.784,32.634 C56.772,32.55 58.564,32.27 60.188,31.794 L59.544,30.604 C57.78,31.164 55.792,31.458 53.566,31.5 L53.566,36.932 C53.51,39.256 53.146,41.09 52.446,42.406 L53.356,43.372 C54.252,41.776 54.728,39.62 54.784,36.932 L54.784,35.756 L55.106,35.756 C55.386,37.548 55.876,39.06 56.59,40.306 C55.918,41.09 55.106,41.762 54.126,42.308 L54.756,43.484 Z M52.376,43.386 L52.376,37.24 L49.688,37.24 C49.702,36.876 49.716,36.498 49.716,36.106 L49.716,35.574 L52.866,35.574 L52.866,34.272 L52.194,34.272 L52.194,30.674 L50.892,30.674 L50.892,34.272 L49.716,34.272 L49.716,30.954 L48.414,30.954 L48.414,36.106 C48.4,38.962 48.092,41.034 47.504,42.35 L48.512,43.218 C49.072,42.126 49.45,40.558 49.618,38.514 L51.074,38.514 L51.074,43.386 L52.376,43.386 Z M57.416,39.13 C56.912,38.178 56.548,37.044 56.296,35.756 L58.62,35.756 C58.396,37.016 57.99,38.136 57.416,39.13 Z" id="版" fill="#000000" fill-rule="nonzero"></path>
    </g>
</svg>