<?xml version="1.0" encoding="utf-8"?>
<!-- Generator: Adobe Illustrator 22.1.0, SVG Export Plug-In . SVG Version: 6.00 Build 0)  -->
<svg version="1.1" id="Layer_1" xmlns="http://www.w3.org/2000/svg" xmlns:xlink="http://www.w3.org/1999/xlink" x="0px" y="0px"
	 viewBox="0 0 96 96" style="enable-background:new 0 0 96 96;" xml:space="preserve">
<path d="M59.2,21c2.6-3.4,4.6-8.1,3.9-13c-4.3,0.3-9.3,3-12.2,6.6c-2.7,3.2-4.9,8-4,12.7C51.5,27.4,56.4,24.6,59.2,21L59.2,21z
	 M82.3,66.7c-1.9,4.2-2.8,6-5.2,9.7c-3.4,5.1-8.1,11.5-14,11.6c-5.2,0.1-6.6-3.4-13.7-3.4c-7.1,0-8.6,3.4-13.8,3.4
	c-5.9-0.1-10.4-5.8-13.7-11c-9.4-14.4-10.4-31.2-4.6-40.2c4.1-6.4,10.6-10.1,16.8-10.1c6.2,0,10.1,3.4,15.3,3.4c5,0,8-3.4,15.2-3.4
	c5.5,0,11.2,3,15.3,8.1C66.5,42.3,68.7,61.5,82.3,66.7L82.3,66.7L82.3,66.7L82.3,66.7z"/>
</svg>
