<?xml version="1.0" encoding="utf-8"?>
<!-- Generator: Adobe Illustrator 22.1.0, SVG Export Plug-In . SVG Version: 6.00 Build 0)  -->
<svg version="1.1" id="Layer_1" xmlns="http://www.w3.org/2000/svg" xmlns:xlink="http://www.w3.org/1999/xlink" x="0px" y="0px"
	 viewBox="0 0 96 96" style="enable-background:new 0 0 96 96;" xml:space="preserve">
<g>
	<path d="M81.1,16.6c-0.7-4.9-4.9-8.5-9.9-8.5H24.7c-5,0-9.2,3.6-9.9,8.5L8.1,62.9v15c0,5.5,4.5,10,10,10h59.8c5.5,0,10-4.5,10-10
		v-15L81.1,16.6z M19.7,17.3c0.4-2.4,2.5-4.3,4.9-4.3h46.6c2.5,0,4.6,1.8,4.9,4.3l6.6,45.6H13.1L19.7,17.3z M82.8,77.9
		c0,2.8-2.2,5-5,5H18c-2.7,0-5-2.2-5-5v-10h69.8V77.9z"/>
	<polygon points="72.1,77.9 75.4,77.9 75.4,72.9 72.1,72.9 70.4,72.9 60.4,72.9 60.4,77.9 70.4,77.9 	"/>
	<polygon points="34.5,77.9 35.5,77.9 35.5,72.9 34.5,72.9 30.5,72.9 20.5,72.9 20.5,77.9 30.5,77.9 	"/>
	<polygon points="53.5,77.9 55.4,77.9 55.4,72.9 53.5,72.9 50.4,72.9 40.5,72.9 40.5,77.9 50.4,77.9 	"/>
	<path d="M47.6,31.5c0.2,0.3,0.7,0.3,0.9,0l5.8-7.1c0.3-0.5-0.1-1.2-0.9-1.2h-3l-0.1-5.8c0-0.8-0.8-1.4-1.8-1.4h-0.9
		c-1,0-1.8,0.6-1.8,1.4l-0.1,5.8h-3c-0.7,0-1.2,0.6-0.9,1.2L47.6,31.5z"/>
	<path d="M48.4,38.6c-0.2-0.3-0.7-0.3-0.9,0L40.9,47c-0.4,0.7,0,1.5,0.9,1.5h3.5l-0.1,8.4c0,1.2,1,2.3,2.2,2.3h1.1
		c1.3,0,2.3-1,2.2-2.3l-0.1-8.4h3.5c0.8,0,1.3-0.9,0.9-1.5L48.4,38.6z"/>
	<path d="M72,34.5c-0.1-1-1.1-1.7-2.2-1.7H62L61.8,30c-0.1-0.6-0.9-1-1.5-0.7L52,34.6c-0.3,0.2-0.3,0.6,0,0.8l9.2,5.7
		c0.7,0.4,1.6-0.1,1.5-0.8l-0.2-3h7.9c1.1,0,1.9-0.8,1.8-1.8L72,34.5z"/>
	<path d="M44,34.6l-8.3-5.3c-0.6-0.3-1.5,0.1-1.5,0.7L34,32.8h-7.7c-1.1,0-2.1,0.8-2.2,1.7l-0.1,0.9c-0.1,1,0.7,1.8,1.8,1.8h7.9
		l-0.2,3c-0.1,0.7,0.8,1.2,1.5,0.8l9.2-5.7C44.4,35.2,44.4,34.8,44,34.6z"/>
</g>
</svg>
