<?xml version="1.0" encoding="utf-8"?>
<!-- Generator: Adobe Illustrator 22.1.0, SVG Export Plug-In . SVG Version: 6.00 Build 0)  -->
<svg version="1.1" id="图层_1" xmlns="http://www.w3.org/2000/svg" xmlns:xlink="http://www.w3.org/1999/xlink" x="0px" y="0px"
	 viewBox="0 0 96 96" style="enable-background:new 0 0 96 96;" xml:space="preserve">
<style type="text/css">
	.st0{fill:#040000;}
</style>
<g id="Layer_1">
	<g>
		<path class="st0" d="M49.6,64.5c2.9,0,5.3-2.4,5.3-5.3V39.2c0-2.9-2.4-5.3-5.3-5.3h-7.2c-1.3,0-2.3,1-2.3,2.3v26
			c0,1.3,1,2.3,2.3,2.3H49.6z M45.3,39.2c0,0,1.9,0,3.2,0c0.7,0,1.2,0.6,1.2,1.2V58c0,0.7-0.6,1.2-1.2,1.2h-3.2V39.2z"/>
		<path class="st0" d="M72.2,60.9l-5.7-11.7l5.7-11.7c0.8-1.7-0.4-3.6-2.3-3.6c-1,0-1.9,0.6-2.3,1.5l-4.2,9v-7.9
			c0-1.5-1.2-2.7-2.7-2.7s-2.6,1.2-2.6,2.7v25.4c0,1.5,1.2,2.7,2.7,2.7s2.7-1.2,2.7-2.7v-7.9l4.2,9c0.4,0.9,1.3,1.5,2.3,1.5
			C71.8,64.5,73,62.6,72.2,60.9z"/>
		<path class="st0" d="M31.4,41.5c0,1.5,1.2,2.7,2.7,2.7l0,0c1.5,0,2.7-1.2,2.7-2.7v-0.7v-1.6v-0.1c-0.1-1.5-0.6-2.7-1.5-3.6
			c-0.9-0.9-2.1-1.5-3.6-1.6h-0.1l0,0h-4.5l0,0h-0.1c-1.4,0.1-2.6,0.6-3.5,1.5c-0.9,0.9-1.5,2.1-1.6,3.5v7c0,0.4,0.1,0.7,0.2,0.9
			c0.1,0.3,0.3,0.6,0.4,0.7c0.2,0.2,0.4,0.4,0.6,0.6l8.5,5.9v4.3c0,0.3-0.1,0.6-0.3,0.7c-0.2,0.2-0.5,0.3-0.7,0.3h-2.2
			c-0.3,0-0.6-0.1-0.7-0.3c-0.2-0.2-0.3-0.4-0.3-0.7v-1.5c0-1.5-1.2-2.6-2.7-2.6s-2.7,1.2-2.7,2.7v2.4v0.1c0,1.5,0.6,2.7,1.5,3.6
			c0.9,0.9,2.1,1.5,3.6,1.6c0,0,0,0,0.1,0l0,0h4.5l0,0c0,0,0,0,0.1,0c1.4-0.1,2.6-0.6,3.5-1.5c0.9-0.9,1.5-2.1,1.6-3.5v-7
			c0-0.4-0.1-0.7-0.2-0.9c-0.1-0.3-0.3-0.5-0.4-0.7c-0.2-0.2-0.3-0.4-0.4-0.5c-0.1-0.1-0.2-0.2-0.2-0.2l-8.5-5.9v-4.3
			c0-0.3,0.1-0.6,0.3-0.7c0.2-0.2,0.5-0.3,0.7-0.3h2.2c0.3,0,0.5,0.1,0.7,0.3c0.2,0.2,0.3,0.4,0.4,0.7v0.7
			C31.4,40.8,31.4,41.5,31.4,41.5z"/>
		<path class="st0" d="M53.7,68.2c-4.5,0-8.2,2.8-9.7,6.7H27c-5.9,0-10.9-4.8-10.9-10.9V31.9c0-5.9,4.8-10.9,10.9-10.9h0.2
			c-0.4-1.2-0.6-2.4-0.6-3.7s0.2-2.5,0.5-3.7H27c-10.1,0-18.3,8.2-18.3,18.3v32c0,10.1,8.2,18.3,18.3,18.3h17.1
			c1.5,3.9,5.3,6.7,9.7,6.7c5.8,0,10.4-4.6,10.4-10.4C64,72.9,59.4,68.2,53.7,68.2z M53.7,81.6c-1.7,0-3-1.3-3-3s1.3-3,3-3
			s3,1.3,3,3S55.4,81.6,53.7,81.6z"/>
		<path class="st0" d="M68.1,13.6h-17c-1.5-3.9-5.3-6.7-9.7-6.7c-5.8,0-10.4,4.6-10.4,10.4s4.6,10.4,10.4,10.4
			c4.4,0,8.2-2.8,9.7-6.6h17C74.1,21.2,79,26,79,32v32.1C79,70.1,74.2,75,68.1,75H68c0.3,1.2,0.5,2.4,0.5,3.6c0,1.3-0.2,2.5-0.5,3.7
			h0.1c10.1,0,18.3-8.2,18.3-18.3V31.9C86.4,21.9,78.2,13.6,68.1,13.6z M41.5,20.3c-1.7,0-3-1.3-3-3c0-1.7,1.3-3,3-3s3,1.3,3,3
			C44.4,19,43.1,20.3,41.5,20.3z"/>
	</g>
</g>
<g id="图层_2_1_">
</g>
</svg>
