<?xml version="1.0" encoding="utf-8"?>
<!-- Generator: Adobe Illustrator 21.0.0, SVG Export Plug-In . SVG Version: 6.00 Build 0)  -->
<svg version="1.1" id="Layer_1" xmlns="http://www.w3.org/2000/svg" xmlns:xlink="http://www.w3.org/1999/xlink" x="0px" y="0px"
	 viewBox="0 0 96 96" style="enable-background:new 0 0 96 96;" xml:space="preserve">
<g>
	<path d="M47.6,1.8c-25.4,0-46,20.6-46,46s20.6,46,46,46s46-20.6,46-46S73,1.8,47.6,1.8z M47.6,85.8c-21,0-38-17-38-38s17-38,38-38
		s38,17,38,38S68.6,85.8,47.6,85.8z"/>
	<ellipse transform="matrix(0.1768 -0.9842 0.9842 0.1768 19.4455 98.0651)" cx="68.3" cy="37.4" rx="3.6" ry="3.6"/>
	<path d="M68.9,42.1c-1.7,0-3,1.3-3,3v14.2l-16.5,9.5V56.1c0-1.7-1.3-3-3-3s-3,1.3-3,3v12.1l-15.6-9.4V40.2l9.3,6
		c0.5,0.3,1.1,0.5,1.6,0.5c1,0,2-0.5,2.5-1.4c0.9-1.4,0.5-3.2-0.9-4.1l-9.1-5.8l15.5-8.9l13.9,8.8c1.4,0.9,3.3,0.5,4.1-0.9
		c0.9-1.4,0.5-3.3-0.9-4.1l-15.4-9.7c-0.9-0.6-2.1-0.6-3.1-0.1l-20.8,12c-0.4,0.1-0.7,0.3-1,0.6L23.3,33c-0.9,0.5-1.5,1.5-1.5,2.6
		v23.6c0,0.2,0,0.4,0.1,0.7c-0.3,1.2,0.2,2.5,1.4,3.2l22,13.3c0.5,0.3,1,0.4,1.6,0.4c0.5,0,1-0.1,1.5-0.4l22-12.7
		c0.9-0.5,1.5-1.5,1.5-2.6v-16C71.9,43.5,70.6,42.1,68.9,42.1z"/>
	<path d="M59.9,38.8l-7.6,4.4c-1.4,0.8-1.9,2.7-1.1,4.1c0.6,1,1.6,1.5,2.6,1.5c0.5,0,1-0.1,1.5-0.4l7.6-4.4c1.4-0.8,1.9-2.7,1.1-4.1
		C63.1,38.5,61.3,38,59.9,38.8z"/>
	<ellipse transform="matrix(0.1768 -0.9842 0.9842 0.1768 -9.3928 85.48)" cx="46.4" cy="48.4" rx="3.6" ry="3.6"/>
</g>
</svg>
