<?xml version="1.0" encoding="utf-8"?>
<!-- Generator: Adobe Illustrator 22.1.0, SVG Export Plug-In . SVG Version: 6.00 Build 0)  -->
<svg version="1.1" id="Layer_1" xmlns="http://www.w3.org/2000/svg" xmlns:xlink="http://www.w3.org/1999/xlink" x="0px" y="0px"
	 viewBox="0 0 96 96" style="enable-background:new 0 0 96 96;" xml:space="preserve">
<g>
	<path d="M40.3,50.6l-1.8,1.6c0,0,5.3,4.9,19.1,0.8l-5.2-1.3C44.6,53.4,41,51.1,40.3,50.6z"/>
	<path d="M57.2,45.4c0,0-6.4,1.5-15.1,1.3c-3.7-0.1-2.4-2.6-2.4-2.6c-0.9,0.5-3.8,3,0.4,4.2c6.7,1.7,18.4-1,18.4-1
		C58.5,47.1,57.2,45.4,57.2,45.4z"/>
	<path d="M39.9,42.7c9.7,0.3,20.5-2.8,20.5-2.8s-16.8,1.3-18.1,1.3c-9.2-0.2-0.6-3.3-0.6-3.3S26.9,41.4,39.9,42.7z"/>
	<path d="M66.4,39.6c0.8,1.2,0.7,2.6-0.1,3.7c-0.9,1.2-2,2.2-3.1,3.1c-0.7,0.7-1.7,1.1-2.7,1.8c2.7-0.2,6.6-2.3,7.9-4.3
		c1.8-2.5,0.8-5.7-2.2-6.4c-2.1-0.2-3.8,0.2-3.8,0.2s-0.5,0.3-0.7,0.5C62.2,38.2,65.6,38.3,66.4,39.6z"/>
	<path d="M48.4,37.5c0.1-0.1,0.2-0.2,0.3-0.2c-1-1.6-2-3.1-3-4.6c-2.1-3.2-1.9-5.9,0.7-8.7c1.2-1.2,2.5-2.2,3.7-3.3
		c2.6-2.2,4.9-4.6,5.7-8.1c0.5-2,0.2-4-1.3-5.6c0.8,3.6-0.4,6.6-2.9,9.1c-0.9,0.9-2,1.6-2.9,2.5c-2.2,2-4.5,3.9-6.5,6
		c-1.3,1.2-1.2,2.9-0.6,4.6C42.9,32.8,45.9,35,48.4,37.5z"/>
	<path d="M49.9,24.8c-1.8,2.6-1.4,5.3,1,8.4c2,2.5,2,3.1,0.4,5.7c0,0.1,0,0.2,0.1,0.7c1.2-1.3,2.4-2.2,3.2-3.4c1-1.5,1-3.1-0.1-4.6
		c-0.5-0.7-1-1.4-1.5-2.2c-1.2-1.9-1.2-3.2,0.2-4.9c0.9-1,2-2,3.1-2.8c1.5-1.1,3.1-2.1,4.9-3.3c-0.5,0-0.7,0-0.8-0.1
		c-2.4,1.1-4.9,2.1-7.2,3.4C51.9,22.4,50.7,23.6,49.9,24.8z"/>
	<path d="M52,81.1C51.9,81,51.8,81,51.7,81c-0.7-2.3-1.4-4.7-2.1-7c-0.8-2.7-0.8-2.7-3.6-2.6c0,0,0,0-0.2,0.1
		c1.2,3.8,2.4,7.5,3.3,11.3c0.4,1.4,1,2,2.4,1.7c0.1,0,0.3,0,0.4,0c0.9,0.1,1.4-0.2,1.7-1.1c0.5-1.5,1.2-3,1.7-4.6
		c0.7-2.4,1.2-4.8,1.9-7.3c-1.1,0-2,0-2.8,0C53.6,74.7,52.8,77.9,52,81.1z"/>
	<path d="M69.4,58.4C47.2,64.8,36,61.7,36,61.7s4.8,4,16.7,1.7C57.1,62.6,65,60.3,69.4,58.4z"/>
	<path d="M65.7,71.4c-2.3-0.6-4.5,0-6.8,0.8c0.2,0.6,0.3,1.1,0.4,1.6c1.3-0.2,2.4-0.4,3.6-0.5c2.3-0.1,3,0.6,2.8,2.9
		c-1.9,0.4-3.6,0.7-5.3,1.4c-1.7,0.6-2.5,2.6-2.1,4.5c0.3,1.7,1.6,2.8,3.6,2.6c1.5-0.1,2.8-0.6,4.2-1c0.2,1.6,1.4,0.6,2.3,0.8
		c0-3.4,0.1-6.7,0-10C68.4,72.8,67.3,71.8,65.7,71.4z M65.7,79.5c0,2-0.4,2.4-2.3,2.9c-1.1,0.3-2.1-0.2-2.4-1.3
		c-0.3-1,0.3-2.1,1.3-2.4c1.1-0.2,2.1-0.3,3.4-0.5C65.7,78.9,65.7,79.2,65.7,79.5z"/>
	<path d="M59.5,59.2c6.2-0.8,7.8-3.2,6.8-4.1c-0.1,1.7-11.4,3.5-15.8,3.6c-4.6,0.2-9.3-0.2-13.9-0.4c-6.5-0.2-1.8-3-0.1-3.7
		c-2.5-0.4-8.8,0.8-8.7,3.2C27.8,58.6,26.1,62.6,59.5,59.2z"/>
	<path d="M44.2,74.4c-0.1-2.1-1.1-3.1-3.1-3.2c-1.7-0.1-3.4,0.1-5,0.4c-1.6,0.4-1.5,0.5-0.9,2.2c0.6-0.1,1.2-0.3,1.8-0.4
		c0.6-0.1,1.2-0.2,1.8-0.2c2.3,0,3,0.8,2.7,3.2c-0.6,0-1.2,0-1.7,0.1c-1.4,0.4-2.8,0.6-4,1.2c-1.6,0.8-2.1,2.8-1.6,4.5
		c0.5,1.5,1.7,2.3,3.5,2.4c1.5,0,2.7-0.4,3.9-1.3c0,0,0.2,0,0.3,0c0.2,0.4,0.3,0.7,0.4,1c0.7,0,1.3,0,2,0c0-0.3,0.1-0.7,0-1
		C44.3,80.3,44.4,77.4,44.2,74.4z M39.1,82.4c-1.1,0.3-1.9-0.3-2.2-1.3c-0.3-1,0.2-2.1,1.3-2.4c1-0.3,2.2-0.3,3.3-0.5
		C41.9,81.4,41.7,81.9,39.1,82.4z"/>
	<path d="M29.3,66.8c0,0.6,0,1.1,0,1.5c0,4.4-0.1,8.7,0,13.1c0.1,2.5-0.2,4.8-2.8,6c0.5,0.7,1,1.2,1.4,1.7c3.4-1.7,4.4-3.2,4.4-6.7
		c0-4.9,0-9.7,0-14.6c0-0.4-0.1-0.7-0.1-1C31.2,66.8,30.3,66.8,29.3,66.8z"/>
</g>
</svg>
