<?xml version="1.0" encoding="utf-8"?>
<!-- Generator: Adobe Illustrator 21.0.0, SVG Export Plug-In . SVG Version: 6.00 Build 0)  -->
<svg version="1.1" id="Layer_1" xmlns="http://www.w3.org/2000/svg" xmlns:xlink="http://www.w3.org/1999/xlink" x="0px" y="0px"
	 viewBox="0 0 96 96" style="enable-background:new 0 0 96 96;" xml:space="preserve">
<g>
	<path d="M82.6,15.1c-0.7-4.9-4.9-8.5-9.9-8.5H26.2c-5,0-9.2,3.6-9.9,8.5L9.6,61.4v15c0,5.5,4.5,10,10,10c0,0,0,0,0,0h59.8
		c5.5,0,10-4.5,10-10v-15L82.6,15.1z M21.2,15.8c0.4-2.4,2.5-4.3,4.9-4.3h46.6c2.5,0,4.6,1.8,4.9,4.3l6.6,45.6H14.6L21.2,15.8z
		 M84.3,76.4L84.3,76.4c0,2.8-2.2,5-5,5H19.5c-2.7,0-5-2.2-5-5v-10h69.8V76.4z"/>
	<path d="M71.3,25.5L65,19.2c-0.2-0.2-0.5-0.2-0.7,0c-0.1,0.1-0.1,0.2-0.1,0.3v3.8h-7.5c-0.8,0-1.6,0.4-2.1,1.1l-5.4,8.1l-5.4-8.1
		c-0.5-0.7-1.2-1.1-2.1-1.1h-7.5v-3.8c0-0.3-0.2-0.5-0.5-0.5c-0.1,0-0.3,0.1-0.3,0.1l-6.3,6.3c-0.2,0.2-0.2,0.5,0,0.7c0,0,0,0,0,0
		l6.3,6.3c0.2,0.2,0.5,0.2,0.7,0c0.1-0.1,0.1-0.2,0.1-0.3v-3.8h6.1l5.8,8.7l-5.8,8.7h-8.6c-1.4,0-2.5,1.1-2.5,2.5
		c0,1.4,1.1,2.5,2.5,2.5h10c0.8,0,1.6-0.4,2.1-1.1l5.4-8.1l5.4,8.1c0.5,0.7,1.2,1.1,2.1,1.1h10c1.4,0,2.5-1.1,2.5-2.5
		c0-1.4-1.1-2.5-2.5-2.5c0,0,0,0,0,0H58L52.2,37l5.8-8.7h6.1v3.8c0,0.3,0.2,0.5,0.5,0.5c0.1,0,0.3-0.1,0.4-0.2l0,0l6.3-6.2
		C71.5,26,71.5,25.7,71.3,25.5C71.3,25.5,71.3,25.5,71.3,25.5z"/>
	<rect x="71.9" y="71.4" width="5" height="5"/>
	<rect x="61.9" y="71.4" width="5" height="5"/>
	<rect x="32" y="71.4" width="5" height="5"/>
	<rect x="22" y="71.4" width="5" height="5"/>
	<rect x="51.9" y="71.4" width="5" height="5"/>
	<rect x="42" y="71.4" width="5" height="5"/>
</g>
</svg>
