<?xml version="1.0" encoding="utf-8"?>
<!-- Generator: Adobe Illustrator 21.0.0, SVG Export Plug-In . SVG Version: 6.00 Build 0)  -->
<svg version="1.1" id="Layer_1" xmlns="http://www.w3.org/2000/svg" xmlns:xlink="http://www.w3.org/1999/xlink" x="0px" y="0px"
	 viewBox="0 0 96 96" style="enable-background:new 0 0 96 96;" xml:space="preserve">
<path d="M56.9,51.1l-6,6c-0.8,0.8-2.1,0.8-2.9,0l-9-9c-0.8-0.8-0.8-2.1,0-2.9l4-4c0.8-0.8,0.8-2.1,0-2.9l-0.5-0.5
	c-0.8-0.8-2.1-0.8-2.9,0l-4,4c-0.8,0.8-2.1,0.8-2.9,0l-4-4c-0.8-0.8-2.1-0.8-2.9,0l-7,7c-7.8,7.7-9,19.9-2.9,28.9
	c0.5,0.8,0.4,1.8-0.2,2.5l-8.8,9.2c-0.8,0.8-0.8,2.1,0,2.9l0.6,0.6c0.8,0.8,2.1,0.8,2.9,0l8.6-8.6c0.7-0.7,1.9-0.8,2.7-0.2
	c3.7,2.7,8.1,3.8,12.5,3.8c5.9,0,11.9-2.5,16.3-6.9l7-7c0.8-0.8,0.8-2.1,0-2.9l-3.5-3.5c-0.8-0.8-0.8-2.1,0-2.9l4.6-4.6
	c0.8-0.8,0.8-2,0.1-2.9L56.9,51.1L56.9,51.1z M47,72.9c-3.5,3.5-7.9,5.4-12.4,5.4c-4.4,0-8.9-1.5-11.8-4.9c0,0-0.1-0.1-0.1-0.1
	l-0.5-0.5c-6.4-6.4-6.4-17.3,0.5-24.3l3-3c0.8-0.8,2.1-0.8,2.9,0L50,67c0.8,0.8,0.8,2.1,0,2.9L47,72.9L47,72.9z M89.2,7.5L88.6,7
	c-0.8-0.8-2.1-0.8-2.9,0l-8.1,7.8c-0.7,0.7-1.8,0.8-2.7,0.2c-3.7-2.7-8.1-3.9-12.5-3.9c-5.9,0-11.9,2.5-16.3,6.9l-6.9,6.5
	c-0.8,0.8-0.9,2.1,0,3l29.2,29.2c0.8,0.8,2.1,0.8,2.9,0l6.5-6.5c7.8-7.7,9-19.8,3-28.8c-0.6-0.8-0.4-1.9,0.3-2.6l8.2-8.2
	C90,9.7,90,8.4,89.2,7.5z M73.8,46.2l-2.5,2.5c-0.8,0.8-2.1,0.8-2.9,0L47,27.3c-0.8-0.8-0.8-2.1,0-2.9l2.5-2.5
	c3.5-3.5,7.9-5.4,12.4-5.4c4.4,0,8.9,1.5,11.8,4.9c0,0,0.1,0.1,0.1,0.1l0.5,0.5C81.2,28.3,80.7,39.2,73.8,46.2z"/>
</svg>
