<?xml version="1.0" encoding="utf-8"?>
<!-- Generator: Adobe Illustrator 22.1.0, SVG Export Plug-In . SVG Version: 6.00 Build 0)  -->
<svg version="1.1" id="Layer_1" xmlns="http://www.w3.org/2000/svg" xmlns:xlink="http://www.w3.org/1999/xlink" x="0px" y="0px"
	 viewBox="0 0 96 96" style="enable-background:new 0 0 96 96;" xml:space="preserve">
<g>
	<rect x="71.9" y="71.4" width="5" height="5"/>
	<rect x="61.9" y="71.4" width="5" height="5"/>
	<rect x="32" y="71.4" width="5" height="5"/>
	<rect x="22" y="71.4" width="5" height="5"/>
	<rect x="51.9" y="71.4" width="5" height="5"/>
	<rect x="42" y="71.4" width="5" height="5"/>
	<path d="M71.9,34.9c0.4-0.6,0.6-1.3,0.6-2c0-1.3-0.7-2.6-1.9-3.4c-3.4-2-7-3.6-10.7-4.6C56,23.8,52,23.3,48,23.3s-8,0.5-11.8,1.5
		c-3.8,1.1-7.4,2.6-10.7,4.6c-1.9,1.1-2.5,3.6-1.4,5.5c1.1,1.9,3.6,2.5,5.5,1.4c2.7-1.6,5.6-2.8,8.7-3.7c3.1-0.9,6.4-1.3,9.7-1.3
		c3.3,0,6.5,0.4,9.7,1.3c3,0.8,6,2.1,8.7,3.7C68.3,37.4,70.8,36.8,71.9,34.9z"/>
	<path d="M18.8,24.3c8.6-5.9,18.7-9,29.2-9s20.6,3.1,29.2,9c1.9,1.2,4.4,0.7,5.6-1.1c0.5-0.6,0.7-1.4,0.7-2.2c0-1.3-0.6-2.6-1.8-3.3
		C71.8,10.9,60.1,7.3,48,7.3c-12.1,0-23.7,3.6-33.7,10.3c-1.9,1.3-2.3,3.8-1.1,5.6C14.5,25.1,17,25.5,18.8,24.3z"/>
	<path d="M48,39.3c-3.8,0-7.4,0.7-10.8,2.2c-2,0.8-3,3.2-2.1,5.2c0.8,2,3.2,3,5.2,2.1c2.5-1.1,5.1-1.6,7.8-1.6
		c2.6,0,5.2,0.6,7.7,1.6c2,0.9,4.3-0.1,5.2-2.1c0.2-0.5,0.3-1,0.3-1.5c0-1.6-0.9-3.1-2.5-3.7C55.4,40,51.8,39.3,48,39.3z"/>
	<path d="M85.4,34.2c-0.2-1.2-1.3-2.2-2.5-2.2h0c-1.6,0-2.7,1.4-2.5,2.9l3.8,26.5H14.6l3.8-26.6c0.2-1.5-0.9-2.8-2.4-2.8
		c-1.2,0-2.3,0.9-2.4,2.1L9.6,61.4v15c0,5.5,4.5,10,10,10h59.8c5.5,0,10-4.5,10-10v-15L85.4,34.2z M84.3,76.4c0,2.8-2.2,5-5,5H19.5
		c-2.7,0-5-2.2-5-5v-10h69.8V76.4z"/>
</g>
</svg>
