<?xml version="1.0" encoding="utf-8"?>
<!-- Generator: Adobe Illustrator 21.0.0, SVG Export Plug-In . SVG Version: 6.00 Build 0)  -->
<svg version="1.0" id="Layer_1" xmlns="http://www.w3.org/2000/svg" xmlns:xlink="http://www.w3.org/1999/xlink" x="0px" y="0px"
	 viewBox="0 0 96 96" style="enable-background:new 0 0 96 96;" xml:space="preserve">
<style type="text/css">
	.st0{fill:#040000;}
</style>
<g>
	<path class="st0" d="M84.1,8.8c-0.8-0.8-1.8-1.2-2.8-1.2l-15.4,0H15.9c-2.2,0-4,1.8-4,4v50.2c0,1.3,0.6,2.5,1.6,3.2l34.4,25.1
		c0.7,0.5,1.5,0.8,2.4,0.8c0.9,0,1.8-0.3,2.5-0.9l31-25.1c0.9-0.8,1.5-1.9,1.5-3.1V11.6C85.2,10.5,84.8,9.5,84.1,8.8z M77.2,59.9
		l-27.1,22L19.9,59.8V15.6h45.9h0l11.4,0V59.9z"/>
	<path class="st0" d="M25.8,25v29c0,1.3,0.6,2.5,1.6,3.2l19.9,14.5c0.7,0.5,1.5,0.8,2.4,0.8c0.9,0,1.8-0.3,2.5-0.9l17.9-14.5
		c0.9-0.8,1.5-1.9,1.5-3.1V25c0-1.1-0.4-2.1-1.2-2.8c-0.8-0.8-1.8-1.2-2.8-1.2l-37.8,0C27.6,21,25.8,22.8,25.8,25z M33.8,29l29.8,0
		v23.1l-14,11.4L33.8,52.1V29z"/>
	<path class="st0" d="M51.5,53.4L59.7,41c0.6-0.9,0.7-2.1,0.1-3.1c-0.5-1-1.5-1.6-2.6-1.6H40.8c-1.1,0-2.1,0.6-2.6,1.6
		s-0.5,2.2,0.1,3.1l8.2,12.4c0.6,0.8,1.5,1.3,2.5,1.3S50.9,54.2,51.5,53.4z M46.4,42.3h5.3l-2.6,4L46.4,42.3z"/>
</g>
</svg>
