<?xml version="1.0" encoding="utf-8"?>
<!-- Generator: Adobe Illustrator 21.0.0, SVG Export Plug-In . SVG Version: 6.00 Build 0)  -->
<svg version="1.1" id="Layer_1" xmlns="http://www.w3.org/2000/svg" xmlns:xlink="http://www.w3.org/1999/xlink" x="0px" y="0px"
	 viewBox="0 0 96 96" style="enable-background:new 0 0 96 96;" xml:space="preserve">
<g>
	<path d="M75.1,23.3c2.3,0,4-1.9,4-4.2c0-2.3-1.7-4.1-4-4.2c-2.3,0-4,1.9-4,4.2C71.1,21.5,72.9,23.3,75.1,23.3z"/>
	<path d="M75.1,50.6c-2.2,0-4,1.8-4,4.1h0c0,2.3,1.8,4.1,4,4.1c2.2,0,4-1.8,4-4.1c0-1.1-0.4-2.1-1.1-2.9
		C77.2,51,76.2,50.6,75.1,50.6z"/>
	<path d="M15,31.9H81c7,0,12.7-5.7,12.7-12.7c0-7-5.7-12.7-12.7-12.7H15c-7,0-12.7,5.7-12.7,12.7C2.3,26.2,8,31.9,15,31.9z
		 M14.9,12.5h66.7c2.4-0.1,4.7,1.2,6,3.3c1.2,2.1,1.2,4.7,0,6.8c-1.2,2.1-3.5,3.4-6,3.3H14.9c-3.6-0.1-6.5-3.1-6.5-6.7
		C8.4,15.6,11.2,12.6,14.9,12.5z"/>
	<path d="M80.8,41.3H15.2c-7.1,0-12.9,5.8-12.9,12.9c0,7.1,5.8,12.9,12.9,12.9h29.6v15.1H17.7c-1.7,0-3,1.4-3,3c0,1.7,1.4,3,3,3
		h60.5c1.7,0,3-1.4,3-3c0-1.7-1.4-3-3-3H50.8V67.1h29.9c7.1,0,12.9-5.8,12.9-12.9C93.7,47.1,87.9,41.3,80.8,41.3z M87.3,57.6
		c-1.2,2.1-3.5,3.4-5.9,3.4l-66.3,0c-2.5,0-4.7-1.3-5.9-3.4c-1.2-2.1-1.2-4.7,0-6.9c1.2-2.1,3.5-3.4,5.9-3.4h66.3l0,0
		c2.5,0,4.7,1.3,5.9,3.4C88.6,52.9,88.6,55.5,87.3,57.6z"/>
</g>
</svg>
