<?xml version="1.0" encoding="utf-8"?>
<!-- Generator: Adobe Illustrator 21.0.0, SVG Export Plug-In . SVG Version: 6.00 Build 0)  -->
<svg version="1.0" id="Layer_1" xmlns="http://www.w3.org/2000/svg" xmlns:xlink="http://www.w3.org/1999/xlink" x="0px" y="0px"
	 viewBox="0 0 96 96" style="enable-background:new 0 0 96 96;" xml:space="preserve">
<style type="text/css">
	.st0{fill:#0B0C0C;}
</style>
<g>
	<path class="st0" d="M48,7.7c-12.6,0-23.8,5.8-31.2,14.8l0,0c0,0-0.1,0.2-0.3,0.4C11,29.8,7.7,38.5,7.7,48
		c0,20.7,15.8,37.9,35.9,40c0,0,0.1,0.1,0.1,0.1l0.1-0.1c1.4,0.1,2.7,0.2,4.1,0.2c22.2,0,40.3-18.1,40.3-40.3S70.2,7.7,48,7.7z
		 M48,9.1c1.5,0,3,0.1,4.5,0.3c-1,0.2-2,0.5-2.7,0.7C41.2,13,38,17.5,34.4,22.7C34,23.3,33.5,24,33,24.6c-0.4-0.2-0.8-0.3-1.2-0.3
		c-1.4,0-2.5,1.1-2.5,2.5c0,0.3,0.1,0.6,0.2,0.9c-1.7,1.2-3.5,2.3-4.6,2.1c-0.5-0.1-0.8-0.3-1.2-0.8c-2.7-3.9,3.2-12.1,5.8-15
		C35,10.8,41.3,9.1,48,9.1z M32.9,26.7c0,0.6-0.5,1.1-1.1,1.1c-0.4,0-0.8-0.2-0.9-0.6c-0.1-0.2-0.1-0.3-0.1-0.5
		c0-0.6,0.5-1.1,1.1-1.1S32.9,26.1,32.9,26.7z M9.3,51.7c1.9,1.3,6,3.3,14.6,4.9c2.4,0.4,3.9,1.2,4.5,2.4c1.2,2.2-0.3,5.8-2,9.7
		c-1.4,3.2-2.8,6.5-2.8,9.5C15.7,71.8,10.3,62.4,9.3,51.7z M25,79.3c-0.4-3,1.2-6.6,2.7-10.1c1.8-4.1,3.4-8,1.9-10.9
		c-0.9-1.6-2.7-2.6-5.5-3.1C13.5,53.3,10,50.6,9.2,49.9c0-0.6,0-1.2,0-1.9c0-6.2,1.5-12.1,4.1-17.3c-0.2,1.3-0.3,2.7,0,4.1
		c0.6,2.9,2.5,5.3,5.7,7c1.6,0.9,3.4,1.7,5.8,2.6c0,0.1,0,0.3,0,0.4c0,1.4,1.1,2.5,2.5,2.5c0.9,0,1.7-0.5,2.1-1.2
		c6,2.2,11.5,4.3,13.2,8.3c0.9,2.2,0.7,4.8-0.7,8c-0.9,2.1-2,3.9-3,5.6c-3.5,6-6.3,10.9,2.7,18.3C35.4,85.3,29.8,82.8,25,79.3z
		 M26.1,44.8c0-0.6,0.5-1.1,1.1-1.1s1.1,0.5,1.1,1.1s-0.5,1.1-1.1,1.1S26.1,45.4,26.1,44.8z M48,86.9c-1.3,0-2.5-0.1-3.8-0.2
		c-10.3-7.6-7.9-11.8-4.2-18c1-1.7,2.1-3.6,3-5.8c1.6-3.6,1.8-6.5,0.7-9.1c-2-4.6-7.8-6.8-14.1-9.1c0-1.3-1.1-2.4-2.5-2.4
		c-0.7,0-1.4,0.3-1.8,0.8c-2.4-0.9-4.2-1.7-5.8-2.6c-2.8-1.5-4.5-3.6-5-6.1c-1-4.6,2.2-9.5,3.1-10.8c2.4-3,5.3-5.7,8.5-7.9
		c-2.7,3.7-6.2,10-3.6,13.8c0.6,0.8,1.3,1.3,2.1,1.4c0.2,0,0.3,0,0.5,0c1.5,0,3.2-0.9,5.2-2.4c0.4,0.3,0.9,0.5,1.4,0.5
		c1.4,0,2.5-1.1,2.5-2.5c0-0.4-0.1-0.8-0.3-1.1c0.5-0.7,1-1.4,1.5-2.1c3.5-5,6.5-9.3,14.7-12.1c1.9-0.7,5.4-1.2,6.2-1.4
		c2,0.4,4,1.1,5.9,1.8c0.7,0.9,4.6,5.9,3.9,10.9c-0.4,2.7-2.1,5.1-5,7c-8.3,5.4-11.8,9.1-12.1,12.7c-0.2,2.3,1,4.5,3.6,6.8
		c3.5,3,9,3.9,14.4,4.7c8,1.2,15.5,2.4,16.2,10.3C77.1,77.6,63.6,86.9,48,86.9z M86.4,53.9c-0.4,2.8-1.2,5.5-2.1,8
		c-1.9-7-9.5-8.2-16.9-9.3c-5.2-0.8-10.5-1.6-13.7-4.4c-2.2-2-3.3-3.8-3.1-5.6c0.3-3.9,6-8.1,11.5-11.6c3.3-2.1,5.2-4.8,5.6-8
		c0.5-4-1.3-7.8-2.8-10.1c3.6,1.7,6.8,3.9,9.7,6.6c-0.3,1.9-2,10.5-5.8,15.7c-0.4-0.2-0.8-0.3-1.2-0.3c-1.4,0-2.5,1.1-2.5,2.5
		c0,0.5,0.1,0.9,0.4,1.2c-4.9,4.5-4.8,7.3-3.9,8.9c1.9,3.2,9.1,3.5,16.7,0.6c2.6-1,4.7-1,6.1,0C86.5,49.7,86.4,53.5,86.4,53.9z
		 M68.5,37.4c0,0.6-0.5,1.1-1.1,1.1s-1.1-0.5-1.1-1.1s0.5-1.1,1.1-1.1S68.5,36.7,68.5,37.4z M85,47c-1.8-1.3-4.3-1.3-7.4-0.2
		c-7.3,2.8-13.7,2.2-15.1,0c-0.9-1.6,0.4-4.2,3.7-7.2c0.3,0.2,0.7,0.3,1.1,0.3c1.4,0,2.5-1.1,2.5-2.5c0-0.4-0.1-0.8-0.3-1.1
		c3.7-4.8,5.4-12.5,6-15.6c6.9,7,11.2,16.7,11.2,27.3c0,0.4,0,0.8,0,1.2C86.4,48.4,85.9,47.6,85,47z"/>
	<path class="st0" d="M70.2,64.3c-0.1,0-0.2,0-0.3,0C69.6,63,68.3,62,66.8,62c-1.6,0-3,1.3-3.1,2.9c-4.5,0.2-6.9,0.9-8.1,4.4
		c-1.2,3.6,1.4,6.8,3.8,7.7c0.5,0.2,1,0.3,1.5,0.3c1.1,0,2-0.5,2.4-1.5c0.4-1,1-1,2.7-0.8c1.5,0.2,3.7,0.5,5.3-1.6
		c0.7-0.9,3.9-5.7,2.5-8C73.2,64.3,72,64,70.2,64.3z M66.8,63.3c1,0,1.8,0.8,1.8,1.8c0,1-0.8,1.8-1.8,1.8c-1,0-1.8-0.8-1.8-1.8
		C65.1,64.1,65.9,63.3,66.8,63.3z M70.2,72.5c-1.2,1.4-2.6,1.2-4,1c-1.5-0.2-3.3-0.5-4.2,1.6c-0.4,1-1.5,0.7-2.1,0.5
		c-1.9-0.7-3.9-3.2-3-6c0.9-2.7,2.7-3.3,7-3.5c0.4,1.2,1.6,2.1,3,2.1c1.5,0,2.8-1.1,3.1-2.5c0.2,0,0.3,0,0.5-0.1
		c0.7-0.1,1.9-0.2,2.2,0.3C73.3,67.1,71.6,70.5,70.2,72.5z"/>
	<path class="st0" d="M51.3,62.2c2.1-7.4-1.1-10.9-4.8-14.9c-2-2.2-4.4-4.7-6.1-8.3c-1-1.9-1.1-3.8-0.3-5.6
		c2.4-5.7,12.3-9.3,13.4-9.7c0.4,0.3,1,0.6,1.6,0.6c1.4,0,2.5-1.1,2.5-2.5c0-1.4-1.1-2.5-2.5-2.5c-1.4,0-2.5,1.1-2.5,2.5
		c0,0.3,0,0.5,0.1,0.7c-2.2,0.8-11.4,4.4-13.8,10.4c-0.9,2.2-0.8,4.5,0.3,6.8c1.9,3.7,4.2,6.3,6.4,8.6c3.8,4.1,6.5,7,4.4,13.8
		c-1.2,0.2-2.1,1.2-2.1,2.4c0,1.4,1.1,2.5,2.5,2.5c1.4,0,2.5-1.1,2.5-2.5C52.8,63.4,52.2,62.5,51.3,62.2z M55,20.7
		c0.6,0,1.1,0.5,1.1,1.1c0,0.6-0.5,1.1-1.1,1.1s-1.1-0.5-1.1-1.1C53.9,21.2,54.4,20.7,55,20.7z M50.3,65.5c-0.6,0-1.1-0.5-1.1-1.1
		s0.5-1.1,1.1-1.1c0.6,0,1.1,0.5,1.1,1.1S50.9,65.5,50.3,65.5z"/>
</g>
</svg>
