<?xml version="1.0" encoding="utf-8"?>
<!-- Generator: Adobe Illustrator 22.1.0, SVG Export Plug-In . SVG Version: 6.00 Build 0)  -->
<svg version="1.1" id="Layer_1" xmlns="http://www.w3.org/2000/svg" xmlns:xlink="http://www.w3.org/1999/xlink" x="0px" y="0px"
	 viewBox="0 0 96 96" style="enable-background:new 0 0 96 96;" xml:space="preserve">
<style type="text/css">
	.st0{fill:#040000;}
</style>
<g>
	<polygon class="st0" points="31.1,12.4 32.8,9.5 33.4,8.5 27.6,14.4 	"/>
	<polygon class="st0" points="41.1,8.6 43.4,4.7 36.4,11.9 39.9,10.5 	"/>
	<path class="st0" d="M32.7,13.5C32.7,13.5,32.7,13.5,32.7,13.5c-0.1,0-0.1,0-0.1,0l-0.7-0.1l-2,8.1l10-5.3l-5.8-2.4L32.7,13.5z"/>
	<polygon class="st0" points="32.3,12.4 32.4,12.4 32.5,12.1 	"/>
	<polygon class="st0" points="40.5,15.3 39.9,11.7 35.7,13.3 	"/>
	<polygon class="st0" points="31.1,49.3 35.5,38.5 32.6,38.3 27.1,38.1 30,46.4 	"/>
	<polygon class="st0" points="30.5,22.3 43.2,26.5 40.8,16.9 	"/>
	<polygon class="st0" points="37,31.4 36.9,36.3 42.3,28.7 	"/>
	<polygon class="st0" points="31.4,51.4 29.7,60 46,56.4 	"/>
	<polygon class="st0" points="28.5,60.3 29.9,53.8 30.2,52.1 18.2,62.6 21.4,61.9 	"/>
	<polygon class="st0" points="28.9,21.4 30.7,13.9 25.1,17.4 	"/>
	<polygon class="st0" points="46.7,63.8 47.2,58.8 47.3,57.2 32.4,60.5 31.5,60.7 45.1,63.5 	"/>
	<polygon class="st0" points="28,37.1 33.2,37.3 35.8,37.5 36,32 32.7,34.1 	"/>
	<polygon class="st0" points="24.7,18.5 26.4,33.8 26.4,34.1 28.6,22.6 24.7,18.5 	"/>
	<polygon class="st0" points="22.3,48.9 17.6,61.8 30,51 	"/>
	<path class="st0" d="M22.1,47.8L22.1,47.8C22.1,47.8,22.1,47.8,22.1,47.8l7.4,2l0.8,0.2L29,46.6l-3-8.2l-10.8,8.4L22.1,47.8z"/>
	<polygon class="st0" points="31.9,50 46.6,46.4 36.5,38.8 	"/>
	<polygon class="st0" points="58.1,85.9 64.7,84.3 63,78.7 	"/>
	<polygon class="st0" points="64.9,85.3 58.8,86.8 65.3,90.5 	"/>
	<path class="st0" d="M55,69.1l5,3.6c0,0,0.1,0.1,0.1,0.1l3,3.8l5.6-9.3L55,69.1z"/>
	<polygon class="st0" points="72.9,76.9 63.9,77.9 65.6,83.7 	"/>
	<polygon class="st0" points="79.5,49.3 83.3,50 85,43.9 	"/>
	<polygon class="st0" points="75.2,47.7 71.1,53.4 77.6,49.6 	"/>
	<polygon class="st0" points="68.9,54.4 69.1,54.5 73.4,48.5 65,53 	"/>
	<polygon class="st0" points="45.6,64.6 31.7,61.8 40.5,67.3 	"/>
	<polygon class="st0" points="42.6,27.4 30.7,23.5 36.6,30.4 	"/>
	<polygon class="st0" points="47.3,51.3 47.3,47.3 32.9,50.8 47.4,55.8 	"/>
	<polygon class="st0" points="29.5,23.6 27,36.5 35.7,30.9 29.5,23.6 	"/>
	<polygon class="st0" points="15.6,63.8 12.8,62.3 10,60.9 11.6,70.6 14.1,66.4 	"/>
	<path class="st0" d="M14,74.8l-1.5-1.1l1.8,4.4c0.1,0.2,0,0.4-0.1,0.5l-2.1,2.6l5.7-3.5L14,74.8z"/>
	<polygon class="st0" points="16.1,65 12,72 17.4,76 18,76.5 	"/>
	<polygon class="st0" points="15.3,47.9 14.6,47.8 16.6,61.5 21.3,48.7 	"/>
	<polygon class="st0" points="28.8,62.1 24.4,69.7 30.8,70.9 30.7,70.5 	"/>
	<polygon class="st0" points="49.8,81 47.4,79.6 49.8,83.9 	"/>
	<polygon class="st0" points="45.8,79 39.3,85.1 49.4,85.3 	"/>
	<polygon class="st0" points="39.4,67.8 35.8,65.6 29.8,61.8 31.9,70.8 	"/>
	<polygon class="st0" points="46.7,78 50.1,80 52.5,71 	"/>
	<polygon class="st0" points="54,69.7 51.3,79.3 58.8,73.2 	"/>
	<polygon class="st0" points="10.6,83.3 10.7,83.3 16.8,87.7 18.1,78.6 	"/>
	<polygon class="st0" points="28,61.5 20.7,63.1 17.5,63.9 23.4,69.3 25.2,66.3 	"/>
	<polygon class="st0" points="17.1,65 19.1,76.2 22.9,70.2 	"/>
	<polygon class="st0" points="89.9,38.1 86.7,42.2 90.4,46.8 92,35.4 	"/>
	<polygon class="st0" points="86.2,43.3 84.5,49.8 89.9,47.8 	"/>
	<polygon class="st0" points="9.8,83.9 6.4,88.1 15.6,88.1 	"/>
	<polygon class="st0" points="82.7,44.8 85.3,42.2 84.7,41.5 82.1,38.1 79.6,47.8 	"/>
	<polygon class="st0" points="89,37.5 91.3,34.6 82.7,37.3 86,41.4 	"/>
	<polygon class="st0" points="64.2,76.9 73.6,75.8 69.7,67.7 	"/>
	<polygon class="st0" points="57.2,87.1 54.4,91.3 64.7,91.3 	"/>
	<polygon class="st0" points="75.8,46.9 78.2,48.7 80.5,39.9 	"/>
	<polygon class="st0" points="40.8,11 41.3,14 44.2,5.5 42.2,8.7 	"/>
	<polygon class="st0" points="15.8,24 25.6,35.9 24.5,26.2 23.7,26 	"/>
	<polygon class="st0" points="55.8,62.1 58.6,61.6 48.4,57.3 47.7,63.8 	"/>
	<polygon class="st0" points="58.8,62.6 48.4,64.7 53.6,68.1 	"/>
	<polygon class="st0" points="49.6,56.7 60,61.1 62.9,53.9 55,55.5 	"/>
	<polygon class="st0" points="48.4,55.9 62,53 48.3,47.4 48.4,55.8 	"/>
	<polygon class="st0" points="62.7,63.6 60.4,62.4 55,68.1 68.1,66.4 	"/>
	<polygon class="st0" points="61.5,60.2 68.2,55.2 64,53.8 62.5,57.6 	"/>
	<polygon class="st0" points="68.8,56.1 61.3,61.7 69.2,65.8 	"/>
	<polygon class="st0" points="15.7,22.9 24.4,25.1 23.6,17.9 	"/>
	<polygon class="st0" points="4.3,44.1 9.5,45.5 13.5,46.5 13.6,41.3 13.7,36.5 	"/>
	<polygon class="st0" points="13.7,34.6 13.8,25.5 10.4,32.8 	"/>
	<polygon class="st0" points="14.7,35 25,36.8 14.9,24.5 	"/>
	<polygon class="st0" points="13.2,35.5 12.2,34.9 9.9,33.7 5,42.2 	"/>
	<polygon class="st0" points="12.1,50.9 13.3,47.5 4,45.1 9.3,58.5 	"/>
	<polygon class="st0" points="14.7,36.1 14.6,39.8 14.5,46.1 25.1,37.9 	"/>
	<polygon class="st0" points="10,59.7 15.1,62.4 15.7,62.7 15,57.5 13.8,49.3 	"/>
</g>
</svg>
