<?xml version="1.0" encoding="utf-8"?>
<!-- Generator: Adobe Illustrator 17.0.0, SVG Export Plug-In . SVG Version: 6.00 Build 0)  -->
<!DOCTYPE svg PUBLIC "-//W3C//DTD SVG 1.1//EN" "http://www.w3.org/Graphics/SVG/1.1/DTD/svg11.dtd">
<svg version="1.1" id="Layer_1" xmlns="http://www.w3.org/2000/svg" xmlns:xlink="http://www.w3.org/1999/xlink" x="0px" y="0px"
	 width="96px" height="96px" viewBox="0 0 96 96" enable-background="new 0 0 96 96" xml:space="preserve">
<g>
	<path fill="#070706" d="M86.842,59.109H73.575v-3.491c0-1.929-1.563-3.491-3.491-3.491c-1.929,0-3.491,1.563-3.491,3.491v3.491
		H53.325c-1.929,0-3.491,0.864-3.491,2.793V78.66c0,1.929,1.563,4.19,3.491,4.19h13.267v6.284c0,1.929,1.563,3.491,3.491,3.491
		c1.929,0,3.491-1.563,3.491-3.491V82.85h13.267c1.929,0,3.491-2.261,3.491-4.19V61.902C90.333,59.973,88.771,59.109,86.842,59.109z
		 M66.592,75.867h-9.776v-9.776h9.776V75.867z M83.351,75.867h-9.776v-9.776h9.776V75.867z"/>
	<path fill="#070706" d="M48.487,11.374c0.879,0.021,20.753,0.728,23.812,19.005l-1.044-0.696c-1.836-1.226-4.322-0.729-5.547,1.109
		c-1.226,1.838-0.729,4.321,1.109,5.547l7.485,4.99c0.005,0.004,0.01,0.007,0.015,0.01l0.047,0.032
		c0.024,0.016,0.05,0.027,0.075,0.042c0.125,0.079,0.252,0.152,0.384,0.216c0.061,0.03,0.123,0.056,0.185,0.083
		c0.103,0.044,0.206,0.083,0.312,0.119c0.072,0.024,0.145,0.048,0.218,0.068c0.104,0.028,0.209,0.049,0.315,0.069
		c0.069,0.013,0.138,0.029,0.207,0.038c0.159,0.021,0.318,0.032,0.478,0.034c0.014,0,0.028,0.003,0.041,0.003
		c0.001,0,0.003,0,0.004,0s0.003,0,0.004,0c0.014,0,0.027-0.003,0.041-0.003c0.16-0.002,0.32-0.013,0.479-0.034
		c0.069-0.009,0.137-0.025,0.205-0.037c0.107-0.02,0.213-0.041,0.318-0.07c0.072-0.02,0.144-0.043,0.215-0.067
		c0.106-0.035,0.211-0.075,0.314-0.12c0.062-0.026,0.123-0.052,0.183-0.082c0.132-0.064,0.26-0.138,0.384-0.217
		c0.024-0.016,0.051-0.026,0.075-0.042l0.047-0.032c0.005-0.003,0.01-0.007,0.015-0.01l7.687-5.125
		c1.838-1.226,2.335-3.709,1.109-5.547s-3.708-2.338-5.547-1.109l-1.695,1.13C77.91,9.678,58.7,3.617,48.68,3.376
		c-2.161-0.057-4.042,1.694-4.096,3.902C44.532,9.487,46.279,11.32,48.487,11.374z"/>
	<path fill="#070706" d="M46.68,84.377c-0.895-0.021-21.501-0.756-23.963-20.049l1.363,0.908c0.682,0.455,1.452,0.672,2.215,0.672
		c1.293,0,2.562-0.625,3.332-1.781c1.226-1.838,0.729-4.321-1.109-5.547l-7.548-5.032c-0.001,0-0.001-0.001-0.002-0.001
		c-0.224-0.149-0.461-0.275-0.707-0.375c-0.071-0.029-0.146-0.041-0.219-0.066c-0.173-0.059-0.345-0.12-0.524-0.155
		c-0.102-0.02-0.205-0.02-0.308-0.031c-0.155-0.018-0.309-0.043-0.466-0.042c-0.079,0-0.157,0.017-0.236,0.021
		c-0.179,0.011-0.358,0.02-0.536,0.055c-0.064,0.013-0.124,0.039-0.187,0.055c-0.186,0.046-0.371,0.092-0.552,0.166
		c-0.243,0.099-0.476,0.224-0.697,0.37c-0.002,0.001-0.003,0.002-0.005,0.003l-7.75,5.167c-1.838,1.226-2.335,3.709-1.109,5.547
		c0.771,1.156,2.039,1.781,3.332,1.781c0.762,0,1.533-0.217,2.215-0.672l1.455-0.97C16.85,85.943,36.361,92.13,46.487,92.375
		c0.033,0.001,0.065,0.001,0.099,0.001c2.164,0,3.944-1.729,3.997-3.903C50.635,86.263,48.888,84.43,46.68,84.377z"/>
	<path fill="#070706" d="M10.167,42.324c0.166,0.021,0.329,0.05,0.5,0.05h22.417c2.209,0,4-1.791,4-4s-1.791-4-4-4H13.667v-6h19.417
		c2.209,0,4-1.791,4-4s-1.791-4-4-4H13.667v-6h19.417c2.209,0,4-1.791,4-4s-1.791-4-4-4H10.667c-0.171,0-0.334,0.03-0.5,0.05
		c-0.166-0.021-0.329-0.05-0.5-0.05c-2.209,0-4,1.791-4,4v28c0,2.209,1.791,4,4,4C9.838,42.375,10.001,42.345,10.167,42.324z"/>
</g>
</svg>
