<svg xmlns="http://www.w3.org/2000/svg" width="18" height="18" viewBox="0 0 18 18">
  <path fill="#3860F4" d="M9.35101614,0.83788511 L15.7514111,2.58214208 C16.239898,2.71526614 16.5698717,3.17045411 16.544453,3.67611733 L16.1231369,12.0574972 C16.0892586,12.7314499 15.7417276,13.3506476 15.1840758,13.7306271 L9.67372938,17.485333 C9.30737152,17.7349663 8.8255248,17.7348047 8.45933447,17.4849257 L2.95165327,13.7266237 C2.3980611,13.3488664 2.051669,12.7351077 2.01440334,12.065947 L1.54750963,3.68217142 C1.51919791,3.17379222 1.85051814,2.71495159 2.34199406,2.58190132 L8.78599198,0.837409535 C8.97102436,0.787318353 9.16606834,0.787482519 9.35101614,0.83788511 Z M9.06609857,2.43613526 L3.18568442,4.0280289 L3.62858494,11.976053 C3.63603808,12.1098851 3.69295144,12.2348529 3.78627846,12.3278397 L3.86289743,12.3912221 L9.06717636,15.9419032 L14.2737276,12.3946146 C14.3852579,12.3186187 14.463169,12.2043479 14.4942086,12.0754135 L14.5084929,11.9763321 L14.9077123,4.02695111 L9.06609857,2.43613526 Z M9.04346501,3.88791639 C10.8292035,3.88791639 12.2768306,5.33554346 12.2768306,7.12128194 C12.2768306,8.62794253 11.2463215,9.89391481 9.85168969,10.2528124 L9.85082565,11.2369618 L10.935917,11.2373997 C11.2335401,11.2373997 11.4748113,11.4786708 11.4748113,11.7762939 C11.4748113,12.0408478 11.2841773,12.2608767 11.032784,12.3065059 L10.935917,12.3151882 L9.85082565,12.3149618 L9.8518064,13.2515383 C9.8518064,13.697973 9.48989963,14.0598797 9.04346501,14.0598797 C8.63423328,14.0598797 8.29602842,13.7557775 8.24250283,13.3612255 L8.23512363,13.2515383 L8.23524034,10.2528124 C6.84060856,9.89391481 5.81009946,8.62794253 5.81009946,7.12128194 C5.81009946,5.33554346 7.25772653,3.88791639 9.04346501,3.88791639 Z M9.04346501,5.50459917 C8.15059577,5.50459917 7.42678224,6.2284127 7.42678224,7.12128194 C7.42678224,8.01415119 8.15059577,8.73796472 9.04346501,8.73796472 C9.93633426,8.73796472 10.6601478,8.01415119 10.6601478,7.12128194 C10.6601478,6.2284127 9.93633426,5.50459917 9.04346501,5.50459917 Z"/>
</svg>
