<?xml version="1.0" encoding="utf-8"?>
<!-- Generator: Adobe Illustrator 17.0.0, SVG Export Plug-In . SVG Version: 6.00 Build 0)  -->
<!DOCTYPE svg PUBLIC "-//W3C//DTD SVG 1.1//EN" "http://www.w3.org/Graphics/SVG/1.1/DTD/svg11.dtd">
<svg version="1.1" id="Layer_1" xmlns="http://www.w3.org/2000/svg" xmlns:xlink="http://www.w3.org/1999/xlink" x="0px" y="0px"
	 width="96px" height="96px" viewBox="0 0 96 96" enable-background="new 0 0 96 96" xml:space="preserve">
<path d="M61.75,48.625c0-7.415-5.117-13.64-12-15.377V9c0-2.209-1.791-4-4-4s-4,1.791-4,4v24.313C34.993,35.136,30,41.3,30,48.625
	c0,7.325,4.993,13.49,11.75,15.312V86c0,2.209,1.791,4,4,4s4-1.791,4-4V64.002C56.633,62.265,61.75,56.04,61.75,48.625z
	 M45.875,56.5C41.533,56.5,38,52.968,38,48.625c0-4.342,3.533-7.875,7.875-7.875c4.343,0,7.875,3.533,7.875,7.875
	C53.75,52.968,50.218,56.5,45.875,56.5z"/>
</svg>
