<?xml version="1.0" encoding="utf-8"?>
<!-- Generator: Adobe Illustrator 22.1.0, SVG Export Plug-In . SVG Version: 6.00 Build 0)  -->
<svg version="1.1" id="Layer_1" xmlns="http://www.w3.org/2000/svg" xmlns:xlink="http://www.w3.org/1999/xlink" x="0px" y="0px"
	 viewBox="0 0 96 96" style="enable-background:new 0 0 96 96;" xml:space="preserve">
<path d="M46.9,63.9c7.4,0,13.6-5.1,15.4-12h24.2c2.2,0,4-1.8,4-4s-1.8-4-4-4H62.2c-1.8-6.8-8-11.8-15.3-11.8s-13.5,5-15.3,11.8H9.5
	c-2.2,0-4,1.8-4,4s1.8,4,4,4h22C33.2,58.8,39.5,63.9,46.9,63.9z M39,48c0-4.3,3.5-7.9,7.9-7.9c4.3,0,7.9,3.5,7.9,7.9
	c0,4.3-3.5,7.9-7.9,7.9C42.5,55.9,39,52.3,39,48z"/>
</svg>
