<?xml version="1.0" encoding="utf-8"?>
<!-- Generator: Adobe Illustrator 17.0.0, SVG Export Plug-In . SVG Version: 6.00 Build 0)  -->
<!DOCTYPE svg PUBLIC "-//W3C//DTD SVG 1.1//EN" "http://www.w3.org/Graphics/SVG/1.1/DTD/svg11.dtd">
<svg version="1.1" id="Layer_1" xmlns="http://www.w3.org/2000/svg" xmlns:xlink="http://www.w3.org/1999/xlink" x="0px" y="0px"
	 width="96px" height="96px" viewBox="0 0 96 96" enable-background="new 0 0 96 96" xml:space="preserve">
<path d="M56,72c0.7,0,1.3,0,1.9-0.1c-0.3,0.3-0.6,0.7-1,1L45,85c-9.4,9.4-24.6,9.4-33.9,0C1.7,75.6,1.7,60.4,11,51l12-12
	c0.3-0.3,0.7-0.7,1-1c7.4-6.5,17.8-7.8,26.3-3.7C52.7,35.5,55,37,57,39c2,2,3.5,4.2,4.7,6.6C60.2,47.1,58.2,48,56,48
	c-0.8,0-1.6-0.1-2.3-0.3c-0.6-1.1-1.4-2.1-2.3-3c-0.9-0.9-1.9-1.7-3-2.3c-6.2-3.8-14.3-3-19.7,2.3l-3.6,3.6l-8.4,8.4
	c-6.2,6.2-6.2,16.4,0,22.6c6.2,6.2,16.4,6.2,22.6,0l8.4-8.4C50.4,71.6,53.1,72,56,72z M85,11C75.6,1.7,60.4,1.7,51,11L39,23
	c-0.3,0.3-0.7,0.7-1,1c0.6,0,1.3-0.1,1.9-0.1c2.9,0,5.6,0.4,8.3,1.1l8.4-8.4c6.2-6.2,16.4-6.2,22.6,0c6.2,6.2,6.2,16.4,0,22.6
	l-8.4,8.4l-3.6,3.6c-5.3,5.3-13.5,6.1-19.7,2.3c-1.1-0.6-2-1.4-3-2.3c-0.9-0.9-1.7-1.9-2.3-3C41.6,48.1,40.8,48,40,48
	c-2.2,0-4.2,0.9-5.7,2.3C35.5,52.7,37,55,39,57c2,2,4.2,3.5,6.6,4.7c8.5,4.1,18.9,2.8,26.3-3.7c0.4-0.3,0.7-0.6,1-1l12-12
	C94.3,35.6,94.3,20.4,85,11z"/>
</svg>
