<?xml version="1.0" encoding="utf-8"?>
<!-- Generator: Adobe Illustrator 17.0.0, SVG Export Plug-In . SVG Version: 6.00 Build 0)  -->
<!DOCTYPE svg PUBLIC "-//W3C//DTD SVG 1.1//EN" "http://www.w3.org/Graphics/SVG/1.1/DTD/svg11.dtd">
<svg version="1.1" id="Layer_1" xmlns="http://www.w3.org/2000/svg" xmlns:xlink="http://www.w3.org/1999/xlink" x="0px" y="0px"
	 width="96px" height="96px" viewBox="0 0 96 96" enable-background="new 0 0 96 96" xml:space="preserve">
<g>
	<path fill="#020202" d="M33.333,27.667h45.833c2.209,0,4-1.791,4-4s-1.791-4-4-4H33.333c-2.209,0-4,1.791-4,4
		S31.125,27.667,33.333,27.667z"/>
	<path fill="#020202" d="M79.167,35.375H33.333c-2.209,0-4,1.791-4,4s1.791,4,4,4h45.833c2.209,0,4-1.791,4-4
		S81.376,35.375,79.167,35.375z"/>
	<path fill="#020202" d="M79.167,51.667H33.333c-2.209,0-4,1.791-4,4c0,2.209,1.791,4,4,4h45.833c2.209,0,4-1.79,4-4
		C83.167,53.458,81.376,51.667,79.167,51.667z"/>
	<path fill="#020202" d="M79.167,67.667H33.333c-2.209,0-4,1.791-4,4s1.791,4,4,4h45.833c2.209,0,4-1.791,4-4
		S81.376,67.667,79.167,67.667z"/>
	<circle fill="#020202" cx="20.708" cy="23.625" r="3.958"/>
	<circle fill="#020202" cx="20.708" cy="39.333" r="3.958"/>
	<circle fill="#020202" cx="20.708" cy="55.625" r="3.958"/>
	<circle fill="#020202" cx="20.708" cy="71.625" r="3.958"/>
</g>
</svg>
