<?xml version="1.0" encoding="utf-8"?>
<!-- Generator: Adobe Illustrator 17.0.0, SVG Export Plug-In . SVG Version: 6.00 Build 0)  -->
<!DOCTYPE svg PUBLIC "-//W3C//DTD SVG 1.1//EN" "http://www.w3.org/Graphics/SVG/1.1/DTD/svg11.dtd">
<svg version="1.1" id="Layer_1" xmlns="http://www.w3.org/2000/svg" xmlns:xlink="http://www.w3.org/1999/xlink" x="0px" y="0px"
	 width="96px" height="96px" viewBox="0 0 96 96" enable-background="new 0 0 96 96" xml:space="preserve">
<path d="M69.827,6H25.173C15.152,6,7,14.152,7,24.173v45.154C7,79.348,15.152,87.5,25.173,87.5h44.654
	C79.848,87.5,88,79.348,88,69.327V24.173C88,14.152,79.848,6,69.827,6z M80,69.327C80,74.937,75.437,79.5,69.827,79.5H25.173
	C19.563,79.5,15,74.937,15,69.327V36.609c0.321,0.083,0.653,0.141,1,0.141h16.25v11.5c0,2.209,1.791,4,4,4H60c2.209,0,4-1.791,4-4
	v-11.5h16V69.327z M80,28.75H60c-2.209,0-4,1.791-4,4v11.5H40.25v-11.5c0-2.209-1.791-4-4-4H16c-0.347,0-0.679,0.058-1,0.141v-4.719
	C15,18.563,19.563,14,25.173,14h44.654C75.437,14,80,18.563,80,24.173V28.75z"/>
</svg>
