<?xml version="1.0" encoding="utf-8"?>
<!-- Generator: Adobe Illustrator 17.0.0, SVG Export Plug-In . SVG Version: 6.00 Build 0)  -->
<!DOCTYPE svg PUBLIC "-//W3C//DTD SVG 1.1//EN" "http://www.w3.org/Graphics/SVG/1.1/DTD/svg11.dtd">
<svg version="1.1" id="Layer_1" xmlns="http://www.w3.org/2000/svg" xmlns:xlink="http://www.w3.org/1999/xlink" x="0px" y="0px"
	 width="96px" height="96px" viewBox="0 0 96 96" enable-background="new 0 0 96 96" xml:space="preserve">
<path d="M28,48c0-2.2-1.8-4-4-4H8c-2.2,0-4,1.8-4,4c0,2.2,1.8,4,4,4h16C26.2,52,28,50.2,28,48z M88,44H72c-2.2,0-4,1.8-4,4
	c0,2.2,1.8,4,4,4h16c2.2,0,4-1.8,4-4C92,45.8,90.2,44,88,44z M48,4c-2.2,0-4,1.8-4,4v16c0,2.2,1.8,4,4,4c2.2,0,4-1.8,4-4V8
	C52,5.8,50.2,4,48,4z M48,68c-2.2,0-4,1.8-4,4v16c0,2.2,1.8,4,4,4c2.2,0,4-1.8,4-4V72C52,69.8,50.2,68,48,68z M28.2,62.1L16.9,73.5
	c-1.6,1.6-1.6,4.1,0,5.7c1.6,1.6,4.1,1.6,5.7,0l11.3-11.3c1.6-1.6,1.6-4.1,0-5.7C32.3,60.6,29.8,60.6,28.2,62.1z M67.8,33.9
	l11.3-11.3c1.6-1.6,1.6-4.1,0-5.7c-1.6-1.6-4.1-1.6-5.7,0L62.1,28.2c-1.6,1.6-1.6,4.1,0,5.7S66.2,35.4,67.8,33.9z M22.5,16.9
	c-1.6-1.6-4.1-1.6-5.7,0c-1.6,1.6-1.6,4.1,0,5.7l11.3,11.3c1.6,1.6,4.1,1.6,5.7,0s1.6-4.1,0-5.7L22.5,16.9z M67.8,62.1
	c-1.6-1.6-4.1-1.6-5.7,0c-1.6,1.6-1.6,4.1,0,5.7l11.3,11.3c1.6,1.6,4.1,1.6,5.7,0c1.6-1.6,1.6-4.1,0-5.7L67.8,62.1z"/>
</svg>
