<?xml version="1.0" encoding="utf-8"?>
<!-- Generator: Adobe Illustrator 17.0.0, SVG Export Plug-In . SVG Version: 6.00 Build 0)  -->
<!DOCTYPE svg PUBLIC "-//W3C//DTD SVG 1.1//EN" "http://www.w3.org/Graphics/SVG/1.1/DTD/svg11.dtd">
<svg version="1.1" id="Layer_1" xmlns="http://www.w3.org/2000/svg" xmlns:xlink="http://www.w3.org/1999/xlink" x="0px" y="0px"
	 width="96px" height="96px" viewBox="0 0 96 96" enable-background="new 0 0 96 96" xml:space="preserve">
<path d="M48,4C23.7,4,4,23.7,4,48c0,24.3,19.7,44,44,44c24.3,0,44-19.7,44-44C92,23.7,72.3,4,48,4z M52,83.8V72c0-2.2-1.8-4-4-4
	c-2.2,0-4,1.8-4,4v11.8C27.3,81.9,14.1,68.7,12.2,52H24c2.2,0,4-1.8,4-4c0-2.2-1.8-4-4-4H12.2C14.1,27.3,27.3,14.1,44,12.2V24
	c0,2.2,1.8,4,4,4c2.2,0,4-1.8,4-4V12.2C68.7,14.1,81.9,27.3,83.8,44H72c-2.2,0-4,1.8-4,4c0,2.2,1.8,4,4,4h11.8
	C81.9,68.7,68.7,81.9,52,83.8z"/>
</svg>
