<?xml version="1.0" encoding="utf-8"?>
<!-- Generator: Adobe Illustrator 17.0.0, SVG Export Plug-In . SVG Version: 6.00 Build 0)  -->
<!DOCTYPE svg PUBLIC "-//W3C//DTD SVG 1.1//EN" "http://www.w3.org/Graphics/SVG/1.1/DTD/svg11.dtd">
<svg version="1.1" id="Layer_1" xmlns="http://www.w3.org/2000/svg" xmlns:xlink="http://www.w3.org/1999/xlink" x="0px" y="0px"
	 width="96px" height="96px" viewBox="0 0 96 96" enable-background="new 0 0 96 96" xml:space="preserve">
<g>
	<path d="M47.375,30C42.206,30,38,34.206,38,39.375s4.206,9.375,9.375,9.375s9.375-4.206,9.375-9.375S52.544,30,47.375,30z"/>
	<path d="M83.441,32.566C78.623,4.783,55.238,2.624,48.186,2.624c-1.062,0-1.821,0.046-2.195,0.076
		C35.188,2.767,14.377,9.014,11.775,32.306c-1.715,15.349,3.641,30.809,15.488,44.709c8.792,10.314,18.007,16.134,18.396,16.377
		C46.309,93.798,47.044,94,47.78,94c0.805,0,1.61-0.243,2.297-0.726c0.396-0.278,9.803-6.929,18.639-17.562
		C80.736,61.25,85.828,46.33,83.441,32.566z M47.375,56.75C37.794,56.75,30,48.956,30,39.375S37.794,22,47.375,22
		S64.75,29.794,64.75,39.375S56.956,56.75,47.375,56.75z"/>
</g>
</svg>
