<?xml version="1.0" encoding="utf-8"?>
<!-- Generator: Adobe Illustrator 17.0.0, SVG Export Plug-In . SVG Version: 6.00 Build 0)  -->
<!DOCTYPE svg PUBLIC "-//W3C//DTD SVG 1.1//EN" "http://www.w3.org/Graphics/SVG/1.1/DTD/svg11.dtd">
<svg version="1.1" id="Layer_1" xmlns="http://www.w3.org/2000/svg" xmlns:xlink="http://www.w3.org/1999/xlink" x="0px" y="0px"
	 width="96px" height="96px" viewBox="0 0 96 96" enable-background="new 0 0 96 96" xml:space="preserve">
<path d="M80,44h-8V28C72,14.7,61.3,4,48,4S24,14.7,24,28v16h-8C9.4,44,4,49.4,4,56v24c0,6.6,5.4,12,12,12h64c6.6,0,12-5.4,12-12V56
	C92,49.4,86.6,44,80,44z M32,28c0-8.8,7.2-16,16-16s16,7.2,16,16v16H32V28z M84,80c0,2.2-1.8,4-4,4H16c-2.2,0-4-1.8-4-4V56
	c0-2.2,1.8-4,4-4h64c2.2,0,4,1.8,4,4V80z"/>
</svg>
