<?xml version="1.0" encoding="utf-8"?>
<!-- Generator: Adobe Illustrator 22.0.1, SVG Export Plug-In . SVG Version: 6.00 Build 0)  -->
<svg version="1.1" id="Layer_1" xmlns="http://www.w3.org/2000/svg" xmlns:xlink="http://www.w3.org/1999/xlink" x="0px" y="0px"
	 viewBox="0 0 96 96" style="enable-background:new 0 0 96 96;" xml:space="preserve">
<g>
	<path d="M65.2,47H30.8c-1.2,0-2.2,1-2.2,2.2v12.9c0,1.2,1,2.2,2.2,2.2h34.5c1.2,0,2.2-1,2.2-2.2V49.2C67.4,48,66.4,47,65.2,47z"/>
	<g>
		<path d="M47.9,25.5c-4.8,0-8.6,3.9-8.6,8.6v8.6h17.2v-8.6C56.5,29.3,52.6,25.5,47.9,25.5z"/>
		<path d="M48,3.5C23.5,3.5,3.5,23.5,3.5,48s20,44.5,44.5,44.5s44.5-20,44.5-44.5S72.5,3.5,48,3.5z M65.2,68.6H30.8
			c-3.6,0-6.5-2.9-6.5-6.5V49.2c0-3.6,2.9-6.5,6.5-6.5h4.3v-8.6c0-7.1,5.8-12.9,12.9-12.9S60.9,27,60.9,34.1v8.6h4.2
			c3.6,0,6.5,2.9,6.5,6.5v12.9h0.1C71.7,65.7,68.8,68.6,65.2,68.6z"/>
	</g>
</g>
</svg>
