<?xml version="1.0" encoding="utf-8"?>
<!-- Generator: Adobe Illustrator 22.0.1, SVG Export Plug-In . SVG Version: 6.00 Build 0)  -->
<svg version="1.1" id="Layer_1" xmlns="http://www.w3.org/2000/svg" xmlns:xlink="http://www.w3.org/1999/xlink" x="0px" y="0px"
	 viewBox="0 0 96 96" style="enable-background:new 0 0 96 96;" xml:space="preserve">
<g>
	<path d="M65.2,42.7H61v-8.6c0-7.1-5.8-12.9-12.9-12.9c-7.1,0-12.9,5.8-12.9,12.9v8.6h-4.3c-3.6,0-6.5,2.9-6.5,6.5v12.9
		c0,3.6,2.9,6.5,6.5,6.5h34.5c3.6,0,6.5-2.9,6.5-6.5V49.2C71.7,45.6,68.8,42.7,65.2,42.7z M39.4,34.1c0-4.8,3.9-8.6,8.6-8.6
		s8.6,3.9,8.6,8.6v8.6H39.4V34.1z M67.4,62.1c0,1.2-1,2.2-2.2,2.2H30.8c-1.2,0-2.2-1-2.2-2.2V49.2c0-1.2,1-2.2,2.2-2.2h34.5
		c1.2,0,2.2,1,2.2,2.2L67.4,62.1z"/>
	<g>
		<path d="M48,92.5c-24.5,0-44.5-20-44.5-44.5S23.5,3.5,48,3.5s44.5,20,44.5,44.5S72.5,92.5,48,92.5z M48,7.7
			C25.8,7.7,7.7,25.8,7.7,48S25.8,88.3,48,88.3S88.3,70.2,88.3,48S70.2,7.7,48,7.7z"/>
	</g>
</g>
</svg>
