<?xml version="1.0" encoding="utf-8"?>
<!-- Generator: Adobe Illustrator 23.0.1, SVG Export Plug-In . SVG Version: 6.00 Build 0)  -->
<svg version="1.1" id="Layer_1" xmlns="http://www.w3.org/2000/svg" xmlns:xlink="http://www.w3.org/1999/xlink" x="0px" y="0px"
	 viewBox="0 0 96 96" style="enable-background:new 0 0 96 96;" xml:space="preserve">
<path d="M19.1,45.4c-0.3-0.2-0.6-0.3-1-0.2c-0.3,0-0.6,0.1-0.9,0.3s-0.5,0.5-0.7,0.9v-1h-1.7v8h2v-3.2c0-0.2,0-0.4,0-0.7
	c0-0.2,0-0.5,0-0.7c0-0.4,0.2-0.8,0.4-1c0.2-0.3,0.5-0.4,0.8-0.5s0.6-0.1,0.8,0c0.1,0,0.2,0.1,0.2,0.1c0.3,0.2,0.7,0.1,0.7-0.3l0,0
	c0.1-0.3,0-0.6-0.1-0.8C19.5,45.8,19.3,45.6,19.1,45.4z"/>
<path d="M26.6,46.2v2.4c0,0.4,0,0.7-0.1,1.1c-0.1,0.4-0.2,0.7-0.3,1c-0.2,0.3-0.4,0.5-0.6,0.7c-0.3,0.2-0.6,0.3-1,0.3
	c-0.5,0-0.9-0.1-1.2-0.3c-0.3-0.2-0.6-0.5-0.7-0.9c-0.2-0.4-0.2-0.7-0.2-1.1c0-0.4,0.1-0.8,0.3-1.1c0.2-0.3,0.4-0.6,0.7-0.9
	c0.3-0.2,0.7-0.3,1.2-0.3c0.3,0,0.6,0,0.9,0.1s0.6,0.3,0.7,0.5c0.1-0.2,0.1-0.4,0.1-0.7s-0.1-0.5-0.2-0.8s-0.4-0.5-0.7-0.7
	c-0.3-0.2-0.7-0.3-1.2-0.3s-1,0.1-1.5,0.3s-0.9,0.5-1.2,0.9c-0.4,0.4-0.7,0.8-0.9,1.3c-0.2,0.5-0.3,1.1-0.3,1.7
	c0,0.6,0.1,1.2,0.3,1.7c0.2,0.5,0.5,0.9,0.8,1.3c0.3,0.4,0.7,0.6,1.2,0.8c0.4,0.2,0.9,0.3,1.3,0.3c0.5,0,0.9-0.1,1.4-0.2
	c0.5-0.2,0.9-0.5,1.3-0.8v0.9h2v-6c0-1.1-0.9-2-2-2l0,0L26.6,46.2L26.6,46.2z"/>
<path d="M36.8,45.3c-0.3,0-0.5,0.1-0.7,0.2c-0.2,0.1-0.4,0.3-0.5,0.5c-0.2,0.2-0.3,0.4-0.4,0.6l-1.5,3.5l-1.5-3.6
	c-0.3-0.7-1-1.1-1.7-1.1h-0.8l3.4,8h1.3l3.4-8C37.4,45.3,37.1,45.3,36.8,45.3z"/>
<path d="M45,46.3c-0.3-0.3-0.7-0.6-1.1-0.8c-0.5-0.2-1-0.3-1.6-0.3s-1.1,0.1-1.7,0.3c-0.5,0.2-1,0.5-1.4,0.9s-0.7,0.8-0.8,1.3
	c-0.2,0.5-0.3,1-0.3,1.6c0,0.5,0.1,1,0.2,1.6s0.4,1,0.8,1.4c0.3,0.4,0.8,0.7,1.3,1c0.5,0.2,1.1,0.4,1.8,0.4s1.4-0.1,2-0.4
	c0.6-0.3,1.1-0.7,1.5-1.3l-0.2-0.1c-0.7-0.4-1.6-0.3-2.3-0.1c-0.1,0-0.1,0-0.2,0.1C42.6,52,42.2,52,41.8,52c-0.3,0-0.5-0.1-0.7-0.3
	s-0.4-0.4-0.6-0.6c-0.2-0.2-0.3-0.5-0.3-0.8c-0.1-0.3-0.1-0.6-0.1-0.8c0-0.3,0.1-0.7,0.2-1c0.1-0.3,0.3-0.5,0.5-0.8
	c0.2-0.2,0.4-0.4,0.7-0.5S42,47,42.3,47s0.5,0,0.8,0.1c0.2,0.1,0.4,0.2,0.6,0.3c0.2,0.1,0.3,0.3,0.3,0.4c0.1,0.2,0.1,0.3,0,0.5
	c0,0.1-0.1,0.3-0.3,0.4c-0.2,0.1-0.4,0.2-0.7,0.2c-0.4,0-0.8,0-1.2,0s-0.8-0.2-1.1-0.4c-0.2,0.4-0.2,0.7-0.1,1
	c0.1,0.3,0.3,0.5,0.6,0.7s0.7,0.3,1.1,0.3c0.5,0,1,0,1.5-0.2c0.5-0.1,1-0.4,1.3-0.7s0.5-0.6,0.6-1s0.1-0.8,0-1.2
	C45.5,47,45.3,46.7,45,46.3z"/>
<path d="M47,44.2v9.2h1.9V42.6c-0.6,0-1.1,0.1-1.4,0.4C47.1,43.3,47,43.7,47,44.2z"/>
<path d="M57.3,51.3c-0.5,0.2-1.1,0.4-1.7,0.3c-0.6,0-1.1-0.2-1.6-0.5s-0.9-0.7-1.2-1.2s-0.5-1.2-0.5-2c0-0.4,0.1-0.8,0.2-1.2
	c0.1-0.4,0.3-0.7,0.5-1s0.5-0.6,0.8-0.8s0.7-0.4,1.1-0.5c0.4-0.1,0.8-0.1,1.2-0.1s0.9,0.1,1.3,0.3c0.4,0.1,0.7,0.4,1.1,0.6
	c0.3,0.3,0.5,0.6,0.7,1c0.4-0.4,0.6-0.8,0.7-1.2c0.1-0.4,0.1-0.7,0-1s-0.3-0.5-0.6-0.8c-0.3-0.2-0.6-0.4-0.9-0.5
	c-0.4-0.1-0.7-0.2-1.1-0.3c-0.4-0.1-0.8-0.1-1.1-0.1c-0.5,0-1,0.1-1.5,0.2s-0.9,0.2-1.4,0.5c-0.4,0.2-0.8,0.5-1.2,0.8
	s-0.7,0.8-1,1.3s-0.5,1.1-0.6,1.7c-0.1,0.6-0.1,1.2,0,1.9c0.1,0.6,0.3,1.2,0.5,1.8c0.3,0.6,0.6,1.1,1.1,1.5s1,0.8,1.6,1.1
	s1.4,0.4,2.2,0.4c0.5,0,0.9,0,1.3-0.1c0.4-0.1,0.8-0.2,1.1-0.4c0.4-0.2,0.7-0.4,1-0.6c0.3-0.3,0.7-0.6,1-0.9l-0.1-0.1
	c-0.6-0.7-1.7-0.8-2.5-0.3C57.5,51.2,57.4,51.2,57.3,51.3z"/>
<path d="M61.6,44.2v9.2h1.9V42.6c-0.6,0-1.1,0.1-1.4,0.4C61.8,43.3,61.6,43.7,61.6,44.2z"/>
<path d="M71.1,45.8c-0.6-0.4-1.4-0.6-2.2-0.6c-0.6,0-1.2,0.1-1.8,0.4c-0.5,0.3-1,0.7-1.4,1.1c0.2-0.1,0.5-0.2,0.7-0.3
	c0.3,0,0.5-0.1,0.8,0c0.3,0,0.5,0.1,0.7,0.2c0.2,0.1,0.4,0.3,0.6,0.4c0.4-0.1,0.7-0.1,1,0s0.6,0.2,0.8,0.4c0.2,0.2,0.4,0.5,0.6,0.8
	c0.1,0.3,0.2,0.7,0.2,1.1c0,0.5-0.1,0.9-0.3,1.3c-0.2,0.3-0.5,0.6-0.8,0.8s-0.7,0.3-1,0.3c-0.4,0-0.7-0.1-1-0.3s-0.6-0.4-0.8-0.8
	c-0.2-0.3-0.3-0.8-0.3-1.3c0-0.3,0.1-0.5,0.2-0.7s0.3-0.3,0.5-0.4c0.2-0.1,0.4-0.1,0.6-0.1s0.4,0.1,0.6,0.2c0-0.3-0.1-0.5-0.3-0.7
	c-0.2-0.2-0.4-0.4-0.6-0.5s-0.5-0.2-0.8-0.2s-0.6,0-0.8,0.1c-0.3,0.1-0.5,0.2-0.7,0.4s-0.4,0.4-0.5,0.7c-0.2,0.7-0.2,1.5,0,2.2
	s0.6,1.4,1.1,2c0.5,0.5,1,0.8,1.7,1c0.6,0.2,1.2,0.2,1.9,0.2c0.6-0.1,1.2-0.3,1.7-0.7c0.5-0.3,1-0.8,1.3-1.4
	c0.4-0.7,0.6-1.4,0.6-2.2c0-0.7-0.2-1.4-0.6-2C72.2,46.7,71.7,46.2,71.1,45.8z"/>
<path d="M81.4,45.4c-0.6,0-1.1,0.1-1.4,0.4c-0.4,0.3-0.5,0.7-0.5,1.2v2.3c0,0.2,0,0.4,0,0.6c0,0.2,0,0.4-0.1,0.6
	c0,0.2-0.1,0.4-0.2,0.5s-0.2,0.3-0.4,0.4c-0.1,0.1-0.3,0.1-0.4,0.2c-0.1,0-0.3,0.1-0.4,0.1s-0.3,0-0.5-0.1c-0.1,0-0.3-0.1-0.4-0.2
	c-0.2-0.1-0.3-0.3-0.4-0.4c-0.1-0.2-0.1-0.4-0.2-0.6c0-0.2-0.1-0.4-0.1-0.6c0-0.2,0-0.4,0-0.6v-2.4c0-0.8-0.6-1.4-1.4-1.4h-0.6V49
	c0,0.5,0,0.9,0.1,1.3c0,0.4,0.1,0.7,0.2,1c0.2,0.8,0.7,1.3,1.2,1.7c0.6,0.3,1.2,0.5,2,0.5c0.7,0,1.4-0.1,1.9-0.4
	c0.5-0.3,1-0.8,1.3-1.5c0.1-0.3,0.2-0.6,0.3-1.1c0.1-0.5,0.1-1,0.1-1.7L81.4,45.4L81.4,45.4z"/>
<path d="M90.1,43.1c-0.3-0.3-0.8-0.5-1.4-0.5v6.2c0,0.3,0,0.7-0.1,1.1c-0.1,0.4-0.2,0.7-0.3,1c-0.2,0.3-0.4,0.5-0.6,0.7
	c-0.3,0.2-0.6,0.3-1,0.3c-0.5,0-0.9-0.1-1.2-0.3c-0.3-0.2-0.5-0.5-0.7-0.8s-0.2-0.7-0.2-1.1c0-0.4,0.1-0.8,0.2-1.1
	c0.2-0.3,0.4-0.6,0.7-0.8c0.3-0.2,0.7-0.3,1.2-0.3c0.3,0,0.6,0,0.9,0.1s0.6,0.3,0.7,0.5c0.1-0.2,0.1-0.4,0.1-0.6
	c0-0.3-0.1-0.5-0.2-0.8s-0.3-0.5-0.6-0.7c-0.3-0.2-0.7-0.3-1.2-0.3s-1,0.1-1.4,0.3c-0.5,0.2-0.9,0.5-1.2,0.8
	c-0.4,0.4-0.6,0.8-0.8,1.3c-0.2,0.5-0.3,1.1-0.3,1.7c0,0.6,0.1,1.2,0.3,1.7c0.2,0.5,0.5,0.9,0.8,1.3c0.3,0.4,0.7,0.6,1.1,0.8
	s0.9,0.3,1.3,0.3c0.5,0,0.9-0.1,1.3-0.2c0.4-0.2,0.9-0.4,1.2-0.8v0.8h1.9v-9.2C90.6,43.8,90.4,43.4,90.1,43.1z"/>
<path d="M6.4,44.6h2v8.7h2.1v-8.7h1.2c0.2,0,0.4,0,0.6-0.1c0.2-0.1,0.4-0.2,0.5-0.4c0.2-0.2,0.3-0.4,0.4-0.6
	c0.1-0.2,0.1-0.5,0.1-0.8h-7L6.4,44.6L6.4,44.6z"/>
<rect x="5.8" y="42.6" width="0.3" height="2"/>
<rect x="5.4" y="42.6" width="0.2" height="2"/>
</svg>
