<?xml version="1.0" encoding="utf-8"?>
<!-- Generator: Adobe Illustrator 22.1.0, SVG Export Plug-In . SVG Version: 6.00 Build 0)  -->
<svg version="1.1" id="Layer_1" xmlns="http://www.w3.org/2000/svg" xmlns:xlink="http://www.w3.org/1999/xlink" x="0px" y="0px"
	 viewBox="0 0 96 96" style="enable-background:new 0 0 96 96;" xml:space="preserve">
<g>
	<g>
		<rect x="33.2" y="44.2" width="5" height="0.2"/>
		<rect x="33" y="44.9" width="5.1" height="0.5"/>
		<rect x="33" y="45.7" width="5.1" height="1.1"/>
		<rect x="32.8" y="47.5" width="5.2" height="0.7"/>
		<path d="M56.2,34.4H33.9l-0.7,9.5h5.2l0.3-4.4h14.8l-0.1,1.6h5l0.3-4C58.9,35.6,57.7,34.4,56.2,34.4z"/>
		<path d="M52.6,50H45h-5h-8.9l0.4-3.6l-5.3,5.6l3.6,5.8l0.3-3h9.3h5h9.9c1.6,0,2.8-1.2,2.9-2.7L58,46h-5.1L52.6,50z"/>
	</g>
	<g>
		<path d="M59.3,56.5H44.5l0.1-1.6h-5l-0.3,4c-0.1,1.5,1,2.7,2.5,2.7h22.3l0.7-9.5h-5.2L59.3,56.5z"/>
		<path d="M71.7,43.9l-3.6-5.8l-0.3,3h-9.3h-5h-9.9c-1.6,0-2.8,1.2-2.9,2.7L40,50h5.1l0.3-4H53h5h8.9l-0.4,3.6L71.7,43.9z"/>
		<rect x="59.8" y="51.6" width="5" height="0.2"/>
		<rect x="59.8" y="50.7" width="5.1" height="0.5"/>
		<rect x="59.8" y="49.2" width="5.1" height="1.1"/>
		<rect x="60" y="47.9" width="5.2" height="0.7"/>
	</g>
</g>
</svg>
