<?xml version="1.0" encoding="utf-8"?>
<!-- Generator: Adobe Illustrator 22.1.0, SVG Export Plug-In . SVG Version: 6.00 Build 0)  -->
<svg version="1.1" id="图层_1" xmlns="http://www.w3.org/2000/svg" xmlns:xlink="http://www.w3.org/1999/xlink" x="0px" y="0px"
	 viewBox="0 0 595.3 595.3" style="enable-background:new 0 0 595.3 595.3;" xml:space="preserve">
<style type="text/css">
	.st0{fill-rule:evenodd;clip-rule:evenodd;fill:#0D0E10;}
</style>
<path class="st0" d="M570,346.6c0.7-21.2-7.3-42.2-23.2-58.2c-13.6-13.7-32.9-23.6-57.4-27.1c-0.1-2.4-0.3-4.7-0.5-7
	c-0.5-27.7-11.2-53.6-28.6-74.9c-19.3-23.6-46.8-41.7-77.5-50.7c-31.3-9.1-65.9-8.8-98.8,4.8c-31.8,13.1-61.9,38.7-85.7,80
	c-13.5-2.1-28-3.1-43.5-2.4l-0.8,0l-0.8,0.1c-69,7.9-100.2,44.6-114.3,74c-14.3,30-13.7,57.6-13.5,62.2c0.1,4.6,1.6,31.7,17.9,60.2
	c16,27.9,49.5,61.9,117.7,65.1l1.2,0.1l1.2-0.1c46.2-2.9,99.3-47.8,155.5-95.4c33.2-28.1,69.1-58.5,101.3-77.2
	c-1.3,1.1-2.7,2.2-4,3.3c49.5-31.9,126.3-27.4,131.4,43.5c-1.6,29.6-11.5,51.6-29.5,65.4c-11,7.9-23.6,11.9-35.3,14.9
	c-5.2,0.9-8.6,1-8.6,1v1c-1.2,0.2-2.5,0.3-3.8,0.5c-15.5,6.7-9.6,19.8-0.1,21.9c0.7,0,1.7-0.1,2.8-0.2c0,0.1,0,0.1,0,0.2
	c16.4,0,94.4-7.4,96.9-103.9c0-0.3,0-0.5,0-0.7C569.9,346.8,570,346.7,570,346.6z M304.5,360.3C251.8,404.9,200.9,448,162,450.5
	c-56.3-2.6-84.9-28.6-99.5-53.9c-14.5-25.3-15-50-15-50c0,0-1.5-25,11.3-51.7c12.8-26.7,39.8-55,96.7-61.5
	c104.6-4.6,158.2,73.4,158.2,73.4l0.6-0.4c0.1,0.1,0.1,0.1,0.2,0.2c10.8,5.5,19.6-4.3,18-10.7c-0.2-0.3-0.5-0.8-0.9-1.2l0.5-0.3l0,0
	c-2-2.9-39.1-55.7-111.1-75.8c19.2-31.1,43.1-52.7,71.2-64.4c23.2-9.6,48.3-11.8,73.3-6.7c-0.4,0-0.6,0.1-0.6,0.1
	s100.8,20.3,99.7,112.7C417.3,264.9,360,313.4,304.5,360.3z"/>
</svg>
