<?xml version="1.0" encoding="utf-8"?>
<!-- Generator: Adobe Illustrator 22.1.0, SVG Export Plug-In . SVG Version: 6.00 Build 0)  -->
<svg version="1.1" id="Layer_1" xmlns="http://www.w3.org/2000/svg" xmlns:xlink="http://www.w3.org/1999/xlink" x="0px" y="0px"
	 viewBox="0 0 96 96" style="enable-background:new 0 0 96 96;" xml:space="preserve">
<g>
	<g>
		<rect x="14.6" y="39.8" width="10.6" height="0.4"/>
		<rect x="14.3" y="41.2" width="10.8" height="1.1"/>
		<rect x="14.3" y="43" width="10.8" height="2.4"/>
		<rect x="13.8" y="46.8" width="11" height="1.4"/>
		<path d="M63.2,19.1H16.1l-1.5,20h11l0.7-9.2h31.2l-0.3,3.4h10.6l0.7-8.4C68.8,21.7,66.3,19.1,63.2,19.1z"/>
		<path d="M55.6,52.1h-16H29H10.2l0.9-7.5L0,56.5l7.7,12.3l0.7-6.3h19.7h10.6h20.9c3.3,0,6-2.5,6.2-5.8L67,43.6H56.3L55.6,52.1z"/>
	</g>
	<g>
		<path d="M69.7,65.9H38.5l0.3-3.4H28.2l-0.7,8.4c-0.3,3.1,2.2,5.7,5.3,5.7h47.1l1.5-20h-11L69.7,65.9z"/>
		<path d="M96,39.2l-7.7-12.3l-0.7,6.3H67.9H57.3H36.4c-3.3,0-6,2.5-6.2,5.8L29,52.1h10.7l0.7-8.5h16H67h18.8l-0.9,7.5L96,39.2z"/>
		<rect x="70.8" y="55.5" width="10.6" height="0.4"/>
		<rect x="70.8" y="53.5" width="10.8" height="1.1"/>
		<rect x="70.8" y="50.4" width="10.8" height="2.4"/>
		<rect x="71.2" y="47.6" width="11" height="1.4"/>
	</g>
</g>
</svg>
