<?xml version="1.0" encoding="utf-8"?>
<!-- Generator: Adobe Illustrator 22.1.0, SVG Export Plug-In . SVG Version: 6.00 Build 0)  -->
<svg version="1.1" id="Layer_1" xmlns="http://www.w3.org/2000/svg" xmlns:xlink="http://www.w3.org/1999/xlink" x="0px" y="0px"
	 viewBox="0 0 96 96" style="enable-background:new 0 0 96 96;" xml:space="preserve">
<path d="M51.7,52.8c2-0.4,3.7,0.2,4.9,1c0.6,0.6,1.5,1,2.5,1c2,0,3.6-1.6,3.6-3.6c0-1.1-0.5-2.1-1.3-2.7c-0.1-0.1-0.1-0.1-0.2-0.2
	c-2.3-1.8-5.5-2.8-8.1-2.8c-7.5,0-14.1,5.7-14.3,13.6c-0.1,7,5.2,13.8,11.8,16.6c2.8,1.1,6,1.9,9.6,2.1C79.7,78.6,92.2,62.6,92,48
	c0-3.4-0.4-6.7-1.1-9.8C86.4,18.6,68.9,4,48,4C23.7,4,4,23.7,4,48c0,24.3,19.7,44,44,44c10.2,0,19.6-3.5,27-9.3
	c3.2-2.5,3.2-2.5-0.8-0.6c-3.8,1.8-11.3,4.6-20.2,4.2c-23.4-1.1-38.3-18.9-37.6-33.8c0,0,0-0.1,0-0.1C16.6,43.3,24,36,33,35.8
	c1.8-7.7,8.7-13.3,16.9-13.3c8.8,0,16.1,6.6,17.2,15.1c0.7-0.1,1.5-0.2,2.5-0.2c4.2,0,7.9,1.9,10.4,4.9c1.2,1.4,2.2,3,2.7,5.1
	c0.3,1.1,0.5,2.3,0.5,3.5c0,2.3-0.6,4.5-1.6,6.5c-3.3,7.4-11.4,12.1-18.1,12.4c-6.9,0.3-13.5-1.6-16.5-8
	C45.5,58.7,47.1,53.7,51.7,52.8"/>
</svg>
