<?xml version="1.0" encoding="utf-8"?>
<!-- Generator: Adobe Illustrator 21.0.0, SVG Export Plug-In . SVG Version: 6.00 Build 0)  -->
<svg version="1.1" id="Layer_1" xmlns="http://www.w3.org/2000/svg" xmlns:xlink="http://www.w3.org/1999/xlink" x="0px" y="0px"
	 viewBox="0 0 96 96" style="enable-background:new 0 0 96 96;" xml:space="preserve">
<style type="text/css">
	.st0{fill-rule:evenodd;clip-rule:evenodd;}
</style>
<path class="st0" d="M40.1,38.2c1.1-0.8,2.8-2.4,5.8-2.5h41.8v-12c0-7.7-6.2-13.9-13.9-13.9H23.5c-7.6,0-13.9,6.3-13.9,13.9v50.4
	c0,7.7,6.2,13.9,13.9,13.9h50.3c7.6,0,13.9-6.3,13.9-13.9V46h-42c-6.5,1.9-10.4,19.8,1,24.7l25.6,0.1c3.9-0.6,3.7-8.1,0-7.8l-15.4,0
	c-5.7-0.2-5.8-9.6-0.1-10l14.1,0l2.1,0c13.6,0.5,13.1,26.8,1.3,28.1l-2.4,0l-26.4,0c-1.2-0.1-3.8-1.1-5.3-2.3
	C25,67,29.1,45.8,40.1,38.2z M32.1,19.8c0-1.1,0.8-2,1.8-2h47.1c1,0,1.8,0.9,1.8,2v6.6c0,1.1-0.8,2-1.8,2H33.9c-1,0-1.8-0.9-1.8-2
	V19.8z M28.6,46l-11.8-0.1c-5.2-0.8-4.8-9.6,0-10.2h19.4C32.8,37.9,30.2,41.2,28.6,46z"/>
</svg>
