<svg xmlns="http://www.w3.org/2000/svg" width="24" height="24" viewBox="0 0 24 24">
  <path fill-rule="evenodd" d="M3.37697106,13.3206935 L3.37697106,13.9656998 L2.38694811,13.9656998 C2.15698438,13.9656998 2.04690292,14.0357258 2.04690292,14.305745 L2.04690292,14.4156844 C2.04690292,14.6307339 2.13695666,14.7107027 2.38183465,14.7107027 L3.97695054,14.7107027 C4.73686774,14.7107027 5.01682975,14.9606942 5.01682975,15.57573 L5.01682975,15.8457491 C5.01682975,16.4806706 4.73686774,16.7306621 3.97695054,16.7306621 L1.34692686,16.7306621 L1.34692686,16.0856557 L3.9368951,16.0856557 C4.20691427,16.0856557 4.32182511,16.0255725 4.32182511,15.7956088 L4.32182511,15.6105299 C4.32182511,15.3957645 4.20691427,15.3156536 3.94186652,15.3156536 L2.31692209,15.3156536 C1.55189144,15.3156536 1.35189828,15.0356916 1.35189828,14.4507685 L1.35189828,14.2807459 C1.35189828,13.5807698 1.6318603,13.3206935 2.31692209,13.3206935 L3.37697106,13.3206935 Z M9.13191628,13.3206935 L9.13191628,13.9756427 L6.80202437,13.9756427 C6.33698346,13.9756427 6.22207262,14.1107233 6.22207262,14.5307373 L6.22207262,15.5307031 C6.22207262,15.9556886 6.33698346,16.0806843 6.8069958,16.0806843 L9.13191628,16.0806843 L9.13191628,16.7306621 L6.76694035,16.7306621 C5.76200313,16.7306621 5.46698481,16.4207295 5.46698481,15.5606737 L5.46698481,14.4906819 C5.46698481,13.6307681 5.76200313,13.3206935 6.76694035,13.3206935 L9.13191628,13.3206935 Z M10.3820156,13.1457137 L10.3820156,16.7306763 L9.62195633,16.7306763 L9.62195633,13.1457137 L10.3820156,13.1457137 Z M13.1520913,14.0206837 C14.1619999,14.0206837 14.4568762,14.3306163 14.4568762,15.200615 L14.4568762,15.5606879 C14.4568762,16.4207437 14.1619999,16.7306763 13.1520913,16.7306763 L12.2470086,16.7306763 C11.2420714,16.7306763 10.9470531,16.4207437 10.9470531,15.5606879 L10.9470531,15.1956435 C10.9470531,14.3306163 11.2420714,14.0206837 12.2470086,14.0206837 L13.1520913,14.0206837 Z M15.7571868,14.0206695 L15.7571868,15.5406459 C15.7571868,16.0005734 15.9120111,16.0957406 16.3671092,16.0957406 L17.1470541,16.0957406 C17.6319807,16.0957406 17.7571184,16.0005734 17.7571184,15.5406459 L17.7571184,14.0206695 L18.4970079,14.0206695 L18.4970079,15.5606737 C18.4970079,16.4207295 18.2021316,16.7306621 17.1869675,16.7306621 L16.307168,16.7306621 C15.3020888,16.7306621 15.0070704,16.4207295 15.0070704,15.5606737 L15.0070704,14.0206695 L15.7571868,14.0206695 Z M22.6022652,13.1457137 L22.6022652,15.5606879 C22.6022652,16.4207437 22.3072469,16.7306763 21.2971962,16.7306763 L20.3523422,16.7306763 C19.3373201,16.7306763 19.0423017,16.4207437 19.0423017,15.5606879 L19.0423017,15.1956435 C19.0423017,14.3306163 19.3373201,14.0206837 20.3523422,14.0206837 L21.8572623,14.0206837 L21.8572623,13.1457137 L22.6022652,13.1457137 Z M13.0519527,14.6607187 L12.3471472,14.6607187 C11.8170517,14.6607187 11.6919139,14.7607152 11.6919139,15.2206427 L11.6919139,15.5406602 C11.6919139,15.9906448 11.8170517,16.1007262 12.3471472,16.1007262 L13.0519527,16.1007262 C13.591991,16.1007262 13.7120153,15.9906448 13.7120153,15.5406602 L13.7120153,15.2206427 C13.7120153,14.7607152 13.591991,14.6607187 13.0519527,14.6607187 Z M21.8572623,14.6607187 L20.4422539,14.6607187 C19.9172718,14.6607187 19.7873047,14.7357161 19.7873047,15.2206427 L19.7873047,15.5406602 C19.7873047,16.0157859 19.9172718,16.1007262 20.4472253,16.1007262 L21.2771685,16.1007262 C21.7473229,16.1007262 21.8572623,15.9956162 21.8572623,15.5457736 L21.8572623,14.6607187 Z M15.2241511,9.04275739 C15.6955838,8.69262732 16.3199943,8.58155158 16.8905714,8.6967465 C17.7432411,8.86094543 18.4493249,9.57825044 18.6062797,10.4314883 C19.1929074,10.2935669 19.8354991,10.3860353 20.3410215,10.7201148 C20.9287855,11.0935395 21.3057613,11.7581475 21.3470951,12.4513056 C21.353913,12.4606803 21.360873,12.470339 21.367691,12.4798557 C21.46925,12.5714719 21.5335944,12.7035697 21.5335944,12.8511499 C21.5335944,13.1275609 21.3094543,13.3515589 21.0331854,13.3515589 C20.7569164,13.3515589 20.5329184,13.1275609 20.5329184,12.8511499 C20.5329184,12.6737412 20.6255288,12.5182067 20.7648707,12.4294313 C20.7148724,11.6364187 20.0069421,10.9571806 19.2115147,10.9442549 C18.7994549,10.9122957 18.4250359,11.1049028 18.0712128,11.2882772 C18.0670936,10.9934009 18.0950756,10.6907124 18.0097092,10.4035063 C17.8915314,9.98320818 17.5939564,9.61702753 17.2073219,9.4150458 C16.69697,9.13920296 16.0538102,9.18508207 15.5498502,9.45254452 C15.5622077,9.49600894 15.5691677,9.54174601 15.5691677,9.58918757 C15.5691677,9.86503041 15.3454538,10.0886023 15.069753,10.0886023 C14.7937681,10.0886023 14.5700541,9.86503041 14.5700541,9.58918757 C14.5700541,9.31334473 14.7937681,9.08963079 15.069753,9.08963079 C15.0933317,9.08963079 15.1164843,9.0917614 15.1392108,9.09502833 C15.1693234,9.08039815 15.1980156,9.06363736 15.2241511,9.04275739 Z M3.75475644,12.132396 C3.94523288,12.132396 4.11142038,12.2340971 4.20360472,12.3857965 C5.12189718,12.3948871 6.04104188,12.3809671 6.95947638,12.3917622 C7.08688679,12.618459 7.26401141,12.8134807 7.47593598,12.9621972 C6.37782013,12.9631915 5.2794202,12.9612029 4.18130435,12.9636176 C4.08599511,13.0964256 3.93074474,13.1830703 3.75475644,13.1830703 C3.4645675,13.1830703 3.22934827,12.9479931 3.22934827,12.6578042 C3.22934827,12.3676153 3.4645675,12.132396 3.75475644,12.132396 Z M21.0223903,12.6230327 C20.8902925,12.6230327 20.783336,12.7301313 20.783336,12.861945 C20.783336,12.9940427 20.8902925,13.1011413 21.0223903,13.1011413 C21.154346,13.1011413 21.2614446,12.9940427 21.2614446,12.861945 C21.2614446,12.7301313 21.154346,12.6230327 21.0223903,12.6230327 Z M3.75475644,12.4147727 C3.62052808,12.4147727 3.51186702,12.5235758 3.51186702,12.6578042 C3.51186702,12.7918905 3.62052808,12.9006936 3.75475644,12.9006936 C3.88884276,12.9006936 3.99764586,12.7918905 3.99764586,12.6578042 C3.99764586,12.5235758 3.88884276,12.4147727 3.75475644,12.4147727 Z M10.5548506,7.6282035 C11.462632,7.12069245 12.6184163,7.11472675 13.5364247,7.59965334 C13.5929569,7.57678481 13.6547445,7.56385911 13.7195151,7.56385911 C13.9892501,7.56385911 14.2079927,7.78260163 14.2079927,8.05247876 C14.2079927,8.3223559 13.9892501,8.54109842 13.7195151,8.54109842 C13.4645522,8.54109842 13.2554684,8.3457926 13.233168,8.09665339 C12.6394384,7.77947674 11.9134689,7.73302946 11.2752805,7.93955649 C10.5630889,8.16483288 9.96765474,8.72092181 9.68882905,9.4129436 C9.5868439,9.65029343 9.54139091,9.90554039 9.50417627,10.159651 C9.21540774,9.94332318 8.85675523,9.81520257 8.46813216,9.81520257 C7.51276711,9.81520257 6.7380777,10.589892 6.7380777,11.545257 C6.7380777,11.6897123 6.75611685,11.8297643 6.78935435,11.9638507 C5.29906442,11.947374 3.80792223,11.9588792 2.31720618,11.958027 C2.22189693,12.0860056 2.0699135,12.1690993 1.89818642,12.1690993 C1.60955992,12.1690993 1.37547702,11.9351585 1.37547702,11.646532 C1.37547702,11.3579055 1.60955992,11.1238226 1.89818642,11.1238226 C2.08994122,11.1238226 2.25698096,11.2273702 2.34788694,11.3812001 C3.64628004,11.3827626 4.94467313,11.3812001 6.24249806,11.3817683 C6.27048005,10.7810786 6.54049923,10.1917522 6.99957444,9.79929402 C7.55949847,9.30570295 8.37850455,9.13212934 9.09026997,9.35882613 C9.35361324,8.6327146 9.87220346,7.99637273 10.5548506,7.6282035 Z M1.89818642,11.4020801 C1.76324785,11.4020801 1.65387659,11.5115934 1.65387659,11.646532 C1.65387659,11.7814705 1.76324785,11.8908418 1.89818642,11.8908418 C2.03312498,11.8908418 2.14263828,11.7814705 2.14263828,11.646532 C2.14263828,11.5115934 2.03312498,11.4020801 1.89818642,11.4020801 Z M15.8086481,7.66850042 C16.7542124,7.45728605 17.7896883,7.71906687 18.5226178,8.35327814 C18.8470385,8.62542792 19.0993026,8.97186493 19.2984436,9.34330109 C19.5264187,9.38193614 19.7001344,9.57979869 19.7001344,9.81871097 C19.7001344,10.0853212 19.4840906,10.301507 19.2174804,10.301507 C18.9508702,10.301507 18.7348265,10.0853212 18.7348265,9.81871097 C18.7348265,9.74215109 18.7530077,9.66985242 18.7848248,9.60550803 C18.4131045,8.8394831 17.6402616,8.28722926 16.7931315,8.19007349 C15.8014041,8.05627125 14.7221796,8.5644925 14.2660873,9.46829682 C13.6720735,9.01121018 12.76415,9.09856515 12.2349067,9.61545088 C12.0871845,9.75252005 11.9717055,9.92069612 11.8846346,10.1019399 C11.9704271,10.1914255 12.0235503,10.3124441 12.0235503,10.4461043 C12.0235503,10.7206688 11.8009727,10.9433884 11.5262662,10.9433884 C11.2517017,10.9433884 11.0291241,10.7206688 11.0291241,10.4461043 C11.0291241,10.2584687 11.1330978,10.095264 11.2866437,10.0106078 C11.3830893,9.84967582 11.4475757,9.66900018 11.5634808,9.51886327 C12.1015306,8.73962856 13.1706702,8.39773684 14.0636794,8.71420329 C14.5186354,8.19632328 15.1306884,7.81210346 15.8086481,7.66850042 Z M11.5262662,10.2016524 C11.3913276,10.2016524 11.2818143,10.3110237 11.2818143,10.4461043 C11.2818143,10.5811849 11.3913276,10.6905561 11.5262662,10.6905561 C11.6613468,10.6905561 11.7708601,10.5811849 11.7708601,10.4461043 C11.7708601,10.3110237 11.6613468,10.2016524 11.5262662,10.2016524 Z M19.2174804,9.58093501 C19.0860929,9.58093501 18.9797045,9.68746546 18.9797045,9.81871097 C18.9797045,9.94995648 19.0860929,10.0564869 19.2174804,10.0564869 C19.3487259,10.0564869 19.4552564,9.94995648 19.4552564,9.81871097 C19.4552564,9.68746546 19.3487259,9.58093501 19.2174804,9.58093501 Z M15.069753,9.34416754 C14.9343883,9.34416754 14.8245909,9.45382288 14.8245909,9.58918757 C14.8245909,9.72455226 14.9343883,9.83406556 15.069753,9.83406556 C15.2049756,9.83406556 15.3146309,9.72455226 15.3146309,9.58918757 C15.3146309,9.45382288 15.2049756,9.34416754 15.069753,9.34416754 Z M13.7195151,7.8374293 C13.6007691,7.8374293 13.5044656,7.93373283 13.5044656,8.05247876 C13.5044656,8.1712247 13.6007691,8.26752823 13.7195151,8.26752823 C13.838261,8.26752823 13.9345645,8.1712247 13.9345645,8.05247876 C13.9345645,7.93373283 13.838261,7.8374293 13.7195151,7.8374293 Z"/>
</svg>
