<?xml version="1.0" encoding="utf-8"?>
<!-- Generator: Adobe Illustrator 22.1.0, SVG Export Plug-In . SVG Version: 6.00 Build 0)  -->
<svg version="1.1" id="Layer_1" xmlns="http://www.w3.org/2000/svg" xmlns:xlink="http://www.w3.org/1999/xlink" x="0px" y="0px"
	 viewBox="0 0 96 96" style="enable-background:new 0 0 96 96;" xml:space="preserve">
<path d="M4,86.5V71.9h62.1c6.5,0,9.2-1.4,9.2-6.6v-4.2c0-4.8-2.8-6.7-9.1-6.7h-39C8.9,54.5,4.1,48.2,4.1,35v-3.8
	c0-15.8,6.7-21.7,23.1-21.7h25.4v14.6H28.9c-5.5,0-8.2,1.6-8.2,7.7v2.5c0,4.9,2.2,6.7,8,6.7h38.2c18.2,0,24.9,5.6,24.9,19.5v6.1
	c0,14.3-6.7,20-24.9,20H4z"/>
</svg>
