<?xml version="1.0" encoding="utf-8"?>
<!-- Generator: Adobe Illustrator 22.1.0, SVG Export Plug-In . SVG Version: 6.00 Build 0)  -->
<svg version="1.1" id="Layer_1" xmlns="http://www.w3.org/2000/svg" xmlns:xlink="http://www.w3.org/1999/xlink" x="0px" y="0px"
	 viewBox="0 0 96 96" style="enable-background:new 0 0 96 96;" xml:space="preserve">
<g>
	<path d="M69.6,31.6H65c-3.1-9.3-11.9-15.9-22.2-15.9c-10.7,0-19.8,7.3-22.5,17.2C9.9,35.1,2,44.4,2,55.6c0,10.2,6.5,18.8,15.6,22
		l1.5-5.6c-6.6-2.5-11.3-9-11.3-16.4c0-7.7,4.9-14.2,11.7-16.6c1.8-0.6,3.8-1,5.8-1c0.1-2,0.6-4,1.3-5.7c2.7-6.4,8.9-10.9,16.3-10.9
		c7.1,0,13.2,4.2,16,10.3c0.8,1.7,1.3,3.6,1.5,5.6c0.2,0,0.4,0,0.5,0h5.2h3.4c10.3,0,18.7,8.4,18.7,18.7c0,10-7.9,18.3-17.9,18.7
		c2.1-3,2.8-6.8,2-10.3h-6h-5.6l-1.5,5.8h7.1c-0.4,0.8-0.9,1.6-1.5,2.2c-2.8,2.8-7.5,3-10.2,0c-3.1-3.4-8.6-10.9-11.7-14.3
		c-3.5-3.9-8.9-4.8-13.6-3l1.3-5.1h11.5l1.5-5.8H32.3h-5.8L25,50l-3.6,13.6c-0.1,0.3-0.2,0.6-0.2,0.9H27h0.3
		c0.4-0.8,0.9-1.6,1.5-2.2c2.8-2.8,7.5-3,10.2,0C42,65.6,47.6,73,50.6,76.5c2.4,2.7,5.8,4,9.3,3.9c0.3,0,0.7,0,1,0h8.6
		C83,80.4,94,69.4,94,56S83,31.6,69.6,31.6z"/>
	<path d="M66.3,63c0.3,0,0.5-0.2,0.5-0.5c0-0.3-0.2-0.5-0.5-0.5c-0.3,0-0.5,0.2-0.5,0.5C65.7,62.7,66,63,66.3,63z"/>
	<path d="M69.9,60c-0.3,0-0.6,0.3-0.6,0.6c0,0.3,0.3,0.6,0.6,0.6c0.3,0,0.6-0.3,0.6-0.6C70.5,60.3,70.2,60,69.9,60z"/>
	<path d="M50.6,58.1c-0.9,1-2.1,2.5-3.4,4.1c0.8,1,1.6,2,2.4,3c0.4,0.5,0.9,1.1,1.3,1.6c1.4-1.8,2.8-3.4,3.8-4.6
		c2.3-2.6,6.1-2.8,9-1c0.1,0.1,0.2,0,0.3-0.1c0-0.1,0-0.2,0-0.3c-0.1-0.1-0.2-0.4-0.1-0.6c0-0.2,0.2-0.4,0.4-0.4
		c0.1,0,0.2-0.1,0.3,0c0.1,0,0.3,0,0.3-0.2c0.1-0.1,0.1-0.3,0-0.4c-0.1-0.2-0.2-0.4-0.1-0.6c0.1-0.2,0.2-0.4,0.4-0.4
		c0.1,0,0.3,0,0.4,0c0.1,0,0.3,0,0.4-0.1c0.1-0.1,0.1-0.3,0-0.4c-0.1-0.1-0.2-0.4-0.1-0.6c0.1-0.2,0.2-0.4,0.4-0.5
		c0.1,0,0.3,0,0.4,0c0.1,0,0.2,0,0.3-0.1c0.1-0.1,0-0.3-0.1-0.3C61.6,53.1,54.8,53.6,50.6,58.1z M62.6,55c0.4,0,0.6,0.3,0.6,0.6
		c0,0.4-0.3,0.6-0.6,0.6c-0.4,0-0.6-0.3-0.6-0.6C62,55.2,62.2,55,62.6,55z M60.7,54.7c0.3,0,0.6,0.3,0.6,0.6c0,0.3-0.3,0.6-0.6,0.6
		c-0.3,0-0.6-0.3-0.6-0.6C60.1,55,60.3,54.7,60.7,54.7z M58.1,55.3c0-0.3,0.3-0.6,0.6-0.6s0.6,0.3,0.6,0.6c0,0.3-0.3,0.6-0.6,0.6
		S58.1,55.6,58.1,55.3z M59.5,57.8c-0.3,0-0.6-0.3-0.6-0.6c0-0.3,0.3-0.6,0.6-0.6c0.3,0,0.6,0.3,0.6,0.6
		C60.1,57.6,59.8,57.8,59.5,57.8z M60.6,59.7c-0.4,0-0.6-0.3-0.6-0.6c0-0.4,0.3-0.6,0.6-0.6c0.4,0,0.6,0.3,0.6,0.6
		C61.2,59.4,60.9,59.7,60.6,59.7z M61.6,58c-0.4,0-0.6-0.3-0.6-0.6c0-0.4,0.3-0.6,0.6-0.6c0.4,0,0.6,0.3,0.6,0.6
		C62.3,57.7,62,58,61.6,58z M62.8,60.3c-0.4,0-0.7-0.3-0.7-0.7c0-0.4,0.3-0.7,0.7-0.7s0.7,0.3,0.7,0.7C63.5,60,63.2,60.3,62.8,60.3z
		 M63.7,58.6c-0.4,0-0.7-0.3-0.7-0.7c0-0.4,0.3-0.7,0.7-0.7c0.4,0,0.7,0.3,0.7,0.7C64.4,58.3,64.1,58.6,63.7,58.6z M64.7,57
		c-0.4,0-0.7-0.3-0.7-0.7c0-0.4,0.3-0.7,0.7-0.7c0.4,0,0.7,0.3,0.7,0.7C65.4,56.7,65.1,57,64.7,57z"/>
	<path d="M71,63c0.3,0,0.6-0.3,0.6-0.6c0-0.3-0.3-0.6-0.6-0.6c-0.3,0-0.6,0.3-0.6,0.6C70.4,62.7,70.7,63,71,63z"/>
	<path d="M65,60.3c-0.3,0-0.6,0.3-0.6,0.6c0,0.3,0.3,0.6,0.6,0.6c0.3,0,0.6-0.3,0.6-0.6C65.6,60.6,65.4,60.3,65,60.3z"/>
	<path d="M66.7,59.4c0-0.4-0.3-0.6-0.6-0.6c-0.4,0-0.6,0.3-0.6,0.6c0,0.4,0.3,0.6,0.6,0.6C66.4,60,66.7,59.7,66.7,59.4z"/>
	<path d="M68.6,61.9c-0.3,0-0.5,0.2-0.5,0.5c0,0.3,0.2,0.5,0.5,0.5c0.3,0,0.5-0.2,0.5-0.5C69.2,62.1,68.9,61.9,68.6,61.9z"/>
	<path d="M66.9,60.8c0,0.3,0.3,0.6,0.6,0.6c0.3,0,0.6-0.3,0.6-0.6c0-0.3-0.3-0.6-0.6-0.6C67.2,60.2,66.9,60.4,66.9,60.8z"/>
	<path d="M68.6,58.4c-0.4,0-0.6,0.3-0.6,0.6c0,0.4,0.3,0.6,0.6,0.6c0.4,0,0.6-0.3,0.6-0.6C69.2,58.7,69,58.4,68.6,58.4z"/>
	<path d="M67,57.1c-0.4,0-0.7,0.3-0.7,0.7c0,0.4,0.3,0.7,0.7,0.7c0.4,0,0.7-0.3,0.7-0.7C67.7,57.4,67.4,57.1,67,57.1z"/>
	<path d="M25,74.6c-0.4,0-0.7,0.3-0.7,0.7c0,0.4,0.3,0.7,0.7,0.7c0.4,0,0.7-0.3,0.7-0.7C25.7,74.9,25.4,74.6,25,74.6z"/>
	<path d="M23.7,73.1c-0.4,0-0.7,0.3-0.7,0.6c0,0.4,0.3,0.7,0.6,0.7c0.4,0,0.7-0.3,0.7-0.6C24.4,73.4,24.1,73.1,23.7,73.1z"/>
	<path d="M42.8,67.8c-1.4,1.8-2.8,3.4-3.8,4.6c-2.1,2.3-5.4,2.7-8.1,1.5c-0.1,0-0.2,0-0.3,0l0,0c-0.1,0.1-0.1,0.2,0,0.3
		c0.1,0.2,0.1,0.3,0.1,0.5c-0.1,0.2-0.2,0.4-0.5,0.5c-0.2,0.1-0.4,0-0.5-0.1c-0.1-0.1-0.2-0.1-0.3,0l-0.1,0.1
		c-0.1,0.1-0.1,0.2,0,0.3c0.1,0.2,0.1,0.3,0,0.5c-0.1,0.2-0.2,0.4-0.5,0.5c-0.2,0.1-0.4,0-0.6-0.1c-0.1,0-0.2,0-0.3,0l0,0
		c-0.1,0.1-0.1,0.2,0,0.3c0.1,0.1,0.1,0.3,0.1,0.5c0,0.2-0.2,0.4-0.3,0.5c-0.3,0.2-0.5,0.1-0.7,0c-0.1-0.1-0.2-0.1-0.3,0
		c-0.1,0.1-0.1,0.2,0,0.3c5.1,3.4,12.2,3,16.4-1.7c1-1.1,2.1-2.5,3.4-4.1c-0.6-0.8-1.3-1.6-1.9-2.4C43.9,69.3,43.4,68.5,42.8,67.8z
		 M33.2,75c0.3,0,0.6,0.3,0.6,0.6c0,0.3-0.3,0.6-0.6,0.6c-0.3,0-0.6-0.3-0.6-0.6C32.6,75.3,32.8,75,33.2,75z M31.5,74.7
		c0.4,0,0.6,0.3,0.6,0.6c0,0.4-0.3,0.6-0.6,0.6s-0.6-0.3-0.6-0.6C30.8,75,31.1,74.7,31.5,74.7z M29.1,78.9c-0.4,0-0.7-0.3-0.7-0.7
		c0-0.4,0.3-0.7,0.7-0.7c0.4,0,0.7,0.3,0.7,0.7C29.7,78.6,29.4,78.9,29.1,78.9z M29.5,76.8c0-0.4,0.3-0.7,0.7-0.7
		c0.4,0,0.7,0.3,0.7,0.7c0,0.4-0.3,0.7-0.7,0.7C29.8,77.5,29.5,77.2,29.5,76.8z M31,79.5c-0.4,0-0.6-0.3-0.6-0.6s0.3-0.6,0.6-0.6
		c0.4,0,0.6,0.3,0.6,0.6S31.3,79.5,31,79.5z M31.4,77.3c0-0.4,0.3-0.6,0.6-0.6c0.4,0,0.6,0.3,0.6,0.6S32.4,78,32.1,78
		C31.7,78,31.4,77.7,31.4,77.3z M32.9,79.9c-0.3,0-0.6-0.3-0.6-0.6c0-0.3,0.3-0.6,0.6-0.6c0.3,0,0.6,0.3,0.6,0.6
		C33.5,79.6,33.3,79.9,32.9,79.9z M33.9,78.2c-0.3,0-0.6-0.3-0.6-0.6c0-0.3,0.3-0.6,0.6-0.6c0.3,0,0.6,0.3,0.6,0.6
		C34.5,77.9,34.3,78.2,33.9,78.2z M35,79.9c-0.3,0-0.6-0.3-0.6-0.6s0.3-0.6,0.6-0.6c0.3,0,0.6,0.3,0.6,0.6S35.3,79.9,35,79.9z"/>
	<path d="M24.3,69.6c-0.3,0-0.6,0.2-0.6,0.6c0,0.3,0.2,0.6,0.6,0.6c0.3,0,0.6-0.2,0.6-0.6C24.9,69.9,24.6,69.6,24.3,69.6z"/>
	<path d="M22.7,70.2c0-0.3-0.2-0.6-0.6-0.6c-0.3,0-0.6,0.2-0.6,0.6c0,0.3,0.2,0.6,0.6,0.6C22.5,70.8,22.7,70.5,22.7,70.2z"/>
	<path d="M23.4,72.1c0-0.3-0.3-0.6-0.6-0.6c-0.3,0-0.6,0.3-0.6,0.6c0,0.3,0.3,0.6,0.6,0.6C23.1,72.7,23.4,72.5,23.4,72.1z"/>
	<path d="M25.1,72.7c0.3,0,0.6-0.3,0.6-0.6c0-0.3-0.3-0.6-0.6-0.6c-0.3,0-0.6,0.3-0.6,0.6C24.5,72.4,24.8,72.7,25.1,72.7z"/>
	<path d="M27.4,71.7c-0.3,0-0.6,0.3-0.6,0.6c0,0.3,0.3,0.6,0.6,0.6c0.3,0,0.6-0.3,0.6-0.6C28,72,27.8,71.7,27.4,71.7z"/>
	<path d="M26.4,69.6c-0.3,0-0.5,0.2-0.6,0.5c0,0.3,0.2,0.5,0.5,0.6c0.3,0,0.5-0.2,0.6-0.5C27,69.9,26.7,69.6,26.4,69.6z"/>
	<path d="M26.3,74.5c0.4,0,0.7-0.3,0.7-0.6c0-0.4-0.3-0.7-0.6-0.7c-0.4,0-0.7,0.3-0.7,0.6C25.6,74.2,25.9,74.5,26.3,74.5z"/>
	<path d="M27.3,76.7c0-0.4-0.3-0.7-0.7-0.7c-0.4,0-0.7,0.3-0.7,0.7c0,0.4,0.3,0.7,0.7,0.7C26.9,77.4,27.2,77.1,27.3,76.7z"/>
	<path d="M29.2,74.7c0.4,0,0.7-0.3,0.7-0.7c0-0.4-0.3-0.7-0.7-0.7c-0.4,0-0.7,0.3-0.7,0.7C28.5,74.4,28.8,74.7,29.2,74.7z"/>
	<path d="M27.9,74.7c-0.4,0-0.7,0.3-0.7,0.7c0,0.4,0.3,0.7,0.7,0.7s0.7-0.3,0.7-0.7C28.6,75,28.3,74.7,27.9,74.7z"/>
</g>
</svg>
