<?xml version="1.0" encoding="utf-8"?>
<!-- Generator: Adobe Illustrator 22.1.0, SVG Export Plug-In . SVG Version: 6.00 Build 0)  -->
<svg version="1.1" id="Layer_1" xmlns="http://www.w3.org/2000/svg" xmlns:xlink="http://www.w3.org/1999/xlink" x="0px" y="0px"
	 viewBox="0 0 96 96" style="enable-background:new 0 0 96 96;" xml:space="preserve">
<g>
	<path d="M64.7,56.3l0.4,2.4h-2c1-4.3,1.5-6.7,1.5-7.2h3.6l0-1.1h-8.2l0,1.1H62l-3.2,8.7l9,0l-0.7-3.9H64.7z"/>
	<path d="M72.5,46h-3l0,1.8h-1.6l0,1h1.6c-0.1,3.8-0.6,7.6-1.5,11.3h3.2l0.2-0.9l1.7,0.9h2.9l0.3-12.3h-3.8L72.5,46z M73.2,48.8
		L72.9,59l-1.4-0.7c0.2-1.2,0.4-2.3,0.5-3.5c0.2-2,0.3-3.9,0.4-5.9H73.2z"/>
	<polygon points="93.9,52.3 93.9,51.2 78.5,51.2 78.4,52.3 82.5,52.3 79.2,59.2 79.3,60.1 93.5,60 92.3,56.1 88.8,56.1 89.6,59 
		83,59 86.1,52.3 	"/>
	<polygon points="93.1,46.6 78.6,46.6 78.5,47.7 93.1,47.7 	"/>
	<polygon points="41.4,60.4 43.8,60.4 44.2,51 43,51 	"/>
	<polygon points="49.4,49.5 47.6,49.4 47.5,47.5 49.3,47.5 49.3,47.1 49.3,47.1 49.3,47.1 49.3,46.4 42.3,46.4 42.3,47.5 44.7,47.5 
		44.7,49.4 42.4,49.4 42.4,50.5 44.6,50.6 44.5,60.4 47.3,60.4 47.5,50.6 49.4,50.6 	"/>
	<path d="M58.9,53.2l-4.2,0l0.5-0.7h-1.5l0.2-0.1l0.9-0.6c0.9-0.8,1.5-1.4,1.8-1.7c0.3-0.3,1.1-1.1,2.4-2.4l0-1l-4.9,0l0.7-1.1
		l-2.9,0L50,48.1h3.3l0.4-0.5l1.8,0c-0.5,0.7-1.2,1.4-2,2.1c-0.2-0.3-0.3-0.5-0.4-0.8l-3.1,0c0.3,0.3,0.8,1,1.5,2.1l-2,1.4l2.6,0.1
		c-0.6,0.7-1.5,1.6-2.7,2.4l3.8,0l0.9-0.7h0.4l0.7,0c0,0.2-0.1,0.3-0.1,0.4c0,0.1-0.5,0.7-1.3,1.8l-1.5-1.4l-2.4,0.1l2.5,2.5
		c-0.6,0.7-1.6,1.5-2.9,2.5l3.9,0.1c2.1-1.6,4-3.7,5.7-6.3L58.9,53.2z"/>
	<path d="M47.8,51l0.1,9.4h1.1l0.1-9.4C49.2,51,48.2,51.1,47.8,51z"/>
	<polygon points="67.2,47.3 60.2,47.3 60.2,48.4 67.2,48.4 	"/>
	<path d="M28.9,41.4h-1.8c-1.2-3.7-4.7-6.4-8.9-6.4c-4.3,0-7.9,2.9-9,6.9c-4.2,0.9-7.3,4.7-7.3,9.1c0,4.1,2.6,7.5,6.2,8.8l0.6-2.2
		c-2.6-1-4.5-3.6-4.5-6.6c0-3.1,2-5.7,4.7-6.6c0.7-0.3,1.5-0.4,2.3-0.4c0-0.8,0.2-1.6,0.5-2.3c1.1-2.5,3.6-4.3,6.5-4.3
		c2.8,0,5.3,1.7,6.4,4.1c0.3,0.7,0.5,1.4,0.6,2.2c0.1,0,0.1,0,0.2,0h2.1h1.4c4.1,0,7.5,3.4,7.5,7.5c0,4-3.2,7.3-7.1,7.5
		c0.8-1.2,1.1-2.7,0.8-4.1h-2.4h-2.2l-0.6,2.3h2.8c-0.1,0.3-0.3,0.6-0.6,0.9c-1.1,1.1-3,1.2-4.1,0c-1.2-1.4-3.4-4.3-4.7-5.7
		c-1.4-1.5-3.6-1.9-5.4-1.2l0.5-2H18l0.6-2.3H14h-2.3l-0.6,2.3l-1.4,5.4c0,0.1-0.1,0.2-0.1,0.3h2.3H12c0.1-0.3,0.3-0.6,0.6-0.9
		c1.1-1.1,3-1.2,4.1,0c1.2,1.4,3.4,4.3,4.7,5.7c1,1.1,2.3,1.6,3.7,1.6c0.1,0,0.3,0,0.4,0h3.5c5.4,0,9.8-4.4,9.8-9.8
		C38.7,45.8,34.3,41.4,28.9,41.4z"/>
	<path d="M27.6,54c0.1,0,0.2-0.1,0.2-0.2c0-0.1-0.1-0.2-0.2-0.2s-0.2,0.1-0.2,0.2C27.4,53.9,27.5,54,27.6,54z"/>
	<path d="M29.1,52.8c-0.1,0-0.2,0.1-0.2,0.2c0,0.1,0.1,0.2,0.2,0.2c0.1,0,0.2-0.1,0.2-0.2C29.3,52.9,29.2,52.8,29.1,52.8z"/>
	<path d="M21.4,52c-0.4,0.4-0.8,1-1.4,1.6c0.3,0.4,0.6,0.8,0.9,1.2c0.2,0.2,0.3,0.4,0.5,0.7c0.6-0.7,1.1-1.4,1.5-1.8
		c0.9-1,2.5-1.1,3.6-0.4c0,0,0.1,0,0.1,0c0,0,0-0.1,0-0.1c-0.1-0.1-0.1-0.1-0.1-0.2c0-0.1,0.1-0.1,0.2-0.2c0,0,0.1,0,0.1,0
		c0.1,0,0.1,0,0.1-0.1c0-0.1,0-0.1,0-0.2c-0.1-0.1-0.1-0.1-0.1-0.2c0-0.1,0.1-0.2,0.2-0.2c0.1,0,0.1,0,0.1,0c0.1,0,0.1,0,0.1-0.1
		c0,0,0-0.1,0-0.1c-0.1-0.1-0.1-0.1-0.1-0.2c0-0.1,0.1-0.2,0.2-0.2c0.1,0,0.1,0,0.1,0c0,0,0.1,0,0.1,0c0,0,0-0.1,0-0.1
		C25.7,50,23,50.2,21.4,52z M26.1,50.8c0.1,0,0.3,0.1,0.3,0.3c0,0.1-0.1,0.3-0.3,0.3c-0.1,0-0.3-0.1-0.3-0.3
		C25.9,50.9,26,50.8,26.1,50.8z M25.4,50.7c0.1,0,0.2,0.1,0.2,0.2s-0.1,0.2-0.2,0.2c-0.1,0-0.2-0.1-0.2-0.2S25.2,50.7,25.4,50.7z
		 M24.3,50.9c0-0.1,0.1-0.2,0.2-0.2s0.2,0.1,0.2,0.2c0,0.1-0.1,0.2-0.2,0.2S24.3,51,24.3,50.9z M24.9,51.9c-0.1,0-0.2-0.1-0.2-0.2
		c0-0.1,0.1-0.2,0.2-0.2s0.2,0.1,0.2,0.2C25.1,51.8,25,51.9,24.9,51.9z M25.3,52.7c-0.1,0-0.3-0.1-0.3-0.3c0-0.1,0.1-0.3,0.3-0.3
		c0.1,0,0.3,0.1,0.3,0.3C25.6,52.6,25.5,52.7,25.3,52.7z M25.8,52c-0.1,0-0.3-0.1-0.3-0.3c0-0.1,0.1-0.3,0.3-0.3
		c0.1,0,0.3,0.1,0.3,0.3C26,51.9,25.9,52,25.8,52z M26.2,52.9c-0.2,0-0.3-0.1-0.3-0.3c0-0.2,0.1-0.3,0.3-0.3s0.3,0.1,0.3,0.3
		C26.5,52.8,26.4,52.9,26.2,52.9z M26.6,52.2c-0.2,0-0.3-0.1-0.3-0.3s0.1-0.3,0.3-0.3s0.3,0.1,0.3,0.3S26.7,52.2,26.6,52.2z
		 M27,51.6c-0.2,0-0.3-0.1-0.3-0.3S26.8,51,27,51c0.2,0,0.3,0.1,0.3,0.3S27.1,51.6,27,51.6z"/>
	<path d="M29.5,54c0.1,0,0.2-0.1,0.2-0.2c0-0.1-0.1-0.2-0.2-0.2s-0.2,0.1-0.2,0.2C29.3,53.9,29.4,54,29.5,54z"/>
	<circle cx="27.1" cy="53.2" r="0.2"/>
	<path d="M27.8,52.5c0-0.1-0.1-0.3-0.3-0.3c-0.1,0-0.3,0.1-0.3,0.3c0,0.1,0.1,0.3,0.3,0.3C27.7,52.8,27.8,52.7,27.8,52.5z"/>
	<path d="M28.6,53.6c-0.1,0-0.2,0.1-0.2,0.2c0,0.1,0.1,0.2,0.2,0.2s0.2-0.1,0.2-0.2C28.8,53.7,28.7,53.6,28.6,53.6z"/>
	<path d="M27.9,53.1c0,0.1,0.1,0.2,0.2,0.2s0.2-0.1,0.2-0.2c0-0.1-0.1-0.2-0.2-0.2S27.9,53,27.9,53.1z"/>
	<path d="M28.5,52.2c-0.1,0-0.3,0.1-0.3,0.3c0,0.1,0.1,0.3,0.3,0.3c0.1,0,0.3-0.1,0.3-0.3C28.8,52.3,28.7,52.2,28.5,52.2z"/>
	<circle cx="27.9" cy="51.9" r="0.3"/>
	<path d="M11.1,58.6c-0.2,0-0.3,0.1-0.3,0.3c0,0.2,0.1,0.3,0.3,0.3c0.2,0,0.3-0.1,0.3-0.3C11.4,58.8,11.3,58.6,11.1,58.6z"/>
	<path d="M10.6,58c-0.1,0-0.3,0.1-0.3,0.3c0,0.1,0.1,0.3,0.3,0.3c0.1,0,0.3-0.1,0.3-0.3C10.9,58.2,10.8,58,10.6,58z"/>
	<path d="M18.2,55.9c-0.6,0.7-1.1,1.4-1.5,1.8c-0.8,0.9-2.2,1.1-3.2,0.6c0,0-0.1,0-0.1,0l0,0c0,0,0,0.1,0,0.1c0,0.1,0,0.1,0,0.2
		c0,0.1-0.1,0.2-0.2,0.2c-0.1,0-0.2,0-0.2,0c0,0-0.1,0-0.1,0l0,0c0,0,0,0.1,0,0.1c0,0.1,0,0.1,0,0.2c0,0.1-0.1,0.2-0.2,0.2
		c-0.1,0-0.2,0-0.2,0c0,0-0.1,0-0.1,0l0,0c0,0,0,0.1,0,0.1c0,0.1,0,0.1,0,0.2c0,0.1-0.1,0.2-0.1,0.2c-0.1,0.1-0.2,0-0.3,0
		c0,0-0.1,0-0.1,0c0,0,0,0.1,0,0.1c2,1.4,4.9,1.2,6.6-0.7c0.4-0.4,0.9-1,1.4-1.6c-0.2-0.3-0.5-0.6-0.8-1
		C18.7,56.5,18.5,56.2,18.2,55.9z M14.4,58.8c0.1,0,0.2,0.1,0.2,0.2s-0.1,0.2-0.2,0.2s-0.2-0.1-0.2-0.2S14.3,58.8,14.4,58.8z
		 M13.7,58.7c0.1,0,0.3,0.1,0.3,0.3c0,0.1-0.1,0.3-0.3,0.3c-0.1,0-0.3-0.1-0.3-0.3C13.5,58.8,13.6,58.7,13.7,58.7z M12.7,60.4
		c-0.2,0-0.3-0.1-0.3-0.3s0.1-0.3,0.3-0.3s0.3,0.1,0.3,0.3S12.9,60.4,12.7,60.4z M12.9,59.5c0-0.2,0.1-0.3,0.3-0.3s0.3,0.1,0.3,0.3
		s-0.1,0.3-0.3,0.3S12.9,59.7,12.9,59.5z M13.5,60.6c-0.1,0-0.3-0.1-0.3-0.3c0-0.1,0.1-0.3,0.3-0.3c0.1,0,0.3,0.1,0.3,0.3
		C13.8,60.5,13.7,60.6,13.5,60.6z M13.7,59.7c0-0.1,0.1-0.3,0.3-0.3c0.1,0,0.3,0.1,0.3,0.3c0,0.1-0.1,0.3-0.3,0.3
		C13.8,60,13.7,59.9,13.7,59.7z M14.3,60.7c-0.1,0-0.2-0.1-0.2-0.2c0-0.1,0.1-0.2,0.2-0.2c0.1,0,0.2,0.1,0.2,0.2
		C14.5,60.6,14.4,60.7,14.3,60.7z M14.7,60c-0.1,0-0.2-0.1-0.2-0.2s0.1-0.2,0.2-0.2s0.2,0.1,0.2,0.2S14.8,60,14.7,60z M15.1,60.7
		c-0.1,0-0.2-0.1-0.2-0.2c0-0.1,0.1-0.2,0.2-0.2c0.1,0,0.2,0.1,0.2,0.2C15.4,60.6,15.3,60.7,15.1,60.7z"/>
	<path d="M10.8,56.6c-0.1,0-0.2,0.1-0.2,0.2c0,0.1,0.1,0.2,0.2,0.2c0.1,0,0.2-0.1,0.2-0.2C11.1,56.7,11,56.6,10.8,56.6z"/>
	<path d="M10.2,56.9c0-0.1-0.1-0.2-0.2-0.2c-0.1,0-0.2,0.1-0.2,0.2c0,0.1,0.1,0.2,0.2,0.2C10.1,57.1,10.2,57,10.2,56.9z"/>
	<path d="M10.5,57.6c0-0.1-0.1-0.2-0.2-0.3c-0.1,0-0.2,0.1-0.3,0.2c0,0.1,0.1,0.2,0.2,0.3C10.4,57.9,10.5,57.8,10.5,57.6z"/>
	<path d="M11.2,57.9c0.1,0,0.2-0.1,0.3-0.2c0-0.1-0.1-0.2-0.2-0.3c-0.1,0-0.2,0.1-0.3,0.2C10.9,57.8,11,57.9,11.2,57.9z"/>
	<path d="M12.1,57.5c-0.1,0-0.2,0.1-0.3,0.2c0,0.1,0.1,0.2,0.2,0.3c0.1,0,0.2-0.1,0.3-0.2C12.3,57.6,12.2,57.5,12.1,57.5z"/>
	<path d="M11.7,56.6c-0.1,0-0.2,0.1-0.2,0.2c0,0.1,0.1,0.2,0.2,0.2c0.1,0,0.2-0.1,0.2-0.2S11.8,56.6,11.7,56.6z"/>
	<path d="M11.6,58.6c0.1,0,0.3-0.1,0.3-0.3c0-0.1-0.1-0.3-0.3-0.3c-0.1,0-0.3,0.1-0.3,0.3C11.4,58.5,11.5,58.6,11.6,58.6z"/>
	<path d="M12,59.5c0-0.2-0.1-0.3-0.3-0.3c-0.2,0-0.3,0.1-0.3,0.3c0,0.2,0.1,0.3,0.3,0.3C11.9,59.7,12,59.6,12,59.5z"/>
	<path d="M12.8,58.7c0.2,0,0.3-0.1,0.3-0.3c0-0.2-0.1-0.3-0.3-0.3c-0.2,0-0.3,0.1-0.3,0.3S12.6,58.7,12.8,58.7z"/>
	<path d="M12.3,58.7c-0.2,0-0.3,0.1-0.3,0.3c0,0.2,0.1,0.3,0.3,0.3c0.2,0,0.3-0.1,0.3-0.3C12.5,58.8,12.4,58.7,12.3,58.7z"/>
</g>
</svg>
