<?xml version="1.0" encoding="utf-8"?>
<!-- Generator: Adobe Illustrator 22.1.0, SVG Export Plug-In . SVG Version: 6.00 Build 0)  -->
<svg version="1.1" id="Layer_1" xmlns="http://www.w3.org/2000/svg" xmlns:xlink="http://www.w3.org/1999/xlink" x="0px" y="0px"
	 viewBox="0 0 96 96" style="enable-background:new 0 0 96 96;" xml:space="preserve">
<g>
	<path d="M11.5,37.8c-5.6,0-10.2,4.6-10.2,10.2c0,5.6,4.6,10.2,10.2,10.2c2.4,0,4.5-0.8,6.3-2.2c0.7-0.6,0.7-0.6-0.2-0.1
		c-0.9,0.4-2.6,1.1-4.7,1c-5.4-0.2-8.9-4.4-8.7-7.9c0,0,0,0,0,0C4.2,47,5.9,45.3,8,45.2c0.4-1.8,2-3.1,3.9-3.1c2.1,0,3.8,1.5,4,3.5
		c0.2,0,0.4,0,0.6,0c1,0,1.8,0.4,2.4,1.1c0.3,0.3,0.5,0.7,0.6,1.2c0.1,0.3,0.1,0.5,0.1,0.8c0,0.5-0.1,1.1-0.4,1.5
		c-0.8,1.7-2.6,2.8-4.2,2.9c-1.6,0.1-3.1-0.4-3.8-1.8c-0.3-0.7,0-1.9,1.1-2.1c0.5-0.1,0.9,0,1.1,0.2c0.2,0.2,0.4,0.2,0.6,0.2
		c0.5,0,0.8-0.4,0.8-0.8c0-0.3-0.1-0.5-0.3-0.6c0,0,0,0,0,0c-0.5-0.4-1.3-0.6-1.9-0.6c-1.7,0-3.3,1.3-3.3,3.2c0,1.6,1.2,3.2,2.7,3.8
		c0.6,0.3,1.4,0.4,2.2,0.5c4.5,0.2,7.4-3.5,7.4-6.9c0-0.8-0.1-1.5-0.3-2.3C20.4,41.2,16.3,37.8,11.5,37.8z"/>
	<path d="M28.5,45.4C28.6,45.4,28.6,45.4,28.5,45.4C28.6,45.4,28.6,45.4,28.5,45.4c0.2,0,0.2,0,0.3,0v1c0,0,0,0,0,0c0,0,0,0,0,0
		c0,0.3,0.2,0.5,0.4,0.6c0,0,0,0,0,0c0,0,0,0,0,0c0,0,0.1,0,0.1,0l0,0c0,0,0,0,0,0c0,0,0,0,0,0c0,0,0,0,0.1,0c0.3,0,0.5-0.3,0.5-0.6
		c0,0,0,0,0,0c0,0,0,0,0,0v-0.6c0,0,0,0,0,0c0,0,0,0,0,0c0,0,0,0,0,0c0,0,0,0,0,0l0,0c0-0.3,0.2-0.4,0.5-0.5c0,0,0,0,0,0h3.6h0.1H38
		c0,0,0,0,0,0c0.2,0,0.4,0.2,0.4,0.5l0,0v0.6c0,0,0,0,0,0c0,0.3,0.3,0.6,0.6,0.6c0.3,0,0.6-0.2,0.6-0.6c0,0,0,0,0,0v-1
		c0.1,0,0.1,0.1,0.2,0.1c0.3,0,0.5-0.2,0.5-0.5c0-0.2-0.1-0.4-0.3-0.4c0,0,0,0-0.1,0c0,0,0,0,0,0c-0.1,0-0.2-0.1-0.3-0.1
		c-0.2-0.1-0.4-0.3-0.6-0.5h0.8c0,0,0.3,0,0.3-0.4c0-0.4-0.3-0.4-0.3-0.4H38v-0.4h1.8c0,0,0.3,0,0.3-0.4c0-0.4-0.3-0.4-0.3-0.4H38
		v-0.3h1.8c0,0,0.3,0,0.3-0.5c0-0.4-0.3-0.4-0.3-0.4H38h0c0-0.3-0.3-0.6-0.6-0.6c-0.3,0-0.6,0.3-0.6,0.6h0h-2.6h-0.1h-2.5h0
		c0-0.3-0.3-0.6-0.6-0.6c-0.3,0-0.6,0.3-0.6,0.6h0h-1.8c0,0-0.4,0-0.4,0.4c0,0.4,0.4,0.5,0.4,0.5h1.8v0.3h-1.8c0,0-0.4,0-0.4,0.4
		c0,0.4,0.4,0.4,0.4,0.4h1.8v0.4h-1.9c0,0-0.3,0-0.3,0.4c0,0.4,0.3,0.4,0.3,0.4h0.7c-0.1,0.3-0.3,0.4-0.5,0.5
		c-0.1,0-0.2,0.1-0.3,0.1c-0.2,0-0.4,0.3-0.4,0.5C28,45.2,28.3,45.4,28.5,45.4z M31.7,41.3h2.5h0.1h2.6v0.3h-2.6h-0.1h-2.5V41.3z
		 M31.7,42.5h2.5h0.1h2.6v0.4h-2.6h-0.1h-2.5V42.5z M30.4,43.8h3.8h0.1h3.8c0.1,0.2,0.1,0.4,0.2,0.5h-4.1h-0.1h-4
		C30.2,44.1,30.3,44,30.4,43.8z"/>
	<path d="M28.7,40.2c0.3,0,0.5-0.2,0.5-0.4c0,0,0,0,0,0c0-0.2,0.2-0.4,0.4-0.4c0,0,0,0,0.1,0h0c0,0,0,0,0,0c0,0,0,0,0,0h9
		c0.2,0,0.5,0.2,0.5,0.4c0,0,0,0,0,0c0,0.2,0.2,0.4,0.5,0.4c0.3,0,0.5-0.2,0.5-0.5c0,0,0,0,0-0.1c0,0,0,0,0,0c0,0,0,0,0,0
		c0,0,0,0,0,0l0-0.1l0,0c0,0,0,0,0,0l0,0l0,0c0-0.5-0.4-1-0.9-1.1c0,0,0,0,0,0c0,0,0,0-0.1,0c0,0-0.1,0-0.1,0c0,0,0,0,0,0
		c0,0-0.1,0-0.1,0h-4.2h0c0-0.3-0.3-0.6-0.6-0.6s-0.6,0.3-0.6,0.6h0l-4.3,0c0,0,0,0,0,0c-0.6,0-1.2,0.6-1.2,1.2c0,0,0,0,0,0
		c0,0,0,0,0,0v0.2c0,0,0,0,0,0C28.2,40,28.4,40.2,28.7,40.2z"/>
	<path d="M40.3,48.3c0-0.3-0.2-0.5-0.5-0.5c-2.1-0.2-3.9-0.5-5.1-2l0,0c-0.1-0.2-0.3-0.3-0.5-0.3c-0.2,0-0.4,0.1-0.5,0.3l0,0
		c-1.2,1.5-3,1.9-5.1,2c-0.3,0-0.5,0.2-0.5,0.5c0,0.3,0.2,0.5,0.5,0.5c0.5,0,3.8,0,5.6-1.7c1.9,1.7,5.1,1.7,5.6,1.7
		C40.1,48.8,40.3,48.6,40.3,48.3z"/>
	<path d="M46.7,47c0,0,0,0.1,0,0.1c-0.1,0.3-0.3,0.4-0.6,0.4c0,0,0,0,0,0c0,0,0,0,0,0h-0.4c0,0,0,0-0.1,0c0,0,0,0-0.1,0
		c0,0,0,0-0.1,0c0,0,0,0,0,0c-0.1,0-0.2,0.1-0.3,0.3c0,0.1-0.1,0.2-0.1,0.3c0,0.3,0.3,0.6,0.6,0.6c0,0,0,0,0,0h0.7c0,0,0,0,0,0
		c0,0,0,0,0,0c0.8,0,1.5-0.6,1.5-1.4c0,0,0,0,0-0.1v-0.1v0v0l0-6.2c0,0,0,0,0-0.1c0-0.3-0.3-0.5-0.6-0.5c-0.3,0-0.6,0.2-0.6,0.5
		c0,0.1,0,0.1,0,0.1V47C46.7,47,46.7,47,46.7,47C46.7,47,46.7,47,46.7,47L46.7,47z"/>
	<path d="M42,41.5c0.1,0,0.2,0,0.3-0.1c0,0,0,0,0,0c0.1-0.1,0.2-0.2,0.2-0.2c0.3-0.4,0.5-0.8,0.7-1.3c0,0,7.7,0,8.2,0
		c0.4,0,0.5,0.3,0.5,0.5v0.6c0,0,0,0,0,0c0,0.3,0.3,0.6,0.6,0.6c0.3,0,0.6-0.2,0.6-0.5c0,0,0,0,0,0l0,0c0,0,0,0,0,0v0l0-0.9
		c0-0.4-0.1-0.7-0.2-0.9c-0.2-0.3-0.6-0.5-1-0.5c0,0,0,0,0,0h-8.4c0,0,0,0,0,0c0,0,0-0.1,0-0.1c0-0.3-0.3-0.6-0.6-0.6
		c-0.3,0-0.5,0.2-0.6,0.4c0,0.1,0,0.1,0,0.1l-0.2,0.7c-0.1,0.4-0.2,0.7-0.4,1c-0.1,0.1-0.2,0.3-0.3,0.4c-0.1,0.1-0.2,0.3-0.2,0.4
		C41.4,41.2,41.7,41.5,42,41.5z"/>
	<path d="M43.3,41.6c-0.3,0-0.6,0.3-0.6,0.6c0,0,0,0,0,0l-0.3,3.4c0,0-0.2,1.4-0.8,1.9c0,0,0,0,0,0c-0.1,0.1-0.2,0.3-0.2,0.4
		c0,0.3,0.3,0.6,0.6,0.6c0.1,0,0.1,0,0.2,0c0,0,0.1,0,0.1,0c0,0,0,0,0,0c0.1,0,0.1-0.1,0.2-0.1c1.1-0.8,1.2-2.7,1.2-2.7l0.4-3.6
		c0,0,0,0,0,0c0,0,0,0,0,0C43.9,41.9,43.6,41.6,43.3,41.6z"/>
	<path d="M53.4,48.1c0-0.2-0.1-0.3-0.2-0.4c0,0,0,0,0,0c-0.6-0.5-0.8-1.9-0.8-1.9L52,42.3c0,0,0,0,0,0v0c0-0.3-0.3-0.6-0.6-0.6
		c-0.3,0-0.6,0.3-0.6,0.6c0,0,0,0,0,0c0,0,0,0,0,0l0.4,3.6c0,0,0.2,1.9,1.2,2.7c0.1,0.1,0.1,0.1,0.2,0.1c0,0,0,0,0,0c0,0,0,0,0.1,0
		c0.1,0,0.1,0,0.2,0C53.1,48.7,53.4,48.4,53.4,48.1z"/>
	<path d="M81,42.5h1.3l-1.1,4.1c-0.1,0.3-0.1,0.5-0.1,0.6c0,0.5,0.2,0.9,0.6,1.2c0.3,0.2,0.8,0.4,1.2,0.4h8.3c0,0,0,0,0,0
		c0.8-0.1,1.4-0.7,1.4-1.5c0,0,0-0.1,0-0.1c0,0,0,0,0-0.1c0-0.2-0.1-0.4-0.1-0.6l-0.4-1.8l0,0c-0.1-0.3-0.3-0.5-0.6-0.5
		c-0.3,0-0.6,0.3-0.6,0.6c0,0,0,0.1,0,0.1c0,0,0.2,1,0.3,1.4c0.1,0.3,0.1,0.5,0.1,0.6c0,0,0,0.1,0,0.1c0,0.3-0.2,0.5-0.5,0.5
		c0,0,0,0,0,0h-7.6h-0.5c0,0,0,0,0,0c-0.3,0-0.5-0.2-0.5-0.5c0,0,0,0,0-0.1c0,0,0,0,0-0.1l1.1-4.4h2.8h1.4h4.7
		c0.3,0,0.6-0.3,0.6-0.6c0-0.3-0.3-0.6-0.6-0.6h-4.7h-1.4H81c-0.3,0-0.6,0.3-0.6,0.6C80.4,42.2,80.6,42.5,81,42.5z"/>
	<path d="M81.8,39.7h4.5h1.4h3.9c0.3,0,0.6-0.3,0.6-0.6c0-0.3-0.3-0.6-0.6-0.6h-3.9h-1.4h-4.5c-0.3,0-0.6,0.3-0.6,0.6
		C81.2,39.5,81.4,39.7,81.8,39.7z"/>
	<path d="M59.7,45.1h-0.4h-0.1c0,0,0.6-0.7,0.8-1.1c0,0,0,0,0,0c0,0,0-0.1,0.1-0.1c0,0,0,0,0,0c0,0,0,0,0,0c0,0,0,0,0,0
		c0-0.1,0-0.2,0-0.3c0,0,0-0.1,0-0.1c0-0.4-0.4-0.7-0.8-0.7l0,0h0c0,0,0,0,0,0l0,0h-2.8c0.1-0.2,0.2-0.4,0.4-0.7l0.4,0h2h0.4
		c0.3,0,0.6-0.3,0.6-0.6c0-0.3-0.3-0.6-0.6-0.6h0v0h0c0-0.3-0.3-0.6-0.6-0.6c-0.3,0-0.6,0.3-0.6,0.6h0v0h-0.6v-1.1h1.5h0.4
		c0.3,0,0.6-0.3,0.6-0.6c0-0.3-0.3-0.6-0.6-0.6h-0.4h-1.5v-0.1h0c0-0.3-0.3-0.6-0.6-0.6c-0.3,0-0.6,0.3-0.6,0.6h0v0.1h-0.9h-0.9
		c-0.3,0-0.6,0.3-0.6,0.6c0,0.3,0.3,0.6,0.6,0.6h0.9h0.9v1.1h-1.5c0,0,0,0,0,0h-0.2c-0.3,0-0.6,0.3-0.6,0.6c0,0.3,0.3,0.6,0.6,0.6
		h0.8c-0.2,0.4-0.7,0.9-1.1,1.1c0,0,0,0,0,0c-0.2,0.1-0.3,0.3-0.3,0.5c0,0.3,0.3,0.6,0.6,0.6c0.1,0,0.2,0,0.3-0.1c0,0,0,0,0,0
		c0.2-0.1,0.4-0.3,0.5-0.3h2.8c0,0,0.1,0,0.1,0c0.1,0,0.2,0.1,0.2,0.2c0,0.1,0,0.1,0,0.1v0c0,0,0,0-0.1,0.1l-0.8,0.9h-2h-0.9
		c-0.3,0-0.6,0.3-0.6,0.6c0,0.3,0.3,0.6,0.6,0.6h0.6c0,0,0,0,0,0h2V47c0,0,0,0,0,0c0,0,0,0,0,0v0c0,0,0,0.1,0,0.1
		c-0.1,0.3-0.3,0.4-0.6,0.4c0,0,0,0,0,0c0,0,0,0,0,0h-1.2c0,0,0,0-0.1,0c0,0,0,0,0,0c0,0,0,0-0.1,0c0,0,0,0,0,0
		c-0.1,0-0.2,0.1-0.3,0.3c0,0.1-0.1,0.2-0.1,0.3c0,0.3,0.3,0.6,0.6,0.6c0,0,0,0,0,0h1.5c0,0,0,0,0,0c0,0,0,0,0,0
		c0.8,0,1.5-0.6,1.5-1.4c0,0,0,0,0-0.1l0-0.1c0,0,0,0,0,0c0,0,0,0,0,0l0-0.8c0-0.1,0-0.1,0-0.1h0.9c0,0,0,0,0,0h0
		c0.3,0,0.6-0.3,0.6-0.6C60.3,45.4,60.1,45.1,59.7,45.1z"/>
	<path d="M65.4,43c0.1-0.7,0.1-1.9,0.2-3.2h0.3c0.3,0,0.6-0.3,0.6-0.6c0-0.3-0.3-0.6-0.6-0.6h0c0,0-0.1,0-0.1,0h-0.2H63h-0.3l0,0
		l0,0c0-0.1,0-0.1,0-0.2c0-0.3-0.3-0.6-0.6-0.6c-0.3,0-0.5,0.2-0.6,0.5c0,0,0,0,0,0c-0.2,0.7-0.3,1.2-0.4,1.4
		c-0.1,0.3-0.3,0.4-0.5,0.6c0,0,0,0,0,0c-0.1,0.1-0.2,0.3-0.2,0.5c0,0.3,0.3,0.6,0.6,0.6c0.1,0,0.2,0,0.3-0.1c0.4-0.2,0.8-0.9,1-1.4
		l0,0H63h1.3l0,1.4c0,1.1-0.1,2-0.1,2.4c-0.1,0.7-0.3,1.3-0.5,1.9c-0.2-0.3-0.8-2.1-0.9-3.3c0-0.3-0.3-0.5-0.6-0.5
		c-0.3,0-0.6,0.3-0.6,0.6c0,0,0,0.1,0,0.1c0,0,0,0,0,0c0,0,0,0,0,0c0,0,0,0,0,0c0.5,2.8,1.3,4.2,1.3,4.2s0,0,0,0
		c-0.4,0.4-1,0.8-1.5,1.1c0,0,0,0,0,0h0c0,0,0,0,0,0C61.1,47.8,61,48,61,48.2c0,0.3,0.3,0.6,0.6,0.6c0.1,0,0.1,0,0.2,0c0,0,0,0,0,0
		c0.7-0.3,1.4-0.9,1.8-1.3c0.5,0.4,0.9,0.8,1.3,1c0.2,0.1,0.3,0.2,0.5,0.3c0,0,0,0,0.1,0c0.1,0,0.1,0,0.2,0c0.3,0,0.6-0.3,0.6-0.6
		c0-0.2-0.1-0.3-0.2-0.5c0,0-0.1-0.1-0.1-0.1c-1.1-0.6-1.4-0.8-1.6-1.1c0.4-0.6,0.6-1.2,0.7-1.7C65.3,44.2,65.4,43.6,65.4,43z"/>
	<path d="M78.9,43.8c-0.1-0.8-0.7-1.4-1.5-1.4c0,0-0.1,0-0.1,0h-8c-0.9,0-1.6,0.7-1.6,1.6v4.1c0,0,0,0,0,0c0,0,0,0,0,0v0
		c0,0,0,0,0,0.1c0,0.3,0.3,0.5,0.6,0.5c0.3,0,0.5-0.2,0.6-0.5c0-0.1,0-0.1,0-0.1v-0.9h8.6c-0.1,0.2-0.3,0.3-0.5,0.3c0,0,0,0,0,0
		c0,0,0,0,0,0h-0.4c0,0,0,0-0.1,0c0,0,0,0-0.1,0c0,0,0,0-0.1,0c0,0,0,0,0,0c-0.1,0-0.2,0.1-0.3,0.3c0,0.1-0.1,0.2-0.1,0.3
		c0,0.3,0.3,0.6,0.6,0.6c0,0,0,0,0,0h0.7c0,0,0,0,0,0c0,0,0,0,0,0c0.8,0,1.5-0.6,1.5-1.4c0,0,0,0,0-0.1v-0.1v0v0l0-0.8
		c0-0.1,0-0.2,0-0.2v-2.1c0,0,0-0.1,0-0.1C78.9,44,78.9,43.9,78.9,43.8z M69,44.2c0,0,0-0.5,0.5-0.6h7.7c0.6,0,0.5,0.6,0.5,0.6H69z
		 M77.7,46H69v-0.6h8.7V46z"/>
	<path d="M79.1,39.3c0.1-0.1,0.2-0.3,0.2-0.4c0-0.3-0.2-0.5-0.5-0.6c-0.1,0-0.2,0-0.2,0h-4.7c0-0.3-0.3-0.6-0.6-0.6
		c-0.3,0-0.6,0.2-0.6,0.6h-4.7c0,0-0.1,0-0.1,0h-0.1c-0.3,0-0.6,0.3-0.6,0.6c0,0.3,0.3,0.6,0.6,0.6H68l-0.1,0.3
		c-0.1,0.3-0.1,0.5-0.1,0.6c0,0.5,0.3,1,0.6,1.2c0.3,0.2,0.6,0.3,1,0.3h7.9c0,0,0,0,0,0c0.8-0.1,1.4-0.7,1.4-1.5c0-0.1,0-0.1,0-0.2
		v0c0,0,0,0,0,0l0,0v0l0,0c0,0,0,0,0,0c0,0,0-0.1,0-0.1c0,0,0-0.1,0-0.1c0,0,0,0,0,0l0,0c0,0,0,0,0,0c0,0,0,0,0-0.1c0,0,0,0,0,0
		c0,0,0,0,0,0c0,0,0,0,0,0c0,0,0,0,0,0c0,0,0,0,0,0c0,0,0,0,0,0c0,0,0,0,0,0c0,0,0,0-0.1,0c0,0,0,0,0,0c0,0,0,0-0.1,0c0,0,0,0,0,0
		c0,0-0.1,0-0.1,0c0,0-0.1,0-0.1,0c0,0,0,0,0,0c0,0,0,0-0.1,0c0,0,0,0,0,0c0,0-0.1,0-0.1,0v0c-0.2,0.1-0.3,0.3-0.3,0.5v0
		c0,0,0,0,0,0c0,0,0,0,0,0l0,0c0,0.3-0.2,0.5-0.5,0.5c0,0,0,0,0,0h-6.9h-0.5l0,0c-0.3,0-0.5-0.2-0.5-0.5c0,0,0,0,0-0.1
		c0,0,0,0,0-0.1l0.2-0.7h9.4c0,0,0.1,0,0.2,0c0,0,0,0,0.1,0c0,0,0,0,0,0c0,0,0,0,0.1,0C79,39.4,79,39.4,79.1,39.3
		C79,39.4,79.1,39.4,79.1,39.3C79.1,39.4,79.1,39.4,79.1,39.3z"/>
	<path d="M31.9,52.3c0.6,0,1.1,0.1,1.4,0.2l0.3-0.8c-0.2-0.1-0.8-0.2-1.7-0.2c-2.2,0-4,1.1-4,3.2c0,2,1.5,3.1,3.8,3.1
		c0.9,0,1.6-0.1,1.9-0.3l-0.2-0.8c-0.3,0.1-0.9,0.2-1.5,0.2c-1.7,0-2.7-0.8-2.7-2.4C29.2,53.1,30.3,52.3,31.9,52.3z"/>
	<polygon points="38.1,55 41,55 41,54.2 38.1,54.2 38.1,52.4 41.1,52.4 41.1,51.6 36.9,51.6 36.9,57.8 41.3,57.8 41.3,57 38.1,57 	
		"/>
	<path d="M48.2,54.9L48.2,54.9c0.8-0.3,1.5-0.8,1.5-1.6c0-0.5-0.2-0.9-0.6-1.2c-0.5-0.3-1.2-0.5-2.3-0.5c-0.7,0-1.5,0.1-2,0.1v6.1
		h1.2v-2.6h0.7c0.9,0,1.2,0.3,1.5,1.1c0.2,0.8,0.4,1.3,0.5,1.5h1.3c-0.2-0.2-0.4-0.9-0.6-1.7C49.1,55.5,48.8,55.1,48.2,54.9z
		 M46.7,54.5h-0.8v-2.1c0.1,0,0.4-0.1,0.9-0.1c0.9,0,1.6,0.3,1.6,1.1C48.4,54.1,47.7,54.5,46.7,54.5z"/>
	<path d="M56.7,52.3c0.6,0,1.1,0.1,1.4,0.2l0.3-0.8c-0.2-0.1-0.8-0.2-1.7-0.2c-2.2,0-4,1.1-4,3.2c0,2,1.5,3.1,3.8,3.1
		c0.9,0,1.6-0.1,1.9-0.3l-0.2-0.8c-0.3,0.1-0.9,0.2-1.5,0.2c-1.7,0-2.7-0.8-2.7-2.4C54,53.1,55.1,52.3,56.7,52.3z"/>
	<polygon points="62.9,51.6 61.7,51.6 61.7,57.8 66,57.8 66,57 62.9,57 	"/>
	<path d="M72.3,51.5c-2.1,0-3.5,1.3-3.5,3.2c0,1.9,1.3,3.1,3.4,3.1c2,0,3.5-1.1,3.5-3.2C75.7,52.9,74.4,51.5,72.3,51.5z M72.2,57.1
		c-1.4,0-2.1-1.1-2.1-2.4c0-1.2,0.7-2.4,2.2-2.4c1.5,0,2.1,1.2,2.1,2.4C74.4,56,73.7,57.1,72.2,57.1z"/>
	<path d="M83.5,55.4c0,1.2-0.6,1.8-1.7,1.8c-0.9,0-1.6-0.5-1.6-1.8v-3.7H79v3.7c0,1.8,1.1,2.6,2.8,2.6c1.7,0,2.9-0.8,2.9-2.6v-3.7
		h-1.2V55.4z"/>
	<path d="M90.6,51.6c-0.8,0-1.5,0.1-2.1,0.1v6.1c0.5,0,1,0.1,1.8,0.1c1.4,0,2.6-0.3,3.3-0.8c0.7-0.5,1.2-1.3,1.2-2.5v0
		C94.8,53.2,94,51.6,90.6,51.6z M90.6,57.1c-0.3,0-0.6,0-0.8,0v-4.7c0.2,0,0.5-0.1,1-0.1c1.7,0,2.8,0.8,2.8,2.3
		C93.5,56.3,92.4,57.1,90.6,57.1z"/>
</g>
</svg>
