<?xml version="1.0" encoding="utf-8"?>
<!-- Generator: Adobe Illustrator 22.1.0, SVG Export Plug-In . SVG Version: 6.00 Build 0)  -->
<svg version="1.1" id="Layer_1" xmlns="http://www.w3.org/2000/svg" xmlns:xlink="http://www.w3.org/1999/xlink" x="0px" y="0px"
	 viewBox="0 0 96 96" style="enable-background:new 0 0 96 96;" xml:space="preserve">
<style type="text/css">
	.st0{fill:#000400;}
</style>
<g id="Light">
	<g id="Mac">
		<path id="macOS_Finder" class="st0" d="M52.4,33.2v-0.7l-2.3,0.2c-0.6,0-1.1,0.2-1.4,0.4c-0.3,0.2-0.5,0.6-0.5,1
			c0,0.4,0.2,0.7,0.5,1c0.3,0.2,0.7,0.4,1.3,0.4c0.3,0,0.7-0.1,1-0.2c0.3-0.1,0.6-0.3,0.8-0.4c0.2-0.2,0.4-0.4,0.5-0.7
			C52.4,33.8,52.4,33.5,52.4,33.2z M48,4C23.4,4,4,23.4,4,48c0,24.6,19.4,44,44,44s44-19.4,44-44C92,23.4,72.6,4,48,4z M56.5,30.1
			c0.2-0.6,0.5-1.1,0.9-1.5c0.4-0.4,0.8-0.7,1.4-1c0.5-0.2,1.1-0.3,1.8-0.3c0.6,0,1.1,0.1,1.6,0.3c0.5,0.2,0.9,0.4,1.2,0.7
			c0.3,0.3,0.6,0.6,0.8,1c0.2,0.4,0.3,0.8,0.4,1.3h-1.8c0-0.2-0.1-0.5-0.2-0.7c-0.1-0.2-0.3-0.4-0.5-0.5c-0.2-0.2-0.4-0.3-0.7-0.4
			c-0.3-0.1-0.5-0.1-0.9-0.1c-0.4,0-0.7,0.1-1,0.2c-0.3,0.2-0.6,0.4-0.8,0.6c-0.2,0.3-0.4,0.6-0.5,1c-0.1,0.4-0.2,0.8-0.2,1.3
			c0,0.5,0.1,0.9,0.2,1.3c0.1,0.4,0.3,0.7,0.5,1c0.2,0.3,0.5,0.5,0.8,0.6c0.3,0.1,0.6,0.2,1,0.2c0.6,0,1.1-0.1,1.5-0.4
			s0.6-0.7,0.7-1.2h1.8c-0.1,0.5-0.2,0.9-0.4,1.3c-0.2,0.4-0.5,0.7-0.8,1c-0.3,0.3-0.8,0.5-1.2,0.7s-1,0.2-1.5,0.2
			c-0.7,0-1.3-0.1-1.8-0.3c-0.5-0.2-1-0.5-1.4-0.9c-0.4-0.4-0.7-0.9-0.9-1.5c-0.2-0.6-0.3-1.2-0.3-2C56.2,31.3,56.3,30.7,56.5,30.1z
			 M31.4,27.4h1.8V29h0c0.1-0.3,0.3-0.5,0.4-0.7c0.2-0.2,0.4-0.4,0.6-0.5c0.2-0.1,0.5-0.3,0.8-0.3c0.3-0.1,0.6-0.1,0.9-0.1
			c0.6,0,1.2,0.2,1.6,0.5c0.4,0.3,0.8,0.8,1,1.3h0c0.1-0.3,0.3-0.5,0.5-0.8c0.2-0.2,0.4-0.4,0.7-0.6c0.3-0.2,0.5-0.3,0.8-0.4
			c0.3-0.1,0.6-0.1,0.9-0.1c0.5,0,0.9,0.1,1.2,0.2c0.4,0.1,0.7,0.3,1,0.6s0.5,0.6,0.6,1c0.1,0.4,0.2,0.8,0.2,1.3v6.3h-1.8v-5.9
			c0-0.6-0.2-1.1-0.5-1.4c-0.3-0.3-0.8-0.5-1.3-0.5c-0.3,0-0.5,0.1-0.8,0.2c-0.2,0.1-0.4,0.2-0.6,0.4c-0.2,0.2-0.3,0.4-0.4,0.6
			c-0.1,0.3-0.1,0.5-0.1,0.8v5.8H37v-6c0-0.3,0-0.5-0.1-0.7c-0.1-0.2-0.2-0.4-0.4-0.6c-0.2-0.2-0.3-0.3-0.6-0.4
			c-0.2-0.1-0.5-0.1-0.7-0.1c-0.3,0-0.5,0.1-0.8,0.2c-0.2,0.1-0.4,0.3-0.6,0.4c-0.2,0.2-0.3,0.4-0.4,0.7c-0.1,0.3-0.2,0.5-0.2,0.8
			v5.7h-1.7V27.4z M35.4,71.8c-8.1,0-13.2-5.6-13.2-14.6s5.1-14.7,13.2-14.7s13.2,5.7,13.2,14.7C48.6,66.2,43.5,71.8,35.4,71.8z
			 M50.4,36.7c-0.3,0.1-0.6,0.1-0.9,0.1c-0.5,0-0.9-0.1-1.3-0.2c-0.4-0.1-0.7-0.3-1-0.6c-0.3-0.2-0.5-0.5-0.6-0.9
			c-0.2-0.3-0.2-0.7-0.2-1.1c0-0.8,0.3-1.5,0.9-1.9c0.6-0.5,1.5-0.7,2.6-0.8l2.5-0.1v-0.7c0-0.5-0.2-0.9-0.5-1.2
			c-0.3-0.3-0.8-0.4-1.4-0.4c-0.3,0-0.5,0-0.7,0.1c-0.2,0.1-0.4,0.2-0.6,0.3c-0.2,0.1-0.3,0.3-0.4,0.4c-0.1,0.2-0.2,0.3-0.2,0.5
			h-1.7c0-0.4,0.1-0.8,0.3-1.1c0.2-0.3,0.4-0.6,0.8-0.9c0.3-0.3,0.7-0.5,1.2-0.6c0.4-0.1,0.9-0.2,1.5-0.2c0.6,0,1.1,0.1,1.5,0.2
			s0.9,0.3,1.2,0.6s0.6,0.6,0.8,1c0.2,0.4,0.3,0.8,0.3,1.3v6.4h-1.8v-1.5h0c-0.1,0.3-0.3,0.5-0.5,0.7c-0.2,0.2-0.4,0.4-0.7,0.5
			C51,36.5,50.7,36.6,50.4,36.7z M62.1,71.8c-6.2,0-10.4-3.2-10.7-8.3h4c0.3,2.9,3.1,4.8,7,4.8c3.7,0,6.3-1.9,6.3-4.6
			c0-2.3-1.6-3.7-5.3-4.6l-3.6-0.9c-5.2-1.3-7.6-3.7-7.6-7.6c0-4.8,4.2-8.2,10.2-8.2c5.9,0,9.9,3.4,10.1,8.2h-4
			c-0.3-2.9-2.7-4.7-6.2-4.7c-3.5,0-6,1.8-6,4.4c0,2.1,1.5,3.3,5.3,4.2l3.1,0.8c5.8,1.4,8.2,3.7,8.2,7.8
			C72.9,68.5,68.7,71.8,62.1,71.8z M35.4,46.1c-5.6,0-9,4.3-9,11c0,6.8,3.5,11,9,11c5.5,0,9-4.3,9-11C44.5,50.4,41,46.1,35.4,46.1z"
			/>
	</g>
</g>
</svg>
