<?xml version="1.0" encoding="utf-8"?>
<!-- Generator: Adobe Illustrator 21.0.0, SVG Export Plug-In . SVG Version: 6.00 Build 0)  -->
<svg version="1.1" id="Layer_1" xmlns="http://www.w3.org/2000/svg" xmlns:xlink="http://www.w3.org/1999/xlink" x="0px" y="0px"
	 viewBox="0 0 96 96" style="enable-background:new 0 0 96 96;" xml:space="preserve">
<g>
	<path d="M63.5,64.6c-3.9,3.8-8.2,7.1-12.5,9.8l7.9,4.1c3.8-2.6,6.6-4.7,10.2-8.1c17.1-16.3,25.6-36.5,22.5-50.3
		c-2,2-4.7,3.3-7.7,3.5C85.3,34.7,77,51.8,63.5,64.6z"/>
	<path d="M71.6,12.4c0-0.2,0-0.3,0-0.5c0-2.7,0.9-5.2,2.5-7.2c-6.6-0.9-14.4,0.5-22.4,3.8c2.7,1.4,6.6,4.2,8.3,5.9
		C64.4,13,68.3,12.3,71.6,12.4z"/>
	<path d="M23.2,12.5c10.9-1.1,27.3,6.6,40.3,19c4.4,4.2,7.2,7.7,10.3,12.4l4.3-7.9c-3.1-4.3-4.8-6.5-9-10.5
		C53.2,10.3,34.3,2.8,20.7,4.8c1.5,2,2.4,4.4,2.4,7.1C23.2,12.1,23.2,12.3,23.2,12.5z"/>
	<path d="M91.9,76.1c1.9-6.6,0.8-14.7-3.5-23.8l-5.6,8c1.7,4.8,2.2,8.7,1.6,12C87.4,72.6,90,74,91.9,76.1z"/>
	<path d="M71.6,83.4C60.7,84.2,44.7,76.8,32,64.6c-4.6-4.4-7.7-8.3-10.9-13.3l-3.7,8.5c3.1,4.3,4.8,6.6,9,10.6
		C42,85.3,60.6,92.9,74.1,91.1c-1.6-2-2.5-4.5-2.5-7.2C71.6,83.8,71.6,83.6,71.6,83.4z"/>
	<path d="M34.4,82.1c-4.1,1.1-7.9,1.6-11.3,1.2c0,0.2,0,0.4,0,0.6c0,2.7-0.9,5.1-2.4,7.1c6.5,1,14.2-0.2,22.2-3.4l-4.3-2.8
		L34.4,82.1z"/>
	<path d="M12.7,34.6c-1.1-4-1.5-7.8-1.1-11c0,0,0,0-0.1,0c-3,0-5.7-1.1-7.8-3c-1.3,6.6-0.1,14.6,3.4,22.9L12.7,34.6z"/>
	<path d="M11.6,72.3c-1.4-11,6.9-27.9,20.4-40.8c4.1-3.9,6.9-6.3,11.5-9.2l-8.6-4.1c-2.9,2.2-5.8,4.6-8.5,7.2
		C9.4,41.6,0.9,61.5,3.7,75.3C5.8,73.4,8.5,72.3,11.6,72.3C11.5,72.3,11.6,72.3,11.6,72.3z"/>
	<circle cx="11.9" cy="11.2" r="7.7"/>
	<circle cx="84.6" cy="12.2" r="7.7"/>
	<circle cx="11.9" cy="83.8" r="7.7"/>
	<circle cx="84.6" cy="84.8" r="7.7"/>
</g>
</svg>
