<?xml version="1.0" encoding="utf-8"?>
<!-- Generator: Adobe Illustrator 22.0.1, SVG Export Plug-In . SVG Version: 6.00 Build 0)  -->
<svg version="1.1" id="Layer_1" xmlns="http://www.w3.org/2000/svg" xmlns:xlink="http://www.w3.org/1999/xlink" x="0px" y="0px"
	 viewBox="0 0 96 96" style="enable-background:new 0 0 96 96;" xml:space="preserve">
<path d="M69.3,32c-0.1,0-0.2,0-0.3-0.1H27.3c-0.2,0-0.4,0-0.6,0.1l21.4,16.2L69.3,32z M25.3,35.4v26.9c0,1,0.9,1.9,1.9,1.9h41.6
	c1,0,1.9-0.9,1.9-2V35.4L48.1,52.7L25.3,35.4z M48,3.5C23.5,3.5,3.5,23.5,3.5,48s20,44.5,44.5,44.5s44.5-20,44.5-44.5
	S72.5,3.5,48,3.5z M74.2,62.2c0,3-2.4,5.4-5.4,5.4H27.2c-3,0-5.4-2.4-5.4-5.4V33.8c0-3,2.4-5.4,5.4-5.4h41.6c3,0,5.4,2.4,5.4,5.4
	V62.2z"/>
</svg>
