<?xml version="1.0" encoding="utf-8"?>
<!-- Generator: Adobe Illustrator 22.0.1, SVG Export Plug-In . SVG Version: 6.00 Build 0)  -->
<svg version="1.1" id="Layer_1" xmlns="http://www.w3.org/2000/svg" xmlns:xlink="http://www.w3.org/1999/xlink" x="0px" y="0px"
	 viewBox="0 0 96 96" style="enable-background:new 0 0 96 96;" xml:space="preserve">
<g>
	<g>
		<path d="M48,92.5c-24.5,0-44.5-20-44.5-44.5S23.5,3.5,48,3.5s44.5,20,44.5,44.5S72.5,92.5,48,92.5z M48,7.7
			C25.8,7.7,7.7,25.8,7.7,48S25.8,88.3,48,88.3S88.3,70.2,88.3,48S70.2,7.7,48,7.7z"/>
	</g>
	<path d="M27.2,67.6c-3,0-5.4-2.4-5.4-5.4V33.8c0-3,2.4-5.4,5.4-5.4h41.6c3,0,5.4,2.4,5.4,5.4v28.4c0,3-2.4,5.4-5.4,5.4H27.2z
		 M25.3,62.3c0,1,0.9,1.9,1.9,1.9h41.6c1,0,1.9-0.9,1.9-2V35.4L48.1,52.7L25.3,35.4V62.3z M48.1,48.2L69.3,32c-0.1,0-0.2,0-0.3-0.1
		l-0.3,0H27.3c-0.2,0-0.4,0-0.6,0.1L48.1,48.2z"/>
</g>
</svg>
