<?xml version="1.0" encoding="utf-8"?>
<!-- Generator: Adobe Illustrator 21.0.0, SVG Export Plug-In . SVG Version: 6.00 Build 0)  -->
<svg version="1.0" id="Layer_1" xmlns="http://www.w3.org/2000/svg" xmlns:xlink="http://www.w3.org/1999/xlink" x="0px" y="0px"
	 viewBox="0 0 96 96" style="enable-background:new 0 0 96 96;" xml:space="preserve">
<path d="M82.5,17.7H14.3C9.7,17.7,6,21.4,6,26v46.6c0,4.6,3.7,8.3,8.3,8.3h68.2c4.6,0,8.3-3.7,8.3-8.3V26
	C90.8,21.4,87.1,17.7,82.5,17.7z M82.5,22.3c0.7,0,1.4,0.2,2,0.6l-36,27.5L12.3,23c0.6-0.4,1.3-0.6,2.1-0.6H82.5z M82.5,76.4H14.3
	c-2,0-3.7-1.7-3.7-3.7V27.5l37.9,28.7l37.7-28.8v45.2C86.2,74.7,84.5,76.4,82.5,76.4z"/>
</svg>
