<?xml version="1.0" encoding="utf-8"?>
<!-- Generator: Adobe Illustrator 17.0.0, SVG Export Plug-In . SVG Version: 6.00 Build 0)  -->
<!DOCTYPE svg PUBLIC "-//W3C//DTD SVG 1.1//EN" "http://www.w3.org/Graphics/SVG/1.1/DTD/svg11.dtd">
<svg version="1.1" id="Layer_1" xmlns="http://www.w3.org/2000/svg" xmlns:xlink="http://www.w3.org/1999/xlink" x="0px" y="0px"
	 width="96px" height="96px" viewBox="0 0 96 96" enable-background="new 0 0 96 96" xml:space="preserve">
<path d="M80,12H16C9.373,12,4,17.373,4,24v48c0,6.627,5.373,12,12,12h64c6.627,0,12-5.373,12-12V24C92,17.373,86.627,12,80,12z
	 M16,20h64c0.462,0,0.906,0.078,1.318,0.223L48,46.878L14.682,20.223C15.094,20.078,15.538,20,16,20z M84,72c0,2.209-1.791,4-4,4H16
	c-2.209,0-4-1.791-4-4V28.322l33.501,26.801C46.231,55.708,47.115,56,48,56s1.769-0.292,2.499-0.877L84,28.322V72z"/>
</svg>
