<?xml version="1.0" encoding="utf-8"?>
<!-- Generator: Adobe Illustrator 17.0.0, SVG Export Plug-In . SVG Version: 6.00 Build 0)  -->
<!DOCTYPE svg PUBLIC "-//W3C//DTD SVG 1.1//EN" "http://www.w3.org/Graphics/SVG/1.1/DTD/svg11.dtd">
<svg version="1.1" id="Layer_1" xmlns="http://www.w3.org/2000/svg" xmlns:xlink="http://www.w3.org/1999/xlink" x="0px" y="0px"
	 width="96px" height="96px" viewBox="0 0 96 96" enable-background="new 0 0 96 96" xml:space="preserve">
<path d="M28,8c0,2.2-1.8,4-4,4h-8c-2.2,0-4,1.8-4,4v8c0,2.2-1.8,4-4,4c-2.2,0-4-1.8-4-4v-8C4,9.4,9.4,4,16,4h8C26.2,4,28,5.8,28,8z
	 M12,40v16c0,2.2-1.8,4-4,4c-2.2,0-4-1.8-4-4V40c0-2.2,1.8-4,4-4C10.2,36,12,37.8,12,40z M28,88c0,2.2-1.8,4-4,4h-8
	C9.4,92,4,86.6,4,80v-8c0-2.2,1.8-4,4-4c2.2,0,4,1.8,4,4v8c0,2.2,1.8,4,4,4h8C26.2,84,28,85.8,28,88z M60,88c0,2.2-1.8,4-4,4H40
	c-2.2,0-4-1.8-4-4s1.8-4,4-4h16C58.2,84,60,85.8,60,88z M92,72v8c0,6.6-5.4,12-12,12h-8c-2.2,0-4-1.8-4-4s1.8-4,4-4h8
	c2.2,0,4-1.8,4-4v-8c0-2.2,1.8-4,4-4S92,69.8,92,72z M92,40v16c0,2.2-1.8,4-4,4s-4-1.8-4-4V40c0-2.2,1.8-4,4-4S92,37.8,92,40z
	 M92,16v8c0,2.2-1.8,4-4,4s-4-1.8-4-4v-8c0-2.2-1.8-4-4-4h-8c-2.2,0-4-1.8-4-4c0-2.2,1.8-4,4-4h8C86.6,4,92,9.4,92,16z M60,8
	c0,2.2-1.8,4-4,4H40c-2.2,0-4-1.8-4-4c0-2.2,1.8-4,4-4h16C58.2,4,60,5.8,60,8z M64,44H32c-2.2,0-4,1.8-4,4s1.8,4,4,4h32
	c2.2,0,4-1.8,4-4S66.2,44,64,44z"/>
</svg>
