<?xml version="1.0" encoding="utf-8"?>
<!-- Generator: Adobe Illustrator 24.0.3, SVG Export Plug-In . SVG Version: 6.00 Build 0)  -->
<svg version="1.1" id="_x31_" xmlns="http://www.w3.org/2000/svg" xmlns:xlink="http://www.w3.org/1999/xlink" x="0px" y="0px"
	 viewBox="0 0 96 96" style="enable-background:new 0 0 96 96;" xml:space="preserve">
<g>
	<path d="M80.7,48.5c0-2.5-0.9-5.5-5-6.3c-0.3-13.3-2.8-26-21.3-28.2c-4-1-8.1-1.7-12.2-2c-1-0.1-2.1-0.1-3.3-0.1
		c-1.6,0-3.2,0.1-4.8,0.2H34c-1.9,0-4.2,0.4-4.5,2.3c-0.1,0.8,0,1.7,0.4,2.5c0.1,0.3,0.2,0.5,0.2,0.8v0.2
		c-8.1,5.3-9.3,14.8-9.6,24.4c-4.1,0.8-5,3.8-5,6.3c0,4,2.6,11.3,6.8,12c4,13,15.3,23.5,25.7,23.5s21.7-10.5,25.9-23.6
		C78.1,59.8,80.7,52.5,80.7,48.5z M28,53v11.3c-1.1-2-1.9-4.2-2.5-6.4L25,56l-2,0.6h-0.2c-1-0.3-3.4-4.6-3.4-8c0-1.8,0.5-2.4,3-2.5
		h1.4l4.3,6C28,52.4,28,52.7,28,53z M48,80.1c-6,0-11.9-4.2-16.3-9.9l9.4,3.3c4.4,1.6,9.3,1.6,13.7,0l9.4-3.3
		C59.9,75.9,54,80.1,48,80.1z M65.1,49l-13.7-4.9c-2.2-0.8-4.7-0.8-6.9,0L30.9,49c-0.6,0.2-1.2,0.5-1.6,1l-4.9-6.7
		c0.2-11.2,1.6-18.4,8.2-22.4l0.4-0.2l0.2-0.4c0.3-0.5,0.6-1,0.7-1.6c0.2-0.9,0.2-1.8-0.1-2.6h0.4c1.6-0.1,3.1-0.2,4.6-0.2
		c1.1,0,2.1,0,3,0.1c3.9,0.3,7.9,0.9,11.7,1.9h0.3c16,1.9,17.7,12.1,18,25.4l-5,6.7C66.3,49.5,65.8,49.2,65.1,49z M73.3,56.5
		c-0.1,0-0.2,0-0.3,0l-2-0.6l-0.5,2c-0.6,2.2-1.4,4.3-2.5,6.4V53c0-0.4-0.1-0.7-0.2-1.1l4.3-5.9h1.5c2.6,0,3,0.7,3,2.5
		C76.7,52,74.3,56.3,73.3,56.5z"/>
	<polygon points="11.4,11.3 21.1,11.3 21.1,8 8.1,8 8.1,21.5 11.4,21.5 	"/>
	<polygon points="74.9,8 74.9,11.3 84.7,11.3 84.7,21.5 88,21.5 88,8 	"/>
	<polygon points="84.7,84.7 74.9,84.7 74.9,88 88,88 88,74.5 84.7,74.5 	"/>
	<polygon points="11.3,74.5 8,74.5 8,88 21.1,88 21.1,84.7 11.3,84.7 	"/>
</g>
</svg>
