<?xml version="1.0" encoding="utf-8"?>
<!-- Generator: Adobe Illustrator 17.0.0, SVG Export Plug-In . SVG Version: 6.00 Build 0)  -->
<!DOCTYPE svg PUBLIC "-//W3C//DTD SVG 1.1//EN" "http://www.w3.org/Graphics/SVG/1.1/DTD/svg11.dtd">
<svg version="1.1" id="Layer_1" xmlns="http://www.w3.org/2000/svg" xmlns:xlink="http://www.w3.org/1999/xlink" x="0px" y="0px"
	 width="96px" height="96px" viewBox="0 0 96 96" enable-background="new 0 0 96 96" xml:space="preserve">
<path d="M17.7,12H36c2.2,0,4-1.8,4-4c0-2.2-1.8-4-4-4H8C5.8,4,4,5.8,4,8v28c0,2.2,1.8,4,4,4c2.2,0,4-1.8,4-4V17.7l25.1,25.1
	c1.6,1.6,4.1,1.6,5.7,0s1.6-4.1,0-5.7L17.7,12z M88,56c-2.2,0-4,1.8-4,4v18.3L58.8,53.2c-1.6-1.6-4.1-1.6-5.7,0
	c-1.6,1.6-1.6,4.1,0,5.7L78.3,84H60c-2.2,0-4,1.8-4,4s1.8,4,4,4h28c2.2,0,4-1.8,4-4V60C92,57.8,90.2,56,88,56z"/>
</svg>
