<?xml version="1.0" encoding="utf-8"?>
<!-- Generator: Adobe Illustrator 17.0.0, SVG Export Plug-In . SVG Version: 6.00 Build 0)  -->
<!DOCTYPE svg PUBLIC "-//W3C//DTD SVG 1.1//EN" "http://www.w3.org/Graphics/SVG/1.1/DTD/svg11.dtd">
<svg version="1.1" id="Layer_1" xmlns="http://www.w3.org/2000/svg" xmlns:xlink="http://www.w3.org/1999/xlink" x="0px" y="0px"
	 width="96px" height="96px" viewBox="0 0 96 96" enable-background="new 0 0 96 96" xml:space="preserve">
<path d="M82.167,52.334c2.209,0,4-1.791,4-4s-1.791-4-4-4H71.5v-4h10.667c2.209,0,4-1.791,4-4s-1.791-4-4-4H71.5v-0.828
	c0-7.603-5.566-13.914-12.833-15.116v-6.056c0-2.209-1.791-4-4-4s-4,1.791-4,4v5.833h-5v-5.833c0-2.209-1.791-4-4-4s-4,1.791-4,4
	v5.884c-7.989,0.522-14.333,7.169-14.333,15.288v0.828h-10c-2.209,0-4,1.791-4,4s1.791,4,4,4h10v4h-10c-2.209,0-4,1.791-4,4
	s1.791,4,4,4h10v3.999h-10c-2.209,0-4,1.791-4,4s1.791,4,4,4h10v1.328c0.666,7.964,5.507,15.357,13.962,15.36v4c0,2.209,1.791,4,4,4
	s4-1.791,4-4v-4H50.5v4c0,2.209,1.791,4,4,4s4-1.791,4-4v-4.42c6.771-1.592,13-7.69,13-14.94v-1.328h10.667c2.209,0,4-1.791,4-4
	s-1.791-4-4-4H71.5v-3.999H82.167z M63.5,65.661c0,4.047-3.292,7.339-7.339,7.339H38.672c-4.046,0-7.338-3.292-7.338-7.339V31.505
	c0-4.047,3.292-7.339,7.338-7.339h17.489c4.047,0,7.339,3.292,7.339,7.339C63.5,31.505,63.5,65.661,63.5,65.661z"/>
</svg>
