<?xml version="1.0" encoding="utf-8"?>
<!-- Generator: Adobe Illustrator 21.0.0, SVG Export Plug-In . SVG Version: 6.00 Build 0)  -->
<svg version="1.1" id="Layer_1" xmlns="http://www.w3.org/2000/svg" xmlns:xlink="http://www.w3.org/1999/xlink" x="0px" y="0px"
	 viewBox="0 0 96 96" style="enable-background:new 0 0 96 96;" xml:space="preserve">
<style type="text/css">
	.st0{fill:#151515;}
</style>
<g>
	<circle class="st0" cx="64.9" cy="40.9" r="4.8"/>
	<circle class="st0" cx="31.3" cy="40.9" r="4.8"/>
	<path class="st0" d="M77.9,9.9H18.3c-7.4,0-13.4,6-13.4,13.4v35.1c0,7.4,6,13.4,13.4,13.4h0.9V80c0,3.4,2.7,6.1,6.1,6.1
		c1.2,0,2.4-0.4,3.4-1l20.3-13.2h28.9c7.4,0,13.4-6,13.4-13.4V23.3C91.3,15.9,85.3,9.9,77.9,9.9z M25.4,80.2
		c-0.2,0.1-0.2,0.1-0.3,0.1c-0.1,0-0.1-0.1-0.1-0.2V69.1c0,0,0-0.1,0-0.1c0-1.6-1.3-2.9-2.9-2.9h-3.8c-4.2,0-7.6-3.4-7.6-7.6V23.3
		c0-4.2,3.4-7.6,7.6-7.6h59.6c4.2,0,7.6,3.4,7.6,7.6v35.1c0,4.2-3.4,7.6-7.6,7.6H48.1c-0.5,0-1,0.1-1.4,0.4c-0.1,0-0.1,0.1-0.2,0.1
		L25.4,80.2L25.4,80.2z"/>
	<circle class="st0" cx="48.1" cy="40.9" r="4.8"/>
</g>
</svg>
