<?xml version="1.0" encoding="utf-8"?>
<!-- Generator: Adobe Illustrator 17.0.0, SVG Export Plug-In . SVG Version: 6.00 Build 0)  -->
<!DOCTYPE svg PUBLIC "-//W3C//DTD SVG 1.1//EN" "http://www.w3.org/Graphics/SVG/1.1/DTD/svg11.dtd">
<svg version="1.1" id="Layer_1" xmlns="http://www.w3.org/2000/svg" xmlns:xlink="http://www.w3.org/1999/xlink" x="0px" y="0px"
	 width="96px" height="96px" viewBox="0 0 96 96" enable-background="new 0 0 96 96" xml:space="preserve">
<path d="M80,40v8c0,16.3-12.2,29.8-28,31.8V88h12c2.2,0,4,1.8,4,4s-1.8,4-4,4H32c-2.2,0-4-1.8-4-4s1.8-4,4-4h12v-8.2
	c-15.8-2-28-15.4-28-31.8v-8c0-2.2,1.8-4,4-4s4,1.8,4,4v8c0,13.3,10.7,24,24,24s24-10.7,24-24v-8c0-2.2,1.8-4,4-4S80,37.8,80,40z
	 M48,0c-8.8,0-16,7.2-16,16v32c0,8.8,7.2,16,16,16s16-7.2,16-16V16C64,7.2,56.8,0,48,0z M48,56c-4.4,0-8-3.6-8-8V16c0-4.4,3.6-8,8-8
	s8,3.6,8,8v32C56,52.4,52.4,56,48,56z"/>
</svg>
