<?xml version="1.0" encoding="utf-8"?>
<!-- Generator: Adobe Illustrator 22.1.0, SVG Export Plug-In . SVG Version: 6.00 Build 0)  -->
<svg version="1.1" id="Layer_1" xmlns="http://www.w3.org/2000/svg" xmlns:xlink="http://www.w3.org/1999/xlink" x="0px" y="0px"
	 viewBox="0 0 96 96" style="enable-background:new 0 0 96 96;" xml:space="preserve">
<g>
	<path d="M20.6,61H11v3.2H6.5V29.6h14.2V61z M16.2,42.8v-8.7H11v8.7H16.2z M16.2,56.6v-9.4H11v9.4H16.2z M23.3,68.5l-3.6-3.3
		c3.1-3.9,4.7-9,4.8-15.1V28.7h19V63c0,3.1-1.6,4.7-4.8,4.7h-5.5l-1.3-4.5c1.9,0.1,3.7,0.2,5.3,0.2c1,0,1.6-0.7,1.6-2.1v-7.3h-10
		C28.2,59.8,26.3,64.6,23.3,68.5z M38.8,33.1h-9.7v6.2h9.7V33.1z M29.1,49.8h9.7v-6.2h-9.7V49.8z"/>
	<path d="M70.6,27.5c5.5,6.1,11.8,11,18.9,14.5L87,46.4c-2.3-1.2-4.5-2.6-6.5-4v3H57.4v-3.1c-2.1,1.4-4.3,2.8-6.7,4.2L48.2,42
		c7.6-3.9,14-8.7,19.1-14.5H70.6z M83.4,68h-4.4v-2.2h-20V68h-4.4V49.7h28.8V68z M78.9,61.5V54h-20v7.5H78.9z M78.6,41
		c-3.6-2.8-6.8-5.9-9.7-9.3c-2.8,3.4-6,6.5-9.7,9.3H78.6z"/>
</g>
</svg>
