<?xml version="1.0" encoding="utf-8"?>
<!-- Generator: Adobe Illustrator 17.0.0, SVG Export Plug-In . SVG Version: 6.00 Build 0)  -->
<!DOCTYPE svg PUBLIC "-//W3C//DTD SVG 1.1//EN" "http://www.w3.org/Graphics/SVG/1.1/DTD/svg11.dtd">
<svg version="1.1" id="Layer_1" xmlns="http://www.w3.org/2000/svg" xmlns:xlink="http://www.w3.org/1999/xlink" x="0px" y="0px"
	 width="96px" height="96px" viewBox="0 0 96 96" enable-background="new 0 0 96 96" xml:space="preserve">
<path d="M40,8c-2.2,0-4,1.8-4,4v18.3L10.8,5.2c-1.6-1.6-4.1-1.6-5.7,0c-1.6,1.6-1.6,4.1,0,5.7L30.3,36H12c-2.2,0-4,1.8-4,4
	c0,2.2,1.8,4,4,4h28c2.2,0,4-1.8,4-4V12C44,9.8,42.2,8,40,8z M90.8,85.2L65.7,60H84c2.2,0,4-1.8,4-4c0-2.2-1.8-4-4-4H56
	c-2.2,0-4,1.8-4,4v28c0,2.2,1.8,4,4,4c2.2,0,4-1.8,4-4V65.7l25.2,25.1c1.6,1.6,4.1,1.6,5.7,0C92.4,89.3,92.4,86.7,90.8,85.2z"/>
</svg>
