<?xml version="1.0" encoding="utf-8"?>
<!-- Generator: Adobe Illustrator 22.0.1, SVG Export Plug-In . SVG Version: 6.00 Build 0)  -->
<svg version="1.1" id="Layer_1" xmlns="http://www.w3.org/2000/svg" xmlns:xlink="http://www.w3.org/1999/xlink" x="0px" y="0px"
	 viewBox="0 0 96 96" style="enable-background:new 0 0 96 96;" xml:space="preserve">
<g>
	<path d="M48,92.5c-24.5,0-44.5-20-44.5-44.5S23.5,3.5,48,3.5s44.5,20,44.5,44.5S72.5,92.5,48,92.5z M48,7.7
		C25.8,7.7,7.7,25.8,7.7,48S25.8,88.3,48,88.3S88.3,70.2,88.3,48S70.2,7.7,48,7.7z"/>
</g>
<g>
	<path d="M48.2,71.7c-1.5,0-2.8-1.2-2.8-2.8c0-1.5,1.2-2.8,2.8-2.8s2.8,1.2,2.8,2.8C51,70.5,49.7,71.7,48.2,71.7z"/>
	<path d="M38.8,76.7c-3.8,0-6.9-3.1-6.9-6.9V26.1c0-3.8,3.1-6.9,6.9-6.9h18.4c3.8,0,6.9,3.1,6.9,6.9v43.8c0,3.8-3.1,6.9-6.9,6.9
		H38.8z M35.9,69.9c0,1.6,1.3,2.9,2.9,2.9h18.4c1.6,0,2.9-1.3,2.9-2.9v-4.6H35.9V69.9z M60.1,61.4V26.1c0-1.6-1.3-2.9-2.9-2.9H38.8
		c-1.6,0-2.9,1.3-2.9,2.9v35.2H60.1z"/>
</g>
</svg>
