<?xml version="1.0" encoding="utf-8"?>
<!-- Generator: Adobe Illustrator 22.0.1, SVG Export Plug-In . SVG Version: 6.00 Build 0)  -->
<svg version="1.1" id="Layer_1" xmlns="http://www.w3.org/2000/svg" xmlns:xlink="http://www.w3.org/1999/xlink" x="0px" y="0px"
	 viewBox="0 0 96 96" style="enable-background:new 0 0 96 96;" xml:space="preserve">
<g>
	<path d="M35.9,69.9c0,1.6,1.3,2.9,2.9,2.9h18.4c1.6,0,2.9-1.3,2.9-2.9v-4.6H35.9V69.9z M48.2,66.2c1.5,0,2.8,1.2,2.8,2.8
		c0,1.5-1.2,2.8-2.8,2.8s-2.8-1.2-2.8-2.8C45.4,67.4,46.7,66.2,48.2,66.2z"/>
	<path d="M57.2,23.2H38.8c-1.6,0-2.9,1.3-2.9,2.9v35.2h24.3V26.1C60.1,24.5,58.8,23.2,57.2,23.2z"/>
	<path d="M48,3.5C23.5,3.5,3.5,23.5,3.5,48s20,44.5,44.5,44.5s44.5-20,44.5-44.5S72.5,3.5,48,3.5z M64.1,69.9c0,3.8-3.1,6.9-6.9,6.9
		H38.8c-3.8,0-6.9-3.1-6.9-6.9V26.1c0-3.8,3.1-6.9,6.9-6.9h18.4c3.8,0,6.9,3.1,6.9,6.9V69.9z"/>
</g>
</svg>
