<?xml version="1.0" encoding="utf-8"?>
<!-- Generator: Adobe Illustrator 17.0.0, SVG Export Plug-In . SVG Version: 6.00 Build 0)  -->
<!DOCTYPE svg PUBLIC "-//W3C//DTD SVG 1.1//EN" "http://www.w3.org/Graphics/SVG/1.1/DTD/svg11.dtd">
<svg version="1.1" id="Layer_1" xmlns="http://www.w3.org/2000/svg" xmlns:xlink="http://www.w3.org/1999/xlink" x="0px" y="0px"
	 width="96px" height="96px" viewBox="0 0 96 96" enable-background="new 0 0 96 96" xml:space="preserve">
<path d="M64.117,2H29.882C22.228,2,16,8.228,16,15.882V65v8v7.118C16,87.772,22.228,94,29.882,94h34.236
	C71.772,94,78,87.772,78,80.118V15.882C78,8.228,71.772,2,64.117,2z M48.75,89.25c-2.623,0-4.75-2.127-4.75-4.75
	s2.127-4.75,4.75-4.75s4.75,2.127,4.75,4.75S51.373,89.25,48.75,89.25z M72.5,73.625H21.75V15.75H72.5V73.625z"/>
</svg>
