<?xml version="1.0" encoding="utf-8"?>
<!-- Generator: Adobe Illustrator 17.0.0, SVG Export Plug-In . SVG Version: 6.00 Build 0)  -->
<!DOCTYPE svg PUBLIC "-//W3C//DTD SVG 1.1//EN" "http://www.w3.org/Graphics/SVG/1.1/DTD/svg11.dtd">
<svg version="1.1" id="Layer_1" xmlns="http://www.w3.org/2000/svg" xmlns:xlink="http://www.w3.org/1999/xlink" x="0px" y="0px"
	 width="96px" height="96px" viewBox="0 0 96 96" enable-background="new 0 0 96 96" xml:space="preserve">
<path d="M40.1,17C40,18,40,19,40,20c0,19.9,16.1,36,36,36c1,0,2,0,3-0.1C75.5,69.7,62.9,80,48,80c-17.6,0-32-14.4-32-32
	C16,33.1,26.3,20.5,40.1,17 M48,8C25.9,8,8,25.9,8,48c0,22.1,17.9,40,40,40c22.1,0,40-17.9,40-40c0-0.9,0-1.8-0.1-2.7
	C84.3,47,80.3,48,76,48c-15.5,0-28-12.5-28-28c0-4.3,1-8.3,2.7-11.9C49.8,8,48.9,8,48,8L48,8z"/>
</svg>
