<?xml version="1.0" encoding="utf-8"?>
<!-- Generator: Adobe Illustrator 24.0.1, SVG Export Plug-In . SVG Version: 6.00 Build 0)  -->
<svg version="1.1" id="图层_1" xmlns="http://www.w3.org/2000/svg" xmlns:xlink="http://www.w3.org/1999/xlink" x="0px" y="0px"
	 viewBox="0 0 48 48" style="enable-background:new 0 0 48 48;" xml:space="preserve">
<title>了解更多备份 2</title>
<desc>Created with Sketch.</desc>
<path id="more" d="M2.05,27.71V23.3c0-0.57,0.17-1.06,0.5-1.46c0.34-0.42,0.76-0.62,1.27-0.62c1.11,0,1.67,0.63,1.67,1.92v4.56h1.12
	v-4.54c0-0.59,0.15-1.05,0.49-1.41c0.31-0.36,0.71-0.53,1.19-0.53c0.62,0,1.06,0.15,1.34,0.49c0.27,0.31,0.41,0.78,0.41,1.43v4.56
	h1.12v-4.75c0-0.83-0.24-1.48-0.69-1.97C10,20.51,9.4,20.27,8.64,20.27c-0.5,0-0.92,0.11-1.27,0.34c-0.39,0.21-0.73,0.56-1.01,1.04
	c-0.41-0.92-1.16-1.37-2.27-1.37c-0.81,0-1.5,0.38-2.04,1.16v-0.97H0.93v7.24H2.05z M16.13,27.9c1.08,0,1.95-0.38,2.6-1.13
	c0.6-0.7,0.91-1.6,0.91-2.67c0-1.09-0.31-1.99-0.92-2.7c-0.64-0.76-1.51-1.12-2.59-1.12c-1.09,0-1.95,0.36-2.59,1.12
	c-0.62,0.71-0.92,1.61-0.92,2.7c0,1.08,0.31,1.97,0.92,2.67C14.19,27.52,15.04,27.9,16.13,27.9z M16.13,26.96
	c-0.77,0-1.37-0.29-1.79-0.88c-0.39-0.53-0.57-1.19-0.57-1.99c0-0.81,0.18-1.47,0.57-2c0.42-0.59,1.02-0.88,1.79-0.88
	c0.76,0,1.36,0.29,1.81,0.88c0.38,0.53,0.57,1.19,0.57,2c0,0.78-0.2,1.46-0.57,1.99C17.49,26.67,16.89,26.96,16.13,26.96z
	 M22.21,27.71v-3.84c0-0.67,0.18-1.25,0.57-1.72c0.38-0.5,0.85-0.74,1.41-0.74c0.35,0,0.71,0.04,1.08,0.15v-1.12
	c-0.27-0.11-0.6-0.17-0.99-0.17c-0.5,0-0.94,0.15-1.32,0.46c-0.31,0.24-0.56,0.57-0.76,0.99v-1.26H21.1v7.24H22.21z M29.24,27.9
	c0.94,0,1.71-0.28,2.31-0.81c0.49-0.45,0.81-1.01,0.98-1.71h-1.12c-0.18,0.5-0.42,0.88-0.73,1.13c-0.36,0.29-0.85,0.45-1.44,0.45
	c-0.69,0-1.23-0.22-1.62-0.67c-0.39-0.45-0.6-1.08-0.66-1.89h5.71c-0.03-1.26-0.31-2.25-0.84-2.95c-0.59-0.78-1.47-1.18-2.63-1.18
	c-1.05,0-1.88,0.38-2.49,1.13c-0.62,0.71-0.91,1.61-0.91,2.67c0,1.18,0.31,2.1,0.95,2.8C27.36,27.55,28.2,27.9,29.24,27.9z
	 M31.5,23.53h-4.52c0.07-0.71,0.29-1.27,0.69-1.69c0.39-0.42,0.91-0.63,1.55-0.63C30.59,21.21,31.36,21.98,31.5,23.53z"/>
<path d="M36.67,24.49h7.76l-2.63,2.64c-0.2,0.2-0.2,0.51,0,0.71c0.2,0.2,0.51,0.2,0.71,0L46,24.36c0.2-0.2,0.2-0.51,0-0.71
	l-3.49-3.49c-0.11-0.1-0.24-0.15-0.36-0.15c-0.12,0-0.25,0.05-0.35,0.15c-0.2,0.2-0.2,0.51,0,0.71l2.63,2.63h-7.76
	c-0.27,0-0.5,0.22-0.5,0.5C36.17,24.27,36.39,24.49,36.67,24.49z"/>
</svg>
