<?xml version="1.0" encoding="utf-8"?>
<!-- Generator: Adobe Illustrator 17.0.0, SVG Export Plug-In . SVG Version: 6.00 Build 0)  -->
<!DOCTYPE svg PUBLIC "-//W3C//DTD SVG 1.1//EN" "http://www.w3.org/Graphics/SVG/1.1/DTD/svg11.dtd">
<svg version="1.1" id="Layer_1" xmlns="http://www.w3.org/2000/svg" xmlns:xlink="http://www.w3.org/1999/xlink" x="0px" y="0px"
	 width="96px" height="96px" viewBox="0 0 96 96" enable-background="new 0 0 96 96" xml:space="preserve">
<g>
	<path d="M19.667,36C13.776,36,9,40.776,9,46.667s4.776,10.667,10.667,10.667s10.667-4.776,10.667-10.667S25.557,36,19.667,36z"/>
	<path d="M76.556,36c-5.891,0-10.667,4.776-10.667,10.667s4.776,10.667,10.667,10.667c5.891,0,10.667-4.776,10.667-10.667
		S82.446,36,76.556,36z"/>
	<path d="M48.111,36c-5.891,0-10.667,4.776-10.667,10.667s4.776,10.667,10.667,10.667s10.667-4.776,10.667-10.667
		S54.002,36,48.111,36z"/>
</g>
</svg>
