<?xml version="1.0" encoding="utf-8"?>
<!-- Generator: Adobe Illustrator 17.0.0, SVG Export Plug-In . SVG Version: 6.00 Build 0)  -->
<!DOCTYPE svg PUBLIC "-//W3C//DTD SVG 1.1//EN" "http://www.w3.org/Graphics/SVG/1.1/DTD/svg11.dtd">
<svg version="1.1" id="Layer_1" xmlns="http://www.w3.org/2000/svg" xmlns:xlink="http://www.w3.org/1999/xlink" x="0px" y="0px"
	 width="96px" height="96px" viewBox="0 0 96 96" enable-background="new 0 0 96 96" xml:space="preserve">
<path d="M94.8,45.2L80.7,31c-1.6-1.6-4.1-1.6-5.7,0c-1.6,1.6-1.6,4.1,0,5.7l7.3,7.3H52V13.7l7.3,7.3c1.6,1.6,4.1,1.6,5.7,0
	c1.6-1.6,1.6-4.1,0-5.7L50.8,1.2c-1.6-1.6-4.1-1.6-5.7,0L31,15.3c-1.6,1.6-1.6,4.1,0,5.7c1.6,1.6,4.1,1.6,5.7,0l7.3-7.3V44H13.7
	l7.3-7.3c1.6-1.6,1.6-4.1,0-5.7c-1.6-1.6-4.1-1.6-5.7,0L1.2,45.2c-1.6,1.6-1.6,4.1,0,5.7L15.3,65c1.6,1.6,4.1,1.6,5.7,0
	c1.6-1.6,1.6-4.1,0-5.7L13.7,52H44v30.3L36.7,75c-1.6-1.6-4.1-1.6-5.7,0c-1.6,1.6-1.6,4.1,0,5.7l14.1,14.1c1.6,1.6,4.1,1.6,5.7,0
	L65,80.7c1.6-1.6,1.6-4.1,0-5.7c-1.6-1.6-4.1-1.6-5.7,0L52,82.3V52h30.3L75,59.3c-1.6,1.6-1.6,4.1,0,5.7c1.6,1.6,4.1,1.6,5.7,0
	l14.1-14.1C96.4,49.3,96.4,46.7,94.8,45.2z"/>
</svg>
