<?xml version="1.0" encoding="utf-8"?>
<!-- Generator: Adobe Illustrator 22.1.0, SVG Export Plug-In . SVG Version: 6.00 Build 0)  -->
<svg version="1.1" id="Layer_1" xmlns="http://www.w3.org/2000/svg" xmlns:xlink="http://www.w3.org/1999/xlink" x="0px" y="0px"
	 viewBox="0 0 96 96" style="enable-background:new 0 0 96 96;" xml:space="preserve">
<path d="M74,78L50,91.9c-1.2,0.7-2.7,0.7-3.8,0L11,71.7c-1.1-0.8-1.9-2-1.9-3.3V40.6c1.4,0.5,2.9,0.8,4.4,0.8c1,0,2.1-0.1,3.1-0.4
	v25.3L48,84.4l22-12.7C70.6,74.2,72,76.4,74,78z"/>
<path d="M86.8,28v27.9c-1.4-0.5-2.9-0.8-4.4-0.8c-1.1,0-2.2,0.1-3.3,0.4V30.2L47.8,12.1L26.1,24.7c-0.7-2.5-2.1-4.6-4-6.3L46,4.6
	c1.2-0.7,2.6-0.7,3.8-0.1l35,20.2C86,25.3,86.8,26.6,86.8,28z"/>
<path d="M57.5,51.4c-0.2,0.6-0.5,1.2-0.8,1.8c-0.3,0.6-0.7,1.1-1.2,1.6c-1.9,2.2-4.7,3.4-7.5,3.4c-1.7,0-3.4-0.4-5-1.3
	c-4.2-2.4-6-7.4-4.5-11.8c0.2-0.6,0.5-1.2,0.8-1.8c0.3-0.6,0.7-1.1,1.2-1.6c1.9-2.2,4.7-3.4,7.5-3.4c1.7,0,3.4,0.4,5,1.4
	C57.2,42,59,47,57.5,51.4z"/>
<path d="M86.9,60.3C86.9,60.3,86.9,60.3,86.9,60.3c-1.5-0.8-3-1.2-4.5-1.2c-1.1,0-2.2,0.2-3.3,0.6c-1.2,0.5-2.4,1.2-3.3,2.3
	c-0.5,0.5-0.9,1-1.2,1.6c-0.3,0.6-0.6,1.2-0.8,1.8c-0.4,1.4-0.5,2.8-0.3,4.1c0.4,2.5,1.9,4.8,4.2,6.2c0,0,0.1,0.1,0.1,0.1
	c1.4,0.8,3,1.2,4.5,1.2c3.1,0,6.1-1.6,7.8-4.5C92.7,68.3,91.2,62.8,86.9,60.3z M79.2,66.3L79.2,66.3L79.2,66.3L79.2,66.3z"/>
<path d="M22.2,31c-0.2,0.6-0.5,1.2-0.8,1.8c-0.3,0.6-0.8,1.1-1.2,1.6c-1,1.1-2.2,1.9-3.5,2.3c-1,0.4-2,0.5-3.1,0.5
	c-1.5,0-3-0.4-4.4-1.2c0,0-0.1,0-0.1,0c-4.3-2.5-5.8-8-3.3-12.3c1.7-2.9,4.7-4.5,7.8-4.5c1.5,0,3.1,0.4,4.5,1.2c0,0,0.1,0.1,0.1,0.1
	c2.3,1.4,3.8,3.7,4.2,6.2C22.7,28.2,22.6,29.6,22.2,31z"/>
<path d="M37,39.6L25.7,33c-1-0.6-2.2-0.2-2.7,0.7c-0.6,1-0.2,2.2,0.7,2.7L35,43c1,0.6,2.2,0.2,2.7-0.7S38,40.1,37,39.6z"/>
<path d="M72.3,60L61,53.5c-1-0.6-2.2-0.2-2.7,0.7S58,56.4,59,56.9l11.3,6.5c1,0.6,2.2,0.2,2.7-0.7C73.6,61.8,73.3,60.5,72.3,60z"/>
</svg>
