<?xml version="1.0" encoding="utf-8"?>
<!-- Generator: Adobe Illustrator 17.0.0, SVG Export Plug-In . SVG Version: 6.00 Build 0)  -->
<!DOCTYPE svg PUBLIC "-//W3C//DTD SVG 1.1//EN" "http://www.w3.org/Graphics/SVG/1.1/DTD/svg11.dtd">
<svg version="1.1" id="Layer_1" xmlns="http://www.w3.org/2000/svg" xmlns:xlink="http://www.w3.org/1999/xlink" x="0px" y="0px"
	 width="96px" height="96px" viewBox="0 0 96 96" enable-background="new 0 0 96 96" xml:space="preserve">
<path d="M16,32C9.4,32,4,37.5,4,44.2V52c0,6.6,5.4,12,12,12h8l20,20V12L24,32H16z M29.7,37.7l6.3-6.5l0-0.2v33.7l-6.3-6.3L27.3,56
	H24h-8c-2.2,0-4-1.8-4-4v-7.8c0-2.3,1.8-4.2,4-4.2h8h3.3L29.7,37.7z M86.8,57.2c1.6,1.6,1.6,4.1,0,5.7C86,63.6,85,64,84,64
	s-2-0.4-2.8-1.2L72,53.7l-9.2,9.2C62,63.6,61,64,60,64s-2-0.4-2.8-1.2c-1.6-1.6-1.6-4.1,0-5.7l9.2-9.2l-9.2-9.2
	c-1.6-1.6-1.6-4.1,0-5.7c1.6-1.6,4.1-1.6,5.7,0l9.2,9.2l9.2-9.2c1.6-1.6,4.1-1.6,5.7,0c1.6,1.6,1.6,4.1,0,5.7L77.7,48L86.8,57.2z"/>
</svg>
