<?xml version="1.0" encoding="utf-8"?>
<!-- Generator: Adobe Illustrator 17.0.0, SVG Export Plug-In . SVG Version: 6.00 Build 0)  -->
<!DOCTYPE svg PUBLIC "-//W3C//DTD SVG 1.1//EN" "http://www.w3.org/Graphics/SVG/1.1/DTD/svg11.dtd">
<svg version="1.1" id="Layer_1" xmlns="http://www.w3.org/2000/svg" xmlns:xlink="http://www.w3.org/1999/xlink" x="0px" y="0px"
	 width="96px" height="96px" viewBox="0 0 96 96" enable-background="new 0 0 96 96" xml:space="preserve">
<path d="M49.69,4.029C49.13,4.01,48.57,4,48,4s-1.13,0.01-1.69,0.029C22.79,4.92,4,24.269,4,48c0,23.73,18.79,43.08,42.31,43.971
	C46.87,91.99,47.43,92,48,92s1.13-0.01,1.69-0.029C73.21,91.08,92,71.73,92,48C92,24.269,73.21,4.92,49.69,4.029z M83.769,44h-15.91
	c-0.909-13.4-6.27-24.09-10.739-30.84C71.33,16.88,82.13,29.06,83.769,44z M48.01,14.18C51.94,19.3,58.71,29.98,59.84,44H36.16
	C37.29,30.04,44.08,19.32,48.01,14.18z M38.88,13.16C34.41,19.91,29.05,30.6,28.141,44h-15.91C13.87,29.06,24.67,16.88,38.88,13.16z
	 M12.231,52h15.91C29.05,65.391,34.4,76.08,38.87,82.83C24.66,79.12,13.87,66.94,12.231,52z M47.99,81.82
	C44.06,76.7,37.29,66.019,36.16,52h23.68C58.71,65.96,51.93,76.68,47.99,81.82z M57.13,82.83c4.47-6.75,9.82-17.44,10.729-30.83
	h15.91C82.13,66.94,71.34,79.12,57.13,82.83z"/>
</svg>
