<?xml version="1.0" encoding="utf-8"?>
<!-- Generator: Adobe Illustrator 22.0.1, SVG Export Plug-In . SVG Version: 6.00 Build 0)  -->
<svg version="1.1" id="Layer_1" xmlns="http://www.w3.org/2000/svg" xmlns:xlink="http://www.w3.org/1999/xlink" x="0px" y="0px"
	 viewBox="0 0 96 96" style="enable-background:new 0 0 96 96;" xml:space="preserve">
<g>
	<path d="M48,92.5c-24.5,0-44.5-20-44.5-44.5S23.5,3.5,48,3.5s44.5,20,44.5,44.5S72.5,92.5,48,92.5z M48,7.7
		C25.8,7.7,7.7,25.8,7.7,48S25.8,88.3,48,88.3S88.3,70.2,88.3,48S70.2,7.7,48,7.7z"/>
</g>
<path d="M70.3,46.9c0-12-9.6-21.9-21.5-22.3c-0.3,0-0.5,0-0.8,0s-0.6,0-0.8,0c-12,0.5-21.5,10.3-21.5,22.3s9.6,21.9,21.5,22.3
	c0.3,0,0.5,0,0.8,0s0.6,0,0.8,0c0.8,0,1.6-0.1,2.3-0.2c1.8,1.4,4.1,2.3,6.6,2.3c5.7,0,10.3-4.6,10.3-10.3c0-1.2-0.2-2.3-0.5-3.4
	C69.3,54.5,70.3,50.9,70.3,46.9z M48,29.8c2,2.6,5.4,8,6,15.2H42C42.6,37.9,46,32.4,48,29.8z M43.4,29.3c-2.3,3.4-5,8.8-5.5,15.6
	h-8.1C30.6,37.4,36.2,31.2,43.4,29.3z M29.9,49h8.1c0.5,6.8,3.2,12.2,5.5,15.6C36.2,62.8,30.6,56.6,29.9,49z M47.4,61.1
	c0,1,0.1,1.9,0.4,2.8c-2-2.7-5.2-8-5.8-14.9h12c-0.1,0.8-0.2,1.7-0.4,2.5C50,53.1,47.4,56.8,47.4,61.1z M57.8,69
	c-4.4,0-7.9-3.5-7.9-7.9c0-1.2,0.3-2.4,0.8-3.4l2.9,9.1h2.6l1.6-6.2l0,0l1.6,6.2h2.6l2.9-9.2h-2.6l-1.7,6.3h-0.1l-1.6-6.3h-2.4
	L55,63.9h-0.1l-1.7-6.3h-2.6c1.3-2.6,4-4.5,7.2-4.5c4.4,0,7.9,3.5,7.9,7.9S62.2,69,57.8,69z M65,53.6c-1.9-1.8-4.3-2.9-7.1-2.9
	c0.1-0.5,0.1-1.1,0.2-1.7h8.1C66,50.6,65.6,52.2,65,53.6z M58.1,45c-0.5-6.8-3.2-12.2-5.5-15.6c7.2,1.9,12.7,8.1,13.5,15.6H58.1z"/>
</svg>
