<?xml version="1.0" encoding="utf-8"?>
<!-- Generator: Adobe Illustrator 22.0.1, SVG Export Plug-In . SVG Version: 6.00 Build 0)  -->
<svg version="1.1" id="Layer_1" xmlns="http://www.w3.org/2000/svg" xmlns:xlink="http://www.w3.org/1999/xlink" x="0px" y="0px"
	 viewBox="0 0 96 96" style="enable-background:new 0 0 96 96;" xml:space="preserve">
<g>
	<path d="M53.7,51.6c0.2-0.8,0.3-1.7,0.4-2.5H42c0.6,6.9,3.8,12.2,5.8,14.9c-0.3-0.9-0.4-1.9-0.4-2.8C47.4,56.8,50,53.1,53.7,51.6z"
		/>
	<path d="M29.9,49c0.8,7.6,6.3,13.8,13.5,15.6c-2.3-3.4-5-8.8-5.5-15.6H29.9z"/>
	<path d="M43.4,29.3c-7.2,1.9-12.8,8.1-13.5,15.6h8.1C38.4,38.1,41.1,32.7,43.4,29.3z"/>
	<path d="M57.8,53.1c-3.1,0-5.8,1.9-7.2,4.5h2.6l1.7,6.3H55l1.5-6.3h2.4l1.6,6.3h0.1l1.7-6.3h2.6l-2.9,9.2h-2.6l-1.6-6.2l-1.6,6.2
		h-2.6l-2.9-9.1c-0.5,1-0.8,2.2-0.8,3.4c0,4.4,3.5,7.9,7.9,7.9s8-3.6,8-8S62.2,53.1,57.8,53.1z"/>
	<path d="M54,45c-0.6-7.2-4-12.6-6-15.2c-2,2.6-5.5,8.1-6,15.2H54z"/>
	<path d="M48,3.5C23.5,3.5,3.5,23.5,3.5,48s20,44.5,44.5,44.5s44.5-20,44.5-44.5S72.5,3.5,48,3.5z M68.1,61
		c0,5.7-4.6,10.3-10.3,10.3c-2.5,0-4.8-0.9-6.6-2.3c-0.8,0.1-1.6,0.2-2.3,0.2c-0.2,0-0.5,0-0.8,0c-0.3,0-0.5,0-0.8,0
		C35.2,68.8,25.7,59,25.7,46.9c0-12,9.6-21.8,21.5-22.3c0.2,0,0.5,0,0.8,0c0.3,0,0.5,0,0.8,0C60.8,25,70.3,34.9,70.3,46.9
		c0,3.9-1,7.6-2.8,10.7C67.9,58.7,68.1,59.8,68.1,61z"/>
	<path d="M57.9,50.7c2.8,0.1,5.2,1.1,7.1,2.9c0.6-1.4,1-3,1.1-4.6h-8.1C58,49.6,58,50.1,57.9,50.7z"/>
	<path d="M52.6,29.3c2.3,3.4,5,8.8,5.5,15.6h8.1C65.3,37.4,59.8,31.2,52.6,29.3z"/>
</g>
</svg>
