<?xml version="1.0" encoding="utf-8"?>
<!-- Generator: Adobe Illustrator 21.0.0, SVG Export Plug-In . SVG Version: 6.00 Build 0)  -->
<svg version="1.1" id="Layer_1" xmlns="http://www.w3.org/2000/svg" xmlns:xlink="http://www.w3.org/1999/xlink" x="0px" y="0px"
	 viewBox="0 0 96 96" style="enable-background:new 0 0 96 96;" xml:space="preserve">
<style type="text/css">
	.st0{fill:#231815;}
</style>
<path class="st0" d="M13.5,33L2.1,49.5l11.2,18h0.1H94V33H13.5z M37.8,59.7h-5.6L25,49v10.6h-5.6V40.3h5.6L32.2,51V40.3h5.6V59.7z
	 M58.1,59.7H41.8V40.3h16v4.1h-10v3.1h9.3v3.9h-9.3v3.8h10.3V59.7z M82.1,59.7h-5.9l-3.4-12.2l-3.4,12.2h-5.9l-4.3-19.3H65l2,10.8
	l3-10.8h5.7l3,10.8l2-10.8h5.6L82.1,59.7z"/>
</svg>
