<?xml version="1.0" encoding="utf-8"?>
<!-- Generator: Adobe Illustrator 21.0.0, SVG Export Plug-In . SVG Version: 6.00 Build 0)  -->
<svg version="1.1" id="Layer_1" xmlns="http://www.w3.org/2000/svg" xmlns:xlink="http://www.w3.org/1999/xlink" x="0px" y="0px"
	 width="96px" height="96px" viewBox="0 0 96 96" style="enable-background:new 0 0 96 96;" xml:space="preserve">
<style type="text/css">
	.st0{fill:#1B1B1C;}
</style>
<g>
	<path class="st0" d="M87,25.9v44l-38.1,22l-14.7-8.5c0,0,3.3-0.4,5.4-1.7c1.8-1.1,3.6-2.6,3.6-2.6l5.7,3.6L79,65.3V30.6L48.9,13.2
		l-30,17.4v34.7l11.2,6.5c2.3,0.7,3.9-0.2,5.1-1.1c1.9-1.5,2.3-4,2.4-4.6V30.5h8v36c0,0.7-0.6,6.5-5.3,10.3
		c-0.2,0.2-0.4,0.3-0.6,0.5c0,0-0.1,0.1-0.4,0.3c-1.3,0.6-6.1,3.9-12.9,1.1c-0.2-0.1-0.2-0.1-0.4-0.2l-15.1-8.6v-44L48.9,4L87,25.9z
		"/>
	<path class="st0" d="M62.7,63.2c0.6-0.8,0.9-1.8,0.9-3c0-1.1-0.3-2-0.8-2.9c-0.6-0.8-1.9-1.6-3.9-2.4c-3.4-1.2-5.7-2.9-7.2-5
		c-1.4-2.1-2.2-4.7-2.2-7.9c0-2.1,0.4-4.1,1.1-6s1.8-3.3,3.3-4.4S57.4,30,60,30c3.2,0,5.6,1,7.2,2.9c1.7,1.9,2.6,5,3,9.3L63,43.1
		c-0.2-1.8-0.6-3.2-1.2-4c-0.6-0.8-1.5-1.3-2.5-1.3c-0.9,0-1.6,0.3-2,0.9c-0.5,0.6-0.7,1.4-0.7,2.3c0,0.7,0.2,1.2,0.6,1.8
		c0.4,0.5,1.2,1,2.6,1.5c3.3,1.2,5.7,2.4,7.2,3.6c1.4,1.2,2.5,2.7,3.2,4.5s1,3.8,1,6.1c0,2.6-0.4,5.1-1.3,7.3
		c-0.9,2.2-2.1,3.9-3.7,5s-3.6,1.7-6,1.7c-4.2,0-7.1-1.3-8.7-4c-1.6-2.7-2.5-6.1-2.8-10.2l7.3-0.8c0.2,2,0.5,3.5,1,4.5
		c0.8,1.7,1.9,2.5,3.4,2.5C61.3,64.5,62.1,64.1,62.7,63.2z"/>
</g>
</svg>
