<?xml version="1.0" encoding="utf-8"?>
<!-- Generator: Adobe Illustrator 21.0.0, SVG Export Plug-In . SVG Version: 6.00 Build 0)  -->
<svg version="1.1" id="Layer_1" xmlns="http://www.w3.org/2000/svg" xmlns:xlink="http://www.w3.org/1999/xlink" x="0px" y="0px"
	 width="96px" height="96px" viewBox="0 0 96 96" style="enable-background:new 0 0 96 96;" xml:space="preserve">
<g>
	<circle cx="87" cy="48" r="9"/>
	<circle cx="9" cy="48" r="9"/>
	<circle cx="69" cy="18" r="9"/>
	<circle cx="69" cy="78" r="9"/>
	<path d="M22.9,32l11-11H48c3.3,0,6-2.7,6-6v-0.1c0-3.3-2.7-6-6-6H30c-2.9,0-5.2,2.1-5.7,4.9l-9.7,9.7c-2.3,2.3-2.3,6.1,0,8.4
		C16.8,34.3,20.6,34.3,22.9,32z"/>
	<path d="M30,45c-3.3,0-6,2.7-6,6V51c0,3.3,2.7,6,6,6H66c3.3,0,6-2.7,6-6v-0.1c0-3.3-2.7-6-6-6H30z"/>
	<path d="M48,75H33.4L22.9,64.5c-2.3-2.3-6.1-2.3-8.4,0c-2.3,2.3-2.3,6.1,0,8.4l9.9,9.9c0.8,2.4,2.9,4.2,5.6,4.2h0.4
		c0.6,0.1,1.1,0.1,1.7,0h16c3.3,0,6-2.7,6-6v-0.1C54,77.6,51.3,75,48,75z"/>
</g>
</svg>
