<?xml version="1.0" encoding="utf-8"?>
<!-- Generator: Adobe Illustrator 21.0.0, SVG Export Plug-In . SVG Version: 6.00 Build 0)  -->
<svg version="1.1" id="Layer_1" xmlns="http://www.w3.org/2000/svg" xmlns:xlink="http://www.w3.org/1999/xlink" x="0px" y="0px"
	 viewBox="0 0 96 96" style="enable-background:new 0 0 96 96;" xml:space="preserve">
<style type="text/css">
	.st0{fill:#190A0A;}
</style>
<g>
	<rect x="70.5" y="39.9" class="st0" width="19.1" height="17.8"/>
	<path class="st0" d="M81.2,7.7H15.4C10.8,7.7,7,11.4,7,16v17.3h18.4v-0.4c0-4.1,3.3-7.4,7.4-7.4h30.4c4.1,0,7.4,3.3,7.4,7.4v0.4
		h19.1V16C89.6,11.4,85.8,7.7,81.2,7.7z"/>
	<rect x="7" y="39.9" class="st0" width="18.4" height="17.8"/>
	<path class="st0" d="M70.5,65.2c0,4.1-3.3,7.4-7.4,7.4H32.8c-4.1,0-7.4-3.3-7.4-7.4v-0.8H7v16.2c0,4.6,3.8,8.4,8.4,8.4h65.8
		c4.6,0,8.4-3.8,8.4-8.4V64.4H70.5V65.2z"/>
</g>
</svg>
