<?xml version="1.0" encoding="utf-8"?>
<!-- Generator: Adobe Illustrator 17.0.0, SVG Export Plug-In . SVG Version: 6.00 Build 0)  -->
<!DOCTYPE svg PUBLIC "-//W3C//DTD SVG 1.1//EN" "http://www.w3.org/Graphics/SVG/1.1/DTD/svg11.dtd">
<svg version="1.1" id="Layer_1" xmlns="http://www.w3.org/2000/svg" xmlns:xlink="http://www.w3.org/1999/xlink" x="0px" y="0px"
	 width="96px" height="96px" viewBox="0 0 96 96" enable-background="new 0 0 96 96" xml:space="preserve">
<path d="M88,48c-2.2,0-4,1.8-4,4v28c0,2.2-1.8,4-4,4H16c-2.2,0-4-1.8-4-4V16c0-2.2,1.8-4,4-4h28c2.2,0,4-1.8,4-4c0-2.2-1.8-4-4-4H16
	C9.4,4,4,9.4,4,16v64c0,6.6,5.4,12,12,12h64c6.6,0,12-5.4,12-12V52C92,49.8,90.2,48,88,48z M92,8v24c0,2.2-1.8,4-4,4s-4-1.8-4-4
	V17.7L51.2,50.4c-1.6,1.6-4.1,1.6-5.7,0c-1.6-1.6-1.6-4.1,0-5.7L78.3,12H64c-2.2,0-4-1.8-4-4c0-2.2,1.8-4,4-4h24C90.2,4,92,5.8,92,8
	z"/>
</svg>
