<svg xmlns="http://www.w3.org/2000/svg" width="24" height="24" viewBox="0 0 24 24">
  <path fill="#0A1633" d="M6.74042969,5.84726563 L6.74042969,7.53300781 C6.74042969,8.15175781 7.24667969,8.65800781 7.86542969,8.65800781 L7.86542969,8.65800781 L15.4869141,8.65800781 C16.1056641,8.65800781 16.6119141,8.15175781 16.6119141,7.53300781 L16.6119141,7.53300781 L16.6119141,5.84726563 L16.6666016,5.84726563 C17.5929687,5.84726563 18.3523437,6.60488281 18.3523437,7.53300781 L18.3523437,7.53300781 L18.3523437,11.1576172 L18.3488281,14.7277344 L18.3488281,18.7759766 C18.3488281,19.7023438 17.5912109,20.4617188 16.6630859,20.4617188 L16.6630859,20.4617188 L6.68574219,20.4617188 C5.759375,20.4617188 5,19.7041016 5,18.7759766 L5,18.7759766 L5,7.53300781 C5,6.60664063 5.75761719,5.84726563 6.68574219,5.84726563 L6.68574219,5.84726563 L6.74042969,5.84726563 Z M12.8129283,14.9463581 L8.13030566,14.9463581 C7.75797372,14.9463581 7.45333851,15.3355081 7.45333851,15.8111358 C7.45333851,16.2867636 7.75797372,16.6759136 8.13030566,16.6759136 L8.13030566,16.6759136 L12.8150438,16.6759136 C13.1873757,16.6759136 13.4920109,16.2867636 13.4920109,15.8111358 C13.4920109,15.3355081 13.1873757,14.9463581 12.8129283,14.9463581 L12.8129283,14.9463581 Z M15.2199226,11.6969995 L8.13030566,11.6969995 C7.75797372,11.6969995 7.45333851,12.0861495 7.45333851,12.5617772 C7.45333851,13.037405 7.75797372,13.426555 8.13030566,13.426555 L8.13030566,13.426555 L15.2220381,13.426555 C15.59437,13.426555 15.8990052,13.037405 15.8990052,12.5617772 C15.8990052,12.0861495 15.59437,11.6969995 15.2199226,11.6969995 L15.2199226,11.6969995 Z M13.3619141,4 C13.6712891,4 13.9244141,4.253125 13.9244141,4.5625 L13.9244141,4.5625 L13.9244141,5.125 L15.0494141,5.125 L15.0813089,6.71064033 C15.0813089,7.02001533 14.8281839,7.27314033 14.5188089,7.27314033 L14.5188089,7.27314033 L8.89732453,7.27314033 C8.58794953,7.27314033 8.33482453,7.02001533 8.33482453,6.71064033 L8.33482453,6.71064033 L8.30292969,5.125 L9.42792969,5.125 L9.42792969,4.5625 C9.42792969,4.253125 9.68105469,4 9.99042969,4 L9.99042969,4 L13.3619141,4 Z"/>
</svg>
