<?xml version="1.0" encoding="utf-8"?>
<!-- Generator: Adobe Illustrator 22.1.0, SVG Export Plug-In . SVG Version: 6.00 Build 0)  -->
<svg version="1.1" id="Layer_1" xmlns="http://www.w3.org/2000/svg" xmlns:xlink="http://www.w3.org/1999/xlink" x="0px" y="0px"
	 viewBox="0 0 96 96" style="enable-background:new 0 0 96 96;" xml:space="preserve">
<g>
	<path d="M72,12h-4.7C65.7,7.3,61.2,4,56,4H40c-5.2,0-9.7,3.3-11.3,8H24c-6.6,0-12,5.4-12,12v56c0,6.6,5.4,12,12,12h48
		c6.6,0,12-5.4,12-12V24C84,17.4,78.6,12,72,12z M40,12h16c2.2,0,4,1.8,4,4s-1.8,4-4,4H40c-2.2,0-4-1.8-4-4S37.8,12,40,12z M76,80
		c0,2.2-1.8,4-4,4H24c-2.2,0-4-1.8-4-4V24c0-2.2,1.8-4,4-4h4.7c1.6,4.7,6.1,8,11.3,8h16c5.2,0,9.7-3.3,11.3-8H72c2.2,0,4,1.8,4,4V80
		z"/>
	<path d="M60.8,46.6H35.2c-1.8,0-3.2,1.4-3.2,3.2v0c0,1.8,1.4,3.2,3.2,3.2h25.6c1.8,0,3.2-1.4,3.2-3.2v0C64,48,62.5,46.6,60.8,46.6z
		"/>
	<path d="M60.8,37.1H35.2c-1.8,0-3.2,1.4-3.2,3.2v0c0,1.8,1.4,3.2,3.2,3.2h25.6c1.8,0,3.2-1.4,3.2-3.2v0
		C64,38.5,62.5,37.1,60.8,37.1z"/>
	<path d="M60.8,56.1H35.2c-1.8,0-3.2,1.4-3.2,3.2v0c0,1.8,1.4,3.2,3.2,3.2h25.6c1.8,0,3.2-1.4,3.2-3.2v0
		C64,57.5,62.5,56.1,60.8,56.1z"/>
	<path d="M48.8,65.6H35.2c-1.8,0-3.2,1.4-3.2,3.2v0c0,1.8,1.4,3.2,3.2,3.2h13.6c1.8,0,3.2-1.4,3.2-3.2v0C52,67,50.5,65.6,48.8,65.6z
		"/>
</g>
</svg>
