<?xml version="1.0" encoding="utf-8"?>
<!-- Generator: Adobe Illustrator 17.0.0, SVG Export Plug-In . SVG Version: 6.00 Build 0)  -->
<!DOCTYPE svg PUBLIC "-//W3C//DTD SVG 1.1//EN" "http://www.w3.org/Graphics/SVG/1.1/DTD/svg11.dtd">
<svg version="1.1" id="Layer_1" xmlns="http://www.w3.org/2000/svg" xmlns:xlink="http://www.w3.org/1999/xlink" x="0px" y="0px"
	 width="96px" height="96px" viewBox="0 0 96 96" enable-background="new 0 0 96 96" xml:space="preserve">
<path d="M25.2,30.8c-1.6-1.6-1.6-4.1,0-5.7l20-20c1.6-1.6,4.1-1.6,5.7,0l20,20c1.6,1.6,1.6,4.1,0,5.7C70,31.6,69,32,68,32
	s-2-0.4-2.8-1.2L52,17.7V64c0,2.2-1.8,4-4,4s-4-1.8-4-4V17.7L30.8,30.8C29.3,32.4,26.7,32.4,25.2,30.8z M88,60c-2.2,0-4,1.8-4,4v16
	c0,2.2-1.7,4-3.9,4H16c-2.2,0-4-1.8-4-4V64c0-2.2-1.8-4-4-4c-2.2,0-4,1.8-4,4v16c0,1.6,0.3,3.2,0.9,4.7c0.6,1.4,1.5,2.7,2.6,3.8
	c1.1,1.1,2.4,2,3.8,2.6c1.5,0.6,3.1,0.9,4.7,0.9h64.1c1.6,0,3.2-0.3,4.6-1c1.4-0.6,2.7-1.5,3.8-2.6c1.1-1.1,1.9-2.4,2.5-3.8
	c0.6-1.5,0.9-3,0.9-4.7V64C92,61.8,90.2,60,88,60z"/>
</svg>
