<?xml version="1.0" encoding="utf-8"?>
<!-- Generator: Adobe Illustrator 17.0.0, SVG Export Plug-In . SVG Version: 6.00 Build 0)  -->
<!DOCTYPE svg PUBLIC "-//W3C//DTD SVG 1.1//EN" "http://www.w3.org/Graphics/SVG/1.1/DTD/svg11.dtd">
<svg version="1.1" id="Layer_1" xmlns="http://www.w3.org/2000/svg" xmlns:xlink="http://www.w3.org/1999/xlink" x="0px" y="0px"
	 width="96px" height="96px" viewBox="0 0 96 96" enable-background="new 0 0 96 96" xml:space="preserve">
<g>
	<path d="M56,88H20c-2.21,0-4-1.79-4-4v-8V28V16.698C11,18.348,8,22.777,8,28v56c0,6.627,5.373,12,12,12h40
		c5.223,0,9.652-3.343,11.303-8H60H56z"/>
	<path d="M76,0H36c-6.627,0-12,5.373-12,12V68c0,6.628,5.373,12,12,12h40c6.627,0,12-5.373,12-12V12C88,5.373,82.627,0,76,0z
		 M80,67.999C80,70.209,78.209,72,76,72H36c-2.209,0-4-1.791-4-4.001V12.001C32,9.791,33.791,8,36,8h40c2.209,0,4,1.791,4,4.001
		V67.999z"/>
</g>
</svg>
