<?xml version="1.0" encoding="utf-8"?>
<!-- Generator: Adobe Illustrator 17.0.0, SVG Export Plug-In . SVG Version: 6.00 Build 0)  -->
<!DOCTYPE svg PUBLIC "-//W3C//DTD SVG 1.1//EN" "http://www.w3.org/Graphics/SVG/1.1/DTD/svg11.dtd">
<svg version="1.1" id="Layer_1" xmlns="http://www.w3.org/2000/svg" xmlns:xlink="http://www.w3.org/1999/xlink" x="0px" y="0px"
	 width="96px" height="96px" viewBox="0 0 96 96" enable-background="new 0 0 96 96" xml:space="preserve">
<path d="M32,90.4c-3.6,0-7.2-0.7-10.5-2.1c-3.5-1.4-6.6-3.5-9.3-6.2c-2.7-2.7-4.7-5.8-6.2-9.3C4.7,69.5,4,66,4,62.4
	c0-3.6,0.7-7.2,2.1-10.5c1.4-3.5,3.5-6.6,6.2-9.3l0,0L49.1,5.8c1.9-1.9,4.1-3.4,6.6-4.4c2.4-1,4.9-1.5,7.5-1.5
	c2.6,0,5.1,0.5,7.5,1.5c2.5,1,4.7,2.5,6.6,4.4c1.9,1.9,3.4,4.1,4.4,6.6c1,2.4,1.5,4.9,1.5,7.5s-0.5,5.1-1.5,7.5
	c-1,2.5-2.5,4.7-4.4,6.6L40.5,70.8c-1.1,1.1-2.5,2-4,2.6c-1.4,0.6-3,0.9-4.5,0.9c-1.6,0-3.1-0.3-4.5-0.9c-1.5-0.6-2.8-1.5-4-2.6
	c-1.1-1.1-2-2.5-2.6-4c-0.6-1.4-0.9-3-0.9-4.5c0-1.6,0.3-3.1,0.9-4.5c0.6-1.5,1.5-2.8,2.6-4l33.9-33.9c1.6-1.6,4.1-1.6,5.7,0
	c1.6,1.6,1.6,4.1,0,5.7L29.2,59.5c-0.8,0.8-1.2,1.8-1.2,2.8c0,1.1,0.4,2.1,1.2,2.8c0.8,0.8,1.8,1.2,2.8,1.2c1.1,0,2.1-0.4,2.8-1.2
	l36.8-36.8c2.3-2.3,3.5-5.3,3.5-8.4s-1.2-6.2-3.5-8.4C69.4,9.2,66.4,8,63.2,8C60,8,57,9.2,54.8,11.5l0,0L17.9,48.2
	c-1.9,1.9-3.4,4.1-4.4,6.6c-1,2.4-1.5,4.9-1.5,7.5c0,2.6,0.5,5.1,1.5,7.5c1,2.5,2.5,4.7,4.4,6.6c1.9,1.9,4.1,3.4,6.6,4.4
	c2.4,1,4.9,1.5,7.5,1.5s5.1-0.5,7.5-1.5c2.5-1,4.7-2.5,6.6-4.4l36.8-36.8c1.6-1.6,4.1-1.6,5.7,0c1.6,1.6,1.6,4.1,0,5.7L51.8,82.2
	c-2.7,2.7-5.8,4.7-9.3,6.2C39.2,89.7,35.6,90.4,32,90.4z"/>
</svg>
