<?xml version="1.0" encoding="utf-8"?>
<!-- Generator: Adobe Illustrator 17.0.0, SVG Export Plug-In . SVG Version: 6.00 Build 0)  -->
<!DOCTYPE svg PUBLIC "-//W3C//DTD SVG 1.1//EN" "http://www.w3.org/Graphics/SVG/1.1/DTD/svg11.dtd">
<svg version="1.1" id="Layer_1" xmlns="http://www.w3.org/2000/svg" xmlns:xlink="http://www.w3.org/1999/xlink" x="0px" y="0px"
	 width="96px" height="96px" viewBox="0 0 96 96" enable-background="new 0 0 96 96" xml:space="preserve">
<path d="M76,0H20C13.4,0,8,5.4,8,12v72c0,6.6,5.4,12,12,12h56c6.6,0,12-5.4,12-12V12C88,5.4,82.6,0,76,0z M80,84c0,2.2-1.8,4-4,4H20
	c-2.2,0-4-1.8-4-4V12c0-2.2,1.8-4,4-4h56c2.2,0,4,1.8,4,4V84z M64,68H32c-2.2,0-4,1.8-4,4s1.8,4,4,4h32c2.2,0,4-1.8,4-4
	S66.2,68,64,68z M64,52H32c-2.2,0-4,1.8-4,4s1.8,4,4,4h32c2.2,0,4-1.8,4-4S66.2,52,64,52z M64,36H32c-2.2,0-4,1.8-4,4s1.8,4,4,4h32
	c2.2,0,4-1.8,4-4S66.2,36,64,36z M32,28h16c2.2,0,4-1.8,4-4s-1.8-4-4-4H32c-2.2,0-4,1.8-4,4S29.8,28,32,28z"/>
</svg>
