<?xml version="1.0" encoding="utf-8"?>
<!-- Generator: Adobe Illustrator 17.0.0, SVG Export Plug-In . SVG Version: 6.00 Build 0)  -->
<!DOCTYPE svg PUBLIC "-//W3C//DTD SVG 1.1//EN" "http://www.w3.org/Graphics/SVG/1.1/DTD/svg11.dtd">
<svg version="1.1" id="Layer_1" xmlns="http://www.w3.org/2000/svg" xmlns:xlink="http://www.w3.org/1999/xlink" x="0px" y="0px"
	 width="96px" height="96px" viewBox="0 0 96 96" enable-background="new 0 0 96 96" xml:space="preserve">
<path d="M76,4H40C26.7,4,16,14.7,16,28s10.7,24,24,24h16v36c0,2.2,1.8,4,4,4s4-1.8,4-4V52v-8V12h8v76c0,2.2,1.8,4,4,4s4-1.8,4-4V8
	C80,5.8,78.2,4,76,4z M24,28c0-8.8,7.2-16,16-16h16v32H40C31.2,44,24,36.8,24,28z"/>
</svg>
