<?xml version="1.0" encoding="utf-8"?>
<!-- Generator: Adobe Illustrator 21.0.0, SVG Export Plug-In . SVG Version: 6.00 Build 0)  -->
<svg version="1.1" id="Layer_1" xmlns="http://www.w3.org/2000/svg" xmlns:xlink="http://www.w3.org/1999/xlink" x="0px" y="0px"
	 viewBox="0 0 96 96" style="enable-background:new 0 0 96 96;" xml:space="preserve">
<g>
	<path d="M77.3,40.2V33c0-9-2.9-16.4-8.4-21.3c-5-4.5-11.8-6.9-19.8-6.9c-8.1,0-15,2.2-19.8,6.4c-5.6,4.9-8.4,12.2-8.4,21.8v7.2
		h-6.1v35.5c0,9,7.3,16.3,16.3,16.3h36c9,0,16.3-7.3,16.3-16.3V40.2H77.3z M26.7,33c0-7.8,2.2-13.6,6.4-17.4c3.7-3.3,9.2-5,15.9-5
		c6.5,0,12,1.8,15.9,5.3c4.3,3.9,6.5,9.6,6.5,17v7.2H26.7V33z M77.6,75.7c0,5.8-4.7,10.5-10.5,10.5h-36c-5.8,0-10.5-4.7-10.5-10.5
		V46h57V75.7z"/>
	<rect x="43.2" y="56" width="11.7" height="17.5"/>
</g>
</svg>
