<?xml version="1.0" encoding="utf-8"?>
<!-- Generator: Adobe Illustrator 17.0.0, SVG Export Plug-In . SVG Version: 6.00 Build 0)  -->
<!DOCTYPE svg PUBLIC "-//W3C//DTD SVG 1.1//EN" "http://www.w3.org/Graphics/SVG/1.1/DTD/svg11.dtd">
<svg version="1.1" id="Layer_1" xmlns="http://www.w3.org/2000/svg" xmlns:xlink="http://www.w3.org/1999/xlink" x="0px" y="0px"
	 width="96px" height="96px" viewBox="0 0 96 96" enable-background="new 0 0 96 96" xml:space="preserve">
<path d="M32,12c-6.6,0-12,5.4-12,12v48c0,6.6,5.4,12,12,12s12-5.4,12-12V24C44,17.4,38.6,12,32,12z M36,72c0,2.2-1.8,4-4,4
	s-4-1.8-4-4V24c0-2.2,1.8-4,4-4s4,1.8,4,4V72z M64,12c-6.6,0-12,5.4-12,12v48c0,6.6,5.4,12,12,12s12-5.4,12-12V24
	C76,17.4,70.6,12,64,12z M68,72c0,2.2-1.8,4-4,4s-4-1.8-4-4V24c0-2.2,1.8-4,4-4s4,1.8,4,4V72z"/>
</svg>
