<?xml version="1.0" encoding="utf-8"?>
<!-- Generator: Adobe Illustrator 21.0.0, SVG Export Plug-In . SVG Version: 6.00 Build 0)  -->
<svg version="1.1" id="Layer_1" xmlns="http://www.w3.org/2000/svg" xmlns:xlink="http://www.w3.org/1999/xlink" x="0px" y="0px"
	 viewBox="0 0 96 96" style="enable-background:new 0 0 96 96;" xml:space="preserve">
<g>
	<path d="M16,35.2v21.5c0,4,3.3,7.2,7.2,7.2h49.5c4,0,7.2-3.3,7.2-7.2V35.2c0-4-3.3-7.2-7.2-7.2H23.2C19.3,28,16,31.3,16,35.2z
		 M24,36h48v20H24V36z"/>
	<path d="M8,32c2.2,0,4-1.8,4-4v-9.2c0-3.8,3.1-6.8,6.8-6.8H28c2.2,0,4-1.8,4-4s-1.8-4-4-4h-9.2C10.6,4,4,10.6,4,18.8V28
		C4,30.2,5.8,32,8,32z"/>
	<path d="M28,84h-9.2C15,84,12,80.9,12,77.2V68c0-2.2-1.8-4-4-4s-4,1.8-4,4v9.2C4,85.4,10.6,92,18.8,92H28c2.2,0,4-1.8,4-4
		S30.2,84,28,84z"/>
	<path d="M88,64c-2.2,0-4,1.8-4,4v9.2c0,3.8-3.1,6.8-6.8,6.8H68c-2.2,0-4,1.8-4,4s1.8,4,4,4h9.2C85.4,92,92,85.4,92,77.2V68
		C92,65.8,90.2,64,88,64z"/>
	<path d="M77.2,4H64c-2.2,0-4,1.8-4,4s1.8,4,4,4h13.2c3.8,0,6.8,3.1,6.8,6.8V28c0,2.2,1.8,4,4,4s4-1.8,4-4v-9.2
		C92,10.6,85.4,4,77.2,4z"/>
	<path d="M32.5,40c-2.9,0.1-4.4,2.2-4.5,6.1c0,3.8,1.5,5.8,4.5,5.9c3,0.1,4.5-1.9,4.5-5.9C36.9,42.1,35.4,40.1,32.5,40z M32.5,50.2
		c-1.2,0-1.8-1.3-1.8-4c0-2.8,0.6-4.2,1.8-4.1c1.2-0.1,1.7,1.3,1.7,4.1C34.2,48.8,33.7,50.2,32.5,50.2z"/>
	<rect x="43.2" y="40.8" width="2.2" height="11.2"/>
	<path d="M54.4,40c-2.9,0.1-4.4,2.2-4.5,6.1c0,3.8,1.5,5.8,4.5,5.9c3,0.1,4.5-1.9,4.5-5.9C58.8,42.1,57.3,40.1,54.4,40z M54.4,50.2
		c-1.2,0-1.8-1.3-1.8-4c0-2.8,0.6-4.2,1.8-4.1c1.2-0.1,1.7,1.3,1.7,4.1C56.1,48.8,55.6,50.2,54.4,50.2z"/>
	<rect x="63.3" y="40.8" width="2.2" height="11.2"/>
</g>
</svg>
