<?xml version="1.0" encoding="utf-8"?>
<!-- Generator: Adobe Illustrator 21.0.0, SVG Export Plug-In . SVG Version: 6.00 Build 0)  -->
<svg version="1.1" id="Layer_1" xmlns="http://www.w3.org/2000/svg" xmlns:xlink="http://www.w3.org/1999/xlink" x="0px" y="0px"
	 viewBox="0 0 96 96" style="enable-background:new 0 0 96 96;" xml:space="preserve">
<path d="M79,32.2H54.6v3.2H79L79,32.2L79,32.2z M54.6,54.8h6.5v-3.2h-6.5V54.8z M79,41.9H54.6v3.2H79L79,41.9L79,41.9z M77.4,51.6
	c-8.1,0-14.7,6.5-14.7,14.6s6.6,14.6,14.7,14.6c8.1,0,14.7-6.5,14.7-14.6C92.1,58.1,85.5,51.6,77.4,51.6z M77.3,75.3
	c-0.8,0.8-2,0.8-2.8,0l-6.3-6.2c-0.8-0.8-0.8-2,0-2.8c0.8-0.8,2-0.8,2.8,0l4.9,4.8l9.5-9.3c0.8-0.8,2-0.8,2.8,0c0.8,0.8,0.8,2,0,2.8
	L77.3,75.3L77.3,75.3z M11.5,74.3c-2.3,0-4.2-1.9-4.2-4.2V23.5c0-2.3,1.9-4.2,4.2-4.2h71.5c2.3,0,4.2,1.9,4.2,4.2v27.8
	c1.2,0.8,2.3,1.7,3.3,2.7V22.3c0-3.5-2.8-6.3-6.3-6.3H10.3C6.8,16,4,18.8,4,22.3v48.9c0,3.5,2.8,6.3,6.3,6.3h53.2
	c-0.8-1-1.5-2.1-2.1-3.2L11.5,74.3L11.5,74.3z M17.9,30.6c-1.4,0-2.5,1.1-2.5,2.4v29.2c0,1.3,1.1,2.4,2.5,2.4h27.5
	c1.4,0,2.6-1.1,2.6-2.4V33c0-1.3-1.2-2.4-2.6-2.4H17.9z M20.3,61.3c0,0-0.3-2.4,1.1-4.1c0.8-0.7,1.2-2.6,5.2-3.1
	c4-0.6,2.7-4.9,2.8-4.8c0.1,0.1,0-0.9,0-0.9s-2.2-2.7-2.2-5.1c0-2.4,0-2,0-2s-0.1-5.8,4-5.8l3.2,1.1c3.7,0,3.9,4.7,3.9,4.7v2.4
	c0,0,0,3.3-2.3,4.6c0,0-0.2,1,0,0.9c0.1-0.1-2.2,4.4,1.8,5c4,0.6,5.1,2.4,5.9,3.1c0.8,0.7,1.1,4.1,1.1,4.1L20.3,61.3L20.3,61.3z"/>
</svg>
