<?xml version="1.0" encoding="utf-8"?>
<!-- Generator: Adobe Illustrator 22.1.0, SVG Export Plug-In . SVG Version: 6.00 Build 0)  -->
<svg version="1.1" id="Layer_1" xmlns="http://www.w3.org/2000/svg" xmlns:xlink="http://www.w3.org/1999/xlink" x="0px" y="0px"
	 viewBox="0 0 96 96" style="enable-background:new 0 0 96 96;" xml:space="preserve">
<g>
	<path d="M29.7,41.4h-3.5l-1.9,9.7h3.1c2,0,3.6-0.4,4.6-1.2c1-0.8,1.7-2,2-3.8c0.3-1.7,0.2-2.9-0.5-3.6
		C32.9,41.8,31.6,41.4,29.7,41.4z"/>
	<path d="M48,24.9C23.7,24.9,4,35.2,4,48s19.7,23.1,44,23.1S92,60.8,92,48S72.3,24.9,48,24.9z M36,52.2c-1,0.9-2.1,1.6-3.4,2
		c-1.2,0.4-2.8,0.6-4.7,0.6h-4.3L22.4,61h-5.1l4.5-23.2h9.7c2.9,0,5.1,0.8,6.4,2.3c1.3,1.5,1.7,3.7,1.2,6.4
		c-0.2,1.1-0.6,2.1-1.1,3.1C37.6,50.5,36.9,51.4,36,52.2z M50.8,54.8l2-10.3c0.2-1.2,0.1-2-0.2-2.4c-0.4-0.4-1.2-0.6-2.5-0.6h-4
		l-2.6,13.3h-5l4.5-23.2h5l-1.2,6.2h4.5c2.8,0,4.7,0.5,5.8,1.5c1.1,1,1.4,2.6,1,4.8l-2.1,10.8H50.8z M78.7,46.5
		c-0.2,1.1-0.6,2.1-1.1,3.1c-0.5,0.9-1.2,1.8-2.1,2.6c-1,0.9-2.1,1.6-3.4,2c-1.2,0.4-2.8,0.6-4.7,0.6h-4.3L61.9,61h-5.1l4.5-23.2H71
		c2.9,0,5.1,0.8,6.4,2.3C78.8,41.6,79.2,43.7,78.7,46.5z"/>
	<path d="M69.1,41.4h-3.5l-1.9,9.7h3.1c2,0,3.6-0.4,4.6-1.2c1-0.8,1.7-2,2-3.8c0.3-1.7,0.2-2.9-0.5-3.6
		C72.3,41.8,71.1,41.4,69.1,41.4z"/>
</g>
</svg>
