<?xml version="1.0" encoding="utf-8"?>
<!-- Generator: Adobe Illustrator 17.0.0, SVG Export Plug-In . SVG Version: 6.00 Build 0)  -->
<!DOCTYPE svg PUBLIC "-//W3C//DTD SVG 1.1//EN" "http://www.w3.org/Graphics/SVG/1.1/DTD/svg11.dtd">
<svg version="1.1" id="Layer_1" xmlns="http://www.w3.org/2000/svg" xmlns:xlink="http://www.w3.org/1999/xlink" x="0px" y="0px"
	 width="96px" height="96px" viewBox="0 0 96 96" enable-background="new 0 0 96 96" xml:space="preserve">
<path d="M48,4C23.7,4,4,23.7,4,48c0,24.3,19.7,44,44,44c24.3,0,44-19.7,44-44C92,23.7,72.3,4,48,4z M83.8,44H52V12.2
	C68.7,14.1,81.9,27.3,83.8,44z M48,84c-19.9,0-36-16.1-36-36c0-18.5,14-33.8,32-35.8V52h39.8C81.8,70,66.5,84,48,84z"/>
</svg>
