<?xml version="1.0" encoding="utf-8"?>
<!-- Generator: Adobe Illustrator 21.0.0, SVG Export Plug-In . SVG Version: 6.00 Build 0)  -->
<svg version="1.1" id="Layer_1" xmlns="http://www.w3.org/2000/svg" xmlns:xlink="http://www.w3.org/1999/xlink" x="0px" y="0px"
	 viewBox="0 0 96 96" style="enable-background:new 0 0 96 96;" xml:space="preserve">
<style type="text/css">
	.st0{fill:#231815;}
</style>
<g>
	<path class="st0" d="M87.9,78.2h-1.2c0,0,0,0,0,0V15.4c0-3.9-3.1-7-7-7H57.8c-3.9,0-7,3.1-7,7v62.7c0,0,0,0,0,0H45
		c0-0.2,0.1-0.3,0.1-0.5V34.4c0-3.9-3.1-7-7-7H18.2c-3.9,0-7,3.1-7,7v43.2c0,0.2,0,0.3,0.1,0.5H8.1C5.8,78.2,4,80,4,82.3
		s1.8,4.1,4.1,4.1h79.8c2.3,0,4.1-1.8,4.1-4.1S90.2,78.2,87.9,78.2z M59,78.2V16.6h19.5v61.5c0,0,0,0,0,0L59,78.2
		C59,78.2,59,78.2,59,78.2z M19.4,77.7v-42h17.5v42c0,0.2,0,0.3,0.1,0.5H19.4C19.4,78,19.4,77.8,19.4,77.7z"/>
	<path class="st0" d="M73,20.3h-7.9c-1.7,0-3.1,1.4-3.1,3.1s1.4,3.1,3.1,3.1H73c1.7,0,3.1-1.4,3.1-3.1S74.7,20.3,73,20.3z"/>
	<path class="st0" d="M73,32.1h-7.9c-1.7,0-3.1,1.4-3.1,3.1c0,1.7,1.4,3.1,3.1,3.1H73c1.7,0,3.1-1.4,3.1-3.1
		C76.1,33.5,74.7,32.1,73,32.1z"/>
	<path class="st0" d="M73,67.6h-7.9c-1.7,0-3.1,1.4-3.1,3.1s1.4,3.1,3.1,3.1H73c1.7,0,3.1-1.4,3.1-3.1S74.7,67.6,73,67.6z"/>
	<path class="st0" d="M73,55.7h-7.9c-1.7,0-3.1,1.4-3.1,3.1c0,1.7,1.4,3.1,3.1,3.1H73c1.7,0,3.1-1.4,3.1-3.1
		C76.1,57.1,74.7,55.7,73,55.7z"/>
	<path class="st0" d="M73,43.9h-7.9c-1.7,0-3.1,1.4-3.1,3.1s1.4,3.1,3.1,3.1H73c1.7,0,3.1-1.4,3.1-3.1S74.7,43.9,73,43.9z"/>
	<path class="st0" d="M32.1,41h-7.9c-1.7,0-3.1,1.4-3.1,3.1s1.4,3.1,3.1,3.1h7.9c1.7,0,3.1-1.4,3.1-3.1S33.8,41,32.1,41z"/>
	<path class="st0" d="M32.1,52.8h-7.9c-1.7,0-3.1,1.4-3.1,3.1s1.4,3.1,3.1,3.1h7.9c1.7,0,3.1-1.4,3.1-3.1S33.8,52.8,32.1,52.8z"/>
	<path class="st0" d="M32.1,64.6h-7.9c-1.7,0-3.1,1.4-3.1,3.1c0,1.7,1.4,3.1,3.1,3.1h7.9c1.7,0,3.1-1.4,3.1-3.1
		C35.2,66,33.8,64.6,32.1,64.6z"/>
</g>
</svg>
