<?xml version="1.0" encoding="utf-8"?>
<!-- Generator: Adobe Illustrator 17.0.0, SVG Export Plug-In . SVG Version: 6.00 Build 0)  -->
<!DOCTYPE svg PUBLIC "-//W3C//DTD SVG 1.1//EN" "http://www.w3.org/Graphics/SVG/1.1/DTD/svg11.dtd">
<svg version="1.1" id="Layer_1" xmlns="http://www.w3.org/2000/svg" xmlns:xlink="http://www.w3.org/1999/xlink" x="0px" y="0px"
	 width="96px" height="96px" viewBox="0 0 96 96" enable-background="new 0 0 96 96" xml:space="preserve">
<path d="M48,92c-5.4,0-10.6-1.1-15.6-3.1c-2.4-1-4.7-2.2-6.8-3.7c-2.1-1.4-4.1-3.1-5.9-4.9c-1.8-1.8-3.5-3.8-4.9-5.9
	c-1.4-2.1-2.7-4.4-3.7-6.8C9.1,62.6,8,57.4,8,52s1.1-10.6,3.1-15.6c1-2.4,2.2-4.7,3.7-6.8c1.4-2.1,3.1-4.1,4.9-5.9
	c1.6-1.6,4.1-1.6,5.7,0c1.6,1.6,1.6,4.1,0,5.7c-2.9,2.9-5.2,6.4-6.9,10.2C16.8,43.5,16,47.7,16,52c0,4.3,0.8,8.5,2.5,12.5
	c1.6,3.8,3.9,7.2,6.9,10.2c2.9,2.9,6.4,5.2,10.2,6.9C39.5,83.2,43.7,84,48,84s8.5-0.8,12.5-2.5c3.8-1.6,7.2-3.9,10.2-6.9
	c2.9-2.9,5.2-6.4,6.9-10.2C79.2,60.5,80,56.3,80,52c0-4.3-0.8-8.5-2.5-12.5c-1.6-3.8-3.9-7.2-6.9-10.2c-1.6-1.6-1.6-4.1,0-5.7
	c1.6-1.6,4.1-1.6,5.7,0c1.8,1.8,3.5,3.8,4.9,5.9c1.4,2.1,2.7,4.4,3.7,6.8C86.9,41.4,88,46.6,88,52s-1.1,10.6-3.1,15.6
	c-1,2.4-2.2,4.7-3.7,6.8c-1.4,2.1-3.1,4.1-4.9,5.9c-1.8,1.8-3.8,3.5-5.9,4.9c-2.1,1.4-4.4,2.7-6.8,3.7C58.6,90.9,53.4,92,48,92z
	 M52,48V8c0-2.2-1.8-4-4-4s-4,1.8-4,4v40c0,2.2,1.8,4,4,4S52,50.2,52,48z"/>
</svg>
