<?xml version="1.0" encoding="utf-8"?>
<!-- Generator: Adobe Illustrator 17.0.0, SVG Export Plug-In . SVG Version: 6.00 Build 0)  -->
<!DOCTYPE svg PUBLIC "-//W3C//DTD SVG 1.1//EN" "http://www.w3.org/Graphics/SVG/1.1/DTD/svg11.dtd">
<svg version="1.1" id="Layer_1" xmlns="http://www.w3.org/2000/svg" xmlns:xlink="http://www.w3.org/1999/xlink" x="0px" y="0px"
	 width="96px" height="96px" viewBox="0 0 96 96" enable-background="new 0 0 96 96" xml:space="preserve">
<path d="M80,40h-8V20c0-6.6-5.4-12-12-12H36c-6.6,0-12,5.4-12,12v20h-8C9.4,40,4,45.4,4,52v16c0,6.6,5.4,12,12,12h8.7
	c1.6,4.7,6.1,8,11.3,8h24c5.2,0,9.7-3.3,11.3-8H80c6.6,0,12-5.4,12-12V52C92,45.4,86.6,40,80,40z M32,20c0-2.2,1.8-4,4-4h24
	c2.2,0,4,1.8,4,4v20H32V20z M60,80H36c-2.2,0-4-1.8-4-4s1.8-4,4-4h24c2.2,0,4,1.8,4,4S62.2,80,60,80z M84,68c0,2.2-1.8,4-4,4h-8.7
	c-1.6-4.7-6.1-8-11.3-8H36c-5.2,0-9.7,3.3-11.3,8H16c-2.2,0-4-1.8-4-4V52c0-2.2,1.8-4,4-4h64c2.2,0,4,1.8,4,4V68z"/>
</svg>
