<?xml version="1.0" encoding="utf-8"?>
<!-- Generator: Adobe Illustrator 17.0.0, SVG Export Plug-In . SVG Version: 6.00 Build 0)  -->
<!DOCTYPE svg PUBLIC "-//W3C//DTD SVG 1.1//EN" "http://www.w3.org/Graphics/SVG/1.1/DTD/svg11.dtd">
<svg version="1.1" id="图层_1" xmlns="http://www.w3.org/2000/svg" xmlns:xlink="http://www.w3.org/1999/xlink" x="0px" y="0px"
	 width="19.7px" height="15.9px" viewBox="0 0 19.7 15.9" enable-background="new 0 0 19.7 15.9" xml:space="preserve">
<g>
	<path fill="#4683E6" d="M13.8,4.5H11c-0.3-0.8-1-1.3-1.9-1.3H5.8c-1.1,0-2,0.9-2,2v6.7c0,1.1,0.9,2,2,2h8c1.1,0,2-0.9,2-2V6.5
		C15.8,5.4,14.9,4.5,13.8,4.5z M14.5,6.7v0.5V8h-6C8.1,8,7.8,8.3,7.8,8.7v3.8H6.5H6.2H5.8c-0.4,0-0.7-0.3-0.7-0.7V5.1
		c0-0.4,0.3-0.7,0.7-0.7h3.3c0.4,0,0.7,0.3,0.7,0.7v0.7h4c0.4,0,0.7,0.3,0.7,0.7V6.7z"/>
</g>
</svg>
