<svg xmlns="http://www.w3.org/2000/svg" width="14" height="14" viewBox="0 0 14 14">
  <path fill="#3860F4" fill-rule="evenodd" d="M8,11.9652751 C8.27614237,11.9652751 8.5,12.1891328 8.5,12.4652751 C8.5,12.710735 8.32312484,12.9148835 8.08987563,12.9572195 L8,12.9652751 L6,12.9652751 C5.72385763,12.9652751 5.5,12.7414175 5.5,12.4652751 C5.5,12.2198153 5.67687516,12.0156668 5.91012437,11.9733308 L6,11.9652751 L8,11.9652751 Z M9.00157541,10.4849516 C9.27771778,10.4849516 9.50157541,10.7088092 9.50157541,10.9849516 C9.50157541,11.2304115 9.32470025,11.43456 9.09145104,11.476896 L9.00157541,11.4849516 L5.00157541,11.4849516 C4.72543303,11.4849516 4.50157541,11.261094 4.50157541,10.9849516 C4.50157541,10.7394917 4.67845057,10.5353433 4.91169978,10.4930073 L5.00157541,10.4849516 L9.00157541,10.4849516 Z M7,2.7911422 C8.93299662,2.7911422 10.5,4.35814557 10.5,6.2911422 C10.5,8.22413882 8.93299662,9.7911422 7,9.7911422 C5.06700338,9.7911422 3.5,8.22413882 3.5,6.2911422 C3.5,4.35814557 5.06700338,2.7911422 7,2.7911422 Z M7,3.7911422 C5.61928813,3.7911422 4.5,4.91043032 4.5,6.2911422 C4.5,7.67185407 5.61928813,8.7911422 7,8.7911422 C8.38071187,8.7911422 9.5,7.67185407 9.5,6.2911422 C9.5,4.91043032 8.38071187,3.7911422 7,3.7911422 Z M12.5743122,5.5 C12.8504546,5.5 13.0743122,5.72385763 13.0743122,6 C13.0743122,6.24545989 12.897437,6.44960837 12.6641878,6.49194433 L12.5743122,6.5 L11.7207588,6.5 C11.4446164,6.5 11.2207588,6.27614237 11.2207588,6 C11.2207588,5.75454011 11.397634,5.55039163 11.6308832,5.50805567 L11.7207588,5.5 L12.5743122,5.5 Z M2.24436845,5.5 C2.52051082,5.5 2.74436845,5.72385763 2.74436845,6 C2.74436845,6.24545989 2.56749329,6.44960837 2.33424408,6.49194433 L2.24436845,6.5 L1.39081506,6.5 C1.11467268,6.5 0.890815056,6.27614237 0.890815056,6 C0.890815056,5.75454011 1.06769022,5.55039163 1.30093942,5.50805567 L1.39081506,5.5 L2.24436845,5.5 Z M11.4571068,1.93523816 C11.6306731,2.10880451 11.6499583,2.37822891 11.5149622,2.57309705 L11.4571068,2.64234494 L10.8535534,3.24589833 C10.6582912,3.44116048 10.3417088,3.44116048 10.1464466,3.24589833 C9.97288026,3.07233198 9.95359511,2.80290758 10.0885912,2.60803944 L10.1464466,2.53879155 L10.75,1.93523816 C10.9452621,1.73997601 11.2618446,1.73997601 11.4571068,1.93523816 Z M2.91104867,1.87738271 L2.98029656,1.93523816 L3.58384995,2.53879155 C3.7791121,2.73405369 3.7791121,3.05063618 3.58384995,3.24589833 C3.4102836,3.41946468 3.1408592,3.43874983 2.94599106,3.30375378 L2.87674317,3.24589833 L2.27318978,2.64234494 C2.07792763,2.44708279 2.07792763,2.1305003 2.27318978,1.93523816 C2.44675613,1.76167181 2.71618053,1.74238666 2.91104867,1.87738271 Z M7,0.5 C7.24545989,0.5 7.44960837,0.676875161 7.49194433,0.910124368 L7.5,1 L7.5,1.85355339 C7.5,2.12969577 7.27614237,2.35355339 7,2.35355339 C6.75454011,2.35355339 6.55039163,2.17667823 6.50805567,1.94342902 L6.5,1.85355339 L6.5,1 C6.5,0.723857625 6.72385763,0.5 7,0.5 Z"/>
</svg>
