<?xml version="1.0" encoding="utf-8"?>
<!-- Generator: Adobe Illustrator 21.0.0, SVG Export Plug-In . SVG Version: 6.00 Build 0)  -->
<svg version="1.1" id="Layer_1" xmlns="http://www.w3.org/2000/svg" xmlns:xlink="http://www.w3.org/1999/xlink" x="0px" y="0px"
	 viewBox="0 0 96 96" style="enable-background:new 0 0 96 96;" xml:space="preserve">
<g>
	<path d="M88.1,20.7c-1-0.6-23.5-13.4-41.2-6.6c-17.4-5.4-39,5.9-40,6.5l-2.1,1.1l0.2,57.4l4.6-0.7c24.3-3.7,29.9,1.6,30,1.7
		c-0.1-0.1-0.2-0.2-0.2-0.2l6.5-4.7c-1.1-1.5-7.5-8.3-32.9-5.3l-0.2-43.3c4.3-2,14.7-6.2,24.4-6C30.3,28,26.8,39.9,26.9,56.2
		c0,0.1,0,0.3,0,0.4c0,0.3,0,0.5,0,0.8c0,2,0.3,3.9,0.9,5.8c0.7,2.1,2.9,3.3,5,2.6c2.1-0.7,3.3-2.9,2.6-5c-0.3-1.1-0.5-2.2-0.5-3.4
		c0-6.5,5.5-11.8,12.3-11.8s12.3,5.3,12.3,11.8c0,1.6-0.3,3.1-0.9,4.5c-0.9,2,0.1,4.4,2.1,5.3c0.5,0.2,1.1,0.3,1.6,0.3
		c1.5,0,3-0.9,3.7-2.4c1-2.4,1.5-4.9,1.6-7.4c0,0,0,0,0,0c0.9-17.5-2.5-30.1-10.3-37.4c9.9-0.4,20.5,4.3,24.9,6.4l-0.2,43.4
		c-25.4-3-31.8,3.8-32.9,5.3l6.5,4.7c0,0,0,0.1-0.2,0.2c0.1-0.1,5.7-5.4,30-1.7l4.6,0.7l0.2-57.3L88.1,20.7z M49,23.8
		c5,3.2,8.3,9,9.7,17.2c-3.3-2.2-7.3-3.6-11.6-3.6c-4,0-7.8,1.2-10.9,3.1c1.8-8.7,5.5-14.7,10.9-17.8c0,0,0,0,0,0
		C47.8,23.1,48.4,23.4,49,23.8z"/>
	<path d="M55.7,58.1c0-4.4-3.6-7.9-8.1-7.9c-4.4,0-8.1,3.6-8.1,7.9c0,4.4,3.6,7.9,8.1,7.9C52.1,66,55.7,62.5,55.7,58.1z M47.6,60
		c-1.1,0-2.1-0.9-2.1-1.9c0-1.1,0.9-1.9,2.1-1.9c1.1,0,2.1,0.9,2.1,1.9C49.7,59.2,48.8,60,47.6,60z"/>
</g>
</svg>
