<?xml version="1.0" encoding="utf-8"?>
<!-- Generator: Adobe Illustrator 17.0.0, SVG Export Plug-In . SVG Version: 6.00 Build 0)  -->
<!DOCTYPE svg PUBLIC "-//W3C//DTD SVG 1.1//EN" "http://www.w3.org/Graphics/SVG/1.1/DTD/svg11.dtd">
<svg version="1.1" id="Layer_1" xmlns="http://www.w3.org/2000/svg" xmlns:xlink="http://www.w3.org/1999/xlink" x="0px" y="0px"
	 width="96px" height="96px" viewBox="0 0 96 96" enable-background="new 0 0 96 96" xml:space="preserve">
<path d="M87.889,39.202c-2.171-3.158-5.034-5.583-8.104-6.918C77.937,16.27,64.343,4,48,4C31.477,4,17.764,16.543,16.158,32.816
	c-2.582,1.098-5.045,2.886-7.098,5.179c-5.985,6.684-6.746,15.435-1.732,19.925c1.496,1.339,3.363,2.158,5.459,2.404
	c0.702,3.702,1.869,7.249,3.489,10.594C16.092,71.952,16,72.983,16,74c0,9.925,8.075,18,18,18c3.123,0,5.095-2.539,6.535-4.393
	c0.095-0.122,0.203-0.261,0.314-0.402c4.707,1.057,9.594,1.057,14.303,0c0.111,0.142,0.219,0.28,0.314,0.402
	C56.905,89.461,58.877,92,62,92c9.925,0,18-8.075,18-18c0-1.019-0.093-2.05-0.275-3.081c1.557-3.217,2.696-6.624,3.406-10.177
	c1.434-0.23,2.772-0.758,3.935-1.558C92.609,55.372,92.971,46.594,87.889,39.202z M82.53,52.594
	c-0.438,0.302-1.119,0.359-1.95,0.177l-4.324-0.949l-0.507,4.398c-0.505,4.381-1.774,8.518-3.772,12.294l-0.734,1.388l0.405,1.516
	C71.881,72.293,72,73.162,72,74c0,5.241-4.053,9.553-9.188,9.968c-0.325-0.362-0.744-0.902-1.028-1.268
	c-1.082-1.394-2.202-2.835-3.861-3.577l-1.358-0.607l-1.426,0.428c-4.665,1.402-9.612,1.402-14.275,0l-1.425-0.428l-1.359,0.607
	c-1.66,0.742-2.779,2.184-3.862,3.577c-0.284,0.365-0.703,0.905-1.028,1.268C28.053,83.553,24,79.241,24,74
	c0-0.836,0.119-1.706,0.354-2.588l0.403-1.515l-0.733-1.385c-2.071-3.913-3.357-8.205-3.824-12.756l-0.459-4.481l-4.396,0.986
	c-1.18,0.267-2.17,0.156-2.681-0.301c-1.215-1.089-0.901-4.991,2.356-8.629c1.574-1.758,3.533-3.047,5.375-3.537l1.852-0.492
	l0.777-1.751c0.192-0.434,0.392-0.863,0.602-1.285l0.368-0.74l0.043-0.826C24.713,21.972,35.24,12,48,12
	c12.761,0,23.286,9.972,23.964,22.703l0.044,0.824l0.366,0.74c0.124,0.25,0.245,0.503,0.363,0.758l0.823,1.78l1.911,0.439
	c2.005,0.46,4.236,2.181,5.824,4.49C84.062,47.758,83.876,51.669,82.53,52.594z"/>
</svg>
