<?xml version="1.0" encoding="utf-8"?>
<!-- Generator: Adobe Illustrator 17.0.0, SVG Export Plug-In . SVG Version: 6.00 Build 0)  -->
<!DOCTYPE svg PUBLIC "-//W3C//DTD SVG 1.1//EN" "http://www.w3.org/Graphics/SVG/1.1/DTD/svg11.dtd">
<svg version="1.1" id="Layer_1" xmlns="http://www.w3.org/2000/svg" xmlns:xlink="http://www.w3.org/1999/xlink" x="0px" y="0px"
	 width="96px" height="96px" viewBox="0 0 96 96" enable-background="new 0 0 96 96" xml:space="preserve">
<g>
	<circle cx="49.75" cy="73.917" r="4.25"/>
	<path d="M51.984,19.623c-4.408-1.118-8.501-0.594-11.833,1.518c-5.762,3.653-7.257,10.598-7.409,11.377
		c-0.419,2.159,0.985,4.239,3.142,4.672c2.158,0.432,4.261-0.969,4.707-3.123c0.25-1.204,1.432-4.663,3.874-6.189
		c1.463-0.915,3.278-1.079,5.551-0.502c2.914,0.74,4.747,2.28,5.447,4.576c0.72,2.36,0.048,5.069-0.986,6.226
		c-1.022,1.142-2.024,2.033-2.994,2.895c-2.338,2.077-4.754,4.224-5.393,8.394c-0.371,2.428-0.631,10.347-0.68,11.909
		c-0.068,2.208,1.666,4.054,3.874,4.122c0.042,0.001,0.084,0.002,0.126,0.002c2.152,0,3.929-1.71,3.996-3.876
		c0.106-3.432,0.36-9.438,0.592-10.947c0.183-1.195,0.693-1.754,2.798-3.624c1.031-0.917,2.314-2.057,3.642-3.54
		c3.037-3.394,4.138-9.107,2.677-13.895C61.586,24.607,57.633,21.058,51.984,19.623z"/>
</g>
</svg>
