<?xml version="1.0" encoding="utf-8"?>
<!-- Generator: Adobe Illustrator 21.0.0, SVG Export Plug-In . SVG Version: 6.00 Build 0)  -->
<svg version="1.1" id="Layer_1" xmlns="http://www.w3.org/2000/svg" xmlns:xlink="http://www.w3.org/1999/xlink" x="0px" y="0px"
	 viewBox="0 0 96 96" style="enable-background:new 0 0 96 96;" xml:space="preserve">
<g>
	<path d="M62.1,49.1c5.6-4.2,9.2-10.9,9.2-18.4c0-12.6-10.3-22.9-22.9-22.9S25.5,18.1,25.5,30.8c0,7.4,3.5,13.9,8.9,18.1
		c-11.3,5.5-19.8,17.7-21.6,32.4l-0.6,4.5h71.6l-0.6-4.5C81.5,66.7,73.2,54.7,62.1,49.1z M33.5,30.8c0-8.2,6.7-14.9,14.9-14.9
		s14.9,6.7,14.9,14.9s-6.7,14.9-14.9,14.9S33.5,39,33.5,30.8z M21.6,77.8C25,63.8,35.8,53.7,48,53.7c12.2,0,23,10.1,26.5,24.2H21.6z
		"/>
	<path d="M81.3,43.8c-0.6-0.4-0.8-1.1-0.5-1.6c7.1-10.4,2.4-23.1,2.2-23.6c-0.8-2.1-3.1-3.1-5.2-2.3c-2.1,0.8-3.1,3.1-2.3,5.2
		c0,0.1,3.3,9.4-1.4,16.3c-2.8,4.1-1.7,9.8,2.5,12.7c10.2,7.1,9.9,24,9.9,24.2c-0.1,2.2,1.7,4,3.9,4.1c0,0,0.1,0,0.1,0
		c2.2,0,3.9-1.7,4-3.9C94.7,73.9,95.1,53.4,81.3,43.8z"/>
	<path d="M19.7,51.1c4.2-2.9,5.3-8.6,2.5-12.7c-4.7-7-1.4-16.2-1.4-16.3c0.8-2.1-0.3-4.4-2.3-5.1c-2.1-0.8-4.4,0.3-5.2,2.3
		c-0.2,0.5-4.8,13.2,2.2,23.6c0.3,0.5,0.1,1.2-0.5,1.6C1.4,54,1.7,74.6,1.8,75.4c0.1,2.2,1.8,3.9,4,3.9c0,0,0.1,0,0.1,0
		c2.2-0.1,3.9-1.9,3.9-4.1C9.8,75.1,9.5,58.1,19.7,51.1z"/>
</g>
</svg>
