<?xml version="1.0" encoding="utf-8"?>
<!-- Generator: Adobe Illustrator 21.0.0, SVG Export Plug-In . SVG Version: 6.00 Build 0)  -->
<svg version="1.1" id="Layer_1" xmlns="http://www.w3.org/2000/svg" xmlns:xlink="http://www.w3.org/1999/xlink" x="0px" y="0px"
	 viewBox="0 0 96 96" style="enable-background:new 0 0 96 96;" xml:space="preserve">
<g>
	<path d="M54.7,44.4c1-2.1,1.5-4.4,1.5-6.7c0-8.7-7-15.7-15.7-15.7s-15.7,7-15.7,15.7s7,15.7,15.7,15.7c0.6,0,1.2,0,1.8-0.1l1.7,1
		l1.7,6.3c0.2,0.7,0.7,1.2,1.3,1.5l5.2,2.2l3.8,6.1c0.4,0.7,1.2,1.1,2,1.1h11.2c0.9,0,1.7-0.5,2.1-1.2s0.3-1.7-0.2-2.4L54.7,44.4z
		 M59.3,66.9L59.3,66.9l-3.5-5.7c-0.3-0.4-0.6-0.7-1.1-0.9l-4.8-2l-1.7-6.1c-0.2-0.6-0.5-1.1-1-1.4L44,48.9c-0.5-0.3-1-0.4-1.6-0.3
		c-0.6,0.1-1.3,0.2-1.9,0.2c-6.1,0-11.1-5-11.1-11.1s5-11.1,11.1-11.1s11.1,5,11.1,11.1c0,2-0.5,4-1.6,5.7c-0.5,0.8-0.4,1.8,0.1,2.5
		l14.7,21C64.8,66.9,59.3,66.9,59.3,66.9z"/>
	<circle cx="40.4" cy="37.8" r="4.4"/>
	<path d="M47.8,3C23.4,3,3.5,22.9,3.5,47.4s19.9,44.4,44.4,44.4s44.4-19.9,44.4-44.4C92.2,22.9,72.3,3,47.8,3z M47.8,83.8
		c-20.1,0-36.4-16.3-36.4-36.4C11.5,27.3,27.8,11,47.8,11c20.1,0,36.4,16.3,36.4,36.4S67.9,83.8,47.8,83.8z"/>
</g>
</svg>
