<?xml version="1.0" encoding="utf-8"?>
<!-- Generator: Adobe Illustrator 21.0.0, SVG Export Plug-In . SVG Version: 6.00 Build 0)  -->
<svg version="1.1" id="Layer_1" xmlns="http://www.w3.org/2000/svg" xmlns:xlink="http://www.w3.org/1999/xlink" x="0px" y="0px"
	 viewBox="0 0 96 96" style="enable-background:new 0 0 96 96;" xml:space="preserve">
<style type="text/css">
	.st0{fill:#0A0B0C;}
</style>
<g>
	<circle class="st0" cx="59.3" cy="51.1" r="8.5"/>
	<circle class="st0" cx="73.4" cy="44" r="4.5"/>
	<circle class="st0" cx="34.4" cy="45.6" r="9.1"/>
	<circle class="st0" cx="49.1" cy="36.5" r="6.1"/>
	<circle class="st0" cx="24.4" cy="59.5" r="5.2"/>
	<path class="st0" d="M83.9,76.8c-2.8,0-5.3,1.6-6.4,4H15.7v-51c0-2.2-1.8-4-4-4s-4,1.8-4,4v59h70.8c1.3,1.5,3.2,2.4,5.4,2.4
		c4,0,7.2-3.2,7.2-7.2S87.9,76.8,83.9,76.8z"/>
	<path class="st0" d="M18,15.8h63.6v47c0,2.2,1.8,4,4,4s4-1.8,4-4v-55H18c-1.3-1.9-3.5-3.2-6-3.2c-4,0-7.2,3.2-7.2,7.2S8,19,12,19
		C14.5,19,16.7,17.7,18,15.8z"/>
</g>
</svg>
