<?xml version="1.0" encoding="utf-8"?>
<!-- Generator: Adobe Illustrator 17.0.0, SVG Export Plug-In . SVG Version: 6.00 Build 0)  -->
<!DOCTYPE svg PUBLIC "-//W3C//DTD SVG 1.1//EN" "http://www.w3.org/Graphics/SVG/1.1/DTD/svg11.dtd">
<svg version="1.1" id="Layer_1" xmlns="http://www.w3.org/2000/svg" xmlns:xlink="http://www.w3.org/1999/xlink" x="0px" y="0px"
	 width="96px" height="96px" viewBox="0 0 96 96" enable-background="new 0 0 96 96" xml:space="preserve">
<g>
	<path d="M40,76H18.599l7.277-13.947c0.842,1.306,2.41,2.052,4.039,1.774c2.178-0.374,3.64-2.441,3.266-4.619l-1.353-7.885
		c-0.023-0.133-0.052-0.263-0.087-0.391c0,0,0,0,0,0c0-0.004-0.001-0.004-0.001-0.006s0-0.004-0.001-0.006c0,0,0-0.001,0-0.002
		c0-0.002-0.001-0.005-0.001-0.005c-0.001-0.002-0.001-0.004-0.001-0.006c-0.001-0.002-0.001-0.003-0.001-0.005
		c0-0.002-0.001-0.004-0.001-0.004c-0.503-1.768-2.179-2.987-3.983-2.897c-0.178,0.006-0.358,0.025-0.539,0.056c0,0-0.001,0-0.001,0
		l-7.883,1.353c-2.177,0.373-3.64,2.441-3.266,4.619c0.295,1.72,1.647,2.993,3.275,3.269L8.454,78.149
		c-0.647,1.24-0.599,2.729,0.126,3.924C9.304,83.27,10.602,84,12,84h28c2.209,0,4-1.791,4-4S42.209,76,40,76z"/>
	<path d="M87.546,77.149l-12-23c-1.021-1.959-3.439-2.717-5.396-1.695c-1.958,1.021-2.718,3.438-1.695,5.396L77.401,75H63.264
		c1.11-1.562,0.965-3.742-0.436-5.143c-1.561-1.562-4.096-1.562-5.656,0l-5.657,5.657c-0.781,0.78-1.172,1.805-1.172,2.828
		s0.391,2.048,1.172,2.828l5.657,5.657C57.952,87.609,58.977,88,60,88s2.048-0.391,2.828-1.172c1.038-1.037,1.386-2.503,1.046-3.828
		H84c1.398,0,2.695-0.73,3.421-1.927C88.146,79.878,88.193,78.39,87.546,77.149z"/>
	<path d="M52.355,38.354c-0.909,2.013-0.015,4.383,1.999,5.292l8.026,3.625c0.003,0.001,0.006,0.002,0.01,0.003
		c0.003,0.001,0.006,0.004,0.009,0.005c0.174,0.077,0.352,0.121,0.53,0.172c0.091,0.026,0.181,0.069,0.273,0.088
		c0.274,0.058,0.55,0.087,0.823,0.087c0.191,0,0.381-0.014,0.568-0.041c0.071-0.01,0.139-0.031,0.209-0.045
		c0.115-0.023,0.232-0.042,0.345-0.075c0.068-0.02,0.132-0.05,0.199-0.073c0.111-0.039,0.224-0.074,0.331-0.123
		c0.064-0.029,0.124-0.068,0.186-0.1c0.105-0.054,0.212-0.105,0.312-0.169c0.059-0.038,0.113-0.085,0.17-0.126
		c0.097-0.069,0.196-0.135,0.287-0.213c0.051-0.044,0.096-0.097,0.145-0.143c0.09-0.085,0.181-0.168,0.263-0.262
		c0.043-0.049,0.078-0.106,0.119-0.158c0.08-0.101,0.161-0.2,0.232-0.31c0.036-0.055,0.062-0.118,0.096-0.176
		c0.064-0.112,0.131-0.221,0.185-0.34c0.002-0.003,0.002-0.007,0.004-0.011c0.001-0.003,0.003-0.005,0.004-0.008l3.256-7.308
		c0.899-2.018-0.008-4.383-2.025-5.282c-1.967-0.878-4.25-0.029-5.198,1.88c-0.08-0.204-0.166-0.407-0.283-0.601l-12-20
		c-0.705-1.176-1.964-1.908-3.334-1.941c-1.369-0.031-2.663,0.64-3.423,1.78l-16,24c-1.226,1.838-0.729,4.322,1.109,5.547
		C30.463,43.783,31.234,44,31.996,44c1.293,0,2.562-0.625,3.332-1.782l12.494-18.741l7.545,12.576
		C54.086,36.26,52.929,37.082,52.355,38.354z"/>
</g>
</svg>
