<?xml version="1.0" encoding="utf-8"?>
<!-- Generator: Adobe Illustrator 17.0.0, SVG Export Plug-In . SVG Version: 6.00 Build 0)  -->
<!DOCTYPE svg PUBLIC "-//W3C//DTD SVG 1.1//EN" "http://www.w3.org/Graphics/SVG/1.1/DTD/svg11.dtd">
<svg version="1.1" id="Layer_1" xmlns="http://www.w3.org/2000/svg" xmlns:xlink="http://www.w3.org/1999/xlink" x="0px" y="0px"
	 width="96px" height="96px" viewBox="0 0 96 96" enable-background="new 0 0 96 96" xml:space="preserve">
<path d="M92,16v24c0,2.2-1.8,4-4,4H64c-2.2,0-4-1.8-4-4s1.8-4,4-4h13.5c-5.4-5.3-9.7-9.5-10.9-10.6c-3.1-3.1-6.6-5.4-10.6-7
	c-3.8-1.6-7.9-2.3-12-2.3s-8.2,0.8-12,2.3c-4,1.6-7.5,4-10.6,7c-3.1,3.1-5.4,6.6-7,10.6c-1.6,3.8-2.3,7.9-2.3,12s0.8,8.2,2.3,12
	c1.6,4,4,7.5,7,10.6c3.1,3.1,6.6,5.4,10.6,7c3.8,1.6,7.9,2.3,12,2.3s8.2-0.8,12-2.3c4-1.6,7.5-4,10.6-7c1.7-1.7,3.2-3.6,4.5-5.7
	c1.2-2,2.3-4.1,3-6.3c0.7-2.1,3-3.2,5.1-2.4c2.1,0.7,3.2,3,2.4,5.1c-1,2.8-2.3,5.4-3.8,7.9c-1.6,2.5-3.5,4.9-5.6,7.1
	c-3.8,3.8-8.3,6.8-13.2,8.8c-2.4,1-4.9,1.7-7.4,2.2C49.1,87.8,46.6,88,44,88s-5.1-0.2-7.6-0.7c-2.5-0.5-5-1.2-7.4-2.2
	c-5-2-9.4-5-13.2-8.8C11.9,72.5,8.9,68,6.9,63c-1-2.4-1.7-4.9-2.2-7.4C4.2,53.1,4,50.6,4,48s0.2-5.1,0.7-7.6c0.5-2.5,1.2-5,2.2-7.4
	c2-5,5-9.4,8.8-13.2S24,12.9,29,10.9c2.4-1,4.9-1.7,7.4-2.2C38.9,8.2,41.4,8,44,8s5.1,0.2,7.6,0.7c2.5,0.5,5,1.2,7.4,2.2
	c5,2,9.4,5,13.2,8.8c1.2,1.2,5.9,5.8,11.7,11.5V16c0-2.2,1.8-4,4-4S92,13.8,92,16z"/>
</svg>
