<?xml version="1.0" encoding="utf-8"?>
<!-- Generator: Adobe Illustrator 21.0.0, SVG Export Plug-In . SVG Version: 6.00 Build 0)  -->
<svg version="1.1" id="Layer_1" xmlns="http://www.w3.org/2000/svg" xmlns:xlink="http://www.w3.org/1999/xlink" x="0px" y="0px"
	 viewBox="0 0 96 96" style="enable-background:new 0 0 96 96;" xml:space="preserve">
<style type="text/css">
	.st0{fill:#221613;}
</style>
<g>
	<path class="st0" d="M80.1,9.7H16.9C10.3,9.7,5,15,5,21.6v39.5C5,67.7,10.3,73,16.9,73h27.7v7.9H32.7c-2.2,0-4,1.8-4,4s1.8,4,4,4
		h31.6c2.2,0,4-1.8,4-4s-1.8-4-4-4H52.5V73h27.7C86.7,73,92,67.7,92,61.1V21.6C92,15,86.7,9.7,80.1,9.7z M84.1,61.1c0,2.2-1.8,4-4,4
		H16.9c-2.2,0-4-1.8-4-4V21.6c0-2.2,1.8-4,4-4h63.3c2.2,0,4,1.8,4,4V61.1z"/>
	<path class="st0" d="M44.3,44.1V26.2c0-2.2,1.8-4,4-4c2.2,0,4,1.8,4,4v17.9c0,2.2-1.8,4-4,4C46.1,48.1,44.3,46.3,44.3,44.1z"/>
	<path class="st0" d="M52.6,54c1.1,2.3,0.2,5.1-2,6.2c-2.3,1.1-5.1,0.2-6.2-2c-1.1-2.3-0.2-5.1,2-6.2C48.7,50.8,51.5,51.7,52.6,54z"
		/>
</g>
</svg>
