<?xml version="1.0" encoding="utf-8"?>
<!-- Generator: Adobe Illustrator 17.0.0, SVG Export Plug-In . SVG Version: 6.00 Build 0)  -->
<!DOCTYPE svg PUBLIC "-//W3C//DTD SVG 1.1//EN" "http://www.w3.org/Graphics/SVG/1.1/DTD/svg11.dtd">
<svg version="1.1" id="Layer_1" xmlns="http://www.w3.org/2000/svg" xmlns:xlink="http://www.w3.org/1999/xlink" x="0px" y="0px"
	 width="96px" height="96px" viewBox="0 0 96 96" enable-background="new 0 0 96 96" xml:space="preserve">
<path d="M96,16v24c0,2.2-1.8,4-4,4H68c-2.2,0-4-1.8-4-4s1.8-4,4-4h13.5c-5.4-5.2-9.6-9.4-10.8-10.6c0,0,0,0,0,0
	c-3.1-3.1-6.6-5.4-10.6-7c-3.8-1.6-7.9-2.3-12-2.3s-8.2,0.8-12,2.3c-4,1.6-7.5,4-10.6,7c-0.3,0.3-0.5,0.5-0.8,0.8
	c-2.6,2.7-4.6,5.9-6,9.3c-0.2,0.6-0.5,1.2-0.7,1.9c-0.7,2.1-3,3.2-5.1,2.4c-2.1-0.7-3.2-3-2.5-5.1c0.3-0.9,0.6-1.7,1-2.6
	c0.8-1.8,1.7-3.6,2.8-5.3c1.3-2.1,2.9-4.2,4.6-6c0.3-0.3,0.7-0.7,1-1c3.8-3.8,8.3-6.8,13.2-8.8c2.4-1,4.9-1.7,7.4-2.2
	C42.9,8.2,45.4,8,48,8s5.1,0.2,7.6,0.7c2.5,0.5,5,1.2,7.4,2.2c5,2,9.4,5,13.2,8.8l0.1,0.1c1.3,1.3,5.9,5.8,11.7,11.4V16
	c0-2.2,1.8-4,4-4S96,13.8,96,16z M4,84c2.2,0,4-1.8,4-4V64.8c5.8,5.6,10.4,10.1,11.7,11.4l0.1,0.1c3.8,3.8,8.3,6.8,13.2,8.8
	c2.4,1,4.9,1.7,7.4,2.2c2.5,0.5,5.1,0.7,7.6,0.7c5.1,0,10.3-1,15-2.9c5-2,9.4-5,13.2-8.8c0.3-0.3,0.7-0.7,1-1c1.7-1.9,3.3-3.9,4.6-6
	c1.1-1.7,2-3.5,2.8-5.3c0.4-0.8,0.7-1.7,1-2.6c0.7-2.1-0.4-4.3-2.5-5.1c-2.1-0.7-4.4,0.4-5.1,2.4c-0.2,0.6-0.5,1.2-0.7,1.9
	c-3.3,7.7-9.6,14-17.4,17.1c-3.8,1.6-7.9,2.3-12,2.3s-8.2-0.8-12-2.3c-4-1.6-7.5-4-10.6-7c0,0,0,0,0,0c-1.2-1.2-5.5-5.4-10.8-10.6
	H28c2.2,0,4-1.8,4-4s-1.8-4-4-4H4c-2.2,0-4,1.8-4,4v24C0,82.2,1.8,84,4,84z"/>
</svg>
