<?xml version="1.0" encoding="utf-8"?>
<!-- Generator: Adobe Illustrator 21.0.0, SVG Export Plug-In . SVG Version: 6.00 Build 0)  -->
<svg version="1.1" id="Layer_1" xmlns="http://www.w3.org/2000/svg" xmlns:xlink="http://www.w3.org/1999/xlink" x="0px" y="0px"
	 width="96px" height="96px" viewBox="0 0 96 96" enable-background="new 0 0 96 96" xml:space="preserve">
<path d="M80,26.7v16c0,1.5-1.2,2.7-2.7,2.7h-16c-1.5,0-2.7-1.2-2.7-2.7s1.2-2.7,2.7-2.7h9c-3.6-3.5-6.4-6.3-7.2-7.1l0,0
	c-2.1-2.1-4.4-3.6-7.1-4.7c-2.5-1.1-5.3-1.5-8-1.5c-2.7,0-5.5,0.5-8,1.5C37.4,29.4,35,31,33,33c-0.2,0.2-0.3,0.3-0.5,0.5
	c-1.7,1.8-3.1,3.9-4,6.2c-0.1,0.4-0.3,0.8-0.5,1.3c-0.5,1.4-2,2.1-3.4,1.6c-1.4-0.5-2.1-2-1.7-3.4c0.2-0.6,0.4-1.1,0.7-1.7
	c0.5-1.2,1.1-2.4,1.9-3.5c0.9-1.4,1.9-2.8,3.1-4c0.2-0.2,0.5-0.5,0.7-0.7c2.5-2.5,5.5-4.5,8.8-5.9c1.6-0.7,3.3-1.1,4.9-1.5
	c1.7-0.4,3.3-0.5,5.1-0.5c1.7,0,3.4,0.1,5.1,0.5c1.7,0.3,3.3,0.8,4.9,1.5c3.3,1.3,6.3,3.3,8.8,5.9l0.1,0.1c0.9,0.9,3.9,3.9,7.8,7.6
	V26.7c0-1.5,1.2-2.7,2.7-2.7C78.8,24,80,25.2,80,26.7z M18.6,72c1.5,0,2.7-1.2,2.7-2.7V59.2c3.9,3.7,6.9,6.7,7.8,7.6l0.1,0.1
	c2.5,2.5,5.5,4.5,8.8,5.9c1.6,0.7,3.3,1.1,4.9,1.5c1.7,0.3,3.4,0.5,5.1,0.5c3.4,0,6.9-0.7,10-1.9c3.3-1.3,6.3-3.3,8.8-5.9
	c0.2-0.2,0.5-0.5,0.7-0.7c1.1-1.3,2.2-2.6,3.1-4c0.7-1.1,1.3-2.3,1.9-3.5c0.3-0.5,0.5-1.1,0.7-1.7c0.5-1.4-0.3-2.9-1.7-3.4
	c-1.4-0.5-2.9,0.3-3.4,1.6c-0.1,0.4-0.3,0.8-0.5,1.3c-2.2,5.1-6.4,9.3-11.6,11.4c-2.5,1.1-5.3,1.5-8,1.5c-2.7,0-5.5-0.5-8-1.5
	c-2.7-1.1-5-2.7-7.1-4.7l0,0c-0.8-0.8-3.7-3.6-7.2-7.1h9c1.5,0,2.7-1.2,2.7-2.7s-1.2-2.7-2.7-2.7h-16c-1.5,0-2.7,1.2-2.7,2.7v16
	C16,70.8,17.2,72,18.6,72z"/>
</svg>
