<?xml version="1.0" encoding="utf-8"?>
<!-- Generator: Adobe Illustrator 22.1.0, SVG Export Plug-In . SVG Version: 6.00 Build 0)  -->
<svg version="1.1" id="Layer_1" xmlns="http://www.w3.org/2000/svg" xmlns:xlink="http://www.w3.org/1999/xlink" x="0px" y="0px"
	 viewBox="0 0 96 96" style="enable-background:new 0 0 96 96;" xml:space="preserve">
<title>矩形</title>
<desc>Created with Sketch.</desc>
<path id="形状结合" d="M30.1,46.5c1.6,1.6,1.7,4.2,0.3,6l-0.3,0.4c-1.6,1.6-4.2,1.7-6,0.3l-0.4-0.3L4.6,33.7
	c-1.6-1.6-1.7-4.2-0.3-6l0.3-0.4L23.7,8.3c1.8-1.8,4.6-1.8,6.4,0c1.6,1.6,1.7,4.2,0.3,6l-0.3,0.4L18.7,26.1l42.6,0
	c17.4,0,31.5,14.1,31.5,31.5c0,17-13.5,30.9-30.4,31.4l-1.1,0H16.3c-2.5,0-4.5-2-4.5-4.5c0-2.3,1.7-4.2,4-4.5l0.5,0h44.9
	c12.4,0,22.5-10.1,22.5-22.5c0-12.1-9.5-21.9-21.5-22.5l-1,0l-42.6,0L30.1,46.5z"/>
</svg>
