<?xml version="1.0" encoding="utf-8"?>
<!-- Generator: Adobe Illustrator 22.1.0, SVG Export Plug-In . SVG Version: 6.00 Build 0)  -->
<svg version="1.1" id="Layer_1" xmlns="http://www.w3.org/2000/svg" xmlns:xlink="http://www.w3.org/1999/xlink" x="0px" y="0px"
	 viewBox="0 0 96 96" style="enable-background:new 0 0 96 96;" xml:space="preserve">
<style type="text/css">
	.st0{fill:#040000;}
</style>
<g>
	<path class="st0" d="M78.7,16.4c-0.8,1.9-2.1,3.5-3.8,4.7C81.7,28,86,37.5,86,48c0,1.7-0.1,3.4-0.3,5c-4.1,0.4-8.2,1.1-12.2,2.2
		C70.8,42.7,65,31.1,56.8,21.5c1.7-0.8,3.4-1.5,5.1-2.1c-1.6-1.8-2.5-4.1-2.5-6.6c0-2.5,0.9-4.8,2.4-6.5C57.5,4.8,52.8,4,48,4
		c-3.6,0-7.1,0.4-10.5,1.3c-3.5,0.9-6.9,2.1-10,3.8c-5.7,3-10.6,7.2-14.5,12.3c-1.8,2.4-3.4,5-4.7,7.7C5.5,34.8,4,41.2,4,48
		c0,8.3,2.3,16.2,6.4,22.8c1.9,3.2,4.3,6.2,7,8.8c3.6,3.5,7.9,6.5,12.6,8.6c2.5,1.1,5.1,2,7.8,2.7C41,91.6,44.4,92,48,92
		c5.2,0,10.3-0.9,14.9-2.6c-1.3-1.5-2.2-3.4-2.5-5.5C56.6,85.3,52.4,86,48,86c-2.2,0-4.4-0.2-6.5-0.5C48.2,77,57,70.3,66.9,66
		c0.2,2.4,0.2,4.9,0.1,7.3c1.1-0.4,2.2-0.6,3.3-0.6c1.7,0,3.3,0.4,4.7,1.1c0-1,0.1-2,0.1-3c0-2.5-0.1-5-0.4-7.5c0-0.1,0-0.2,0-0.3
		c2.9-0.8,5.9-1.5,8.9-1.9c-0.2,0.4-0.3,0.9-0.5,1.3c-1.8,4.3-4.4,8.2-7.6,11.5c1.8,1,3.2,2.6,4,4.5c4.8-4.9,8.4-10.9,10.5-17.5
		c0.1-0.1,0.1-0.3,0.1-0.4c0.8-2.6,1.3-5.3,1.6-8l0-0.4c0.1-1.4,0.2-2.9,0.2-4.3C92,35.6,86.9,24.4,78.7,16.4z M48,10
		c4,0,7.8,0.6,11.4,1.7c-2.8,1.1-5.6,2.3-8.3,3.7c-2-1.9-4.1-3.6-6.3-5.3C45.8,10,46.9,10,48,10z M34.2,12.6
		c3.4,2.1,6.7,4.4,9.6,7.1c-5,3.3-9.6,7.2-13.7,11.6c-0.6-0.1-1.2-0.1-1.8-0.1c-2.5,0-4.9,0.8-6.8,2.1c-1.8-2-3.5-4.1-5.1-6.4
		C20.7,20.5,26.9,15.4,34.2,12.6z M34.3,43.1c0,0.4,0,0.8-0.1,1.2c-0.5,2.8-3,4.8-5.9,4.8c-0.5,0-0.9-0.1-1.4-0.2c0,0-0.1,0-0.1,0
		c-2.6-0.7-4.5-3-4.5-5.8c0-3.3,2.7-6,6-6c2.1,0,3.9,1,5,2.6C33.9,40.7,34.3,41.9,34.3,43.1z M12.5,61.7C10.9,57.4,10,52.8,10,48
		c0-4.6,0.8-9.1,2.4-13.2c1.4,1.8,2.8,3.5,4.4,5.1c-0.3,1-0.4,2.1-0.4,3.2c0,2.1,0.5,4,1.4,5.7C15.6,52.9,13.9,57.2,12.5,61.7z
		 M33.3,83c-5.9-2.5-11-6.4-15-11.3c1.1-6.1,3-11.9,5.6-17.4c1.4,0.5,2.8,0.8,4.4,0.8c2.1,0,4.1-0.5,5.8-1.5
		c6,3.5,12.6,6.1,19.4,7.8c1.1,0.3,2.1,0.5,3.2,0.7C47.5,67.3,39.5,74.5,33.3,83z M55.4,53.7c-5.6-1.4-10.9-3.5-15.9-6.2
		c0.5-1.4,0.8-2.8,0.8-4.4c0-3-1.1-5.8-2.9-7.9c3.7-3.7,7.8-7,12.2-9.8c1.6,1.8,3.1,3.7,4.6,5.7c5.2,7.2,9,15.4,11.1,24.2
		C61.9,55,58.7,54.4,55.4,53.7z"/>
	<path class="st0" d="M66.3,17.9c0.9,0.6,2,0.9,3.1,0.9c0.8,0,1.6-0.2,2.3-0.5c2-0.8,3.4-2.6,3.7-4.8c0-0.3,0.1-0.5,0.1-0.8
		c0-3.3-2.7-6-6-6c-1.3,0-2.5,0.4-3.4,1.1c-1.5,1.1-2.6,2.9-2.6,4.9C63.4,14.9,64.6,16.8,66.3,17.9z"/>
	<path class="st0" d="M70.4,76.7c-1.4,0-2.7,0.5-3.7,1.3c-1.3,1-2.2,2.5-2.3,4.3c0,0.1,0,0.3,0,0.5c0,2.1,1,3.9,2.6,4.9
		c1,0.7,2.1,1.1,3.4,1.1c3.3,0,6-2.7,6-6c0-0.4,0-0.7-0.1-1C75.8,78.9,73.3,76.7,70.4,76.7z"/>
</g>
</svg>
