<?xml version="1.0" encoding="utf-8"?>
<!-- Generator: Adobe Illustrator 21.0.0, SVG Export Plug-In . SVG Version: 6.00 Build 0)  -->
<svg version="1.1" id="Layer_1" xmlns="http://www.w3.org/2000/svg" xmlns:xlink="http://www.w3.org/1999/xlink" x="0px" y="0px"
	 viewBox="0 0 96 96" style="enable-background:new 0 0 96 96;" xml:space="preserve">
<style type="text/css">
	.st0{fill:#151515;}
</style>
<g>
	<path class="st0" d="M84,17.8c-15.4,0-24.2-4.3-32.7-10.9l-1.7-1.3L47.9,7c-8.5,6.5-17.3,10.9-32.7,10.9h-2.8v32.5
		c0,3.8,1.2,8.4,3.3,13.2c2.1,4.6,5,9.2,8.4,13.4c8,9.7,17.2,15.3,25.4,15.3c8.2,0,17.5-5.6,25.4-15.3c3.4-4.2,6.3-8.8,8.4-13.4
		c2.2-4.8,3.3-9.4,3.3-13.2V17.8H84z M81.2,50.3c0,3-1,6.8-2.8,10.9c-1.9,4.2-4.5,8.4-7.6,12.2c-6.8,8.3-14.7,13.2-21.1,13.2
		s-14.3-4.9-21.1-13.2c-3.1-3.8-5.8-8-7.6-12.2c-1.9-4.1-2.8-7.9-2.8-10.9V23.4c15.1-0.5,24.2-5.3,31.6-10.7
		c7.4,5.4,16.5,10.2,31.6,10.7V50.3z"/>
	<path class="st0" d="M37.6,45.6c-0.5-0.4-1.1-0.7-1.7-0.8c-0.7-0.1-1.4,0.2-1.8,0.6l-1.8,1.8c-0.9,0.9-0.7,2.4,0.3,3.5l11.1,10.6
		c0.3,0.3,0.7,0.6,1.1,0.7c0.2,0.1,0.5,0.1,0.8,0.1c0.7,0,1.4-0.3,2-0.8l18.9-18.9c1-1,1.1-2.6,0.2-3.5l-1.8-1.8
		c-0.9-0.9-2.4-0.8-3.5,0.2L45.7,53.3L37.6,45.6z"/>
</g>
</svg>
