<?xml version="1.0" encoding="utf-8"?>
<!-- Generator: Adobe Illustrator 22.1.0, SVG Export Plug-In . SVG Version: 6.00 Build 0)  -->
<svg version="1.1" id="Layer_1" xmlns="http://www.w3.org/2000/svg" xmlns:xlink="http://www.w3.org/1999/xlink" x="0px" y="0px"
	 viewBox="0 0 96 96" style="enable-background:new 0 0 96 96;" xml:space="preserve">
<path d="M12.4,45.4c-1.5,0-2.8-1.2-2.8-2.7v-7.9c0-4.4,2.5-8.6,6.5-10.9L27,17.5c1.3-0.8,3-0.3,3.8,1c0.8,1.3,0.3,3-1,3.7l-10.8,6.2
	c-2.3,1.3-3.8,3.7-3.8,6.2v7.9C15.2,44.2,13.9,45.4,12.4,45.4z M38.6,17.2l14-8.1c1.3-0.8,1.8-2.4,1-3.7c-0.8-1.3-2.5-1.7-3.8-1
	l-14,8.1c-1.3,0.8-1.8,2.4-1,3.7c0.5,0.9,1.5,1.4,2.4,1.4C37.7,17.6,38.1,17.5,38.6,17.2z M23.6,60.6c1.5,0,2.8-1.2,2.8-2.7l0-16.5
	c0-2.6,1.4-5.1,3.8-6.5L46,25.8c1.3-0.8,1.8-2.4,1-3.7c-0.8-1.3-2.5-1.7-3.8-1l-15.9,9.1c-4,2.3-6.5,6.6-6.5,11.2l0,16.5
	C20.8,59.3,22,60.6,23.6,60.6C23.6,60.6,23.6,60.6,23.6,60.6z M37.4,82.9v-35c0-2.6,1.4-5.1,3.8-6.5l4.1-2.4c1.3-0.8,1.8-2.4,1-3.7
	c-0.8-1.3-2.5-1.7-3.8-1l-4.1,2.4c-4,2.3-6.5,6.6-6.5,11.2v35c0,1.5,1.2,2.7,2.8,2.7C36.1,85.6,37.4,84.4,37.4,82.9z M48.7,66.6
	V54.3c0-2.6,1.4-5.1,3.8-6.5l33.7-19.4c1.3-0.8,1.8-2.4,1-3.7c-0.8-1.3-2.5-1.7-3.8-1L49.7,43.2c-4,2.3-6.5,6.6-6.5,11.2v12.3
	c0,1.5,1.2,2.7,2.8,2.7C47.5,69.4,48.7,68.2,48.7,66.6z M59.7,85.3V60.8c0-3.3,0.5-4.4,2.4-5.5c0,0,0,0,0,0l5.8-3.5
	c1.3-0.8,1.7-2.5,0.9-3.8c-0.8-1.3-2.5-1.7-3.8-0.9l-5.7,3.4c-4.5,2.6-5.2,6.5-5.2,10.3v24.5c0,1.5,1.2,2.7,2.8,2.7
	C58.5,88,59.7,86.8,59.7,85.3z M71,78.9V67.2c0-3.2,0.7-4.6,2.6-5.7l12.5-7.1c1.3-0.8,1.8-2.4,1-3.7c-0.8-1.3-2.5-1.8-3.8-1
	l-12.5,7.1c-4.8,2.8-5.4,7-5.4,10.5v11.7c0,1.5,1.2,2.7,2.8,2.7S71,80.4,71,78.9z M81.2,71.7l5-2.8c1.3-0.7,1.8-2.4,1.1-3.7
	c-0.8-1.3-2.5-1.8-3.8-1l-5,2.8c-1.3,0.7-1.8,2.4-1.1,3.7c0.5,0.9,1.5,1.4,2.4,1.4C80.3,72.1,80.7,72,81.2,71.7z M15.2,70V52.5
	c0-1.5-1.2-2.7-2.8-2.7S9.6,51,9.6,52.5V70c0,1.5,1.2,2.7,2.8,2.7S15.2,71.5,15.2,70z M55.4,20.4l8.3-4.8c1.3-0.8,1.8-2.4,1-3.7
	c-0.8-1.3-2.5-1.7-3.8-1l-8.3,4.8c-1.3,0.8-1.8,2.4-1,3.7c0.5,0.9,1.5,1.4,2.4,1.4C54.4,20.8,54.9,20.6,55.4,20.4z M54.6,33.7
	l20-11.5c1.3-0.8,1.8-2.4,1-3.7s-2.5-1.7-3.8-1l-20,11.5c-1.3,0.8-1.8,2.4-1,3.7c0.5,0.9,1.5,1.4,2.4,1.4
	C53.7,34,54.1,33.9,54.6,33.7z M76.3,46.9l9.9-5.7c1.3-0.8,1.8-2.4,1-3.7c-0.8-1.3-2.5-1.7-3.8-1l-9.9,5.7c-1.3,0.8-1.8,2.4-1,3.7
	c0.5,0.9,1.5,1.4,2.4,1.4C75.4,47.3,75.8,47.2,76.3,46.9z M26.4,76.5v-9.1c0-1.5-1.2-2.7-2.8-2.7c-1.5,0-2.8,1.2-2.8,2.7v9.1
	c0,1.5,1.2,2.7,2.8,2.7C25.1,79.2,26.4,78,26.4,76.5z M48.7,89.5V75.2c0-1.5-1.2-2.7-2.8-2.7c-1.5,0-2.8,1.2-2.8,2.7v14.2
	c0,1.5,1.2,2.7,2.8,2.7C47.5,92.2,48.7,91,48.7,89.5z"/>
</svg>
