<?xml version="1.0" encoding="utf-8"?>
<!-- Generator: Adobe Illustrator 24.0.1, SVG Export Plug-In . SVG Version: 6.00 Build 0)  -->
<svg version="1.1" id="Layer_1" xmlns="http://www.w3.org/2000/svg" xmlns:xlink="http://www.w3.org/1999/xlink" x="0px" y="0px"
	 viewBox="0 0 96 96" style="enable-background:new 0 0 96 96;" xml:space="preserve">
<style type="text/css">
	.st0{fill-rule:evenodd;clip-rule:evenodd;fill:#231815;}
</style>
<title>形状</title>
<desc>Created with Sketch.</desc>
<g>
	<path class="st0" d="M2.3,28.4L2,67.6h91.9V28.4H2.3z M20.4,59.2c-3.1,0-5.7-0.9-8-2.7l-0.3-0.3l-0.9-0.7l3.5-3.9l0.9,0.7
		c1.4,1.1,3,1.7,4.9,1.7c2,0,2.8-0.6,2.8-1.6c0-0.9-0.4-1.3-1.6-1.5l-1.5-0.2c-0.4-0.1-0.7-0.1-1.1-0.2c-1.9-0.3-3.5-1.1-4.5-2.2
		c-1.1-1.2-1.7-2.7-1.7-4.4c0-2,0.7-3.7,2.1-5c1.3-1.2,3-1.8,5.1-1.9l0.4,0c2.5,0.1,4.8,0.7,6.7,2l0.4,0.2l0.9,0.6L25.4,44l-0.9-0.6
		c-1.3-0.9-2.7-1.3-4.3-1.3c-0.7,0-1.2,0.2-1.6,0.5c-0.3,0.3-0.5,0.6-0.5,1.2c0,0.3,0.1,0.5,0.4,0.8c0.3,0.3,0.8,0.5,1.5,0.6
		l0.7,0.1c0.4,0.1,0.9,0.1,1.5,0.2c2.1,0.3,3.8,1.1,4.8,2.4c1,1.3,1.6,2.8,1.6,4.4C28.4,56.8,25.5,59.1,20.4,59.2z M44.1,59
		l-1.5-4.4h-5.9L35.1,59h-5.6l8-22.1h4.1l8,22.1H44.1z M66.6,59H51.7V37H57l0,16.9l9.6,0V59z M84.8,42.1l-9.6,0v3.4l8.2,0v4.9
		l-8.2,0v3.5l9.6,0V59H69.9V37h14.9V42.1z"/>
	<polygon class="st0" points="38.3,49.7 40.9,49.7 39.6,45.7 	"/>
</g>
</svg>
