<?xml version="1.0" encoding="utf-8"?>
<!-- Generator: Adobe Illustrator 22.1.0, SVG Export Plug-In . SVG Version: 6.00 Build 0)  -->
<svg version="1.1" id="Layer_1" xmlns="http://www.w3.org/2000/svg" xmlns:xlink="http://www.w3.org/1999/xlink" x="0px" y="0px"
	 viewBox="0 0 96 96" style="enable-background:new 0 0 96 96;" xml:space="preserve">
<path d="M71.2,11h9c2.6,0,4.7,2.1,4.7,4.7V25c0,0.7,0.3,1.3,0.7,1.8c0.5,0.5,1.1,0.7,1.8,0.7c0.7,0,1.3-0.3,1.8-0.7
	c0.5-0.5,0.7-1.1,0.7-1.8v-9.3c0-5.4-4.4-9.7-9.7-9.7h-9c-0.7,0-1.3,0.3-1.8,0.7c-0.5,0.5-0.7,1.1-0.7,1.8c0,0.7,0.3,1.3,0.7,1.8
	C69.9,10.7,70.6,11,71.2,11z"/>
<path d="M8.5,27.5c1.4,0,2.5-1.1,2.5-2.5v-9.3c0-2.6,2.1-4.7,4.7-4.7H25c1.4,0,2.5-1.1,2.5-2.5S26.4,6,25,5.9h-9.3
	c-5.4,0-9.7,4.4-9.7,9.7V25c0,0.7,0.3,1.3,0.7,1.8C7.2,27.3,7.9,27.5,8.5,27.5z"/>
<path d="M25,85h-9.3c-2.6,0-4.7-2.1-4.7-4.7v-8.9c0-1.4-1.1-2.5-2.5-2.5C7.1,68.9,6,70,6,71.4v8.9c0,5.4,4.4,9.7,9.7,9.7H25
	c0.7,0,1.3-0.3,1.8-0.7s0.7-1.1,0.7-1.8c0-0.7-0.3-1.3-0.7-1.8C26.3,85.3,25.7,85,25,85z"/>
<path d="M89.3,69.6c-0.5-0.5-1.1-0.7-1.8-0.7c-0.7,0-1.3,0.3-1.8,0.7c-0.5,0.5-0.7,1.1-0.7,1.8v8.9c0,2.6-2.1,4.7-4.7,4.7h-9
	c-0.7,0-1.3,0.3-1.8,0.7c-0.5,0.5-0.7,1.1-0.7,1.8s0.3,1.3,0.7,1.8c0.5,0.5,1.1,0.7,1.8,0.7h9c5.4,0,9.7-4.4,9.7-9.7v-8.9
	C90,70.7,89.7,70.1,89.3,69.6z"/>
<path d="M87.4,45.5H8.6c-1.4,0-2.5,1.1-2.5,2.5s1.1,2.5,2.5,2.5h78.7c0.7,0,1.3-0.3,1.8-0.7c0.5-0.5,0.7-1.1,0.7-1.8
	c0-0.7-0.3-1.3-0.7-1.8C88.7,45.8,88,45.5,87.4,45.5z"/>
</svg>
