<?xml version="1.0" encoding="utf-8"?>
<!-- Generator: Adobe Illustrator 22.1.0, SVG Export Plug-In . SVG Version: 6.00 Build 0)  -->
<svg version="1.1" id="Layer_1" xmlns="http://www.w3.org/2000/svg" xmlns:xlink="http://www.w3.org/1999/xlink" x="0px" y="0px"
	 viewBox="0 0 96 96" style="enable-background:new 0 0 96 96;" xml:space="preserve">
<path d="M31.6,74L45,68.6l3-1.2l3,1.2L64.4,74L64,59.2l-0.1-2.9l1.8-2.3l8.6-10.7l-13.8-4.2l-2.7-0.8L56.3,36L48,24L39.7,36
	l-1.6,2.3l-2.7,0.8l-13.8,4.2L30.2,54l1.8,2.3L32,59.2L31.6,74 M72.7,86L48,76L23.3,86L24,59L8,39l25.2-7.6L48,10l14.8,21.4L88,39
	L72,59L72.7,86L72.7,86L72.7,86z"/>
</svg>
