<?xml version="1.0" encoding="utf-8"?>
<!-- Generator: Adobe Illustrator 22.1.0, SVG Export Plug-In . SVG Version: 6.00 Build 0)  -->
<svg version="1.1" id="Layer_1" xmlns="http://www.w3.org/2000/svg" xmlns:xlink="http://www.w3.org/1999/xlink" x="0px" y="0px"
	 viewBox="0 0 96 96" style="enable-background:new 0 0 96 96;" xml:space="preserve">
<g>
	<path d="M35.7,48C35.7,48,35.7,48,35.7,48l20,0c11,0,20-9,20-20c0-11-9-20-20-20C47,8,39.6,13.6,36.8,21.3h-1.1
		c-7.4,0-13.3,6-13.3,13.3C22.3,42,28.3,48,35.7,48z M35.7,29.3h1.1h5.7l1.9-5.3c1.7-4.8,6.2-8,11.3-8c6.6,0,12,5.4,12,12
		s-5.4,12-12,12h-20l-0.1,0c-2.9,0-5.2-2.4-5.2-5.3C30.3,31.7,32.7,29.3,35.7,29.3z"/>
	<path d="M80,40h-0.9c-2.2,0-4,1.8-4,4c0,2.2,1.8,4,4,4H80c2.2,0,4,1.8,4,4v12.7c-1.3-0.4-2.6-0.7-4-0.7h-2.8H18.8H16
		c-1.4,0-2.7,0.3-4,0.7V52c0-2.2,1.8-4,4-4h0.9c2.2,0,4-1.8,4-4c0-2.2-1.8-4-4-4H16C9.4,40,4,45.4,4,52v24c0,6.6,5.4,12,12,12h2.9
		h58.3H80c6.6,0,12-5.4,12-12V52C92,45.4,86.6,40,80,40z M80,80h-2.6H18.6H16c-2.2,0-4-1.8-4-4s1.8-4,4-4h2.6h58.8H80
		c2.2,0,4,1.8,4,4S82.2,80,80,80z"/>
</g>
</svg>
