<svg xmlns="http://www.w3.org/2000/svg" width="43" height="42" viewBox="0 0 43 42">
  <path fill="#0A1633" fill-opacity=".2" fill-rule="evenodd" d="M119.839439,0.636363636 L119.839814,0.646826116 C122.275372,0.807326226 124.211809,2.79482983 124.291437,5.25164841 L124.293985,5.40909091 L124.293985,16.5454545 L116.021257,16.5454545 L116.021257,20.9178777 C116.021257,21.2693316 115.736348,21.5542413 115.384894,21.5542413 C115.058544,21.5542413 114.789571,21.3085794 114.752811,20.9920911 L114.74853,20.9178777 L114.74853,5.40909091 C114.74853,4.02621801 115.336661,2.78071036 116.276437,1.90905262 L87.3848937,1.90909091 C86.3681877,1.90909091 85.5371095,2.70385816 85.4790436,3.70600823 L85.4758028,3.81818182 L85.4758028,40.0909091 C85.4758028,40.4172592 85.7214648,40.6862318 86.037953,40.7229914 L86.1121664,40.7272727 L105.136729,40.7272727 L105.136729,42 L86.1121664,42 C85.0954604,42 84.2643823,41.2052327 84.2063163,40.2030827 L84.2030755,40.0909091 L84.2030755,3.81818182 C84.2030755,2.1071561 85.5536344,0.711570291 87.2468731,0.639303327 L87.3848937,0.636363636 L119.839439,0.636363636 Z M115.384894,22.9090909 C120.305249,22.9090909 124.293985,26.8978268 124.293985,31.8181818 C124.293985,33.8922998 123.585208,35.8008742 122.396649,37.3149115 L125.995432,40.9136593 C126.243947,41.1621748 126.243947,41.5650979 125.995432,41.8136134 C125.766033,42.0430123 125.405067,42.0606584 125.155428,41.8665516 L125.095478,41.8136134 L121.540488,38.2587415 C119.940908,39.7879788 117.772593,40.7272727 115.384894,40.7272727 C110.464539,40.7272727 106.475803,36.7385369 106.475803,31.8181818 C106.475803,26.8978268 110.464539,22.9090909 115.384894,22.9090909 Z M115.384894,24.1818182 C111.167447,24.1818182 107.74853,27.6007346 107.74853,31.8181818 C107.74853,36.035629 111.167447,39.4545455 115.384894,39.4545455 C117.606392,39.4545455 119.606333,38.5059502 121.001758,36.99172 C121.022806,36.9577653 121.048824,36.926059 121.078351,36.8965325 L121.119155,36.8613717 C122.303141,35.5161974 123.021257,33.7510521 123.021257,31.8181818 C123.021257,27.6007346 119.602341,24.1818182 115.384894,24.1818182 Z M98.2030755,26.0909091 C98.5545295,26.0909091 98.8394392,26.3758188 98.8394392,26.7272727 C98.8394392,27.0536228 98.5937772,27.3225955 98.277289,27.3593551 L98.2030755,27.3636364 L90.5667119,27.3636364 C90.215258,27.3636364 89.9303483,27.0787267 89.9303483,26.7272727 C89.9303483,26.4009226 90.1760102,26.13195 90.4924985,26.0951904 L90.5667119,26.0909091 L98.2030755,26.0909091 Z M107.74853,18.4545455 C108.099984,18.4545455 108.384894,18.7394552 108.384894,19.0909091 C108.384894,19.4172592 108.139232,19.6862318 107.822744,19.7229914 L107.74853,19.7272727 L90.5667119,19.7272727 C90.215258,19.7272727 89.9303483,19.442363 89.9303483,19.0909091 C89.9303483,18.764559 90.1760102,18.4955864 90.4924985,18.4588267 L90.5667119,18.4545455 L107.74853,18.4545455 Z M119.521257,1.90909091 C117.635407,1.90909091 116.097914,3.40058728 116.024036,5.26832273 L116.021257,5.40909091 L116.021257,15.2727273 L123.021257,15.2727273 L123.021257,5.40909091 C123.021257,3.57159568 121.605267,2.06482263 119.804937,1.92042096 L119.662026,1.91187004 L119.521257,1.90909091 Z M107.74853,11.4545455 C108.099984,11.4545455 108.384894,11.7394552 108.384894,12.0909091 C108.384894,12.4172592 108.139232,12.6862318 107.822744,12.7229914 L107.74853,12.7272727 L90.5667119,12.7272727 C90.215258,12.7272727 89.9303483,12.442363 89.9303483,12.0909091 C89.9303483,11.764559 90.1760102,11.4955864 90.4924985,11.4588267 L90.5667119,11.4545455 L107.74853,11.4545455 Z" transform="translate(-84)"/>
</svg>
