<?xml version="1.0" encoding="utf-8"?>
<!-- Generator: Adobe Illustrator 17.0.0, SVG Export Plug-In . SVG Version: 6.00 Build 0)  -->
<!DOCTYPE svg PUBLIC "-//W3C//DTD SVG 1.1//EN" "http://www.w3.org/Graphics/SVG/1.1/DTD/svg11.dtd">
<svg version="1.1" id="Layer_1" xmlns="http://www.w3.org/2000/svg" xmlns:xlink="http://www.w3.org/1999/xlink" x="0px" y="0px"
	 width="96px" height="96px" viewBox="0 0 96 96" enable-background="new 0 0 96 96" xml:space="preserve">
<g>
	<path d="M27.75,48.784V12.25c0-2.209-1.791-4-4-4s-4,1.791-4,4V48.6c-4.222,1.538-7.25,5.58-7.25,10.327
		c0,4.84,3.147,8.952,7.499,10.418V81.75c0,2.209,1.791,4,4,4s4-1.791,4-4V68.953c3.825-1.724,6.499-5.565,6.499-10.026
		C34.498,54.369,31.71,50.45,27.75,48.784z M23.499,55.928c1.654,0,2.999,1.346,2.999,2.999s-1.345,2.999-2.999,2.999
		S20.5,60.58,20.5,58.927S21.845,55.928,23.499,55.928z"/>
	<path d="M51.75,25.784V12.25c0-2.209-1.791-4-4-4s-4,1.791-4,4V25.6c-4.222,1.538-7.25,5.58-7.25,10.327
		c0,4.747,3.028,8.789,7.25,10.327v6.964V83.25c0,2.209,1.791,4,4,4s4-1.791,4-4V53.218V46.07c3.96-1.666,6.748-5.584,6.748-10.143
		C58.498,31.369,55.71,27.45,51.75,25.784z M47.499,32.928c1.653,0,2.999,1.345,2.999,2.999c0,1.654-1.346,2.999-2.999,2.999
		c-1.654,0-2.999-1.345-2.999-2.999C44.5,34.273,45.845,32.928,47.499,32.928z"/>
	<path d="M81.498,60.927c0-4.652-2.908-8.63-6.998-10.234V12.25c0-2.209-1.791-4-4-4s-4,1.791-4,4v38.442
		c-4.091,1.604-7,5.583-7,10.235c0,4.652,2.909,8.63,6.999,10.235V83.25c0,2.209,1.791,4,4,4s4-1.791,4-4V71.162
		C78.589,69.557,81.498,65.579,81.498,60.927z M70.499,63.926c-1.653,0-2.999-1.346-2.999-2.999s1.346-2.999,2.999-2.999
		s2.999,1.346,2.999,2.999S72.152,63.926,70.499,63.926z"/>
</g>
</svg>
