<?xml version="1.0" encoding="utf-8"?>
<!-- Generator: Adobe Illustrator 22.1.0, SVG Export Plug-In . SVG Version: 6.00 Build 0)  -->
<svg version="1.1" id="Layer_1" xmlns="http://www.w3.org/2000/svg" xmlns:xlink="http://www.w3.org/1999/xlink" x="0px" y="0px"
	 viewBox="0 0 96 96" style="enable-background:new 0 0 96 96;" xml:space="preserve">
<path d="M86.1,92h-8.8c-1.6,0-2.9-1.3-2.9-2.9l0,0c0-1.6,1.3-2.9,2.9-2.9h8.8v-8.8c0-1.6,1.3-2.9,2.9-2.9l0,0c1.6,0,2.9,1.3,2.9,2.9
	v11.8c0,1.6-1.3,2.8-2.8,2.8H86.1z"/>
<path d="M4,86.1v-8.8c0-1.6,1.3-2.9,2.9-2.9h0c1.6,0,2.9,1.3,2.9,2.9v8.8h8.8c1.6,0,2.9,1.3,2.9,2.9l0,0c0,1.6-1.3,2.9-2.9,2.9H6.8
	C5.3,92,4,90.7,4,89.2V86.1z"/>
<path d="M9.9,4h8.8c1.6,0,2.9,1.3,2.9,2.9v0c0,1.6-1.3,2.9-2.9,2.9H9.9v8.8c0,1.6-1.3,2.9-2.9,2.9h0c-1.6,0-2.9-1.3-2.9-2.9V6.8
	C4,5.3,5.3,4,6.8,4H9.9z"/>
<path d="M92,9.9v8.8c0,1.6-1.3,2.9-2.9,2.9l0,0c-1.6,0-2.9-1.3-2.9-2.9V9.9h-8.8c-1.6,0-2.9-1.3-2.9-2.9v0c0-1.6,1.3-2.9,2.9-2.9
	h11.8C90.7,4,92,5.3,92,6.8V9.9z"/>
<path d="M29.1,59.7c-1.4,0-2.4-1.4-1.9-2.7c0.9-2.5,1.8-4.9,2.8-7.3c4.5-11.4,8.4-21.2,0.7-28.3c-0.4-0.3-0.6-0.8-0.5-1.2
	c0-0.4,0.3-0.9,0.7-1.2c0.4-0.3,0.9-0.5,1.5-0.5c0.5,0,1.1,0.2,1.4,0.6c9.3,8.5,4.9,19.7,0.2,31.6c-1,2.5-2,5-2.9,7.6
	C30.7,59.2,29.9,59.7,29.1,59.7L29.1,59.7z"/>
<path d="M69.8,59.7L69.8,59.7c-0.9,0-1.6-0.5-1.9-1.4c-0.9-2.5-1.9-5.1-2.9-7.6c-4.7-11.9-9.2-23.1,0.2-31.6
	c0.4-0.3,0.9-0.5,1.4-0.6c0.5,0,1.1,0.1,1.5,0.5c0.4,0.3,0.6,0.7,0.7,1.2c0,0.4-0.2,0.9-0.5,1.2c-7.7,7.1-3.8,16.9,0.7,28.3
	c0.9,2.4,1.9,4.8,2.8,7.3C72.2,58.4,71.2,59.7,69.8,59.7z"/>
<path d="M50.9,59.7H48v-2.9c0-1.6,0.7-2.9,1.5-2.9c0.4,0,0.8,0.3,1,0.9c0.3,0.5,0.4,1.3,0.4,2.1V59.7z"/>
<path d="M6.9,62.7h82.1c1.6,0,2.9,1.3,2.9,2.9s-1.3,2.9-2.9,2.9H6.9c-1.6,0-2.9-1.3-2.9-2.9S5.3,62.7,6.9,62.7z"/>
</svg>
