<?xml version="1.0" encoding="utf-8"?>
<!-- Generator: Adobe Illustrator 17.0.0, SVG Export Plug-In . SVG Version: 6.00 Build 0)  -->
<!DOCTYPE svg PUBLIC "-//W3C//DTD SVG 1.1//EN" "http://www.w3.org/Graphics/SVG/1.1/DTD/svg11.dtd">
<svg version="1.1" id="Layer_1" xmlns="http://www.w3.org/2000/svg" xmlns:xlink="http://www.w3.org/1999/xlink" x="0px" y="0px"
	 width="96px" height="96px" viewBox="0 0 96 96" enable-background="new 0 0 96 96" xml:space="preserve">
<g>
	<path fill="#070606" d="M79.7,68.5c-1.6,0-3.1,0.4-4.5,1L68,62.4c2.9-3.7,4.7-8.3,4.7-13.4c0-5.3-1.9-10.2-5.1-13.9l7-7
		c1.2,0.5,2.6,0.8,4,0.8c6,0,10.9-4.9,10.9-10.9S84.6,7.1,78.7,7.1S67.8,12,67.8,18c0,1.6,0.4,3.2,1,4.6L61.3,30
		c-3-1.6-6.4-2.5-10.1-2.5c-4.2,0-8.2,1.2-11.5,3.4l-9-9c0.5-1.2,0.7-2.5,0.7-3.9c0-6-4.9-10.9-10.9-10.9S9.8,12,9.8,18
		s4.9,10.9,10.9,10.9c1.7,0,3.3-0.4,4.7-1.1l8.6,8.6c-2.6,3.6-4.2,7.9-4.2,12.7c0,4.6,1.4,8.8,3.9,12.3l-8.6,8.2
		c-1.4-0.6-2.9-1-4.5-1c-6,0-10.9,4.9-10.9,10.9s4.9,10.9,10.9,10.9s10.9-4.9,10.9-10.9c0-1.5-0.3-2.9-0.8-4.2l8.7-8.3c0,0,0,0,0,0
		c3.4,2.3,7.5,3.6,11.9,3.6c3.9,0,7.5-1.1,10.7-2.9l7.6,7.6c-0.5,1.3-0.8,2.7-0.8,4.1c0,6,4.9,10.9,10.9,10.9s10.9-4.9,10.9-10.9
		S85.6,68.5,79.7,68.5z M78.7,15.1c1.6,0,2.9,1.3,2.9,2.9s-1.3,2.9-2.9,2.9s-2.9-1.3-2.9-2.9S77.1,15.1,78.7,15.1z M17.8,18
		c0-1.6,1.3-2.9,2.9-2.9s2.9,1.3,2.9,2.9s-1.3,2.9-2.9,2.9S17.8,19.6,17.8,18z M20.6,82.2c-1.6,0-2.9-1.3-2.9-2.9s1.3-2.9,2.9-2.9
		s2.9,1.3,2.9,2.9S22.2,82.2,20.6,82.2z M37.8,49c0-7.4,6.1-13.5,13.5-13.5c7.4,0,13.5,6.1,13.5,13.5c0,7.4-6.1,13.5-13.5,13.5
		C43.8,62.5,37.8,56.4,37.8,49z M79.7,82.2c-1.6,0-2.9-1.3-2.9-2.9s1.3-2.9,2.9-2.9s2.9,1.3,2.9,2.9S81.2,82.2,79.7,82.2z"/>
	<circle fill="#070606" cx="51.1" cy="48.6" r="5.2"/>
</g>
</svg>
