<?xml version="1.0" encoding="utf-8"?>
<!-- Generator: Adobe Illustrator 17.0.0, SVG Export Plug-In . SVG Version: 6.00 Build 0)  -->
<!DOCTYPE svg PUBLIC "-//W3C//DTD SVG 1.1//EN" "http://www.w3.org/Graphics/SVG/1.1/DTD/svg11.dtd">
<svg version="1.1" id="Layer_1" xmlns="http://www.w3.org/2000/svg" xmlns:xlink="http://www.w3.org/1999/xlink" x="0px" y="0px"
	 width="96px" height="96px" viewBox="0 0 96 96" enable-background="new 0 0 96 96" xml:space="preserve">
<g>
	<path d="M89.825,48.167L70.31,14.365c-0.535-0.928-1.525-1.5-2.598-1.5h-39.03c-1.072,0-2.062,0.572-2.598,1.5L6.568,48.167
		c-0.536,0.929-0.536,2.072,0,3l19.515,33.801c0.536,0.929,1.526,1.5,2.598,1.5h39.03c1.072,0,2.062-0.571,2.598-1.5l19.516-33.801
		C90.361,50.239,90.361,49.096,89.825,48.167z M65.979,80.468H30.414L12.63,49.667l17.783-30.802h35.566l17.784,30.802
		L65.979,80.468z"/>
	<path d="M59.986,25.865h-23.88c-1.072,0-2.062,0.572-2.598,1.5l-11.94,20.681c-0.536,0.928-0.536,2.072,0,3l11.94,20.681
		c0.536,0.928,1.526,1.5,2.598,1.5h23.88c1.072,0,2.062-0.572,2.598-1.5l11.939-20.681c0.536-0.929,0.536-2.071,0-3L62.584,27.365
		C62.049,26.437,61.059,25.865,59.986,25.865z M58.254,67.227H37.838L27.63,49.546l10.208-17.681h20.416l10.208,17.681
		L58.254,67.227z"/>
	<path d="M48.333,41.833c-4.319,0-7.833,3.514-7.833,7.833s3.514,7.833,7.833,7.833c4.32,0,7.833-3.514,7.833-7.833
		S52.653,41.833,48.333,41.833z M48.333,51.5c-1.011,0-1.833-0.822-1.833-1.833s0.822-1.833,1.833-1.833s1.833,0.823,1.833,1.833
		S49.345,51.5,48.333,51.5z"/>
</g>
</svg>
