<?xml version="1.0" encoding="utf-8"?>
<!-- Generator: Adobe Illustrator 17.0.0, SVG Export Plug-In . SVG Version: 6.00 Build 0)  -->
<!DOCTYPE svg PUBLIC "-//W3C//DTD SVG 1.1//EN" "http://www.w3.org/Graphics/SVG/1.1/DTD/svg11.dtd">
<svg version="1.1" id="Layer_1" xmlns="http://www.w3.org/2000/svg" xmlns:xlink="http://www.w3.org/1999/xlink" x="0px" y="0px"
	 width="96px" height="96px" viewBox="0 0 96 96" enable-background="new 0 0 96 96" xml:space="preserve">
<g>
	<path d="M72.1,79.6c-3.5,0-6.3,2.8-6.3,6.3c0,3.5,2.8,6.3,6.3,6.3c3.5,0,6.3-2.8,6.3-6.3C78.4,82.5,75.6,79.6,72.1,79.6z
		 M72.1,87.6c-0.9,0-1.7-0.8-1.7-1.7s0.8-1.7,1.7-1.7c0.9,0,1.7,0.8,1.7,1.7S73.1,87.6,72.1,87.6z"/>
	<path d="M82.7,26.4H25.8c-2.2,0-4.2,0.6-6,1.6l-1.5-7.2C17.4,18.3,14.1,14,6.6,14c-2.2,0-4,1.8-4,4s1.8,4,4,4c2.8,0,3.8,1,4,1.3
		l3.1,15c0,0,0,0,0,0v0.4l5.1,27.1c1.2,7.7,5,11.3,11.9,11.3h44.9c4.7,0,10.9-1.9,13.8-10.7l0.1-0.5l5.1-28.1v-0.4
		C94.7,31,89.6,26.4,82.7,26.4z M64.1,34.4l-2.7,34.7H47.4l-1.1-34.7H64.1z M26.7,64.5l0-0.1l-4.9-26c0-0.2,0-0.3,0-0.5
		c0.2-2,1.9-3.5,4-3.5h12.5l1.1,34.7h-8.7C28.6,69.1,27.4,69.1,26.7,64.5z M81.8,64.1c-1.4,4.1-3.5,5-6.1,5h-6.2l2.7-34.7h10.5
		c0.9,0,3.8,0.2,4,2.7L81.8,64.1z"/>
	<path d="M38.5,79.6c-3.5,0-6.3,2.8-6.3,6.3c0,3.5,2.8,6.3,6.3,6.3c3.5,0,6.3-2.8,6.3-6.3C44.8,82.5,42,79.6,38.5,79.6z M38.5,87.6
		c-0.9,0-1.7-0.8-1.7-1.7s0.8-1.7,1.7-1.7s1.7,0.8,1.7,1.7S39.5,87.6,38.5,87.6z"/>
</g>
</svg>
