<?xml version="1.0" encoding="utf-8"?>
<!-- Generator: Adobe Illustrator 17.0.0, SVG Export Plug-In . SVG Version: 6.00 Build 0)  -->
<!DOCTYPE svg PUBLIC "-//W3C//DTD SVG 1.1//EN" "http://www.w3.org/Graphics/SVG/1.1/DTD/svg11.dtd">
<svg version="1.1" id="Layer_1" xmlns="http://www.w3.org/2000/svg" xmlns:xlink="http://www.w3.org/1999/xlink" x="0px" y="0px"
	 width="96px" height="96px" viewBox="0 0 96 96" enable-background="new 0 0 96 96" xml:space="preserve">
<path d="M53.2,33.1C49.9,37.2,48,42.4,48,48c0,5.6-1.5,10.9-4,15.5c-1.4,2.5-3.1,4.8-5.1,6.9C33,76.3,25,80,16,80H8
	c-2.2,0-4-1.8-4-4s1.8-4,4-4h8c7.6,0,14.5-3.6,18.8-9.1C38.1,58.8,40,53.6,40,48c0-5.6,1.5-10.9,4-15.5c1.4-2.5,3.1-4.8,5.1-6.9
	C55,19.7,63,16,72,16h6.3l-9.2-9.2c-1.6-1.6-1.6-4.1,0-5.7c1.6-1.6,4.1-1.6,5.7,0l16,16c1.6,1.6,1.6,4.1,0,5.7l-16,16
	C74,39.6,73,40,72,40s-2-0.4-2.8-1.2c-1.6-1.6-1.6-4.1,0-5.7l9.2-9.2H72C64.4,24,57.5,27.6,53.2,33.1z M8,24h8
	c7.6,0,14.5,3.6,18.8,9.1c1.1-2.7,2.4-5.2,4-7.5C33,19.7,25,16,16,16H8c-2.2,0-4,1.8-4,4S5.8,24,8,24z M74.8,57.2
	c-1.6-1.6-4.1-1.6-5.7,0c-1.6,1.6-1.6,4.1,0,5.7l9.2,9.2H72c-7.6,0-14.5-3.6-18.8-9.1c-1.1,2.7-2.4,5.2-4,7.5C55,76.3,63,80,72,80
	h6.3l-9.2,9.2c-1.6,1.6-1.6,4.1,0,5.7C70,95.6,71,96,72,96s2-0.4,2.8-1.2l16-16c1.6-1.6,1.6-4.1,0-5.7L74.8,57.2z"/>
</svg>
