<?xml version="1.0" encoding="utf-8"?>
<!-- Generator: Adobe Illustrator 17.0.0, SVG Export Plug-In . SVG Version: 6.00 Build 0)  -->
<!DOCTYPE svg PUBLIC "-//W3C//DTD SVG 1.1//EN" "http://www.w3.org/Graphics/SVG/1.1/DTD/svg11.dtd">
<svg version="1.1" id="Layer_1" xmlns="http://www.w3.org/2000/svg" xmlns:xlink="http://www.w3.org/1999/xlink" x="0px" y="0px"
	 width="96px" height="96px" viewBox="0 0 96 96" enable-background="new 0 0 96 96" xml:space="preserve">
<path d="M58.1,66.7c-6.3-3.7-14-3.7-20.3,0c-1.9,1.1-2.5,3.6-1.4,5.5c1.1,1.9,3.6,2.5,5.5,1.4c3.7-2.2,8.4-2.2,12.2,0
	c1.6,0.9,3.6,0.6,4.9-0.6c0.2-0.2,0.4-0.5,0.6-0.8C60.7,70.3,60,67.9,58.1,66.7z M20.1,49.9c-1.7,1.4-2,3.9-0.6,5.6
	c1.4,1.7,3.9,2,5.6,0.6c13.2-10.8,32.4-10.8,45.6,0c1.6,1.3,3.9,1.2,5.4-0.3c0.1-0.1,0.2-0.2,0.3-0.3c1.4-1.7,1.1-4.2-0.6-5.6
	C59.7,36.7,36.3,36.7,20.1,49.9z M93,33C67.3,10.3,28.7,10.3,3,33c-1.7,1.4-1.8,4-0.3,5.6c1.5,1.7,4,1.8,5.6,0.3
	c22.6-20,56.8-20,79.4,0c1.6,1.4,4,1.3,5.5-0.2c0.1-0.1,0.1-0.1,0.2-0.2C94.8,37,94.6,34.5,93,33z"/>
</svg>
