<?xml version="1.0" encoding="utf-8"?>
<!-- Generator: Adobe Illustrator 17.0.0, SVG Export Plug-In . SVG Version: 6.00 Build 0)  -->
<!DOCTYPE svg PUBLIC "-//W3C//DTD SVG 1.1//EN" "http://www.w3.org/Graphics/SVG/1.1/DTD/svg11.dtd">
<svg version="1.1" id="Layer_1" xmlns="http://www.w3.org/2000/svg" xmlns:xlink="http://www.w3.org/1999/xlink" x="0px" y="0px"
	 width="96px" height="96px" viewBox="0 0 96 96" enable-background="new 0 0 96 96" xml:space="preserve">
<g>
	<path d="M83.647,43.179c1.496,0,2.708-1.213,2.708-2.708c0-1.496-1.213-2.708-2.708-2.708s-2.708,1.213-2.708,2.708
		C80.939,41.967,82.151,43.179,83.647,43.179z M83.522,38.56c0.966,0,1.75,0.783,1.75,1.75c0,0.966-0.783,1.75-1.75,1.75
		c-0.966,0-1.75-0.783-1.75-1.75C81.773,39.343,82.556,38.56,83.522,38.56z"/>
	<path d="M74.355,46.096c0,0-1.833-2,0.75-1.75c2.583,0.25,4.312,2.654,9,2.583c2.027-0.031,8.727-2.25,8.727-2.25l-0.343-1.474
		c0,0-2.149-6.863-8.966-8.123c-1.677-0.31-3.252,0.763-3.252,0.763s-14-5.807-19.083-6.917c-5.083-1.11-19.417-3-34.75,3.75
		C11.105,39.429,7.323,46.872,6.573,47.372s-6.953,11.874-0.5,17.417c13.616,8.973,12.167-2.667,12.167-2.667
		s-1.468-4.693-3.384-4.943c-1.917-0.25-5.75-0.167-5.25,2.333s1.5,3.75,2.083,3.25c0.583-0.5,0.333-1.417,0.333-1.417l-0.833-0.833
		c0,0-0.083-1.667,1.583-1.25c1.667,0.417,2.083,4.583,0.583,4.75c-1.5,0.167-5.667,1.5-5.667-4.417
		c0.25-4.833,3.333-4.75,4.333-4.667s3.167-5.5,8.417-4.833c5.25,0.667,6.5,1.833,6.917,5c0.417,3.167-0.417,8.917,2.583,8.833
		s1.75-3.888,1.75-3.888l0.417-4.945c0,0,1.75-3.667,4.5-0.167c-0.083,3.667,0.083,7.667,0.083,7.667s2.167,2.833,3.5-0.083
		c0.25-2.083,0.917-6.917,0.917-6.917s0-2.25,2.667-1.917s7.583,1.25,12.917,0.25c1.976-0.3,1.167,0.583,1.917,1.833
		s1.917,7,1.917,7s3,2.75,3.25-0.417c-0.417-3.25-0.917-8-0.917-8s0.167-2.667,2.417-0.917c2.083,2.167,3.667,9.167,3.667,9.167
		s3,2.75,3.25-0.75c-0.24-2.431-1.5-3.417-1.167-5.167c0,0-0.25-2.333,3.167-2.417c0.499-0.018,0.167-0.583-0.667-1
		c-0.833-0.417-5.583-3.833-5.583-3.833s-1.5-1.799,0.75-1.649c2.25,0.149,2.804,2.072,4.333,3.066
		c1.793,1.166,5.333,4.75,11.583,2.667c6.25-2.083,8.227-6.917,8.227-6.917s-5.393,1.78-7.227,1.833
		C79.938,48.594,74.355,46.096,74.355,46.096z M83.564,36.346c2.324,0,4.208,1.884,4.208,4.208s-1.884,4.208-4.208,4.208
		c-2.324,0-4.208-1.884-4.208-4.208S81.239,36.346,83.564,36.346z"/>
	<circle cx="83.524" cy="40.28" r="0.873"/>
</g>
</svg>
