<?xml version="1.0" encoding="utf-8"?>
<!-- Generator: Adobe Illustrator 22.1.0, SVG Export Plug-In . SVG Version: 6.00 Build 0)  -->
<svg version="1.1" id="Layer_1" xmlns="http://www.w3.org/2000/svg" xmlns:xlink="http://www.w3.org/1999/xlink" x="0px" y="0px"
	 viewBox="0 0 96 96" style="enable-background:new 0 0 96 96;" xml:space="preserve">
<g>
	<path d="M89.1,39.4C85.7,22.3,71.3,8.7,54,6.4c-0.8-0.1-1.6-0.3-2.4-0.4c-2.4,0-4.7,0-7.1,0c-1.7,0.3-3.4,0.5-5,0.9
		C22.3,10.3,8.7,24.7,6.4,42c-0.1,0.8-0.3,1.6-0.4,2.4c0,2.4,0,4.7,0,7.1c0.3,1.7,0.5,3.4,0.9,5c3.4,17.2,17.8,30.7,35.1,33
		c0.8,0.1,1.6,0.3,2.4,0.4c2.4,0,4.7,0,7.1,0c1.7-0.3,3.4-0.5,5-0.9c17.2-3.4,30.7-17.8,33-35.1c0.1-0.8,0.3-1.6,0.4-2.4
		c0-2.4,0-4.7,0-7.1C89.7,42.8,89.5,41.1,89.1,39.4z M48,82.3c-18.9,0-34.3-15.4-34.3-34.3c0-18.9,15.4-34.4,34.3-34.4
		c18.9,0,34.4,15.4,34.4,34.3C82.3,66.9,66.9,82.4,48,82.3z"/>
	<path d="M70.1,53.4c-1.8-0.6-3.4,0.2-4.2,2.1c-1,2.5-2.4,4.6-4.3,6.4c-4.5,4.2-10,5.4-15.9,4.9c-7.4-0.7-12.8-4.3-15.7-11.3
		c-0.8-1.9-2.3-2.7-4.1-2.1c-1.8,0.6-2.6,2.4-1.9,4.3c0.7,1.7,1.4,3.4,2.5,4.9C31.8,70,39.1,73.2,48,73.3c3.3,0,6.5-0.5,9.5-1.6
		c6.8-2.6,11.7-7.1,14.3-14C72.6,55.8,71.8,54,70.1,53.4z"/>
	<path d="M27,48c2.4,0,4.2-1.8,4.2-4.2c0-2.4-1.8-4.2-4.2-4.2c-2.3,0-4.2,1.8-4.3,4.1C22.7,46.1,24.6,48,27,48z"/>
	<path d="M69,39.6c-2.4,0-4.2,1.8-4.2,4.2c0,2.4,1.8,4.2,4.2,4.2c2.4,0,4.3-1.9,4.3-4.2C73.2,41.4,71.3,39.6,69,39.6z"/>
</g>
</svg>
