<?xml version="1.0" encoding="utf-8"?>
<!-- Generator: Adobe Illustrator 17.0.0, SVG Export Plug-In . SVG Version: 6.00 Build 0)  -->
<!DOCTYPE svg PUBLIC "-//W3C//DTD SVG 1.1//EN" "http://www.w3.org/Graphics/SVG/1.1/DTD/svg11.dtd">
<svg version="1.1" id="Layer_1" xmlns="http://www.w3.org/2000/svg" xmlns:xlink="http://www.w3.org/1999/xlink" x="0px" y="0px"
	 width="96px" height="96px" viewBox="0 0 96 96" enable-background="new 0 0 96 96" xml:space="preserve">
<g>
	<path d="M79.328,60.505c-1.561-1.562-4.096-1.562-5.656,0L61,73.177V11c0-2.209-1.791-4-4-4s-4,1.791-4,4v72c0,2.209,1.791,4,4,4
		c1.437,0,2.688-0.765,3.393-1.904l18.935-18.935C80.891,64.6,80.891,62.066,79.328,60.505z"/>
	<path d="M39.921,10.216c-0.023-0.113-0.065-0.217-0.097-0.327c-0.041-0.141-0.074-0.283-0.13-0.42
		c-0.053-0.128-0.126-0.243-0.191-0.364c-0.059-0.109-0.107-0.221-0.176-0.325c-0.134-0.2-0.288-0.385-0.455-0.557
		c-0.016-0.016-0.026-0.036-0.043-0.052c-0.016-0.016-0.035-0.026-0.051-0.042c-0.173-0.167-0.358-0.322-0.559-0.456
		c-0.1-0.067-0.208-0.113-0.312-0.169c-0.125-0.068-0.245-0.143-0.377-0.198c-0.129-0.053-0.264-0.084-0.397-0.123
		c-0.117-0.035-0.229-0.08-0.35-0.104c-0.242-0.048-0.488-0.071-0.734-0.074C36.032,7.005,36.016,7,36,7s-0.032,0.005-0.048,0.005
		c-0.246,0.003-0.492,0.026-0.734,0.074c-0.121,0.024-0.233,0.069-0.35,0.104c-0.133,0.039-0.268,0.07-0.397,0.123
		c-0.132,0.055-0.252,0.13-0.377,0.198c-0.104,0.057-0.213,0.103-0.312,0.17c-0.201,0.134-0.386,0.289-0.559,0.456
		c-0.016,0.016-0.035,0.026-0.051,0.042L13.796,27.546c-1.562,1.562-1.562,4.095,0,5.657c0.781,0.781,1.805,1.171,2.829,1.171
		s2.047-0.391,2.829-1.171L32,20.657V83c0,2.209,1.791,4,4,4s4-1.791,4-4V11.001C40,10.738,39.972,10.475,39.921,10.216z"/>
</g>
</svg>
