<?xml version="1.0" encoding="utf-8"?>
<!-- Generator: Adobe Illustrator 17.0.0, SVG Export Plug-In . SVG Version: 6.00 Build 0)  -->
<!DOCTYPE svg PUBLIC "-//W3C//DTD SVG 1.1//EN" "http://www.w3.org/Graphics/SVG/1.1/DTD/svg11.dtd">
<svg version="1.1" id="Layer_1" xmlns="http://www.w3.org/2000/svg" xmlns:xlink="http://www.w3.org/1999/xlink" x="0px" y="0px"
	 width="96px" height="96px" viewBox="0 0 96 96" enable-background="new 0 0 96 96" xml:space="preserve">
<g>
	<path d="M80,12c2.2,0,4,1.8,4,4v44c0,2.2-1.8,4-4,4H45.4L28,76.5V72v-8H16c-2.2,0-4-1.8-4-4V16c0-2.2,1.8-4,4-4H80 M80,4H16
		C9.4,4,4,9.4,4,16v44c0,6.6,5.4,12,12,12h4v20l28-20h32c6.6,0,12-5.4,12-12V16C92,9.4,86.6,4,80,4L80,4z"/>
</g>
</svg>
