<?xml version="1.0" encoding="utf-8"?>
<!-- Generator: Adobe Illustrator 17.0.0, SVG Export Plug-In . SVG Version: 6.00 Build 0)  -->
<!DOCTYPE svg PUBLIC "-//W3C//DTD SVG 1.1//EN" "http://www.w3.org/Graphics/SVG/1.1/DTD/svg11.dtd">
<svg version="1.1" id="Layer_1" xmlns="http://www.w3.org/2000/svg" xmlns:xlink="http://www.w3.org/1999/xlink" x="0px" y="0px"
	 width="96px" height="96px" viewBox="0 0 96 96" enable-background="new 0 0 96 96" xml:space="preserve">
<path d="M80,4H16C9.4,4,4,9.4,4,16v64c0,6.6,5.4,12,12,12h64c6.6,0,12-5.4,12-12V16C92,9.4,86.6,4,80,4z M84,80c0,2.2-1.8,4-4,4H16
	c-2.2,0-4-1.8-4-4V16c0-2.2,1.8-4,4-4h64c2.2,0,4,1.8,4,4V80z M62.1,33.9c-1.6-1.6-4.1-1.6-5.7,0L48,42.3l-8.5-8.5
	c-1.6-1.6-4.1-1.6-5.7,0c-1.6,1.6-1.6,4.1,0,5.7l8.5,8.5l-8.5,8.5c-1.6,1.6-1.6,4.1,0,5.7c1.6,1.6,4.1,1.6,5.7,0l8.5-8.5l8.5,8.5
	c1.6,1.6,4.1,1.6,5.7,0c1.6-1.6,1.6-4.1,0-5.7L53.7,48l8.5-8.5C63.7,38,63.7,35.4,62.1,33.9z"/>
</svg>
