<?xml version="1.0" encoding="utf-8"?>
<!-- Generator: Adobe Illustrator 22.1.0, SVG Export Plug-In . SVG Version: 6.00 Build 0)  -->
<svg version="1.1" id="Layer_1" xmlns="http://www.w3.org/2000/svg" xmlns:xlink="http://www.w3.org/1999/xlink" x="0px" y="0px"
	 viewBox="0 0 96 96" style="enable-background:new 0 0 96 96;" xml:space="preserve">
<path d="M89.1,27.4H6.9c-3.8,0-6.9,3.1-6.9,6.9v27.4c0,3.8,3.1,6.9,6.9,6.9h82.3c3.8,0,6.9-3.1,6.9-6.9V34.3
	C96,30.5,92.9,27.4,89.1,27.4z M22.6,62.7c-4.4,0-8-0.8-11-3.8l4.5-4.6c1.5,1.5,4.1,2,6.5,2c2.8,0,4.1-0.9,4.1-2.6
	c0-0.7-0.2-1.3-0.6-1.7c-0.4-0.4-1-0.6-1.9-0.8l-3.5-0.5c-2.6-0.4-4.5-1.2-5.8-2.6c-1.3-1.4-2-3.3-2-5.8c0-5.3,4-9.1,10.6-9.1
	c4.1,0,7.3,1,9.8,3.5l-4.5,4.5c-1.8-1.8-4.2-1.7-5.5-1.7c-2.5,0-3.5,1.4-3.5,2.7c0,0.4,0.1,0.9,0.6,1.3c0.4,0.4,1,0.7,2,0.9l3.5,0.5
	c2.6,0.4,4.5,1.2,5.7,2.4c1.5,1.5,2.2,3.7,2.2,6.3C33.8,59.5,28.7,62.7,22.6,62.7z M46.7,62.7c-4.4,0-8-0.8-11-3.8l4.5-4.6
	c1.5,1.5,4.1,2,6.5,2c2.8,0,4.1-0.9,4.1-2.6c0-0.7-0.2-1.3-0.6-1.7c-0.4-0.4-1-0.6-1.9-0.8l-3.5-0.5c-2.6-0.4-4.5-1.2-5.8-2.6
	c-1.3-1.4-2-3.3-2-5.8c0-5.3,4-9.1,10.6-9.1c4.1,0,7.3,1,9.8,3.5L53,41.2c-1.8-1.8-4.2-1.7-5.5-1.7c-2.5,0-3.5,1.4-3.5,2.7
	c0,0.4,0.1,0.9,0.6,1.3c0.4,0.4,1,0.7,2,0.9l3.5,0.5c2.6,0.4,4.5,1.2,5.7,2.4c1.5,1.5,2.2,3.7,2.2,6.3
	C57.9,59.5,52.8,62.7,46.7,62.7z M84.4,62.5h-7.1V51h-7.6v11.5h-7.1V33.5h7.1v11.1h7.6V33.5h7.1V62.5z"/>
</svg>
