<svg xmlns="http://www.w3.org/2000/svg" width="24" height="16" viewBox="0 0 24 16">
  <path fill="#0A1633" fill-rule="evenodd" d="M22.8364418,4 L8.29123459,4 C7.17259172,4 5.74072886,5.07744108 5.06954314,6.47811448 L4.53259457,7.66329966 L8.38072601,7.66329966 L7.35157458,10.1414141 L3.50344313,10.1414141 L1.93734313,13.8585859 L6.36716886,13.8585859 L5.33801743,16.2828283 L0.863445979,16.2828283 L0.326497406,17.5218855 C-0.344688312,18.8686869 0.0580231185,20 1.17666598,20 L15.7218732,20 C16.840516,20 18.2723789,18.9225589 18.9435646,17.5218855 L23.6418646,6.42424242 C24.357796,5.07744108 23.9550846,4 22.8364418,4 Z M15.6448339,14.8984978 C15.1897207,15.3312193 14.5954198,15.7098507 13.9621867,15.9262115 C13.3289537,16.1425723 12.6337058,16.2507527 11.8223528,16.2507527 C10.4160077,16.2507527 9.55779803,15.9803017 9.24772376,15.4393997 C8.93764948,14.8984978 8.9131843,14.1953252 9.20533565,13.3839723 L11.7086428,13.2217017 C11.6011536,13.600333 11.5708374,13.9248742 11.6407769,14.141235 C11.7727313,14.4657762 12.0821143,14.6280468 12.5689261,14.6280468 C12.9475575,14.6280468 13.264174,14.5198664 13.5497831,14.3575958 C13.8353922,14.1953252 13.9818135,13.9789644 14.0741446,13.7626036 C14.1664756,13.5462428 14.1275435,13.3839723 14.057604,13.1676115 C13.9645818,13.0053409 13.5470183,12.8430703 12.9671842,12.6807997 C11.946704,12.4103487 11.3279378,12.0858075 11.0257882,11.653086 C10.7236386,11.2203644 10.7381055,10.6794624 10.992016,10.0844703 C11.1766781,9.65174869 11.4464379,9.27311731 11.8784683,8.89448593 C12.3104986,8.51585456 12.7504537,8.24540357 13.3295965,8.02904278 C13.9087394,7.812682 14.6580774,7.7045016 15.4694304,7.7045016 C16.4971441,7.7045016 17.216166,7.92086239 17.6495788,8.29949377 C18.0289014,8.67812515 18.0764493,9.32720751 17.8153054,10.1926507 L15.3660884,10.3549212 C15.4735776,9.97628987 15.4267209,9.70583888 15.3336986,9.54356829 C15.1865861,9.3812977 14.9623007,9.27311731 14.5836693,9.27311731 C14.3132183,9.27311731 14.0196846,9.32720751 13.8653386,9.4353879 C13.6569025,9.54356829 13.533564,9.70583888 13.4643157,9.86810947 C13.4181501,9.97628987 13.402992,10.1385605 13.4650069,10.2467408 C13.5270217,10.3549212 13.7513072,10.4631016 14.1919534,10.571282 C15.2355165,10.7876428 15.8773654,11.0580938 16.2718461,11.2744546 C16.6663268,11.4908154 16.8523713,11.8153566 16.9071527,12.1939879 C16.9619341,12.5726193 16.9085351,12.9512507 16.7007902,13.4380625 C16.4930453,13.9248742 16.17712,14.411686 15.6448339,14.8984978 Z" transform="translate(0 -4)"/>
</svg>
