<?xml version="1.0" encoding="utf-8"?>
<!-- Generator: Adobe Illustrator 22.1.0, SVG Export Plug-In . SVG Version: 6.00 Build 0)  -->
<svg version="1.1" id="Layer_1" xmlns="http://www.w3.org/2000/svg" xmlns:xlink="http://www.w3.org/1999/xlink" x="0px" y="0px"
	 viewBox="0 0 96 96" style="enable-background:new 0 0 96 96;" xml:space="preserve">
<path d="M91.3,33.2H20.5c-2.5,0-5.7,2-7.2,4.6L12.1,40h8.6l-2.3,4.6H9.8l-3.5,6.9h9.9L13.9,56h-10l-1.2,2.3
	c-1.5,2.5-0.6,4.6,1.9,4.6h70.8c2.5,0,5.7-2,7.2-4.6l10.5-20.6C94.7,35.2,93.8,33.2,91.3,33.2z M41.4,53.4c-0.5,0.8-1.3,1.5-2.3,1.9
	c-1,0.4-2.2,0.6-3.7,0.6c-2.6,0-4.4-0.5-5.4-1.5c-1-1-1.6-2.3-1.7-3.8l4.5-0.3c0.1,0.7,0.3,1.3,0.6,1.7c0.5,0.6,1.2,0.9,2.1,0.9
	c0.7,0,1.2-0.2,1.6-0.5c0.4-0.3,0.5-0.7,0.5-1.1c0-0.4-0.2-0.7-0.5-1.1c-0.3-0.3-1.2-0.6-2.4-0.9c-2.1-0.5-3.5-1.1-4.4-1.9
	c-0.9-0.8-1.3-1.8-1.3-2.9c0-0.8,0.2-1.5,0.7-2.2c0.5-0.7,1.1-1.2,2-1.6s2.2-0.6,3.7-0.6c1.9,0,3.4,0.4,4.5,1.1
	c1,0.7,1.6,1.9,1.8,3.5l-4.4,0.3c-0.1-0.7-0.4-1.2-0.7-1.5c-0.4-0.3-0.9-0.5-1.6-0.5c-0.5,0-1,0.1-1.2,0.3c-0.3,0.2-0.4,0.5-0.4,0.8
	c0,0.2,0.1,0.5,0.3,0.7c0.2,0.2,0.7,0.4,1.6,0.6c2.1,0.4,3.5,0.9,4.4,1.3s1.5,1,1.9,1.7c0.4,0.7,0.6,1.4,0.6,2.3
	C42.2,51.6,42,52.5,41.4,53.4z M57.3,53.4c-0.5,0.8-1.3,1.5-2.3,1.9c-1,0.4-2.2,0.6-3.7,0.6c-2.6,0-4.4-0.5-5.4-1.5
	c-1-1-1.6-2.3-1.7-3.8l4.5-0.3c0.1,0.7,0.3,1.3,0.6,1.7c0.5,0.6,1.2,0.9,2.1,0.9c0.7,0,1.2-0.2,1.6-0.5s0.5-0.7,0.5-1.1
	c0-0.4-0.2-0.7-0.5-1.1c-0.3-0.3-1.2-0.6-2.4-0.9c-2.1-0.5-3.5-1.1-4.4-1.9c-0.9-0.8-1.3-1.8-1.3-2.9c0-0.8,0.2-1.5,0.7-2.2
	c0.5-0.7,1.1-1.2,2-1.6s2.2-0.6,3.7-0.6c1.9,0,3.4,0.4,4.5,1.1s1.6,1.9,1.8,3.5l-4.4,0.3c-0.1-0.7-0.4-1.2-0.7-1.5
	c-0.4-0.3-0.9-0.5-1.6-0.5c-0.5,0-1,0.1-1.2,0.3c-0.3,0.2-0.4,0.5-0.4,0.8c0,0.2,0.1,0.5,0.3,0.7c0.2,0.2,0.7,0.4,1.6,0.6
	c2.1,0.4,3.5,0.9,4.4,1.3c0.9,0.5,1.5,1,1.9,1.7c0.4,0.7,0.6,1.4,0.6,2.3C58.2,51.6,57.9,52.5,57.3,53.4z M75.7,55.6h-4.7v-6.2h-5.1
	v6.2h-4.7V40.4h4.7v5.3h5.1v-5.3h4.7V55.6z"/>
</svg>
