<?xml version="1.0" encoding="utf-8"?>
<!-- Generator: Adobe Illustrator 17.0.0, SVG Export Plug-In . SVG Version: 6.00 Build 0)  -->
<!DOCTYPE svg PUBLIC "-//W3C//DTD SVG 1.1//EN" "http://www.w3.org/Graphics/SVG/1.1/DTD/svg11.dtd">
<svg version="1.1" id="Layer_1" xmlns="http://www.w3.org/2000/svg" xmlns:xlink="http://www.w3.org/1999/xlink" x="0px" y="0px"
	 width="96px" height="96px" viewBox="0 0 96 96" enable-background="new 0 0 96 96" xml:space="preserve">
<path d="M16,76V24.7c-4.7,1.6-8,6.1-8,11.3v40c0,6.6,5.4,12,12,12h40c5.2,0,9.7-3.3,11.3-8H20C17.8,80,16,78.2,16,76z M76,8H36
	c-6.6,0-12,5.4-12,12v40c0,6.6,5.4,12,12,12h40c6.6,0,12-5.4,12-12V20C88,13.4,82.6,8,76,8z M80,60c0,2.2-1.8,4-4,4H36
	c-2.2,0-4-1.8-4-4V20c0-2.2,1.8-4,4-4h40c2.2,0,4,1.8,4,4V60z"/>
</svg>
