<?xml version="1.0" encoding="utf-8"?>
<!-- Generator: Adobe Illustrator 17.0.0, SVG Export Plug-In . SVG Version: 6.00 Build 0)  -->
<!DOCTYPE svg PUBLIC "-//W3C//DTD SVG 1.1//EN" "http://www.w3.org/Graphics/SVG/1.1/DTD/svg11.dtd">
<svg version="1.1" id="Layer_1" xmlns="http://www.w3.org/2000/svg" xmlns:xlink="http://www.w3.org/1999/xlink" x="0px" y="0px"
	 width="96px" height="96px" viewBox="0 0 96 96" enable-background="new 0 0 96 96" xml:space="preserve">
<path d="M80,4H44c-6.6,0-12,5.4-12,12v16H16C9.4,32,4,37.4,4,44v36c0,6.6,5.4,12,12,12h36c6.6,0,12-5.4,12-12V64h16
	c6.6,0,12-5.4,12-12V16C92,9.4,86.6,4,80,4z M56,80c0,2.2-1.8,4-4,4H16c-2.2,0-4-1.8-4-4V44c0-2.2,1.8-4,4-4h16v12
	c0,6.6,5.4,12,12,12h12V80z M84,52c0,2.2-1.8,4-4,4H44c-2.2,0-4-1.8-4-4V16c0-2.2,1.8-4,4-4h36c2.2,0,4,1.8,4,4V52z"/>
</svg>
