<?xml version="1.0" encoding="utf-8"?>
<!-- Generator: Adobe Illustrator 22.0.0, SVG Export Plug-In . SVG Version: 6.00 Build 0)  -->
<svg version="1.1" id="图层_1" xmlns="http://www.w3.org/2000/svg" xmlns:xlink="http://www.w3.org/1999/xlink" x="0px" y="0px"
	 viewBox="0 0 90 90" style="enable-background:new 0 0 90 90;" xml:space="preserve">
<path d="M67.9,87.2c-1.1,0-2.1-0.3-3.3-0.9L46.8,77c-0.4-0.3-1.1-0.4-1.8-0.4c-0.6,0-1.3,0.2-1.8,0.4l-17.7,9.4
	c-1.1,0.6-2.1,0.9-3.3,0.9c-2.1,0-4.1-1-5.5-2.6c-1.4-1.6-1.9-3.7-1.6-5.8l3.4-19.7c0.2-1.2-0.3-2.5-1.1-3.3L3.2,42
	c-2-1.9-2.7-4.7-1.8-7.4c0.9-2.6,3.1-4.5,5.8-4.9l19.7-2.9c1.2-0.2,2.4-1,2.9-2l8.8-17.9c1.2-2.5,3.7-4,6.4-4c2.7,0,5.2,1.5,6.4,4
	l8.8,17.9c0.6,1.1,1.7,1.8,2.9,2l19.7,2.9c2.7,0.4,4.9,2.3,5.8,4.8c0.9,2.6,0.2,5.5-1.8,7.4L72.7,55.8c-1,0.9-1.3,2.1-1.1,3.3
	l3.3,19.6c0.4,2.1-0.2,4.2-1.6,5.8C72,86.2,70,87.2,67.9,87.2z"/>
</svg>
