<?xml version="1.0" encoding="utf-8"?>
<!-- Generator: Adobe Illustrator 17.0.0, SVG Export Plug-In . SVG Version: 6.00 Build 0)  -->
<!DOCTYPE svg PUBLIC "-//W3C//DTD SVG 1.1//EN" "http://www.w3.org/Graphics/SVG/1.1/DTD/svg11.dtd">
<svg version="1.1" id="Layer_1" xmlns="http://www.w3.org/2000/svg" xmlns:xlink="http://www.w3.org/1999/xlink" x="0px" y="0px"
	 width="96px" height="96px" viewBox="0 0 96 96" enable-background="new 0 0 96 96" xml:space="preserve">
<g>
	<path d="M86.8,45.2l-16-20c-1.6-1.6-4.1-1.6-5.7,0c-1.6,1.6-1.6,4.1,0,5.7L78.3,48L65.2,64c-1.6,1.6-1.6,4.1,0,5.7
		c0.8,0.8,1.8,1.2,2.8,1.2c1,0,2-0.4,2.8-1.2l16-18.8C88.4,49.3,88.4,46.7,86.8,45.2z"/>
	<path d="M24,44h-8c-2.2,0-4,1.8-4,4s1.8,4,4,4h8c2.2,0,4-1.8,4-4S26.2,44,24,44z"/>
	<path d="M44,44h-8c-2.2,0-4,1.8-4,4s1.8,4,4,4h8c2.2,0,4-1.8,4-4S46.2,44,44,44z"/>
	<path d="M68,48c0-2.2-1.8-4-4-4h-8c-2.2,0-4,1.8-4,4s1.8,4,4,4h8C66.2,52,68,50.2,68,48z"/>
</g>
</svg>
