<?xml version="1.0" encoding="utf-8"?>
<!-- Generator: Adobe Illustrator 22.1.0, SVG Export Plug-In . SVG Version: 6.00 Build 0)  -->
<svg version="1.1" id="Layer_1" xmlns="http://www.w3.org/2000/svg" xmlns:xlink="http://www.w3.org/1999/xlink" x="0px" y="0px"
	 viewBox="0 0 96 96" style="enable-background:new 0 0 96 96;" xml:space="preserve">
<g>
	<path d="M89.2,67.8c0-2.9-2.3-5.2-5.2-5.2c-2.9,0-5.2,2.3-5.2,5.2v10.7H17.2V67.8c0-2.9-2.3-5.2-5.2-5.2s-5.2,2.3-5.2,5.2v15.9
		c0,0,0,0,0,0c0,2.9,2.3,5.2,5.2,5.2h72c2.9,0,5.2-2.3,5.2-5.2c0-0.1,0-0.1,0-0.2V67.8z"/>
	<path d="M18,47.4c6.3,0,11.7-3.9,13.9-9.4c0.2-0.4,0.6-0.7,1.1-0.7c0.5,0,0.9,0.3,1.1,0.7c2.2,5.5,7.6,9.4,13.9,9.4
		c6.3,0,11.7-3.9,13.9-9.4c0.2-0.4,0.6-0.7,1.1-0.7c0.5,0,0.9,0.3,1.1,0.7c2.2,5.5,7.6,9.4,13.9,9.4c8.2,0,14.9-6.6,15-14.8
		c0-0.1,0-0.2,0-0.3l-5.1-20.1c-0.7-2.6-2.2-5-5-5H13.2c-2.7,0-4.3,2.3-5,5L3,31.8c0,0.1,0,0.2,0,0.3v0.2h0C3,40.7,9.7,47.4,18,47.4
		z"/>
</g>
</svg>
