<svg xmlns="http://www.w3.org/2000/svg" width="24" height="24" viewBox="0 0 24 24">
  <path fill="#231815" fill-rule="evenodd" d="M21,2 C21.5522847,2 22,2.44771525 22,3 L22,21 C22,21.5522847 21.5522847,22 21,22 L3,22 C2.44771525,22 2,21.5522847 2,21 L2,3 C2,2.44771525 2.44771525,2 3,2 L21,2 Z M10.3702962,5.38907095 L8.71224965,5.38907095 L8.71224965,6.21100854 L5.8779821,6.21100854 L5.8779821,7.698999 L8.71224965,7.698999 L8.71224965,8.60596462 L9.94515603,8.60596462 C9.860128,8.83270602 9.76092864,9.04527608 9.66172928,9.25784615 L5.92049612,9.25784615 L5.92049612,10.7458366 L8.79727767,10.7458366 C7.9044834,12.0354283 6.72826237,13.0982787 5.36781395,13.8351882 C5.70792605,14.161129 6.26060822,14.8696959 6.45900695,15.2239793 C6.94083243,14.9405526 7.3801439,14.6004405 7.81945537,14.2319857 L7.81945537,18.610929 L9.42081653,18.610929 L9.42081653,12.5881105 C9.88847068,12.0354283 10.3136108,11.3977181 10.6962369,10.7458366 L18.419616,10.7458366 L18.419616,9.25784615 L11.4614892,9.25784615 C11.5890312,8.9744194 11.6882306,8.6768213 11.8016013,8.39339455 L10.3702962,8.03911111 L10.3702962,7.698999 L14.0831866,7.698999 L14.0831866,8.60596462 L15.7412332,8.60596462 L15.7412332,7.698999 L18.504644,7.698999 L18.504644,6.21100854 L15.7412332,6.21100854 L15.7412332,5.38907095 L14.0831866,5.38907095 L14.0831866,6.21100854 L10.3702962,6.21100854 L10.3702962,5.38907095 Z M16.7757408,11.4544035 L16.4498,11.5394315 L11.2347478,11.5394315 L11.2347478,12.8431946 L14.9051242,12.8431946 C14.5366695,13.11245 14.1257007,13.3675341 13.7572459,13.5659328 L13.7572459,14.2744997 L10.1293834,14.2744997 L10.1293834,15.6916335 L13.7572459,15.6916335 L13.7572459,16.9670539 C13.7572459,17.1371099 13.6863892,17.1796239 13.5021618,17.1937953 L13.1926173,17.19303 C12.8721041,17.1912444 12.3939632,17.1852925 11.957486,17.1654526 C12.1558847,17.5764214 12.3967975,18.1574462 12.4676541,18.5825864 C13.4454764,18.5825864 14.1682147,18.5825864 14.6925542,18.355845 C15.2452363,18.1291036 15.3869497,17.7606488 15.3869497,17.0237392 L15.3869497,15.6916335 L18.6321861,15.6916335 L18.6321861,14.2744997 L15.3869497,14.2744997 L15.3869497,14.0194156 C16.23723,13.5092475 17.0875102,12.8715373 17.7535631,12.2479984 L16.7757408,11.4544035 Z"/>
</svg>
