<?xml version="1.0" encoding="utf-8"?>
<!-- Generator: Adobe Illustrator 17.0.0, SVG Export Plug-In . SVG Version: 6.00 Build 0)  -->
<!DOCTYPE svg PUBLIC "-//W3C//DTD SVG 1.1//EN" "http://www.w3.org/Graphics/SVG/1.1/DTD/svg11.dtd">
<svg version="1.1" id="Layer_1" xmlns="http://www.w3.org/2000/svg" xmlns:xlink="http://www.w3.org/1999/xlink" x="0px" y="0px"
	 width="96px" height="96px" viewBox="0 0 96 96" enable-background="new 0 0 96 96" xml:space="preserve">
<path d="M52,4v8c0,2.2-1.8,4-4,4s-4-1.8-4-4V4c0-2.2,1.8-4,4-4S52,1.8,52,4z M48,80c-2.2,0-4,1.8-4,4v8c0,2.2,1.8,4,4,4s4-1.8,4-4
	v-8C52,81.8,50.2,80,48,80z M14.1,14.1c-1.6,1.6-1.6,4.1,0,5.7l5.7,5.7c1.6,1.6,4.1,1.6,5.7,0c1.6-1.6,1.6-4.1,0-5.7l-5.7-5.7
	C18.2,12.5,15.6,12.5,14.1,14.1z M70.6,70.6c-1.6,1.6-1.6,4.1,0,5.7l5.7,5.7c1.6,1.6,4.1,1.6,5.7,0c1.6-1.6,1.6-4.1,0-5.7l-5.7-5.7
	C74.7,69.1,72.2,69.1,70.6,70.6z M0,48c0,2.2,1.8,4,4,4h8c2.2,0,4-1.8,4-4s-1.8-4-4-4H4C1.8,44,0,45.8,0,48z M80,48c0,2.2,1.8,4,4,4
	h8c2.2,0,4-1.8,4-4s-1.8-4-4-4h-8C81.8,44,80,45.8,80,48z M14.1,81.9c1.6,1.6,4.1,1.6,5.7,0l5.7-5.7c1.6-1.6,1.6-4.1,0-5.7
	c-1.6-1.6-4.1-1.6-5.7,0l-5.7,5.7C12.5,77.8,12.5,80.4,14.1,81.9z M70.6,25.4c1.6,1.6,4.1,1.6,5.7,0l5.7-5.7c1.6-1.6,1.6-4.1,0-5.7
	c-1.6-1.6-4.1-1.6-5.7,0l-5.7,5.7C69.1,21.3,69.1,23.8,70.6,25.4z M72,48c0,13.3-10.7,24-24,24S24,61.3,24,48s10.7-24,24-24
	S72,34.7,72,48z M64,48c0-8.8-7.2-16-16-16s-16,7.2-16,16s7.2,16,16,16S64,56.8,64,48z"/>
</svg>
