<?xml version="1.0" encoding="utf-8"?>
<!-- Generator: Adobe Illustrator 21.0.0, SVG Export Plug-In . SVG Version: 6.00 Build 0)  -->
<svg version="1.1" id="Layer_1" xmlns="http://www.w3.org/2000/svg" xmlns:xlink="http://www.w3.org/1999/xlink" x="0px" y="0px"
	 viewBox="0 0 96 96" style="enable-background:new 0 0 96 96;" xml:space="preserve">
<g>
	<polygon points="59.3,82.5 61.5,84.8 61.5,82.5 	"/>
	<polygon points="38.3,61.2 44.8,61.2 44.8,51 28.3,51 	"/>
	<polygon points="11.2,33.6 11.2,11.2 34.8,11.2 34.8,34.8 12.3,34.8 20.4,43 43,43 43,3 3,3 3,25.3 	"/>
	<polygon points="78.2,76.3 78.2,51 59.3,51 59.3,59.4 51.2,59.4 51.2,74.3 55,78.2 61.5,78.2 61.5,67.9 67.8,67.9 67.8,76.3 	"/>
	<path d="M93,11.4V3h-8.4v8.2h-8.4V3h-23v16.6h8v-8.4h15v14.7H61.5v8.6h-8.2v8.2h8.2v-6.3h8.3v6.3h15v-8.5H93V19.6H85v-8.3H93z
		 M84.6,34.3h-8.4v-7.6h8.4V34.3z"/>
	<rect x="82.7" y="51" width="10.3" height="10.3"/>
	<rect x="16.9" y="18" width="11.2" height="11.2"/>
	<polygon points="84.5,84.7 76.1,84.7 76.1,93.1 93,93.1 93,76.3 84.5,76.3 	"/>
</g>
</svg>
