<?xml version="1.0" encoding="utf-8"?>
<!-- Generator: Adobe Illustrator 17.0.0, SVG Export Plug-In . SVG Version: 6.00 Build 0)  -->
<!DOCTYPE svg PUBLIC "-//W3C//DTD SVG 1.1//EN" "http://www.w3.org/Graphics/SVG/1.1/DTD/svg11.dtd">
<svg version="1.1" id="Layer_1" xmlns="http://www.w3.org/2000/svg" xmlns:xlink="http://www.w3.org/1999/xlink" x="0px" y="0px"
	 width="96px" height="96px" viewBox="0 0 96 96" enable-background="new 0 0 96 96" xml:space="preserve">
<path d="M45.9,12l36.9,36.9c1,1,1.2,2.2,1.2,2.8c0,0.6-0.2,1.8-1.2,2.8L54.5,82.8c-1,1-2.2,1.2-2.8,1.2c-0.6,0-1.8-0.2-2.8-1.2
	L12,45.9V12H45.9 M49.3,4H4v45.3l39.2,39.2c2.3,2.3,5.4,3.5,8.5,3.5c3.1,0,6.1-1.2,8.5-3.5l28.3-28.3c4.7-4.7,4.7-12.3,0-17L49.3,4
	L49.3,4z M34,24c-5.5,0-10,4.5-10,10s4.5,10,10,10c5.5,0,10-4.5,10-10S39.5,24,34,24z M34,36c-1.1,0-2-0.9-2-2s0.9-2,2-2s2,0.9,2,2
	S35.1,36,34,36z"/>
</svg>
