<?xml version="1.0" encoding="utf-8"?>
<!-- Generator: Adobe Illustrator 21.0.0, SVG Export Plug-In . SVG Version: 6.00 Build 0)  -->
<svg version="1.1" id="Layer_1" xmlns="http://www.w3.org/2000/svg" xmlns:xlink="http://www.w3.org/1999/xlink" x="0px" y="0px"
	 viewBox="0 0 96 96" style="enable-background:new 0 0 96 96;" xml:space="preserve">
<g>
	<path d="M72.4,89.9L72.4,89.9c-1.2,0-2.3-0.1-3.4-0.4c-1.4-0.3-2.9-0.7-4.2-1.3C39.2,76.5,20.3,57.5,8.4,32.1
		c-2.3-5.5-2.7-13.4,2-18.1L15.4,9c2.1-2.1,5-3.2,8-3.1c3,0.1,5.8,1.5,7.7,3.8l7.2,8.8c3.7,4.5,3.4,10.9-0.7,15l-2.8,2.8
		C42.2,46.8,50,54.6,60.4,61.9l2.8-2.8c4.1-4.1,10.6-4.4,15-0.7l8.8,7.2c2.3,1.9,3.7,4.7,3.8,7.7c0.1,3-1,5.9-3.1,8l-4,4
		c-0.9,0.9-2.4,0.9-3.4,0c-0.9-0.9-0.9-2.4,0-3.4l3.9-4c1.2-1.2,1.8-2.8,1.7-4.4c-0.1-1.6-0.9-3.2-2.1-4.2l-8.8-7.2
		c-2.5-2.1-6.3-1.9-8.6,0.4l-4.2,4.2c-0.8,0.8-2.1,0.9-3,0.3C47,58.6,38.2,49.7,29.8,37.4c-0.6-0.9-0.5-2.2,0.3-3l4.2-4.2
		c2.3-2.3,2.5-6.1,0.4-8.6l-7.2-8.8c-1-1.3-2.6-2-4.2-2.1c-1.7-0.1-3.2,0.5-4.4,1.7l-5,4.9c-3.3,3.4-2.5,9.5-1,12.8
		C24.3,54.8,41.9,72.5,66.7,84c1.8,0.7,3.8,1.1,5.7,1.2c1.3,0.1,2.3,1.1,2.2,2.4C74.6,88.9,73.6,89.9,72.4,89.9L72.4,89.9z"/>
</g>
</svg>
