<?xml version="1.0" encoding="utf-8"?>
<!-- Generator: Adobe Illustrator 22.1.0, SVG Export Plug-In . SVG Version: 6.00 Build 0)  -->
<svg version="1.1" id="Layer_1" xmlns="http://www.w3.org/2000/svg" xmlns:xlink="http://www.w3.org/1999/xlink" x="0px" y="0px"
	 viewBox="0 0 96 96" style="enable-background:new 0 0 96 96;" xml:space="preserve">
<g>
	<path d="M84.8,24.5l-35-20.2c-1.2-0.6-2.6-0.6-3.8,0.1L11,24.6c-1.1,0.6-1.9,1.8-1.9,3.2v40.4c0,1.3,0.8,2.5,1.9,3.3l35.1,20.2
		c1.1,0.7,2.6,0.7,3.8,0l35-20.2c1.1-0.7,1.9-1.9,1.9-3.3V27.8C86.8,26.4,85.9,25.1,84.8,24.5z M79.2,66.1L47.9,84.2L16.6,66.1V30
		l31.2-18.1L79.1,30v36.1H79.2z"/>
</g>
<path d="M32,66c-2.2,0-4-1.8-4-4v-6c0-2.2,1.8-4,4-4s4,1.8,4,4v6C36,64.2,34.2,66,32,66z"/>
<path d="M48,66c-2.2,0-4-1.8-4-4v-8c0-2.2,1.8-4,4-4s4,1.8,4,4v8C52,64.2,50.2,66,48,66z"/>
<path d="M64,66c-2.2,0-4-1.8-4-4V48c0-2.2,1.8-4,4-4s4,1.8,4,4v14C68,64.2,66.2,66,64,66z"/>
<path d="M35.7,46c-3.1,0-5.2-0.3-5.5-0.3c-1.9-0.3-3.2-2-3-4c0.3-1.9,2-3.2,4-3l0,0c0.2,0,15.1,2,23.3-5.7l-2.8-1.2
	c-1.8-0.8-2.6-2.8-1.9-4.6c0.8-1.8,2.8-2.6,4.6-1.9l7.1,3c0.9,0.4,1.7,1.2,2,2.2c0.3,1,0.2,2-0.4,2.9C56.4,44.3,43.2,46,35.7,46z"/>
</svg>
