<?xml version="1.0" encoding="utf-8"?>
<!-- Generator: Adobe Illustrator 17.0.0, SVG Export Plug-In . SVG Version: 6.00 Build 0)  -->
<!DOCTYPE svg PUBLIC "-//W3C//DTD SVG 1.1//EN" "http://www.w3.org/Graphics/SVG/1.1/DTD/svg11.dtd">
<svg version="1.1" id="Layer_1" xmlns="http://www.w3.org/2000/svg" xmlns:xlink="http://www.w3.org/1999/xlink" x="0px" y="0px"
	 width="96px" height="96px" viewBox="0 0 96 96" enable-background="new 0 0 96 96" xml:space="preserve">
<path d="M60,57V14c0-7.7-6.3-14-14-14S32,6.3,32,14v43c-4.9,4-8,10.1-8,17c0,12.2,9.8,22,22,22s22-9.8,22-22
	C68,67.2,64.9,61.1,60,57z M46,88c-7.7,0-14-6.3-14-14c0-5.6,3.3-10.4,8-12.6V14c0-3.3,2.7-6,6-6s6,2.7,6,6v47.4
	c4.7,2.2,8,7.1,8,12.6C60,81.7,53.7,88,46,88z"/>
</svg>
