<?xml version="1.0" encoding="utf-8"?>
<!-- Generator: Adobe Illustrator 21.0.0, SVG Export Plug-In . SVG Version: 6.00 Build 0)  -->
<svg version="1.1" id="Layer_1" xmlns="http://www.w3.org/2000/svg" xmlns:xlink="http://www.w3.org/1999/xlink" x="0px" y="0px"
	 viewBox="0 0 96 96" style="enable-background:new 0 0 96 96;" xml:space="preserve">
<g>
	<path d="M84.7,24.7l-35-20.2c-1.2-0.6-2.6-0.6-3.8,0.1L10.9,24.8C9.8,25.4,9,26.6,9,28v40.4c0,1.3,0.8,2.5,1.9,3.3L46,91.9
		c1.1,0.7,2.6,0.7,3.8,0l35-20.2c1.1-0.7,1.9-1.9,1.9-3.3V28C86.6,26.6,85.8,25.3,84.7,24.7z M79.1,66.3L47.8,84.4L16.5,66.3V30.2
		l31.2-18.1l31.3,18.1V66.3z"/>
	<polygon points="23.5,44.5 36.7,36.8 36,69.8 46,75.2 46.2,32.3 58.7,25.5 48.3,19.8 23.5,33.5 	"/>
	<polygon points="51.7,75.2 62,70.3 62,28 51.7,33.5 	"/>
</g>
</svg>
