<?xml version="1.0" encoding="utf-8"?>
<!-- Generator: Adobe Illustrator 17.0.0, SVG Export Plug-In . SVG Version: 6.00 Build 0)  -->
<!DOCTYPE svg PUBLIC "-//W3C//DTD SVG 1.1//EN" "http://www.w3.org/Graphics/SVG/1.1/DTD/svg11.dtd">
<svg version="1.1" id="Layer_1" xmlns="http://www.w3.org/2000/svg" xmlns:xlink="http://www.w3.org/1999/xlink" x="0px" y="0px"
	 width="96px" height="96px" viewBox="0 0 96 96" enable-background="new 0 0 96 96" xml:space="preserve">
<path d="M64,16H32C14.3,16,0,30.3,0,48s14.3,32,32,32h32c17.7,0,32-14.3,32-32S81.7,16,64,16z M64,72H32C18.7,72,8,61.3,8,48
	s10.7-24,24-24h32c13.3,0,24,10.7,24,24S77.3,72,64,72z M32,32c-8.8,0-16,7.2-16,16s7.2,16,16,16s16-7.2,16-16S40.8,32,32,32z
	 M32,56c-4.4,0-8-3.6-8-8s3.6-8,8-8s8,3.6,8,8S36.4,56,32,56z"/>
</svg>
