<?xml version="1.0" encoding="utf-8"?>
<!-- Generator: Adobe Illustrator 17.0.0, SVG Export Plug-In . SVG Version: 6.00 Build 0)  -->
<!DOCTYPE svg PUBLIC "-//W3C//DTD SVG 1.1//EN" "http://www.w3.org/Graphics/SVG/1.1/DTD/svg11.dtd">
<svg version="1.1" id="Layer_1" xmlns="http://www.w3.org/2000/svg" xmlns:xlink="http://www.w3.org/1999/xlink" x="0px" y="0px"
	 width="96px" height="96px" viewBox="0 0 96 96" enable-background="new 0 0 96 96" xml:space="preserve">
<path d="M84,22H68v-4c0-6.6-5.4-12-12-12H40c-6.6,0-12,5.4-12,12v4H12c-2.2,0-4,1.8-4,4s1.8,4,4,4h4v48c0,6.6,5.4,12,12,12h40
	c6.6,0,12-5.4,12-12V30h4c2.2,0,4-1.8,4-4S86.2,22,84,22z M36,18c0-2.2,1.8-4,4-4h16c2.2,0,4,1.8,4,4v4H36V18z M72,78
	c0,2.2-1.8,4-4,4H28c-2.2,0-4-1.8-4-4V30h48V78z"/>
</svg>
