<?xml version="1.0" encoding="utf-8"?>
<!-- Generator: Adobe Illustrator 17.0.0, SVG Export Plug-In . SVG Version: 6.00 Build 0)  -->
<!DOCTYPE svg PUBLIC "-//W3C//DTD SVG 1.1//EN" "http://www.w3.org/Graphics/SVG/1.1/DTD/svg11.dtd">
<svg version="1.1" id="Layer_1" xmlns="http://www.w3.org/2000/svg" xmlns:xlink="http://www.w3.org/1999/xlink" x="0px" y="0px"
	 width="96px" height="96px" viewBox="0 0 96 96" enable-background="new 0 0 96 96" xml:space="preserve">
<path d="M89.909,74.24l0.007-0.012L52.832,9.831h-0.02c-0.828-1.607-2.484-2.717-4.416-2.717s-3.588,1.111-4.416,2.717h-0.02
	L6.828,74.272c-0.191,0.267-0.356,0.552-0.492,0.854l-0.035,0.06l0.001,0.002c-0.261,0.605-0.409,1.271-0.409,1.973
	c0,2.754,2.232,4.986,4.986,4.986l74.363-0.046l0.011-0.018c0.209,0.027,0.416,0.064,0.632,0.064c2.754,0,4.986-2.232,4.986-4.986
	C90.87,76.066,90.507,75.063,89.909,74.24z M45.44,31.917c0-2.209,1.791-4,4-4c2.209,0,4,1.791,4,4l0,26.471c0,2.209-1.791,4-4,4
	c-2.209,0-4-1.791-4-4L45.44,31.917z M49.523,74.221c-2.347,0-4.25-1.903-4.25-4.25s1.903-4.25,4.25-4.25
	c2.347,0,4.25,1.903,4.25,4.25S51.87,74.221,49.523,74.221z"/>
</svg>
