<?xml version="1.0" encoding="utf-8"?>
<!-- Generator: Adobe Illustrator 17.0.0, SVG Export Plug-In . SVG Version: 6.00 Build 0)  -->
<!DOCTYPE svg PUBLIC "-//W3C//DTD SVG 1.1//EN" "http://www.w3.org/Graphics/SVG/1.1/DTD/svg11.dtd">
<svg version="1.1" id="Layer_1" xmlns="http://www.w3.org/2000/svg" xmlns:xlink="http://www.w3.org/1999/xlink" x="0px" y="0px"
	 width="96px" height="96px" viewBox="0 0 96 96" enable-background="new 0 0 96 96" xml:space="preserve">
<path d="M89.909,74.24l0.007-0.012L52.832,9.831h-0.02c-0.828-1.607-2.484-2.717-4.416-2.717s-3.588,1.111-4.416,2.717h-0.02
	L6.828,74.272c-0.191,0.267-0.356,0.552-0.492,0.854l-0.035,0.06l0.001,0.002c-0.261,0.605-0.409,1.271-0.409,1.973
	c0,2.754,2.232,4.986,4.986,4.986l74.363-0.046l0.011-0.018c0.209,0.027,0.416,0.064,0.632,0.064c2.754,0,4.986-2.232,4.986-4.986
	C90.87,76.066,90.507,75.063,89.909,74.24z M49.537,75.867c-1.762,0-3.19-1.428-3.19-3.19c0-1.762,1.428-3.19,3.19-3.19
	c1.762,0,3.19,1.428,3.19,3.19C52.726,74.439,51.298,75.867,49.537,75.867z M57.558,49.859c-0.997,1.113-1.96,1.969-2.733,2.657
	c-1.58,1.403-1.963,1.823-2.1,2.72c-0.174,1.133-0.365,5.64-0.444,8.216c-0.05,1.626-1.384,2.909-2.999,2.909
	c-0.031,0-0.063-0.001-0.095-0.001c-1.657-0.051-2.958-1.436-2.907-3.094c0.037-1.172,0.232-7.115,0.51-8.938
	c0.48-3.13,2.293-4.741,4.047-6.3c0.728-0.647,1.48-1.316,2.247-2.173c0.776-0.868,1.28-2.901,0.74-4.673
	c-0.525-1.723-1.901-2.879-4.088-3.434c-1.706-0.433-3.068-0.31-4.166,0.377c-1.833,1.145-2.72,3.741-2.907,4.645
	c-0.335,1.617-1.913,2.668-3.533,2.344c-1.619-0.325-2.672-1.886-2.358-3.506c0.114-0.585,1.236-5.797,5.56-8.538
	c2.501-1.585,5.572-1.978,8.881-1.139c4.24,1.077,7.206,3.74,8.354,7.501C60.663,43.025,59.837,47.312,57.558,49.859z"/>
</svg>
