<?xml version="1.0" encoding="utf-8"?>
<!-- Generator: Adobe Illustrator 21.0.0, SVG Export Plug-In . SVG Version: 6.00 Build 0)  -->
<svg version="1.1" id="Layer_1" xmlns="http://www.w3.org/2000/svg" xmlns:xlink="http://www.w3.org/1999/xlink" x="0px" y="0px"
	 viewBox="0 0 96 96" style="enable-background:new 0 0 96 96;" xml:space="preserve">
<g>
	<path d="M86.1,71c-1.8-2.1-4.6-3.4-7.5-3.4c-2.3,0-4.5,0.8-6.4,2.3l-3.3-2.8c2.6-4.1,4-8.9,4-13.7c0-6.7-2.6-13-7.3-17.9
		c-4.1-4.3-9.5-6.9-15.3-7.6v-3c4-1.3,7-5.1,7-9.6c0-5.5-4.5-10-10-10c-5.5,0-10,4.5-10,10c0,4.4,2.9,8.3,7,9.6v3
		c-12.8,1.7-22.6,12.4-22.6,25.4c0,4.9,1.4,9.6,4,13.7l-3.2,2.7c-1.8-1.5-4-2.3-6.4-2.3c-5.5,0-10,4.5-10,10c0,5.5,4.5,10,10,10
		c5.5,0,10-4.5,10-10c0-0.9-0.1-1.7-0.3-2.6l3.7-3.1c4.8,4.5,11.1,7.1,17.6,7.1c6.6,0,12.9-2.6,17.6-7.1l3.8,3.1
		c-0.2,0.8-0.4,1.7-0.4,2.6c0,5.5,4.5,10,10,10c5.5,0,9.9-4.4,10.1-9.9C88.5,75.3,87.8,72.9,86.1,71z M16,83c-2.9,0-5.4-2.5-5.4-5.4
		c0-2.9,2.5-5.4,5.4-5.4c1.7,0,3.3,0.8,4.5,2.3l0.1,0.1l0.4,0.8c0.4,0.7,0.5,1.4,0.5,2.3C21.5,80.5,19,83,16,83z M41.9,15.5
		c0-2.9,2.5-5.4,5.4-5.4c2.9,0,5.4,2.5,5.4,5.4c0,2.8-2.2,5.1-4.9,5.4l-0.5,0l-0.5,0C44,20.7,41.9,18.3,41.9,15.5z M64.5,65.7
		l-0.1-0.1l-1.5,1.7c-4,4.5-9.8,7.1-15.8,7.1c-6,0-11.8-2.6-15.8-7.1l-0.5-0.6l-0.3-0.4c-2.8-3.7-4.3-8.2-4.3-12.8
		c0-11.3,9-20.5,20.4-21h0.5l0.8,0c5.5,0.1,10.6,2.4,14.4,6.3c3.9,4,6,9.2,6,14.7C68.3,57.9,67,62.1,64.5,65.7z M83.6,77.3v0.3
		c0,2.9-2.5,5.4-5.4,5.4c-2.9,0-5.4-2.5-5.4-5.4c0-0.6,0.1-1.1,0.3-1.7l1-1.3c1.1-1.4,2.8-2.3,4.5-2.3c1.6,0,3.1,0.6,4.1,1.7
		C83.4,75,83.7,76.1,83.6,77.3z"/>
	<path d="M47.7,38.8c-4.6,0-8.6,2-11.2,5.3c0,0.2,0,1.3,0.6,2c0.4,0.4,1.7,0.6,1.7,0.6c2-2.8,5.1-4.4,8.8-4.4
		c6.2,0,11.2,5.1,11.2,11.4c0,6.2-5,11.4-11.2,11.4c-5.1,0-9.6-3.7-10.8-8.6h4.8l-2.9-3.3l-3.5-4l-5.9,7.2h4.2
		c1.1,6.8,7.2,11.9,14.1,11.9c8.1,0,14.5-6.6,14.7-14.7C62.2,45.4,55.7,38.8,47.7,38.8z"/>
</g>
</svg>
