<?xml version="1.0" encoding="utf-8"?>
<!-- Generator: Adobe Illustrator 21.0.0, SVG Export Plug-In . SVG Version: 6.00 Build 0)  -->
<svg version="1.1" id="Layer_1" xmlns="http://www.w3.org/2000/svg" xmlns:xlink="http://www.w3.org/1999/xlink" x="0px" y="0px"
	 viewBox="0 0 96 96" style="enable-background:new 0 0 96 96;" xml:space="preserve">
<style type="text/css">
	.st0{fill:#190A0A;}
</style>
<g>
	<path class="st0" d="M89.5,38.1c0.3-3.2-0.8-7-3-10.4c-3-4.4-7.4-7.4-12.5-8.5c-2.3-4.7-7.9-8.8-18-8.2C52.5,8,48.2,8.3,45.5,9.2
		c-2-0.4-6.5-0.8-10.9,1.7c-3.9-0.9-7.9,1.4-9.9,2.7c-3.1-0.2-7.7,1.1-10.7,7.1c-2.9,1.7-4.6,3.9-7,9.3C7,30.1,7,30.2,6.9,30.4
		c-1.2,2.3-5,9.3,1.8,18.3c3.8,5,10,6,13.9,6c0,3.1,1.1,5.6,3,7.5c3.7,3.7,9.7,3.6,12.9,3.3c2.1,2.8,7,7.9,15.7,9.2
		c1.4,1.4,2.8,2.5,4.3,3.4l-0.1,0.4c0.1,0,8.2,2.9,11.3,11.3l5.6-2.1c-1.1-3.1-2.8-5.6-4.6-7.6c0.7-0.2,1.4-0.4,2.1-0.8
		C79.2,76.4,84,69,84.4,61.9c3.4-1.4,6.2-4.5,7.5-8.5C93.7,48.1,92.7,42.2,89.5,38.1z M86.2,51.5c-0.5,1.4-1.9,4.7-5.4,5.3L78,57.2
		l0.3,2.8c0.6,5.2-3.2,11.6-8,13.8c-4.1,1.9-8.4,0.5-12.5-4L57.1,69l-1.1-0.1c-9.4-1-13.2-7.8-13.3-8.1l-1.1-2l-2.2,0.5
		c-1.7,0.4-7.2,0.9-9.5-1.4c-1.2-1.1-1.5-3.1-0.9-5.9l0.8-4.3l-4.3,0.8c-0.1,0-8.3,1.4-11.9-3.4C9,39.1,11,35.3,12.1,33.3
		c0.2-0.3,0.3-0.6,0.4-0.8c2.5-5.4,3.4-6.1,5.2-6.9l1-0.5l0.4-1c2.2-5,5.1-4.6,5.6-4.4l1.5,0.4l1.2-1c1.4-1.1,4.6-3,6.1-2.2l1.6,0.9
		l1.5-1.1c3.8-2.6,8-1.5,8.2-1.5l1,0.3l1-0.4c0.4-0.1,3.6-1.4,5.8,1l1,1.1l1.5-0.1c8.7-0.8,12.8,2.4,13.8,5.7l0.6,1.9l1.9,0.2
		c5.6,0.7,8.7,4.2,10.1,6.2c1.9,2.9,2.3,5.7,2,7.1L83,39.8l1.2,1.2C87,44,87.2,48.4,86.2,51.5z"/>
	<path class="st0" d="M70.4,27.6c-1.7,0-3.3,0.6-4.5,1.6l-14.5-4c-0.7-3.2-3.6-5.6-7-5.6c-3.6,0-6.5,2.6-7.1,6l-10.5,6.5
		c-1.3-1.5-3.2-2.5-5.4-2.5c-4,0-7.2,3.2-7.2,7.2s3.2,7.2,7.2,7.2c1.7,0,3.2-0.6,4.4-1.6l13.4,6.9c0,0.2,0,0.3,0,0.5
		c0,4,3.2,7.2,7.2,7.2c1.2,0,2.4-0.3,3.4-0.8l9.6,4.2c-0.1,0.5-0.1,1-0.1,1.5c0,4,3.2,7.2,7.2,7.2c4,0,7.2-3.2,7.2-7.2
		c0-3.1-2-5.8-4.8-6.8l2.5-13.1c3.6-0.4,6.4-3.4,6.4-7.1C77.6,30.8,74.4,27.6,70.4,27.6z M44.4,23.6c1.8,0,3.2,1.4,3.2,3.2
		S46.2,30,44.4,30s-3.2-1.4-3.2-3.2S42.7,23.6,44.4,23.6z M21.4,40c-1.8,0-3.2-1.4-3.2-3.2s1.4-3.2,3.2-3.2s3.2,1.4,3.2,3.2
		S23.2,40,21.4,40z M28.2,39.1c0.3-0.7,0.4-1.5,0.4-2.3c0-0.4,0-0.7-0.1-1.1l9.5-5.8c0.9,1.9,2.6,3.3,4.7,3.8l1.5,9.2
		c-1.4,0.5-2.6,1.4-3.5,2.5L28.2,39.1z M46.4,53c-1.8,0-3.2-1.4-3.2-3.2c0-1.8,1.4-3.2,3.2-3.2s3.2,1.4,3.2,3.2
		C49.6,51.6,48.2,53,46.4,53z M52.8,53.1c0.5-1,0.8-2.1,0.8-3.3c0-3.4-2.3-6.2-5.4-7l-1.5-9.2c2.1-0.7,3.7-2.3,4.4-4.3l12.4,3.4
		c-0.2,0.7-0.3,1.4-0.3,2.1c0,2.8,1.7,5.3,4.1,6.5l-2.6,13.6c-1.3,0.3-2.5,1-3.5,2L52.8,53.1z M66.4,65c-1.8,0-3.2-1.4-3.2-3.2
		s1.4-3.2,3.2-3.2s3.2,1.4,3.2,3.2S68.2,65,66.4,65z M70.4,38c-1.8,0-3.2-1.4-3.2-3.2s1.4-3.2,3.2-3.2s3.2,1.4,3.2,3.2
		S72.2,38,70.4,38z"/>
</g>
</svg>
