<?xml version="1.0" encoding="utf-8"?>
<!-- Generator: Adobe Illustrator 21.0.0, SVG Export Plug-In . SVG Version: 6.00 Build 0)  -->
<svg version="1.1" id="Layer_1" xmlns="http://www.w3.org/2000/svg" xmlns:xlink="http://www.w3.org/1999/xlink" x="0px" y="0px"
	 viewBox="0 0 96 96" style="enable-background:new 0 0 96 96;" xml:space="preserve">
<style type="text/css">
	.st0{fill:#231815;}
</style>
<g>
	<path class="st0" d="M89.2,46.2L69.7,12.3c-0.6-1.1-1.8-1.8-3.1-1.8H27.4c-1.3,0-2.5,0.7-3.1,1.8L4.8,46.2c-0.6,1.1-0.6,2.5,0,3.6
		l19.6,33.9c0.6,1.1,1.8,1.8,3.1,1.8h39.1c1.3,0,2.5-0.7,3.1-1.8l19.6-33.9C89.9,48.7,89.9,47.3,89.2,46.2z M64.5,78.3h-35L12,48
		l17.5-30.3h35L82,48L64.5,78.3z"/>
	<path class="st0" d="M38.1,29.6L27.7,64.1h7.4l1.4-5.1h8.8l1.3,5.1H54L43.6,29.6H38.1z M38.4,51.9l2.6-9.2l2.4,9.2H38.4z"/>
	<rect x="56.9" y="29.6" class="st0" width="7.1" height="34.5"/>
</g>
</svg>
