<?xml version="1.0" encoding="utf-8"?>
<!-- Generator: Adobe Illustrator 22.1.0, SVG Export Plug-In . SVG Version: 6.00 Build 0)  -->
<svg version="1.1" xmlns="http://www.w3.org/2000/svg" xmlns:xlink="http://www.w3.org/1999/xlink" x="0px" y="0px"
	 viewBox="0 0 96 96" style="enable-background:new 0 0 96 96;" xml:space="preserve">
<style type="text/css">
	.st0{fill:#525252;}
</style>
<g id="Layer_1">
	<path class="st0" d="M83.5,30.3h-22c-1.1,0-2-0.9-2-2V11.7c0-4.4-3.6-8-8-8h-7.9c-4.4,0-8,3.6-8,8v16.6c0,1.1-0.9,2-2,2h-21
		c-4.4,0-8,3.6-8,8v7.6c0,4.4,3.6,8,8,8h0v26.5c0,6.6,5.4,12,12,12h47c6.6,0,12-5.4,12-12V53.9h0c4.4,0,8-3.6,8-8v-7.6
		C91.5,33.9,87.9,30.3,83.5,30.3z M75,79.9c0,2.2-1.8,4-4,4h-8.6v-12c0-2.2-1.8-4-4-4s-4,1.8-4,4v12H41.6v-12c0-2.2-1.8-4-4-4
		s-4,1.8-4,4v12H25c-2.2,0-4-1.8-4-4v-26H75V79.9z M83,44.1c0,1.1-0.9,2-2,2H15c-1.1,0-2-0.9-2-2v-4c0-1.1,0.9-2,2-2h25
		c2.2,0,4-1.8,4-4V17.2v-0.9v-2.2c0-1.1,0.9-2,2-2h3c1.1,0,2,0.9,2,2v2v1v16.9c0,2.2,1.8,4,4,4h26c1.1,0,2,0.9,2,2V44.1z"/>
</g>
<g id="图层_2">
</g>
</svg>
