<?xml version="1.0" encoding="utf-8"?>
<!-- Generator: Adobe Illustrator 21.0.0, SVG Export Plug-In . SVG Version: 6.00 Build 0)  -->
<svg version="1.1" id="Layer_1" xmlns="http://www.w3.org/2000/svg" xmlns:xlink="http://www.w3.org/1999/xlink" x="0px" y="0px"
	 viewBox="0 0 96 96" style="enable-background:new 0 0 96 96;" xml:space="preserve">
<style type="text/css">
	.st0{fill:#121519;}
</style>
<g>
	<path class="st0" d="M36.9,25.2l8.3,5.3c0.7,0.4,1.4,0.6,2.1,0.6c0.1,0,0.2,0,0.3,0s0.1,0,0.2,0c0.8,0,1.7-0.3,2.4-0.8l7.5-5.6
		c1.8-1.3,2.1-3.8,0.8-5.6c-1.3-1.8-3.8-2.1-5.6-0.8l-1.2,0.9V8.8c0-2.2-1.8-4-4-4s-4,1.8-4,4v11.3l-2.6-1.6
		c-1.9-1.2-4.3-0.6-5.5,1.2C34.5,21.5,35,24,36.9,25.2z"/>
	<path class="st0" d="M64.6,50.9C64.6,41.6,57,34,47.7,34s-16.9,7.6-16.9,16.9s7.6,16.9,16.9,16.9S64.6,60.3,64.6,50.9z M47.7,59.8
		c-4.9,0-8.9-4-8.9-8.9s4-8.9,8.9-8.9s8.9,4,8.9,8.9C56.6,55.9,52.6,59.8,47.7,59.8z"/>
	<path class="st0" d="M34.6,78.7l-1.2,0.9v-8.8c0-2.2-1.8-4-4-4s-4,1.8-4,4v9.7l-2.6-1.6c-1.9-1.2-4.3-0.6-5.5,1.2
		c-1.2,1.9-0.6,4.3,1.2,5.5l8.3,5.3c0.7,0.4,1.4,0.6,2.1,0.6c0.1,0,0.2,0,0.3,0c0.1,0,0.1,0,0.2,0c0.8,0,1.7-0.3,2.4-0.8l7.5-5.6
		c1.8-1.3,2.1-3.8,0.8-5.6C38.9,77.8,36.4,77.4,34.6,78.7z"/>
	<path class="st0" d="M76.7,79.6c-1.3-1.8-3.8-2.2-5.6-0.8l-1.2,0.9v-8.8c0-2.2-1.8-4-4-4s-4,1.8-4,4v9.7L59.3,79
		c-1.9-1.2-4.3-0.6-5.5,1.2c-1.2,1.9-0.6,4.3,1.2,5.5l8.3,5.3c0.7,0.4,1.4,0.6,2.1,0.6c0.1,0,0.2,0,0.3,0c0.1,0,0.1,0,0.2,0
		c0.8,0,1.7-0.3,2.4-0.8l7.5-5.6C77.6,83.9,78,81.4,76.7,79.6z"/>
</g>
</svg>
