<?xml version="1.0" encoding="utf-8"?>
<!-- Generator: Adobe Illustrator 22.1.0, SVG Export Plug-In . SVG Version: 6.00 Build 0)  -->
<svg version="1.1" id="Layer_1" xmlns="http://www.w3.org/2000/svg" xmlns:xlink="http://www.w3.org/1999/xlink" x="0px" y="0px"
	 viewBox="0 0 96 96" style="enable-background:new 0 0 96 96;" xml:space="preserve">
<g>
	<path d="M36.3,38H38c1.1,0,2.1,0.8,2.4,1.9l3.4,15.3c0.3,1.4-0.8,2.8-2.2,2.8h-0.1c-1.1,0-2.1-0.8-2.2-1.9l-0.3-2h-3.6l-0.3,2
		c-0.2,1.1-1.1,1.9-2.2,1.9h0c-1.5,0-2.5-1.4-2.2-2.8L34,39.9C34.2,38.8,35.2,38,36.3,38z M38.2,50.4l-1-8.7c0-0.2-0.4-0.2-0.4,0
		l-1.1,8.7H38.2z"/>
	<path d="M46.2,40.4c0-1.3,1.1-2.4,2.4-2.4h3.3c2.8,0,4.7,0.5,5.7,1.5c1,1,1.5,2.5,1.5,4.5c0,2.6-0.7,4.3-2,5
		c-1.3,0.8-2.9,1.1-4.7,1.1c-0.1,0-0.4,0-0.4,0h-0.3h-0.4c0,0-0.2,0-0.4,0v5.3c0,1.3-1.1,2.4-2.4,2.4h0c-1.3,0-2.4-1.1-2.4-2.4V40.4
		z M53.7,45.9c0.3-0.5,0.5-1.3,0.5-2.4c0-0.7-0.2-1.2-0.6-1.5c-0.4-0.3-1-0.4-1.7-0.4H51v4.9C52.5,46.5,53.4,46.4,53.7,45.9z"/>
	<path d="M63.8,38L63.8,38c1.3,0,2.4,1.1,2.4,2.4v15.2c0,1.3-1.1,2.4-2.4,2.4h0c-1.3,0-2.4-1.1-2.4-2.4V40.4
		C61.4,39.1,62.4,38,63.8,38z"/>
</g>
<g>
	<path d="M35,14.9c2.3,2.1,7.5,6.3,13.3,6.3c5.7,0,10.8-4,13.2-6.1l7.1,3.9c-0.4,1.4-0.9,3.3-0.9,5.2c0,9.4,6.9,17.2,15.9,18.5
		c0.2,1.6,0.5,3.7,0.5,5.3c0,1.6-0.2,3.7-0.5,5.3c-9,1.4-15.9,9.2-15.9,18.5c0,2,0.4,3.8,0.9,5.2l-7.2,4c-2.4-2.3-7.6-6.6-13.5-6.6
		c-5.8,0-11.1,4.3-13.4,6.5l-6.8-3.8c0.4-1.4,0.9-3.3,0.9-5.2c0-9.4-6.9-17.2-15.9-18.5C12.2,51.8,12,49.7,12,48
		c0-1.6,0.2-3.7,0.5-5.3c9-1.4,15.9-9.2,15.9-18.5c0-2-0.4-3.8-0.8-5.2L35,14.9 M12.8,40.9L12.8,40.9L12.8,40.9 M35.2,6.4
		c-0.8,0-1.6,0.2-2.3,0.4l-0.1,0.1l-11.3,6.2l-0.1,0.1c-2.2,1.5-3,4.4-1.9,6.8c0,0,0.9,2.2,0.9,4.1c0,5.9-4.8,10.8-10.8,10.8H9.2
		c0,0-0.1,0-0.1,0c-2.1,0-3.7,1.8-4.2,4.5C4.9,39.6,4,44.3,4,48c0,3.7,0.9,8.4,0.9,8.6c0.5,2.7,2.2,4.5,4.2,4.5c0,0,0.1,0,0.1,0h0.4
		c5.9,0,10.8,4.8,10.8,10.8c0,1.9-0.9,4.1-0.9,4.1c-1.1,2.4-0.2,5.3,1.9,6.8l0.1,0.1l10.7,6l0.1,0.1c0.7,0.3,1.5,0.5,2.3,0.5
		c1.7,0,3.4-0.7,4.5-1.9c1.5-1.7,5.6-5.1,8.7-5.1c3.3,0,7.5,3.8,8.8,5.2c1.1,1.2,2.8,1.9,4.5,1.9h0c0.8,0,1.6-0.2,2.3-0.5l0.1-0.1
		l11.1-6.1l0.1-0.1c2.2-1.5,3-4.4,1.9-6.8c0,0-0.9-2.2-0.9-4.1c0-5.9,4.8-10.8,10.8-10.8l0.4,0c0,0,0,0,0.1,0c2.1,0,3.7-1.8,4.2-4.5
		c0,0,0.9-4.8,0.9-8.6c0-3.7-0.9-8.4-0.9-8.6c-0.5-2.7-2.2-4.5-4.2-4.5c0,0-0.1,0-0.1,0h-0.4c-5.9,0-10.8-4.8-10.8-10.8
		c0-1.9,0.9-4.1,0.9-4.1c1.1-2.4,0.2-5.3-1.9-6.8l-0.1-0.1L63.6,7.1L63.5,7c-0.7-0.3-1.5-0.5-2.3-0.5c-1.7,0-3.3,0.7-4.4,1.8
		c-1.2,1.2-5.3,4.8-8.5,4.8c-3.2,0-7.4-3.6-8.6-4.9C38.6,7.1,36.9,6.4,35.2,6.4L35.2,6.4z"/>
</g>
</svg>
