<?xml version="1.0" encoding="utf-8"?>
<!-- Generator: Adobe Illustrator 17.0.0, SVG Export Plug-In . SVG Version: 6.00 Build 0)  -->
<!DOCTYPE svg PUBLIC "-//W3C//DTD SVG 1.1//EN" "http://www.w3.org/Graphics/SVG/1.1/DTD/svg11.dtd">
<svg version="1.1" id="Layer_1" xmlns="http://www.w3.org/2000/svg" xmlns:xlink="http://www.w3.org/1999/xlink" x="0px" y="0px"
	 width="96px" height="96px" viewBox="0 0 96 96" enable-background="new 0 0 96 96" xml:space="preserve">
<path fill="none" stroke="#000000" stroke-width="8" stroke-linecap="round" stroke-linejoin="round" stroke-miterlimit="10" d="
	M73.875,48.5"/>
<path fill="none" stroke="#000000" stroke-width="8" stroke-linecap="round" stroke-linejoin="round" stroke-miterlimit="10" d="
	M68.011,39.667"/>
<path d="M78.833,5.5H16.182C9.465,5.5,4,10.818,4,17.354v60.96c0,6.536,5.465,11.854,12.182,11.854h62.651
	c6.717,0,12.182-5.318,12.182-11.854v-60.96C91.016,10.818,85.551,5.5,78.833,5.5z M16.182,13.967h62.651
	c1.919,0,3.481,1.519,3.481,3.387v10.021H56.369c-1.073,0-2.102,0.431-2.854,1.197l-6.827,6.95l-6.98-6.803
	c-0.747-0.728-1.749-1.135-2.792-1.135H12.702v-10.23C12.702,15.486,14.263,13.967,16.182,13.967z M78.833,81.7H16.182
	c-1.919,0-3.481-1.519-3.481-3.387v-42.73H35.29l8.669,8.448c0.777,0.758,1.785,1.135,2.791,1.135c1.036,0,2.071-0.4,2.854-1.197
	l8.443-8.595h24.267v42.938C82.314,80.181,80.753,81.7,78.833,81.7z"/>
<path d="M47.333,71.122c-4.136,0-7.5-3.364-7.5-7.5s3.364-7.5,7.5-7.5c4.135,0,7.5,3.364,7.5,7.5S51.469,71.122,47.333,71.122z
	 M47.333,62.122c-0.827,0-1.5,0.673-1.5,1.5s0.673,1.5,1.5,1.5c0.827,0,1.5-0.673,1.5-1.5S48.16,62.122,47.333,62.122z"/>
</svg>
