<?xml version="1.0" encoding="utf-8"?>
<!-- Generator: Adobe Illustrator 17.0.0, SVG Export Plug-In . SVG Version: 6.00 Build 0)  -->
<!DOCTYPE svg PUBLIC "-//W3C//DTD SVG 1.1//EN" "http://www.w3.org/Graphics/SVG/1.1/DTD/svg11.dtd">
<svg version="1.1" id="Layer_1" xmlns="http://www.w3.org/2000/svg" xmlns:xlink="http://www.w3.org/1999/xlink" x="0px" y="0px"
	 width="96px" height="96px" viewBox="0 0 96 96" enable-background="new 0 0 96 96" xml:space="preserve">
<path d="M48,3.167c-24.3,0-44,19.699-44,44s19.7,44,44,44s44-19.699,44-44S72.3,3.167,48,3.167z M48,83.167
	c-19.882,0-36-16.118-36-36s16.118-36,36-36s36,16.118,36,36S67.882,83.167,48,83.167z"/>
<path d="M26.65,46.257c-1.41,0-2.777-0.747-3.506-2.069c-1.067-1.935-0.364-4.368,1.571-5.434L52.736,23.3
	c1.935-1.066,4.368-0.364,5.435,1.571s0.363,4.368-1.571,5.434L28.578,45.759C27.966,46.097,27.303,46.257,26.65,46.257z"/>
<path d="M31.318,54.722c-1.41,0-2.777-0.747-3.506-2.069c-1.067-1.934-0.364-4.367,1.571-5.434l28.021-15.454
	c1.935-1.066,4.367-0.364,5.435,1.571c1.066,1.934,0.363,4.367-1.571,5.434L33.247,54.224
	C32.634,54.562,31.972,54.722,31.318,54.722z"/>
<path d="M35.826,62.895c-1.41,0-2.777-0.747-3.506-2.069c-1.067-1.935-0.364-4.367,1.571-5.435l28.021-15.453
	c1.935-1.066,4.367-0.363,5.435,1.571c1.066,1.935,0.363,4.367-1.571,5.434L37.754,62.396
	C37.142,62.734,36.479,62.895,35.826,62.895z"/>
<path d="M40.494,71.359c-1.41,0-2.777-0.747-3.506-2.069c-1.067-1.935-0.364-4.367,1.571-5.435L66.58,48.402
	c1.936-1.066,4.367-0.364,5.435,1.571c1.066,1.935,0.363,4.367-1.571,5.435L42.422,70.861C41.81,71.199,41.147,71.359,40.494,71.359
	z"/>
<path d="M48.701,31.491c-6.367,0-10.54-3.738-12.09-6.27c-1.153-1.884-0.561-4.347,1.323-5.5c1.866-1.144,4.3-0.572,5.467,1.27
	c0.463,0.688,2.988,3.871,8.878,1.838c2.089-0.72,4.364,0.388,5.086,2.476c0.721,2.088-0.388,4.365-2.477,5.086
	C52.644,31.167,50.577,31.491,48.701,31.491z"/>
<path d="M56.182,69.055c-0.823-1.793-4.487-7.808-15.912-5.729c-2.174,0.395-3.615,2.477-3.22,4.651
	c0.395,2.173,2.475,3.616,4.651,3.22c4.384-0.796,6.433,0.16,7.046,0.911c0.529,1.618,2.034,2.795,3.829,2.795
	c2.235,0,4.047-1.812,4.047-4.047C56.623,70.206,56.455,69.6,56.182,69.055z"/>
</svg>
