<svg height="93" viewBox="0 0 86 93" width="86" xmlns="http://www.w3.org/2000/svg"><path d="m87 48.4819159c2.1421954 0 3.8910789 1.6839684 3.9951047 3.8003596l.0048953.1996404v15.2767879c0 2.0532965-1.0503765 3.9577148-2.8454385 5.0951292l-.2282392.1381372-37.1638775 20.3366263c-1.7309508.9008569-3.7939388.9008569-5.5248896 0l-.2339183-.1284279-9.0153529-5.2135451c-1.9123866-1.1059261-2.566152-3.552752-1.460226-5.4651386 1.0702511-1.8506967 3.3962876-2.522664 5.2784635-1.5617746l.1866751.1015486 8.0335359 4.6457639 34.9732675-19.13749v-14.0876169c0-2.209139 1.790861-4 4-4zm-7-24.4776767c4.9705627 0 9 4.0294372 9 9 0 4.9705627-4.0294373 9-9 9-.7887786 0-1.5538572-.1014714-2.2828945-.2920726l-9.8862041 12.8530238c.7441416 1.309914 1.1690986 2.8248544 1.1690986 4.4390488 0 4.9705627-4.0294373 9-9 9s-9-4.0294373-9-9c0-.0660696.0007119-.1319728.0021285-.1977025l-13.8674112-6.2170205c-1.607452 1.4981294-3.7640437 2.414723-6.1347173 2.414723-.1545707 0-.3082314-.0038967-.460889-.011597l-7.7767645 16.0725097c1.392964 1.5847979 2.2376535 3.6632987 2.2376535 5.9390873 0 4.9705627-4.0294373 9-9 9s-9-4.0294373-9-9c0-4.9705628 4.0294373-9 9-9 .1545707 0 .3082314.0038966.460889.0115969l7.7767645-16.0725097c-1.392964-1.5847979-2.2376535-3.6632987-2.2376535-5.9390872 0-4.9705628 4.0294373-9 9-9s9 4.0294372 9 9c0 .0659838-.0007101.1318019-.002123.1974468l13.8683978 6.2163516c1.6073472-1.4975819 3.7635393-2.4137984 6.1337252-2.4137984.7887786 0 1.5538572.1014713 2.2828945.2920725l9.8862041-12.8530237c-.7441416-1.3099141-1.1690986-2.8248545-1.1690986-4.4390488 0-4.9705628 4.0294373-9 9-9zm-29.2895765-22.35385439.2268336.12441081 18.742822 10.41814158c1.930896 1.0732827 2.6261289 3.5086508 1.5528461 5.4395467-1.0386607 1.8686091-3.3529476 2.5799894-5.2511737 1.6512092l-.188373-.0983631-17.800161-9.89479126-34.9932175 19.14840676v21.0563643c0 2.209139-1.790861 4-4 4-2.14219539 0-3.89107888-1.6839684-3.99510469-3.8003596l-.00489531-.1996404v-22.2455353c0-2.0532965 1.05037646-3.9577148 2.84543851-5.0951291l.22823922-.1381373 37.16387317-20.33662872c1.7308567-.9009102 3.7916813-.90213692 5.4728726-.02949457z" fill="#414249" transform="translate(-5 -1)"/></svg>