<?xml version="1.0" encoding="utf-8"?>
<!-- Generator: Adobe Illustrator 17.0.0, SVG Export Plug-In . SVG Version: 6.00 Build 0)  -->
<!DOCTYPE svg PUBLIC "-//W3C//DTD SVG 1.1//EN" "http://www.w3.org/Graphics/SVG/1.1/DTD/svg11.dtd">
<svg version="1.1" id="Layer_1" xmlns="http://www.w3.org/2000/svg" xmlns:xlink="http://www.w3.org/1999/xlink" x="0px" y="0px"
	 width="96px" height="96px" viewBox="0 0 96 96" enable-background="new 0 0 96 96" xml:space="preserve">
<path fill="#040000" d="M48.031,5.173L4.666,21.254l0.946,3.423c1.45,5.248,2.17,9.827,2.866,14.255
	c2.141,13.622,3.832,24.381,24.14,38.359c5.542,3.815,10.696,9.003,12.391,10.707l2.996,2.999l2.736-2.687
	c1.455-1.428,6.715-6.437,13.335-10.922C82.208,65.105,90.184,26.06,90.515,24.404l0.646-3.238L48.031,5.173z M59.738,70.982
	c-4.821,3.266-8.911,6.72-11.64,9.193c-2.635-2.538-6.711-6.242-11.093-9.258c-9.64-6.635-14.382-12.157-17.034-17.888
	l42.117,16.099C61.311,69.829,60.527,70.447,59.738,70.982z M66.382,64.347L17.547,45.679c-0.566-2.494-0.979-5.113-1.424-7.948
	c-0.168-1.07-0.348-2.187-0.536-3.327l55.965,21.568C69.885,59.175,68.157,61.987,66.382,64.347z M74.145,50.541L14.259,27.463
	c-0.103-0.468-0.194-0.922-0.307-1.4l12.42-4.606l51.34,19.982c-0.211,0.604-0.425,1.212-0.649,1.827
	C76.123,45.849,75.147,48.263,74.145,50.541z M79.578,35.727L34.844,18.316l13.187-4.89l34.173,12.673
	C81.65,28.406,80.778,31.797,79.578,35.727z"/>
<path fill="none" stroke="#040000" stroke-width="8" stroke-miterlimit="10" d="M62.44,73.532"/>
<path fill="none" stroke="#040000" stroke-width="8" stroke-miterlimit="10" d="M17.089,56.196"/>
</svg>
