<?xml version="1.0" encoding="utf-8"?>
<!-- Generator: Adobe Illustrator 21.0.0, SVG Export Plug-In . SVG Version: 6.00 Build 0)  -->
<svg version="1.1" id="Layer_1" xmlns="http://www.w3.org/2000/svg" xmlns:xlink="http://www.w3.org/1999/xlink" x="0px" y="0px"
	 viewBox="0 0 96 96" style="enable-background:new 0 0 96 96;" xml:space="preserve">
<style type="text/css">
	.st0{fill:#040000;}
</style>
<g>
	<path class="st0" d="M41.7,6.1h-31c-2.2,0-3.9,1.8-3.9,3.9v76.3c0,2.2,1.8,3.9,3.9,3.9h31c2.2,0,3.9-1.8,3.9-3.9V10
		C45.6,7.8,43.9,6.1,41.7,6.1z M37.8,82.4H14.6V13.9h23.1V82.4z"/>
	<path class="st0" d="M85.2,6.1h-31c-2.2,0-3.9,1.8-3.9,3.9v76.3c0,2.2,1.8,3.9,3.9,3.9h31c2.2,0,3.9-1.8,3.9-3.9V10
		C89.1,7.8,87.4,6.1,85.2,6.1z M81.3,82.4H58.1V13.9h23.1V82.4z"/>
	<path class="st0" d="M20.5,27.1h11.2c2.2,0,3.9-1.8,3.9-3.9s-1.8-3.9-3.9-3.9H20.5c-2.2,0-3.9,1.8-3.9,3.9S18.3,27.1,20.5,27.1z"/>
	<path class="st0" d="M20.5,40.4h11.2c2.2,0,3.9-1.8,3.9-3.9s-1.8-3.9-3.9-3.9H20.5c-2.2,0-3.9,1.8-3.9,3.9S18.3,40.4,20.5,40.4z"/>
	<path class="st0" d="M20.5,53.8h11.2c2.2,0,3.9-1.8,3.9-3.9c0-2.2-1.8-3.9-3.9-3.9H20.5c-2.2,0-3.9,1.8-3.9,3.9
		C16.6,52.1,18.3,53.8,20.5,53.8z"/>
	<path class="st0" d="M20.5,67.1h11.2c2.2,0,3.9-1.8,3.9-3.9s-1.8-3.9-3.9-3.9H20.5c-2.2,0-3.9,1.8-3.9,3.9S18.3,67.1,20.5,67.1z"/>
	<path class="st0" d="M64.5,26.1h11.2c2.2,0,3.9-1.8,3.9-3.9s-1.8-3.9-3.9-3.9H64.5c-2.2,0-3.9,1.8-3.9,3.9S62.3,26.1,64.5,26.1z"/>
	<path class="st0" d="M64.5,39.4h11.2c2.2,0,3.9-1.8,3.9-3.9s-1.8-3.9-3.9-3.9H64.5c-2.2,0-3.9,1.8-3.9,3.9S62.3,39.4,64.5,39.4z"/>
	<path class="st0" d="M64.5,52.8h11.2c2.2,0,3.9-1.8,3.9-3.9S77.9,45,75.7,45H64.5c-2.2,0-3.9,1.8-3.9,3.9S62.3,52.8,64.5,52.8z"/>
	<path class="st0" d="M64.5,66.1h11.2c2.2,0,3.9-1.8,3.9-3.9s-1.8-3.9-3.9-3.9H64.5c-2.2,0-3.9,1.8-3.9,3.9S62.3,66.1,64.5,66.1z"/>
</g>
</svg>
