<?xml version="1.0" encoding="utf-8"?>
<!-- Generator: Adobe Illustrator 22.1.0, SVG Export Plug-In . SVG Version: 6.00 Build 0)  -->
<svg version="1.1" id="Layer_1" xmlns="http://www.w3.org/2000/svg" xmlns:xlink="http://www.w3.org/1999/xlink" x="0px" y="0px"
	 viewBox="0 0 96 96" style="enable-background:new 0 0 96 96;" xml:space="preserve">
<g>
	<path d="M48,14C23.7,14,4,33.7,4,58c0,8.8,2.6,17.1,7.1,24h73.8c4.5-6.9,7.1-15.1,7.1-24C92,33.7,72.3,14,48,14z M80.3,74H15.7
		C13.3,69,12,63.6,12,58c0-19.9,16.1-36,36-36s36,16.1,36,36C84,63.6,82.7,69,80.3,74z"/>
	<path d="M48,52c-0.4,0-0.7,0-1,0.1l-5.1-6c-1.1-1.3-3-1.4-4.2-0.4c-1.3,1.1-1.4,3-0.4,4.2l5.1,6c-0.2,0.6-0.4,1.3-0.4,2
		c0,3.3,2.7,6,6,6s6-2.7,6-6S51.3,52,48,52z"/>
	<path d="M48,28.6c-15.3,0-27.8,12.4-27.8,27.8c0,1.7,1.3,3,3,3s3-1.3,3-3c0-12,9.8-21.8,21.8-21.8s21.8,9.8,21.8,21.8
		c0,1.7,1.3,3,3,3s3-1.3,3-3C75.8,41.1,63.3,28.6,48,28.6z"/>
</g>
</svg>
