<?xml version="1.0" encoding="utf-8"?>
<!-- Generator: Adobe Illustrator 17.0.0, SVG Export Plug-In . SVG Version: 6.00 Build 0)  -->
<!DOCTYPE svg PUBLIC "-//W3C//DTD SVG 1.1//EN" "http://www.w3.org/Graphics/SVG/1.1/DTD/svg11.dtd">
<svg version="1.1" id="Layer_1" xmlns="http://www.w3.org/2000/svg" xmlns:xlink="http://www.w3.org/1999/xlink" x="0px" y="0px"
	 width="96px" height="96px" viewBox="0 0 96 96" enable-background="new 0 0 96 96" xml:space="preserve">
<g>
	<path fill="#040000" d="M68.738,25.7l-10.864,0.03c-2.121,0.006-3.843,1.792-3.846,3.99c-0.004,2.005,1.433,3.643,3.296,3.912
		l-10.66,10.403L36.569,33.098l0.253,0.015c0.074,0.004,0.148,0.007,0.221,0.007c1.867,0,3.436-1.455,3.55-3.344
		c0.12-1.963-1.374-3.652-3.337-3.772L27.204,25.39c-1.955-0.116-3.652,1.374-3.771,3.337L22.818,38.78
		c-0.12,1.963,1.374,3.652,3.337,3.772c0.074,0.004,0.148,0.006,0.221,0.006c1.867,0,3.436-1.455,3.551-3.344l0.016-0.263
		c0.05,0.056,0.088,0.12,0.141,0.173L41.44,51.429c-0.051,0.254-0.084,0.514-0.084,0.78v21.648c0,2.588,2.529,4.687,5.117,4.687
		c2.589,0,5.117-2.099,5.117-4.687V52.209c0-0.115-0.011-0.227-0.021-0.339L64.9,38.863c0.045-0.041,0.076-0.09,0.12-0.132
		c0.03,2.082,1.602,3.773,3.59,3.893c0.079,0.005,0.158,0.007,0.238,0.007c2.121-0.006,3.843-1.792,3.846-3.99l-0.121-8.975
		C72.577,27.47,70.851,25.697,68.738,25.7z"/>
	<path fill="#040000" d="M47.611,4C23.526,4,4,23.526,4,47.611c0,24.086,19.526,43.611,43.611,43.611
		c24.086,0,43.611-19.525,43.611-43.611C91.223,23.526,71.697,4,47.611,4z M47.611,83.293c-19.706,0-35.682-15.976-35.682-35.682
		s15.976-35.682,35.682-35.682s35.682,15.976,35.682,35.682S67.318,83.293,47.611,83.293z"/>
</g>
</svg>
