<svg xmlns="http://www.w3.org/2000/svg" width="24" height="24" viewBox="0 0 24 24">
  <path fill="#526075" fill-rule="evenodd" d="M16.7946182,4.32062727 C17.1757282,4.32062727 17.5919404,4.37578792 18.0833716,4.52121146 C20.3349291,5.18815388 21.4582006,6.2821388 22.5212968,10.720064 C23.5793784,15.1529745 23.3888234,18.3573069 22.1401868,18.9590595 C21.934588,19.054337 21.7239746,19.0994684 21.5133612,19.0994684 C20.425192,19.0994684 19.2467599,19.1688718 18.1184739,17.7547533 C16.8975496,16.2250349 16.5407486,16.1085183 13.176571,16.1004908 L10.7788991,16.1005303 C7.41093149,16.1090184 7.0586312,16.2297856 5.83770691,17.7547533 C4.70440625,19.1688718 3.53098874,19.0994684 2.44281952,19.0994684 C2.22719152,19.0994684 2.02159273,19.054337 1.81599393,18.9590595 C0.562342755,18.3623215 0.366773171,15.1579891 1.42986937,10.720064 C2.49296557,6.2871534 3.61623702,5.18815388 5.86779454,4.52121146 C6.3542112,4.37578792 6.77042339,4.32062727 7.15654795,4.32062727 C8.54057885,4.32062727 9.50839756,5.05777416 11.9755831,5.05777416 C14.4427686,5.05777416 15.4105873,4.32062727 16.7946182,4.32062727 Z M7.6019241,7.67298632 C6.10984433,7.67298632 4.89407563,8.90257057 4.89407563,10.4084659 C4.89407563,11.9143612 6.10984433,13.1439455 7.6019241,13.1439455 C9.10091164,13.1439455 10.3166803,11.921269 10.3098019,10.4084659 C10.3098019,8.90257057 9.10091164,7.67298632 7.6019241,7.67298632 Z M16.4583591,7.7138256 L16.255215,7.7138256 C15.8750169,7.7138256 15.5668055,8.022037 15.5668055,8.40223504 L15.5668055,8.40223504 L15.5665081,9.63162727 L14.3373334,9.63170721 C13.9916988,9.63170721 13.7055573,9.88642738 13.656388,10.2183886 L13.6489239,10.3201167 L13.6489239,10.5232608 C13.6489239,10.9034588 13.9571353,11.2116702 14.3373334,11.2116702 L14.3373334,11.2116702 L15.5665081,11.2116273 L15.5668055,12.4411424 C15.5668055,12.786777 15.8215257,13.0729184 16.1534869,13.1220877 L16.255215,13.1295518 L16.4583591,13.1295518 C16.8385571,13.1295518 17.1467685,12.8213404 17.1467685,12.4411424 L17.1467685,12.4411424 L17.1465081,11.2116273 L18.3762407,11.2116702 C18.7218753,11.2116702 19.0080168,10.95695 19.057186,10.6249889 L19.0646501,10.5232608 L19.0646501,10.3201167 C19.0646501,9.93991862 18.7564387,9.63170721 18.3762407,9.63170721 L18.3762407,9.63170721 L17.1465081,9.63162727 L17.1467685,8.40223504 C17.1467685,8.05660046 16.8920483,7.77045896 16.5600872,7.72128972 L16.4583591,7.7138256 Z M7.59501632,9.19881628 C8.2621942,9.19881628 8.79843062,9.74128801 8.79843062,10.4084659 C8.79843062,11.0756438 8.25595889,11.6181155 7.59501632,11.6181155 C6.93407375,11.6181155 6.39160201,11.0756438 6.39160201,10.4084659 C6.39160201,9.74128801 6.92783844,9.19881628 7.59501632,9.19881628 Z"/>
</svg>
