<?xml version="1.0" encoding="utf-8"?>
<!-- Generator: Adobe Illustrator 22.1.0, SVG Export Plug-In . SVG Version: 6.00 Build 0)  -->
<svg version="1.1" id="Layer_1" xmlns="http://www.w3.org/2000/svg" xmlns:xlink="http://www.w3.org/1999/xlink" x="0px" y="0px"
	 viewBox="0 0 96 96" style="enable-background:new 0 0 96 96;" xml:space="preserve">
<style type="text/css">
	.st0{fill:#040000;}
</style>
<path class="st0" d="M79.6,65.7l-9.9-11.4c0.4-0.8,0.8-1.7,0.9-2.6c0.4-2.3-0.1-4.6-1.4-6.6c-1.3-1.9-3.3-3.2-5.6-3.6
	c-2.3-0.4-4.6,0.1-6.6,1.4c-1.9,1.3-3.2,3.3-3.6,5.6c-0.4,2.3,0.1,4.6,1.4,6.6c0,0,0,0,0,0.1L47,66.2c-0.4-0.1-0.8-0.2-1.1-0.3
	c-2.5-0.5-5,0.1-7.1,1.5c-2.1,1.4-3.5,3.6-3.9,6.1c-0.5,2.5,0.1,5,1.5,7.1c1.4,2.1,3.6,3.5,6.1,3.9c0.6,0.1,1.2,0.2,1.7,0.2
	c1.9,0,3.8-0.6,5.4-1.7c1.7-1.2,3-2.9,3.6-4.9l21.3-0.3c0.3,1,0.8,1.9,1.4,2.8c1.6,2.3,3.9,3.8,6.6,4.3c0.6,0.1,1.3,0.2,1.9,0.2
	c2.1,0,4.1-0.6,5.8-1.8c4.7-3.2,5.8-9.7,2.6-14.3C89.8,64.7,84.2,63.4,79.6,65.7z M53.1,72.2c-0.3-0.8-0.7-1.6-1.2-2.4
	c0,0-0.1-0.1-0.1-0.1l8-11.2c0.2,0.1,0.4,0.1,0.7,0.2c0.5,0.1,1.1,0.1,1.6,0.1c1.1,0,2.1-0.2,3.2-0.6l10.1,11.6
	c-0.4,0.7-0.7,1.3-0.9,2.1L53.1,72.2z M59.3,49.6c0.1-0.7,0.5-1.4,1.1-1.8c0.5-0.3,1-0.5,1.6-0.5c0.2,0,0.3,0,0.5,0
	c0.7,0.1,1.4,0.5,1.8,1.1c0.4,0.6,0.6,1.3,0.4,2.1c-0.1,0.7-0.5,1.4-1.1,1.8c-0.6,0.4-1.3,0.6-2.1,0.4c-0.7-0.1-1.4-0.5-1.8-1.1l0,0
	C59.4,51.1,59.2,50.4,59.3,49.6z M47.6,75.9c-0.2,0.9-0.7,1.7-1.4,2.2c-0.8,0.5-1.7,0.7-2.6,0.6c-0.9-0.2-1.7-0.7-2.2-1.4
	c-0.5-0.8-0.7-1.7-0.6-2.6s0.7-1.7,1.4-2.2c0.6-0.4,1.3-0.6,2-0.6c0.2,0,0.4,0,0.6,0.1c0.9,0.2,1.7,0.7,2.2,1.4
	C47.6,74.1,47.8,75,47.6,75.9z M86.7,78.4c-0.9,0.7-2.1,0.9-3.2,0.7c-1.1-0.2-2.1-0.8-2.8-1.8v0c-1.3-2-0.9-4.6,1.1-6
	c0.7-0.5,1.6-0.8,2.4-0.8c1.4,0,2.7,0.6,3.5,1.9C89.2,74.4,88.7,77.1,86.7,78.4z"/>
<path class="st0" d="M26.5,84.1h-2.6C10.7,84.1,0,73.4,0,60.2C0,47,10.7,36.3,23.9,36.3h1.7c5-14.5,18.6-24.4,34.2-24.4
	C79.8,11.9,96,28.1,96,48c0,3.8-0.6,7.5-1.7,11c-0.7,2.1-2.9,3.3-5,2.6c-2.1-0.7-3.3-2.9-2.6-5c0.9-2.8,1.3-5.6,1.3-8.6
	c0-15.5-12.6-28.1-28.2-28.1c-13,0-24.2,8.8-27.3,21.3c-0.4,1.8-2,3-3.9,3h-4.7C15.2,44.3,8,51.4,8,60.2c0,8.8,7.2,15.9,15.9,15.9
	h2.6c2.2,0,4,1.8,4,4S28.7,84.1,26.5,84.1z"/>
</svg>
