<svg height="98" viewBox="0 0 98 98" width="98" xmlns="http://www.w3.org/2000/svg"><path d="m486 138c27.061953 0 49 21.938047 49 49s-21.938047 49-49 49-49-21.938047-49-49 21.938047-49 49-49zm0 8c-22.643675 0-41 18.356325-41 41s18.356325 41 41 41 41-18.356325 41-41-18.356325-41-41-41zm-5 26c1.777063 0 3.373686.772556 4.472331 2.000132l5.527669-.000132c12.150264 0 22 9.849736 22 22 0 12.028762-9.653726 21.802775-21.63619 21.997053l-.36381.002947-17.528565.000869c-1.098617 1.226994-2.694855 1.999131-4.471435 1.999131-3.313708 0-6-2.686292-6-6s2.686292-6 6-6c1.777063 0 3.373686.772556 4.472331 2.000132l17.527669-.000132c7.731986 0 14-6.268014 14-14 0-7.6275-6.099752-13.830327-13.687355-13.996578l-.312645-.003422-5.528565.000869c-1.098617 1.226994-2.694855 1.999131-4.471435 1.999131-3.313708 0-6-2.686292-6-6s2.686292-6 6-6zm22-18c3.313708 0 6 2.686292 6 6s-2.686292 6-6 6c-1.77658 0-3.372818-.772137-4.471435-1.999131l-17.528565-.000869c-7.731986 0-14 6.268014-14 14 0 7.6275 6.099752 13.830327 13.687355 13.996578l.312645.003422 5.527669.000132c1.098645-1.227576 2.695268-2.000132 4.472331-2.000132 3.313708 0 6 2.686292 6 6s-2.686292 6-6 6c-1.77658 0-3.372818-.772137-4.471435-1.999131l-5.528565-.000869c-12.150264 0-22-9.849736-22-22 0-12.028762 9.653726-21.802775 21.63619-21.997053l.36381-.002947 17.527669.000132c1.098645-1.227576 2.695268-2.000132 4.472331-2.000132z" fill="#414249" transform="translate(-437 -138)"/></svg>