<?xml version="1.0" encoding="utf-8"?>
<!-- Generator: Adobe Illustrator 17.0.0, SVG Export Plug-In . SVG Version: 6.00 Build 0)  -->
<!DOCTYPE svg PUBLIC "-//W3C//DTD SVG 1.1//EN" "http://www.w3.org/Graphics/SVG/1.1/DTD/svg11.dtd">
<svg version="1.1" id="Layer_1" xmlns="http://www.w3.org/2000/svg" xmlns:xlink="http://www.w3.org/1999/xlink" x="0px" y="0px"
	 width="96px" height="96px" viewBox="0 0 96 96" enable-background="new 0 0 96 96" xml:space="preserve">
<path d="M84,44.431V18.545C84,8.552,63.265,4,44,4S4,8.552,4,18.545v50.909C4,79.448,24.735,84,44,84
	c0.142,0,0.285-0.003,0.427-0.003C49.48,88.943,56.388,92,64,92c15.439,0,28-12.561,28-28C92,56.39,88.944,49.483,84,44.431z
	 M83.871,61.833H73.577l-9.178-9.884l-10.188,9.884H44.135c0.011-0.1,0.021-0.2,0.033-0.3c0.036-0.276,0.079-0.55,0.126-0.823
	c0.632-3.811,2.335-7.25,4.798-10.009c0.13-0.146,0.259-0.291,0.393-0.433c0.28-0.296,0.57-0.582,0.868-0.86
	c0.199-0.187,0.399-0.372,0.606-0.551c0.226-0.195,0.456-0.383,0.69-0.568c0.24-0.19,0.487-0.371,0.736-0.55
	c0.282-0.202,0.568-0.397,0.861-0.584c0.259-0.166,0.522-0.325,0.789-0.479c0.275-0.159,0.553-0.312,0.837-0.457
	c0.323-0.167,0.651-0.325,0.984-0.474c0.173-0.078,0.344-0.159,0.52-0.232c0.46-0.191,0.931-0.359,1.407-0.515
	c0.156-0.051,0.311-0.102,0.468-0.15c0.505-0.152,1.018-0.283,1.539-0.396c0.129-0.028,0.259-0.053,0.389-0.078
	c0.555-0.108,1.117-0.197,1.688-0.258c0.085-0.009,0.17-0.014,0.255-0.022C62.742,44.037,63.366,44,64,44
	c0.613,0,1.217,0.037,1.816,0.092c0.136,0.012,0.271,0.024,0.406,0.039c0.566,0.063,1.126,0.146,1.677,0.256
	c0.14,0.028,0.277,0.062,0.415,0.093c0.443,0.098,0.88,0.21,1.311,0.337c0.154,0.045,0.31,0.086,0.463,0.134
	c0.48,0.154,0.95,0.329,1.414,0.517c0.208,0.084,0.414,0.174,0.618,0.265c0.342,0.153,0.679,0.316,1.011,0.487
	C78.97,49.225,83.133,55.012,83.871,61.833z M44,11.273c21.081,0,31.982,5.215,32.715,7.273C75.982,20.603,65.081,25.818,44,25.818
	s-31.982-5.215-32.716-7.273C12.018,16.488,22.919,11.273,44,11.273z M11,69.455V52.839c6,3.095,15.702,4.88,25.445,5.477
	c-0.38,1.836-0.513,3.737-0.513,5.684c0,4.54,0.991,8.827,2.917,12.623C20.857,75.882,12,71.258,11,69.455z M11,44.001V27.384
	c8,3.879,20.661,5.707,32.864,5.707s25.058-1.83,32.796-5.708l0.035,11.691C72.873,37.114,68.565,36,63.983,36
	c-10.818,0-20.344,6.171-25.005,15.174C20.919,50.446,12,45.807,11,44.001z M78.441,77.813c-0.155,0.162-0.308,0.326-0.469,0.483
	c-0.315,0.308-0.642,0.601-0.977,0.888c-0.174,0.149-0.35,0.296-0.529,0.44c-0.349,0.279-0.707,0.548-1.074,0.803
	c-0.173,0.12-0.35,0.235-0.527,0.35c-0.37,0.241-0.747,0.472-1.134,0.689c-0.169,0.094-0.341,0.182-0.512,0.272
	c-0.378,0.197-0.763,0.383-1.155,0.556c-0.13,0.057-0.256,0.119-0.387,0.174c-0.484,0.202-0.981,0.379-1.483,0.543
	c-0.138,0.045-0.274,0.091-0.413,0.133c-0.516,0.156-1.041,0.29-1.573,0.404c-0.125,0.027-0.249,0.051-0.375,0.076
	c-0.558,0.109-1.123,0.198-1.696,0.259c-0.088,0.009-0.176,0.015-0.264,0.023C65.255,83.963,64.632,84,64,84
	c-0.605,0-1.201-0.037-1.793-0.091c-0.217-0.019-0.431-0.047-0.646-0.073c-0.362-0.045-0.719-0.1-1.075-0.164
	c-0.261-0.046-0.522-0.09-0.779-0.146c-0.319-0.071-0.632-0.158-0.946-0.243c-5.076-1.376-9.34-4.692-11.96-9.112
	c-0.07-0.118-0.146-0.232-0.213-0.351c-0.189-0.334-0.359-0.678-0.529-1.024c-0.101-0.205-0.203-0.408-0.297-0.617
	c-0.141-0.314-0.27-0.633-0.395-0.955c-0.101-0.26-0.197-0.521-0.288-0.786c-0.068-0.2-0.129-0.403-0.192-0.605h12.567l6.646-6.448
	l5.988,6.448h13.026c-0.825,2.69-2.19,5.144-3.986,7.223C78.906,77.314,78.677,77.567,78.441,77.813z"/>
</svg>
