<?xml version="1.0" encoding="utf-8"?>
<!-- Generator: Adobe Illustrator 17.0.0, SVG Export Plug-In . SVG Version: 6.00 Build 0)  -->
<!DOCTYPE svg PUBLIC "-//W3C//DTD SVG 1.1//EN" "http://www.w3.org/Graphics/SVG/1.1/DTD/svg11.dtd">
<svg version="1.1" id="Layer_1" xmlns="http://www.w3.org/2000/svg" xmlns:xlink="http://www.w3.org/1999/xlink" x="0px" y="0px"
	 width="96px" height="96px" viewBox="0 0 96 96" enable-background="new 0 0 96 96" xml:space="preserve">
<g>
	<path fill="#040000" d="M50.875,73.873h-30.73c-1.435,0-2.77-0.739-3.531-1.956c-0.762-1.217-0.844-2.74-0.217-4.031l30.73-63.283
		c1.006-2.071,3.5-2.932,5.568-1.928c1.569,0.761,2.445,2.377,2.339,4.016c0.005,0.084,0.008,0.168,0.008,0.253v62.762
		C55.042,72.007,53.176,73.873,50.875,73.873z M26.801,65.54h19.908V24.543L26.801,65.54z"/>
	<path fill="#040000" d="M50.191,89.911c-26.293,0-40.362-5.423-41.171-5.745c-2.138-0.849-3.184-3.272-2.334-5.411
		c0.848-2.136,3.266-3.182,5.402-2.337c0.103,0.04,6.651,2.554,18.994,4.044c11.438,1.38,30.332,2.136,55.382-2.097
		c2.269-0.389,4.42,1.145,4.803,3.414c0.384,2.269-1.145,4.42-3.414,4.803C73.361,89.03,60.783,89.911,50.191,89.911z"/>
	<path fill="#040000" d="M82.647,73.873h-20.66c-2.301,0-4.167-1.866-4.167-4.167V40.409c0-1.816,1.176-3.423,2.907-3.972
		c1.728-0.55,3.618,0.086,4.665,1.571l20.66,29.298c0.897,1.272,1.01,2.937,0.294,4.319C85.63,73.006,84.204,73.873,82.647,73.873z
		 M66.153,65.54h8.457l-8.457-11.992V65.54z"/>
</g>
</svg>
