<?xml version="1.0" encoding="utf-8"?>
<!-- Generator: Adobe Illustrator 21.0.0, SVG Export Plug-In . SVG Version: 6.00 Build 0)  -->
<svg version="1.1" id="Layer_1" xmlns="http://www.w3.org/2000/svg" xmlns:xlink="http://www.w3.org/1999/xlink" x="0px" y="0px"
	 viewBox="0 0 96 96" style="enable-background:new 0 0 96 96;" xml:space="preserve">
<style type="text/css">
	.st0{fill:#0E1206;}
</style>
<g>
	<path class="st0" d="M87.7,47L69.2,15c-0.6-1-1.7-1.7-2.9-1.7h-37c-1.2,0-2.3,0.6-2.9,1.7L7.9,47c-0.6,1-0.6,2.3,0,3.4l18.5,32
		c0.6,1,1.7,1.7,2.9,1.7h37c1.2,0,2.3-0.6,2.9-1.7l18.5-32C88.3,49.4,88.3,48.1,87.7,47z M64.4,77.4H31.3L14.7,48.7l16.6-28.7h33.1
		l16.6,28.7L64.4,77.4z"/>
	<path class="st0" d="M50.3,31.7h-4.1c-5.5,0-10.2,3.2-12.4,7.8h28.9C60.4,34.9,55.7,31.7,50.3,31.7z"/>
	<path class="st0" d="M32.4,45.4c0,0,0,0.1,0,0.1v6.2c0,0.1,0,0.2,0,0.3H64c0-0.1,0-0.2,0-0.3v-6.2c0,0,0-0.1,0-0.1H32.4z"/>
	<path class="st0" d="M46.2,65.5h4.1c5.4,0,10.1-3.2,12.4-7.7H33.9C36.1,62.3,40.8,65.5,46.2,65.5z"/>
</g>
</svg>
