<?xml version="1.0" encoding="utf-8"?>
<!-- Generator: Adobe Illustrator 17.0.0, SVG Export Plug-In . SVG Version: 6.00 Build 0)  -->
<!DOCTYPE svg PUBLIC "-//W3C//DTD SVG 1.1//EN" "http://www.w3.org/Graphics/SVG/1.1/DTD/svg11.dtd">
<svg version="1.1" id="Layer_1" xmlns="http://www.w3.org/2000/svg" xmlns:xlink="http://www.w3.org/1999/xlink" x="0px" y="0px"
	 width="96px" height="96px" viewBox="0 0 96 96" enable-background="new 0 0 96 96" xml:space="preserve">
<g>
	<path d="M68,36.372V17.628c0-1.42-0.753-2.734-1.979-3.452l-16-9.372c-1.248-0.731-2.795-0.731-4.043,0l-16,9.372
		C28.753,14.894,28,16.208,28,17.628v18.744c0,1.42,0.753,2.734,1.979,3.452l16,9.372c0.624,0.366,1.323,0.549,2.021,0.549
		s1.397-0.183,2.021-0.549l16-9.372C67.247,39.106,68,37.792,68,36.372z M60,34.08l-12,7.029L36,34.08V19.92l12-7.029l12,7.029
		V34.08z"/>
	<path d="M42.021,53.177l-16-9.373c-1.248-0.731-2.795-0.731-4.043,0l-16,9.373C4.753,53.895,4,55.208,4,56.628v18.744
		c0,1.42,0.753,2.733,1.979,3.451l16,9.372c0.624,0.366,1.323,0.549,2.021,0.549s1.397-0.183,2.021-0.549l16-9.372
		C43.247,78.105,44,76.792,44,75.372V56.628C44,55.208,43.247,53.895,42.021,53.177z M36,73.079l-12,7.029l-12-7.029V58.921
		l12-7.029l12,7.029V73.079z"/>
	<path d="M90.021,53.177l-16-9.373c-1.248-0.731-2.795-0.731-4.043,0l-16,9.373C52.753,53.895,52,55.208,52,56.628v18.744
		c0,1.42,0.753,2.733,1.979,3.451l16,9.372c0.624,0.366,1.323,0.549,2.021,0.549s1.397-0.183,2.021-0.549l16-9.372
		C91.247,78.105,92,76.792,92,75.372V56.628C92,55.208,91.247,53.895,90.021,53.177z M84,73.079l-12,7.029l-12-7.029V58.921
		l12-7.029l12,7.029V73.079z"/>
</g>
</svg>
