<?xml version="1.0" encoding="utf-8"?>
<!-- Generator: Adobe Illustrator 17.0.0, SVG Export Plug-In . SVG Version: 6.00 Build 0)  -->
<!DOCTYPE svg PUBLIC "-//W3C//DTD SVG 1.1//EN" "http://www.w3.org/Graphics/SVG/1.1/DTD/svg11.dtd">
<svg version="1.1" id="Layer_1" xmlns="http://www.w3.org/2000/svg" xmlns:xlink="http://www.w3.org/1999/xlink" x="0px" y="0px"
	 width="96px" height="96px" viewBox="0 0 96 96" enable-background="new 0 0 96 96" xml:space="preserve">
<path fill="#231815" d="M81.977,37.079c-4.644,0-8.615,2.901-10.218,6.982h-6.129v2.592c-0.613-7.644-6.149-13.906-13.434-15.619
	v-6.542c4.081-1.604,6.982-5.574,6.982-10.218c0-6.056-4.927-10.982-10.983-10.982c-6.056,0-10.982,4.927-10.982,10.982
	c0,4.644,2.901,8.614,6.982,10.218v6.542c-6.441,1.514-11.512,6.585-13.026,13.026h-5.643c-1.604-4.081-5.574-6.982-10.218-6.982
	c-6.056,0-10.982,4.927-10.982,10.982s4.927,10.982,10.982,10.982c4.644,0,8.614-2.901,10.218-6.982h5.643
	c1.514,6.441,6.585,11.513,13.026,13.027v6.209c-4.081,1.604-6.982,5.574-6.982,10.217c0,6.056,4.927,10.982,10.982,10.982
	c6.056,0,10.983-4.927,10.983-10.982c0-4.643-2.901-8.613-6.982-10.217v-6.209c7.284-1.712,12.821-7.975,13.434-15.619v2.592h6.129
	c1.604,4.081,5.574,6.982,10.218,6.982c6.056,0,10.982-4.927,10.982-10.982S88.032,37.079,81.977,37.079z M15.308,51.044
	c-1.645,0-2.982-1.338-2.982-2.982s1.338-2.982,2.982-2.982c1.26,0,2.334,0.788,2.771,1.894v2.176
	C17.642,50.256,16.568,51.044,15.308,51.044z M48.195,11.293c1.645,0,2.983,1.338,2.983,2.982c0,1.645-1.338,2.983-2.983,2.983
	c-1.645,0-2.982-1.338-2.982-2.983C45.212,12.631,46.55,11.293,48.195,11.293z M48.195,84.497c-1.645,0-2.982-1.338-2.982-2.982
	s1.338-2.982,2.982-2.982c1.645,0,2.983,1.338,2.983,2.982S49.84,84.497,48.195,84.497z M48.195,57.567
	c-5.241,0-9.505-4.265-9.505-9.506s4.264-9.505,9.505-9.505c5.242,0,9.505,4.264,9.505,9.505S53.437,57.567,48.195,57.567z
	 M81.977,51.044c-1.646,0-2.983-1.338-2.983-2.982s1.338-2.982,2.983-2.982c1.645,0,2.982,1.338,2.982,2.982
	S83.621,51.044,81.977,51.044z"/>
</svg>
