<?xml version="1.0" encoding="utf-8"?>
<!-- Generator: Adobe Illustrator 17.0.0, SVG Export Plug-In . SVG Version: 6.00 Build 0)  -->
<!DOCTYPE svg PUBLIC "-//W3C//DTD SVG 1.1//EN" "http://www.w3.org/Graphics/SVG/1.1/DTD/svg11.dtd">
<svg version="1.1" id="Layer_1" xmlns="http://www.w3.org/2000/svg" xmlns:xlink="http://www.w3.org/1999/xlink" x="0px" y="0px"
	 width="96px" height="96px" viewBox="0 0 96 96" enable-background="new 0 0 96 96" xml:space="preserve">
<g>
	<path d="M48,4C23.7,4,4,23.699,4,48s19.7,44,44,44s44-19.699,44-44S72.3,4,48,4z M48,84c-19.882,0-36-16.118-36-36s16.118-36,36-36
		s36,16.118,36,36S67.882,84,48,84z"/>
	<path d="M49.341,45.731c-12.222-4.35-12.177-22.595-12.174-22.843c0.031-2.206-1.73-4.021-3.937-4.055
		c-2.171-0.031-4.027,1.729-4.062,3.937c-0.016,0.985-0.175,24.211,17.491,30.498c4.893,1.741,8.165,5.703,9.724,11.773
		c1.281,4.991,0.893,9.544,0.889,9.579c-0.209,2.199,1.404,4.151,3.604,4.361C61.004,78.994,61.132,79,61.259,79
		c2.038,0,3.78-1.551,3.978-3.621c0.021-0.233,0.524-5.778-1.04-12.07C62.002,54.487,56.865,48.409,49.341,45.731z"/>
	<path d="M36.913,52.685c-10.222,8.353-8.181,21.657-8.089,22.22c0.321,1.962,2.018,3.355,3.943,3.355
		c0.214,0,0.432-0.018,0.65-0.054c2.18-0.356,3.659-2.412,3.303-4.593c-0.015-0.092-1.428-9.272,5.255-14.733
		c1.71-1.398,1.964-3.918,0.566-5.629C41.144,51.542,38.624,51.288,36.913,52.685z"/>
	<path d="M61.82,18.177c-2.184,0.277-3.732,2.276-3.467,4.46c0.05,0.412,1.133,10.155-6.587,16.409
		c-1.716,1.391-1.98,3.91-0.589,5.626c0.79,0.976,1.945,1.482,3.109,1.482c0.885,0,1.775-0.292,2.517-0.892
		c11.26-9.124,9.561-23.063,9.483-23.652C65.998,19.43,64.001,17.9,61.82,18.177z"/>
</g>
</svg>
