<?xml version="1.0" encoding="utf-8"?>
<!-- Generator: Adobe Illustrator 17.0.0, SVG Export Plug-In . SVG Version: 6.00 Build 0)  -->
<!DOCTYPE svg PUBLIC "-//W3C//DTD SVG 1.1//EN" "http://www.w3.org/Graphics/SVG/1.1/DTD/svg11.dtd">
<svg version="1.1" id="Layer_1" xmlns="http://www.w3.org/2000/svg" xmlns:xlink="http://www.w3.org/1999/xlink" x="0px" y="0px"
	 width="96px" height="96px" viewBox="0 0 96 96" enable-background="new 0 0 96 96" xml:space="preserve">
<g>
	<path d="M76,4h-5.11H25.11H20C13.37,4,8,9.37,8,16v64c0,6.63,5.37,12,12,12h2.861h50.278H76c6.63,0,12-5.37,12-12V16
		C88,9.37,82.63,4,76,4z M76,84h-2.644H22.644H20c-2.209,0-4-1.791-4-4s1.791-4,4-4h2.624h50.752H76c2.209,0,4,1.791,4,4
		S78.209,84,76,84z M80,68.697C78.747,68.254,77.405,68,76,68h-2.767H22.767H20c-1.405,0-2.747,0.254-4,0.697V16c0-2.21,1.79-4,4-4
		h5.06h45.88H76c2.21,0,4,1.79,4,4V68.697z"/>
	<path d="M48,16c-13.234,0-24,10.766-24,24c0,13.233,10.766,24,24,24c13.233,0,24-10.767,24-24C72,26.766,61.233,16,48,16z M48,56
		c-8.822,0-16-7.178-16-16s7.178-16,16-16s16,7.178,16,16S56.822,56,48,56z"/>
</g>
</svg>
