<?xml version="1.0" encoding="utf-8"?>
<!-- Generator: Adobe Illustrator 22.1.0, SVG Export Plug-In . SVG Version: 6.00 Build 0)  -->
<svg version="1.1" id="Layer_1" xmlns="http://www.w3.org/2000/svg" xmlns:xlink="http://www.w3.org/1999/xlink" x="0px" y="0px"
	 viewBox="0 0 96 96" style="enable-background:new 0 0 96 96;" xml:space="preserve">
<g>
	<path d="M40.1,32.3c-1.4-0.8-3.8-1.2-7.2-1.2h-4.2c-1.6,0-3,1.3-3,3v20.1c0,1.6,1.3,3,3,3h5.6c2.9,0,4.9-0.6,6.1-1.7
		c1.2-1.1,1.8-2.6,1.8-4.5V37.2C42.2,34.7,41.5,33.1,40.1,32.3z M35.8,49.8c0,1.2-0.4,2-1.1,2.3c-0.1,0-0.2,0.1-0.4,0.1h-2.4V36.1
		h1.9c1,0,1.9,0.8,1.9,1.8c0,0,0,0,0,0V49.8z"/>
	<path d="M59.7,31.2c-1.7,0-3.1,1.4-3,3.1l0.6,11.9l-4.3-13c-0.4-1.2-1.5-2-2.8-2h-1.2c-1.6,0-3,1.3-3,3v20.1c0,1.6,1.3,2.9,2.9,2.9
		c1.7,0,3-1.4,2.9-3.1l-0.6-11.4l4.3,12.5c0.4,1.2,1.5,2,2.8,2h1.3c1.6,0,3-1.3,3-3V34.1C62.7,32.5,61.4,31.2,59.7,31.2z"/>
	<path d="M90.8,85.2L75.2,69.6c5.7-6.9,9.1-15.8,9.1-25.5C84.4,22,66.4,4,44.2,4C22.1,4,4,22,4,44.2s18,40.2,40.2,40.2
		c9.6,0,18.5-3.4,25.5-9.1l15.6,15.6C86,91.6,87,92,88,92s2-0.4,2.8-1.2C92.4,89.3,92.4,86.7,90.8,85.2z M69.1,64.6L67,67l-2.5,2
		c-5.7,4.7-13,7.3-20.4,7.3C26.4,76.4,12,61.9,12,44.2S26.4,12,44.2,12c17.7,0,32.2,14.4,32.2,32.2C76.4,51.6,73.8,58.8,69.1,64.6z"
		/>
</g>
</svg>
