<?xml version="1.0" encoding="utf-8"?>
<!-- Generator: Adobe Illustrator 17.0.0, SVG Export Plug-In . SVG Version: 6.00 Build 0)  -->
<!DOCTYPE svg PUBLIC "-//W3C//DTD SVG 1.1//EN" "http://www.w3.org/Graphics/SVG/1.1/DTD/svg11.dtd">
<svg version="1.1" id="Layer_1" xmlns="http://www.w3.org/2000/svg" xmlns:xlink="http://www.w3.org/1999/xlink" x="0px" y="0px"
	 width="96px" height="96px" viewBox="0 0 96 96" enable-background="new 0 0 96 96" xml:space="preserve">
<g>
	<path d="M48,4C23.7,4,4,23.699,4,48s19.7,44,44,44s44-19.699,44-44S72.3,4,48,4z M48,84c-19.882,0-36-16.118-36-36s16.118-36,36-36
		s36,16.118,36,36S67.882,84,48,84z"/>
	<path d="M34.125,39.792c-0.971-0.85-2.052-1.429-3.243-1.737s-2.62-0.464-4.286-0.464h-6.404c-1.059,0-1.826,0.237-2.3,0.712
		s-0.711,1.241-0.711,2.3v17.789c0,0.783,0.069,1.42,0.207,1.911c0.138,0.49,0.433,0.871,0.885,1.142
		c0.452,0.271,1.125,0.405,2.019,0.405h6.404c1.114,0,2.115-0.071,3.003-0.215c0.888-0.144,1.718-0.392,2.49-0.745
		c0.772-0.353,1.484-0.821,2.135-1.406c0.827-0.762,1.506-1.624,2.035-2.59c0.53-0.965,0.921-2.049,1.175-3.251
		c0.254-1.203,0.381-2.532,0.381-3.988C37.915,45.242,36.652,41.954,34.125,39.792z M30.469,56.803
		c-0.364,0.32-0.794,0.568-1.291,0.744c-0.496,0.177-0.976,0.287-1.439,0.331c-0.463,0.045-1.103,0.066-1.919,0.066h-3.723V41.479
		h3.243c1.5,0,2.78,0.163,3.839,0.488c1.059,0.326,1.95,1.084,2.673,2.275c0.722,1.191,1.083,2.984,1.083,5.378
		C32.934,53.019,32.112,55.413,30.469,56.803z"/>
	<path d="M57.338,37.178c-0.684,0-1.228,0.234-1.63,0.703c-0.403,0.469-0.604,1.172-0.604,2.109v14.43l-9.448-14.297
		c-0.265-0.419-0.521-0.821-0.77-1.208c-0.248-0.386-0.491-0.7-0.728-0.943c-0.237-0.242-0.513-0.436-0.827-0.579
		s-0.692-0.215-1.134-0.215c-0.562,0-1.086,0.157-1.572,0.472s-0.833,0.72-1.042,1.216c-0.177,0.452-0.265,1.076-0.265,1.87V59.45
		c0,0.916,0.209,1.613,0.629,2.094c0.419,0.479,0.976,0.72,1.671,0.72c0.673,0,1.225-0.237,1.655-0.712s0.646-1.175,0.646-2.102
		V45.236l9.217,14.131c0.265,0.387,0.529,0.765,0.795,1.134c0.264,0.37,0.551,0.692,0.859,0.968
		c0.309,0.276,0.641,0.478,0.993,0.604c0.353,0.126,0.75,0.19,1.191,0.19c1.765,0,2.647-1.064,2.647-3.194V39.99
		c0-0.938-0.204-1.641-0.611-2.109C58.601,37.412,58.043,37.178,57.338,37.178z"/>
	<path d="M79.797,51.466c-0.436-0.844-1.042-1.541-1.82-2.093c-0.777-0.552-1.721-1.021-2.829-1.406
		c-1.108-0.387-2.347-0.739-3.715-1.06c-1.093-0.275-1.876-0.485-2.35-0.629c-0.475-0.143-0.943-0.342-1.407-0.596
		c-0.463-0.253-0.826-0.557-1.092-0.91c-0.265-0.353-0.396-0.771-0.396-1.257c0-0.783,0.389-1.454,1.166-2.011
		s1.801-0.836,3.07-0.836c1.367,0,2.359,0.257,2.979,0.77c0.617,0.513,1.146,1.228,1.588,2.143c0.342,0.641,0.659,1.101,0.951,1.382
		c0.293,0.281,0.721,0.422,1.283,0.422c0.617,0,1.133-0.234,1.547-0.703s0.621-0.995,0.621-1.58c0-0.64-0.166-1.296-0.497-1.969
		s-0.854-1.316-1.572-1.928c-0.717-0.612-1.618-1.104-2.705-1.474c-1.087-0.369-2.374-0.554-3.864-0.554
		c-1.864,0-3.486,0.278-4.865,0.836c-1.379,0.557-2.432,1.354-3.16,2.391s-1.092,2.223-1.092,3.558c0,1.401,0.345,2.573,1.034,3.517
		s1.622,1.688,2.796,2.233c1.176,0.546,2.635,1.023,4.377,1.432c1.302,0.298,2.342,0.579,3.119,0.844
		c0.778,0.265,1.412,0.648,1.903,1.15s0.736,1.155,0.736,1.961c0,1.015-0.455,1.861-1.365,2.54c-0.91,0.678-2.093,1.018-3.55,1.018
		c-1.059,0-1.914-0.168-2.564-0.505s-1.156-0.764-1.514-1.282c-0.359-0.519-0.693-1.164-1.002-1.937
		c-0.254-0.65-0.56-1.142-0.918-1.473s-0.797-0.496-1.315-0.496c-0.64,0-1.167,0.212-1.58,0.637s-0.62,0.936-0.62,1.531
		c0,1.025,0.344,2.082,1.033,3.168c0.689,1.087,1.586,1.956,2.689,2.606c1.555,0.905,3.529,1.357,5.924,1.357
		c1.996,0,3.723-0.331,5.18-0.993c1.456-0.662,2.562-1.577,3.317-2.747c0.755-1.169,1.134-2.487,1.134-3.955
		C80.451,53.345,80.232,52.311,79.797,51.466z"/>
</g>
</svg>
