<?xml version="1.0" encoding="utf-8"?>
<!-- Generator: Adobe Illustrator 17.0.0, SVG Export Plug-In . SVG Version: 6.00 Build 0)  -->
<!DOCTYPE svg PUBLIC "-//W3C//DTD SVG 1.1//EN" "http://www.w3.org/Graphics/SVG/1.1/DTD/svg11.dtd">
<svg version="1.1" id="Layer_1" xmlns="http://www.w3.org/2000/svg" xmlns:xlink="http://www.w3.org/1999/xlink" x="0px" y="0px"
	 width="96px" height="96px" viewBox="0 0 96 96" enable-background="new 0 0 96 96" xml:space="preserve">
<g id="GvXtVC.tif">
</g>
<g>
	<path fill="#040000" d="M28.072,55.072c0,1.904-1.543,3.447-3.447,3.447s-3.447-1.543-3.447-3.447s1.543-3.447,3.447-3.447
		S28.072,53.168,28.072,55.072z"/>
	<path fill="#040000" d="M94.712,27.466c-2.646-4.503-6.298-5.175-8.238-5.175c-0.118,0-0.236,0.002-0.353,0.007
		c-0.401-1.767-1.157-3.083-1.905-4.019c-2.255-2.82-5.977-4.311-10.763-4.311c-2.019,0-4.152,0.29-5.708,0.776
		c-8.73,2.727-8.472,14.45-7.492,21.38H0.188l-0.478,3.452c-0.106,0.769-2.487,18.973,7.932,30.935
		c5.723,6.569,14.025,9.9,24.678,9.901c0.001,0,0.002,0,0.003,0c0.897,0,1.826-0.024,2.759-0.072
		c29.253-1.504,42.416-21.86,46.876-31.017c0.563-0.277,1.889-0.809,4.652-1.418c3.849-0.849,6.89-3.43,8.562-7.266
		C97.058,36.32,96.876,31.148,94.712,27.466z M87.841,37.442c-0.641,1.469-1.634,2.361-2.952,2.651
		c-2.918,0.644-9.287,2.049-10.233,5.957c-4.702,9.561-15.985,25.068-39.982,26.3c-0.806,0.042-1.586,0.062-2.348,0.062
		c-0.001,0-0.002,0-0.003,0c-8.221-0.001-14.486-2.398-18.621-7.128c-5.693-6.51-6.373-16.085-6.278-21.16h62.793l-1.253-4.976
		c-1.598-6.351-1.927-15.802,1.168-16.769c0.49-0.153,1.741-0.412,3.323-0.412c2.14,0,3.87,0.501,4.515,1.307
		c0.695,0.869,0.432,2.625,0.213,3.594l-1.714,7.601l7.175-3.037c0.179-0.075,0.444-0.208,0.776-0.388
		c0.487-0.264,1.394-0.755,2.056-0.755c0.153,0,0.619,0,1.342,1.229C88.541,32.755,88.797,35.25,87.841,37.442z"/>
	<path fill="#040000" d="M16.835,33.375h3.303c1.911,0,3.46-1.549,3.46-3.46V26.46c0-1.911-1.549-3.46-3.46-3.46h-3.303
		c-1.911,0-3.46,1.549-3.46,3.46v3.455C13.375,31.826,14.924,33.375,16.835,33.375z"/>
	<path fill="#040000" d="M33.388,23h-3.303c-1.911,0-3.46,1.549-3.46,3.46v3.455c0,1.911,1.549,3.46,3.46,3.46h3.303
		c1.911,0,3.46-1.549,3.46-3.46V26.46C36.847,24.549,35.298,23,33.388,23z"/>
	<path fill="#040000" d="M46.499,23h-3.303c-1.911,0-3.46,1.549-3.46,3.46v3.455c0,1.911,1.549,3.46,3.46,3.46h3.303
		c1.911,0,3.46-1.549,3.46-3.46V26.46C49.959,24.549,48.41,23,46.499,23z"/>
	<path fill="#040000" d="M29.835,20.375h3.303c1.911,0,3.46-1.549,3.46-3.46V13.46c0-1.911-1.549-3.46-3.46-3.46h-3.303
		c-1.911,0-3.46,1.549-3.46,3.46v3.455C26.375,18.826,27.924,20.375,29.835,20.375z"/>
	<path fill="#040000" d="M43.085,20.375h3.303c1.911,0,3.46-1.549,3.46-3.46V13.46c0-1.911-1.549-3.46-3.46-3.46h-3.303
		c-1.911,0-3.46,1.549-3.46,3.46v3.455C39.625,18.826,41.174,20.375,43.085,20.375z"/>
</g>
</svg>
