<?xml version="1.0" encoding="utf-8"?>
<!-- Generator: Adobe Illustrator 17.0.0, SVG Export Plug-In . SVG Version: 6.00 Build 0)  -->
<!DOCTYPE svg PUBLIC "-//W3C//DTD SVG 1.1//EN" "http://www.w3.org/Graphics/SVG/1.1/DTD/svg11.dtd">
<svg version="1.1" id="Layer_1" xmlns="http://www.w3.org/2000/svg" xmlns:xlink="http://www.w3.org/1999/xlink" x="0px" y="0px"
	 width="96px" height="96px" viewBox="0 0 96 96" enable-background="new 0 0 96 96" xml:space="preserve">
<g>
	<g>
		<path d="M60,7.998c-15.673,0-28.998,10.02-33.942,24H24c-13.254,0-24,10.745-24,24.001C0,69.254,10.745,80,24,80
			c0-2.694,0-5.233,0-8.002c-8.836,0-16-7.163-16-16c0-8.837,7.164-16,16-16h8.298c1.942-13.566,13.599-24,27.702-24
			c15.464,0,28,12.536,28,28c0,15.464-8.536,28-24,28c0,2.825,0,5.227,0,8c19.882,0,32-16.118,32-36
			C96,24.116,79.882,7.998,60,7.998z"/>
	</g>
	<g>
		<path d="M41.855,92.71c0.026-0.058,0.061-0.112,0.085-0.171c0.091-0.227,0.165-0.464,0.215-0.713l6.276-31.379
			c0.433-2.166-0.972-4.273-3.138-4.706c-2.165-0.438-4.273,0.972-4.707,3.138l-4.382,21.909l-0.919-1.379
			c-1.225-1.838-3.708-2.337-5.547-1.109c-1.838,1.226-2.335,3.709-1.109,5.547l6.275,9.413c0.001,0.001,0.002,0.003,0.003,0.004
			c0.129,0.193,0.277,0.367,0.432,0.53c0.036,0.038,0.073,0.075,0.11,0.112c0.165,0.161,0.338,0.31,0.525,0.437
			c0.015,0.01,0.031,0.018,0.045,0.027c0.184,0.122,0.378,0.225,0.577,0.314c0.043,0.019,0.085,0.04,0.129,0.058
			c0.217,0.088,0.44,0.156,0.668,0.205c0.019,0.004,0.035,0.013,0.054,0.017c0.028,0.006,0.055,0.003,0.082,0.008
			c0.225,0.04,0.453,0.067,0.683,0.068c0.008,0,0.016,0.002,0.024,0.002c0.022,0,0.043-0.005,0.064-0.006
			c0.189-0.003,0.378-0.019,0.567-0.05c0.075-0.012,0.148-0.032,0.222-0.049c0.134-0.029,0.267-0.062,0.399-0.106
			c0.08-0.026,0.156-0.058,0.234-0.089c0.118-0.048,0.235-0.101,0.35-0.161c0.08-0.042,0.158-0.086,0.235-0.133
			c0.047-0.029,0.096-0.05,0.143-0.08c0.043-0.029,0.076-0.067,0.117-0.097c0.132-0.095,0.256-0.198,0.375-0.309
			c0.069-0.064,0.138-0.126,0.201-0.193c0.11-0.117,0.208-0.244,0.304-0.374c0.051-0.069,0.107-0.135,0.152-0.207
			C41.698,93.04,41.779,92.877,41.855,92.71z"/>
		<path d="M67.371,59.152l-6.276-9.414c-0.003-0.004-0.007-0.007-0.01-0.012c-0.144-0.214-0.308-0.413-0.491-0.596
			c-0.086-0.086-0.184-0.153-0.276-0.23c-0.108-0.09-0.209-0.187-0.327-0.265c-0.123-0.082-0.257-0.143-0.387-0.211
			c-0.101-0.052-0.194-0.114-0.3-0.158c-0.49-0.204-1.015-0.308-1.545-0.307c-0.073,0-0.143,0.015-0.215,0.02
			c-0.189,0.01-0.378,0.022-0.565,0.059c-0.087,0.017-0.167,0.051-0.252,0.074c-0.166,0.045-0.332,0.086-0.493,0.153
			c-0.151,0.063-0.29,0.149-0.433,0.23c-0.084,0.048-0.172,0.08-0.254,0.135c-0.057,0.038-0.101,0.087-0.155,0.128
			c-0.156,0.116-0.312,0.233-0.45,0.371c-0.095,0.094-0.17,0.202-0.253,0.304c-0.082,0.1-0.171,0.192-0.243,0.3
			c-0.084,0.125-0.146,0.261-0.214,0.394c-0.051,0.099-0.112,0.19-0.155,0.294c-0.102,0.245-0.18,0.498-0.232,0.758l-6.275,31.375
			c-0.433,2.166,0.972,4.273,3.138,4.706c0.265,0.054,0.528,0.079,0.788,0.079c1.868,0,3.538-1.315,3.918-3.217l4.382-21.91
			l0.92,1.38c0.771,1.156,2.039,1.781,3.332,1.781c0.762,0,1.533-0.217,2.215-0.672C68.1,63.474,68.597,60.99,67.371,59.152z"/>
	</g>
</g>
</svg>
