<?xml version="1.0" encoding="utf-8"?>
<!-- Generator: Adobe Illustrator 17.0.0, SVG Export Plug-In . SVG Version: 6.00 Build 0)  -->
<!DOCTYPE svg PUBLIC "-//W3C//DTD SVG 1.1//EN" "http://www.w3.org/Graphics/SVG/1.1/DTD/svg11.dtd">
<svg version="1.1" id="Layer_1" xmlns="http://www.w3.org/2000/svg" xmlns:xlink="http://www.w3.org/1999/xlink" x="0px" y="0px"
	 width="96px" height="96px" viewBox="0 0 96 96" enable-background="new 0 0 96 96" xml:space="preserve">
<path d="M90.434,48.985h-0.086c-1.138-6.898-14.48-8.192-20.597-8.421c0.009-0.127,0.026-0.251,0.026-0.382
	c0-0.144-0.018-0.28-0.028-0.419h0.028V12.661H69.7C68.51,5.444,52.42,5.062,49.095,5.062c-3.453,0-20.682,0.408-20.682,8.461v27
	c-5.283,0.083-22.154,1.009-22.154,9.423v30.204h0.033c0.7,8.492,19.24,8.936,23.016,8.936c2.733,0,13.202-0.233,19.045-3.579
	c5.841,3.345,16.298,3.579,19.03,3.579c3.849,0,23.05-0.454,23.05-9.43c0-0.16-0.02-0.312-0.032-0.467h0.032V48.985z M67.384,48.48
	c5.579,0,9.843,0.702,12.506,1.466c-2.664,0.764-6.927,1.466-12.506,1.466c-5.579,0-9.843-0.702-12.506-1.466
	C57.542,49.182,61.805,48.48,67.384,48.48z M49.095,12.208c5.006,0,8.832,0.63,11.222,1.316c-2.39,0.686-6.216,1.315-11.222,1.315
	s-8.832-0.63-11.222-1.315C40.264,12.838,44.09,12.208,49.095,12.208z M35.559,33.445v-7.548v-1.898v-3.738
	c5.169,1.59,11.575,1.724,13.536,1.724s8.368-0.134,13.536-1.724v2.677v9.993c0,0,0.395,5.247-1.921,7.034
	c-0.192,0.063-0.386,0.11-0.579,0.169c0.059,0.016,0.127,0.032,0.185,0.049c-0.803,0.231-1.783,0.452-2.901,0.649
	c-5.273,1.095-10.429,0.825-14.07,0.361c-1.803-0.198-3.347-0.473-4.587-0.777c-0.008-0.002-0.02-0.004-0.028-0.006
	c-0.022-0.004-0.04-0.013-0.061-0.018c-0.277-0.069-0.549-0.139-0.796-0.209c0.037-0.011,0.083-0.021,0.121-0.032
	c-2.396-0.893-2.436-4.205-2.436-4.205V33.445z M29.309,48.48c5.579,0,9.843,0.702,12.506,1.466
	c-2.664,0.764-6.927,1.466-12.506,1.466s-9.843-0.702-12.506-1.466C19.466,49.182,23.73,48.48,29.309,48.48z M42.254,79.414
	c-0.214,0.07-0.43,0.123-0.645,0.188c0.066,0.018,0.142,0.036,0.206,0.054c-0.895,0.257-1.987,0.504-3.233,0.723
	c-5.877,1.221-11.623,0.919-15.68,0.403c-2.009-0.221-3.73-0.527-5.112-0.866c-0.009-0.002-0.023-0.005-0.031-0.006
	c-0.024-0.005-0.045-0.014-0.068-0.02c-0.309-0.077-0.612-0.155-0.887-0.234c0.042-0.012,0.092-0.023,0.135-0.035
	c-2.671-0.995-2.715-4.687-2.715-4.687v-2.786v-8.412v-2.115v-4.166c5.761,1.772,12.9,1.921,15.086,1.921
	c2.179,0,9.276-0.149,15.026-1.904v16.87C44.158,76.139,43.649,78.338,42.254,79.414z M80.33,79.414
	c-0.214,0.07-0.43,0.123-0.645,0.188c0.066,0.018,0.142,0.036,0.206,0.054c-0.895,0.257-1.987,0.504-3.233,0.723
	c-5.877,1.221-11.623,0.919-15.68,0.403c-2.009-0.221-3.73-0.527-5.112-0.866c-0.009-0.002-0.023-0.005-0.031-0.006
	c-0.024-0.005-0.045-0.014-0.068-0.02c-0.309-0.077-0.612-0.155-0.887-0.234c0.042-0.012,0.092-0.023,0.135-0.035
	c-1.958-0.73-2.502-2.903-2.654-4.014V57.472c5.75,1.755,12.847,1.904,15.026,1.904c2.186,0,9.326-0.149,15.086-1.921v2.984v11.136
	C82.47,71.575,82.91,77.423,80.33,79.414z"/>
</svg>
