<?xml version="1.0" encoding="utf-8"?>
<!-- Generator: Adobe Illustrator 21.0.0, SVG Export Plug-In . SVG Version: 6.00 Build 0)  -->
<svg version="1.1" id="Layer_1" xmlns="http://www.w3.org/2000/svg" xmlns:xlink="http://www.w3.org/1999/xlink" x="0px" y="0px"
	 viewBox="0 0 96 96" style="enable-background:new 0 0 96 96;" xml:space="preserve">
<style type="text/css">
	.st0{fill:#231815;}
</style>
<g>
	<path class="st0" d="M49,26.7c-11.9,0-21.5,9.7-21.5,21.5c0,11.9,9.7,21.5,21.5,21.5c11.9,0,21.5-9.7,21.5-21.5
		C70.6,36.3,60.9,26.7,49,26.7z M49,61.7c-7.5,0-13.5-6.1-13.5-13.5S41.6,34.7,49,34.7c7.5,0,13.5,6.1,13.5,13.5S56.5,61.7,49,61.7z
		"/>
	<path class="st0" d="M25.3,60.7C19.6,60.7,15,65.4,15,71c0,5.7,4.6,10.3,10.3,10.3c5.7,0,10.3-4.6,10.3-10.3
		C35.6,65.4,31,60.7,25.3,60.7z M25.3,76.3c-2.9,0-5.3-2.4-5.3-5.3c0-2.9,2.4-5.3,5.3-5.3c2.9,0,5.3,2.4,5.3,5.3
		C30.6,73.9,28.2,76.3,25.3,76.3z"/>
	<path class="st0" d="M72,34.5c5.7,0,10.3-4.6,10.3-10.3c0-5.7-4.6-10.3-10.3-10.3c-5.7,0-10.3,4.6-10.3,10.3
		C61.7,29.9,66.3,34.5,72,34.5z M72,18.9c2.9,0,5.3,2.4,5.3,5.3s-2.4,5.3-5.3,5.3c-2.9,0-5.3-2.4-5.3-5.3S69.1,18.9,72,18.9z"/>
	<path class="st0" d="M81.9,37.9c-5.7,0-10.3,4.6-10.3,10.3s4.6,10.3,10.3,10.3c5.7,0,10.3-4.6,10.3-10.3S87.6,37.9,81.9,37.9z
		 M81.9,53.5c-2.9,0-5.3-2.4-5.3-5.3c0-2.9,2.4-5.3,5.3-5.3c2.9,0,5.3,2.4,5.3,5.3C87.2,51.1,84.8,53.5,81.9,53.5z"/>
	<path class="st0" d="M26.7,48.2c0-5.7-4.6-10.3-10.3-10.3c-5.7,0-10.3,4.6-10.3,10.3s4.6,10.3,10.3,10.3
		C22.1,58.5,26.7,53.9,26.7,48.2z M11.2,48.2c0-2.9,2.4-5.3,5.3-5.3c2.9,0,5.3,2.4,5.3,5.3c0,2.9-2.4,5.3-5.3,5.3
		C13.5,53.5,11.2,51.1,11.2,48.2z"/>
	<path class="st0" d="M49.2,71.3c-5.7,0-10.3,4.6-10.3,10.3s4.6,10.3,10.3,10.3s10.3-4.6,10.3-10.3S54.9,71.3,49.2,71.3z M49.2,86.9
		c-2.9,0-5.3-2.4-5.3-5.3c0-2.9,2.4-5.3,5.3-5.3c2.9,0,5.3,2.4,5.3,5.3C54.5,84.5,52.1,86.9,49.2,86.9z"/>
	<path class="st0" d="M47.5,24.3c5.7,0,10.3-4.6,10.3-10.3c0-5.7-4.6-10.3-10.3-10.3c-5.7,0-10.3,4.6-10.3,10.3
		C37.3,19.7,41.9,24.3,47.5,24.3z M47.5,8.8c2.9,0,5.3,2.4,5.3,5.3c0,2.9-2.4,5.3-5.3,5.3c-2.9,0-5.3-2.4-5.3-5.3
		C42.3,11.1,44.6,8.8,47.5,8.8z"/>
	<path class="st0" d="M24.6,34.5c5.7,0,10.3-4.6,10.3-10.3c0-5.7-4.6-10.3-10.3-10.3c-5.7,0-10.3,4.6-10.3,10.3
		C14.3,29.9,18.9,34.5,24.6,34.5z M24.6,18.9c2.9,0,5.3,2.4,5.3,5.3s-2.4,5.3-5.3,5.3c-2.9,0-5.3-2.4-5.3-5.3S21.7,18.9,24.6,18.9z"
		/>
	<path class="st0" d="M73.5,59.8c-5.7,0-10.3,4.6-10.3,10.3c0,5.7,4.6,10.3,10.3,10.3s10.3-4.6,10.3-10.3
		C83.8,64.4,79.2,59.8,73.5,59.8z M73.5,75.4c-2.9,0-5.3-2.4-5.3-5.3c0-2.9,2.4-5.3,5.3-5.3c2.9,0,5.3,2.4,5.3,5.3
		C78.8,73,76.5,75.4,73.5,75.4z"/>
</g>
</svg>
