<?xml version="1.0" encoding="utf-8"?>
<!-- Generator: Adobe Illustrator 21.0.0, SVG Export Plug-In . SVG Version: 6.00 Build 0)  -->
<svg version="1.1" id="Layer_1" xmlns="http://www.w3.org/2000/svg" xmlns:xlink="http://www.w3.org/1999/xlink" x="0px" y="0px"
	 viewBox="0 0 96 96" style="enable-background:new 0 0 96 96;" xml:space="preserve">
<style type="text/css">
	.st0{fill:#1A1D1E;}
</style>
<g>
	<path class="st0" d="M75.5,34.7l7.9-13.4L75.5,7.8H60.1l-7.9,13.5l7.9,13.4H75.5z M64.7,15.8h6.3l3.2,5.5L71,26.7h-6.3l-3.2-5.4
		L64.7,15.8z"/>
	<path class="st0" d="M80.6,39.3H60.8L51,56.4l9.8,17.1h19.8l9.8-17.1L80.6,39.3z M75.9,65.5H65.5l-5.2-9.1l5.2-9.1h10.5l5.2,9.1
		L75.9,65.5z"/>
	<path class="st0" d="M57,37L44.2,14.8H18.4L5.6,37l12.8,22.3h25.7L57,37z M23.1,51.3L14.9,37l8.2-14.2h16.5L47.7,37l-8.2,14.3H23.1
		z"/>
	<path class="st0" d="M34.3,62.8l-7.6,13.3l7.6,13.3h15.4l7.6-13.3l-7.6-13.3H34.3z M45,81.4h-6.1l-3-5.3l3-5.3H45l3,5.3L45,81.4z"
		/>
</g>
</svg>
