<?xml version="1.0" encoding="utf-8"?>
<!-- Generator: Adobe Illustrator 17.0.0, SVG Export Plug-In . SVG Version: 6.00 Build 0)  -->
<!DOCTYPE svg PUBLIC "-//W3C//DTD SVG 1.1//EN" "http://www.w3.org/Graphics/SVG/1.1/DTD/svg11.dtd">
<svg version="1.1" id="Layer_1" xmlns="http://www.w3.org/2000/svg" xmlns:xlink="http://www.w3.org/1999/xlink" x="0px" y="0px"
	 width="96px" height="96px" viewBox="0 0 96 96" enable-background="new 0 0 96 96" xml:space="preserve">
<g>
	<path fill="#040000" d="M48.928,6.176L6.66,21.849l0.923,3.337c1.413,5.114,2.115,9.577,2.793,13.894
		c2.086,13.277,3.735,23.763,23.528,37.388c5.393,3.712,10.418,8.767,12.069,10.428l2.928,2.928l2.666-2.615
		c1.824-1.788,6.741-6.406,13-10.647C82.24,64.591,90.014,26.534,90.336,24.92l0.63-3.155L48.928,6.176z M77.224,43.304
		C72.3,56.828,66.461,66.17,60.337,70.318c-4.688,3.177-8.679,6.547-11.343,8.962c-2.567-2.474-6.544-6.086-10.812-9.024
		C21.059,58.469,19.773,50.29,17.827,37.91c-0.537-3.418-1.132-7.199-2.115-11.372l33.216-12.318L82.234,26.57
		C81.371,30.17,79.713,36.47,77.224,43.304z"/>
	<path fill="#040000" d="M48,25.213c-0.246,0-0.487,0.004-0.728,0.013c-10.132,0.384-18.226,8.719-18.226,18.941
		s8.094,18.558,18.226,18.941c0.241,0.008,0.482,0.013,0.728,0.013s0.487-0.004,0.728-0.013
		c10.132-0.384,18.226-8.719,18.226-18.941S58.86,25.609,48.728,25.225C48.487,25.217,48.246,25.213,48,25.213z M48.004,29.598
		c1.693,2.206,4.609,6.807,5.096,12.846H42.9C43.386,36.43,46.311,31.812,48.004,29.598z M44.071,29.159
		c-1.925,2.908-4.235,7.512-4.626,13.285h-6.854C33.298,36.008,37.95,30.761,44.071,29.159z M32.591,45.89h6.854
		c0.392,5.768,2.697,10.373,4.622,13.281C37.946,57.572,33.298,52.325,32.591,45.89z M47.996,58.736
		c-1.693-2.206-4.609-6.807-5.096-12.846h10.2C52.614,51.903,49.693,56.521,47.996,58.736z M51.933,59.171
		c1.925-2.908,4.23-7.512,4.622-13.281h6.854C62.702,52.325,58.054,57.572,51.933,59.171z M63.409,42.444h-6.854
		c-0.392-5.773-2.701-10.377-4.626-13.285C58.05,30.761,62.702,36.008,63.409,42.444z"/>
</g>
</svg>
