<?xml version="1.0" encoding="utf-8"?>
<!-- Generator: Adobe Illustrator 17.0.0, SVG Export Plug-In . SVG Version: 6.00 Build 0)  -->
<!DOCTYPE svg PUBLIC "-//W3C//DTD SVG 1.1//EN" "http://www.w3.org/Graphics/SVG/1.1/DTD/svg11.dtd">
<svg version="1.1" id="Layer_1" xmlns="http://www.w3.org/2000/svg" xmlns:xlink="http://www.w3.org/1999/xlink" x="0px" y="0px"
	 width="96px" height="96px" viewBox="0 0 96 96" enable-background="new 0 0 96 96" xml:space="preserve">
<g>
	<path d="M60,2H21C14.372,2,9,7.372,9,14v68c0,6.628,5.372,12,12,12h54c6.628,0,12-5.372,12-12V30L60,2z M60,13.314L75.687,30H60
		V13.314z M79,82c0,1.441-0.735,2.39-1.172,2.828S76.441,86,75,86H21c-1.441,0-2.39-0.735-2.828-1.172S17,83.441,17,82V14
		c0-1.441,0.735-2.39,1.172-2.828S19.559,10,21,10h31v28h27V82z"/>
	<path d="M24,61c0,2.209,1.791,4,4,4h40c2.209,0,4-1.791,4-4s-1.791-4-4-4H28C25.791,57,24,58.791,24,61z"/>
	<path d="M68,71H28c-2.209,0-4,1.791-4,4s1.791,4,4,4h40c2.209,0,4-1.791,4-4S70.209,71,68,71z"/>
	<path d="M28,42c-2.209,0-4,1.791-4,4s1.791,4,4,4h24c2.209,0,4-1.791,4-4s-1.791-4-4-4H28z"/>
</g>
</svg>
