<?xml version="1.0" encoding="utf-8"?>
<!-- Generator: Adobe Illustrator 22.1.0, SVG Export Plug-In . SVG Version: 6.00 Build 0)  -->
<svg version="1.1" id="Layer_1" xmlns="http://www.w3.org/2000/svg" xmlns:xlink="http://www.w3.org/1999/xlink" x="0px" y="0px"
	 viewBox="0 0 96 96" style="enable-background:new 0 0 96 96;" xml:space="preserve">
<g>
	<ellipse cx="78.6" cy="46.9" rx="3.8" ry="3.8"/>
	<path d="M92.9,47.6c-0.8-8.7-6.7-14-10.6-15.9c-1-5.1-5.1-9.2-10.3-10.1c-1.2-0.2-2.5,0.1-3.5,0.8c-0.6,0.4-1,0.9-1.3,1.5
		c-0.1-0.5-0.3-1-0.4-1.3c-3-8.8-10.4-15.1-19.5-16.3c-8.3-1.2-16.4,2-21.8,8.6c-0.8,0.9-1,2.1-0.8,3.3s1.1,2.1,2.1,2.6
		c0.1,0.1,0.2,0.1,0.4,0.2c1.4,0.8,2,2.6,1.2,4.1c-0.4,0.7-1.1,1.3-1.9,1.5c-0.1,0-0.1,0-0.2,0v0c-1.4,0.3-2.8,0.8-4,1.3
		C8.4,33.3,0.4,48.6,3.8,63.4C7.3,79,19.2,88.5,29.2,89.9c0.2,0,0.5,0.1,12.4,0.1c5.8,0,14.5,0,27.3,0c2,0,3.6-1.6,3.7-3.6
		c0,0,0-0.2,0-0.5c0-2.3,0-8.5-1.8-13.6h2.9c3.4,0,6.5-2.1,7.8-5.3c0.7-1.7,0.9-3.5,0.5-5.1C89.5,59.4,93.6,54.3,92.9,47.6z
		 M77,55.3l-0.1,0c-1.2,0.2-2.2,0.9-2.9,1.8c-1.3,1.9-1.1,4.3,0.4,6c0,0,0.1,0.1,0.1,0.1c0.1,0.1,0.3,0.3,0.1,0.8
		c-0.1,0.2-0.3,0.6-0.9,0.6h-8.4c-1.9,0-3.6-1.1-4.3-2.9c0,0,0,0,0-0.1c-2.1-5.6-8.9-5.8-9.7-5.8c-2.2,0-4,2-3.7,4.4
		c0.3,1.9,1.9,3.2,3.8,3.3c1,0,2.5,0.5,2.6,0.9c2.7,6.8,6.2,7.9,8.3,7.9c0,0,0,0,0.1,0c0.1,0,0.1,0.1,0.2,0.2
		c1.4,1.4,2.3,5.6,2.5,9.8c-14.3,0-32.9,0-35,0c-7.2-1.1-16.2-8.7-18.9-20.6c-2.5-11.2,3.5-22.7,14-26.8c0.9-0.4,1.9-0.7,3-0.9
		c0,0,0.1,0,0.1,0c2.9-0.7,5.4-2.6,6.9-5.3c2-3.8,1.5-8.4-1-11.6c3.5-2.6,7.8-3.8,12.2-3.2c6.2,0.9,11.4,5.2,13.4,11.3
		c0.1,0.3,0.2,0.6,0.3,1c0,0,0,0.1,0,0.1c0.2,0.6,0.3,1.2,0.4,1.9c0,0.2,0.1,0.4,0.1,0.7c0.1,0.9,0.1,1.7,0.1,2.7
		c0,0.5-0.1,1-0.1,1.5c-0.2,1.7-0.7,3.2-1.4,4.7c-0.8,1.6-1.9,3.1-3.2,4.3c-2.5,2.3-5.7,3.6-9.1,3.7c-0.1,0-0.1,0-0.2,0
		c-0.2,0-0.5,0-0.7,0c-6.8,0.6-12.7,5.1-15.1,11.6c-1.5,4.1-1.5,8.5,0,12.6c0.6,1.5,2,2.5,3.5,2.5c0.5,0,1.1-0.1,1.6-0.4
		c1.7-0.9,2.5-3,1.8-4.9c-0.8-2.3-0.8-4.8,0-7.1c1.4-3.7,4.8-6.3,8.7-6.7c0.2,0,0.5,0,0.7,0c5-0.2,9.9-2.3,13.6-5.7
		c1-0.9,1.8-1.9,2.6-2.9c0.1,0,0.3,0,0.4,0c0.1,0,0.1,0,0.2,0c0.2,0,0.3,0,0.5-0.1c0,0,0.1,0,0.1,0c0,0,0.1,0,0.1,0
		c0.5-0.1,1-0.2,1.5-0.4c0,0,0.1,0,0.1,0c0.1,0,0.3-0.1,0.4-0.1c0.2-0.1,0.4-0.1,0.5-0.2c1.3-0.6,2.4-1.3,3.4-2.3
		c0.2-0.2,0.3-0.3,0.5-0.5c0.1-0.1,0.2-0.2,0.3-0.3c0.2-0.2,0.3-0.4,0.4-0.5c0.1-0.2,0.3-0.3,0.4-0.5c0.1-0.1,0.1-0.2,0.2-0.3
		c0.1-0.2,0.2-0.4,0.3-0.6c0.1-0.2,0.2-0.4,0.4-0.7c0-0.1,0.1-0.2,0.1-0.3c0.1-0.2,0.1-0.3,0.2-0.5c0.1-0.3,0.2-0.5,0.3-0.8
		c0.1-0.2,0.1-0.3,0.1-0.5c0-0.1,0.1-0.3,0.1-0.4c0-0.2,0.1-0.3,0.1-0.5c0-0.1,0-0.2,0.1-0.3c0.1-0.3,0.1-0.6,0.1-0.9
		c0-0.3,0-0.7,0-1c0-0.4,0-0.9-0.1-1.3c0.4,0.7,0.7,1.6,0.7,2.4c0.1,2.2,1.7,4,3.8,4.4c0.9,0.3,5.9,3.4,6.6,9.9
		C85.9,52.7,81.1,54.5,77,55.3z"/>
</g>
</svg>
