<?xml version="1.0" encoding="utf-8"?>
<!-- Generator: Adobe Illustrator 17.0.0, SVG Export Plug-In . SVG Version: 6.00 Build 0)  -->
<!DOCTYPE svg PUBLIC "-//W3C//DTD SVG 1.1//EN" "http://www.w3.org/Graphics/SVG/1.1/DTD/svg11.dtd">
<svg version="1.1" id="Layer_1" xmlns="http://www.w3.org/2000/svg" xmlns:xlink="http://www.w3.org/1999/xlink" x="0px" y="0px"
	 width="96px" height="96px" viewBox="0 0 96 96" enable-background="new 0 0 96 96" xml:space="preserve">
<g>
	<path d="M80,20H44L36,8H16C9.37,8,4,13.37,4,20v56c0,6.63,5.37,12,12,12h64c6.63,0,12-5.37,12-12V32C92,25.37,86.63,20,80,20z
		 M84,76c0,2.206-1.794,4-4,4H16c-2.206,0-4-1.794-4-4V20c0-2.206,1.794-4,4-4h16l5.414,8.438L39.718,28H44h36c2.206,0,4,1.794,4,4
		V76z"/>
	<path d="M67.594,57.411c0.239-2.559-0.034-5.204-0.928-7.787c-1.501-4.34-4.463-7.762-8.139-9.929
		c-0.08-0.354-0.176-0.708-0.298-1.059c-1.777-5.136-7.402-7.87-12.538-6.093c-3.408,1.179-5.747,4.054-6.424,7.354
		c-6.083,3.771-9.483,10.767-8.689,17.879c-2.176,2.571-2.991,6.187-1.812,9.595c1.777,5.137,7.401,7.87,12.538,6.093
		c0.351-0.122,0.689-0.264,1.017-0.421c3.976,1.552,8.496,1.765,12.836,0.264c0.177-0.061,0.341-0.142,0.515-0.208
		c2.539,1.931,5.964,2.602,9.198,1.483c5.136-1.777,7.87-7.401,6.093-12.538C70.3,60.129,69.102,58.549,67.594,57.411z
		 M47.292,38.337c2.088-0.722,4.366,0.385,5.088,2.472c0.722,2.088-0.385,4.366-2.472,5.088c-2.088,0.722-4.366-0.385-5.088-2.472
		S45.205,39.059,47.292,38.337z M39.4,67.521c-2.088,0.722-4.366-0.385-5.088-2.472c-0.722-2.088,0.385-4.366,2.472-5.088
		c2.088-0.722,4.366,0.385,5.088,2.472C42.595,64.521,41.488,66.799,39.4,67.521z M52.025,67.382
		c-1.583,0.402-3.184,0.468-4.724,0.237c0.785-2.08,0.878-4.433,0.096-6.693c-1.519-4.391-5.849-7.014-10.282-6.578
		c0.315-2.722,1.551-5.265,3.496-7.194c2.396,3.755,7.135,5.539,11.525,4.02c2.26-0.782,4.053-2.309,5.203-4.211
		c1.369,1.29,2.46,2.913,3.116,4.81c0.419,1.211,0.628,2.443,0.655,3.66c-0.895,0.048-1.798,0.212-2.686,0.519
		C53.655,57.601,50.964,62.568,52.025,67.382z M63.133,68.834c-2.088,0.722-4.366-0.385-5.088-2.472s0.385-4.366,2.472-5.088
		c2.088-0.722,4.366,0.385,5.088,2.472C66.328,65.834,65.221,68.112,63.133,68.834z"/>
</g>
</svg>
