<?xml version="1.0" encoding="utf-8"?>
<!-- Generator: Adobe Illustrator 17.0.0, SVG Export Plug-In . SVG Version: 6.00 Build 0)  -->
<!DOCTYPE svg PUBLIC "-//W3C//DTD SVG 1.1//EN" "http://www.w3.org/Graphics/SVG/1.1/DTD/svg11.dtd">
<svg version="1.1" id="Layer_1" xmlns="http://www.w3.org/2000/svg" xmlns:xlink="http://www.w3.org/1999/xlink" x="0px" y="0px"
	 width="96px" height="96px" viewBox="0 0 96 96" enable-background="new 0 0 96 96" xml:space="preserve">
<g>
	<path d="M95.148,46.475L73.189,8.441c-0.714-1.238-2.035-2-3.464-2H25.809c-1.429,0-2.75,0.762-3.464,2L0.386,46.475
		c-0.715,1.238-0.715,2.762,0,4l21.959,38.032c0.714,1.237,2.035,2,3.464,2h43.917c1.429,0,2.75-0.763,3.464-2l21.959-38.032
		C95.863,49.237,95.863,47.713,95.148,46.475z M67.416,82.508H28.119L8.469,48.475l19.65-34.034h39.297l19.649,34.034L67.416,82.508
		z"/>
	<path d="M61.583,28.25H34.917c-3.038,0-5.5,2.462-5.5,5.5v30.617c0,3.038,2.462,5.5,5.5,5.5h26.667c3.038,0,5.5-2.462,5.5-5.5
		V33.75C67.083,30.712,64.621,28.25,61.583,28.25z M58.208,61.708h-19.5c-1.312,0-2.375-1.063-2.375-2.375
		c0-1.312,1.063-2.375,2.375-2.375h19.5c1.312,0,2.375,1.063,2.375,2.375C60.583,60.645,59.52,61.708,58.208,61.708z M58.208,51.75
		h-19.5c-1.312,0-2.375-1.063-2.375-2.375c0-1.312,1.063-2.375,2.375-2.375h19.5c1.312,0,2.375,1.063,2.375,2.375
		C60.583,50.687,59.52,51.75,58.208,51.75z M58.208,41.75h-19.5c-1.312,0-2.375-1.063-2.375-2.375c0-1.312,1.063-2.375,2.375-2.375
		h19.5c1.312,0,2.375,1.063,2.375,2.375C60.583,40.687,59.52,41.75,58.208,41.75z"/>
</g>
</svg>
