<?xml version="1.0" encoding="utf-8"?>
<!-- Generator: Adobe Illustrator 22.1.0, SVG Export Plug-In . SVG Version: 6.00 Build 0)  -->
<svg version="1.1" id="Layer_1" xmlns="http://www.w3.org/2000/svg" xmlns:xlink="http://www.w3.org/1999/xlink" x="0px" y="0px"
	 viewBox="0 0 96 96" style="enable-background:new 0 0 96 96;" xml:space="preserve">
<path d="M73.3,20.8c5.2,0,9.4,4.2,9.4,9.4c0,4.2-2.8,7.8-6.6,9c-0.8,14.3-8.8,26.9-20.6,33c0,0.1,0,0.2,0,0.2c0,5.2-4.2,9.4-9.4,9.4
	s-9.4-4.2-9.4-9.4s4.2-9.4,9.4-9.4c2.4,0,4.5,0.9,6.2,2.3c9.4-5,15.8-15.3,16.3-27c-2.8-1.6-4.7-4.6-4.7-8.1
	C63.9,25,68.1,20.8,73.3,20.8z M87.5,40C91,44.3,93,49.7,93,55.4c0,13.3-10.7,24.1-24.1,24.5l-0.4,0l-0.4,0h-4.1
	c-2.1,0-3.8-1.7-3.8-3.8c0-2,1.6-3.6,3.6-3.7l0.2,0l4.1,0l0.3,0c9.5-0.2,17.1-7.7,17.1-17c0-3.9-1.4-7.6-3.8-10.6
	c-1.3-1.6-1.1-4,0.5-5.3S86.2,38.4,87.5,40z M10.5,58.6l0,0.1c0.2,7.3,6.1,13.3,13.5,13.6l0.3,0h4.4l0,0h0.7c2.1,0,3.8,1.7,3.8,3.7
	c0,2-1.6,3.6-3.6,3.7l-0.2,0l-4.7,0l0.1,0l-0.5,0l-0.4,0c-9.9-0.4-18-7.2-20.2-16.4C3.2,62.3,3,60.8,3,58.8v-0.3
	C3,47.2,11.8,38,23,37.1c0.8-12.8,11.6-22.9,24.7-22.9c4.9,0,9.6,1.4,13.6,4c1.7,1.1,2.2,3.5,1.1,5.2s-3.5,2.2-5.2,1.1
	c-2.8-1.8-6.1-2.8-9.5-2.8c-9.4,0-17.1,7.5-17.3,16.7c4.3,1.2,8.2,3.7,11.1,7.2c1.3,1.6,1.1,4-0.5,5.3c-1.6,1.3-4,1.1-5.3-0.5
	c-2.7-3.3-6.7-5.2-11.1-5.2c-7.7,0-14,6-14.1,13.3L10.5,58.6L10.5,58.6z M46.1,68.6c-2.1,0-3.8,1.7-3.8,3.8s1.7,3.8,3.8,3.8
	s3.8-1.7,3.8-3.8S48.2,68.6,46.1,68.6z M73.3,26.4c-2.1,0-3.8,1.7-3.8,3.8s1.7,3.7,3.8,3.7s3.8-1.7,3.8-3.7S75.4,26.4,73.3,26.4z"/>
</svg>
