<?xml version="1.0" encoding="utf-8"?>
<!-- Generator: Adobe Illustrator 17.0.0, SVG Export Plug-In . SVG Version: 6.00 Build 0)  -->
<!DOCTYPE svg PUBLIC "-//W3C//DTD SVG 1.1//EN" "http://www.w3.org/Graphics/SVG/1.1/DTD/svg11.dtd">
<svg version="1.1" id="Layer_1" xmlns="http://www.w3.org/2000/svg" xmlns:xlink="http://www.w3.org/1999/xlink" x="0px" y="0px"
	 width="96px" height="96px" viewBox="0 0 96 96" enable-background="new 0 0 96 96" xml:space="preserve">
<g>
	<path d="M80.331,6H49.669c-6.342,0-8.268,5.014-9.423,8.122L37.656,21H15.669C10.337,21,6,25.745,6,31.077v37.995
		C6,74.404,10.338,79,15.669,79H38c2.209,0,4-1.791,4-4c0-2.209-1.791-4-4-4H15.669C14.749,71,14,69.993,14,69.072V31.077
		C14,30.157,14.749,29,15.669,29h27.568l4.512-12.067c0.9-2.42,1.337-2.855,1.471-2.951c0.001,0,0.121,0.018,0.448,0.018H80.33
		c0.92,0,1.67,0.823,1.67,1.743v26.082c0,2.209,1.791,4,4,4c2.209,0,4-1.791,4-4V15.744C90,10.413,85.662,6,80.331,6z"/>
	<path d="M66,44c-12.683,0-23,10.317-23,23s10.317,23,23,23s23-10.317,23-23S78.683,44,66,44z M66,84c-9.374,0-17-7.626-17-17
		s7.626-17,17-17s17,7.626,17,17S75.374,84,66,84z"/>
	<path d="M74,56H58c-1.657,0-3,1.343-3,3s1.343,3,3,3h16c1.657,0,3-1.343,3-3S75.657,56,74,56z"/>
	<path d="M74,64H58c-1.657,0-3,1.343-3,3s1.343,3,3,3h16c1.657,0,3-1.343,3-3S75.657,64,74,64z"/>
	<path d="M74,72H58c-1.657,0-3,1.343-3,3s1.343,3,3,3h16c1.657,0,3-1.343,3-3S75.657,72,74,72z"/>
</g>
</svg>
