<?xml version="1.0" encoding="utf-8"?>
<!-- Generator: Adobe Illustrator 17.0.0, SVG Export Plug-In . SVG Version: 6.00 Build 0)  -->
<!DOCTYPE svg PUBLIC "-//W3C//DTD SVG 1.1//EN" "http://www.w3.org/Graphics/SVG/1.1/DTD/svg11.dtd">
<svg version="1.1" id="Layer_1" xmlns="http://www.w3.org/2000/svg" xmlns:xlink="http://www.w3.org/1999/xlink" x="0px" y="0px"
	 width="96px" height="96px" viewBox="0 0 96 96" enable-background="new 0 0 96 96" xml:space="preserve">
<g>
	<path fill="#040000" d="M88.856,68.92c-0.194-4.59-0.507-43.479-0.51-43.871l-0.005-0.598l-0.18-0.57
		c-0.191-0.611-5.018-14.965-32.24-14.965c-1.573,0-3.215,0.048-4.88,0.143C22.53,10.682,20.091,24.456,19.907,26.021l-0.042,0.355
		l0.022,0.357c0.134,2.171,0.415,6.404,0.825,10.966l-1.21,0l-0.536,0.549c-7.069,1.559-14.552,4.654-14.844,10.787
		c-0.194,4.094,1.107,13.177,2.457,22.129c0.314,2.085,0.586,3.886,0.664,4.595c0.196,1.784,0.493,8.28,0.493,9.124
		c0,1.501,0,5.487,13.171,5.487c2.501,0,4.6-0.264,6.239-0.783c3.911-1.241,4.854-3.845,5.069-5.278
		c0.492-0.258,1.718-0.631,3.573-0.631c0.382,0,0.732,0.017,1.047,0.042c-0.34,4.349,2.51,5.823,4.345,6.32
		c1.972,0.535,7.567,1.533,12.172,1.533c3.128,0,6.953-0.369,8.784-3.243c0.741-1.163,1.442-2.262,0.01-18.074l-0.25-6.178h7.96
		c-0.008,1.076,0.005,1.443,0.02,1.668c-0.004,0.226,0.003,0.535,0.016,0.898c0.007,0.197,0.019,0.535,0.021,0.887
		c-0.52,0.054-1.165,0.091-1.725,0.091l-3.812-0.017l-0.978,18.63l4.093,0.119c1.521,0.045,2.77,0.087,3.803,0.122
		c1.635,0.057,2.756,0.094,3.579,0.094c1.583,0,2.711-0.117,4.137-0.735C85.409,83.062,89.183,76.58,88.856,68.92z M75.826,78.497
		c-0.035,0.015-0.067,0.03-0.089,0.037c-0.018,0.004-0.195,0.038-0.866,0.038c-0.718,0-1.681-0.033-3.058-0.08l0.167-3.182
		c0.67-0.126,1.319-0.302,1.879-0.544c0.887-0.384,2.964-1.281,3.564-3.468l0.504-1.934l-0.096-0.133
		c0.115-1.093,0.079-2.121,0.054-2.86c-0.006-0.184-0.014-0.34-0.013-0.444c0.014-0.46-0.002-0.554-0.014-0.697
		c-0.008-0.143-0.023-0.927,0.057-5.072l0.08-4.078H53.563l0.593,14.602l0.014,0.199c0.41,4.517,0.769,9.85,0.807,12.625
		c-0.409,0.04-0.942,0.069-1.625,0.069c-2.671,0-6.067-0.454-8.292-0.867c0.092-0.944,0.057-2.093-0.449-3.274
		c-1.329-3.103-5.532-3.754-8.823-3.754c-6.136,0-10.331,2.401-11.307,6.354c-0.587,0.153-1.689,0.339-3.575,0.339
		c-1.939,0-3.874-0.202-5.273-0.426c-0.11-2.458-0.29-5.697-0.439-7.06c-0.096-0.868-0.352-2.565-0.706-4.913
		c-0.877-5.82-2.499-16.576-2.383-20.384c0.39-0.54,2.055-1.616,5.244-2.632l0.062,1.478l1.198-0.233
		c1.42,10.227,6.894,17.599,10.584,18.981c0.952,0.357,2.201,0.503,4.313,0.503c4.682,0,12.4-0.752,12.727-0.784l3.294-0.322
		l0.954-10.5h-4.38c-0.257,0-6.359,0.003-11.818,0.264c-0.099,0.004-0.195,0.007-0.289,0.007c-1.144,0-1.237,0-2.351-2.784
		c-0.284-0.71-0.603-1.508-0.994-2.321c-0.906-2.49-2.111-14.433-2.745-24.475c0.417-1.268,3.721-8.593,23.592-9.725
		c1.514-0.086,3.003-0.13,4.425-0.13c18.618,0,23.51,7.211,24.432,8.982c0.046,5.724,0.323,38.951,0.511,43.362
		C81.049,73.597,79.165,77.05,75.826,78.497z"/>
	<path fill="#040000" d="M48.2,43.707h16.527V27.18H48.2V43.707z M56.2,35.18h0.527v0.526H56.2V35.18z"/>
</g>
</svg>
