<?xml version="1.0" encoding="utf-8"?>
<!-- Generator: Adobe Illustrator 17.0.0, SVG Export Plug-In . SVG Version: 6.00 Build 0)  -->
<!DOCTYPE svg PUBLIC "-//W3C//DTD SVG 1.1//EN" "http://www.w3.org/Graphics/SVG/1.1/DTD/svg11.dtd">
<svg version="1.1" id="Layer_1" xmlns="http://www.w3.org/2000/svg" xmlns:xlink="http://www.w3.org/1999/xlink" x="0px" y="0px"
	 width="96px" height="96px" viewBox="0 0 96 96" enable-background="new 0 0 96 96" xml:space="preserve">
<path d="M83,8H68c-2.209,0-4,1.791-4,4v12h-4V12c0-2.209-1.791-4-4-4H40c-2.209,0-4,1.791-4,4v12h-4V12c0-2.209-1.791-4-4-4H12
	c-2.209,0-4,1.791-4,4v64.471C8,82.936,12.961,88,19.294,88H40h18h18.344C82.319,88,87,83.19,87,77.05V12C87,9.791,85.209,8,83,8z
	 M44,80V64h10v16H44z M79,77.05c0,1.466-0.912,2.95-2.656,2.95H62V60c0-2.209-1.791-4-4-4H40c-2.209,0-4,1.791-4,4v20H19.294
	C17.416,80,16,78.482,16,76.471V16h8v12c0,2.209,1.791,4,4,4h12c2.209,0,4-1.791,4-4V16h8v12c0,2.209,1.791,4,4,4h12
	c2.209,0,4-1.791,4-4V16h7V77.05z"/>
</svg>
