<?xml version="1.0" encoding="utf-8"?>
<!-- Generator: Adobe Illustrator 22.1.0, SVG Export Plug-In . SVG Version: 6.00 Build 0)  -->
<svg version="1.1" id="Layer_1" xmlns="http://www.w3.org/2000/svg" xmlns:xlink="http://www.w3.org/1999/xlink" x="0px" y="0px"
	 viewBox="0 0 96 96" style="enable-background:new 0 0 96 96;" xml:space="preserve">
<g>
	<path d="M83.5,8h-15c-2.2,0-9.8,0-12,0h-16c-2.2,0-9.8,0-12,0h-16c-2.2,0-4,1.8-4,4v64.5c0,6.5,5,11.5,11.3,11.5h20.7h18h18.3
		c6,0,10.7-4.8,10.7-11V12C87.5,9.8,85.7,8,83.5,8z M83.5,77c0,4-2.9,7-6.7,7H58.5h-18H19.8c-4.1,0-7.3-3.3-7.3-7.5V12h16h12h16h12
		h15V77z"/>
	<path d="M44.5,80h10V62c0-1.5-1.3-2.8-2.8-2.8h-4.4c-1.5,0-2.8,1.3-2.8,2.8V80z"/>
	<path d="M61.2,19.2v9.6H58v-9.6c0-1.8-1.4-3.2-3.2-3.2H42c-1.8,0-3.2,1.4-3.2,3.2v9.6h-3.2v-9.6c0-1.8-1.4-3.2-3.2-3.2H19.6
		c-1.8,0-3.2,1.4-3.2,3.2v51.6c0,0.4,0,0.8,0.1,1.2v3.5c0,2.5,2,4.5,4.5,4.5h3.5v0c0.3,0,0.7,0.1,1,0.1h13.4V57.6
		c0-1.8,1.4-3.2,3.2-3.2h14.4c1.8,0,3.2,1.4,3.2,3.2V80h11.5c0.3,0,0.6,0,1-0.1h3.1c2.5,0,4.5-2,4.5-4.5V72h0c0-0.3,0-0.5,0-0.8v-52
		c0-1.8-1.4-3.2-3.2-3.2h-12C62.6,16,61.2,17.4,61.2,19.2z"/>
</g>
</svg>
