<?xml version="1.0" encoding="utf-8"?>
<!-- Generator: Adobe Illustrator 21.0.0, SVG Export Plug-In . SVG Version: 6.00 Build 0)  -->
<svg version="1.1" id="Layer_1" xmlns="http://www.w3.org/2000/svg" xmlns:xlink="http://www.w3.org/1999/xlink" x="0px" y="0px"
	 viewBox="0 0 96 96" style="enable-background:new 0 0 96 96;" xml:space="preserve">
<style type="text/css">
	.st0{fill:#040000;}
</style>
<g>
	<path class="st0" d="M48,4.9L3.2,21.5l1,3.5c1.5,5.4,2.2,10.2,3,14.7c2.2,14.1,4,25.2,25,39.7c5.7,3.9,11.1,9.3,12.8,11.1l3.1,3.1
		l2.8-2.8c1.9-1.9,7.2-6.8,13.8-11.3c18.7-12.7,27-53.1,27.3-54.8l0.7-3.3L48,4.9z M78,44.3C72.8,58.6,66.6,68.6,60.1,73
		c-5,3.4-9.2,6.9-12,9.5c-2.7-2.6-6.9-6.5-11.5-9.6C18.4,60.4,17.1,51.7,15,38.6c-0.6-3.6-1.2-7.6-2.2-12.1L48,13.4l35.3,13.1
		C82.4,30.4,80.7,37,78,44.3z"/>
	<path class="st0" d="M27.7,30.3v1.5c0,2.8,2.3,5,5.1,5h28.3c2.8,0,5.1-2.2,5.1-5v-1.5c0-2.8-2.3-5-5.1-5H32.8
		C30,25.3,27.7,27.5,27.7,30.3z M62.4,30.3v1.5c0,0.6-0.5,1.2-1.2,1.2H32.8c-0.7,0-1.2-0.5-1.2-1.2v-1.5c0-0.6,0.5-1.2,1.2-1.2h28.3
		C61.8,29.1,62.4,29.6,62.4,30.3z"/>
	<path class="st0" d="M61.1,38.7H32.8c-2.8,0-5.1,2.2-5.1,5v1.5c0,2.8,2.3,5,5.1,5h28.3c2.8,0,5.1-2.2,5.1-5v-1.5
		C66.2,41,63.9,38.7,61.1,38.7z M62.4,45.3c0,0.6-0.5,1.2-1.2,1.2H32.8c-0.7,0-1.2-0.5-1.2-1.2v-1.5c0-0.6,0.5-1.2,1.2-1.2h28.3
		c0.7,0,1.2,0.5,1.2,1.2V45.3z"/>
	<path class="st0" d="M61.1,52.2H32.8c-2.8,0-5.1,2.2-5.1,5v1.5c0,2.8,2.3,5,5.1,5h28.3c2.8,0,5.1-2.2,5.1-5v-1.5
		C66.2,54.4,63.9,52.2,61.1,52.2z M62.4,58.7c0,0.6-0.5,1.2-1.2,1.2H32.8c-0.7,0-1.2-0.5-1.2-1.2v-1.5c0-0.6,0.5-1.2,1.2-1.2h28.3
		c0.7,0,1.2,0.5,1.2,1.2V58.7z"/>
</g>
</svg>
