<?xml version="1.0" encoding="utf-8"?>
<!-- Generator: Adobe Illustrator 17.0.0, SVG Export Plug-In . SVG Version: 6.00 Build 0)  -->
<!DOCTYPE svg PUBLIC "-//W3C//DTD SVG 1.1//EN" "http://www.w3.org/Graphics/SVG/1.1/DTD/svg11.dtd">
<svg version="1.1" id="Layer_1" xmlns="http://www.w3.org/2000/svg" xmlns:xlink="http://www.w3.org/1999/xlink" x="0px" y="0px"
	 width="96px" height="96px" viewBox="0 0 96 96" enable-background="new 0 0 96 96" xml:space="preserve">
<g>
	<path d="M77.454,8H18.545C12.73,8,8,12.666,8,18.4v3.2C8,27.334,12.73,32,18.545,32h58.91C83.27,32,88,27.334,88,21.6v-3.2
		C88,12.666,83.27,8,77.454,8z M80,21.6c0,1.323-1.142,2.4-2.545,2.4h-58.91C17.142,24,16,22.923,16,21.6v-3.2
		c0-1.323,1.142-2.4,2.545-2.4h58.909C78.858,16,80,17.077,80,18.4V21.6z"/>
	<path d="M77.454,36H18.545C12.73,36,8,40.666,8,46.4v3.2C8,55.334,12.73,60,18.545,60h58.91C83.27,60,88,55.334,88,49.6v-3.2
		C88,40.666,83.27,36,77.454,36z M80,49.6c0,1.323-1.142,2.4-2.545,2.4h-58.91C17.142,52,16,50.923,16,49.6v-3.2
		c0-1.323,1.142-2.4,2.545-2.4h58.909C78.858,44,80,45.077,80,46.4V49.6z"/>
	<path d="M77.454,64H18.545C12.73,64,8,68.666,8,74.4V77.6C8,83.334,12.73,88,18.545,88h58.91C83.27,88,88,83.334,88,77.6V74.4
		C88,68.666,83.27,64,77.454,64z M80,77.6c0,1.323-1.142,2.4-2.545,2.4h-58.91C17.142,80,16,78.923,16,77.6V74.4
		c0-1.323,1.142-2.4,2.545-2.4h58.909C78.858,72,80,73.077,80,74.4V77.6z"/>
</g>
</svg>
