<?xml version="1.0" encoding="utf-8"?>
<!-- Generator: Adobe Illustrator 17.0.0, SVG Export Plug-In . SVG Version: 6.00 Build 0)  -->
<!DOCTYPE svg PUBLIC "-//W3C//DTD SVG 1.1//EN" "http://www.w3.org/Graphics/SVG/1.1/DTD/svg11.dtd">
<svg version="1.1" id="Layer_1" xmlns="http://www.w3.org/2000/svg" xmlns:xlink="http://www.w3.org/1999/xlink" x="0px" y="0px"
	 width="96px" height="96px" viewBox="0 0 96 96" enable-background="new 0 0 96 96" xml:space="preserve">
<g>
	<path d="M94.7,46.2L73.2,8.9c-0.7-1.2-2-2-3.5-2h-43c-1.4,0-2.7,0.8-3.5,2L1.8,46.2c-0.7,1.2-0.7,2.8,0,4l21.5,37.2
		c0.7,1.2,2,2,3.5,2h43c1.4,0,2.8-0.8,3.5-2l21.5-37.2C95.4,48.9,95.4,47.4,94.7,46.2z M67.4,81.4H29L9.8,48.2L29,14.9h38.4
		l19.2,33.2L67.4,81.4z"/>
	<circle cx="37.7" cy="59.6" r="2"/>
	<path d="M62.7,36.2c-5.1,1.6-4.9,8.4-4.3,12.4H23.6l-0.3,2c-0.1,0.4-1.4,11,4.6,17.9c3.3,3.8,8.1,5.7,14.3,5.7c0,0,0,0,0,0
		c0.5,0,1.1,0,1.6,0c16.9-0.9,24.5-12.6,27.1-17.9c0.3-0.2,1.1-0.5,2.7-0.8c2.2-0.5,4-2,5-4.2c1.1-2.5,1-5.5-0.3-7.6
		c-1.5-2.6-3.6-3-4.8-3c-0.1,0-0.1,0-0.2,0c-0.2-1-0.7-1.8-1.1-2.3c-1.3-1.6-3.5-2.5-6.2-2.5C64.8,35.8,63.6,35.9,62.7,36.2z
		 M68.6,41.2c0.4,0.5,0.2,1.5,0.1,2.1l-1,4.4l4.2-1.8c0.1,0,0.3-0.1,0.4-0.2c0.3-0.2,0.8-0.4,1.2-0.4c0.1,0,0.4,0,0.8,0.7
		c0.4,0.7,0.6,2.2,0,3.4c-0.4,0.8-0.9,1.4-1.7,1.5c-1.7,0.4-5.4,1.2-5.9,3.4c-2.7,5.5-9.2,14.5-23.1,15.2c-0.5,0-0.9,0-1.4,0
		c0,0,0,0,0,0c-4.8,0-8.4-1.4-10.8-4.1c-3.3-3.8-3.7-9.3-3.6-12.2h36.3l-0.7-2.9c-0.9-3.7-1.1-9.1,0.7-9.7c0.3-0.1,1-0.2,1.9-0.2
		C67.2,40.4,68.2,40.7,68.6,41.2z"/>
	<path d="M32.5,46.7c1.7,0,3-1.3,3-3v-6c0-1.7-1.3-3-3-3s-3,1.3-3,3v6C29.5,45.3,30.8,46.7,32.5,46.7z"/>
	<path d="M41.5,46.7c1.7,0,3-1.3,3-3v-9.5c0-1.7-1.3-3-3-3s-3,1.3-3,3v9.5C38.5,45.3,39.8,46.7,41.5,46.7z"/>
	<path d="M50.5,46.7c1.7,0,3-1.3,3-3V29.2c0-1.7-1.3-3-3-3s-3,1.3-3,3v14.5C47.5,45.3,48.8,46.7,50.5,46.7z"/>
</g>
</svg>
