<?xml version="1.0" encoding="utf-8"?>
<!-- Generator: Adobe Illustrator 17.0.0, SVG Export Plug-In . SVG Version: 6.00 Build 0)  -->
<!DOCTYPE svg PUBLIC "-//W3C//DTD SVG 1.1//EN" "http://www.w3.org/Graphics/SVG/1.1/DTD/svg11.dtd">
<svg version="1.1" id="Layer_1" xmlns="http://www.w3.org/2000/svg" xmlns:xlink="http://www.w3.org/1999/xlink" x="0px" y="0px"
	 width="96px" height="96px" viewBox="0 0 96 96" enable-background="new 0 0 96 96" xml:space="preserve">
<g>
	<path d="M48,4C23.699,4,4,23.699,4,48c0,24.301,19.699,44,44,44s44-19.699,44-44C92,23.699,72.301,4,48,4z M48,84
		c-19.882,0-36-16.118-36-36c0-19.882,16.118-36,36-36s36,16.118,36,36C84,67.882,67.882,84,48,84z"/>
	<path d="M48,20c-15.464,0-28,12.536-28,28c0,15.464,12.536,28,28,28s28-12.536,28-28C76,32.536,63.464,20,48,20z M48,68
		c-11.046,0-20-8.954-20-20s8.954-20,20-20s20,8.954,20,20S59.046,68,48,68z"/>
	<path d="M48,36c-6.627,0-12,5.373-12,12s5.373,12,12,12s12-5.373,12-12S54.627,36,48,36z M48,52c-2.209,0-4-1.791-4-4
		c0-2.209,1.791-4,4-4s4,1.791,4,4C52,50.209,50.209,52,48,52z"/>
</g>
</svg>
