<?xml version="1.0" encoding="utf-8"?>
<!-- Generator: Adobe Illustrator 17.0.0, SVG Export Plug-In . SVG Version: 6.00 Build 0)  -->
<!DOCTYPE svg PUBLIC "-//W3C//DTD SVG 1.1//EN" "http://www.w3.org/Graphics/SVG/1.1/DTD/svg11.dtd">
<svg version="1.1" id="Layer_1" xmlns="http://www.w3.org/2000/svg" xmlns:xlink="http://www.w3.org/1999/xlink" x="0px" y="0px"
	 width="96px" height="96px" viewBox="0 0 96 96" enable-background="new 0 0 96 96" xml:space="preserve">
<g>
	<path fill="#040000" d="M81.173,6.305H14.527c-6.904,0-12.496,5.592-12.496,12.496v41.654c0,6.904,5.592,12.496,12.496,12.496
		h29.158v8.331H31.188c-2.3,0-4.165,1.865-4.165,4.165c0,2.3,1.865,4.165,4.165,4.165h33.323c2.3,0,4.165-1.865,4.165-4.165
		c0-2.3-1.865-4.165-4.165-4.165H52.015v-8.331h29.158c6.904,0,12.496-5.592,12.496-12.496V18.801
		C93.669,11.897,88.077,6.305,81.173,6.305z M85.338,60.455c0,2.302-1.864,4.166-4.165,4.166H14.527
		c-2.301,0-4.165-1.864-4.165-4.166V18.801c0-2.301,1.864-4.165,4.165-4.165h66.646c2.301,0,4.165,1.864,4.165,4.165V60.455z"/>
	<path fill="#040000" d="M61.066,25.844c-1.459-1.46-3.828-1.46-5.288,0l-7.929,7.928l-7.929-7.928c-1.46-1.46-3.827-1.46-5.287,0
		c-1.459,1.459-1.459,3.827,0,5.286l7.929,7.928l-7.929,7.929c-1.459,1.459-1.459,3.827,0,5.286c1.46,1.459,3.827,1.459,5.287,0
		l7.929-7.928l7.929,7.928c1.459,1.459,3.827,1.459,5.288,0c1.459-1.46,1.459-3.828,0-5.286l-7.93-7.929l7.93-7.928
		C62.525,29.669,62.525,27.302,61.066,25.844z"/>
</g>
</svg>
