<?xml version="1.0" encoding="utf-8"?>
<!-- Generator: Adobe Illustrator 22.1.0, SVG Export Plug-In . SVG Version: 6.00 Build 0)  -->
<svg version="1.1" id="Layer_1" xmlns="http://www.w3.org/2000/svg" xmlns:xlink="http://www.w3.org/1999/xlink" x="0px" y="0px"
	 viewBox="0 0 96 96" style="enable-background:new 0 0 96 96;" xml:space="preserve">
<path d="M91.6,43.9C91.6,43.9,91.6,43.9,91.6,43.9l-5.7,0c-0.4-4-1.5-7.8-3-11.3l5.2-3c1.9-1.1,2.6-3.5,1.5-5.5
	c-1.1-1.9-3.5-2.6-5.5-1.5l-5.2,3c-2.3-3.2-5.2-6.1-8.4-8.4l3-5.2c1.1-1.9,0.5-4.4-1.5-5.5c-1.9-1.1-4.4-0.5-5.5,1.5l-3,5.2
	c-3.6-1.6-7.5-2.7-11.6-3.1V4.6c0-2.2-1.8-4-4-4s-4,1.8-4,4v5.5c-4,0.4-7.9,1.5-11.5,3.1l-2.8-4.8c-1.1-1.9-3.5-2.6-5.5-1.5
	c-1.9,1.1-2.6,3.5-1.5,5.5l2.8,4.8c-3.2,2.4-6.1,5.2-8.5,8.5l-5.2-3c-1.9-1.1-4.4-0.4-5.5,1.5c-1.1,1.9-0.4,4.4,1.5,5.5l5.2,3
	c-1.6,3.6-2.6,7.4-3,11.5l-5.7,0c-2.2,0-4,1.8-4,4c0,2.2,1.8,4,4,4c0,0,0,0,0,0l5.7,0c0.4,4,1.5,7.8,3,11.3l-5.2,3
	c-1.9,1.1-2.6,3.5-1.5,5.5c0.7,1.3,2.1,2,3.5,2c0.7,0,1.4-0.2,2-0.5l5.2-3c2.3,3.2,5.2,6.1,8.4,8.4l-3,5.2c-1.1,1.9-0.5,4.4,1.5,5.5
	c0.6,0.4,1.3,0.5,2,0.5c1.4,0,2.7-0.7,3.5-2l3-5.2c3.6,1.6,7.5,2.7,11.6,3.1v5.5c0,2.2,1.8,4,4,4s4-1.8,4-4v-5.5
	c4-0.4,7.9-1.5,11.5-3.1l2.8,4.8c0.7,1.3,2.1,2,3.5,2c0.7,0,1.4-0.2,2-0.5c1.9-1.1,2.6-3.5,1.5-5.5l-2.8-4.8
	c3.2-2.4,6.1-5.2,8.5-8.5l5.2,3c0.6,0.4,1.3,0.5,2,0.5c1.4,0,2.7-0.7,3.5-2c1.1-1.9,0.4-4.4-1.5-5.5l-5.2-3c1.6-3.6,2.6-7.4,3-11.5
	l5.7,0c2.2,0,4-1.8,4-4C95.6,45.7,93.8,43.9,91.6,43.9z M77.8,51.9c-0.3,2.6-1,5.1-2,7.4l-10.6-6.1V41.5l-8,4.6v7.2L56.1,54
	l-2.8,1.6L52,56.4L51,57v9.2l1-0.6l1.2-0.7l6.9-4l1.2-0.7l10.5,6c-1.6,2.1-3.4,3.9-5.5,5.5c-2.1,1.6-4.4,3-6.9,4
	c-2.3,1-4.8,1.7-7.4,2c-1.3,0.2-2.6,0.3-4,0.3s-2.7-0.1-4-0.3c-2.6-0.3-5.2-1-7.5-2c-2.5-1-4.8-2.4-6.9-4c-2-1.6-3.9-3.4-5.4-5.5
	l10.5-6l1.2,0.7l6.9,4l1.2,0.7l1,0.6V57l-1-0.6l-1.3-0.7L39.9,54l-1.2-0.7v-7.2l-8-4.6v11.8l-10.6,6.1c-1-2.3-1.6-4.7-1.9-7.3
	c-0.2-1.3-0.3-2.7-0.3-4.1c0-1.3,0.1-2.6,0.3-3.9c0.3-2.6,1-5.1,2-7.4c1-2.5,2.4-4.8,4-6.9c1.6-2.1,3.4-3.9,5.5-5.5
	c2.1-1.6,4.4-3,6.9-4c2.3-1,4.8-1.7,7.4-2v12.2L42.8,31l-6.9,4l-1.2,0.7l-1,0.6l8,4.6l1-0.6l1.3-0.7l2.8-1.6l1.2-0.7l1.2,0.7
	l2.8,1.6l1.3,0.8l1,0.6l8-4.6l-1-0.6l-1.2-0.7l-6.9-4L52,30.4V18.2c2.6,0.3,5.2,1,7.5,2c2.5,1,4.8,2.4,6.9,4c2,1.6,3.9,3.4,5.4,5.5
	c1.6,2.1,3,4.4,4,6.9c1,2.3,1.6,4.7,1.9,7.3c0.2,1.3,0.3,2.7,0.3,4.1C78.1,49.3,78,50.6,77.8,51.9z"/>
</svg>
