<?xml version="1.0" encoding="utf-8"?>
<!-- Generator: Adobe Illustrator 17.0.0, SVG Export Plug-In . SVG Version: 6.00 Build 0)  -->
<!DOCTYPE svg PUBLIC "-//W3C//DTD SVG 1.1//EN" "http://www.w3.org/Graphics/SVG/1.1/DTD/svg11.dtd">
<svg version="1.1" id="Layer_1" xmlns="http://www.w3.org/2000/svg" xmlns:xlink="http://www.w3.org/1999/xlink" x="0px" y="0px"
	 width="96px" height="96px" viewBox="0 0 96 96" enable-background="new 0 0 96 96" xml:space="preserve">
<path fill="#231815" d="M19.559,84.366c-6.255,0-9.848-2.429-11.76-4.467C4.124,75.986,4.06,71.037,4.1,69.885V47.72
	c0-2.515,2.039-4.554,4.554-4.554s4.554,2.039,4.554,4.554v22.26c0,0.131,0.004,0.143-0.006,0.252c0,0.276,0.042,2.203,1.278,3.477
	c0.997,1.027,2.705,1.548,5.078,1.548c9.347,0,54.852-0.199,55.311-0.201c0.077,0,0.085-0.002,0.153,0.002c0.013,0,0.027,0,0.04,0
	c1.056,0,3.943-0.357,5.647-2.032c1.134-1.115,1.688-2.749,1.693-4.995c0.015-6.623,0.393-19.88,0.409-20.441
	c0.072-2.514,2.173-4.496,4.683-4.422c2.514,0.072,4.494,2.169,4.422,4.683c-0.004,0.136-0.39,13.698-0.405,20.201
	c-0.008,3.295-0.796,7.975-4.507,11.558c-4.647,4.487-11.027,4.576-12.159,4.555C72.883,84.174,28.763,84.366,19.559,84.366z
	 M69.221,62.614h-42.86c-2.515,0-4.554-2.039-4.554-4.554c0-2.515,2.039-4.554,4.554-4.554h42.86c2.515,0,4.554,2.039,4.554,4.554
	S71.737,62.614,69.221,62.614z M73.078,41.554H22.74c-2.515,0-4.554-2.039-4.554-4.554c0-2.515,2.039-4.554,4.554-4.554h50.339
	c2.515,0,4.554,2.039,4.554,4.554C77.632,39.515,75.594,41.554,73.078,41.554z M87.131,20.742H8.636
	c-2.515,0-4.554-2.039-4.554-4.554s2.039-4.554,4.554-4.554h78.495c2.515,0,4.554,2.039,4.554,4.554
	C91.685,18.704,89.646,20.742,87.131,20.742z"/>
</svg>
