<?xml version="1.0" encoding="utf-8"?>
<!-- Generator: Adobe Illustrator 22.1.0, SVG Export Plug-In . SVG Version: 6.00 Build 0)  -->
<svg version="1.1" id="Layer_1" xmlns="http://www.w3.org/2000/svg" xmlns:xlink="http://www.w3.org/1999/xlink" x="0px" y="0px"
	 viewBox="0 0 96 96" style="enable-background:new 0 0 96 96;" xml:space="preserve">
<g>
	<path d="M80.3,6H49.7c-6.3,0-8.3,5-9.4,8.1L37.7,21h-22C10.3,21,6,25.7,6,31.1v38c0,5.3,4.3,9.9,9.7,9.9H38c2.2,0,4-1.8,4-4
		s-1.8-4-4-4H15.7c-0.9,0-1.7-1-1.7-1.9v-38c0-0.9,0.7-2.1,1.7-2.1h27.6l4.5-12.1c0.9-2.4,1.3-2.9,1.5-3c0,0,0.1,0,0.4,0h30.7
		c0.9,0,1.7,0.8,1.7,1.7v26.1c0,2.2,1.8,4,4,4s4-1.8,4-4V15.7C90,10.4,85.7,6,80.3,6z"/>
</g>
<path d="M79.9,75.8c0-3.8-1.5-7.2-4-9.7c-1.6-1.6-3.5-2.8-5.7-3.4v-9.2h6v-8h-6v-4h-8v21.2c-5.7,1.7-9.8,7-9.8,13.2
	c0,3.8,1.5,7.2,4,9.7c2.5,2.5,5.9,4,9.7,4C73.7,89.5,79.9,83.4,79.9,75.8z M66.1,81.5c-1.5,0-3-0.6-4.1-1.7
	c-1.1-1.1-1.7-2.5-1.7-4.1s0.6-3,1.7-4.1c1.1-1.1,2.5-1.7,4.1-1.7c1.5,0,3,0.6,4.1,1.7c1.1,1.1,1.7,2.5,1.7,4.1
	C71.9,79,69.3,81.5,66.1,81.5z"/>
</svg>
