<?xml version="1.0" encoding="utf-8"?>
<!-- Generator: Adobe Illustrator 21.0.0, SVG Export Plug-In . SVG Version: 6.00 Build 0)  -->
<svg version="1.1" id="Layer_1" xmlns="http://www.w3.org/2000/svg" xmlns:xlink="http://www.w3.org/1999/xlink" x="0px" y="0px"
	 viewBox="0 0 96 96" style="enable-background:new 0 0 96 96;" xml:space="preserve">
<style type="text/css">
	.st0{fill:#040000;}
</style>
<g>
	<path class="st0" d="M69.7,3.8H25.4c-10.9,0-19.7,8.8-19.7,19.7v48.9c0,10.9,8.8,19.7,19.7,19.7h44.3c10.9,0,19.7-8.8,19.7-19.7
		V23.5C89.4,12.7,80.6,3.8,69.7,3.8z M81.4,72.5c0,6.4-5.2,11.7-11.7,11.7H25.4c-6.4,0-11.7-5.2-11.7-11.7V23.5
		c0-6.4,5.2-11.7,11.7-11.7h44.3c6.4,0,11.7,5.2,11.7,11.7V72.5z"/>
	<path class="st0" d="M44,61.5c-0.6,0.7-1.5,1.1-2.3,1.1c-0.7,0-1.3-0.2-1.9-0.7l-8.7-7v7.7c0,1.7-1.3,3-3,3s-3-1.3-3-3V35.8
		c0-1.7,1.3-3,3-3s3,1.3,3,3v7.4l8.1-7c1.3-1.1,3.1-0.9,4.2,0.3c1.1,1.3,0.9,3.1-0.3,4.2l-9.6,8.3l10,8.1
		C44.9,58.3,45.1,60.2,44,61.5z"/>
	<path class="st0" d="M71.6,38l-9.3,26c0,0,0,0.1-0.1,0.1c0,0.1-0.1,0.1-0.1,0.2c-0.1,0.1-0.1,0.2-0.2,0.3c0,0-0.1,0.1-0.1,0.1
		c-0.1,0.1-0.2,0.2-0.3,0.3c0,0,0,0-0.1,0.1c-0.1,0.1-0.3,0.2-0.4,0.3c0,0-0.1,0-0.1,0.1c-0.1,0.1-0.2,0.1-0.4,0.2c0,0,0,0-0.1,0
		c0,0-0.1,0-0.1,0c-0.1,0-0.2,0.1-0.4,0.1c0,0-0.1,0-0.1,0c-0.2,0-0.3,0-0.5,0c0,0,0,0,0,0c0,0,0,0,0,0s0,0,0,0c0,0,0,0,0,0
		c-0.2,0-0.3,0-0.5,0c0,0-0.1,0-0.1,0c-0.1,0-0.2-0.1-0.3-0.1c0,0,0,0-0.1,0c0,0-0.1,0-0.1,0c-0.1-0.1-0.3-0.1-0.4-0.2
		c0,0-0.1-0.1-0.1-0.1c-0.1-0.1-0.3-0.2-0.4-0.3c0,0,0,0,0,0c-0.1-0.1-0.2-0.2-0.3-0.4c0,0-0.1-0.1-0.1-0.1
		c-0.1-0.1-0.1-0.2-0.2-0.3c0-0.1-0.1-0.1-0.1-0.2c0,0,0-0.1-0.1-0.1l-9.9-25.4c-0.6-1.5,0.2-3.3,1.7-3.9c1.5-0.6,3.3,0.2,3.9,1.7
		l7,17.9L65.9,36c0.6-1.6,2.3-2.4,3.8-1.8C71.3,34.8,72.1,36.5,71.6,38z"/>
</g>
</svg>
