<?xml version="1.0" encoding="utf-8"?>
<!-- Generator: Adobe Illustrator 21.0.0, SVG Export Plug-In . SVG Version: 6.00 Build 0)  -->
<svg version="1.1" id="Layer_1" xmlns="http://www.w3.org/2000/svg" xmlns:xlink="http://www.w3.org/1999/xlink" x="0px" y="0px"
	 viewBox="0 0 96 96" style="enable-background:new 0 0 96 96;" xml:space="preserve">
<g>
	<path d="M85.1,45.5c0-20-15.9-36.4-35.7-37.1c-0.5,0-0.9,0-1.4,0s-1,0-1.4,0C26.7,9.2,10.9,25.5,10.9,45.5s15.9,36.4,35.7,37.1
		c0.5,0,0.9,0,1.4,0s1,0,1.4,0c1.3,0,2.6-0.2,3.9-0.4c3,2.4,6.8,3.9,10.9,3.9c9.5,0,17.2-7.7,17.2-17.2c0-2-0.3-3.8-0.9-5.6
		C83.5,58.1,85.1,52,85.1,45.5z M48,17c3.3,4.3,9,13.3,10,25.2H38C39,30.4,44.7,21.3,48,17z M40.3,16.1c-3.8,5.7-8.3,14.7-9.1,26
		H17.8C19.2,29.5,28.3,19.3,40.3,16.1z M17.8,48.9h13.4c0.8,11.3,5.3,20.3,9.1,26C28.3,71.8,19.2,61.5,17.8,48.9z M47,68.9
		c0,1.6,0.2,3.2,0.7,4.7c-3.4-4.5-8.7-13.3-9.7-24.7h20c-0.1,1.4-0.3,2.8-0.6,4.2C51.3,55.8,47,61.9,47,68.9z M64.2,82.2
		c-7.3,0-13.2-5.9-13.2-13.2s5.9-13.2,13.2-13.2s13.2,5.9,13.2,13.2S71.6,82.2,64.2,82.2z M76.3,56.6c-3.1-3-7.2-4.8-11.8-4.9
		c0.1-0.9,0.2-1.8,0.3-2.8h13.4C77.9,51.6,77.2,54.2,76.3,56.6z M64.8,42.2c-0.8-11.3-5.3-20.3-9.1-26c12,3.1,21.1,13.4,22.5,26
		H64.8z"/>
	<path d="M64,75.4h7v3.9H59.8v0h0V58.1H64V75.4z"/>
</g>
</svg>
