<?xml version="1.0" encoding="utf-8"?>
<!-- Generator: Adobe Illustrator 17.0.0, SVG Export Plug-In . SVG Version: 6.00 Build 0)  -->
<!DOCTYPE svg PUBLIC "-//W3C//DTD SVG 1.1//EN" "http://www.w3.org/Graphics/SVG/1.1/DTD/svg11.dtd">
<svg version="1.1" id="Layer_1" xmlns="http://www.w3.org/2000/svg" xmlns:xlink="http://www.w3.org/1999/xlink" x="0px" y="0px"
	 width="96px" height="96px" viewBox="0 0 96 96" enable-background="new 0 0 96 96" xml:space="preserve">
<g>
	<path fill="#040000" d="M30.335,45.602v-4.929l-4.018,4.017c-1.214,1.214-3.182,1.214-4.395,0c-1.215-1.214-1.215-3.182,0-4.395
		l9.324-9.324c1.214-1.215,3.182-1.215,4.395,0l9.324,9.324c0.607,0.607,0.911,1.403,0.911,2.198s-0.304,1.591-0.911,2.198
		c-1.214,1.214-3.182,1.214-4.395,0l-4.018-4.017v4.929"/>
	<g>
		<path fill="#040000" d="M48.093,4.732c-24.223,0-43.861,19.638-43.861,43.861c0,24.224,19.638,43.861,43.861,43.861
			c24.224,0,43.861-19.637,43.861-43.861C91.954,24.371,72.317,4.732,48.093,4.732z M48.093,84.48
			c-19.819,0-35.887-16.067-35.887-35.887s16.067-35.887,35.887-35.887s35.887,16.067,35.887,35.887S67.912,84.48,48.093,84.48z"/>
	</g>
	<path fill="#040000" d="M37.223,65.442c0,2.173-1.761,3.934-3.934,3.934l0,0c-2.173,0-3.934-1.761-3.934-3.934V40.319
		c0-2.173,1.761-3.934,3.934-3.934l0,0c2.173,0,3.934,1.761,3.934,3.934V65.442z"/>
	<path fill="#040000" d="M64.763,65.442c0,2.173-1.761,3.934-3.934,3.934l0,0c-2.173,0-3.934-1.761-3.934-3.934V40.319
		c0-2.173,1.761-3.934,3.934-3.934l0,0c2.173,0,3.934,1.761,3.934,3.934V65.442z"/>
	<path fill="#040000" d="M57.417,45.363v-4.929l-4.018,4.017c-1.214,1.214-3.182,1.214-4.395,0c-1.215-1.214-1.215-3.182,0-4.395
		l9.324-9.324c1.214-1.215,3.182-1.215,4.395,0l9.324,9.324c0.607,0.607,0.911,1.403,0.911,2.198s-0.304,1.591-0.911,2.198
		c-1.214,1.214-3.182,1.214-4.395,0l-4.018-4.017v4.929"/>
</g>
</svg>
