<?xml version="1.0" encoding="utf-8"?>
<!-- Generator: Adobe Illustrator 21.0.0, SVG Export Plug-In . SVG Version: 6.00 Build 0)  -->
<svg version="1.1" id="Layer_1" xmlns="http://www.w3.org/2000/svg" xmlns:xlink="http://www.w3.org/1999/xlink" x="0px" y="0px"
	 viewBox="0 0 96 96" style="enable-background:new 0 0 96 96;" xml:space="preserve">
<style type="text/css">
	.st0{fill:#040000;}
</style>
<g>
	<path class="st0" d="M76.1,39.8c-0.9-7.3-7.1-13.1-14.7-13.1c-0.8,0-1.5,0.1-2.2,0.2c-3.4-9.5-12.4-16-22.8-16
		C23,10.8,12.2,21.7,12.2,35c0,1,0.1,1.9,0.2,2.9C5.8,43.1,1.9,51,1.9,59.5c0,14.2,11.1,26.7,24.2,27.3l1.6,0c0.3,0,0.7,0,1.1,0
		c0.2,0,0.4,0,0.5,0l0,0c0.1,0,0.2,0,0.3,0c0.4,0,0.8,0,1.3-0.1H69c0.5,0,0.9,0,1.2,0c0.1,0,0.2,0,0.3,0c13.2,0,23.9-10.7,23.9-23.8
		C94.3,51.7,86.7,42.3,76.1,39.8z M70.5,79c-0.3,0-0.6,0-1,0.1c-0.1,0-0.2,0-0.2,0l-38.5,0l-0.2,0c-0.2,0-0.5,0-0.7,0
		c-0.2,0-0.4,0-0.6,0c-0.5,0-1,0-1.2,0l-0.8,0l-0.8,0c-8.9-0.4-16.8-9.6-16.8-19.6c0-6.7,3.4-12.9,9.1-16.6l2.3-1.5l-0.6-2.6
		c-0.3-1.3-0.4-2.5-0.4-3.8c0-9.1,7.4-16.5,16.5-16.5c8.1,0,15,5.8,16.3,13.8l0.8,5.2l4.7-2.4c1-0.5,2.1-0.8,3.2-0.8
		c3.9,0,7.1,3.2,7.1,7.1c0,0.3,0,0.6-0.1,1l-0.5,4l4,0.4c8.4,0.7,14.7,7.7,14.7,16.1C86.7,71.8,79.4,79,70.5,79z"/>
	<path class="st0" d="M59.2,43.1c-1.3-1.7-3.7-2-5.4-0.7c-1.7,1.3-2,3.7-0.7,5.4l1.4,1.8H27c-2.1,0-3.8,1.7-3.8,3.8s1.7,3.8,3.8,3.8
		h34.9c0.1,0,0.2,0,0.2,0c0.1,0,0.1,0,0.2,0c0.8,0,1.6-0.3,2.3-0.8c1.7-1.3,2-3.7,0.7-5.4L59.2,43.1z"/>
	<path class="st0" d="M61.4,61H26.4c-0.1,0-0.1,0-0.2,0c-0.9,0-1.8,0.2-2.6,0.8c-1.7,1.3-2,3.7-0.7,5.4l5.7,7.3c0.8,1,1.9,1.5,3,1.5
		c0.8,0,1.6-0.3,2.3-0.8c1.7-1.3,2-3.7,0.7-5.4l-0.9-1.2h27.6c2.1,0,3.8-1.7,3.8-3.8S63.5,61,61.4,61z"/>
</g>
</svg>
