<?xml version="1.0" encoding="utf-8"?>
<!-- Generator: Adobe Illustrator 17.0.0, SVG Export Plug-In . SVG Version: 6.00 Build 0)  -->
<!DOCTYPE svg PUBLIC "-//W3C//DTD SVG 1.1//EN" "http://www.w3.org/Graphics/SVG/1.1/DTD/svg11.dtd">
<svg version="1.1" id="Layer_1" xmlns="http://www.w3.org/2000/svg" xmlns:xlink="http://www.w3.org/1999/xlink" x="0px" y="0px"
	 width="96px" height="96px" viewBox="0 0 96 96" enable-background="new 0 0 96 96" xml:space="preserve">
<g>
	<path fill="#231815" d="M60,11.999c-15.673,0-28.998,10.02-33.942,24H24C10.746,35.999,0,46.744,0,60
		c0,13.255,10.746,24.001,24.001,24.001c0.026,0,0.051-0.002,0.077-0.002H60c19.882,0,36-16.118,36-36
		C96,28.117,79.882,11.999,60,11.999z M60,75.999H24c-8.836,0-16-7.163-16-16c0-8.837,7.164-16,16-16h8.298
		c1.942-13.566,13.599-24,27.702-24c15.464,0,28,12.536,28,28C88,63.463,75.464,75.999,60,75.999z"/>
	<path fill="#231815" d="M63.008,43.727c0-0.693-0.562-1.254-1.254-1.254H38.56c-0.693,0-1.254,0.562-1.254,1.254v18.492
		c0,0.693,0.562,1.254,1.254,1.254h23.194c0.693,0,1.254-0.562,1.254-1.254v-5.076l8.776,5.076l0.015-18.483l-8.791,5.066V43.727z"
		/>
</g>
</svg>
