<?xml version="1.0" encoding="utf-8"?>
<!-- Generator: Adobe Illustrator 17.0.0, SVG Export Plug-In . SVG Version: 6.00 Build 0)  -->
<!DOCTYPE svg PUBLIC "-//W3C//DTD SVG 1.1//EN" "http://www.w3.org/Graphics/SVG/1.1/DTD/svg11.dtd">
<svg version="1.1" id="Layer_1" xmlns="http://www.w3.org/2000/svg" xmlns:xlink="http://www.w3.org/1999/xlink" x="0px" y="0px"
	 width="96px" height="96px" viewBox="0 0 96 96" enable-background="new 0 0 96 96" xml:space="preserve">
<g>
	<path d="M44.604,69.623c-2.243,0-4.067,1.825-4.067,4.067s1.824,4.067,4.067,4.067s4.067-1.825,4.067-4.067
		S46.847,69.623,44.604,69.623z"/>
	<path d="M85.654,26.174L63.487,6.508L60.833,5.5H26.672c-8.458,0-15.338,6.881-15.338,15.338v54.657
		c0,8.457,6.881,15.338,15.338,15.338h44.989C80.119,90.833,87,83.952,87,75.495V29.167L85.654,26.174z M59.848,25.797l0.027-11.8
		l15.925,14.128H62.75c-0.679,0-1.896-0.083-2.413-0.642C59.908,27.021,59.827,26.098,59.848,25.797z M31.79,79.188
		c0,1.921-1.557,3.478-3.478,3.478c-1.921,0-3.478-1.557-3.478-3.478v-15.96c0-1.921,1.557-3.478,3.478-3.478
		c1.921,0,3.478,1.557,3.478,3.478V79.188z M44.604,82.667c-4.95,0-8.977-4.027-8.977-8.977c0-4.95,4.027-8.977,8.977-8.977
		s8.977,4.027,8.977,8.977C53.581,78.64,49.554,82.667,44.604,82.667z M74.413,74.449c-0.388,4.595-4.245,8.218-8.939,8.218
		c-4.95,0-8.977-4.027-8.977-8.977c0-4.95,4.027-8.977,8.977-8.977c0.605,0,1.212,0.061,1.803,0.181l-0.002,0.009
		c1.18,0.179,2.086,1.188,2.086,2.418c0,1.356-1.099,2.455-2.455,2.455c-0.21,0-0.41-0.034-0.605-0.084l-0.003,0.014
		c-0.27-0.055-0.547-0.083-0.825-0.083c-2.242,0-4.067,1.825-4.067,4.067s1.825,4.067,4.067,4.067c1.375,0,2.589-0.691,3.326-1.74
		h-1.51c-1.187,0-2.148-0.962-2.148-2.148s0.962-2.148,2.148-2.148h5.064c1.187,0,2.148,0.962,2.148,2.148
		C74.503,74.071,74.466,74.263,74.413,74.449z M79,56.625H19.333V20.838c0-4.046,3.292-7.338,7.338-7.338H51.9
		c-0.005,0.084-0.025,0.164-0.025,0.25v11.424c-0.075,1.121-0.089,4.736,2.471,7.61c1.356,1.524,3.915,3.34,8.404,3.34H79V56.625z"
		/>
</g>
</svg>
