<?xml version="1.0" encoding="utf-8"?>
<!-- Generator: Adobe Illustrator 21.0.0, SVG Export Plug-In . SVG Version: 6.00 Build 0)  -->
<svg version="1.1" id="Layer_1" xmlns="http://www.w3.org/2000/svg" xmlns:xlink="http://www.w3.org/1999/xlink" x="0px" y="0px"
	 viewBox="0 0 96 96" style="enable-background:new 0 0 96 96;" xml:space="preserve">
<style type="text/css">
	.st0{fill:#040000;}
</style>
<g>
	<path class="st0" d="M49.2,1.2L0.8,87.6h94.5L49.2,1.2z M31.8,67.9c6.9,0,12.7,5.1,13.6,11.7H18.2C19.1,73,24.9,67.9,31.8,67.9z
		 M79,79.6H51.8c1-6.6,6.7-11.7,13.6-11.7S78.1,73,79,79.6z M73.5,63.6c-2.5-1.1-5.2-1.7-8.1-1.7c-7.1,0-13.3,3.7-16.8,9.3
		c-3.5-5.6-9.7-9.3-16.8-9.3c-3,0-5.9,0.7-8.5,1.9L49,17.9L73.5,63.6z"/>
	<path class="st0" d="M49.6,58.4c5.3,0,9.6-4.3,9.6-9.6c0-5.3-4.3-9.6-9.6-9.6S40,43.5,40,48.8C40,54.1,44.3,58.4,49.6,58.4z
		 M49.6,45.1c2,0,3.6,1.6,3.6,3.6s-1.6,3.6-3.6,3.6c-2,0-3.6-1.6-3.6-3.6S47.6,45.1,49.6,45.1z"/>
</g>
</svg>
