<?xml version="1.0" encoding="utf-8"?>
<!-- Generator: Adobe Illustrator 17.0.0, SVG Export Plug-In . SVG Version: 6.00 Build 0)  -->
<!DOCTYPE svg PUBLIC "-//W3C//DTD SVG 1.1//EN" "http://www.w3.org/Graphics/SVG/1.1/DTD/svg11.dtd">
<svg version="1.1" id="Layer_1" xmlns="http://www.w3.org/2000/svg" xmlns:xlink="http://www.w3.org/1999/xlink" x="0px" y="0px"
	 width="96px" height="96px" viewBox="0 0 96 96" enable-background="new 0 0 96 96" xml:space="preserve">
<g>
	<path d="M68,24v-4C68,8.954,59.046,0,48,0S28,8.954,28,20v4H12v60c0,6.63,5.37,12,12,12h48c6.63,0,12-5.37,12-12V24H68z M36,20
		c0-6.627,5.373-12,12-12s12,5.373,12,12v4H36V20z M76,84c0,2.21-1.79,4-4,4H24c-2.21,0-4-1.79-4-4V32h56V84z"/>
	<path d="M47.938,76c5.617,0,10.156-1.915,13.489-5.69c7.215-8.174,5.555-22.212,5.48-22.806c-0.273-2.191-2.274-3.749-4.465-3.473
		c-2.192,0.274-3.747,2.273-3.473,4.465c0.381,3.048,0.487,11.956-3.54,16.519C53.656,67.023,51.206,68,47.938,68
		c-3.26,0-5.707-0.972-7.479-2.972c-4.006-4.521-3.922-13.466-3.551-16.537c0.271-2.19-1.283-4.187-3.474-4.461
		c-2.191-0.272-4.191,1.281-4.465,3.473c-0.074,0.594-1.734,14.633,5.481,22.806C37.783,74.085,42.321,76,47.938,76z"/>
</g>
</svg>
