<?xml version="1.0" encoding="utf-8"?>
<!-- Generator: Adobe Illustrator 17.0.0, SVG Export Plug-In . SVG Version: 6.00 Build 0)  -->
<!DOCTYPE svg PUBLIC "-//W3C//DTD SVG 1.1//EN" "http://www.w3.org/Graphics/SVG/1.1/DTD/svg11.dtd">
<svg version="1.1" id="Layer_1" xmlns="http://www.w3.org/2000/svg" xmlns:xlink="http://www.w3.org/1999/xlink" x="0px" y="0px"
	 width="96px" height="96px" viewBox="0 0 96 96" enable-background="new 0 0 96 96" xml:space="preserve">
<path d="M72,72c-2.2,0-4,1.8-4,4c0,4.4-3.6,8-8,8s-8-3.6-8-8V52h44c0-2.7-0.2-5.4-0.7-8C91.5,21.3,71.8,4,48,4S4.5,21.3,0.7,44
	C0.2,46.6,0,49.3,0,52h44v24c0,8.8,7.2,16,16,16s16-7.2,16-16C76,73.8,74.2,72,72,72z M48,12c19.4,0,35.5,13.7,39.2,32H8.8
	C12.5,25.7,28.6,12,48,12z"/>
</svg>
