<?xml version="1.0" encoding="utf-8"?>
<!-- Generator: Adobe Illustrator 21.0.0, SVG Export Plug-In . SVG Version: 6.00 Build 0)  -->
<svg version="1.1" id="Layer_1" xmlns="http://www.w3.org/2000/svg" xmlns:xlink="http://www.w3.org/1999/xlink" x="0px" y="0px"
	 viewBox="0 0 96 96" style="enable-background:new 0 0 96 96;" xml:space="preserve">
<style type="text/css">
	.st0{fill:#040000;}
</style>
<g>
	<path class="st0" d="M67.1,49L40.8,27.6c-1.3-1.1-3.1-1.3-4.7-0.6c-1.5,0.7-2.5,2.3-2.5,4v39.2c0,1.6,0.9,3.1,2.3,3.9
		c0.6,0.3,1.4,0.5,2.1,0.5c0.9,0,1.7-0.3,2.5-0.8L66.8,56c1.1-0.8,1.9-2.1,1.9-3.4C68.7,51.2,68.2,49.9,67.1,49z M42.4,61.9V40.2
		L57,52.1L42.4,61.9z"/>
	<path class="st0" d="M90.5,22.9v13c0,1.5-0.8,2.9-2,3.7c-0.7,0.6-1.6,0.9-2.6,0.9h-13c-2.4,0-4.4-2-4.4-4.4s2-4.4,4.4-4.4h3.3
		c-2.7-2.7-4.7-4.6-5.5-5.4c-3.2-3.2-6.9-5.7-11.1-7.4c-4-1.6-8.3-2.5-12.6-2.5s-8.6,0.8-12.6,2.5c-4.2,1.7-7.9,4.2-11.1,7.4
		c-3.2,3.2-5.7,6.9-7.4,11.1c-1.6,4-2.5,8.3-2.5,12.6c0,4.4,0.8,8.6,2.5,12.6c1.7,4.2,4.2,7.9,7.4,11.1c3.2,3.2,6.9,5.7,11.1,7.4
		c4,1.6,8.3,2.5,12.6,2.5s8.6-0.8,12.6-2.5c4.2-1.7,7.9-4.2,11.1-7.4c1.8-1.8,3.4-3.8,4.7-5.9c1.3-2.1,2.4-4.3,3.2-6.6
		c0.8-2.2,3.2-3.3,5.4-2.6c2.2,0.8,3.3,3.2,2.6,5.4c-1,2.9-2.4,5.7-4,8.3c-1.7,2.7-3.7,5.2-5.9,7.4c-4,4-8.7,7.1-13.9,9.2
		c-2.5,1-5.1,1.8-7.8,2.3c-2.6,0.5-5.3,0.8-8,0.8s-5.4-0.3-8-0.8c-2.7-0.5-5.3-1.3-7.8-2.3c-5.2-2.1-9.9-5.2-13.9-9.2
		c-4-4-7.1-8.7-9.2-13.9c-1-2.5-1.8-5.1-2.3-7.8C5.2,55.4,5,52.7,5,50c0-2.7,0.3-5.4,0.8-8c0.5-2.7,1.3-5.3,2.3-7.8
		c2.1-5.2,5.2-9.9,9.2-13.9c4-4,8.7-7.1,13.9-9.2c2.5-1,5.1-1.8,7.8-2.3C41.6,8.3,44.3,8,47,8s5.4,0.3,8,0.8
		c2.7,0.5,5.3,1.3,7.8,2.3c5.2,2.1,9.9,5.2,13.9,9.2c0.7,0.7,2.5,2.5,5,4.9v-2.4c0-2.4,2-4.4,4.4-4.4S90.5,20.4,90.5,22.9z"/>
</g>
</svg>
