<?xml version="1.0" encoding="utf-8"?>
<!-- Generator: Adobe Illustrator 17.0.0, SVG Export Plug-In . SVG Version: 6.00 Build 0)  -->
<!DOCTYPE svg PUBLIC "-//W3C//DTD SVG 1.1//EN" "http://www.w3.org/Graphics/SVG/1.1/DTD/svg11.dtd">
<svg version="1.1" id="Layer_1" xmlns="http://www.w3.org/2000/svg" xmlns:xlink="http://www.w3.org/1999/xlink" x="0px" y="0px"
	 width="96px" height="96px" viewBox="0 0 96 96" enable-background="new 0 0 96 96" xml:space="preserve">
<path d="M32,4H16C9.4,4,4,9.4,4,16v16c0,6.6,5.4,12,12,12h16c6.6,0,12-5.4,12-12V16C44,9.4,38.6,4,32,4z M36,32c0,2.2-1.8,4-4,4H16
	c-2.2,0-4-1.8-4-4V16c0-2.2,1.8-4,4-4h16c2.2,0,4,1.8,4,4V32z M80,4H64c-6.6,0-12,5.4-12,12v16c0,6.6,5.4,12,12,12h16
	c6.6,0,12-5.4,12-12V16C92,9.4,86.6,4,80,4z M84,32c0,2.2-1.8,4-4,4H64c-2.2,0-4-1.8-4-4V16c0-2.2,1.8-4,4-4h16c2.2,0,4,1.8,4,4V32z
	 M80,52H64c-6.6,0-12,5.4-12,12v16c0,6.6,5.4,12,12,12h16c6.6,0,12-5.4,12-12V64C92,57.4,86.6,52,80,52z M84,80c0,2.2-1.8,4-4,4H64
	c-2.2,0-4-1.8-4-4V64c0-2.2,1.8-4,4-4h16c2.2,0,4,1.8,4,4V80z M32,52H16C9.4,52,4,57.4,4,64v16c0,6.6,5.4,12,12,12h16
	c6.6,0,12-5.4,12-12V64C44,57.4,38.6,52,32,52z M36,80c0,2.2-1.8,4-4,4H16c-2.2,0-4-1.8-4-4V64c0-2.2,1.8-4,4-4h16c2.2,0,4,1.8,4,4
	V80z"/>
</svg>
