<?xml version="1.0" encoding="utf-8"?>
<!-- Generator: Adobe Illustrator 17.0.0, SVG Export Plug-In . SVG Version: 6.00 Build 0)  -->
<!DOCTYPE svg PUBLIC "-//W3C//DTD SVG 1.1//EN" "http://www.w3.org/Graphics/SVG/1.1/DTD/svg11.dtd">
<svg version="1.1" id="Layer_1" xmlns="http://www.w3.org/2000/svg" xmlns:xlink="http://www.w3.org/1999/xlink" x="0px" y="0px"
	 width="96px" height="96px" viewBox="0 0 96 96" enable-background="new 0 0 96 96" xml:space="preserve">
<path d="M92,48C92,23.7,72.301,4,48,4C23.7,4,4,23.7,4,48c0,24.301,19.7,44,44,44c22.388,0,40.856-16.724,43.628-38.358
	c0.262-0.577,0.407-1.216,0.365-1.892c-0.015-0.233-0.059-0.457-0.111-0.677C91.951,50.057,92,49.034,92,48z M48,84
	c-17.099,0-31.403-11.925-35.076-27.909l10.744,0.895c1.667,0.131,3.24-0.771,3.951-2.283l4.49-9.541l12.313,24.626
	C45.103,71.15,46.493,72,47.999,72c0.094,0,0.189-0.003,0.285-0.01c1.614-0.115,3-1.19,3.511-2.726l9.171-27.513l7.562,13.232
	c0.757,1.325,2.199,2.101,3.723,2.008l10.773-0.673C79.267,72.188,65.017,84,48,84z M83.994,48.243l-9.757,0.61L63.473,30.016
	c-0.783-1.37-2.29-2.152-3.867-1.996c-1.569,0.155-2.901,1.219-3.4,2.715l-8.946,26.839L35.578,34.211
	C34.899,32.855,33.514,32,32,32c-0.016,0-0.032,0-0.048,0c-1.532,0.018-2.919,0.91-3.572,2.296l-6.817,14.486l-9.231-0.77
	C12.219,48.004,12.112,48.02,12,48.02c0-0.007,0-0.013,0-0.02c0-19.882,16.118-36,36-36s36,16.118,36,36
	C84,48.081,83.994,48.161,83.994,48.243z"/>
</svg>
