<?xml version="1.0" encoding="utf-8"?>
<!-- Generator: Adobe Illustrator 17.0.0, SVG Export Plug-In . SVG Version: 6.00 Build 0)  -->
<!DOCTYPE svg PUBLIC "-//W3C//DTD SVG 1.1//EN" "http://www.w3.org/Graphics/SVG/1.1/DTD/svg11.dtd">
<svg version="1.1" id="Layer_1" xmlns="http://www.w3.org/2000/svg" xmlns:xlink="http://www.w3.org/1999/xlink" x="0px" y="0px"
	 width="96px" height="96px" viewBox="0 0 96 96" enable-background="new 0 0 96 96" xml:space="preserve">
<g>
	<path d="M92.663,73.454l-4.75,4.75c-0.586,0.586-1.354,0.879-2.121,0.879s-1.535-0.293-2.121-0.879
		c-0.95-0.949-1.116-2.371-0.526-3.502c-0.897-0.029-1.92-0.097-3.086-0.226c-5.557-0.617-8.049-5.75-8.014-10.257
		c-0.001-0.181-0.061-22.311,0-29.254c0.02-2.23-0.751-2.941-1.005-3.175c-1.171-1.081-3.37-1.136-3.85-1.097
		c-0.119,0.011-0.238,0.016-0.357,0.016H40.771c-7.78,0-10.604-5.731-10.604-9.583V13c0-2.209,1.791-4,4-4s4,1.791,4,4v8.049
		c0.084,1.163,0.866,1.66,2.604,1.66h25.922c1.208-0.074,6.149-0.141,9.771,3.201c1.657,1.528,3.623,4.352,3.581,9.126
		c-0.061,6.897-0.001,28.981,0,29.204c0.004,0.274,0.203,2.208,0.896,2.285c0.677,0.075,1.264,0.119,1.801,0.15
		c-0.336-1.038-0.105-2.221,0.72-3.045c1.172-1.172,3.07-1.172,4.242,0l4.75,4.75c0.5,0.499,0.773,1.133,0.847,1.784
		C93.763,71.255,93.553,72.564,92.663,73.454z"/>
	<path d="M66.917,78.477c0.025,4.501,0,5.802-0.001,5.854c-0.044,2.181-1.826,3.919-3.997,3.919c-0.028,0-0.056,0-0.083-0.001
		c-2.209-0.045-3.963-1.871-3.918-4.08c0.001-0.062,0.023-1.386-0.001-5.646c-0.013-2.121-0.891-2.354-1.268-2.355H32.625
		c-0.103,0-0.2-0.023-0.302-0.031c-0.034,0.004-0.064,0.016-0.098,0.02c-0.171,0.018-0.667,0.059-1.384,0.059
		c-2.293,0-6.842-0.427-10.215-3.457c-1.708-1.534-3.751-4.35-3.792-9.047c-0.072-8.263-0.006-32.524,0-34.429
		c-0.036-0.373-0.274-1.357-0.779-1.739c-0.414-0.313-1.285-0.358-2.393-0.147c0.23,0.978-0.027,2.046-0.79,2.809
		c-0.585,0.586-1.354,0.879-2.121,0.879s-1.536-0.293-2.121-0.879l-4.75-4.75c-0.89-0.89-1.1-2.198-0.638-3.29
		c0.073-0.652,0.346-1.286,0.847-1.786l4.75-4.75c1.171-1.172,3.071-1.172,4.242,0c1.007,1.007,1.143,2.548,0.419,3.706
		c3.641-0.37,6.059,0.791,7.499,1.918c3.563,2.789,3.816,7.283,3.833,7.787c0.002,0.049,0.002,0.099,0.002,0.148
		c-0.001,0.258-0.074,25.94,0,34.453c0.017,1.936,0.658,2.734,1.139,3.166c1.588,1.428,4.766,1.454,5.469,1.389
		c0.287-0.03,0.569-0.025,0.844,0.006c0.114-0.01,0.223-0.034,0.339-0.034h25.042C61.371,68.183,66.873,70.941,66.917,78.477z"/>
	<path d="M48.542,52.833c-2.025,0-3.667-1.642-3.667-3.667c0-2.025,1.642-3.667,3.667-3.667c2.025,0,3.667,1.642,3.667,3.667
		C52.208,51.192,50.567,52.833,48.542,52.833z"/>
	<path d="M31.5,49.167c0-2.025,1.642-3.667,3.667-3.667c2.025,0,3.667,1.642,3.667,3.667c0,2.025-1.642,3.667-3.667,3.667
		C33.142,52.833,31.5,51.192,31.5,49.167z M65.583,49.167c0-2.025-1.642-3.667-3.667-3.667c-2.025,0-3.667,1.642-3.667,3.667
		c0,2.025,1.642,3.667,3.667,3.667C63.942,52.833,65.583,51.192,65.583,49.167z"/>
</g>
</svg>
