<?xml version="1.0" encoding="utf-8"?>
<!-- Generator: Adobe Illustrator 17.0.0, SVG Export Plug-In . SVG Version: 6.00 Build 0)  -->
<!DOCTYPE svg PUBLIC "-//W3C//DTD SVG 1.1//EN" "http://www.w3.org/Graphics/SVG/1.1/DTD/svg11.dtd">
<svg version="1.1" id="Layer_1" xmlns="http://www.w3.org/2000/svg" xmlns:xlink="http://www.w3.org/1999/xlink" x="0px" y="0px"
	 width="96px" height="96px" viewBox="0 0 96 96" enable-background="new 0 0 96 96" xml:space="preserve">
<path d="M80,65.549V52c0-8.804-7.177-12-12-12H52v-4.527C58.889,33.69,64,27.439,64,20c0-8.822-7.178-16-16-16s-16,7.178-16,16
	c0,7.439,5.111,13.69,12,15.473V40H28c-8.804,0-12,7.176-12,12v13.549C11.366,67.033,8,71.38,8,76.5C8,82.841,13.159,88,19.5,88
	S31,82.841,31,76.5c0-4.745-2.889-8.826-7-10.581V52.047C24.046,50.201,24.778,48,28,48h16v17.549c-4.634,1.485-8,5.831-8,10.951
	C36,82.841,41.159,88,47.5,88S59,82.841,59,76.5c0-4.745-2.889-8.826-7-10.581V48h15.953C69.799,48.046,72,48.778,72,52v13.919
	c-4.111,1.755-7,5.837-7,10.581C65,82.841,70.159,88,76.5,88S88,82.841,88,76.5C88,71.38,84.634,67.034,80,65.549z M19.5,80
	c-1.93,0-3.5-1.57-3.5-3.5s1.57-3.5,3.5-3.5s3.5,1.57,3.5,3.5S21.43,80,19.5,80z M47.5,80c-1.93,0-3.5-1.57-3.5-3.5
	s1.57-3.5,3.5-3.5s3.5,1.57,3.5,3.5S49.43,80,47.5,80z M48,28c-4.411,0-8-3.589-8-8s3.589-8,8-8s8,3.589,8,8S52.411,28,48,28z
	 M76.5,80c-1.93,0-3.5-1.57-3.5-3.5s1.57-3.5,3.5-3.5s3.5,1.57,3.5,3.5S78.43,80,76.5,80z"/>
</svg>
