<?xml version="1.0" encoding="utf-8"?>
<!-- Generator: Adobe Illustrator 21.0.0, SVG Export Plug-In . SVG Version: 6.00 Build 0)  -->
<svg version="1.1" id="Layer_1" xmlns="http://www.w3.org/2000/svg" xmlns:xlink="http://www.w3.org/1999/xlink" x="0px" y="0px"
	 viewBox="0 0 96 96" style="enable-background:new 0 0 96 96;" xml:space="preserve">
<style type="text/css">
	.st0{fill:#0A0B0C;}
</style>
<path class="st0" d="M75.2,27.8H22.7c-0.4-4.1-2.1-6.6-3.6-7.9c-3.4-3.1-7.6-2.8-8.1-2.8c-2.2,0.2-3.8,2.1-3.7,4.3s2.1,3.8,4.3,3.7
	c0,0,1.2,0,2,0.7c0.9,0.8,1.1,2.5,1.1,3.7v42.9c0,2.2,1.8,4,4,4s4-1.8,4-4V65h7.1v2.2c0,2.2,1.8,4,4,4s4-1.8,4-4V65h9v2.2
	c0,2.2,1.8,4,4,4s4-1.8,4-4V65h9v2.2c0,2.2,1.8,4,4,4s4-1.8,4-4V65h2.4c5.8,0,10.5-4.7,10.5-10.5v-17C84.9,32.1,80.6,27.8,75.2,27.8
	z M76.9,54.5c0,1.4-1.1,2.5-2.5,2.5H23.7V35.8h51.5c0.9,0,1.7,0.7,1.7,1.7V54.5z"/>
</svg>
