<?xml version="1.0" encoding="utf-8"?>
<!-- Generator: Adobe Illustrator 17.0.0, SVG Export Plug-In . SVG Version: 6.00 Build 0)  -->
<!DOCTYPE svg PUBLIC "-//W3C//DTD SVG 1.1//EN" "http://www.w3.org/Graphics/SVG/1.1/DTD/svg11.dtd">
<svg version="1.1" id="Layer_1" xmlns="http://www.w3.org/2000/svg" xmlns:xlink="http://www.w3.org/1999/xlink" x="0px" y="0px"
	 width="96px" height="96px" viewBox="0 0 96 96" enable-background="new 0 0 96 96" xml:space="preserve">
<g>
	<path d="M57.75,52.625c-2.209,0-4,1.791-4,4c0,4.343-3.532,7.875-7.875,7.875C41.533,64.5,38,60.968,38,56.625c0-2.209-1.791-4-4-4
		s-4,1.791-4,4c0,7.325,4.993,13.49,11.75,15.312V86c0,2.209,1.791,4,4,4s4-1.791,4-4V72.002c6.883-1.736,12-7.962,12-15.377
		C61.75,54.416,59.959,52.625,57.75,52.625z"/>
	<path d="M34,46.625c2.209,0,4-1.791,4-4c0-4.342,3.533-7.875,7.875-7.875c4.343,0,7.875,3.533,7.875,7.875c0,2.209,1.791,4,4,4
		s4-1.791,4-4c0-7.415-5.117-13.64-12-15.377V9c0-2.209-1.791-4-4-4s-4,1.791-4,4v18.313C34.993,29.136,30,35.3,30,42.625
		C30,44.834,31.791,46.625,34,46.625z"/>
</g>
</svg>
