<?xml version="1.0" encoding="utf-8"?>
<!-- Generator: Adobe Illustrator 17.0.0, SVG Export Plug-In . SVG Version: 6.00 Build 0)  -->
<!DOCTYPE svg PUBLIC "-//W3C//DTD SVG 1.1//EN" "http://www.w3.org/Graphics/SVG/1.1/DTD/svg11.dtd">
<svg version="1.1" id="Layer_1" xmlns="http://www.w3.org/2000/svg" xmlns:xlink="http://www.w3.org/1999/xlink" x="0px" y="0px"
	 width="96px" height="96px" viewBox="0 0 96 96" enable-background="new 0 0 96 96" xml:space="preserve">
<path d="M80,44H32V28c0-8.836,7.164-16,16-16s16,7.164,16,16v4c0,2.209,1.791,4,4,4s4-1.791,4-4v-4C72,14.745,61.255,4,48,4
	S24,14.745,24,28v16h-8C9.37,44,4,49.37,4,56v24c0,6.63,5.37,12,12,12h64c6.63,0,12-5.37,12-12V56C92,49.37,86.63,44,80,44z M84,80
	c0,2.21-1.79,4-4,4H16c-2.21,0-4-1.79-4-4V56c0-2.21,1.79-4,4-4h64c2.21,0,4,1.79,4,4V80z"/>
</svg>
