<?xml version="1.0" encoding="utf-8"?>
<!-- Generator: Adobe Illustrator 21.0.0, SVG Export Plug-In . SVG Version: 6.00 Build 0)  -->
<svg version="1.0" id="Layer_1" xmlns="http://www.w3.org/2000/svg" xmlns:xlink="http://www.w3.org/1999/xlink" x="0px" y="0px"
	 viewBox="0 0 96 96" style="enable-background:new 0 0 96 96;" xml:space="preserve">
<style type="text/css">
	.st0{fill:#0A0B0C;}
</style>
<g>
	<path class="st0" d="M67.3,47.8c0-3.1-1.2-6-3.4-8.2L56,31.7c-4.5-4.5-11.8-4.5-16.3,0l-7.9,7.9c-2.2,2.2-3.4,5.1-3.4,8.2
		c0,3.1,1.2,6,3.4,8.2l7.9,7.9c2.3,2.3,5.2,3.4,8.2,3.4s5.9-1.1,8.2-3.4L64,56C66.1,53.8,67.3,50.9,67.3,47.8z M58.3,50.3l-7.9,7.9
		c-1.4,1.4-3.6,1.4-5,0l-7.9-7.9c-0.7-0.7-1-1.6-1-2.5c0-0.9,0.4-1.8,1-2.5l7.9-7.9c0.7-0.7,1.6-1,2.5-1c0.9,0,1.8,0.4,2.5,1
		l7.9,7.9c0.7,0.7,1,1.6,1,2.5C59.3,48.7,59,49.6,58.3,50.3z"/>
	<path class="st0" d="M69.3,30.7c2.1,2.1,4.8,3.1,7.5,3.1c2.7,0,5.4-1,7.5-3.1l3.5-3.5c4.1-4.1,4.1-10.9,0-15l-3.5-3.5
		c-4.1-4.1-10.9-4.1-15,0l-3.5,3.5c-2,2-3.1,4.7-3.1,7.5c0,2.8,1.1,5.5,3.1,7.5L69.3,30.7z M71.4,17.9l3.5-3.5
		c0.5-0.5,1.2-0.8,1.9-0.8s1.3,0.3,1.9,0.8l3.5,3.5c1,1,1,2.7,0,3.7l-3.5,3.5c-1,1-2.7,1-3.7,0l-3.5-3.5c-0.5-0.5-0.8-1.2-0.8-1.9
		C70.7,19,70.9,18.4,71.4,17.9z"/>
	<path class="st0" d="M85,65.9c-4.6-4.6-12-4.6-16.5,0l-2,2c-4.6,4.6-4.6,12,0,16.5l2,2c2.3,2.3,5.3,3.4,8.3,3.4s6-1.1,8.3-3.4l2-2
		c4.6-4.6,4.6-12,0-16.5L85,65.9z M81.4,78.8l-2,2c-1.4,1.4-3.8,1.4-5.2,0l-2-2c-1.4-1.4-1.4-3.8,0-5.2l2-2c0.7-0.7,1.7-1.1,2.6-1.1
		c0.9,0,1.9,0.4,2.6,1.1l2,2C82.8,75,82.8,77.3,81.4,78.8z"/>
	<path class="st0" d="M11.5,30c2.3,2.3,5.3,3.4,8.3,3.4s6-1.1,8.3-3.4l2-2c4.6-4.6,4.6-12,0-16.5l-2-2c-4.6-4.6-12-4.6-16.5,0l-2,2
		C5,16.1,5,23.5,9.6,28L11.5,30z M15.2,17.1l2-2c0.7-0.7,1.7-1.1,2.6-1.1c0.9,0,1.9,0.4,2.6,1.1l2,2c1.4,1.4,1.4,3.8,0,5.2l-2,2
		c-1.4,1.4-3.8,1.4-5.2,0l-2-2C13.7,20.9,13.7,18.5,15.2,17.1z"/>
	<path class="st0" d="M28,65.9c-4.6-4.6-12-4.6-16.5,0l-2,2c-2.2,2.2-3.4,5.1-3.4,8.3c0,3.1,1.2,6.1,3.4,8.3l2,2
		c2.3,2.3,5.3,3.4,8.3,3.4s6-1.1,8.3-3.4l2-2c4.6-4.6,4.6-12,0-16.5L28,65.9z M24.4,78.8l-2,2c-1.4,1.4-3.8,1.4-5.2,0l-2-2
		c-0.7-0.7-1.1-1.6-1.1-2.6s0.4-1.9,1.1-2.6l2-2c0.7-0.7,1.6-1.1,2.6-1.1s1.9,0.4,2.6,1.1l2,2c0.7,0.7,1.1,1.6,1.1,2.6
		S25.1,78.1,24.4,78.8z"/>
	<rect x="28.4" y="29.6" transform="matrix(0.7071 -0.7071 0.7071 0.7071 -13.1715 32.3122)" class="st0" width="8" height="4.9"/>
	<rect x="60.1" y="61" transform="matrix(0.7071 -0.7071 0.7071 0.7071 -26.1019 63.8845)" class="st0" width="8" height="4.9"/>
	<rect x="61" y="29" transform="matrix(0.7072 -0.707 0.707 0.7072 -4.7701 54.5465)" class="st0" width="4.9" height="8"/>
	<rect x="29.1" y="58.5" transform="matrix(0.707 -0.7072 0.7072 0.707 -34.9594 40.6363)" class="st0" width="4.9" height="8"/>
</g>
</svg>
