<?xml version="1.0" encoding="utf-8"?>
<!-- Generator: Adobe Illustrator 21.0.0, SVG Export Plug-In . SVG Version: 6.00 Build 0)  -->
<svg version="1.1" id="Layer_1" xmlns="http://www.w3.org/2000/svg" xmlns:xlink="http://www.w3.org/1999/xlink" x="0px" y="0px"
	 viewBox="0 0 96 96" style="enable-background:new 0 0 96 96;" xml:space="preserve">
<g>
	<path d="M83.2,55.5L83,55.2v-27l-1.3-3L59.5,5.5l-2.7-1H22.7c-8.5,0-15.3,6.9-15.3,15.3v54.7c0,8.5,6.9,15.3,15.3,15.3h31.9
		c3.6,2.5,8,4,12.7,4c12.4-0.1,22.4-10.2,22.4-22.6C89.7,65.1,87.2,59.5,83.2,55.5z M55.8,24.8l0-11.8l15.9,14.1h-13
		c-0.7,0-1.9-0.1-2.4-0.6C55.9,26,55.8,25.1,55.8,24.8z M15.1,74.2V55.3c0-0.6,0.1-4.4,0.2-5V19.8c0-4,3.3-7.3,7.3-7.3h25.2
		c0,0.1,0,0.2,0,0.2v11.4c-0.1,1.1-0.1,4.7,2.5,7.6c1.4,1.5,3.9,3.3,8.4,3.3H75v15c-2.5-0.9-5.1-1.5-7.9-1.5c-2.7,0-5.3,0.5-7.7,1.4
		c-0.1,0-0.2,0.1-0.3,0.1c-0.2,0.1-0.4,0.1-0.5,0.2c-8.1,3.5-13.7,11.5-13.7,20.8c0,4,1,7.7,2.8,10.9H23
		C18.7,82.1,15.1,78.6,15.1,74.2z M79.3,81.8c-0.2,0.2-0.4,0.4-0.6,0.6c-0.1,0.1-0.2,0.3-0.4,0.4c-0.3,0.2-0.5,0.5-0.8,0.7
		c-0.1,0.1-0.3,0.2-0.4,0.4c-0.3,0.2-0.6,0.4-0.9,0.6c-0.1,0.1-0.3,0.2-0.4,0.3c-0.3,0.2-0.6,0.4-0.9,0.6c-0.1,0.1-0.3,0.1-0.4,0.2
		c-0.3,0.2-0.6,0.3-0.9,0.4c-0.1,0-0.2,0.1-0.3,0.1c-0.4,0.2-0.8,0.3-1.2,0.4c-0.1,0-0.2,0.1-0.3,0.1c-0.4,0.1-0.8,0.2-1.3,0.3
		c-0.1,0-0.2,0-0.3,0.1c-0.4,0.1-0.9,0.2-1.4,0.2c-0.1,0-0.1,0-0.2,0c-0.5,0-1,0.1-1.5,0.1c-0.5,0-1,0-1.4-0.1c-0.2,0-0.3,0-0.5-0.1
		c-0.3,0-0.6-0.1-0.9-0.1c-0.2,0-0.4-0.1-0.6-0.1c-0.3-0.1-0.5-0.1-0.8-0.2c-4.1-1.1-7.5-3.8-9.6-7.3c-0.1-0.1-0.1-0.2-0.2-0.3
		c-0.2-0.3-0.3-0.5-0.4-0.8c-0.1-0.2-0.2-0.3-0.2-0.5c-0.1-0.3-0.2-0.5-0.3-0.8c-0.1-0.2-0.2-0.4-0.2-0.6c-0.1-0.2-0.1-0.3-0.2-0.5
		h10.1l5.4-5.2L72,76h10.5C81.8,78.1,80.7,80.1,79.3,81.8z M74.8,69.5l-7.4-8l-8.2,8h-8.1c0-0.1,0-0.2,0-0.2c0-0.2,0.1-0.4,0.1-0.7
		c0.5-3.1,1.9-5.8,3.9-8.1c0.1-0.1,0.2-0.2,0.3-0.3c0.2-0.2,0.5-0.5,0.7-0.7c0.2-0.2,0.3-0.3,0.5-0.4c0.2-0.2,0.4-0.3,0.6-0.5
		c0.2-0.2,0.4-0.3,0.6-0.4c0.2-0.2,0.5-0.3,0.7-0.5c0.2-0.1,0.4-0.3,0.6-0.4c0.2-0.1,0.4-0.3,0.7-0.4c0.3-0.1,0.5-0.3,0.8-0.4
		c0.1-0.1,0.3-0.1,0.4-0.2c0.4-0.2,0.8-0.3,1.1-0.4c0.1,0,0.3-0.1,0.4-0.1c0.4-0.1,0.8-0.2,1.2-0.3c0.1,0,0.2,0,0.3-0.1
		c0.4-0.1,0.9-0.2,1.4-0.2c0.1,0,0.1,0,0.2,0c0.5,0,1-0.1,1.5-0.1c0.5,0,1,0,1.5,0.1c0.1,0,0.2,0,0.3,0c0.5,0.1,0.9,0.1,1.4,0.2
		c0.1,0,0.2,0,0.3,0.1c0.4,0.1,0.7,0.2,1.1,0.3c0.1,0,0.3,0.1,0.4,0.1c0.4,0.1,0.8,0.3,1.1,0.4c0.2,0.1,0.3,0.1,0.5,0.2
		c0.3,0.1,0.5,0.3,0.8,0.4c4.7,2.4,8,7.1,8.6,12.6H74.8z"/>
	<g>
		<path d="M28,42.4c0,1.7-1.4,3.1-3.1,3.1s-3.1-1.4-3.1-3.1s1.4-3.1,3.1-3.1S28,40.6,28,42.4z"/>
		<path d="M41,42.4c0,1.7-1.4,3.1-3.1,3.1s-3.1-1.4-3.1-3.1s1.4-3.1,3.1-3.1S41,40.6,41,42.4z"/>
		<path d="M54,42.4c0,1.7-1.4,3.1-3.1,3.1s-3.1-1.4-3.1-3.1s1.4-3.1,3.1-3.1S54,40.6,54,42.4z"/>
		<path d="M67,42.4c0,1.7-1.4,3.1-3.1,3.1s-3.1-1.4-3.1-3.1s1.4-3.1,3.1-3.1S67,40.6,67,42.4z"/>
	</g>
</g>
</svg>
