<?xml version="1.0" encoding="utf-8"?>
<!-- Generator: Adobe Illustrator 17.0.0, SVG Export Plug-In . SVG Version: 6.00 Build 0)  -->
<!DOCTYPE svg PUBLIC "-//W3C//DTD SVG 1.1//EN" "http://www.w3.org/Graphics/SVG/1.1/DTD/svg11.dtd">
<svg version="1.1" id="Layer_1" xmlns="http://www.w3.org/2000/svg" xmlns:xlink="http://www.w3.org/1999/xlink" x="0px" y="0px"
	 width="96px" height="96px" viewBox="0 0 96 96" enable-background="new 0 0 96 96" xml:space="preserve">
<path d="M32.001,83.999V21.655l9.173,9.173c1.562,1.562,4.094,1.562,5.656,0c1.562-1.562,1.562-4.095,0-5.657L30.829,9.169
	c-1.562-1.562-4.095-1.562-5.656,0L9.172,25.17C8.391,25.951,8,26.975,8,27.999c0,1.023,0.391,2.047,1.172,2.828
	c1.562,1.562,4.095,1.562,5.656,0l9.173-9.173v62.344c0,2.209,1.791,4,4,4S32.001,86.208,32.001,83.999z"/>
<path d="M72.001,83.999V21.655l9.173,9.173c1.562,1.562,4.094,1.562,5.656,0c1.562-1.562,1.562-4.095,0-5.657L70.829,9.169
	c-1.561-1.562-4.095-1.562-5.656,0L49.173,25.17c-0.781,0.781-1.172,1.805-1.172,2.829c0,1.023,0.391,2.047,1.172,2.828
	c1.561,1.562,4.095,1.562,5.656,0l9.173-9.173v62.344c0,2.209,1.791,4,4,4S72.001,86.208,72.001,83.999z"/>
</svg>
