<?xml version="1.0" encoding="utf-8"?>
<!-- Generator: Adobe Illustrator 17.0.0, SVG Export Plug-In . SVG Version: 6.00 Build 0)  -->
<!DOCTYPE svg PUBLIC "-//W3C//DTD SVG 1.1//EN" "http://www.w3.org/Graphics/SVG/1.1/DTD/svg11.dtd">
<svg version="1.1" id="Layer_1" xmlns="http://www.w3.org/2000/svg" xmlns:xlink="http://www.w3.org/1999/xlink" x="0px" y="0px"
	 width="96px" height="96px" viewBox="0 0 96 96" enable-background="new 0 0 96 96" xml:space="preserve">
<g>
	<path d="M57.317,57.271c-0.558-9.832-8.732-17.66-18.7-17.66c-4.316,0-8.515,1.522-11.843,4.24
		c-0.794-0.137-1.595-0.206-2.398-0.206c-7.935,0-14.391,6.456-14.391,14.391c0,0.584,0.036,1.166,0.107,1.743
		c-4.679,3.269-7.564,8.658-7.564,14.496c0,9.753,7.935,17.688,17.688,17.688h32.272c9.753,0,17.688-7.935,17.688-17.688
		C70.175,66.207,64.777,59.372,57.317,57.271z M52.488,83.963H20.216c-5.342,0-9.688-4.346-9.688-9.688
		c0-3.827,2.267-7.304,5.775-8.855l3.481-1.541l-1.366-3.553c-0.287-0.748-0.433-1.519-0.433-2.29c0-3.524,2.867-6.392,6.391-6.392
		c0.721,0,1.447,0.131,2.16,0.387l2.472,0.89l1.798-1.915c2.057-2.189,4.831-3.395,7.812-3.395c5.917,0,10.73,4.814,10.73,10.731
		c0,0.494-0.046,1.022-0.146,1.662l-0.687,4.398l4.446,0.214c5.167,0.249,9.215,4.492,9.215,9.659
		C62.175,79.617,57.83,83.963,52.488,83.963z"/>
	<path d="M84.082,4.037H47.251c-3.769,0-6.834,3.066-6.834,6.834v23.332c0,2.209,1.791,4,4,4s4-1.791,4-4V12.037h34.5v71.75H71.834
		c-2.209,0-4,1.791-4,4s1.791,4,4,4h12.248c3.769,0,6.835-3.066,6.835-6.835V10.872C90.917,7.103,87.85,4.037,84.082,4.037z"/>
	<path d="M76.667,17.787h-22.25c-2.209,0-4,1.791-4,4s1.791,4,4,4h22.25c2.209,0,4-1.791,4-4S78.876,17.787,76.667,17.787z"/>
	<path d="M76.667,32.787h-18.5c-2.209,0-4,1.791-4,4s1.791,4,4,4h18.5c2.209,0,4-1.791,4-4S78.876,32.787,76.667,32.787z"/>
	<path d="M76.667,48.787H65.542c-2.209,0-4,1.791-4,4s1.791,4,4,4h11.125c2.209,0,4-1.791,4-4S78.876,48.787,76.667,48.787z"/>
	<path d="M76.667,64.787h-1.75c-2.209,0-4,1.791-4,4s1.791,4,4,4h1.75c2.209,0,4-1.791,4-4S78.876,64.787,76.667,64.787z"/>
</g>
</svg>
