<?xml version="1.0" encoding="utf-8"?>
<!-- Generator: Adobe Illustrator 17.0.0, SVG Export Plug-In . SVG Version: 6.00 Build 0)  -->
<!DOCTYPE svg PUBLIC "-//W3C//DTD SVG 1.1//EN" "http://www.w3.org/Graphics/SVG/1.1/DTD/svg11.dtd">
<svg version="1.1" id="Layer_1" xmlns="http://www.w3.org/2000/svg" xmlns:xlink="http://www.w3.org/1999/xlink" x="0px" y="0px"
	 width="96px" height="96px" viewBox="0 0 96 96" enable-background="new 0 0 96 96" xml:space="preserve">
<path d="M8,68V12C8,5.4,13.4,0,20,0h56c6.6,0,12,5.4,12,12v56c0,6.6-5.4,12-12,12H60v-8h16c2.2,0,4-1.8,4-4V12c0-2.2-1.8-4-4-4H20
	c-2.2,0-4,1.8-4,4v56c0,2.2,1.8,4,4,4h16v8H20C13.4,80,8,74.6,8,68z M29.2,46.8c1.6,1.6,4.1,1.6,5.7,0l9.2-9.2V92v0c0,2.2,1.8,4,4,4
	s4-1.8,4-4V37.7l9.2,9.2c1.6,1.6,4.1,1.6,5.7,0c1.6-1.6,1.6-4.1,0-5.7l-16-16C50.1,24.4,49.1,24,48,24s-2.1,0.4-2.8,1.2l-16,16
	C27.6,42.7,27.6,45.3,29.2,46.8z"/>
</svg>
