<?xml version="1.0" encoding="utf-8"?>
<!-- Generator: Adobe Illustrator 17.0.0, SVG Export Plug-In . SVG Version: 6.00 Build 0)  -->
<!DOCTYPE svg PUBLIC "-//W3C//DTD SVG 1.1//EN" "http://www.w3.org/Graphics/SVG/1.1/DTD/svg11.dtd">
<svg version="1.1" id="Layer_1" xmlns="http://www.w3.org/2000/svg" xmlns:xlink="http://www.w3.org/1999/xlink" x="0px" y="0px"
	 width="96px" height="96px" viewBox="0 0 96 96" enable-background="new 0 0 96 96" xml:space="preserve">
<g>
	<path fill="#0C0B0B" d="M48,4C23.7,4,4,23.699,4,48s19.7,44,44,44s44-19.699,44-44S72.3,4,48,4z M48,84c-19.882,0-36-16.118-36-36
		s16.118-36,36-36s36,16.118,36,36S67.882,84,48,84z"/>
	<path fill="#0C0B0B" d="M75.458,43.875c-0.538-0.451-1.283-0.772-2.275-0.98c-6.541-1.384-12.284-2.947-17.094-4.654
		c0.115-0.06,0.222-0.117,0.318-0.171c0.349-0.193,0.659-0.378,0.93-0.553c0.266-0.17,0.541-0.35,0.823-0.54
		c0.278-0.186,0.658-0.426,1.139-0.722c1.065-0.647,2.053-1.3,2.937-1.939c0.879-0.636,1.711-1.267,2.47-1.874
		c1.659-1.312,2.718-2.259,3.231-2.891c0.638-0.768,0.962-1.615,0.962-2.519c0-1.026-0.467-1.892-1.389-2.573
		c-0.887-0.654-2.256-0.972-4.187-0.972H40.987c0.251-0.762,0.296-1.337,0.144-1.78c-0.053-0.151-0.117-0.296-0.193-0.435h0.368
		l-1.061-0.884c-0.248-0.206-0.519-0.394-0.805-0.557c-0.355-0.203-0.749-0.281-1.181-0.232c-0.422,0.05-0.845,0.262-1.259,0.631
		c-0.393,0.35-0.764,0.899-1.134,1.679c-0.402,0.841-0.95,1.778-1.626,2.784c-0.694,1.031-1.495,2.153-2.379,3.332
		c-1.692,2.222-3.212,3.869-4.521,4.899l-0.09,0.059c-0.976,0.636-1.541,1.241-1.727,1.851c-0.188,0.61-0.161,1.177,0.082,1.687
		c0.227,0.478,0.572,0.869,1.024,1.162c0.404,0.264,0.709,0.436,0.935,0.525l0.185,0.036c0.976,0,2.146-0.628,3.56-1.915v0.084
		l0.854-0.854c0.608-0.608,1.244-1.302,1.887-2.06c0.539-0.634,1.118-1.309,1.738-2.023c2.847,2.72,5.516,4.917,7.953,6.548
		c-2.748,1.046-5.671,1.982-8.706,2.787c-3.371,0.894-7.007,1.669-10.819,2.305c-2.401,0.464-3.619,1.388-3.619,2.746
		c0,1.776,1.039,2.755,2.924,2.755c0.841,0,2.822-0.337,6.003-1.021c-0.766,0.696-1.145,1.878-1.145,3.626v17.534
		c0,1.714,0.403,2.965,1.2,3.718c0.79,0.745,2.053,1.123,3.753,1.123l30.897,0.057h0.001c1.761,0,3.006-0.356,3.806-1.091
		c0.799-0.736,1.204-1.999,1.204-3.75V51.278c0-1.679-0.405-2.903-1.205-3.64c-0.182-0.167-0.394-0.308-0.622-0.436
		c1.034,0.269,1.943,0.494,2.708,0.669c1.687,0.388,2.765,0.576,3.298,0.576c2.545,0,2.925-1.62,2.925-2.586
		C76.342,45.037,76.045,44.369,75.458,43.875z M40.459,28.825l20.545-0.102c-0.047,0.034-0.095,0.069-0.144,0.104
		c-0.631,0.458-1.431,1.004-2.382,1.625c-1.601,1.079-3.146,2.05-4.594,2.884c-1.389,0.801-2.813,1.544-4.238,2.212
		c-1.378-0.792-2.907-1.799-4.547-2.999C43.665,31.502,42.107,30.252,40.459,28.825z M33.436,51.665h12.756v5.653H33.436V51.665z
		 M46.192,68.538H33.436c0-0.003,0-0.005,0-0.008v-6.152h12.757L46.192,68.538z M64.17,68.594H51.309v-6.216h12.868L64.17,68.594z
		 M64.178,57.318H51.309v-5.653l12.869,0.008V57.318z M64.229,46.549H34.074c2.443-0.605,4.931-1.31,7.418-2.128
		c2.688-0.884,5.439-1.922,8.184-3.087c1.903,0.834,4.021,1.654,6.297,2.437c2.329,0.802,4.832,1.592,7.442,2.349
		c0.608,0.17,1.184,0.33,1.74,0.481C64.858,46.574,64.561,46.549,64.229,46.549z"/>
</g>
</svg>
