<?xml version="1.0" encoding="utf-8"?>
<!-- Generator: Adobe Illustrator 22.1.0, SVG Export Plug-In . SVG Version: 6.00 Build 0)  -->
<svg version="1.1" id="Layer_1" xmlns="http://www.w3.org/2000/svg" xmlns:xlink="http://www.w3.org/1999/xlink" x="0px" y="0px"
	 viewBox="0 0 96 96" style="enable-background:new 0 0 96 96;" xml:space="preserve">
<path d="M80.8,7.5H50.2c-6.3,0-8.3,5.2-9.4,8.3l-2.6,7h-22c-5.3,0-9.7,4.3-9.7,9.7v38c0,5.3,4.3,9.7,9.7,9.7h16.2c2.2,0,4-1.8,4-4
	s-1.8-4-4-4H16.2c-0.9,0-1.7-0.7-1.7-1.7v-38c0-0.9,0.7-1.7,1.7-1.7h27.6l4.5-12.3c0.9-2.4,1.3-2.9,1.5-3c0,0,0.1,0,0.4,0h30.7
	c0.9,0,1.7,0.7,1.7,1.7v26.1c0,2.2,1.8,4,4,4s4-1.8,4-4V17.2C90.5,11.8,86.2,7.5,80.8,7.5z"/>
<path d="M89.3,68.3L77.4,56.4c-1.2-1.2-3.1-1.6-4.7-0.8c-2.6,1.3-2.9,4.6-1.1,6.4l5.2,5.2H59.3c-2.6,0-4.8-2.1-4.8-4.8v0
	c0-1.9-1.3-3.7-3.2-4.1c-2.6-0.5-4.8,1.4-4.8,3.9v1.2c0,6.5,5.3,11.7,11.7,11.7h18.6l-5.2,5.2c-1.6,1.6-1.6,4.1,0,5.7
	c1.6,1.6,4.1,1.6,5.7,0l12-12c0.8-0.8,1.2-1.8,1.2-2.8S90.1,69.1,89.3,68.3z"/>
</svg>
