<?xml version="1.0" encoding="utf-8"?>
<!-- Generator: Adobe Illustrator 17.0.0, SVG Export Plug-In . SVG Version: 6.00 Build 0)  -->
<!DOCTYPE svg PUBLIC "-//W3C//DTD SVG 1.1//EN" "http://www.w3.org/Graphics/SVG/1.1/DTD/svg11.dtd">
<svg version="1.1" id="Layer_1" xmlns="http://www.w3.org/2000/svg" xmlns:xlink="http://www.w3.org/1999/xlink" x="0px" y="0px"
	 width="96px" height="96px" viewBox="0 0 96 96" enable-background="new 0 0 96 96" xml:space="preserve">
<g>
	<path d="M80.831,7.5H50.169c-6.342,0-8.268,5.181-9.423,8.289l-2.59,7.044H16.169c-5.332,0-9.669,4.337-9.669,9.669v37.995
		c0,5.332,4.338,9.67,9.669,9.67H38.5c2.209,0,4-1.791,4-4s-1.791-4-4-4H16.169c-0.92,0-1.669-0.749-1.669-1.67V32.502
		c0-0.92,0.749-1.669,1.669-1.669h27.568l4.512-12.271c0.9-2.42,1.337-2.92,1.471-3.016c0.001,0,0.121-0.047,0.448-0.047h30.662
		c0.92,0,1.669,0.749,1.669,1.669V43.25c0,2.209,1.791,4,4,4s4-1.791,4-4V17.169C90.5,11.838,86.162,7.5,80.831,7.5z"/>
	<path d="M81.561,74.081c2.318-3.376,3.681-7.457,3.681-11.852c0-11.579-9.421-21-21-21s-21,9.42-21,21s9.42,21,21,21
		c4.295,0,8.29-1.301,11.621-3.523l6.767,7.415c0.79,0.865,1.871,1.304,2.956,1.304c0.963,0,1.929-0.346,2.695-1.045
		c1.632-1.489,1.747-4.02,0.259-5.651L81.561,74.081z M64.241,75.229c-7.168,0-13-5.832-13-13s5.832-13,13-13s13,5.832,13,13
		S71.409,75.229,64.241,75.229z"/>
</g>
</svg>
