<svg xmlns="http://www.w3.org/2000/svg" width="31" height="31" viewBox="0 0 31 31">
  <path fill="#FFF" d="M12.4516256,18 C12.132587,18 11.8110943,17.9131729 11.5215054,17.737038 L6.62303583,14.7849169 C6.60094855,14.7700323 6.57640712,14.7551476 6.55677397,14.740263 C6.36044252,14.6385512 6.15429451,14.586455 5.9432382,14.586455 L2.53688762,14.586455 C1.1625675,14.586455 0.0434782609,13.3311833 0.0434782609,11.7906227 L0.0434782609,6.21136194 C0.0434782609,4.66832052 1.1625675,3.41552965 2.53688762,3.41552965 L5.9432382,3.41552965 C6.18129008,3.41552965 6.4217961,3.34606797 6.63776069,3.21458695 L11.5362303,0.262465889 C12.1031373,-0.0798809228 12.7853891,-0.0873232449 13.3596586,0.240138923 C14.002644,0.60977425 14.4002152,1.33664103 14.4002152,2.13793103 L14.3928528,5.37782188 L14.3854904,15.8615728 C14.3854904,16.6628628 13.985465,17.3897296 13.3449337,17.7593649 C13.0627073,17.9206152 12.7583935,18 12.4516256,18 Z M19.0655412,14.8270901 C18.8446683,14.8270901 18.6237954,14.7427437 18.4544596,14.5715703 C18.118242,14.2317043 18.118242,13.6784917 18.4544596,13.3386257 C19.6005444,12.1801042 20.2312592,10.6395435 20.2312592,8.99975192 C20.2312592,7.35996031 19.6005444,5.81939965 18.4544596,4.66087819 C18.118242,4.32101216 18.118242,3.76779955 18.4544596,3.42793352 C18.7906772,3.08806748 19.3379511,3.08806748 19.6741687,3.42793352 C21.1466545,4.91639792 21.9565217,6.8935748 21.9565217,8.99975192 C21.9565217,11.105929 21.1466545,13.0831059 19.6741687,14.5715703 C19.507287,14.7427437 19.2864141,14.8270901 19.0655412,14.8270901 L19.0655412,14.8270901 Z" transform="translate(4.5 6.5)"/>
</svg>
