<svg xmlns="http://www.w3.org/2000/svg" width="31" height="31" viewBox="0 0 31 31">
  <path fill="#FFF" d="M2.54883319,9.5 L2.54883319,10.5755689 C2.54883319,14.3277354 5.42628029,17.3488623 9,17.3488623 C12.4976831,17.3488623 15.3284071,14.4549263 15.44728,10.814054 L15.4511668,10.5755689 L15.4511668,9.5 L17.5,9.5 L17.5,10.5755689 C17.5,15.3203465 13.9841325,19.2144296 9.49915968,19.4849897 L9.499,23.499 L10.5275442,23.5 C11.048713,23.5 11.4404919,23.8645951 11.4938013,24.3787835 L11.5,24.5 C11.5,25.0359306 11.1454474,25.4388064 10.6454219,25.4936258 L10.5275442,25.5 L6.47245583,25.5 C5.91119711,25.5 5.5,25.077156 5.5,24.5 C5.5,23.9640694 5.85455261,23.5611936 6.35457813,23.5063742 L6.47245583,23.5 L7.499,23.499 L7.49947221,19.361819 C3.60771489,18.6363384 0.623950688,15.1373681 0.503765287,10.8449094 L0.5,10.5755689 L0.5,9.5 L2.54883319,9.5 Z M9,0.5 C11.2702703,0.5 13,2.30851064 13,4.43617021 L13,11.5638298 C13,13.7978723 11.1621622,15.5 9,15.5 C6.72972973,15.5 5,13.6914894 5,11.5638298 L5,4.43617021 C5,2.20212766 6.83783784,0.5 9,0.5 Z" transform="translate(6.5 2.5)"/>
</svg>
