<svg xmlns="http://www.w3.org/2000/svg" width="32" height="31" viewBox="0 0 32 31">
  <path fill="#FFF" d="M24.50398,1.74057914 C24.1559259,1.55458591 23.7382169,1.55458591 23.3901628,1.74057914 L18.7487624,4.2812376 L18.7487624,2.73125744 C18.7487624,1.43018643 17.6963289,0.5 16.5825116,0.5 L2.16625084,0.5 C0.928676092,0.5 0,1.55414518 0,2.73125744 L0,13.2687426 C0,14.5698136 1.05243357,15.5 2.16625084,15.5 L16.5844917,15.5 C17.8220665,15.5 18.7497525,14.4458548 18.7497525,13.2687426 L18.7497525,11.5948036 L23.3911528,14.1364538 C23.7624253,14.3218961 24.1336977,14.3218961 24.5049701,14.1364538 C24.8138688,13.9500198 25,13.5781436 25,13.2062674 L25,2.73125744 C25,2.29789766 24.8138688,1.98750496 24.5049701,1.73958747 L24.50398,1.74057914 Z M14.5005658,6.49886834 C14.0982186,6.51479933 13.7075052,6.36194566 13.4227798,6.07722025 C13.1380543,5.79249484 12.9852007,5.40178144 13.0011317,4.99943417 C13.0011317,4.12376461 13.6248963,3.5 14.5005658,3.5 C15.3742361,3.5 16,4.12376461 16,4.99943417 C16,5.87310448 15.3742361,6.49886834 14.5005658,6.49886834 Z" transform="translate(3.5 7.5)"/>
</svg>
