<?xml version="1.0" encoding="utf-8"?>
<!-- Generator: Adobe Illustrator 22.1.0, SVG Export Plug-In . SVG Version: 6.00 Build 0)  -->
<svg version="1.1" id="Layer_1" xmlns="http://www.w3.org/2000/svg" xmlns:xlink="http://www.w3.org/1999/xlink" x="0px" y="0px"
	 viewBox="0 0 96 96" style="enable-background:new 0 0 96 96;" xml:space="preserve">
<style type="text/css">
	.st0{fill:#040000;}
</style>
<g>
	<path class="st0" d="M91.6,21.4c-0.9-6.1-7-11.7-13.1-12.2C68.7,8.4,58.8,8,48.9,8C39,8,29.1,8.4,19.3,9.3
		c-6,0.6-12.2,6.2-13.1,12.2c-1.7,12.3-1.7,24.7,0,37c0.9,6.1,7.1,11.7,13.1,12.2c6.7,0.6,13.5,0.9,20.2,1.1
		c1.9,0.1,3.8,0.1,5.7,0.1c1.2,0,2.5,0,3.7,0c1.2,0,2.5,0,3.7,0c1.3,0,2.7,0,4-0.1c7.3-0.2,14.6-0.6,21.9-1.2
		c6-0.6,12.2-6.2,13.1-12.2C93.3,46.1,93.3,33.7,91.6,21.4z M83.6,57.3c-0.4,2.3-3.4,5.1-5.8,5.3c-7.1,0.6-14.3,1-21.4,1.1
		c-1.3,0-2.6,0-3.9,0.1c-1.2,0-2.4,0-3.6,0c-1.2,0-2.4,0-3.6,0c-1.9,0-3.7-0.1-5.6-0.1c-6.5-0.2-13.2-0.5-19.7-1.1
		c-2.4-0.2-5.5-3.1-5.8-5.3c-1.6-11.5-1.6-23.2,0-34.7c0.4-2.3,3.4-5.1,5.8-5.3c9.6-0.8,19.3-1.2,28.9-1.2c9.6,0,19.3,0.4,28.9,1.2
		c2.4,0.2,5.5,3,5.8,5.3C85.2,34.1,85.2,45.8,83.6,57.3z"/>
	<path class="st0" d="M64.7,78.6c-2.8,0.1-5.5,0.2-8.2,0.3l-0.2,0C55.1,79,53.9,79,52.6,79h-7.4c-1.9,0-3.7,0-5.6-0.1l-8.2-0.3
		c-2.2-0.1-4.1,1.7-4.2,3.9c-0.1,2.2,1.7,4.1,3.9,4.2l8.1,0.3c2,0.1,4,0.1,5.9,0.1h7.4c1.3,0,2.8,0,4.2-0.1c2.7-0.1,5.3-0.2,8.1-0.3
		c2.2-0.1,4-1.9,3.9-4.2C68.7,80.2,66.9,78.5,64.7,78.6z"/>
	<path class="st0" d="M61.1,36.4L45.6,25.1c-0.8-0.6-1.6-0.8-2.5-0.8c-2.2,0-4.3,1.8-4.3,4.3v22.8c0,2.6,2.1,4.3,4.3,4.3
		c0.9,0,1.8-0.3,2.5-0.9l15.5-11.4C63.4,41.7,63.4,38.2,61.1,36.4z M44.7,48.1V31.9l11,8.1L44.7,48.1z"/>
</g>
</svg>
