<svg xmlns="http://www.w3.org/2000/svg" width="32" height="32" viewBox="0 0 32 32">
  <path fill="#FFF" d="M14.249,17.188 L14.248,19.437 L18.249,19.438 L18.249,21.5 L8.12352897,21.5 L8.12547059,19.438 L12.124,19.437 L12.1251818,17.188 L14.249,17.188 Z M25.375,0.5 C25.687,0.5 25.875,0.75 26,1.062 L26,1.062 L26,16.062 C26.0008034,16.2115617 25.9417455,16.3552302 25.8359879,16.4609879 C25.7302302,16.5667455 25.5865617,16.6258034 25.437,16.6250081 L25.437,16.6250081 L1,16.6250081 C0.687,16.6250081 0.5,16.375 0.5,16.063 L0.5,16.063 L0.5,1.063 C0.5,0.75 0.687,0.5 1,0.5 L1,0.5 Z M13.2729493,3.56043439 L8.63800405,8.19537967 L10.1523921,9.70976773 L11.8044518,8.10359857 C11.8503424,8.05770803 11.988014,8.01181748 12.0339045,8.05770803 C12.1256856,8.10359857 12.1715762,8.19537967 12.1715762,8.28716076 L12.1715762,13.5645737 L14.3284319,13.5645737 L14.3284319,8.24127021 C14.3284319,8.14948912 14.3743225,8.05770803 14.4661035,8.01181748 C14.5578846,7.96592693 14.6496657,8.01181748 14.6955563,8.05770803 L16.347616,9.70976773 L17.862004,8.19537967 L13.2729493,3.56043439 Z" transform="translate(2.5 5.5)"/>
</svg>
