<?xml version="1.0" encoding="utf-8"?>
<!-- Generator: Adobe Illustrator 21.0.0, SVG Export Plug-In . SVG Version: 6.00 Build 0)  -->
<svg version="1.0" id="Layer_1" xmlns="http://www.w3.org/2000/svg" xmlns:xlink="http://www.w3.org/1999/xlink" x="0px" y="0px"
	 viewBox="0 0 96 96" style="enable-background:new 0 0 96 96;" xml:space="preserve">
<g>
	<path d="M48,4.9L3.2,21.5l1,3.5c1.5,5.4,2.2,10.2,3,14.7c2.2,14.1,4,25.2,25,39.7c5.7,3.9,11.1,9.3,12.8,11.1l3.1,3.1l2.8-2.8
		c1.9-1.9,7.2-6.8,13.8-11.3c18.7-12.7,27-53.1,27.3-54.8l0.7-3.3L48,4.9z M78,44.3C72.8,58.6,66.6,68.6,60.1,73
		c-5,3.4-9.2,6.9-12,9.5c-2.7-2.6-6.9-6.5-11.5-9.6C18.4,60.4,17.1,51.7,15,38.6c-0.6-3.6-1.2-7.6-2.2-12.1L48,13.4l35.3,13.1
		C82.4,30.4,80.7,37,78,44.3z"/>
	<polygon points="30,46.1 21,46.1 21,52.1 34,52.1 40.8,36.1 45.1,50.9 54.2,50.5 58.7,64.1 68.8,50.4 73,50.4 73,44.4 65.8,44.4 
		60.7,51.3 58.4,44.3 49.5,44.7 41.8,18.1 	"/>
</g>
</svg>
