<?xml version="1.0" encoding="utf-8"?>
<!-- Generator: Adobe Illustrator 17.0.0, SVG Export Plug-In . SVG Version: 6.00 Build 0)  -->
<!DOCTYPE svg PUBLIC "-//W3C//DTD SVG 1.1//EN" "http://www.w3.org/Graphics/SVG/1.1/DTD/svg11.dtd">
<svg version="1.1" id="Layer_1" xmlns="http://www.w3.org/2000/svg" xmlns:xlink="http://www.w3.org/1999/xlink" x="0px" y="0px"
	 width="96px" height="96px" viewBox="0 0 96 96" enable-background="new 0 0 96 96" xml:space="preserve">
<g>
	<path d="M48,4.901L3.166,21.526l0.979,3.54c1.499,5.425,2.243,10.159,2.963,14.738C9.321,53.887,11.07,65.01,32.065,79.462
		c5.72,3.937,11.051,9.299,12.802,11.061l3.106,3.106l2.828-2.774c1.935-1.897,7.15-6.795,13.789-11.294
		c18.745-12.698,26.991-53.066,27.333-54.778l0.668-3.347L48,4.901z M78.015,44.284c-5.223,14.345-11.417,24.254-17.913,28.654
		c-4.973,3.37-9.206,6.945-12.032,9.506c-2.723-2.624-6.941-6.456-11.469-9.572c-18.162-12.502-19.526-21.178-21.59-34.31
		c-0.57-3.626-1.201-7.636-2.244-12.063L48,13.433l35.329,13.101C82.414,30.352,80.655,37.035,78.015,44.284z"/>
	<path d="M42.501,31.859v0.768c0,0.16-0.392,0.342-0.821,0.547l-0.293-0.544c-1.757-1.757-4.482-1.757-6.239,0
		s-1.695,4.607,0.062,6.364l0.575,0.864c-0.205,0.428-0.357,0.641-0.516,1.641H34.5c-2.485,0-4.5,2.015-4.5,4.5
		c0,2.485,2.015,4.5,4.5,4.5h0.768c0.16,0,0.342,0.572,0.547,1l-0.544,0.383c-1.757,1.757-1.757,4.526,0,6.284
		c1.757,1.757,4.607,1.717,6.364-0.04l0.043-0.564c0.428,0.205,0.821,0.368,0.821,0.527v0.768c0,2.485,2.015,4.5,4.5,4.5
		c2.485,0,4.5-2.015,4.5-4.5v-0.768c1-0.16,1.392-0.342,1.821-0.547l0.793,0.544c1.757,1.757,4.732,1.757,6.489,0
		s1.82-4.607,0.062-6.364L60.153,51.5c0.205-0.428,0.419-1,0.579-1H61.5c2.485,0,4.5-2.015,4.5-4.5s-2.015-4.5-4.5-4.5h-0.768
		c-0.16-1-0.342-1.213-0.547-1.641l0.544-0.704c1.757-1.757,1.757-4.687,0-6.444s-4.607-1.797-6.364-0.04l-1.043,0.524
		c-0.428-0.205-0.821-0.408-1.821-0.568v-0.768c0-2.485-2.015-4.5-4.5-4.5C44.516,27.359,42.501,29.374,42.501,31.859z
		 M49.209,39.481c2.344,0.48,4.189,2.325,4.669,4.669C53.958,44.54,54,44.945,54,45.359s-0.042,0.819-0.122,1.209
		c-0.48,2.344-2.325,4.189-4.669,4.669c-0.391,0.08-0.795,0.122-1.209,0.122s-0.819-0.042-1.209-0.122
		c-2.344-0.48-4.189-2.325-4.669-4.669C42.042,46.178,42,45.773,42,45.359s0.042-0.819,0.122-1.209
		c0.48-2.344,2.325-4.189,4.669-4.669c0.391-0.08,0.795-0.122,1.209-0.122S48.819,39.401,49.209,39.481z"/>
</g>
</svg>
