<?xml version="1.0" encoding="utf-8"?>
<!-- Generator: Adobe Illustrator 21.0.0, SVG Export Plug-In . SVG Version: 6.00 Build 0)  -->
<svg version="1.1" id="Layer_1" xmlns="http://www.w3.org/2000/svg" xmlns:xlink="http://www.w3.org/1999/xlink" x="0px" y="0px"
	 viewBox="0 0 96 96" style="enable-background:new 0 0 96 96;" xml:space="preserve">
<g>
	<path d="M30.1,53C30.1,53,30.1,53,30.1,53c3.3,0,4-2.9,4.2-4.2c0-0.2,0-0.4,0-0.6c0-22.2,7.2-36.3,12.2-36.3c2.2,0,4.4,0,7.1,7.7
		c0.8,2.2,3.2,3.4,5.4,2.6c2.2-0.8,3.3-3.2,2.6-5.4C58.1,7.2,53.8,3.4,46.4,3.4C33.2,3.4,26,26,25.8,47.6c0,0.4,0,0.7,0,0.7
		C25.9,52.9,29.7,53,30.1,53z"/>
	<path d="M76.7,57.1c-2,1.3-2.6,4-1.3,6c3.4,5.4,2.5,6.9,1.6,8.3c-0.6,0.9-1.9,2.9-8.8,2c0,0,0,0,0,0c-0.1,0-0.2,0-0.3,0
		c-1.3-0.1-2.6-0.2-3.9-0.4c1.9-6.6,3.1-14.9,3.1-24.7l0-1.2c0-3.5,0-5.1-0.5-8.9c-0.3-2.3-2.4-3.9-4.7-3.6
		c-2.3,0.3-3.9,2.4-3.6,4.7c0.4,3.3,0.4,4.4,0.4,7.8l0,1.2c0,8.9-1.2,16.5-2.9,22.4c-9-3.4-16.4-8.6-16.5-8.7
		c-0.1,0-0.1-0.1-0.2-0.1l0,0c-0.2-0.1-0.4-0.3-0.6-0.4c-0.1-0.1-0.2-0.1-0.3-0.2C19.9,49.1,12,35.3,14.6,31c1-1.6,1.5-2.5,6.5-2
		c2.4,0.2,4.5-1.5,4.7-3.9c0.2-2.4-1.5-4.5-3.9-4.7c-6.2-0.6-11.1,0.2-14.7,6.1c-5.4,8.9,2.2,26.3,27,42.3c0,0,0,0,0.1,0
		c1.1,0.8,8.6,6.1,18.3,9.7c-2,3.8-4.3,5.9-6.2,5.9c-2.4,0.1-6.8,0.2-9.2-11.2c-0.5-2.3-2.7-3.7-5-3.2c-2.3,0.5-3.7,2.7-3.2,5
		C31.4,86.9,37.2,93,46,93c0.2,0,0.4,0,0.6,0c5.2-0.1,10.3-4.2,14.2-11.9c2,0.4,4.1,0.7,6.2,0.9c0,0,0,0,0,0c1,0.1,2.5,0.3,4.3,0.3
		c4.1,0,9.5-1,12.9-6.2c3.4-5.3,3-10.6-1.5-17.6C81.4,56.4,78.7,55.8,76.7,57.1z"/>
	<path d="M22.6,70.8c-7.3,0.6-7.9-1-8.4-2.6c-0.3-1-0.6-1.9,2.3-7.6c1.1-2.1,0.3-4.7-1.9-5.8c-2.1-1.1-4.7-0.3-5.8,1.9
		C5.7,62.7,4.5,66.4,6,71c2.4,7.1,8.2,8.6,13.8,8.6c1.2,0,2.4-0.1,3.6-0.2c2.4-0.2,4.1-2.3,3.9-4.7C27.1,72.4,25,70.6,22.6,70.8z"/>
	<path d="M39,30.5c-2,1.1-2.8,3.7-1.7,5.8c1.1,2.1,3.7,3,5.8,1.9c0.1,0,0.2-0.1,0.3-0.2c23.8-8.8,34.4-7.6,36.2-3.9
		c1.2,2.4-1.2,8.3-9.3,15.4c-1.8,1.6-2,4.3-0.4,6.1c0.9,1,2,1.5,3.2,1.5c1,0,2-0.4,2.9-1.1c10.6-9.4,14.7-18.7,11.3-25.7
		C82.5,20,67,19.9,40.2,29.9C40,30,39.5,30.1,39,30.5z"/>
	<path d="M38.6,50.7c0,4.3,3.5,7.7,7.7,7.7c4.3,0,7.7-3.5,7.7-7.7s-3.5-7.7-7.7-7.7C42.1,42.9,38.6,46.4,38.6,50.7z M46.6,50.7
		c0,0.3-0.5,0.3-0.5,0c0-0.1,0.1-0.3,0.3-0.3C46.5,50.4,46.6,50.5,46.6,50.7z"/>
</g>
</svg>
