<?xml version="1.0" encoding="utf-8"?>
<!-- Generator: Adobe Illustrator 23.0.0, SVG Export Plug-In . SVG Version: 6.00 Build 0)  -->
<svg version="1.1" id="Layer_1" xmlns="http://www.w3.org/2000/svg" xmlns:xlink="http://www.w3.org/1999/xlink" x="0px" y="0px"
	 viewBox="0 0 96 96" style="enable-background:new 0 0 96 96;" xml:space="preserve">
<path d="M21.4,66.1c-2,0-3.7,1.6-3.7,3.7c0,2,1.6,3.7,3.7,3.7c2,0,3.7-1.6,3.7-3.7C25.1,67.7,23.4,66.1,21.4,66.1z"/>
<path d="M34.2,66.1c-2,0-3.7,1.6-3.7,3.7c0,2,1.6,3.7,3.7,3.7s3.7-1.6,3.7-3.7C37.9,67.7,36.3,66.1,34.2,66.1z"/>
<path d="M21.4,25.8c-2,0-3.7,1.6-3.7,3.7c0,2,1.6,3.7,3.7,3.7c2,0,3.7-1.6,3.7-3.7C25.1,27.4,23.4,25.8,21.4,25.8z"/>
<path d="M88.3,11.1H7.7c-2,0-3.7,1.6-3.7,3.7v25.7c0,2,1.6,3.7,3.7,3.7h80.7c2,0,3.7-1.6,3.7-3.7V14.8C92,12.7,90.4,11.1,88.3,11.1z
	 M84.7,36.8H11.3V18.4h44v5.5l0,0.2c0.1,1.9,1.7,3.5,3.7,3.5l0.2,0c1.9-0.1,3.5-1.7,3.5-3.7v-5.5H70v5.5l0,0.2
	c0.1,1.9,1.7,3.5,3.7,3.5l0.2,0c1.9-0.1,3.5-1.7,3.5-3.7v-5.5h7.3V36.8z"/>
<path d="M88.3,51.4H7.7c-2,0-3.7,1.6-3.7,3.7v25.7c0,2,1.6,3.7,3.7,3.7h80.7c2,0,3.7-1.6,3.7-3.7V55.1C92,53.1,90.4,51.4,88.3,51.4z
	 M84.7,77.1H11.3V58.8h44v5.5l0,0.2c0.1,1.9,1.7,3.5,3.7,3.5l0.2,0c1.9-0.1,3.5-1.7,3.5-3.7v-5.5H70v5.5l0,0.2
	c0.1,1.9,1.7,3.5,3.7,3.5l0.2,0c1.9-0.1,3.5-1.7,3.5-3.7v-5.5h7.3V77.1z"/>
<path d="M34.2,25.8c-2,0-3.7,1.6-3.7,3.7c0,2,1.6,3.7,3.7,3.7s3.7-1.6,3.7-3.7C37.9,27.4,36.3,25.8,34.2,25.8z"/>
</svg>
