<?xml version="1.0" encoding="utf-8"?>
<!-- Generator: Adobe Illustrator 22.1.0, SVG Export Plug-In . SVG Version: 6.00 Build 0)  -->
<svg version="1.1" id="Layer_1" xmlns="http://www.w3.org/2000/svg" xmlns:xlink="http://www.w3.org/1999/xlink" x="0px" y="0px"
	 viewBox="0 0 96 96" style="enable-background:new 0 0 96 96;" xml:space="preserve">
<style type="text/css">
	.st0{fill:#040000;}
</style>
<path d="M68.7,29c-3.5-1.2-7.4,0.8-8.5,4.3c-0.9,2.7,0.1,5.6,2.1,7.3l-5.8,14.3c-0.4,0-0.8,0-1.2,0.1c-0.4,0.1-0.8,0.2-1.2,0.4
	L44,44.5c0.3-0.7,0.6-1.5,0.6-2.4c0-3-2.5-5.5-5.5-5.5s-5.5,2.5-5.5,5.5c0,1.3,0.5,2.5,1.2,3.4l-4.5,7.8c-0.1,0-0.2,0-0.2,0
	c-2.5,0-4.4,2-4.4,4.4c0,2.5,2,4.4,4.4,4.4c2.5,0,4.4-2,4.4-4.4c0-0.9-0.3-1.7-0.7-2.4l4.5-7.8c0.3,0,0.5,0.1,0.8,0.1
	c0.7,0,1.4-0.1,2-0.4l10.1,10.9c-0.6,1.1-0.8,2.4-0.5,3.7c0.6,3.1,3.6,5.2,6.7,4.6s5.2-3.6,4.6-6.7c-0.2-1.3-0.9-2.4-1.8-3.2
	L66,42.1c3.1,0.3,6-1.6,7-4.6C74.1,33.9,72.2,30.1,68.7,29z"/>
<g>
	<path class="st0" d="M91.8,47.5c0-24.1-19.5-43.6-43.6-43.6c-7.2,0-13.9,1.7-19.9,4.8c-0.4,0.1-0.8,0.3-1.2,0.6
		c-1.8,1.3-2.1,3.9-0.8,5.6c1.3,1.8,3.9,2.1,5.6,0.8c4.9-2.5,10.4-3.9,16.2-3.9c19.7,0,35.7,16,35.7,35.7c0,5.9-1.4,11.5-4,16.4
		c-1.3,1.8-0.9,4.3,0.9,5.6s4.3,0.9,5.6-0.9c0.2-0.3,0.4-0.6,0.5-0.9C90.1,61.6,91.8,54.8,91.8,47.5z"/>
	<path class="st0" d="M65,79c-5,2.7-10.7,4.2-16.8,4.2c-19.7,0-35.7-16-35.7-35.7c0-6,1.5-11.7,4.1-16.6c1.4-1.7,1.1-4.3-0.7-5.7
		c-1.7-1.4-4.3-1.1-5.6,0.7c-0.3,0.4-0.5,0.8-0.6,1.2c-3.2,6.1-5.1,13.1-5.1,20.4c0,24.1,19.5,43.6,43.6,43.6
		c7.5,0,14.5-1.9,20.6-5.2c0.3-0.1,0.6-0.3,0.9-0.5c1.8-1.3,2.2-3.8,0.9-5.6C69.3,78.1,66.8,77.7,65,79z"/>
</g>
</svg>
