<?xml version="1.0" encoding="utf-8"?>
<!-- Generator: Adobe Illustrator 22.1.0, SVG Export Plug-In . SVG Version: 6.00 Build 0)  -->
<svg version="1.1" id="Layer_1" xmlns="http://www.w3.org/2000/svg" xmlns:xlink="http://www.w3.org/1999/xlink" x="0px" y="0px"
	 viewBox="0 0 96 96" style="enable-background:new 0 0 96 96;" xml:space="preserve">
<path d="M80,4H16C9.4,4,4,9.4,4,16v64c0,6.6,5.4,12,12,12h64c6.6,0,12-5.4,12-12V16C92,9.4,86.6,4,80,4z M79.6,34.7
	c-1.3,3.8-5,6.3-9,5.9L63.2,59c1.2,1,2,2.4,2.3,4.1c0.8,4-1.9,7.8-5.9,8.6c-4,0.8-7.8-1.9-8.6-5.9c-0.4-1.7-0.1-3.3,0.6-4.7
	l-12.9-14c-0.8,0.4-1.7,0.5-2.6,0.5c-0.4,0-0.6-0.1-1-0.1l-5.8,10c0.5,0.9,0.9,1.9,0.9,3.1c0,3.1-2.4,5.6-5.6,5.6
	c-3.1,0-5.6-2.4-5.6-5.6c0-3.1,2.4-5.6,5.6-5.6c0,0,0.1,0,0.3,0l5.8-10c-0.9-1.2-1.5-2.7-1.5-4.4c0-3.8,3.2-7,7-7s7,3.2,7,7
	c0,1.2-0.4,2.2-0.8,3.1l12.9,14c0.5-0.3,1-0.4,1.5-0.5c0.5-0.1,1-0.1,1.5-0.1l7.4-18.3c-2.6-2.2-3.8-5.9-2.7-9.4
	c1.4-4.5,6.4-7,10.9-5.5C78.6,25.2,81,30.1,79.6,34.7z"/>
</svg>
