<?xml version="1.0" encoding="utf-8"?>
<!-- Generator: Adobe Illustrator 21.0.0, SVG Export Plug-In . SVG Version: 6.00 Build 0)  -->
<svg version="1.1" id="Layer_1" xmlns="http://www.w3.org/2000/svg" xmlns:xlink="http://www.w3.org/1999/xlink" x="0px" y="0px"
	 viewBox="0 0 96 96" style="enable-background:new 0 0 96 96;" xml:space="preserve">
<g>
	<path d="M47.8,3.5c-25.3,0-46,20-46,44.6s20.6,44.6,46,44.6c25.3,0,46-20,46-44.6S73.2,3.5,47.8,3.5z M47.8,85.2
		c-21.2,0-38.4-16.6-38.4-37s17.2-37,38.4-37c21.2,0,38.4,16.6,38.4,37S69,85.2,47.8,85.2z"/>
	<path d="M27,46.9l-3.4-0.5c-1.2-0.2-2.1-0.6-2.6-1.1c-0.6-0.6-0.8-1.3-0.8-2c0-2,1.4-3.6,4.4-3.6c1.9,0,4,0.2,5.8,2l3.5-3.5
		c-2.4-2.4-5.3-3.3-9.2-3.3c-6.1,0-9.9,3.6-9.9,8.6c0,2.4,0.7,4.2,2,5.6c1.3,1.2,3.1,2,5.5,2.4l3.4,0.5c1.3,0.2,2,0.5,2.5,1
		c0.6,0.6,0.9,1.4,0.9,2.4c0,2.3-1.8,3.5-5,3.5c-2.6,0-5.1-0.6-6.9-2.4l-3.6,3.6c2.8,2.8,6.1,3.7,10.4,3.7c5.9,0,10.5-3.1,10.5-8.6
		c0-2.5-0.7-4.6-2.2-6C31.3,47.9,29.6,47.2,27,46.9z"/>
	<path d="M50.4,46.9L47,46.4c-1.2-0.2-2.1-0.6-2.6-1.1c-0.6-0.6-0.8-1.3-0.8-2c0-2,1.4-3.6,4.4-3.6c1.9,0,4,0.2,5.8,2l3.5-3.5
		c-2.4-2.4-5.3-3.3-9.2-3.3c-6.1,0-9.9,3.6-9.9,8.6c0,2.4,0.7,4.2,2,5.6c1.3,1.2,3.1,2,5.5,2.4l3.4,0.5c1.3,0.2,2,0.5,2.5,1
		c0.6,0.6,0.9,1.4,0.9,2.4c0,2.3-1.8,3.5-5,3.5c-2.6,0-5.1-0.6-6.9-2.4l-3.6,3.6c2.8,2.8,6.1,3.7,10.4,3.7c5.9,0,10.5-3.1,10.5-8.6
		c0-2.5-0.7-4.6-2.2-6C54.6,47.9,53,47.2,50.4,46.9z"/>
	<polygon points="68.8,58.5 68.8,35.1 63.2,35.1 63.2,63.5 81.6,63.5 81.6,58.5 	"/>
</g>
</svg>
