<?xml version="1.0" encoding="utf-8"?>
<!-- Generator: Adobe Illustrator 22.1.0, SVG Export Plug-In . SVG Version: 6.00 Build 0)  -->
<svg version="1.1" id="Layer_1" xmlns="http://www.w3.org/2000/svg" xmlns:xlink="http://www.w3.org/1999/xlink" x="0px" y="0px"
	 viewBox="0 0 96 96" style="enable-background:new 0 0 96 96;" xml:space="preserve">
<path d="M70,75.1c-0.8,0-1.5-0.3-2.1-0.9l-6.1-6.1c-0.6-0.5-0.9-1.3-0.9-2.1V53.9c0-1.7,1.4-3,3-3s3,1.4,3,3v10.9l5.2,5.2
	c1.2,1.2,1.2,3.1,0,4.3C71.5,74.8,70.7,75.1,70,75.1z"/>
<path d="M38.8,76.6C20.8,75.9,12,71.3,11,69.5V52.8c6,3.1,15.6,4.9,25.4,5.5c0.5-2.5,1.4-4.9,2.5-7.1C20.9,50.4,12,45.8,11,44V27.4
	c8,3.9,20.7,5.7,32.9,5.7s25.1-1.8,32.8-5.7l0,11.4c2.7,1.4,5.2,3.2,7.3,5.3V18.5C84,8.6,63.3,4,44,4S4,8.6,4,18.5v50.9
	C4,79.4,24.7,84,44,84c0,0,0.1,0,0.1,0C41.9,81.9,40.1,79.4,38.8,76.6z M44,11.3c21.1,0,32,5.2,32.7,7.3C76,20.6,65.1,25.8,44,25.8
	s-32-5.2-32.7-7.3C12,16.5,22.9,11.3,44,11.3z"/>
<path d="M64,43.8c11.1,0,20.2,9.1,20.2,20.2S75.1,84.2,64,84.2S43.8,75.1,43.8,64S52.8,43.8,64,43.8 M64,35.8
	c-15.6,0-28.2,12.6-28.2,28.2S48.4,92.2,64,92.2S92.2,79.6,92.2,64S79.6,35.8,64,35.8L64,35.8z"/>
</svg>
