<?xml version="1.0" encoding="utf-8"?>
<!-- Generator: Adobe Illustrator 21.0.0, SVG Export Plug-In . SVG Version: 6.00 Build 0)  -->
<svg version="1.1" id="Layer_1" xmlns="http://www.w3.org/2000/svg" xmlns:xlink="http://www.w3.org/1999/xlink" x="0px" y="0px"
	 viewBox="0 0 96 96" style="enable-background:new 0 0 96 96;" xml:space="preserve">
<path d="M84,49.1c0-20-15.9-36.4-35.7-37.1c-0.5,0-0.9,0-1.4,0s-1,0-1.4,0C25.6,12.8,9.7,29.1,9.7,49.1s15.9,36.4,35.7,37.1
	c0.5,0,0.9,0,1.4,0s1,0,1.4,0c1.3,0,2.6-0.2,3.9-0.4c3,2.4,6.8,3.9,10.9,3.9c9.5,0,17.2-7.7,17.2-17.2c0-2-0.3-3.8-0.9-5.6
	C82.3,61.7,84,55.6,84,49.1z M46.9,20.6c3.3,4.3,9,13.3,10,25.2h-20C37.8,34,43.5,24.9,46.9,20.6z M39.2,19.7
	c-3.8,5.7-8.3,14.7-9.1,26H16.7C18,33.2,27.2,22.9,39.2,19.7z M16.7,52.5h13.4c0.8,11.3,5.3,20.3,9.1,26
	C27.2,75.4,18,65.1,16.7,52.5z M45.9,72.6c0,1.6,0.2,3.2,0.7,4.7c-3.4-4.5-8.7-13.3-9.7-24.7h20c-0.1,1.4-0.3,2.8-0.6,4.2
	C50.2,59.4,45.9,65.5,45.9,72.6z M63.1,85.8c-7.3,0-13.2-5.9-13.2-13.2c0-2,0.5-4,1.3-5.7L56,82.1h4.4l2.6-10.3H63l2.7,10.3H70
	l4.8-15.3h-4.3l-2.8,10.4h-0.1l-2.6-10.4H61l-2.5,10.4h-0.1l-2.8-10.4h-4.3c2.2-4.4,6.7-7.5,11.9-7.5c7.3,0,13.2,5.9,13.2,13.2
	S70.4,85.8,63.1,85.8z M75.1,60.2c-3.1-3-7.2-4.8-11.8-4.9c0.1-0.9,0.2-1.8,0.3-2.8h13.4C76.8,55.2,76.1,57.8,75.1,60.2z M63.6,45.8
	c-0.8-11.3-5.3-20.3-9.1-26c12,3.1,21.1,13.4,22.5,26H63.6z"/>
</svg>
