<?xml version="1.0" encoding="utf-8"?>
<!-- Generator: Adobe Illustrator 17.0.0, SVG Export Plug-In . SVG Version: 6.00 Build 0)  -->
<!DOCTYPE svg PUBLIC "-//W3C//DTD SVG 1.1//EN" "http://www.w3.org/Graphics/SVG/1.1/DTD/svg11.dtd">
<svg version="1.1" id="Layer_1" xmlns="http://www.w3.org/2000/svg" xmlns:xlink="http://www.w3.org/1999/xlink" x="0px" y="0px"
	 width="96px" height="96px" viewBox="0 0 96 96" enable-background="new 0 0 96 96" xml:space="preserve">
<g>
	<path d="M48,4.901L3.166,21.526l0.979,3.54c1.499,5.425,2.243,10.159,2.963,14.738C9.321,53.887,11.07,65.01,32.065,79.462
		c5.72,3.937,11.051,9.299,12.802,11.061l3.106,3.106l2.828-2.774c1.935-1.897,7.15-6.795,13.789-11.294
		c18.745-12.698,26.991-53.066,27.333-54.778l0.668-3.347L48,4.901z M78.015,44.284c-5.223,14.345-11.417,24.254-17.913,28.654
		c-4.973,3.37-9.206,6.945-12.032,9.506c-2.723-2.624-6.941-6.456-11.469-9.572c-18.162-12.502-19.526-21.178-21.59-34.31
		c-0.57-3.626-1.201-7.636-2.244-12.063L48,13.433l35.329,13.101C82.414,30.352,80.655,37.035,78.015,44.284z"/>
	<path d="M35.541,33.041c-5.605,5.605-5.605,14.725,0,20.329c4.909,4.909,12.513,5.517,18.091,1.828l6.922,6.922
		c1.172,1.172,3.071,1.171,4.243,0c1.172-1.172,1.172-3.071,0-4.243L57.83,50.91c3.533-5.556,2.885-13.024-1.96-17.869
		C50.265,27.436,41.146,27.436,35.541,33.041z M51.628,37.284c3.265,3.265,3.265,8.578,0,11.844c-3.266,3.266-8.579,3.266-11.844,0
		c-3.266-3.266-3.266-8.579,0-11.844C43.05,34.018,48.363,34.018,51.628,37.284z"/>
</g>
</svg>
