<?xml version="1.0" encoding="utf-8"?>
<!-- Generator: Adobe Illustrator 17.0.0, SVG Export Plug-In . SVG Version: 6.00 Build 0)  -->
<!DOCTYPE svg PUBLIC "-//W3C//DTD SVG 1.1//EN" "http://www.w3.org/Graphics/SVG/1.1/DTD/svg11.dtd">
<svg version="1.1" id="Layer_1" xmlns="http://www.w3.org/2000/svg" xmlns:xlink="http://www.w3.org/1999/xlink" x="0px" y="0px"
	 width="96px" height="96px" viewBox="0 0 96 96" enable-background="new 0 0 96 96" xml:space="preserve">
<path d="M70.8,17.2c1.6,1.6,1.6,4.1,0,5.7L45.7,48l25.2,25.2c1.6,1.6,1.6,4.1,0,5.7c-1.6,1.6-4.1,1.6-5.7,0l-28-28
	c-1.6-1.6-1.6-4.1,0-5.7l28-28C66,16.4,67,16,68,16S70,16.4,70.8,17.2z M24,16c-2.2,0-4,1.8-4,4v56c0,2.2,1.8,4,4,4s4-1.8,4-4V20
	C28,17.8,26.2,16,24,16z"/>
</svg>
