<?xml version="1.0" encoding="utf-8"?>
<!-- Generator: Adobe Illustrator 17.0.0, SVG Export Plug-In . SVG Version: 6.00 Build 0)  -->
<!DOCTYPE svg PUBLIC "-//W3C//DTD SVG 1.1//EN" "http://www.w3.org/Graphics/SVG/1.1/DTD/svg11.dtd">
<svg version="1.1" id="Layer_1" xmlns="http://www.w3.org/2000/svg" xmlns:xlink="http://www.w3.org/1999/xlink" x="0px" y="0px"
	 width="96px" height="96px" viewBox="0 0 96 96" enable-background="new 0 0 96 96" xml:space="preserve">
<path d="M68,39.3V32c0-6.6-5.4-12-12-12H12C5.4,20,0,25.4,0,32v32c0,6.6,5.4,12,12,12h44c6.6,0,12-5.4,12-12v-7.3L96,72V24L68,39.3z
	 M60,64c0,2.2-1.8,4-4,4H12c-2.2,0-4-1.8-4-4V32c0-2.2,1.8-4,4-4h44c2.2,0,4,1.8,4,4V64z M88,58.5L68.7,48L88,37.5V58.5z"/>
</svg>
