<?xml version="1.0" encoding="utf-8"?>
<!-- Generator: Adobe Illustrator 17.0.0, SVG Export Plug-In . SVG Version: 6.00 Build 0)  -->
<!DOCTYPE svg PUBLIC "-//W3C//DTD SVG 1.1//EN" "http://www.w3.org/Graphics/SVG/1.1/DTD/svg11.dtd">
<svg version="1.1" id="Layer_1" xmlns="http://www.w3.org/2000/svg" xmlns:xlink="http://www.w3.org/1999/xlink" x="0px" y="0px"
	 width="96px" height="96px" viewBox="0 0 96 96" enable-background="new 0 0 96 96" xml:space="preserve">
<g>
	<path d="M60,11.999C44.327,11.999,31.002,22,26.058,36H24C10.746,36,0,46.745,0,60.001c0,13.255,10.746,24.001,24.001,24.001
		c0.026,0,0.051-0.002,0.077-0.002H60c19.882,0,36-16.118,36-36C96,28.118,79.882,11.999,60,11.999z M60,76H24
		c-8.836,0-16-7.163-16-16c0-8.837,7.164-16,16-16h8.298C34.24,30,45.896,19.999,60,19.999c15.464,0,28,12.536,28,28
		C88,63.464,75.464,76,60,76z"/>
	<path d="M64.35,58.6c-1.741,0-3.327,0.65-4.541,1.714l-12.581-6.8C47.338,53.026,47.4,52.521,47.4,52
		c0-0.28-0.021-0.554-0.054-0.825l9.641-5.999c1.261,1.364,3.059,2.223,5.063,2.223c3.811,0,6.9-3.089,6.9-6.9
		c0-3.811-3.089-6.9-6.9-6.9c-3.811,0-6.9,3.089-6.9,6.9c0,0.359,0.036,0.709,0.089,1.053l-9.531,5.93
		C44.443,46.026,42.581,45.1,40.5,45.1c-3.811,0-6.9,3.089-6.9,6.9c0,3.811,3.089,6.9,6.9,6.9c1.844,0,3.515-0.728,4.753-1.906
		l12.438,6.723c-0.152,0.57-0.241,1.165-0.241,1.783c0,3.811,3.089,6.9,6.9,6.9c3.811,0,6.9-3.089,6.9-6.9
		C71.25,61.689,68.161,58.6,64.35,58.6z"/>
</g>
</svg>
