<?xml version="1.0" encoding="utf-8"?>
<!-- Generator: Adobe Illustrator 22.1.0, SVG Export Plug-In . SVG Version: 6.00 Build 0)  -->
<svg version="1.1" id="Layer_1" xmlns="http://www.w3.org/2000/svg" xmlns:xlink="http://www.w3.org/1999/xlink" x="0px" y="0px"
	 viewBox="0 0 96 96" style="enable-background:new 0 0 96 96;" xml:space="preserve">
<style type="text/css">
	.st0{fill:#040000;}
</style>
<path class="st0" d="M84,24.9h-5.6L76,12.4C76,7.8,72.4,4,68,4H12c-4.4,0-8,3.8-8,8.4v20.9v0v50.3c0,4.6,3.6,8.4,8,8.4h72
	c4.4,0,8-3.8,8-8.4V71V45.9V33.3C92,28.7,88.4,24.9,84,24.9z M12,12.4h56v0.8l0.2,0.8l2.1,10.9H12V12.4z M84,62.7H64
	c-2.2,0-4-1.9-4-4.2s1.8-4.2,4-4.2h20V62.7z M84,45.9H64c-6.6,0-12,5.6-12,12.6S57.4,71,64,71h20v12.6H12V33.3h68l0,0h4V45.9z"/>
</svg>
