<?xml version="1.0" encoding="utf-8"?>
<!-- Generator: Adobe Illustrator 17.0.0, SVG Export Plug-In . SVG Version: 6.00 Build 0)  -->
<!DOCTYPE svg PUBLIC "-//W3C//DTD SVG 1.1//EN" "http://www.w3.org/Graphics/SVG/1.1/DTD/svg11.dtd">
<svg version="1.1" id="Layer_1" xmlns="http://www.w3.org/2000/svg" xmlns:xlink="http://www.w3.org/1999/xlink" x="0px" y="0px"
	 width="96px" height="96px" viewBox="0 0 96 96" enable-background="new 0 0 96 96" xml:space="preserve">
<path d="M72,21.2V12c0-6.6-5.4-12-12-12H36c-6.6,0-12,5.4-12,12v9.2C16.6,27.8,12,37.3,12,48s4.6,20.2,12,26.8V84
	c0,6.6,5.4,12,12,12h24c6.6,0,12-5.4,12-12v-9.2c7.4-6.6,12-16.2,12-26.8S79.4,27.8,72,21.2z M32,12c0-2.2,1.8-4,4-4h24
	c2.2,0,4,1.8,4,4v3.8C59.2,13.4,53.7,12,48,12s-11.2,1.4-16,3.8V12z M64,84c0,2.2-1.8,4-4,4H36c-2.2,0-4-1.8-4-4v-3.8
	c4.8,2.4,10.3,3.8,16,3.8s11.2-1.4,16-3.8V84z M48,76c-15.5,0-28-12.5-28-28s12.5-28,28-28s28,12.5,28,28S63.5,76,48,76z M56,60
	c-1,0-2-0.4-2.8-1.2l-8-8C44.4,50.1,44,49.1,44,48V32c0-2.2,1.8-4,4-4s4,1.8,4,4v14.3l6.8,6.8c1.6,1.6,1.6,4.1,0,5.7
	C58,59.6,57,60,56,60z"/>
</svg>
