<?xml version="1.0" encoding="utf-8"?>
<!-- Generator: Adobe Illustrator 17.0.0, SVG Export Plug-In . SVG Version: 6.00 Build 0)  -->
<!DOCTYPE svg PUBLIC "-//W3C//DTD SVG 1.1//EN" "http://www.w3.org/Graphics/SVG/1.1/DTD/svg11.dtd">
<svg version="1.1" id="Layer_1" xmlns="http://www.w3.org/2000/svg" xmlns:xlink="http://www.w3.org/1999/xlink" x="0px" y="0px"
	 width="96px" height="96px" viewBox="0 0 96 96" enable-background="new 0 0 96 96" xml:space="preserve">
<g>
	<path d="M71.782,45.969C71.781,31.098,57.475,19,39.891,19C22.306,19,8,31.098,8,45.969c0,4.781,1.48,9.439,4.292,13.538
		l2.31,16.546c0.181,1.298,0.986,2.424,2.154,3.016c0.569,0.288,1.188,0.432,1.808,0.432c0.653,0,1.306-0.16,1.898-0.479
		l12.484-6.73c2.288,0.43,4.617,0.647,6.946,0.647C57.476,72.938,71.782,60.84,71.782,45.969z M39.891,64.938
		c-2.239,0-4.479-0.255-6.658-0.759c-0.946-0.218-1.942-0.085-2.798,0.376l-8.706,4.693l-1.65-11.821
		c-0.093-0.668-0.354-1.301-0.757-1.841C17.149,52.677,16,49.352,16,45.969C16,35.51,26.717,27,39.891,27
		c13.172,0,23.89,8.51,23.891,18.969C63.782,56.429,53.064,64.938,39.891,64.938z"/>
	<path d="M76.72,32.322c-2.102-0.686-4.358,0.463-5.042,2.564c-0.685,2.101,0.463,4.358,2.563,5.042
		c7.255,2.364,9.826,5.687,9.826,12.697c0,2.168-0.762,4.312-2.204,6.2c-0.454,0.595-0.732,1.305-0.804,2.05l-0.562,5.921
		l-6.076-2.075c-0.7-0.239-1.452-0.278-2.177-0.116c-0.189,0.043-0.431,0.108-0.725,0.192c-0.85,0.241-2.271,0.646-4.559,0.646
		c-2.209,0-4,1.791-4,4s1.791,4,4,4c2.782,0,4.8-0.43,6.036-0.755l9.71,3.316c0.422,0.144,0.858,0.215,1.293,0.215
		c0.761,0,1.516-0.217,2.17-0.64c1.028-0.664,1.696-1.764,1.812-2.982l0.939-9.893c2.062-3.063,3.146-6.524,3.146-10.079
		C92.067,42.186,87.19,35.734,76.72,32.322z"/>
	<circle cx="32.625" cy="45.5" r="3.75"/>
	<circle cx="45.75" cy="45.5" r="3.75"/>
</g>
</svg>
