<?xml version="1.0" encoding="utf-8"?>
<!-- Generator: Adobe Illustrator 22.1.0, SVG Export Plug-In . SVG Version: 6.00 Build 0)  -->
<svg version="1.1" id="Layer_1" xmlns="http://www.w3.org/2000/svg" xmlns:xlink="http://www.w3.org/1999/xlink" x="0px" y="0px"
	 viewBox="0 0 96 96" style="enable-background:new 0 0 96 96;" xml:space="preserve">
<g>
	<path d="M12.3,34L12.3,34c1.5,0,2.9-0.9,3.6-2.2c4.6-9.1,13-16,23-18.7c-2.7,4-5.6,9.3-7.7,15.7C30.3,31.3,32.3,34,35,34h0
		c1.7,0,3.2-1.1,3.8-2.7c2.7-7.7,6.6-13.6,9.3-17c2.7,3.4,6.5,9.3,9.1,17c0.5,1.6,2.1,2.7,3.8,2.7H61c2.7,0,4.7-2.7,3.8-5.2
		c-2.2-6.4-5.1-11.7-7.7-15.7c10.1,2.7,18.4,9.6,23,18.7c0.7,1.4,2.1,2.2,3.6,2.2h0c3,0,4.9-3.1,3.6-5.8C80.3,14.4,66.2,4.7,49.7,4
		c-0.6,0-1.1,0-1.7,0s-1.1,0-1.7,0C29.8,4.7,15.7,14.4,8.7,28.2C7.4,30.9,9.3,34,12.3,34z"/>
	<path d="M83.7,62L83.7,62c-1.5,0-2.9,0.9-3.6,2.2c-4.6,9.1-13,16-23,18.7c2.7-4,5.6-9.3,7.7-15.7c0.9-2.6-1.1-5.2-3.8-5.2h-0.1
		c-1.7,0-3.2,1.1-3.8,2.7c-2.6,7.7-6.4,13.6-9.1,17c-2.7-3.4-6.5-9.3-9.1-17c-0.5-1.6-2.1-2.7-3.8-2.7H35c-2.7,0-4.7,2.7-3.8,5.2
		c2.2,6.4,5.1,11.7,7.7,15.7c-10.1-2.7-18.4-9.6-23-18.7c-0.7-1.4-2.1-2.2-3.6-2.2c-3,0-4.9,3.1-3.6,5.8c7,13.9,21.1,23.6,37.6,24.2
		c0.6,0,1.1,0,1.7,0s1.1,0,1.7,0c16.5-0.7,30.6-10.4,37.6-24.2C88.6,65.1,86.7,62,83.7,62z"/>
	<path d="M12.3,58.1h0.6c1.3,0,2.4-0.8,2.8-2l3-9.1l3,9.1c0.4,1.2,1.5,2,2.8,2H25c1.3,0,2.5-0.9,2.8-2.1l4.3-14.3
		c0.6-1.9-0.9-3.8-2.8-3.8h-0.2c-1.4,0-2.6,0.9-2.9,2.3l-2,8.2l-2.8-8.5c-0.4-1.2-1.5-2-2.8-2c-1.3,0-2.4,0.8-2.8,2L13,48.4l-2-8.2
		c-0.3-1.3-1.5-2.3-2.9-2.3H8c-2,0-3.4,1.9-2.8,3.8L9.4,56C9.8,57.3,11,58.1,12.3,58.1z"/>
	<path d="M58.7,37.9h-0.2c-1.4,0-2.6,0.9-2.9,2.3l-2,8.2l-2.8-8.5c-0.4-1.2-1.5-2-2.8-2h0c-1.3,0-2.4,0.8-2.8,2l-2.8,8.5l-2-8.2
		c-0.3-1.3-1.5-2.3-2.9-2.3h-0.2c-2,0-3.4,1.9-2.8,3.8L38.8,56c0.4,1.3,1.5,2.1,2.8,2.1h0.6c1.3,0,2.4-0.8,2.8-2l3-9.1l3,9.1
		c0.4,1.2,1.5,2,2.8,2h0.6c1.3,0,2.5-0.9,2.8-2.1l4.3-14.3C62.1,39.8,60.7,37.9,58.7,37.9z"/>
	<path d="M88,37.9h-0.2c-1.4,0-2.6,0.9-2.9,2.3l-2,8.2l-2.8-8.5c-0.4-1.2-1.5-2-2.8-2h0c-1.3,0-2.4,0.8-2.8,2l-2.8,8.5l-2-8.2
		c-0.3-1.3-1.5-2.3-2.9-2.3h-0.2c-2,0-3.4,1.9-2.8,3.8L68.1,56c0.4,1.3,1.5,2.1,2.8,2.1h0.6c1.3,0,2.4-0.8,2.8-2l3-9.1l3,9.1
		c0.4,1.2,1.5,2,2.8,2h0.6c1.3,0,2.5-0.9,2.8-2.1l4.3-14.3C91.4,39.8,90,37.9,88,37.9z"/>
</g>
</svg>
