<?xml version="1.0" encoding="utf-8"?>
<!-- Generator: Adobe Illustrator 22.1.0, SVG Export Plug-In . SVG Version: 6.00 Build 0)  -->
<svg version="1.1" id="Layer_1" xmlns="http://www.w3.org/2000/svg" xmlns:xlink="http://www.w3.org/1999/xlink" x="0px" y="0px"
	 viewBox="0 0 96 96" style="enable-background:new 0 0 96 96;" xml:space="preserve">
<g>
	<path d="M64.2,34.3c0.1,0,0.2,0,0.2,0c0.2-0.9,0.4-1.7,0.4-2.6c0-7-7.3-12.7-16.3-12.7s-16.3,5.7-16.3,12.7c0,5.6,4.7,10.4,11.2,12
		C48.5,37.9,55.9,34.3,64.2,34.3z"/>
	<path d="M33.8,77.8H10.5c-2.2,0-4,1.8-4,4c0,2.2,1.8,4,4,4h23.3c2.2,0,4-1.8,4-4S36,77.8,33.8,77.8z"/>
	<path d="M33.8,62.8H10.5c-2.2,0-4,1.8-4,4s1.8,4,4,4h23.3c2.2,0,4-1.8,4-4S36,62.8,33.8,62.8z"/>
	<path d="M81.6,74.1c2.3-3.4,3.7-7.5,3.7-11.9c0-11.6-9.4-21-21-21c-11.6,0-21,9.4-21,21c0,11.6,9.4,21,21,21
		c4.3,0,8.3-1.3,11.6-3.5l6.8,7.4c0.8,0.9,1.9,1.3,3,1.3c1,0,1.9-0.3,2.7-1c1.6-1.5,1.7-4,0.3-5.7L81.6,74.1z M64.2,75.2
		c-7.2,0-13-5.8-13-13c0-7.2,5.8-13,13-13s13,5.8,13,13C77.2,69.4,71.4,75.2,64.2,75.2z"/>
	<path d="M90.5,15.4c0-4.3-3.5-7.9-7.9-7.9c-0.2,0-0.3,0-0.5,0c-0.2,0-0.3,0-0.5,0H15.4c-0.2,0-0.3,0-0.5,0c-0.2,0-0.3,0-0.5,0
		c-4.3,0-7.9,3.5-7.9,7.9c0,0.2,0,0.3,0,0.5c0,0.2,0,0.3,0,0.5v30.5c0,0.2,0,0.3,0,0.5c0,0.2,0,0.3,0,0.5c0,4.3,3.5,7.9,7.9,7.9
		c0.2,0,0.3,0,0.5,0c0.2,0,0.3,0,0.5,0h18.4c2.2,0,4-1.8,4-4s-1.8-4-4-4H22.2c0-4.3-3.5-7.8-7.8-7.8V23.2c4.3,0,7.8-3.5,7.8-7.8
		h52.6c0,4.3,3.5,7.8,7.8,7.8v16.6c0,2.2,1.8,4,4,4c2.2,0,4-1.8,4-4V16.4c0-0.2,0-0.3,0-0.5C90.5,15.7,90.5,15.5,90.5,15.4z"/>
</g>
</svg>
