<?xml version="1.0" encoding="utf-8"?>
<!-- Generator: Adobe Illustrator 21.0.0, SVG Export Plug-In . SVG Version: 6.00 Build 0)  -->
<svg version="1.0" id="Layer_1" xmlns="http://www.w3.org/2000/svg" xmlns:xlink="http://www.w3.org/1999/xlink" x="0px" y="0px"
	 viewBox="0 0 96 96" style="enable-background:new 0 0 96 96;" xml:space="preserve">
<style type="text/css">
	.st0{fill:#0B0C0C;}
</style>
<g>
	<path class="st0" d="M88.5,49.4C88.5,27,70.6,8.8,48.3,8.2V8.1c-0.2,0-0.4,0-0.5,0c-0.2,0-0.4,0-0.5,0v0.1C24.9,8.8,7,27,7,49.4
		c0,22.4,17.9,40.7,40.2,41.2v0.1c0.2,0,0.4,0,0.5,0c0.2,0,0.4,0,0.5,0v-0.1C70.6,90.1,88.5,71.8,88.5,49.4z M47.7,89.3
		C26.1,89,8.5,71.3,8.4,49.6l16.2-0.1l0.2,13.1l14.1-8.5l7.3-4.4l-7.5-4.9l-14.2-9.3l0.2,13.3L8.4,48.9C8.7,27.4,26.2,9.9,47.7,9.6
		c21.6,0.3,39,17.8,39.3,39.3l-16.2-0.1L71,35.6l-14.2,9.3l-7.5,4.9l7.3,4.4l14.1,8.5l0.2-13.1l16.2,0.1C87,71.3,69.4,89,47.7,89.3z
		 M43.2,49.5l-4.8,3.4l-5.5,3.3l-0.2,0.1l-6.5,3.9l-0.3-22v0l12.3,8l3.9,2.5h0L43.2,49.5z M53.4,48.8l3.9-2.5l12.3-8v0l-0.3,22
		l-6.5-3.9l-0.2-0.1l-5.5-3.3l-4.8-3.4L53.4,48.8L53.4,48.8z"/>
	<path class="st0" d="M48.6,52v7.9h0v17.9l21.1-13.5L55.4,56L48.6,52z M50,75.2l-0.4-21l4.8,2.8l0,0c0,0,0,0,0,0L67,64.5L50,75.2z"
		/>
	<path class="st0" d="M55.3,43.4l15.3-9.3L48.1,23.1l0.2,16.6h0l0.1,7.9L55.3,43.4L55.3,43.4z M50.3,45l-0.1-5.1L49.9,32l0-0.2
		l-0.2-6.5L68,34.1l-6.8,4.3l0,0l-6.4,4L50.3,45z"/>
	<path class="st0" d="M46.9,52l-6.8,4l-14.3,8.4l21.1,13.5V59.9h0V52z M45.5,75.2L28.5,64.5l12.6-7.4c0,0,0,0,0,0l0,0l4.8-2.8
		L45.5,75.2z"/>
	<path class="st0" d="M40,43.5L40,43.5l6.8,4l0-7.9h0l0.1-16.6L24.5,34.4L40,43.5z M45.5,31.8l0,0.2l0,7.9l0,5.2L41,42.4l-6.5-3.8
		l0,0l-6.9-4.1l18-9.1L45.5,31.8z"/>
</g>
</svg>
