<?xml version="1.0" encoding="utf-8"?>
<!-- Generator: Adobe Illustrator 21.0.0, SVG Export Plug-In . SVG Version: 6.00 Build 0)  -->
<svg version="1.0" id="Layer_1" xmlns="http://www.w3.org/2000/svg" xmlns:xlink="http://www.w3.org/1999/xlink" x="0px" y="0px"
	 viewBox="0 0 96 96" style="enable-background:new 0 0 96 96;" xml:space="preserve">
<style type="text/css">
	.st0{fill:#0B0C0C;}
</style>
<g>
	<path class="st0" d="M48,8.4C26.2,8.4,8.4,26.2,8.4,48c0,7.8,2.3,15.1,6.2,21.2l-0.1,0.1l0.6,0.7C22.2,80.6,34.3,87.6,48,87.6
		c21.8,0,39.6-17.8,39.6-39.6S69.8,8.4,48,8.4z M81.6,66.3c-1.6,2.9-3.5,5.6-5.8,7.9l-5.3-8.7l-1.2,0.7l5.5,9
		c-2.8,2.7-5.9,5-9.4,6.8l-5.7-12.5l-1.2,0.6l5.7,12.5c-4.1,1.9-8.6,3.1-13.4,3.5l-0.4-14.7l-1.4,0l0.4,14.7c-0.5,0-0.9,0-1.4,0
		c-3.6,0-7-0.5-10.3-1.4l4.2-13.6l-1.3-0.4l-4.2,13.7c-8.2-2.6-15.3-8-20.1-15l5.4-4.6l-0.9-1l-5.3,4.5C11.9,62.4,9.7,55.5,9.7,48
		c0,0,0,0,0,0l0.1,0.1c6.4,12.3,21.3,20.3,38.1,20.3c0.4,0,0.7,0,1.1,0c0.2,0,0.4,0,0.7,0c1,0,2-0.1,2.9-0.2
		c14.8-1.3,27.6-8.9,33.4-20.1l0.2-0.3L86,47.5c-6.4-12.3-21.3-20.3-38.1-20.3c-16.8,0-31.7,8-38.1,20.3l0,0.1
		c0.1-7.8,2.5-15.1,6.7-21.1l4.3,5.6l1.1-0.8l-4.4-5.7l-0.7,0.6c2.2-3.1,4.8-5.8,7.7-8.2l4.9,9.5l1.2-0.6l-4.9-9.5l-0.9,0.5
		c3-2.3,6.4-4.2,10-5.6l5.5,13.1l1.3-0.5l-5.5-13c3.8-1.3,7.8-2,12.1-2c21.1,0,38.3,17.2,38.3,38.3c0,6.1-1.4,11.9-4,17l-3.9-4.8
		l-1.1,0.9L81.6,66.3z M68.8,47.9c0,9.6-7.1,17.5-16.3,18.9c-1.1,0.1-2.3,0.2-3.4,0.2c-10.2-0.3-18.4-8.8-18.4-19.1
		c0-10.5,8.6-19.1,19.1-19.1C60.2,28.8,68.8,37.4,68.8,47.9z M59.2,29.8c11.3,2.6,20.8,9.1,25.5,18c-4.6,8.7-13.7,15-24.6,17.8
		c6-3.6,10.1-10.1,10.1-17.6C70.2,40,65.7,33.2,59.2,29.8z M29.2,47.9c0,8.3,5,15.5,12.1,18.7C28,64.8,16.5,57.9,11.2,47.8
		c5.5-10.3,17.4-17.4,31.2-18.9C34.7,31.8,29.2,39.2,29.2,47.9z"/>
	<path class="st0" d="M38.8,47.8c0,6.3,5.1,11.4,11.4,11.4c6.3,0,11.4-5.1,11.4-11.4s-5.1-11.4-11.4-11.4
		C44,36.3,38.8,41.5,38.8,47.8z M50.3,37.7c5.6,0,10.1,4.5,10.1,10.1s-4.5,10.1-10.1,10.1c-5.6,0-10.1-4.5-10.1-10.1
		S44.7,37.7,50.3,37.7z"/>
	<path class="st0" d="M49.5,9.9h1.4v13.7h-1.4V9.9z"/>
	<path class="st0" d="M62.4,12.8l1.2,0.6l-5.2,10.9l-1.2-0.6L62.4,12.8z"/>
	<path class="st0" d="M73.5,19.5l0.9,1l-7.7,7.2l-0.9-1L73.5,19.5z"/>
	<path class="st0" d="M81,28.8l0.7,1.1L76,33.6l-0.7-1.1L81,28.8z"/>
	<path class="st0" d="M30.2,68.9l1.2,0.7l-5.2,9.1L25,78L30.2,68.9z"/>
</g>
</svg>
