<?xml version="1.0" encoding="utf-8"?>
<!-- Generator: Adobe Illustrator 22.1.0, SVG Export Plug-In . SVG Version: 6.00 Build 0)  -->
<svg version="1.1" id="Layer_1" xmlns="http://www.w3.org/2000/svg" xmlns:xlink="http://www.w3.org/1999/xlink" x="0px" y="0px"
	 viewBox="0 0 96 96" style="enable-background:new 0 0 96 96;" xml:space="preserve">
<style type="text/css">
	.st0{fill:#000101;}
</style>
<g>
	<path class="st0" d="M43.2,65.6c-0.8-0.9-1-2.1-0.4-3.1c0.3-0.5,0.7-0.8,1.1-1.2C44,61.2,54.6,52.2,56.5,51l0,0
		c0,0,1.7-1.3,3.2,0.7c0,0,0,0,0,0c1.8,1.9,6.5,7.4,6.6,7.5c0.8,1.1,0.8,2.4-0.1,3.3c-0.6,0.6-1.1,1.1-1.6,1.6
		c-0.7,0.6-1.5,1.5-1.4,2.9c0.1,1.1,1,2.2,2,2.4l0.1,0l0.2,0l0.2,0.1c0.2,0,0.4,0.1,0.6,0.1c0.7,0,1.3-0.2,1.8-0.8l0.3-0.3
		c0.7-0.8,1.5-1.5,2.2-2.3c0.9-0.9,1.9-2.2,2.2-3.5c0-0.1,0.6-2.4-0.5-3.9c-0.8-1-10.3-13.6-11.9-14.9c-1.2-1-4.3-3.8-9.5,0.4
		c0,0-15.9,12.9-16.8,13.8c-1.4,1.4-2.2,2.9-2.3,4.7c-0.2,2,0.6,3.8,2.2,5.6c0.5,0.5,4.8,4.8,4.8,4.8s-4.3,0-6.5,0
		c-0.9,0-1.8-0.1-2.7-0.4c-6-1.9-10.6-6.8-12-13v0c0-0.1-0.1-0.3-0.1-0.4c0-0.1,0-0.3-0.1-0.4c0-0.1,0-0.2,0-0.2c0-0.1,0-0.2,0-0.2
		c-0.4-2.7-0.2-5.4,0.6-7.8c0,0,0-0.1,0-0.1c1.4-4.3,4.4-8,8.4-10.2c1.7-1,3.7-1.6,5.7-2c0,0,0,0,0,0c2.3-0.4,4.2-1.8,5-4
		c0.2-0.4,0.3-0.8,0.5-1.2c0.2-0.4,0.4-0.8,0.6-1.2c2.2-3.8,6-6.3,10.3-7c6.6-1,13,2.7,15.5,8.7c0.2,0.6,0.5,1.2,0.6,1.9
		c0,0,0,0.1,0,0.1c0,0.1,0,0.2,0.1,0.3c0.3,1.2,1.5,2,2.8,1.8c1.3-0.2,2.3-1.5,2.1-2.9c-0.1-0.5-0.2-0.9-0.3-1.4
		c0-0.1,0-0.2-0.1-0.3c0-0.1,0-0.1,0-0.2c-0.5-1.8-1.2-3.5-2.2-5c-4.4-7.5-13.1-11.9-22.1-10.6h0c-0.3,0.1-0.7,0.1-1,0.2
		c-0.2,0-0.3,0.1-0.5,0.1c0,0,0,0-0.1,0l0,0c-5.8,1.3-10.9,5-14,10.2c-0.3,0.5-0.5,0.9-0.8,1.4c-0.5,1-1.4,1.6-2.5,1.7
		c-2.5,0.2-4.9,0.8-7.1,1.7c0,0,0,0-0.1,0c-5,2-9.1,5.6-11.7,10.2c-2.1,3.5-3.2,7.7-3.2,12c0,0.6,0,1.2,0.1,1.8
		c0.1,1,0.2,1.9,0.4,2.8c0,0.1,0,0.3,0.1,0.4c0,0.1,0,0.1,0,0.2c0,0.2,0.1,0.4,0.2,0.6c2.5,10,11.2,17.3,21.5,18
		c0.5,0,1.1,0.1,1.6,0.1v0H50c0.7-0.1,1.3-0.4,1.7-0.9c0.9-1,0.6-2.4-0.2-3.5C51.3,73.9,44.4,66.8,43.2,65.6z"/>
	<path class="st0" d="M85.2,52.3c0-5.3-3.2-9.5-3.2-9.5c-5.9-6.8-12-2-12-2s-2.5,1.6-1.5,3.8c1,2.1,3.4,1.2,3.4,1.2
		c3.8-2.7,8.7,2,8.7,6.5c0,3,1.2,4,2,4.4c0.3,0.1,0.6,0.3,0.9,0.5l0,0c1,0.9,1.7,2,2.2,3.2c0,0,0,0,0,0.1c0.3,0.7,0.5,1.4,0.7,2.2
		c0,0.1,0,0.3,0,0.4c0.2,1.9-0.1,3.7-0.8,5.2c-1.3,3-4.2,5.2-7.6,5.7h0c-0.2,0-0.5,0-0.8,0h-9.6c-0.6,0-1.2-0.1-1.8-0.3
		c-0.8-0.2-1.5-0.6-2.2-1.1L63.2,72l-3.9-4.1c-0.2-0.2-0.4-0.5-0.5-0.8l-0.1-0.4c-0.1-0.2-0.1-0.5-0.1-0.8c0-0.3,0.1-0.6,0.2-0.9
		c0.1-0.2,0.2-0.4,0.4-0.6l3.1-2.9c0,0,2.2-2.2,0-4.4c-2.2-2.2-4.8-0.5-4.8-0.5s0,0-5.1,4.6c-5.1,4.5,0,9.2,0,9.2l5.9,5.8
		c1.9,2.6,5.5,2.5,5.5,2.5L80,78.6c2.1,0,4.1-0.7,5.8-1.9c2.3-1.7,5.1-4.8,6.2-10.1C93.8,57,85.2,52.3,85.2,52.3z"/>
</g>
</svg>
