<?xml version="1.0" encoding="utf-8"?>
<!-- Generator: Adobe Illustrator 22.1.0, SVG Export Plug-In . SVG Version: 6.00 Build 0)  -->
<svg version="1.1" id="Layer_1" xmlns="http://www.w3.org/2000/svg" xmlns:xlink="http://www.w3.org/1999/xlink" x="0px" y="0px"
	 viewBox="0 0 96 96" style="enable-background:new 0 0 96 96;" xml:space="preserve">
<style type="text/css">
	.st0{fill:#000101;}
</style>
<g>
	<path class="st0" d="M28.2,48.8h-0.8c-0.1,0-0.3,0.1-0.3,0.2l0,6h1.4v-6C28.5,48.9,28.4,48.8,28.2,48.8z"/>
	<path class="st0" d="M32.4,48.8h-0.8c-0.1,0-0.3,0.1-0.3,0.2l0,6h1.4v-6C32.7,48.9,32.5,48.8,32.4,48.8z"/>
	<path class="st0" d="M68.7,44.9c0-0.3-0.3-0.6-0.7-0.6H57.8c-0.4,0-0.7,0.3-0.7,0.6v0.7h11.6V44.9z"/>
	<path class="st0" d="M68.8,47.6H57c-0.4,0-0.7,0.3-0.7,0.6v0.7h2.2l-1.3,4.5l0,0c-0.2,0.5-0.2,0.9,0.1,1.2c0.3,0.3,0.7,0.4,1.4,0.4
		h8.6c0.5,0,1-0.2,1.2-0.4c0.2-0.2,0.3-0.5,0.2-0.8l-0.8-3.1h-2.2l0.5,2.4l0,0c0,0,0,0.1,0,0.1c0,0.4-0.3,0.6-0.7,0.7h0h-5.1h0
		c-0.5,0-0.8-0.3-0.8-0.7c0,0,0-0.1,0-0.1l0,0l1.1-4.2h8.9v-0.7C69.5,47.8,69.2,47.6,68.8,47.6z"/>
	<path class="st0" d="M53.6,44.9h-1.8v-0.7H50v0.7h-1v1.3h1L49.4,55h2l0.5-8.8h0.8c0,0,0,0,0.1,0c0.4,0,0.8,0.2,0.8,1v6.1v0
		c0,0.3-0.3,0.6-0.7,0.6h-0.2L52.5,55h1.4c0.7,0,1.2-0.5,1.2-1c0,0,0,0,0-0.1v-7.7C55.2,45.3,54.7,44.9,53.6,44.9z"/>
	<path class="st0" d="M47.7,44.9c0-0.3-0.3-0.6-0.7-0.6h-4.4c-0.4,0-0.7,0.3-0.7,0.6v0.7h5.9V44.9z"/>
	<path class="st0" d="M47.4,51.9h-1.7l0.4,1.2l0,0c0,0,0,0.1,0,0.1c0,0.3-0.2,0.5-0.6,0.5l0,0h-1.1l0,0c-0.3,0-0.6-0.3-0.6-0.5
		c0,0,0-0.1,0-0.1c0,0,0,0,0,0l0,0l1.6-3.7H48v-0.7c0-0.3-0.3-0.6-0.7-0.6h-5c-0.4,0-0.7,0.3-0.7,0.6v0.7h1.9l-1.9,4.1c0,0,0,0,0,0
		c0,0.1-0.1,0.2-0.1,0.3c0,0.6,0.6,1,1.2,1l4.1,0c0.7,0,1.2-0.5,1.2-1c0-0.1,0-0.2-0.1-0.3L47.4,51.9z"/>
	<path class="st0" d="M39.3,44.2L39.3,44.2l-3.9,0c-0.5,0.5-1,0.9-1.6,1.1v1.3c0.8-0.2,1.5-0.6,2.1-1l0.1-0.1h2.1l0,0
		c0.3,0,0.5,0.2,0.5,0.5c0,0,0,0.1,0,0.1v0l-0.8,2.4l-1.2-1.6h-1.6l0.9,1.3h-2.2v1.1h4.4c0,0,0,0,0,0c0.5,0,1-0.3,1.2-0.7
		c0,0,0,0,0,0c0.4-1.1,1-3.1,1.1-3.2c0-0.1,0-0.1,0-0.2C40.4,44.7,39.9,44.2,39.3,44.2z"/>
	<path class="st0" d="M39.3,49.9L39.3,49.9l-3.9,0c-0.5,0.5-1,0.9-1.6,1.1v1.3c0.8-0.2,1.5-0.6,2.1-1l0.1-0.1h2.1h0
		c0.3,0,0.5,0.2,0.5,0.5c0,0,0,0.1,0,0.1v0l-0.8,2.4l-1.2-1.6h-1.6l0.9,1.3h-2.2V55h4.4c0,0,0,0,0,0c0.5,0,1-0.3,1.2-0.7
		c0,0,0,0,0,0c0.4-1.1,1-3.1,1.1-3.2c0-0.1,0-0.1,0-0.2C40.4,50.4,39.9,49.9,39.3,49.9z"/>
	<path class="st0" d="M32.3,46.6h-1.6v-1.2h2.1v-0.6c0-0.3-0.3-0.5-0.6-0.5h-4.4c-0.4,0-0.6,0.2-0.6,0.5v0.6h2v1.2h-1.4
		c-0.4,0-0.6,0.2-0.6,0.5v0.6h2.1V55h1.6v-7.3h2.2v-0.6C32.9,46.8,32.7,46.6,32.3,46.6z"/>
	<path class="st0" d="M72.3,46h-1.3c-0.2,0.7-0.4,1.4-0.5,2.2c-0.1,0.8-0.2,1.6-0.2,2.3c0,0.8,0.1,1.6,0.2,2.3
		c0.1,0.8,0.3,1.5,0.5,2.2h1.3c-0.2-0.7-0.4-1.4-0.5-2.2c-0.1-0.8-0.2-1.6-0.2-2.3c0-0.8,0.1-1.6,0.2-2.3
		C71.9,47.4,72.1,46.7,72.3,46z"/>
	<path class="st0" d="M79,46.4c-0.5,0-0.8,0.4-0.8,0.8V53c0,0.5-0.4,0.8-0.8,0.8h-1.8c-0.5,0-0.8-0.4-0.8-0.8v-5.8
		c0-0.5-0.4-0.8-0.8-0.8c-0.5,0-0.8,0.4-0.8,0.8v7c0,0.5,0.4,0.8,0.8,0.8H79c0.1,0,0.2,0,0.3,0c0.1,0,0.2-0.1,0.2-0.1
		c0.1,0,0.1-0.1,0.2-0.2c0-0.1,0.1-0.2,0.1-0.3v-7.2C79.8,46.8,79.4,46.4,79,46.4z"/>
	<path class="st0" d="M84.2,46.2c0-0.3-0.3-0.6-0.6-0.6l-0.3,0c-0.3,0-0.6,0.3-0.6,0.6v2.3h-0.5v-2c0-0.3-0.3-0.6-0.6-0.6h-0.8
		c-0.1,0-0.2,0.1-0.2,0.2v8.8c0,0.1,0.1,0.2,0.2,0.2h1.2c0.1,0,0.2-0.1,0.2-0.2v-3.1H83v3.1c0,0.1,0.1,0.2,0.2,0.2h1.2
		c0.1,0,0.2-0.1,0.2-0.2v-3.7c0-0.3-0.3-0.6-0.6-0.6h-1.2c-0.2,0-0.4-0.2-0.4-0.4v0c0-0.2,0.2-0.4,0.4-0.4h1.4
		c0.3,0,0.6-0.3,0.6-0.6v-0.6h-0.5V46.2z"/>
	<path class="st0" d="M89.2,53c-0.1-0.2-0.1-0.3,0-0.5l0.8-2c0-0.1,0-0.1,0-0.2v-1.6c0-0.1,0-0.2-0.1-0.2c-0.1-0.1-0.1-0.1-0.2-0.2
		c-0.1,0-0.2-0.1-0.3-0.1c-0.1,0-0.2,0-0.2,0h-2.2c-0.3,0-0.6-0.3-0.6-0.6v-0.1c0-0.3,0.3-0.6,0.6-0.6h2.9c0.1,0,0.2-0.1,0.2-0.2
		v-0.5c0-0.3-0.3-0.6-0.6-0.6l-3.8,0c-0.1,0-0.2,0-0.3,0c-0.1,0-0.2,0.1-0.2,0.1c-0.1,0-0.1,0.1-0.2,0.2c0,0.1-0.1,0.2-0.1,0.3v8.6
		c0,0.1,0.1,0.2,0.2,0.2h1.2c0.1,0,0.2-0.1,0.2-0.2v-2.5c0-0.4,0.6-0.6,0.8-0.2l0.2,0.3c0.1,0.2,0.1,0.3,0,0.5l-0.4,0.9h-0.5l0.1,1
		c0,0.1,0.1,0.2,0.2,0.2l0.7,0c0.2,0,0.3,0,0.4-0.1c0.1-0.1,0.2-0.2,0.3-0.3l0.1-0.3l0.3,0.6c0,0.1,0.1,0.1,0.2,0.1H90
		c0.1,0,0.2-0.1,0.2-0.3L89.2,53z M88.6,50.1c0,0.1,0,0.1,0,0.2l-0.4,0.9l-0.5-1c-0.1-0.2-0.3-0.3-0.5-0.3h-0.7v-0.5H88
		c0.3,0,0.6,0.3,0.6,0.6V50.1z"/>
	<path class="st0" d="M92.8,48.2c-0.1-0.8-0.3-1.5-0.5-2.2H91c0.2,0.7,0.4,1.4,0.5,2.2c0.1,0.8,0.2,1.6,0.2,2.3
		c0,0.8-0.1,1.6-0.2,2.3c-0.1,0.8-0.3,1.5-0.5,2.2h1.3c0.2-0.7,0.4-1.4,0.5-2.2c0.1-0.8,0.2-1.6,0.2-2.3
		C93,49.7,92.9,48.9,92.8,48.2z"/>
	<path class="st0" d="M12,52c-0.2-0.2-0.2-0.5-0.1-0.7c0.1-0.1,0.2-0.2,0.3-0.3c0,0,2.4-2.1,2.9-2.3c0,0,0.4-0.3,0.7,0.2
		c0.4,0.4,1.5,1.7,1.5,1.7c0.2,0.3,0.2,0.5,0,0.8c-0.1,0.1-0.3,0.3-0.4,0.4c-0.2,0.1-0.3,0.3-0.3,0.7c0,0.3,0.2,0.5,0.5,0.5h0h0l0,0
		c0,0,0.1,0,0.1,0c0.2,0,0.3,0,0.4-0.2l0.1-0.1c0.2-0.2,0.3-0.3,0.5-0.5c0.2-0.2,0.4-0.5,0.5-0.8c0,0,0.1-0.5-0.1-0.9
		c-0.2-0.2-2.3-3.1-2.7-3.4c-0.3-0.2-1-0.9-2.2,0.1c0,0-3.6,2.9-3.8,3.1c-0.3,0.3-0.5,0.7-0.5,1.1c0,0.5,0.1,0.9,0.5,1.3
		c0.1,0.1,1.1,1.1,1.1,1.1s-1,0-1.5,0c-0.2,0-0.4,0-0.6-0.1c-1.4-0.4-2.4-1.6-2.7-3c0,0,0-0.1,0-0.1c0,0,0-0.1,0-0.1c0,0,0,0,0,0
		c0,0,0,0,0,0c-0.1-0.6,0-1.2,0.1-1.8v0c0.3-1,1-1.8,1.9-2.3C8.5,46,9,45.9,9.4,45.8c0.5-0.1,1-0.4,1.1-0.9c0-0.1,0.1-0.2,0.1-0.3
		c0-0.1,0.1-0.2,0.1-0.3c0.5-0.9,1.4-1.4,2.3-1.6c1.5-0.2,3,0.6,3.5,2c0,0.1,0.1,0.3,0.1,0.4v0c0,0,0,0,0,0.1
		c0.1,0.3,0.3,0.5,0.6,0.4c0.3,0,0.5-0.3,0.5-0.7c0-0.1,0-0.2-0.1-0.3c0,0,0,0,0-0.1c0,0,0,0,0,0c-0.1-0.4-0.3-0.8-0.5-1.1
		c-1-1.7-3-2.7-5-2.4c-0.1,0-0.2,0-0.2,0c0,0-0.1,0-0.1,0c0,0,0,0,0,0c-1.3,0.3-2.5,1.1-3.2,2.3c-0.1,0.1-0.1,0.2-0.2,0.3
		C8.5,44,8.3,44.1,8,44.1c-0.6,0-1.1,0.2-1.6,0.4c0,0,0,0,0,0c-1.1,0.5-2.1,1.3-2.7,2.3C3.3,47.6,3,48.6,3,49.6c0,0.1,0,0.3,0,0.4
		c0,0.2,0,0.4,0.1,0.6c0,0,0,0.1,0,0.1c0,0,0,0,0,0c0,0,0,0.1,0,0.1c0.6,2.3,2.6,3.9,4.9,4.1c0.1,0,0.3,0,0.4,0h5.1
		c0.2,0,0.3-0.1,0.4-0.2c0.2-0.2,0.1-0.5,0-0.8C13.8,53.9,12.2,52.3,12,52z"/>
	<path class="st0" d="M21.5,49c0-1.2-0.7-2.2-0.7-2.2c-1.3-1.6-2.7-0.5-2.7-0.5s-0.6,0.4-0.3,0.9c0.2,0.5,0.8,0.3,0.8,0.3
		c0.9-0.6,2,0.5,2,1.5c0,0.7,0.3,0.9,0.5,1c0.1,0,0.1,0.1,0.2,0.1c0.2,0.2,0.4,0.5,0.5,0.7c0,0,0,0,0,0c0.1,0.2,0.1,0.3,0.2,0.5
		c0,0,0,0.1,0,0.1c0,0.4,0,0.8-0.2,1.2c-0.3,0.7-1,1.2-1.7,1.3c0,0-0.1,0-0.2,0h-2.2c-0.1,0-0.3,0-0.4-0.1c-0.2,0-0.3-0.1-0.5-0.3
		l-0.1-0.1l-0.9-0.9c0,0-0.1-0.1-0.1-0.2l0-0.1c0,0,0-0.1,0-0.2c0-0.1,0-0.1,0-0.2c0,0,0-0.1,0.1-0.1l0.7-0.7c0,0,0.5-0.5,0-1
		c-0.5-0.5-1.1-0.1-1.1-0.1s0,0-1.2,1c-1.2,1,0,2.1,0,2.1l1.3,1.3c0.4,0.6,1.3,0.6,1.3,0.6l3.7,0c0.5,0,0.9-0.2,1.3-0.4
		c0.5-0.4,1.2-1.1,1.4-2.3C23.5,50,21.5,49,21.5,49z"/>
</g>
</svg>
