<?xml version="1.0" encoding="utf-8"?>
<!-- Generator: Adobe Illustrator 21.0.0, SVG Export Plug-In . SVG Version: 6.00 Build 0)  -->
<svg version="1.1" id="Layer_1" xmlns="http://www.w3.org/2000/svg" xmlns:xlink="http://www.w3.org/1999/xlink" x="0px" y="0px"
	 viewBox="0 0 96 96" style="enable-background:new 0 0 96 96;" xml:space="preserve">
<g>
	<path d="M89,53.3L89,53.3c-1.7-2.9-1.2-6.2,0.8-8.6c1.1-1.3,1.4-3.1,0.5-4.6l-0.7-1.1c-0.8-1.4-2.5-2.2-4.1-1.9
		c-0.5,0.1-1,0.1-1.5,0.1c-3.3,0-6.3-2.1-7.4-5c-0.6-1.6-2.1-2.7-3.8-2.7h-1.6c-1.7,0-3.2,1-3.8,2.6c-0.1,0.4-0.3,0.8-0.6,1.1
		c-1.8,2.9-5,4.2-8.2,3.6c-1.7-0.3-3.3,0.5-4.2,1.9l-0.6,1c-0.9,1.5-0.6,3.4,0.6,4.7c0.3,0.3,0.5,0.6,0.7,1c1.7,2.9,1.2,6.2-0.8,8.6
		c-1.1,1.3-1.4,3.1-0.5,4.6l0.7,1.1c0.8,1.4,2.5,2.2,4.1,1.9c0.5-0.1,1-0.1,1.5-0.1c3.3,0,6.1,2.1,7.3,4.9c0.7,1.5,2.1,2.5,3.7,2.5
		h1.6c1.7,0,3.1-1.1,3.7-2.7c0.1-0.4,0.3-0.7,0.5-1.1c1.8-2.9,5-4.2,8.2-3.6c1.7,0.3,3.3-0.5,4.2-1.9l0.5-0.8
		c0.8-1.4,0.7-3.2-0.3-4.5C89.4,54,89.2,53.6,89,53.3z M71.9,57.5c-4.7,0-8.4-3.7-8.4-7.9s3.7-7.9,8.4-7.9c4.7,0,8.4,3.7,8.4,7.9
		S76.6,57.5,71.9,57.5z"/>
	<path d="M70.9,77.6h-0.9c-1.1,0-2,0.9-2,2v4.2c0,1.1-0.9,2-2,2H15.3c-1.1,0-2-0.9-2-2V13.3c0-1.1,0.9-2,2-2h50.6c1.1,0,2,0.9,2,2
		V21c0,1.1,0.9,2,2,2h0.9c1.1,0,2-0.9,2-2V8.3c0-1.1-0.9-2-2-2H10.3c-1.1,0-2,0.9-2,2v80.4c0,1.1,0.9,2,2,2h60.5c1.1,0,2-0.9,2-2
		v-9.1C72.9,78.5,72,77.6,70.9,77.6z"/>
	<path d="M48.1,34.6c0-1.4-1.1-2.5-2.5-2.5H20.7c-1.4,0-2.5,1.1-2.5,2.5v0c0,1.4,1.1,2.5,2.5,2.5h24.8C46.9,37.1,48.1,36,48.1,34.6
		L48.1,34.6z"/>
	<path d="M45.6,47.1H20.7c-1.4,0-2.5,1.1-2.5,2.5s1.1,2.5,2.5,2.5h24.8c1.4,0,2.5-1.1,2.5-2.5S46.9,47.1,45.6,47.1z"/>
	<path d="M45.6,61.9H20.7c-1.4,0-2.5,1.1-2.5,2.5c0,1.4,1.1,2.5,2.5,2.5h24.8c1.4,0,2.5-1.1,2.5-2.5C48.1,63.1,46.9,61.9,45.6,61.9z
		"/>
</g>
</svg>
