<?xml version="1.0" encoding="utf-8"?>
<!-- Generator: Adobe Illustrator 22.1.0, SVG Export Plug-In . SVG Version: 6.00 Build 0)  -->
<svg version="1.1" id="Layer_1" xmlns="http://www.w3.org/2000/svg" xmlns:xlink="http://www.w3.org/1999/xlink" x="0px" y="0px"
	 viewBox="0 0 96 96" style="enable-background:new 0 0 96 96;" xml:space="preserve">
<g>
	<path d="M80.8,12c1.3,0,3.2,2.2,3.2,5.5v15.9c-4.5,3-7.5,8.4-7.5,14.6s3,11.6,7.5,14.6v15.8c0,3.3-1.9,5.5-3.2,5.5H15.2
		c-1.3,0-3.2-2.2-3.2-5.5V62.6c4.5-3,7.5-8.4,7.5-14.6s-3-11.6-7.5-14.6V17.5c0-3.3,1.9-5.5,3.2-5.5H80.8 M80.8,4H15.2
		C9.1,4,4,10.1,4,17.5V39c4.1,0,7.5,4,7.5,9s-3.4,9-7.5,9v21.4C4,85.9,9.1,92,15.2,92h65.5C86.9,92,92,85.9,92,78.5V57.1
		c-4.1,0-7.5-4-7.5-9s3.4-9,7.5-9V17.5C92,10.1,86.9,4,80.8,4L80.8,4z"/>
</g>
<path d="M64,49.7H52v-4h12c2.2,0,4-1.8,4-4s-1.8-4-4-4H53.7l8.5-8.5c1.6-1.6,1.6-4.1,0-5.7c-1.6-1.6-4.1-1.6-5.7,0L48,32l-8.5-8.5
	c-1.6-1.6-4.1-1.6-5.7,0s-1.6,4.1,0,5.7l8.5,8.5H32c-2.2,0-4,1.8-4,4s1.8,4,4,4h12v4H32c-2.2,0-4,1.8-4,4s1.8,4,4,4h12v12
	c0,2.2,1.8,4,4,4s4-1.8,4-4v-12h12c2.2,0,4-1.8,4-4S66.2,49.7,64,49.7z"/>
</svg>
