<?xml version="1.0" encoding="utf-8"?>
<!-- Generator: Adobe Illustrator 21.0.0, SVG Export Plug-In . SVG Version: 6.00 Build 0)  -->
<svg version="1.1" id="Layer_1" xmlns="http://www.w3.org/2000/svg" xmlns:xlink="http://www.w3.org/1999/xlink" x="0px" y="0px"
	 viewBox="0 0 96 96" style="enable-background:new 0 0 96 96;" xml:space="preserve">
<style type="text/css">
	.st0{clip-path:url(#SVGID_2_);}
</style>
<g>
	<g>
		<g>
			<defs>
				<rect id="SVGID_1_" x="7.5" y="12.7" width="81" height="70.7"/>
			</defs>
			<clipPath id="SVGID_2_">
				<use xlink:href="#SVGID_1_"  style="overflow:visible;"/>
			</clipPath>
			<path class="st0" d="M7.5,75.4c0,1.4,1.2,2.6,2.6,2.6s2.6-1.2,2.6-2.6c0-11.5,9.4-20.9,20.9-20.9c3,0,5.9,0.7,8.6,1.9
				c0.4-1.7,1-3.4,1.7-5c-8.1-3.5-17.3-2.6-24.7,2.2C11.9,58.4,7.5,66.6,7.5,75.4L7.5,75.4z M33.6,12.7c-8.7,0-15.7,7-15.7,15.7
				s7,15.7,15.7,15.7s15.7-7,15.7-15.7S42.3,12.7,33.6,12.7L33.6,12.7z M33.6,38.9c-5.8,0-10.5-4.7-10.5-10.5s4.7-10.5,10.5-10.5
				s10.5,4.7,10.5,10.5S39.4,38.9,33.6,38.9L33.6,38.9z M88,58c-0.2-1.3-0.9-2.1-1.8-2.1H86c-3,0-5.4-2.6-5.4-5.8
				c0-1,0.5-2.2,0.5-2.2c0.5-1.1,0.1-2.4-0.8-3.1h-0.1L75,41.7h-0.1c-1-0.4-2.2-0.2-3,0.6c-0.6,0.7-2.6,2.5-4.3,2.5
				c-1.6,0-3.7-1.8-4.3-2.6c-0.5-0.5-1.2-0.8-2-0.8c-0.3,0-0.7,0.1-1,0.2h-0.1L55,44.8h-0.1c-1,0.7-1.3,2-0.8,3.1
				c0,0,0.5,1.2,0.5,2.2c0,3.2-2.4,5.8-5.4,5.8H49c-0.9,0-1.6,0.8-1.8,2.1c0,0.1-0.4,2.5-0.4,4.3c0,1.9,0.4,4.2,0.4,4.3
				c0.2,1.2,0.9,2.1,1.8,2.1h0.2c3,0,5.4,2.6,5.4,5.8c0,1-0.5,2.2-0.5,2.2c-0.5,1.1-0.1,2.4,0.8,3.1H55l5.1,3h0.1
				c1,0.4,2.2,0.2,3-0.7c0.6-0.7,2.7-2.7,4.4-2.7c1.7,0,3.8,2,4.4,2.7c0.5,0.6,1.2,0.9,2,0.9c0.3,0,0.7-0.1,1-0.2h0.1l5.3-3.1h0.1
				c1-0.7,1.3-2,0.8-3.1c0,0-0.5-1.2-0.5-2.2c0-3.2,2.4-5.8,5.4-5.8h0.2c0.9,0,1.6-0.8,1.8-2.1c0-0.1,0.4-2.5,0.4-4.3
				C88.5,60.5,88,58.1,88,58L88,58z M82.2,65.5c-3.4,0.2-6.1,3.2-6.1,6.8c0,1.2,0.4,2.4,0.5,2.6l-4,2.4l0,0h-0.1
				c-0.5-0.5-1-1-1.5-1.4c-1.3-1-2.4-1.5-3.6-1.5c-1.1,0-2.3,0.5-3.5,1.5c-0.8,0.7-1.4,1.3-1.5,1.4h-0.1l0,0L58.4,75
				c0.1-0.2,0.5-1.4,0.5-2.6c0-3.6-2.7-6.6-6.1-6.8c-0.1-0.3-0.3-1.9-0.3-3.1c0-1.2,0.3-2.8,0.3-3.1c3.4-0.2,6.1-3.2,6.1-6.8
				c0-1.2-0.4-2.4-0.5-2.6l4.1-2.4l0,0c0.1,0,0.1,0,0.2,0c0.1,0.1,0.6,0.7,1.5,1.3c1.2,0.9,2.4,1.4,3.5,1.4c1,0,2.2-0.5,3.4-1.4
				c0.8-0.6,1.4-1.2,1.5-1.3c0,0,0.1,0,0.2,0l0,0l4,2.3c-0.3,0.8-0.5,1.7-0.5,2.6c0,3.6,2.7,6.6,6.1,6.8c0.1,0.3,0.3,1.9,0.3,3.1
				C82.5,63.6,82.3,65.2,82.2,65.5L82.2,65.5z"/>
		</g>
	</g>
	<path d="M61.7,62.3c0,3.3,2.6,6,5.9,6c3.3,0,5.9-2.7,5.9-6c0-2.1-1.1-4.1-2.9-5.2c-1.8-1.1-4.1-1.1-5.9,0
		C62.8,58.2,61.7,60.2,61.7,62.3L61.7,62.3z"/>
</g>
</svg>
