<?xml version="1.0" encoding="utf-8"?>
<!-- Generator: Adobe Illustrator 21.0.0, SVG Export Plug-In . SVG Version: 6.00 Build 0)  -->
<svg version="1.0" id="Layer_1" xmlns="http://www.w3.org/2000/svg" xmlns:xlink="http://www.w3.org/1999/xlink" x="0px" y="0px"
	 viewBox="0 0 96 96" style="enable-background:new 0 0 96 96;" xml:space="preserve">
<style type="text/css">
	.st0{fill:#0B0C0C;}
</style>
<path class="st0" d="M48,7.8C25.8,7.8,7.8,25.8,7.8,48c0,22.2,18.1,40.3,40.3,40.3c22.2,0,40.2-18.1,40.2-40.3
	C88.2,25.8,70.2,7.8,48,7.8z M60.7,11.3L60.7,11.3c1.9,0.6,3.7,1.4,5.5,2.3v0.4c0,1.9-1.5,3.4-3.4,3.4c-1.9,0-3.4-1.5-3.4-3.4
	C59.2,13,59.8,11.9,60.7,11.3z M11.7,43.9v17.9C10,57.5,9.1,52.9,9.1,48C9.1,26.6,26.6,9.1,48,9.1c3.9,0,7.6,0.6,11.2,1.7
	c-0.8,0.9-1.3,2.1-1.3,3.3c0,2.5,1.9,4.5,4.2,4.8l0,5.9l-14.6,9.4l0.1,0v26.7l-1.2-0.8l-0.8,0.5l-1.4,0.9l-1.8,1.2V43.9l0,0l0,0v0h0
	l-9.7-5.8V25.7c2.7-0.3,4.8-2.6,4.8-5.5c0-3-2.5-5.5-5.5-5.5c-3,0-5.5,2.5-5.5,5.5c0,2.8,2.1,5.1,4.8,5.5v11.5l-3.2-2L11.7,43.9h0.1
	H11.7z M39.7,43.9l-12.5,7.1l-12.5-7l13.4-7L39.7,43.9z M32,24.4c-2.3,0-4.1-1.9-4.1-4.1s1.9-4.1,4.1-4.1s4.1,1.9,4.1,4.1
	S34.3,24.4,32,24.4z M32.3,70.7l13.2,7.5v8.6c-3.9-0.2-7.7-1.1-11.3-2.4c0,0,0,0,0,0c-2.5-0.9-7.1-2.7-9.2-4.9c0,0-0.1-0.1-0.1-0.1
	c0,0,0,0,0,0c-5-3.7-9.2-8.6-11.9-14.3h0V44.6l13.4,7.5v29.5l1.4,0.5v-30L41,44.7v18.8l-10,6.4H31L32.3,70.7 M33.7,69.9l12.6-8.1
	l12.5,8.1l-12.6,7.1L33.7,69.9z M62,84.3c-0.2,0.1-0.4,0.2-0.6,0.2v0l-1.4,0.5v0c-0.1,0-0.3,0.1-0.4,0.1l-0.4,0.1v0
	c-3.6,1.1-7.4,1.7-11.3,1.7c-0.3,0-0.7,0-1,0v-8.7L59.7,71l0.4-0.2l0,0l1.4-0.8l0.1,0l-0.1,0l-12.6-8.1V35L62,42.3V84.3z M50.1,34.1
	l12.6-8.1l12.5,8.1l-12.6,7.1L50.1,34.1z M76.5,74.4c-3.7,4-8.1,7.2-13.2,9.3V42.3l13.2-7.4v14.4c-2.8,0.2-5.1,2.5-5.1,5.4
	c0,2.9,2.2,5.2,5.1,5.4V74.4z M72.8,54.7c0-2.2,1.8-4.1,4.1-4.1c2.2,0,4.1,1.8,4.1,4.1c0,2.2-1.8,4.1-4.1,4.1
	C74.7,58.8,72.8,57,72.8,54.7z M77.9,60.1c2.5-0.5,4.4-2.7,4.4-5.3c0-2.7-1.9-4.9-4.4-5.3V34.1l0,0l0,0v0h-0.1l-14.4-9.3l0-6
	c2.2-0.4,3.8-2.2,4-4.4C79.1,21.1,86.9,33.7,86.9,48c0,9.4-3.4,18.1-9,24.8V60.1z"/>
</svg>
