<?xml version="1.0" encoding="utf-8"?>
<!-- Generator: Adobe Illustrator 22.1.0, SVG Export Plug-In . SVG Version: 6.00 Build 0)  -->
<svg version="1.1" id="Layer_1" xmlns="http://www.w3.org/2000/svg" xmlns:xlink="http://www.w3.org/1999/xlink" x="0px" y="0px"
	 viewBox="0 0 96 96" style="enable-background:new 0 0 96 96;" xml:space="preserve">
<g>
	<path d="M48,69.1c-9.2,0-17.3,4.7-22,11.8c-0.1,0.2-0.2,0.4-0.1,0.6c0,0.2,0.2,0.4,0.4,0.5c3.2,2.1,6.8,3.7,10.5,4.8
		c0.3,0.1,0.7,0,0.9-0.3c2.5-2.9,6.2-4.7,10.4-4.7c4.1,0,7.9,1.8,10.4,4.7c0.2,0.3,0.6,0.4,0.9,0.3c3.8-1.1,7.3-2.7,10.5-4.8
		c0.2-0.1,0.3-0.3,0.4-0.5c0-0.2,0-0.4-0.1-0.6C65.3,73.8,57.2,69.1,48,69.1z"/>
	<path d="M48,26.9c9.2,0,17.3-4.7,22-11.8c0.1-0.2,0.2-0.4,0.1-0.6S70,14.1,69.8,14c-3.2-2.1-6.8-3.7-10.5-4.8
		c-0.3-0.1-0.7,0-0.9,0.3c-2.5,2.9-6.2,4.7-10.4,4.7c-4.1,0-7.9-1.8-10.4-4.7c-0.2-0.3-0.6-0.4-0.9-0.3c-3.8,1.1-7.3,2.7-10.5,4.8
		c-0.2,0.1-0.3,0.3-0.4,0.5c0,0.2,0,0.4,0.1,0.6C30.7,22.2,38.8,26.9,48,26.9z"/>
	<path d="M86.9,51.8c-0.1-0.2-0.4-0.4-0.6-0.4c-0.3,0-0.5,0.1-0.7,0.3c-2.4,2.9-5.2,5.5-8.2,7.7c-0.3,0.2-0.4,0.7-0.2,1.1
		c1.7,3.1,2.9,6.5,3.5,10.2c0,0.2,0.2,0.3,0.3,0.3c0.2,0,0.3,0,0.4-0.2c3.4-4.9,5.7-10.7,6.6-16.9c0-0.2,0-0.4-0.1-0.5
		C87.6,52.8,87.3,52.3,86.9,51.8z"/>
	<path d="M48,43.1c4.9,0,9.5,1,13.6,2.9c0.2,0.1,0.5,0.1,0.7,0c3.7-2,6.8-4.8,9.4-8.1c0.1-0.2,0.2-0.4,0.2-0.7
		c0-0.2-0.2-0.4-0.4-0.6c-6.9-4.1-14.9-6.5-23.5-6.5c-17.1,0-32,9.3-39.9,23.1C8,53.5,8,53.7,8,53.9c0.9,6.2,3.2,11.9,6.6,16.9
		c0.1,0.1,0.3,0.2,0.4,0.2c0.2,0,0.3-0.2,0.3-0.3C18,55,31.6,43.1,48,43.1z"/>
	<path d="M81,25.1c-0.2,0-0.3,0.2-0.3,0.3C78,41,64.4,52.9,48,52.9c-4.9,0-9.5-1-13.6-2.9c-0.2-0.1-0.5-0.1-0.7,0
		c-3.7,2-6.9,4.8-9.4,8.1c-0.1,0.2-0.2,0.4-0.2,0.7c0,0.2,0.2,0.4,0.4,0.6c6.9,4.1,14.9,6.5,23.5,6.5c17.1,0,32-9.3,39.9-23.1
		c0.1-0.2,0.1-0.3,0.1-0.5c-0.9-6.2-3.2-11.9-6.6-16.9C81.3,25.1,81.1,25,81,25.1z"/>
	<path d="M9.1,44.2c0.1,0.2,0.4,0.4,0.6,0.4c0.3,0,0.5-0.1,0.7-0.3c2.4-2.9,5.2-5.5,8.2-7.7c0.3-0.2,0.4-0.7,0.2-1.1
		c-1.7-3.1-2.9-6.5-3.5-10.2c0-0.2-0.2-0.3-0.3-0.3c-0.2,0-0.3,0-0.4,0.2C11.2,30.2,8.9,35.9,8,42.1c0,0.2,0,0.4,0.1,0.5
		C8.4,43.2,8.7,43.7,9.1,44.2z"/>
</g>
</svg>
