<?xml version="1.0" encoding="utf-8"?>
<!-- Generator: Adobe Illustrator 22.1.0, SVG Export Plug-In . SVG Version: 6.00 Build 0)  -->
<svg version="1.1" id="Layer_1" xmlns="http://www.w3.org/2000/svg" xmlns:xlink="http://www.w3.org/1999/xlink" x="0px" y="0px"
	 viewBox="0 0 96 96" style="enable-background:new 0 0 96 96;" xml:space="preserve">
<g>
	<path d="M55.5,37.5H40.4c-0.2,0-0.3,0.2-0.3,0.3v0.7c0,0.2,0.2,0.3,0.3,0.3h15.1c0.2,0,0.3-0.2,0.3-0.3v-0.7
		C55.9,37.6,55.7,37.5,55.5,37.5z"/>
	<path d="M55.9,41.7v0.7c0,0.2-0.2,0.3-0.3,0.3h-6.7c-0.2,0-0.3,0.1-0.4,0.3l-2.8,4.6c-0.2,0.6,0.1,1.2,0.7,1.3h3.8
		c0.6-0.1,0.9-0.6,0.7-1.2c-0.4-0.7-1.2-1.7-1.6-2.4c-0.2-0.2,0-0.4,0.2-0.4h3.2c0.1,0,0.2,0,0.3,0.2l2.3,3.5
		c0.4,0.8-0.2,1.4-0.8,1.4H42c-0.6,0-1.2-0.6-0.8-1.4l2.9-4.9c0.1-0.3,0-0.8-0.5-0.9h-3.3c-0.2,0-0.3-0.1-0.3-0.3v-0.7
		c0-0.2,0.2-0.4,0.3-0.4h15.1C55.7,41.3,55.9,41.5,55.9,41.7z"/>
	<path d="M57.9,42.8c0.7,0,1.4,0,2.1,0c0.1,0,0.2,0.1,0.2,0.3c-0.7,2.2-1.5,4.3-2.2,6.5c0,0.2,0.1,0.3,0.2,0.3c0.7,0,1.4,0,2,0
		c0.1,0,0.3-0.1,0.3-0.2c0.4-1.6,0.9-3.2,1.3-4.8c0.1-0.4,0.2-0.4,0.3,0c0.4,1.3,0.9,3.4,1.3,4.8c0,0.1,0.1,0.2,0.3,0.2
		c0.7,0,1.4,0,2,0c0.2,0,0.3-0.2,0.2-0.3c-0.7-2.2-1.5-4.3-2.2-6.5c-0.1-0.2,0.1-0.3,0.2-0.3c0.7,0,1.4,0,2.2,0
		c0.1,0,0.3-0.1,0.3-0.3c0-0.2,0-0.5,0-0.7c0-0.1-0.1-0.3-0.3-0.3c-0.7,0-1.4,0-2.1,0c-0.1,0-0.2,0-0.2,0c-0.2-0.1-0.3-0.2-0.3-0.4
		c0-0.6,0-1.3,0-1.9c0-0.2,0.2-0.4,0.4-0.4c0.8,0,1.5,0,2.3,0c0.1,0,0.3-0.1,0.3-0.3c0-0.2,0-0.5,0-0.7c0-0.1-0.1-0.3-0.3-0.3
		c-1.8,0-3.6,0-5.4,0c-0.1,0-0.2-0.1-0.2-0.2c0,0,0-0.1,0-0.1c0-0.3-0.2-0.5-0.5-0.5c-0.7,0-1.5,0-2.2,0c-0.3,0-0.5,0.2-0.5,0.5
		c0,0.2,0,0.4,0,0.6c0,0.2,0,0.3,0,0.5c0,0.1,0,0.1,0,0.2c0,0.1,0.1,0.3,0.3,0.3c0.1,0,0.1,0,0.2,0c0.7,0,1.4,0,2,0c0,0,0,0,0,0
		c0.2,0,0.4,0.2,0.4,0.4c0,0.7,0,1.3,0,2c0,0.2-0.2,0.4-0.4,0.4c-0.1,0-0.1,0-0.1,0c-0.7,0-1.4,0-2.2,0c-0.1,0-0.3,0.1-0.3,0.3
		c0,0.2,0,0.5,0,0.7C57.6,42.6,57.7,42.8,57.9,42.8z"/>
	<path d="M68.5,49.9c1.8,0,3.5,0,5.3,0c0.6,0,1.1-0.5,1.1-1.1c0-3.4,0-6.7,0-10.1c0-0.6-0.5-1.1-1.1-1.1c-1.8,0-3.5,0-5.3,0
		c-0.6,0-1.1,0.5-1.1,1.1c0,3.4,0,6.7,0,10.1C67.4,49.4,67.9,49.9,68.5,49.9z M70.2,38.8c0-0.2,0.1-0.3,0.3-0.3c0.5,0,0.9,0,1.4,0
		c0.2,0,0.3,0.1,0.3,0.3c0,3.2,0,6.4,0,9.7c0,0.2-0.1,0.3-0.3,0.3c-0.5,0-0.9,0-1.4,0c-0.2,0-0.3-0.1-0.3-0.3
		C70.2,45.3,70.2,42.1,70.2,38.8z"/>
	<path d="M71.5,54.6h-5.1c-0.3,0-0.6,0.3-0.6,0.6v3.5c0,0.3,0.3,0.6,0.6,0.6h5.1c0.3,0,0.6-0.3,0.6-0.6v-3.5
		C72.1,54.9,71.8,54.6,71.5,54.6z M69.9,58.1c0,0.3-0.2,0.5-0.5,0.5h-0.9c-0.3,0-0.5-0.2-0.5-0.5v-2.4c0-0.3,0.2-0.5,0.5-0.5h0.9
		c0.3,0,0.5,0.2,0.5,0.5V58.1z"/>
	<path d="M92.7,52.7h-1.5c-0.1,0-0.3,0.1-0.3,0.3v1.2c0,0.2-0.2,0.5-0.5,0.5h-3c-0.3,0-0.6,0.3-0.6,0.6v3.5c0,0.3,0.3,0.6,0.6,0.6
		h4.9c0.3,0,0.6-0.3,0.6-0.6v-0.1v-3.4v-2.2C93,52.8,92.9,52.7,92.7,52.7z M90.9,58.1c0,0.3-0.2,0.5-0.5,0.5h-0.9
		c-0.3,0-0.5-0.2-0.5-0.5v-2.4c0-0.3,0.2-0.5,0.5-0.5h0.9c0.3,0,0.5,0.2,0.5,0.5V58.1z"/>
	<path d="M47.5,52.7h-1c-0.3,0-0.6,0.3-0.6,0.6c0,1.4,0,2.8,0,4.1c0,0.5-0.4,0.9-0.9,0.9c-0.7,0-1.3,0-2,0c-0.5,0-0.9-0.4-0.9-0.9
		v-4.1h0c0-0.3-0.3-0.6-0.6-0.6h-1c-0.3,0-0.6,0.3-0.6,0.6v5.5c0,0.3,0.3,0.6,0.6,0.6h6.9c0.3,0,0.6-0.3,0.6-0.6v-5.5
		C48,52.9,47.8,52.7,47.5,52.7z"/>
	<path d="M56.4,54h1c0.2,0,0.4-0.2,0.4-0.4v-0.5c0-0.2-0.2-0.4-0.4-0.4h-1c-0.2,0-0.4,0.2-0.4,0.4v0.5C56,53.9,56.2,54,56.4,54z"/>
	<path d="M65,57.3c0-0.4-0.3-0.8-0.8-0.9h-3c-0.2,0-0.3-0.1-0.3-0.3v0v-0.2c0-0.3,0.1-0.3,0.5-0.3h0.5h0.5h0h0h1.5h0.9
		c0.1,0,0.2-0.1,0.2-0.2v-0.5c0-0.1-0.1-0.2-0.2-0.2h-1.5h-0.9h0h-3c-0.3,0-0.6,0.3-0.6,0.6v1.3v0.1h0l0,0c0,0.4,0.3,0.8,0.8,0.9h3
		c0.2,0,0.3,0.1,0.3,0.3v0v0.2c0,0.3-0.1,0.3-0.5,0.3h-0.5h-0.5h0h0h-1.5h-1.7c-0.2,0-0.3-0.1-0.3-0.3c0-1.1,0-2.2,0-3.3
		c0-0.1-0.1-0.2-0.2-0.2h-1.4c-0.1,0-0.2,0.1-0.2,0.2v4.3c0,0.1,0.1,0.2,0.2,0.2h1.1l0,0h3.2h0.9h0h3c0.3,0,0.6-0.3,0.6-0.6v-1.2v0
		L65,57.3L65,57.3L65,57.3z"/>
	<path d="M85.5,54.6h-5.1c-0.3,0-0.6,0.3-0.6,0.6v3.7c0,0.3,0.1,0.4,0.4,0.4h1.3c0.3,0,0.4-0.1,0.5-0.4V56V56c0-0.5,0.1-0.6,0.6-0.6
		h0.7c0.5,0,0.6,0.1,0.6,0.6V56v2.8h0c0,0.3,0.1,0.4,0.5,0.4h1.3c0.3,0,0.4-0.1,0.4-0.4v-3.7C86.1,54.9,85.9,54.6,85.5,54.6z"/>
	<path d="M87.2,38.5c1.9,0,3.6,0,5.5,0c0.1,0,0.3-0.1,0.3-0.3v-0.5c0-0.1-0.1-0.3-0.3-0.3h-5.8v-0.2c0-0.2-0.2-0.4-0.4-0.4h-2.6
		c-0.2,0-0.4,0.2-0.4,0.4v0.2h-5.8c-0.1,0-0.3,0.1-0.3,0.3v0.5c0,0.1,0.1,0.3,0.3,0.3h5.5c0.2,0,0.3,0.1,0.3,0.3c0,0.2,0,0.4,0,0.5
		c0,0.1-0.1,0.3-0.3,0.3c-1.9,0-3.6,0-5.5,0c-0.1,0-0.3,0.1-0.3,0.3v0.5c0,0.1,0.1,0.3,0.3,0.3h5.9h0.4h2.3h0.4h5.9
		c0.1,0,0.3-0.1,0.3-0.3v-0.5c0-0.1-0.1-0.3-0.3-0.3l-5.5,0c-0.2,0-0.3-0.2-0.3-0.3c0-0.2,0-0.3,0-0.5
		C86.9,38.5,87.1,38.5,87.2,38.5z"/>
	<path d="M92.5,41.6H78c-0.3,0-0.5,0.2-0.5,0.5v4.3c0,0.5,0.1,0.7-0.2,1.2c-0.3,0.6-0.7,1.2-1,1.9c-0.1,0.1,0,0.3,0.2,0.3
		c1,0,1.9,0,2.9,0c0.1,0,0.2-0.1,0.3-0.2c0.4-0.7,0.7-1.4,1.1-2c0.1-0.1,0.2-0.2,0.3-0.2h11.4c0.3,0,0.5-0.2,0.5-0.5v-4.8
		C93,41.9,92.8,41.6,92.5,41.6z M84.2,43.2c-0.5,1-1,2-1.5,3c-0.1,0.2-0.3,0.3-0.5,0.3h-1c-0.3,0-0.5-0.2-0.5-0.5v-2.8
		c0-0.3,0.2-0.5,0.5-0.5c0.9,0,1.8,0,2.7,0C84.1,42.7,84.3,43,84.2,43.2z M89.8,45.9c0,0.3-0.2,0.5-0.5,0.5c-1,0-1.9,0-2.9,0
		c-0.2,0-0.4-0.2-0.3-0.5c0.5-1,1-1.9,1.5-3c0.1-0.2,0.2-0.3,0.4-0.3h1.2c0.3,0,0.5,0.2,0.5,0.5V45.9z"/>
	<path d="M78.7,54.6h-1.3c-0.3,0-0.5,0.1-0.5,0.4h0v2.8v0.1c0,0.5-0.1,0.6-0.6,0.6h-0.7c-0.5,0-0.6-0.1-0.6-0.6v-0.1V55
		c0-0.3-0.1-0.4-0.5-0.4h-1.3c-0.3,0-0.4,0.1-0.4,0.4v3.7c0,0.3,0.3,0.6,0.6,0.6h5.1c0.3,0,0.6-0.3,0.6-0.6V55
		C79.1,54.7,79,54.6,78.7,54.6z"/>
	<path d="M54.5,54.6h-5.1c-0.3,0-0.6,0.3-0.6,0.6v3.7c0,0.3,0.1,0.4,0.4,0.4h1.3c0.3,0,0.4-0.1,0.5-0.4V56v-0.1
		c0-0.5,0.1-0.6,0.6-0.6h0.7c0.5,0,0.6,0.1,0.6,0.6V56v2.8h0c0,0.3,0.1,0.4,0.5,0.4h1.3c0.3,0,0.4-0.1,0.4-0.4v-3.7
		C55.1,54.9,54.8,54.6,54.5,54.6z"/>
	<path d="M17.5,55.6c-3.3,0-6.2,1.7-8,4.2c0,0.1-0.1,0.1,0,0.2c0,0.1,0.1,0.1,0.1,0.2c1.2,0.7,2.4,1.3,3.8,1.7c0.1,0,0.2,0,0.3-0.1
		c0.9-1,2.3-1.7,3.7-1.7c1.5,0,2.8,0.7,3.7,1.7c0.1,0.1,0.2,0.1,0.3,0.1c1.4-0.4,2.6-1,3.8-1.7c0.1,0,0.1-0.1,0.1-0.2
		c0-0.1,0-0.2,0-0.2C23.7,57.3,20.8,55.6,17.5,55.6z"/>
	<path d="M17.5,40.4c3.3,0,6.2-1.7,8-4.2c0-0.1,0.1-0.1,0-0.2c0-0.1-0.1-0.1-0.1-0.2c-1.2-0.7-2.4-1.3-3.8-1.7c-0.1,0-0.2,0-0.3,0.1
		c-0.9,1-2.3,1.7-3.7,1.7c-1.5,0-2.8-0.7-3.7-1.7c-0.1-0.1-0.2-0.1-0.3-0.1c-1.4,0.4-2.6,1-3.8,1.7c-0.1,0-0.1,0.1-0.1,0.2
		c0,0.1,0,0.2,0,0.2C11.2,38.7,14.1,40.4,17.5,40.4z"/>
	<path d="M31.5,49.4c-0.1-0.1-0.1-0.1-0.2-0.1c-0.1,0-0.2,0-0.2,0.1c-0.9,1-1.9,2-3,2.8c-0.1,0.1-0.2,0.3-0.1,0.4
		c0.6,1.1,1,2.4,1.3,3.7c0,0.1,0.1,0.1,0.1,0.1c0.1,0,0.1,0,0.2-0.1c1.2-1.8,2.1-3.9,2.4-6.1c0-0.1,0-0.1,0-0.2
		C31.8,49.7,31.6,49.6,31.5,49.4z"/>
	<path d="M17.5,46.2c1.8,0,3.4,0.4,4.9,1.1c0.1,0,0.2,0,0.3,0c1.3-0.7,2.5-1.7,3.4-2.9c0.1-0.1,0.1-0.2,0.1-0.2
		c0-0.1-0.1-0.2-0.1-0.2c-2.5-1.5-5.4-2.3-8.5-2.3C11.3,41.6,5.9,45,3,49.9c0,0.1,0,0.1,0,0.2c0.3,2.2,1.2,4.3,2.4,6.1
		c0,0.1,0.1,0.1,0.2,0.1c0.1,0,0.1-0.1,0.1-0.1C6.6,50.5,11.5,46.2,17.5,46.2z"/>
	<path d="M29.4,39.7c-0.1,0-0.1,0.1-0.1,0.1c-1,5.6-5.9,9.9-11.8,9.9c-1.8,0-3.4-0.4-4.9-1.1c-0.1,0-0.2,0-0.3,0
		c-1.3,0.7-2.5,1.7-3.4,2.9c-0.1,0.1-0.1,0.2-0.1,0.2C8.8,52,8.9,52,9,52.1c2.5,1.5,5.4,2.3,8.5,2.3c6.2,0,11.5-3.4,14.4-8.4
		c0-0.1,0-0.1,0-0.2c-0.3-2.2-1.2-4.3-2.4-6.1C29.5,39.7,29.4,39.7,29.4,39.7z"/>
	<path d="M3.4,46.6c0.1,0.1,0.1,0.1,0.2,0.1c0.1,0,0.2,0,0.2-0.1c0.9-1,1.9-2,3-2.8C7,43.8,7,43.6,6.9,43.5c-0.6-1.1-1-2.4-1.3-3.7
		c0-0.1-0.1-0.1-0.1-0.1c-0.1,0-0.1,0-0.2,0.1c-1.2,1.8-2.1,3.9-2.4,6.1c0,0.1,0,0.1,0,0.2C3.2,46.3,3.3,46.4,3.4,46.6z"/>
</g>
</svg>
