<?xml version="1.0" encoding="utf-8"?>
<!-- Generator: Adobe Illustrator 22.1.0, SVG Export Plug-In . SVG Version: 6.00 Build 0)  -->
<svg version="1.1" id="Layer_1" xmlns="http://www.w3.org/2000/svg" xmlns:xlink="http://www.w3.org/1999/xlink" x="0px" y="0px"
	 viewBox="0 0 96 96" style="enable-background:new 0 0 96 96;" xml:space="preserve">
<g>
	<path d="M88.7,45h-1.1C86.2,25.4,70.6,9.8,51,8.4V7.3c0-2-1.3-3.7-3-3.7s-3,1.7-3,3.7v1.1C25.4,9.8,9.8,25.4,8.4,45H7.3
		c-2,0-3.7,1.3-3.7,3s1.7,3,3.7,3h1.1c1.5,19.6,17,35.2,36.6,36.6v1.1c0,2,1.3,3.7,3,3.7s3-1.7,3-3.7v-1.1
		c19.6-1.5,35.2-17,36.6-36.6h1.1c2,0,3.7-1.3,3.7-3S90.7,45,88.7,45z M80.3,51h1.3c-0.7,7.9-4.1,15.2-9.7,20.9
		c-5.6,5.6-13,9-20.9,9.7v-1.3c0-2-1.3-3.7-3-3.7s-3,1.7-3,3.7v1.3c-7.9-0.7-15.2-4.1-20.9-9.7c-5.6-5.6-9-13-9.7-20.9h1.3
		c2,0,3.7-1.3,3.7-3s-1.7-3-3.7-3h-1.3c0.7-7.9,4.1-15.2,9.7-20.9c5.6-5.6,13-9,20.9-9.7v1.3c0,2,1.3,3.7,3,3.7s3-1.7,3-3.7v-1.3
		c7.9,0.7,15.2,4.1,20.9,9.7c5.6,5.6,9,13,9.7,20.9h-1.3c-2,0-3.7,1.3-3.7,3S78.3,51,80.3,51z"/>
	<path d="M36.1,48.1c0.1,2.6,2.2,2.6,2.4,2.6c1.9,0,2.3-1.6,2.4-2.4c0-0.1,0-0.2,0-0.3c0-12.5,4.1-20.5,6.9-20.5c1.2,0,2.5,0,4,4.3
		c0.5,1.2,1.8,1.9,3,1.5c1.2-0.5,1.9-1.8,1.5-3c-2-5.4-4.4-7.6-8.6-7.6c-7.4,0-11.5,12.7-11.6,24.9C36.1,47.9,36.1,48.1,36.1,48.1z"
		/>
	<path d="M64.8,53c-1.1,0.7-1.5,2.3-0.7,3.4c1.9,3,1.4,3.9,0.9,4.7c-0.3,0.5-1.1,1.6-5,1.1c-0.1,0-0.1,0-0.2,0
		c-0.7-0.1-1.5-0.1-2.2-0.2c1.1-3.7,1.7-8.4,1.7-13.9v-0.7c0-2,0-2.9-0.3-5c-0.2-1.3-1.4-2.2-2.6-2c-1.3,0.2-2.2,1.4-2,2.6
		c0.2,1.9,0.2,2.5,0.2,4.4v0.7c0,5-0.7,9.3-1.6,12.6c-5.1-1.9-9.2-4.8-9.3-4.9c-0.1,0-0.1-0.1-0.1-0.1c-0.1-0.1-0.2-0.2-0.3-0.2
		c-0.1-0.1-0.1-0.1-0.2-0.1c-10.3-6.9-14.8-14.7-13.3-17.1c0.6-0.9,0.8-1.4,3.7-1.1c1.4,0.1,2.5-0.8,2.6-2.2s-0.8-2.5-2.2-2.6
		c-3.5-0.3-6.3,0.1-8.3,3.4c-3,5,1.2,14.8,15.2,23.8c0,0,0,0,0.1,0c0.6,0.5,4.8,3.4,10.3,5.5c-1.1,2.1-2.4,3.3-3.5,3.3
		c-1.4,0.1-3.8,0.1-5.2-6.3c-0.3-1.3-1.5-2.1-2.8-1.8c-1.3,0.3-2.1,1.5-1.8,2.8c1.4,6.7,4.6,10.1,9.6,10.1c0.1,0,0.2,0,0.3,0
		c2.9-0.1,5.8-2.4,8-6.7c1.1,0.2,2.3,0.4,3.5,0.5c0.6,0.1,1.4,0.2,2.4,0.2c2.3,0,5.4-0.6,7.3-3.5c1.9-3,1.7-6-0.8-9.9
		C67.4,52.6,65.9,52.3,64.8,53z"/>
	<path d="M34.3,60.7c-4.1,0.3-4.5-0.6-4.7-1.5c-0.2-0.6-0.3-1.1,1.3-4.3c0.6-1.2,0.2-2.6-1.1-3.3c-1.2-0.6-2.6-0.2-3.3,1.1
		c-1.7,3.4-2.4,5.5-1.6,8.1c1.4,4,4.6,4.8,7.8,4.8c0.7,0,1.4-0.1,2-0.1c1.4-0.1,2.3-1.3,2.2-2.6C36.8,61.6,35.6,60.6,34.3,60.7z"/>
	<path d="M44.2,37.7c-0.1,0.1-0.4,0.1-0.7,0.3c-1.1,0.6-1.6,2.1-1,3.3c0.6,1.2,2.1,1.7,3.3,1.1c0.1,0,0.1-0.1,0.2-0.1
		c13.4-5,19.4-4.3,20.4-2.2c0.7,1.4-0.7,4.7-5.2,8.7c-1,0.9-1.1,2.4-0.2,3.4c0.5,0.6,1.1,0.8,1.8,0.8c0.6,0,1.1-0.2,1.6-0.6
		c6-5.3,8.3-10.5,6.4-14.5C68.1,32.1,59.3,32,44.2,37.7z"/>
	<path d="M47.7,53.3c2.2,0,4-1.8,4-4s-1.8-4-4-4c-2.2-0.1-4,1.8-4,4S45.5,53.3,47.7,53.3z"/>
</g>
</svg>
