<?xml version="1.0" encoding="utf-8"?>
<!-- Generator: Adobe Illustrator 21.0.0, SVG Export Plug-In . SVG Version: 6.00 Build 0)  -->
<svg version="1.1" id="Layer_1" xmlns="http://www.w3.org/2000/svg" xmlns:xlink="http://www.w3.org/1999/xlink" x="0px" y="0px"
	 viewBox="0 0 96 96" style="enable-background:new 0 0 96 96;" xml:space="preserve">
<g>
	<path d="M48,2.8L1.8,19.9l1,3.6C4.4,29.1,5.1,34,5.9,38.7c2.3,14.5,4.1,26,25.7,40.9C37.5,83.7,43,89.2,44.8,91l3.2,3.2l2.9-2.9
		c2-2,7.4-7,14.2-11.6C84.5,66.6,93,25,93.3,23.3l0.7-3.4L48,2.8z M79,43.4c-5.4,14.8-11.8,25-18.5,29.5c-5.1,3.5-9.5,7.2-12.4,9.8
		C45.3,80,41,76,36.3,72.8C17.6,59.9,16.2,51,14,37.5c-0.6-3.7-1.2-7.9-2.3-12.4L48,11.6l36.4,13.5C83.5,29,81.7,35.9,79,43.4z"/>
	<path d="M30.5,30.3c0,3.4,2.8,6.1,6.1,6.1h22.5c3.4,0,6.1-2.8,6.1-6.1s-2.8-6.1-6.1-6.1H36.6C33.3,24.2,30.5,26.9,30.5,30.3z
		 M61.3,30.3c0,1.2-1,2.1-2.1,2.1H36.6c-1.2,0-2.1-1-2.1-2.1s1-2.1,2.1-2.1h22.5C60.4,28.2,61.3,29.1,61.3,30.3z"/>
	<path d="M59.2,37.9H36.6c-3.4,0-6.1,2.8-6.1,6.1s2.8,6.1,6.1,6.1h22.5c3.4,0,6.1-2.8,6.1-6.1S62.6,37.9,59.2,37.9z M59.2,46.2H36.6
		c-1.2,0-2.1-1-2.1-2.1s1-2.1,2.1-2.1h22.5c1.2,0,2.1,1,2.1,2.1S60.4,46.2,59.2,46.2z"/>
	<path d="M59.2,51.8H36.6c-3.4,0-6.1,2.8-6.1,6.1c0,3.4,2.8,6.1,6.1,6.1h22.5c3.4,0,6.1-2.8,6.1-6.1C65.3,54.6,62.6,51.8,59.2,51.8z
		 M59.2,60.1H36.6c-1.2,0-2.1-1-2.1-2.1s1-2.1,2.1-2.1h22.5c1.2,0,2.1,1,2.1,2.1S60.4,60.1,59.2,60.1z"/>
</g>
</svg>
