<?xml version="1.0" encoding="utf-8"?>
<!-- Generator: Adobe Illustrator 21.0.0, SVG Export Plug-In . SVG Version: 6.00 Build 0)  -->
<svg version="1.1" id="Layer_1" xmlns="http://www.w3.org/2000/svg" xmlns:xlink="http://www.w3.org/1999/xlink" x="0px" y="0px"
	 viewBox="0 0 96 96" style="enable-background:new 0 0 96 96;" xml:space="preserve">
<g>
	<g>
		<path d="M84.9,66.3L73.7,77.7c-0.3,0.3-0.7,0.5-1.2,0.5h0c-0.5,0-0.9-0.2-1.2-0.5l-6.4-6.6c-0.5-0.5-0.7-1.1-0.7-1.6
			c0-0.6,0.4-1.1,1-1.6c0.5-0.4,1-0.6,1.5-0.6c0.9,0,1.6,0.6,1.8,0.9l4,4.2l8.6-8.9c0.4-0.4,1-0.7,1.6-0.7c0.6,0,1.1,0.2,1.6,0.6
			c0.6,0.5,1,1.1,1,1.8C85.4,65.5,85.2,66,84.9,66.3L84.9,66.3z M40.3,74.9l-3.6-4L40.3,53l3.6,17.9L40.3,74.9z M75.3,87.2
			c-5.3,0-10.1-2.4-13.5-6.6l-57.5,0v-5.7c0-3.6,1.7-6.5,5.2-8.8c2.7-1.8,6.1-3,9.4-4.2c6.6-2.4,11-4.2,11-7.8c0-0.4,0-0.8,0-1.2
			v-0.1c0-0.3,0-0.7,0-1c-1.4-1.7-3.6-4.9-4.8-9c-1.2-0.9-2.2-2.3-2.8-4.1c-0.9-2.5-1.2-6.1,0.5-9c-0.3-3-0.9-11,4.1-16.6
			c3.4-3.8,8-5.9,13.1-6.1h0.1c5.1,0.1,9.8,2.3,13.1,6.1c2.1,2.4,3.5,5.5,4,9.2c0.4,2.9,0.2,5.5,0.1,7.4c1.7,2.9,1.4,6.6,0.5,9
			c-0.6,1.7-1.6,3.1-2.9,4.1c-1.1,4-3.2,7.1-4.8,9.1c0,0.8,0,1.6,0,2.4c0,0,0,1.3,3.2,3.9c1.7,1.4,3.4,2.5,3.8,2.7l2.3,0.9
			c1.3-3,3.4-5.5,6-7.4c2.9-2.1,6.3-3.2,9.9-3.2c9.6,0,17.4,8.1,17.4,18C92.8,79.1,84.9,87.2,75.3,87.2L75.3,87.2z M58.1,66.5
			L55,65.3l-0.1,0c-0.1-0.1-3.5-2.1-4.7-3.1c-3.4-2.8-5.1-5.4-5.1-7.9c0-0.9,0-1.9,0-3l0-1.4l0.6-0.7c1-1.2,3.6-4.4,4.5-8.6l0.3-1.2
			l1.1-0.5c0.5-0.3,1.1-1,1.4-1.9c0.6-1.5,0.6-3.7-0.3-5l-0.8-1l0.3-1.1c0.3-2.6,0.9-9.2-2.7-13.3c-1.7-1.9-4.8-4.3-9.6-4.4
			c-4.8,0.2-7.8,2.5-9.6,4.4c-3.7,4.1-3,10.8-2.7,13.4c0,0,0,0.1,0,0.1l0.1,1.1l-0.7,0.8c-1,1.2-0.9,3.4-0.3,5
			c0.4,1,0.9,1.6,1.4,1.9l1.1,0.5l0.3,1.2c1,4.3,3.5,7.4,4.5,8.6l0.6,0.7l0,1c0,0.7,0,1.4,0,2l0,0.1c0,0.4,0,0.8,0,1.1
			c0,3.5-1.7,6.3-5.1,8.5c-2.6,1.7-6,2.9-9.2,4.1C13.7,69.1,9.2,71,9.2,74.8v0.6l49.7,0c-0.7-2-1.1-4.1-1.1-6.3
			C57.9,68.3,57.9,67.4,58.1,66.5L58.1,66.5z M75.3,56.3c-6.9,0-12.5,5.8-12.5,12.9c0,7.1,5.6,12.9,12.5,12.9
			c6.9,0,12.5-5.8,12.5-12.9C87.8,62.1,82.2,56.3,75.3,56.3L75.3,56.3z M75.3,56.3"/>
	</g>
</g>
</svg>
