<?xml version="1.0" encoding="iso-8859-1"?>
<!-- Generator: Adobe Illustrator 23.0.1, SVG Export Plug-In . SVG Version: 6.00 Build 0)  -->
<svg version="1.1" id="&#x56FE;&#x5C42;_1" xmlns="http://www.w3.org/2000/svg" xmlns:xlink="http://www.w3.org/1999/xlink" x="0px"
	 y="0px" viewBox="0 0 96 96" style="enable-background:new 0 0 96 96;" xml:space="preserve">
<title>jkyy/icon_ç½ç»çæ§</title>
<desc>Created with Sketch.</desc>
<g>
	<path style="fill:#0A1633;" d="M59.263,50.14c1.531,0,2.837-1.032,3.15-2.453c0.296-1.087,0.434-2.239,0.434-3.633
		c0-8.292-6.662-15.036-14.844-15.036s-14.844,6.7-14.844,14.937c0,1.306,0.143,2.464,0.434,3.54
		c0.477,1.734,2.102,2.744,3.995,2.404c1.734-0.472,2.755-2.107,2.404-4.011c-0.154-0.549-0.236-1.196-0.236-1.932
		c0-4.527,3.776-8.347,8.248-8.347c4.549,0,8.253,3.743,8.253,8.347c0,0.653-0.088,1.317-0.269,2.085
		c-0.313,1.849,0.686,3.479,2.431,3.957l-0.016,0.027L59.263,50.14z"/>
	<path style="fill:#0A1633;" d="M63.928,58.245c0.192,0.829,0.702,1.531,1.438,1.981c0.494,0.318,1.125,0.494,1.783,0.494
		c1.103,0,2.173-0.565,2.766-1.465c3.057-4.467,4.67-9.73,4.67-15.206c0-14.762-11.881-26.774-26.483-26.774
		s-26.489,12.012-26.489,26.78c0,5.411,1.613,10.635,4.659,15.102c0.505,0.752,1.317,1.268,2.222,1.416
		c0.873,0.126,1.751-0.071,2.376-0.56c0.757-0.51,1.273-1.317,1.421-2.228c0.143-0.889-0.082-1.756-0.571-2.376
		c-2.299-3.408-3.518-7.37-3.518-11.453c0-11.129,8.923-20.184,19.893-20.184s19.893,9.055,19.893,20.184
		c0,4.088-1.218,8.05-3.54,11.48C63.895,56.314,63.708,57.307,63.928,58.245z"/>
	<path style="fill:#0A1633;" d="M48.003,4C26.025,4,8.14,21.879,8.14,43.862c0,10.767,4.176,20.815,11.755,28.294
		c0.631,0.637,1.454,0.988,2.316,0.988c0.862,0,1.685-0.346,2.321-0.982c0.648-0.653,1.004-1.548,0.977-2.464
		c-0.027-0.873-0.401-1.668-0.988-2.173c-6.311-6.223-9.79-14.625-9.79-23.657c0-8.895,3.457-17.253,9.735-23.531
		c6.283-6.283,14.641-9.741,23.537-9.741c18.345,0,33.266,14.921,33.266,33.266c0,8.939-3.446,17.308-9.713,23.569
		c-1.284,1.295-1.284,3.326,0.011,4.637c1.301,1.29,3.342,1.284,4.626,0c7.524-7.425,11.667-17.44,11.667-28.207
		C87.865,21.879,69.981,4,48.003,4z"/>
	<path style="fill:#0A1633;" d="M52.739,55.419l-0.066-0.11c-0.368-0.51-0.752-0.905-1.202-1.224l0.11-7.419
		c0.011-0.823-0.313-1.613-0.916-2.222c-1.344-1.372-3.962-1.372-5.329-0.005c-0.604,0.609-0.933,1.394-0.927,2.217l0.038,7.353
		c-0.483,0.368-0.873,0.823-1.279,1.306L26.063,84.059c-0.818,1.553-0.675,3.578,0.373,5.274c1.021,1.674,2.7,2.667,4.494,2.667
		H64.68c1.794,0,3.479-0.999,4.5-2.651c1.059-1.685,1.224-3.589,0.384-5.345L52.739,55.419z M32.956,85.431l9.774-16.99l5.208-7.836
		l5.093,7.749l9.675,17.072H32.956V85.431z"/>
</g>
</svg>
