<?xml version="1.0" encoding="iso-8859-1"?>
<!-- Generator: Adobe Illustrator 23.0.1, SVG Export Plug-In . SVG Version: 6.00 Build 0)  -->
<svg version="1.1" id="&#x56FE;&#x5C42;_1" xmlns="http://www.w3.org/2000/svg" xmlns:xlink="http://www.w3.org/1999/xlink" x="0px"
	 y="0px" viewBox="0 0 96 96" style="enable-background:new 0 0 96 96;" xml:space="preserve">
<title>sjk/icon_åå¸å¼NewSQLæ°æ®åºTiDB</title>
<desc>Created with Sketch.</desc>
<g id="Fill-1">
	<path style="fill-rule:evenodd;clip-rule:evenodd;fill:#0A1633;" d="M48,4C23.698,4,4,23.698,4,48s19.698,44,44,44s44-19.698,44-44
		S72.302,4,48,4z M74.729,74.739c-3.474,3.474-7.52,6.204-12.016,8.102c-4.653,1.972-9.609,2.97-14.717,2.97
		s-10.054-0.998-14.717-2.97c-4.501-1.903-8.543-4.628-12.016-8.102s-6.204-7.52-8.102-12.016
		c-1.972-4.658-2.965-9.614-2.965-14.722s0.998-10.054,2.97-14.712c1.903-4.501,4.628-8.543,8.102-12.016s7.52-6.204,12.016-8.102
		c4.653-1.972,9.609-2.97,14.717-2.97s10.054,0.998,14.717,2.97c4.501,1.903,8.543,4.628,12.016,8.102s6.204,7.52,8.102,12.016
		c1.972,4.653,2.97,9.609,2.97,14.717s-0.998,10.054-2.97,14.717C80.933,67.219,78.203,71.26,74.729,74.739z"/>
</g>
<path style="fill:#0A1633;" d="M72.116,37.396L49.13,26.637c-0.734-0.333-1.531-0.328-2.265,0.005L23.869,37.401
	c-0.944,0.47-1.527,1.409-1.527,2.456v15.887c0,0.998,0.602,1.942,1.531,2.407l22.981,11.19c0.367,0.181,0.758,0.269,1.199,0.269
	c0.44,0,0.832-0.088,1.199-0.269l22.878-11.19c0.925-0.465,1.527-1.409,1.527-2.407V39.857C73.652,38.81,73.07,37.871,72.116,37.396
	z M27.744,50.665h17.638v11.968l-17.638-8.562C27.744,54.071,27.744,50.665,27.744,50.665z M68.363,45.371H50.671V33.321
	l17.692,8.264V45.371z M45.382,45.371H27.744v-3.782l17.638-8.239V45.371z M50.671,50.665h17.692v3.41l-17.692,8.587V50.665z"/>
</svg>
