<?xml version="1.0" encoding="iso-8859-1"?>
<!-- Generator: Adobe Illustrator 23.0.1, SVG Export Plug-In . SVG Version: 6.00 Build 0)  -->
<svg version="1.1" id="&#x56FE;&#x5C42;_1" xmlns="http://www.w3.org/2000/svg" xmlns:xlink="http://www.w3.org/1999/xlink" x="0px"
	 y="0px" viewBox="0 0 96 96" style="enable-background:new 0 0 96 96;" xml:space="preserve">
<title>rgzn/icon_AIå¨çº¿æå¡</title>
<desc>Created with Sketch.</desc>
<g>
	<g id="rengongzhineng" transform="translate(1.000000, 1.010962)">
		<path id="Fill-1" style="fill-rule:evenodd;clip-rule:evenodd;fill:#0A1633;" d="M57.499,36.232h19.666v-5.827H57.499
			C57.499,30.406,57.499,36.232,57.499,36.232z M8.831,79.171V49.93h27.2V30.406H30.2v13.6H8.831V14.668
			c0-3.199,2.583-5.802,5.783-5.831h37.914V3.059H14.614C8.2,3.059,3,8.259,3,14.668v64.498c0,6.418,5.191,11.634,11.609,11.658
			h18.434v-5.831H14.609C11.41,84.973,8.831,82.37,8.831,79.171z"/>
		<path id="Fill-2" style="fill-rule:evenodd;clip-rule:evenodd;fill:#0A1633;" d="M79.112,3.059H60.63v5.783h10.758v7.916h-54.88
			v19.241h5.831V22.534h21.609V57.65H16.556v5.783H49.73V22.534h27.391V8.841h1.942c1.59-0.064,3.141,0.519,4.29,1.619
			c1.155,1.101,1.81,2.617,1.82,4.212v29.333H57.64v27.249H16.458v5.831h60.707V57.704h-5.831V71.26h-7.867V49.93h21.706v29.333
			c0,1.546-0.616,3.028-1.707,4.119c-1.091,1.096-2.578,1.707-4.124,1.707H41.428v5.831h37.914
			C85.77,90.897,90.976,85.692,91,79.264V14.668c-0.01-3.126-1.277-6.115-3.513-8.297C85.257,4.189,82.233,2.995,79.112,3.059z"/>
	</g>
</g>
</svg>
