<?xml version="1.0" encoding="iso-8859-1"?>
<!-- Generator: Adobe Illustrator 23.0.1, SVG Export Plug-In . SVG Version: 6.00 Build 0)  -->
<svg version="1.1" id="&#x56FE;&#x5C42;_1" xmlns="http://www.w3.org/2000/svg" xmlns:xlink="http://www.w3.org/1999/xlink" x="0px"
	 y="0px" viewBox="0 0 96 96" style="enable-background:new 0 0 96 96;" xml:space="preserve">
<title>rgzn/icon_AIè®­ç»æå¡</title>
<desc>Created with Sketch.</desc>
<path style="fill:#0A1633;" d="M83.001,42.515L83.001,42.515c-3.925,0.005-7.367,2.535-8.561,6.223h-1.335V27.791h1.335
	c1.34,4.046,5.382,6.641,9.665,6.097c4.48-0.569,7.861-4.404,7.861-8.914s-3.381-8.345-7.861-8.914
	c-4.278-0.514-8.324,2.056-9.665,6.097h-3.401c-3.215-4.999-6.989-8.894-11.222-11.595c-4.112-2.625-8.768-4.203-13.852-4.706
	l-0.438-0.04c-1.073-0.091-2.157-0.136-3.205-0.136c-6.641,0-12.305,1.849-16.835,5.492c-4.475,3.593-7.952,9.015-10.38,16.241
	l-0.04,0.222C12.757,39.139,9.86,46.702,6.463,50.109c-1.355,1.355-2.157,2.706-2.383,4.001c-0.232,1.184,0.045,2.424,0.761,3.376
	c1.159,1.623,3.502,2.756,5.694,2.756c0.378,0,0.741,0.151,1.018,0.443c0.358,0.358,0.67,0.932,0.927,1.698
	c0.559,1.678,0.842,4.278,0.842,7.715c0,1.99,0.716,3.568,2.066,4.575c1.32,0.993,3.205,1.476,5.755,1.476
	c3.023,0,5.22,0.665,6.531,1.99c1.023,1.023,1.547,2.479,1.547,4.328v7.488l32.542,0.358l0.766,0.005V73.852l0.806-1.083
	l0.267-0.015l0.151-0.534c2.867-3.905,5.099-7.176,6.621-9.715c0.902-1.507,1.582-2.802,2.036-3.845
	c0.207-0.484,0.383-0.967,0.524-1.471c0.116-0.423,0.181-0.842,0.191-1.255v-1.577h1.355c1.391,4.152,5.709,6.757,10.063,6.001
	c4.636-0.806,7.831-4.943,7.422-9.635C91.552,46.047,87.702,42.515,83.001,42.515z M86.362,51.51c0,1.859-1.512,3.376-3.366,3.376
	c-0.005,0-0.01,0-0.015,0c-1.366,0-2.595-0.816-3.119-2.081c-0.529-1.265-0.242-2.716,0.731-3.689
	c0.65-0.65,1.512-0.993,2.394-0.993c0.438,0,0.877,0.086,1.295,0.257C85.545,48.904,86.362,50.134,86.362,51.51z M79.629,24.989
	c0-1.859,1.512-3.376,3.371-3.381c0.005,0,0.01,0,0.015,0c1.366,0,2.59,0.816,3.114,2.081c0.529,1.265,0.242,2.716-0.731,3.689
	c-0.962,0.973-2.424,1.26-3.684,0.736C80.446,27.59,79.629,26.36,79.629,24.989z M56.596,48.738V27.791H67.48v20.952H56.596V48.738z
	 M17.796,60.595c-0.539-1.628-1.285-2.902-2.273-3.885c-1.3-1.335-3.114-2.101-4.979-2.101c-0.156-0.01-0.348-0.04-0.524-0.096
	c0.106-0.126,0.242-0.277,0.413-0.443c4.238-4.248,7.548-12.492,10.088-25.114c2.041-6.017,4.893-10.526,8.486-13.399
	c2.535-2.036,5.457-3.321,8.879-3.9c-5.372,5.286-8.395,11.569-9.005,18.715c-4.303,0.973-7.332,5.019-6.994,9.473
	c0.353,4.626,4.258,8.264,8.894,8.304c0.076,0.287,0.156,0.569,0.237,0.842c1.164,3.996,2.857,7.296,5.175,10.078
	c4.203,5.054,10.97,8.934,21.254,12.189l-0.559,0.741v12.638l-22.066-0.242v-1.93c0-3.391-1.073-6.183-3.185-8.294
	c-2.404-2.414-5.941-3.643-10.506-3.643c-1.25,0-1.9-0.161-2.192-0.272c-0.005-0.06-0.005-0.116-0.005-0.171
	C18.93,65.982,18.557,62.878,17.796,60.595z M30.842,42.515L30.842,42.515c-0.005,0-0.01,0-0.01,0c-1.371,0-2.595-0.816-3.119-2.081
	c-0.529-1.265-0.247-2.716,0.726-3.689c0.65-0.65,1.512-0.993,2.394-0.993c0.433,0,0.877,0.086,1.295,0.257
	c1.265,0.524,2.086,1.754,2.086,3.129C34.213,40.998,32.701,42.515,30.842,42.515z M51.754,22.168l-0.756,0.02l-0.02,13.53H39.156
	c-0.887-2.157-2.555-3.87-4.686-4.812c0.277-3.235,1.149-6.258,2.605-8.985c2.036-3.83,5.306-7.301,9.715-10.31
	c6.944,1.018,12.643,4.475,17.374,10.557H51.754z M39.565,41.331h11.418v13.046l16.508-0.02v1.386
	c-0.071,0.242-0.156,0.474-0.257,0.7c-0.348,0.811-0.922,1.885-1.693,3.18c-1.109,1.849-2.635,4.142-4.55,6.823
	c-10.38-3.054-16.709-6.45-20.478-10.98c-2.006-2.414-3.401-5.301-4.369-9.055C37.831,45.166,39.046,43.362,39.565,41.331z"/>
</svg>
