<?xml version="1.0" encoding="iso-8859-1"?>
<!-- Generator: Adobe Illustrator 23.0.1, SVG Export Plug-In . SVG Version: 6.00 Build 0)  -->
<svg version="1.1" id="&#x56FE;&#x5C42;_1" xmlns="http://www.w3.org/2000/svg" xmlns:xlink="http://www.w3.org/1999/xlink" x="0px"
	 y="0px" viewBox="0 0 96 96" style="enable-background:new 0 0 96 96;" xml:space="preserve">
<title>czgl/icon_APIäº§å</title>
<desc>Created with Sketch.</desc>
<g id="Clip-2">
</g>
<path style="fill:#0A1633;" d="M66.482,37.642v9.616H53.549V29.513h9.611V4H37.642v25.513h9.616v17.745H29.513v-9.616H4v25.518
	h25.513v-9.611h17.745v12.932h-9.616V92h25.518V66.482h-9.611V53.549h12.932v9.611H92V37.642H66.482z M10.291,56.865V43.933h12.937
	v12.932C23.228,56.865,10.291,56.865,10.291,56.865z M56.875,10.291v12.937H43.933V10.291H56.875z M43.933,85.714V72.777h12.932
	v12.937H43.933z M72.777,56.865V43.933h12.937v12.932C85.714,56.865,72.777,56.865,72.777,56.865z"/>
</svg>
