<?xml version="1.0" encoding="iso-8859-1"?>
<!-- Generator: Adobe Illustrator 23.0.1, SVG Export Plug-In . SVG Version: 6.00 Build 0)  -->
<svg version="1.1" id="&#x56FE;&#x5C42;_1" xmlns="http://www.w3.org/2000/svg" xmlns:xlink="http://www.w3.org/1999/xlink" x="0px"
	 y="0px" viewBox="0 0 96 96" style="enable-background:new 0 0 96 96;" xml:space="preserve">
<title>yff/icon_äºåå</title>
<desc>Created with Sketch.</desc>
<g>
	<g id="&#x5206;&#x7EC4;-2" transform="translate(1.000000, 3.000000)">
		<g id="yunduanshangchuan" transform="translate(0.000000, 0.760728)">
			<path id="Fill-1" style="fill-rule:evenodd;clip-rule:evenodd;fill:#0A1633;" d="M74.159,31.643
				c-4.524-11.015-15.25-18.207-27.151-18.207c-11.906,0-22.633,7.192-27.151,18.207C9.937,33.978,2.951,42.854,3,53.037
				c0,12.131,9.87,22.001,22.001,22.001h8.386c1.62,0,2.932-1.312,2.932-2.933c0-1.62-1.312-2.932-2.932-2.932h-8.386
				c-8.905-0.01-16.126-7.226-16.131-16.136c-0.044-7.951,5.747-14.731,13.61-15.94l1.748-0.274l0.573-1.674
				c3.251-9.478,12.175-15.847,22.202-15.847c10.026-0.005,18.951,6.364,22.202,15.852l0.573,1.674l1.748,0.274
				c7.862,1.204,13.649,7.99,13.61,15.94c0,8.895-7.241,16.136-16.136,16.136h-8.92c-1.62,0-2.932,1.312-2.932,2.932
				c0,1.62,1.312,2.932,2.932,2.932h8.92C81.13,75.043,91,65.173,91,53.042C91.058,42.854,84.072,33.983,74.159,31.643z"/>
		</g>
		<path id="&#x8DEF;&#x5F84;" style="fill-rule:evenodd;clip-rule:evenodd;fill:#0A1633;" d="M49.768,42.563
			c0.108-2.257,2.105-2.947,3.001-2.947h11.994c2.409,0,3.099,1.41,3.045,2.864c0.22-5.596,0.054,11.833,0.054,11.833
			c0,1.376-0.915,2.932-3.099,2.835c-2.311-0.103-3.001-2.037-3.001-2.898v-4.284L50.18,62.063v10.633
			c0,1.66-1.327,2.986-2.972,2.986c-1.645,0-2.977-1.327-2.977-2.986v-9.591L32.32,50.367v4.362c0,0.891-0.685,2.835-2.977,2.947
			c-2.169,0.108-3.089-1.493-3.089-2.888c0,0-0.166-17.688,0.059-12.014c-0.059-1.478,0.636-2.898,3.03-2.898h11.901
			c0.891,0,2.869,0.685,2.981,2.986c0.103,2.169-1.576,2.986-2.981,2.986h-4.989l10.486,11.216l11.059-11.564h-5.033
			C51.355,45.496,49.671,44.708,49.768,42.563z"/>
	</g>
</g>
</svg>
