<?xml version="1.0" encoding="iso-8859-1"?>
<!-- Generator: Adobe Illustrator 23.0.1, SVG Export Plug-In . SVG Version: 6.00 Build 0)  -->
<svg version="1.1" id="&#x56FE;&#x5C42;_1" xmlns="http://www.w3.org/2000/svg" xmlns:xlink="http://www.w3.org/1999/xlink" x="0px"
	 y="0px" viewBox="0 0 96 96" style="enable-background:new 0 0 96 96;" xml:space="preserve">
<title>aqhg/icon_æ°æ®åºå®¡è®¡</title>
<desc>Created with Sketch.</desc>
<g>
	<path style="fill:#0A1633;" d="M48,4C23.741,4,4,23.741,4,48c0,24.264,19.741,44,44,44c24.264,0,44-19.736,44-44
		C92,23.741,72.264,4,48,4z M62.706,82.814c-4.659,1.97-9.602,2.968-14.706,2.968s-10.047-0.997-14.706-2.968
		c-4.498-1.902-8.536-4.625-12.007-8.096s-6.199-7.514-8.096-12.007c-1.97-4.664-2.968-9.607-2.968-14.711
		s0.997-10.047,2.968-14.706c1.902-4.498,4.625-8.536,8.096-12.007s7.514-6.199,12.007-8.096c4.659-1.97,9.602-2.968,14.706-2.968
		s10.047,0.997,14.706,2.968c4.498,1.902,8.536,4.625,12.007,8.096c3.471,3.471,6.199,7.514,8.096,12.007
		c1.97,4.649,2.968,9.602,2.968,14.706s-0.997,10.047-2.968,14.706c-1.897,4.498-4.625,8.536-8.096,12.007
		C71.242,78.184,67.204,80.912,62.706,82.814z"/>
	<path style="fill:#0A1633;" d="M55.011,22.988l-7.803,13.542l-7.803-13.542H23.482l-7.954,13.806l7.959,13.772h15.591
		l-7.803,13.537l7.959,13.772h15.913l7.954-13.772l-7.803-13.537h15.625l7.954-13.772l-7.954-13.806
		C70.924,22.988,55.011,22.988,55.011,22.988z M54.854,50.303H39.552l7.656-13.244L54.854,50.303z M26.87,44.7l-4.566-7.905
		l4.571-7.935h9.137l4.571,7.935L36.012,44.7H26.87z M51.76,72.014h-9.142l-4.571-7.91l4.571-7.935h9.137l4.576,7.935L51.76,72.014z
		 M67.536,44.7h-9.137l-4.576-7.91l4.576-7.935h9.137l4.576,7.935L67.536,44.7z"/>
</g>
</svg>
