<?xml version="1.0" encoding="iso-8859-1"?>
<!-- Generator: Adobe Illustrator 23.0.1, SVG Export Plug-In . SVG Version: 6.00 Build 0)  -->
<svg version="1.1" id="&#x56FE;&#x5C42;_1" xmlns="http://www.w3.org/2000/svg" xmlns:xlink="http://www.w3.org/1999/xlink" x="0px"
	 y="0px" viewBox="0 0 96 96" style="enable-background:new 0 0 96 96;" xml:space="preserve">
<title>sjk/icon_äºæ°æ®åº</title>
<desc>Created with Sketch.</desc>
<g>
	<path style="fill:#0A1633;" d="M47.742,28.851L36.81,9.876H14.937L4,28.851l10.937,18.93h21.869L47.742,28.851z M18.337,41.886
		l-7.527-13.04l7.532-13.074H33.4l7.532,13.074l-7.527,13.04H18.337z"/>
	<path style="fill:#0A1633;" d="M81.058,9.876H59.185L48.253,28.851l10.937,18.93h21.873L92,28.851L81.058,9.876z M77.654,41.886
		H62.595l-7.532-13.035l7.532-13.074h15.059l7.537,13.074L77.654,41.886z"/>
	<path style="fill:#0A1633;" d="M37.046,48.219l-10.937,18.97l10.937,18.935H58.92l10.932-18.935L58.92,48.219
		C58.92,48.219,37.046,48.219,37.046,48.219z M55.515,80.233H40.451l-7.532-13.04l7.532-13.074H55.51l7.532,13.074L55.515,80.233z"
		/>
</g>
</svg>
