<?xml version="1.0" encoding="iso-8859-1"?>
<!-- Generator: Adobe Illustrator 23.0.1, SVG Export Plug-In . SVG Version: 6.00 Build 0)  -->
<svg version="1.1" id="&#x56FE;&#x5C42;_1" xmlns="http://www.w3.org/2000/svg" xmlns:xlink="http://www.w3.org/1999/xlink" x="0px"
	 y="0px" viewBox="0 0 96 96" style="enable-background:new 0 0 96 96;" xml:space="preserve">
<title>wl/icon_é«ééé</title>
<desc>Created with Sketch.</desc>
<g>
	<path id="jixiaokaohe" style="fill-rule:evenodd;clip-rule:evenodd;fill:#0A1633;" d="M13.352,91.868
		C8.126,91.868,4,87.742,4,82.516v-69.3c0-5.226,4.126-9.352,9.352-9.352h69.574C87.874,3.868,92,7.994,92,13.216v69.574
		c0,5.226-4.126,9.348-9.352,9.348L13.352,91.868z M13.352,9.642c-1.926,0-3.3,1.648-3.3,3.3v69.574c0,1.926,1.648,3.3,3.3,3.3
		h69.574c1.926,0,3.3-1.648,3.3-3.3v-69.3c0-1.926-1.652-3.3-3.3-3.3L13.352,9.642z M19.4,69.594c-1.648,0-3.026-1.374-3.026-3.026
		c0-1.648,1.374-3.026,3.026-3.026h56.926c1.648,0,3.026,1.374,3.026,3.026c0,1.648-1.374,3.026-3.026,3.026H19.4z M33.974,45.668
		L21.6,59.416c-0.548,0.552-1.374,1.1-2.2,1.1s-1.374-0.274-1.926-0.826s-0.826-1.1-1.1-1.926c0-0.826,0.274-1.374,0.826-2.2
		l16.226-17.874l17.052,15.674l19.248-21.452H59c-1.648,0-3.026-1.374-3.026-3.026c0-1.652,1.374-3.026,3.026-3.026
		c0.753,0,1.506,0,2.264,0c1.74,0,3.481,0,5.221,0c3.408,0,6.84-0.112,10.242,0.005c0.45,0.015,0.924,0.117,1.256,0.42
		c0.342,0.313,0.479,0.797,0.513,1.261c0.122,1.628,0.024,3.295,0.029,4.928c0,1.765,0,3.535,0,5.3c0,1.789,0,3.579,0,5.368
		c0,1.266,0,2.532,0,3.799c0,0.303,0,0.611,0,0.914c0,1.652-1.374,3.026-3.026,3.026c-1.648,0-3.026-1.374-3.026-3.026V36.316
		L49.926,61.342L33.974,45.668z"/>
</g>
</svg>
