<?xml version="1.0" encoding="iso-8859-1"?>
<!-- Generator: Adobe Illustrator 23.0.1, SVG Export Plug-In . SVG Version: 6.00 Build 0)  -->
<svg version="1.1" id="&#x56FE;&#x5C42;_1" xmlns="http://www.w3.org/2000/svg" xmlns:xlink="http://www.w3.org/1999/xlink" x="0px"
	 y="0px" viewBox="0 0 96 96" style="enable-background:new 0 0 96 96;" xml:space="preserve">
<title>sjfx/icon_ESæå¡</title>
<desc>Created with Sketch.</desc>
<g>
	<path id="Fill-1" style="fill-rule:evenodd;clip-rule:evenodd;fill:#0A1633;" d="M32.287,3.998H16.569
		C9.656,3.998,4,9.654,4,16.567V32.28c0,6.918,5.656,12.574,12.569,12.574h28.287V16.567C44.856,9.654,39.2,3.998,32.287,3.998z
		 M38.569,38.567h-22c-3.456,0-6.287-2.831-6.287-6.287V16.567c0-3.456,2.831-6.287,6.287-6.287h15.713
		c3.456,0,6.287,2.831,6.287,6.287V38.567z M88.856,18.141c-1.731,0-3.144,1.413-3.144,3.144v9.744c0,4.087-3.3,7.544-7.544,7.544
		H57.426V17.828c0-4.087,3.3-7.544,7.544-7.544h11.313c1.731,0,3.144-1.413,3.144-3.144c0-1.731-1.413-3.144-3.139-3.144H64.974
		c-7.7,0-13.831,6.131-13.831,13.831v27.031h27.031C85.713,44.854,92,38.728,92,31.028v-9.744
		C92,19.554,90.587,18.141,88.856,18.141z M4,63.71v15.713c0,6.918,5.656,12.574,12.569,12.574h15.713
		c6.913,0,12.574-5.656,12.574-12.574V51.136H16.569C9.656,51.141,4,56.798,4,63.71z M38.569,79.423
		c0,3.456-2.831,6.287-6.287,6.287H16.569c-3.456,0-6.287-2.831-6.287-6.287V63.71c0-3.456,2.831-6.287,6.287-6.287h22V79.423z
		 M79.426,51.141H51.139v28.287c0,6.913,5.656,12.574,12.569,12.574h15.713C86.344,91.998,92,86.341,92,79.423V63.71
		C92,56.798,86.344,51.141,79.426,51.141z M85.713,79.423c0,3.456-2.831,6.287-6.287,6.287H63.713c-3.456,0-6.287-2.831-6.287-6.287
		v-22h22c3.456,0,6.287,2.831,6.287,6.287V79.423z"/>
</g>
</svg>
