<?xml version="1.0" encoding="iso-8859-1"?>
<!-- Generator: Adobe Illustrator 23.0.1, SVG Export Plug-In . SVG Version: 6.00 Build 0)  -->
<svg version="1.1" id="&#x56FE;&#x5C42;_1" xmlns="http://www.w3.org/2000/svg" xmlns:xlink="http://www.w3.org/1999/xlink" x="0px"
	 y="0px" viewBox="0 0 96 96" style="enable-background:new 0 0 96 96;" xml:space="preserve">
<title>aqhg/icon_å ¡åæº</title>
<desc>Created with Sketch.</desc>
<g>
	<path style="fill:#0A1633;" d="M77.735,4H18.26C10.396,4,4,10.396,4,18.26v59.476C4.005,85.589,10.406,91.985,18.26,92h59.476
		C85.599,92,92,85.599,92,77.735V18.26C92,10.396,85.599,4,77.735,4z M60.621,69.842c-4.113,1.149-8.361,1.736-12.623,1.736
		c-19.741,0-37.059-12.285-37.059-26.286l-0.045-0.746V18.26c0-4.059,3.303-7.361,7.361-7.361h59.481
		c4.059,0,7.361,3.303,7.361,7.361l-0.06,27.037C85.037,55.732,75,65.833,60.621,69.842z M10.899,62.585
		c8.217,9.709,22.511,15.891,37.099,15.891c4.889,0,9.763-0.671,14.474-1.989c9.38-2.611,17.323-7.451,22.625-13.722V77.73
		c0,4.059-3.303,7.361-7.361,7.361H18.26c-4.059,0-7.361-3.303-7.361-7.361V62.585z"/>
	<path style="fill:#0A1633;" d="M28.128,36.817c-1.626,0-2.949,1.219-2.984,2.741v19.621h5.968V39.557
		C31.112,38.02,29.774,36.817,28.128,36.817z"/>
	<path style="fill:#0A1633;" d="M41.507,20.045c-1.616,0-2.959,1.258-2.959,2.81v36.318h5.968V22.86
		C44.516,21.348,43.183,20.045,41.507,20.045z"/>
	<path style="fill:#0A1633;" d="M54.931,31.226c-1.602,0-2.984,1.248-2.984,2.785v25.167h5.968V34.011
		C57.915,32.43,56.582,31.226,54.931,31.226z"/>
	<path style="fill:#0A1633;" d="M68.31,25.636c-1.616,0-2.959,1.229-2.959,2.745v30.797h5.968V28.381
		C71.289,26.859,69.971,25.641,68.31,25.636z"/>
</g>
</svg>
