<?xml version="1.0" encoding="iso-8859-1"?>
<!-- Generator: Adobe Illustrator 23.0.1, SVG Export Plug-In . SVG Version: 6.00 Build 0)  -->
<svg version="1.1" id="&#x56FE;&#x5C42;_1" xmlns="http://www.w3.org/2000/svg" xmlns:xlink="http://www.w3.org/1999/xlink" x="0px"
	 y="0px" viewBox="0 0 96 96" style="enable-background:new 0 0 96 96;" xml:space="preserve">
<title>rqfw/icon_å®¹å¨éååº</title>
<desc>Created with Sketch.</desc>
<g>
	<path style="fill:#0A1633;" d="M48,4.002c-24.303,0-44,19.697-44,44s19.697,43.995,44,43.995s44-19.697,44-44
		S72.298,4.002,48,4.002z M74.731,74.733c-3.47,3.47-7.519,6.207-12.022,8.101C58.054,84.802,53.1,85.806,48,85.806
		c-5.105,0-10.054-0.999-14.714-2.966c-4.503-1.909-8.542-4.631-12.022-8.106c-3.47-3.47-6.207-7.519-8.106-12.022
		c-1.978-4.665-2.971-9.618-2.971-14.719s0.999-10.054,2.966-14.714c1.909-4.503,4.631-8.542,8.106-12.022
		c3.466-3.461,7.514-6.197,12.017-8.096C37.941,11.188,42.895,10.19,48,10.19s10.054,0.999,14.709,2.966
		c4.503,1.909,8.542,4.631,12.022,8.106c3.47,3.47,6.207,7.519,8.101,12.022c1.968,4.66,2.966,9.609,2.966,14.714
		S84.8,58.052,82.832,62.712C80.938,67.215,78.211,71.263,74.731,74.733z"/>
	<path style="fill:#0A1633;" d="M71.916,30.102c-0.764,0-1.513,0.289-2.08,0.793L53.468,45.012c-0.842,0.72-1.327,1.831-1.327,3.025
		c-0.024,1.155,0.45,2.266,1.327,3.064l16.364,14.107c0.573,0.509,1.317,0.793,2.09,0.793c1.909,0,3.402-1.684,3.412-3.828V33.935
		C75.333,31.786,73.83,30.102,71.916,30.102z M70.781,36.074l-0.034,23.931L56.889,48.051L70.781,36.074z"/>
	<path style="fill:#0A1633;" d="M46.859,28.878c-0.7,0.406-1.136,1.16-1.136,1.963v34.421c0,1.253,1.023,2.271,2.271,2.271
		c1.253,0,2.271-1.018,2.276-2.271V30.841c0-0.808-0.436-1.561-1.136-1.968C48.436,28.467,47.569,28.467,46.859,28.878z"/>
	<path style="fill:#0A1633;" d="M26.169,30.905c-0.578-0.509-1.317-0.798-2.095-0.803c-1.909,0-3.407,1.684-3.407,3.833v28.234
		c0,2.149,1.498,3.833,3.412,3.833c0.764,0,1.503-0.284,2.08-0.788l16.393-14.136c0.852-0.783,1.327-1.889,1.297-3.01
		c0.029-1.155-0.445-2.266-1.317-3.054L26.169,30.905z M39.111,48.046L25.219,60.024l0.029-23.921L39.111,48.046z"/>
</g>
</svg>
