<?xml version="1.0" encoding="iso-8859-1"?>
<!-- Generator: Adobe Illustrator 23.0.1, SVG Export Plug-In . SVG Version: 6.00 Build 0)  -->
<svg version="1.1" id="&#x56FE;&#x5C42;_1" xmlns="http://www.w3.org/2000/svg" xmlns:xlink="http://www.w3.org/1999/xlink" x="0px"
	 y="0px" viewBox="0 0 96 96" style="enable-background:new 0 0 96 96;" xml:space="preserve">
<title>wl/icon_è´è½½åè¡¡</title>
<desc>Created with Sketch.</desc>
<path style="fill:#0A1633;" d="M78.595,65.537c-3.322,0-6.31,2.036-7.548,5.101h-4.724V50.867h4.618
	c8.703,0,15.782-7.079,15.782-15.782c0-8.355-6.436-15.216-14.704-15.748c-3.075-6.228-9.472-10.236-16.377-10.236
	c-0.488,0-0.996,0.029-1.557,0.087C50.285,5.837,45.411,4,40.348,4c-9.578,0-18.05,6.76-20.25,16.116
	C13.61,22.243,9.268,28.224,9.268,35.08c0,8.703,7.079,15.782,15.782,15.782h4.618v19.771h-4.724
	c-1.233-3.065-4.226-5.101-7.543-5.101c-4.482,0-8.133,3.646-8.133,8.133c0,4.487,3.651,8.133,8.133,8.133
	c3.322,0,6.31-2.036,7.543-5.101h7.756c1.673,0,3.032-1.359,3.032-3.032V50.862h9.23V76.32c-3.065,1.238-5.101,4.226-5.101,7.548
	c0,4.487,3.651,8.133,8.133,8.133s8.133-3.646,8.133-8.133c0-3.322-2.036-6.31-5.096-7.548V50.862h9.235v22.803
	c0,1.673,1.359,3.032,3.032,3.032h7.756c1.238,3.065,4.226,5.101,7.548,5.101c4.487,0,8.133-3.646,8.133-8.133
	C86.732,69.178,83.082,65.537,78.595,65.537z M78.706,77.253c-1.973,0-3.578-1.605-3.578-3.578s1.605-3.578,3.578-3.578
	c1.973,0,3.578,1.605,3.578,3.578S80.678,77.253,78.706,77.253z M47.998,87.6c-1.973,0-3.578-1.605-3.578-3.578
	s1.605-3.578,3.578-3.578s3.578,1.605,3.578,3.578S49.97,87.6,47.998,87.6z M31.152,26.145c0.749-0.305,1.335-0.885,1.654-1.629
	c0.648-1.542-0.073-3.327-1.61-3.975c-1.441-0.609-2.954-1.001-4.516-1.16c2.239-5.594,7.654-9.313,13.669-9.313
	c3.989,0,7.736,1.581,10.555,4.448c0.696,0.711,1.707,1.03,2.679,0.865c0.629-0.106,1.364-0.218,2.069-0.218
	c3.926,0,7.572,1.891,9.878,5.091c-0.247,0.092-0.488,0.184-0.72,0.285c-0.745,0.314-1.325,0.904-1.629,1.654
	c-0.305,0.749-0.3,1.576,0.019,2.321c0.309,0.745,0.904,1.325,1.649,1.629c0.759,0.305,1.576,0.3,2.321-0.015
	c2.988-1.267,6.402-0.943,9.148,0.87c2.722,1.808,4.352,4.83,4.352,8.084c0,5.357-4.356,9.714-9.719,9.714h-45.9
	c-5.357,0-9.714-4.356-9.714-9.714c0-4.676,3.341-8.684,7.944-9.53c0.111-0.019,0.222-0.048,0.271-0.068
	c0.503-0.077,1.011-0.116,1.513-0.116c1.291,0,2.572,0.256,3.767,0.764C29.58,26.445,30.402,26.445,31.152,26.145z M17.401,77.253
	c-1.978,0-3.583-1.61-3.583-3.583s1.605-3.583,3.583-3.583s3.583,1.61,3.583,3.583S19.378,77.253,17.401,77.253z"/>
</svg>
