<?xml version="1.0" encoding="iso-8859-1"?>
<!-- Generator: Adobe Illustrator 23.0.1, SVG Export Plug-In . SVG Version: 6.00 Build 0)  -->
<svg version="1.1" id="&#x56FE;&#x5C42;_1" xmlns="http://www.w3.org/2000/svg" xmlns:xlink="http://www.w3.org/1999/xlink" x="0px"
	 y="0px" viewBox="0 0 96 96" style="enable-background:new 0 0 96 96;" xml:space="preserve">
<title>spfw/icon_äºç´æ­</title>
<desc>Created with Sketch.</desc>
<g>
	<path style="fill:#0A1633;" d="M75.155,35.404C70.636,24.39,59.91,17.198,48.005,17.198s-22.631,7.196-27.15,18.206
		C10.937,37.744,3.951,46.615,4,56.802c0,12.131,9.869,22,22,22h8.386H70c12.131,0,22-9.869,22-22
		C92.054,46.62,85.068,37.744,75.155,35.404z M70.005,72.937H34.386H26c-8.905-0.01-16.125-7.226-16.135-16.135
		c-0.039-7.95,5.752-14.735,13.609-15.939l1.748-0.274l0.573-1.674C29.05,29.437,37.974,23.068,48,23.068
		c10.026-0.005,18.95,6.364,22.201,15.851l0.573,1.674l1.748,0.274c7.862,1.209,13.648,7.989,13.609,15.939
		C86.135,65.697,78.895,72.937,70.005,72.937z"/>
	<path style="fill:#0A1633;" d="M57.708,44.426c1.493-0.113,2.673-1.366,2.673-2.893c0-1.601-1.302-2.898-2.898-2.898
		c-1.527,0-2.776,1.18-2.893,2.683l-1.895,1.89L39.746,30.254l-0.348,0.348c-3.936,3.941-6.109,9.179-6.109,14.75
		c0,3.74,0.994,7.377,2.878,10.574c-2.898,0.196-5.199,2.619-5.199,5.571c0,3.074,2.502,5.576,5.581,5.576
		c2.771,0,5.077-2.022,5.507-4.719c3.544,2.526,7.705,3.853,12.092,3.853c5.576,0,10.814-2.164,14.75-6.105l0.348-0.343
		L55.808,46.321L57.708,44.426z M37.759,61.497c0,0.666-0.543,1.209-1.209,1.209s-1.209-0.543-1.209-1.209
		c0-0.666,0.538-1.209,1.209-1.209S37.759,60.831,37.759,61.497z M37.671,45.352c0-3.045,0.827-5.997,2.409-8.577l22.646,22.646
		c-2.575,1.576-5.527,2.409-8.577,2.409C45.063,61.829,37.671,54.433,37.671,45.352z"/>
</g>
</svg>
