<?xml version="1.0" encoding="iso-8859-1"?>
<!-- Generator: Adobe Illustrator 23.0.1, SVG Export Plug-In . SVG Version: 6.00 Build 0)  -->
<svg version="1.1" id="&#x56FE;&#x5C42;_1" xmlns="http://www.w3.org/2000/svg" xmlns:xlink="http://www.w3.org/1999/xlink" x="0px"
	 y="0px" viewBox="0 0 96 96" style="enable-background:new 0 0 96 96;" xml:space="preserve">
<title>spfw/icon_åªä½å·¥å</title>
<desc>Created with Sketch.</desc>
<g>
	<path style="fill:#0A1633;" d="M58.606,41.659l-14.101-7.4c-2.188-1.463-5.134-1.463-7.322,0c-2.139,1.424-3.313,3.573-3.313,6.059
		v15.554c0,2.481,1.175,4.63,3.661,6.26c1.429,0.715,2.388,0.715,3.318,0.715c0.925,0,1.884,0,3.377-0.744l14.698-7.758
		c2.139-1.419,3.313-3.573,3.313-6.059C62.228,44.327,60.27,42.501,58.606,41.659z M55.674,48.879L41.29,56.47l-0.578,0.166
		c-0.485-0.323-0.485-0.582-0.485-0.768V40.318c0-0.191,0-0.445,0.48-0.764l14.962,7.753h0.024l0.029,0.015
		c0.005,0,0.137,0.225,0.137,0.964C55.865,48.472,55.865,48.732,55.674,48.879z"/>
	<path style="fill:#0A1633;" d="M87.6,9.846H72.736c-0.103,0-0.21,0.005-0.313,0.01h-48.84c-0.103-0.01-0.206-0.01-0.308-0.01H8.405
		C5.972,9.846,4,11.819,4,14.251v67.498c0,2.432,1.972,4.405,4.405,4.405h14.864c0.215,0,0.431-0.015,0.641-0.044
		c0.162,0.029,0.328,0.044,0.499,0.044h30.859c1.581,0,2.863-1.282,2.863-2.863c0-1.581-1.282-2.863-2.863-2.863H27.674V15.582
		h40.652v66.166c0,2.432,1.972,4.405,4.405,4.405h14.864c2.432,0,4.405-1.972,4.405-4.405V14.251
		C92.005,11.819,90.032,9.846,87.6,9.846z M21.947,80.422H9.726v-64.85h9.402v0.01h2.824v64.84H21.947z M86.279,80.422H74.057
		v-64.84h2.731v-0.01h9.495L86.279,80.422L86.279,80.422z"/>
</g>
</svg>
