<?xml version="1.0" encoding="iso-8859-1"?>
<!-- Generator: Adobe Illustrator 23.0.1, SVG Export Plug-In . SVG Version: 6.00 Build 0)  -->
<svg version="1.1" id="&#x56FE;&#x5C42;_1" xmlns="http://www.w3.org/2000/svg" xmlns:xlink="http://www.w3.org/1999/xlink" x="0px"
	 y="0px" viewBox="0 0 96 96" style="enable-background:new 0 0 96 96;" xml:space="preserve">
<title>sjk/icon_äºåå­å­å¨</title>
<desc>Created with Sketch.</desc>
<g>
	<path style="fill-rule:evenodd;clip-rule:evenodd;fill:#0A1633;" d="M75.155,35.404C70.636,24.39,59.91,17.198,48.005,17.198
		s-22.631,7.196-27.15,18.206C10.937,37.744,3.951,46.615,4,56.802c0,12.131,9.869,22,22,22h8.386H70c12.131,0,22-9.869,22-22
		C92.054,46.62,85.068,37.744,75.155,35.404z M70.005,72.937H34.386H26c-8.905-0.01-16.125-7.226-16.135-16.135
		c-0.039-7.95,5.752-14.735,13.609-15.939l1.748-0.274l0.573-1.674C29.05,29.437,37.974,23.068,48,23.068
		c10.026-0.005,18.95,6.364,22.201,15.851l0.573,1.674l1.748,0.274c7.862,1.209,13.648,7.989,13.609,15.939
		C86.135,65.697,78.895,72.937,70.005,72.937z"/>
	<path style="fill-rule:evenodd;clip-rule:evenodd;fill:#0A1633;" d="M63.822,43.354H32.296c-1.757,0-3.182,1.425-3.182,3.182
		c0,1.757,1.425,3.182,3.182,3.182h31.531c1.757,0,3.182-1.425,3.182-3.182C67.004,44.779,65.579,43.354,63.822,43.354z"/>
	<path style="fill-rule:evenodd;clip-rule:evenodd;fill:#0A1633;" d="M63.822,57.83H32.296c-1.757,0-3.182,1.425-3.182,3.182
		c0,1.757,1.425,3.182,3.182,3.182h31.531c1.757,0,3.182-1.425,3.182-3.182C67.004,59.254,65.579,57.83,63.822,57.83z"/>
</g>
</svg>
