<?xml version="1.0" encoding="iso-8859-1"?>
<!-- Generator: Adobe Illustrator 23.0.1, SVG Export Plug-In . SVG Version: 6.00 Build 0)  -->
<svg version="1.1" id="&#x56FE;&#x5C42;_1" xmlns="http://www.w3.org/2000/svg" xmlns:xlink="http://www.w3.org/1999/xlink" x="0px"
	 y="0px" viewBox="0 0 96 96" style="enable-background:new 0 0 96 96;" xml:space="preserve">
<title>sjfx/icon_è°åº¦ç³»ç»</title>
<desc>Created with Sketch.</desc>
<g>
	<path id="Fill-1" style="fill-rule:evenodd;clip-rule:evenodd;fill:#0A1633;" d="M85.053,4H10.947C7.109,4,4,7.109,4,10.947v74.106
		C4,88.891,7.109,92,10.947,92h74.106C88.891,92,92,88.891,92,85.053V10.947C92,7.109,88.891,4,85.053,4z M10.947,85.053h74.106
		V10.947H10.947V85.053z"/>
	<path id="Fill-3" style="fill-rule:evenodd;clip-rule:evenodd;fill:#0A1633;" d="M27.995,31.216h36.784v14.74l-3.085-3.085
		c-1.256-1.256-3.29-1.256-4.547,0c-1.256,1.256-1.256,3.29,0,4.547l8.57,8.57l0.034,0.029l0.044,0.039
		c0.044,0.039,0.088,0.083,0.137,0.117l0.024,0.02c0.059,0.049,0.112,0.088,0.171,0.132l0.024,0.015
		c0.401,0.284,0.865,0.469,1.354,0.543h0.024c0.029,0,0.059,0.01,0.088,0.01l0.068,0.01h0.029c0.088,0.01,0.186,0.01,0.279,0.01h0.2
		l0.108-0.01h0.01c0.684-0.068,1.325-0.352,1.833-0.812c0.039-0.034,0.078-0.073,0.117-0.112l8.57-8.57
		c1.256-1.256,1.256-3.29,0-4.547c-1.256-1.256-3.29-1.256-4.547,0l-3.085,3.085V28c0-1.775-1.437-3.212-3.212-3.212H27.995
		c-1.775,0-3.212,1.437-3.212,3.212S26.22,31.216,27.995,31.216z M19.424,54.072c0.851,0,1.672-0.337,2.273-0.939l3.085-3.085V68
		c0,1.775,1.437,3.212,3.212,3.212h39.996c1.775,0,3.212-1.437,3.212-3.212s-1.437-3.212-3.212-3.212H31.212v-14.74l3.085,3.085
		c1.256,1.256,3.29,1.256,4.547,0c1.256-1.256,1.256-3.29,0-4.547l-8.575-8.575c-0.049-0.049-0.103-0.098-0.156-0.142l-0.039-0.034
		c-0.112-0.098-0.23-0.181-0.357-0.264l-0.02-0.01c-0.127-0.083-0.264-0.152-0.401-0.215h-0.01
		c-0.137-0.059-0.279-0.108-0.425-0.152l-0.02-0.005c-0.142-0.039-0.284-0.068-0.43-0.088l-0.039-0.005
		c-0.064-0.005-0.132-0.015-0.196-0.015h-0.02c-0.068,0-0.137-0.005-0.205,0h-0.054c-0.064,0-0.132,0.005-0.196,0.01h-0.015
		c-0.068,0.005-0.137,0.015-0.205,0.029l-0.044,0.005c-0.147,0.024-0.293,0.064-0.435,0.108l-0.015,0.005
		c-0.152,0.049-0.298,0.112-0.44,0.181c-0.073,0.039-0.142,0.078-0.21,0.117c-0.064,0.039-0.122,0.078-0.176,0.122l-0.029,0.015
		c-0.059,0.044-0.112,0.088-0.171,0.132l-0.024,0.024c-0.044,0.039-0.088,0.073-0.132,0.117l-0.049,0.044l-0.024,0.024l-8.57,8.57
		c-0.914,0.919-1.188,2.298-0.694,3.496C16.96,53.285,18.129,54.067,19.424,54.072z"/>
</g>
</svg>
