<?xml version="1.0" encoding="iso-8859-1"?>
<!-- Generator: Adobe Illustrator 23.0.1, SVG Export Plug-In . SVG Version: 6.00 Build 0)  -->
<svg version="1.1" id="&#x56FE;&#x5C42;_1" xmlns="http://www.w3.org/2000/svg" xmlns:xlink="http://www.w3.org/1999/xlink" x="0px"
	 y="0px" viewBox="0 0 96 96" style="enable-background:new 0 0 96 96;" xml:space="preserve">
<title>wl/icon_ç§æç½ç»</title>
<desc>Created with Sketch.</desc>
<g>
	<path id="Fill-1" style="fill-rule:evenodd;clip-rule:evenodd;fill:#0A1633;" d="M70.087,10.044l-0.088-0.152H26.001L4.098,47.841
		L4,47.998l21.913,37.953l0.088,0.156h44.002l21.903-37.953L92,47.998L70.087,10.044z M29.185,79.745L10.362,48.012L29.18,16.275
		h37.635l18.827,31.738L66.825,79.75L29.185,79.745L29.185,79.745z"/>
	<path id="Fill-3" style="fill-rule:evenodd;clip-rule:evenodd;fill:#0A1633;" d="M66.15,52.883
		c-2.015-2.034-5.242-2.215-7.472-0.416l-12.519-7.154c0.474-1.545,0.523-3.188,0.142-4.758l8.592-4.299
		c2.005,1.795,5.003,1.917,7.145,0.284c2.142-1.633,2.822-4.558,1.619-6.964c-1.203-2.411-3.946-3.629-6.538-2.9
		c-2.592,0.729-4.303,3.193-4.078,5.873l-8.612,4.303c-1.731-2.108-4.318-3.325-7.042-3.316c-5.042,0-9.15,4.108-9.15,9.159
		c0,3.677,2.259,7.042,5.643,8.45l-1.223,7.306c-2.636,0.572-4.494,2.929-4.426,5.629c0.064,2.695,2.034,4.964,4.695,5.404
		c2.66,0.44,5.257-1.066,6.191-3.599c0.934-2.528-0.064-5.365-2.372-6.758l1.218-7.306c2.342-0.147,4.538-1.188,6.132-2.915
		l12.519,7.15c-0.372,2.616,1.125,5.14,3.599,6.059c2.474,0.924,5.262-0.005,6.685-2.23C68.331,57.67,68.018,54.751,66.15,52.883z"
		/>
</g>
</svg>
