<?xml version="1.0" encoding="iso-8859-1"?>
<!-- Generator: Adobe Illustrator 23.0.1, SVG Export Plug-In . SVG Version: 6.00 Build 0)  -->
<svg version="1.1" id="&#x56FE;&#x5C42;_1" xmlns="http://www.w3.org/2000/svg" xmlns:xlink="http://www.w3.org/1999/xlink" x="0px"
	 y="0px" viewBox="0 0 96 96" style="enable-background:new 0 0 96 96;" xml:space="preserve">
<title>wl/icon_VPNç½å³</title>
<desc>Created with Sketch.</desc>
<g>
	<path style="fill-rule:evenodd;clip-rule:evenodd;fill:#0A1633;" d="M83.933,4.966H12.067C7.618,4.966,4,8.583,4,13.032v52.311
		c0,4.449,3.618,8.067,8.067,8.067h71.867c4.449,0,8.067-3.618,8.067-8.067V13.032C92,8.583,88.382,4.966,83.933,4.966z
		 M85.64,65.343c0,0.944-0.763,1.711-1.711,1.711H12.067c-0.944,0-1.711-0.763-1.711-1.711V13.032c0-0.944,0.768-1.711,1.711-1.711
		h71.867c0.944,0,1.711,0.768,1.711,1.711v52.311H85.64z"/>
	<path style="fill-rule:evenodd;clip-rule:evenodd;fill:#0A1633;" d="M26.934,43.607c-0.259,0.851-0.42,1.633-0.499,2.342h-0.093
		c-0.054-0.66-0.205-1.418-0.464-2.278l-4.767-15.918h-5.549l7.783,22.87h5.837l7.881-22.87h-5.397L26.934,43.607z"/>
	<path style="fill-rule:evenodd;clip-rule:evenodd;fill:#0A1633;" d="M75.573,40.4c0,1.564,0.044,2.611,0.127,3.144h-0.064
		c-0.362-0.636-0.743-1.256-1.149-1.868l-9.074-13.924h-5.549v22.87h4.864V38.054c0-1.657-0.044-2.894-0.127-3.701h0.064
		c0.215,0.425,0.596,1.056,1.149,1.897l9.426,14.368h5.202V27.753h-4.869V40.4z"/>
	<path style="fill-rule:evenodd;clip-rule:evenodd;fill:#0A1633;" d="M47.873,27.753h-8.072v22.87h5.153v-7.881h2.454
		c2.762,0,4.972-0.709,6.624-2.127s2.479-3.276,2.479-5.573C56.516,30.182,53.637,27.753,47.873,27.753z M46.978,38.836h-2.024
		v-7.128h2.024c2.743,0,4.116,1.173,4.116,3.525C51.095,37.633,49.721,38.836,46.978,38.836z"/>
	<path style="fill-rule:evenodd;clip-rule:evenodd;fill:#0A1633;" d="M88.822,84.679H7.178C5.423,84.679,4,86.102,4,87.857
		c0,1.755,1.423,3.178,3.178,3.178h81.644c1.755,0,3.178-1.423,3.178-3.178C92,86.102,90.577,84.679,88.822,84.679z"/>
</g>
</svg>
