<?xml version="1.0" encoding="UTF-8"?>
<svg width="74px" height="74px" viewBox="0 0 74 74" version="1.1" xmlns="http://www.w3.org/2000/svg" xmlns:xlink="http://www.w3.org/1999/xlink">
    <!-- Generator: Sketch 63.1 (92452) - https://sketch.com -->
    <title>AMD-v</title>
    <desc>Created with Sketch.</desc>
    <g id="AMD-v" stroke="none" stroke-width="1" fill="none" fill-rule="evenodd">
        <path d="M71.4737149,42.1543664 C71.0822951,41.8528213 70.73612,41.5622891 70.4330854,41.2832943 C70.1305768,41.0037751 69.8538472,40.7169139 69.6028966,40.4221863 C69.3303758,40.7237314 69.0183974,41.0200323 68.6680136,41.3105645 C68.3176297,41.6005722 67.9135835,41.9010685 67.4564009,42.2094312 L66.7261715,41.3273461 L66.4936345,41.7904146 L65.7518309,41.3934238 L65.7518309,41.9556088 L64.5901979,41.9556088 L64.5901979,38.1498471 L63.8152499,38.1498471 C63.800519,38.4886265 63.780001,38.8027579 63.7542221,39.09329 C63.7284431,39.3838222 63.6974031,39.6507552 63.6600498,39.8930402 C63.6011264,40.3052392 63.5090586,40.6891193 63.3838463,41.0457292 C63.258108,41.4023391 63.0918598,41.7794016 62.8856279,42.1763923 L61.8008058,41.6467217 C62.0001984,41.2937828 62.1627639,40.933502 62.2879761,40.5658791 C62.4131884,40.1982563 62.5020996,39.8379754 62.5536576,39.4845121 C62.6052156,39.1247556 62.6441471,38.6816154 62.6699261,38.1556158 C62.6957051,37.6296162 62.7088576,37.0097443 62.7088576,36.2965245 L62.7088576,32.0491958 L63.8483943,32.0491958 L63.8483943,34.7746394 L64.6233424,34.7746394 L64.6233424,31.8509627 L65.7634051,31.8509627 L65.7634051,34.7746394 L66.4047233,34.7746394 L66.4047233,35.9215597 L63.8483943,35.9215597 L63.8483943,36.6825023 L63.8483943,36.9588749 L65.7518309,36.9588749 L65.7518309,40.7426108 C65.9143964,40.3964894 66.052235,40.0493192 66.1669253,39.6995268 C66.2816155,39.3502589 66.3678962,39.0182971 66.4268196,38.7015436 C66.5672888,37.93693 66.6377864,36.936849 66.6377864,35.7007762 L66.6377864,32.6229182 C67.4195738,32.5788664 68.2387144,32.4928605 69.0946822,32.3638516 C69.9501238,32.2353672 70.7687383,32.0827591 71.5510518,31.9060274 L71.7720146,33.1305629 C71.4626667,33.204507 71.1396402,33.272158 70.8039872,33.3350891 C70.4683342,33.3974959 70.1158459,33.4578049 69.7470485,33.5165406 C69.0168191,33.6266702 68.3523524,33.7152982 67.7552268,33.7813759 L67.7552268,34.7966653 L71.6836295,34.7966653 L71.6836295,35.9656115 C71.3663901,37.3852335 70.9055248,38.5693881 70.3005077,39.5180753 L70.2894595,39.5285639 C70.7834692,40.0881267 71.4216308,40.6172729 72.2039443,41.1170512 L71.4737149,42.1543664 Z M73.0378157,30.0642422 L60.9669343,30.0642422 C60.4429369,30.0642422 60.0146899,30.4921741 60.0146899,31.0145027 L60.0146899,43.0464156 C60.0146899,43.5687442 60.4429369,43.9961516 60.9669343,43.9961516 L73.0378157,43.9961516 C73.5618132,43.9961516 73.9905862,43.5687442 73.9905862,43.0464156 L73.9905862,31.0145027 C73.9905862,30.4921741 73.5618132,30.0642422 73.0378157,30.0642422 L73.0378157,30.0642422 Z" id="Fill-1" fill="#000000"></path>
        <path d="M67.8938322,37 C67.8725986,37.9555843 67.7906977,38.7447176 67.6491405,39.3673997 C67.5217391,39.9055627 67.3048534,40.4497628 67,41 C67.4256825,40.7766279 67.8028311,40.5493747 68.1329626,40.3195343 C68.4625885,40.0901251 68.7512639,39.8572661 69,39.6213885 C68.7659252,39.2945235 68.5566229,38.9094437 68.372093,38.4644243 C68.1875632,38.0202674 68.0283114,37.5316947 67.8938322,37" id="Fill-3" fill="#000000"></path>
        <path d="M69,36 C69.0578683,36.3909836 69.1272513,36.7557377 69.2078536,37.0946721 C69.2887511,37.4340164 69.3764393,37.7356557 69.4720992,38 C69.5878358,37.7184426 69.6902864,37.4122951 69.7794508,37.0819672 C69.86832,36.7516393 69.9418364,36.3909836 70,36 L69,36 Z" id="Fill-5" fill="#000000"></path>
        <path d="M6.80329402,33.8220413 L4.98023033,38.4245296 L8.76740918,38.4245296 L6.80329402,33.8220413 Z M13.9985096,42.8228136 L10.6800883,42.8228136 L9.67045672,40.4823582 L4.16626792,40.4823582 L3.24625178,42.8228136 L-5.30268671e-05,42.8228136 L4.95848931,31.007995 L8.51181968,31.007995 L13.9985096,42.8228136 Z" id="Fill-7" fill="#000000"></path>
        <polygon id="Fill-9" fill="#000000" points="25.3770925 31 28 31 28 43 24.9881858 43 24.9881858 35.5204948 21.7301161 39.2853325 21.2698839 39.2853325 18.0118142 35.5039438 18.0118142 42.983449 15 42.983449 15 31 17.6223869 31 21.5 35.4625663"></polygon>
        <path d="M33.0051957,40.8018189 L34.9670939,40.8018189 C37.9894354,40.8018189 38.8908902,38.7619068 38.8908902,36.9997414 C38.8908902,34.9220723 37.7764115,33.1976639 34.9338414,33.1976639 L33.0051957,33.1976639 L33.0051957,40.8018189 Z M35.3219605,31 C39.7216834,31 42,33.7252274 42,37.0168096 C42,40.4656265 39.8089713,43 35.0003464,43 L30,43 L30,31 L35.3219605,31 Z" id="Fill-11" fill="#000000"></path>
        <polygon id="Fill-13" fill="#000000" points="53.4272529 33.5716707 47.5688291 33.5716707 44 30 57 30 57 43 53.4272529 39.4283293"></polygon>
        <polygon id="Fill-15" fill="#000000" points="47.1661115 39.8312986 47.1661115 34 43 38.1642619 43 44 48.8344437 44 53 39.8312986"></polygon>
    </g>
</svg>