<?xml version="1.0" encoding="utf-8"?>
<!-- Generator: Adobe Illustrator 21.0.0, SVG Export Plug-In . SVG Version: 6.00 Build 0)  -->
<svg version="1.1" id="图层_1" xmlns="http://www.w3.org/2000/svg" xmlns:xlink="http://www.w3.org/1999/xlink" x="0px" y="0px"
	 viewBox="0 0 96 96" style="enable-background:new 0 0 96 96;" xml:space="preserve">
<path d="M59.2,12l4.6-6.6c0.2-0.3,0.1-0.7-0.2-0.9l-0.1-0.1c-0.3-0.2-0.7-0.1-0.9,0.2l-4.7,6.8c-3.1-1.3-6.5-2.1-10.1-2.1
	c-3.4,0-6.7,0.7-9.6,1.9l-4.5-6.5c-0.2-0.3-0.6-0.4-0.9-0.2l-0.1,0.1c-0.3,0.2-0.4,0.6-0.2,0.9l4.3,6.3c-6.8,3.3-11.7,9.5-12.7,16.8
	h47.2C70.5,21.4,65.8,15.3,59.2,12z M37.9,21.5c-1.3,0-2.4-1.1-2.4-2.4s1.1-2.4,2.4-2.4c1.3,0,2.4,1.1,2.4,2.4
	C40.3,20.4,39.2,21.5,37.9,21.5z M58.2,21.5c-1.3,0-2.4-1.1-2.4-2.4s1.1-2.4,2.4-2.4c1.3,0,2.4,1.1,2.4,2.4
	C60.6,20.4,59.5,21.5,58.2,21.5z M21,38v19.3c0,3.3-2.1,6-4.7,6h-1c-2.6,0-4.7-2.7-4.7-6V38c0-3.3,2.1-6,4.7-6h1
	C18.8,32,21,34.7,21,38z M85.5,38.2v19.3c0,3.3-2.1,6-4.7,6h-1c-2.6,0-4.7-2.7-4.7-6V38.2c0-3.3,2.1-6,4.7-6h1
	C83.4,32.1,85.5,34.8,85.5,38.2z M71.8,31.7v38.1c0,2.6-2.2,4.8-4.8,4.8h-4v11c0,3.3-2.1,6-4.7,6h-1c-2.6,0-4.7-2.7-4.7-6v-11h-8.8
	v10.9c0,3.3-2.1,6-4.7,6h-1c-2.6,0-4.7-2.7-4.7-6V74.7h-4.3c-2.6,0-4.8-2.2-4.8-4.8V31.7H71.8z"/>
</svg>
