<?xml version="1.0" encoding="utf-8"?>
<!-- Generator: Adobe Illustrator 17.0.0, SVG Export Plug-In . SVG Version: 6.00 Build 0)  -->
<!DOCTYPE svg PUBLIC "-//W3C//DTD SVG 1.1//EN" "http://www.w3.org/Graphics/SVG/1.1/DTD/svg11.dtd">
<svg version="1.1" id="Layer_1" xmlns="http://www.w3.org/2000/svg" xmlns:xlink="http://www.w3.org/1999/xlink" x="0px" y="0px"
	 width="96px" height="96px" viewBox="0 0 96 96" enable-background="new 0 0 96 96" xml:space="preserve">
<g>
	<path d="M91.16,83.879l-28.318-40.61c1.716-3.617,2.613-7.588,2.613-11.625C65.455,16.677,53.278,4.5,38.311,4.5
		c-14.967,0-27.144,12.177-27.144,27.144s12.177,27.144,27.144,27.144c1.018,0,2.049-0.06,3.081-0.179l2.967,1.79l2.949,10.865
		c0.322,1.186,1.171,2.158,2.303,2.637l8.933,3.776l6.508,10.584c0.728,1.184,2.018,1.905,3.407,1.905h19.421
		c1.49,0,2.856-0.828,3.546-2.149S92.013,85.102,91.16,83.879z M70.694,82.167l-6.007-9.77c-0.436-0.71-1.083-1.266-1.85-1.59
		l-8.319-3.517l-2.86-10.536c-0.27-0.994-0.912-1.846-1.794-2.377l-5.561-3.354c-0.823-0.497-1.795-0.683-2.741-0.518
		c-1.09,0.187-2.185,0.281-3.252,0.281c-10.556,0-19.144-8.588-19.144-19.144S27.754,12.5,38.311,12.5
		c10.557,0,19.145,8.588,19.145,19.144c0,3.475-0.941,6.878-2.724,9.843c-0.812,1.352-0.755,3.055,0.147,4.349l25.334,36.332H70.694
		z"/>
	<circle cx="38.076" cy="31.833" r="7.551"/>
</g>
</svg>
