<?xml version="1.0" encoding="utf-8"?>
<!-- Generator: Adobe Illustrator 21.0.0, SVG Export Plug-In . SVG Version: 6.00 Build 0)  -->
<svg version="1.1" id="Layer_1" xmlns="http://www.w3.org/2000/svg" xmlns:xlink="http://www.w3.org/1999/xlink" x="0px" y="0px"
	 viewBox="0 0 96 96" style="enable-background:new 0 0 96 96;" xml:space="preserve">
<g>
	<path d="M84.7,59.5v-1c0-0.2,0-0.4,0-0.7V43.6c0-13.3-8.8-25-23-30l-1.1-0.4c0,0-0.1,0-0.1,0C59.1,7.3,53.9,6,47.6,6
		c-6.2,0-11.4,1.3-12.8,7.1c-0.4,0.1-0.8,0.3-1.2,0.4c-14.1,5-22.9,16.8-22.9,30v14.3c0,0.2,0,0.4,0,0.7v1c-4.1,3.2-5.3,6.3-5.3,8.5
		c0,11.4,21.8,17.3,42.3,17.3S90,79.4,90,68C90,65.8,88.7,62.6,84.7,59.5z M47.6,11.3c7.9,0,7.9,2.3,7.9,5.3
		c0,7.7-5.2,15.9-7.9,15.9c-2.8,0-7.9-8.2-7.9-15.9C39.7,13.6,39.7,11.3,47.6,11.3z M15.9,43.6c0-10.7,7.1-20.4,18.6-24.7
		c0.9,8.5,6.4,18.9,13.1,18.9c6.7,0,12.2-10.4,13.1-18.9c11.5,4.4,18.6,14,18.6,24.7V57c-4.7,3.7-15.9,7.2-31.7,7.2
		c-15.8,0-27.1-3.5-31.7-7.2V43.6z M47.6,80c-22.9,0-37-6.9-37-12c0-2,2.1-3.8,3.8-5c0.2-0.1,0.3-0.2,0.5-0.4
		c7.1,4.2,19.2,6.8,32.8,6.8c13.7,0,25.7-2.5,32.8-6.8c0.1,0.1,0.3,0.2,0.4,0.3c1.7,1.2,3.8,3,3.8,5C84.7,73.1,70.6,80,47.6,80z"/>
	<path d="M52.6,52.6c0-2.5-2.1-4.6-4.6-4.6c-2.5,0-4.6,2.1-4.6,4.6c0,2.5,2.1,4.6,4.6,4.6C50.5,57.2,52.6,55.1,52.6,52.6z"/>
</g>
</svg>
