<?xml version="1.0" encoding="utf-8"?>
<!-- Generator: Adobe Illustrator 21.0.0, SVG Export Plug-In . SVG Version: 6.00 Build 0)  -->
<svg version="1.1" id="Layer_1" xmlns="http://www.w3.org/2000/svg" xmlns:xlink="http://www.w3.org/1999/xlink" x="0px" y="0px"
	 viewBox="0 0 96 96" style="enable-background:new 0 0 96 96;" xml:space="preserve">
<g>
	<path d="M69,2.6H31.7c-8.8,0-16,7.2-16,16v48.5c0,2.2,1.8,4,4,4s4-1.8,4-4V18.6c0-4.4,3.6-8,8-8H69c4.4,0,8,3.6,8,8v58.2
		c0,4.4-3.6,8-8,8H36.8c-2.2,0-4,1.8-4,4s1.8,4,4,4H69c8.8,0,16-7.2,16-16V18.6C85,9.8,77.8,2.6,69,2.6z"/>
	<path d="M49.1,82c11.9,0,21.6-9.7,21.6-21.6S61,38.8,49.1,38.8s-21.6,9.7-21.6,21.6c0,3.6,0.9,7,2.5,10L16.6,83.8
		c-1.6,1.6-1.6,4.1,0,5.7c0.8,0.8,1.8,1.2,2.8,1.2s2-0.4,2.8-1.2L35,76.7C38.7,80,43.7,82,49.1,82z M49.1,46.8
		c7.5,0,13.6,6.1,13.6,13.6S56.6,74,49.1,74s-13.6-6.1-13.6-13.6S41.6,46.8,49.1,46.8z"/>
</g>
</svg>
