<?xml version="1.0" encoding="utf-8"?>
<!-- Generator: Adobe Illustrator 21.0.0, SVG Export Plug-In . SVG Version: 6.00 Build 0)  -->
<svg version="1.0" id="Layer_1" xmlns="http://www.w3.org/2000/svg" xmlns:xlink="http://www.w3.org/1999/xlink" x="0px" y="0px"
	 viewBox="0 0 96 96" style="enable-background:new 0 0 96 96;" xml:space="preserve">
<style type="text/css">
	.st0{fill:#0B0C0C;}
</style>
<path class="st0" d="M48,6.9C25.4,6.9,6.9,25.4,6.9,48S25.4,89.1,48,89.1c22.6,0,41.1-18.4,41.1-41.1S70.6,6.9,48,6.9z M8.3,48
	c0-18.4,12.6-33.9,29.6-38.3L21.1,25.8l0.6,0.5c0.1,0.1,5.9,5.4,3.3,10.4c-2.7,5.3,3.2,14.1,6.9,18.8c0.2,0.2,0.3,0.6,0.2,0.9
	c-0.1,0.3-0.3,0.6-0.6,0.7L27.2,59l0.1,0.5c0,0.1,1.1,10.6-2,15c-0.1,0.1-0.8,0.9-5.8,1C12.6,68.3,8.3,58.7,8.3,48z M48,87.7
	c-10.5,0-20.1-4.1-27.2-10.8c4.1-0.2,5.2-1,5.6-1.6c3-4.2,2.5-13.2,2.3-15.4l3.3-1.5c0.7-0.3,1.2-0.9,1.4-1.6c0.2-0.7,0-1.5-0.4-2.1
	c-2.2-2.8-9.2-12.4-6.7-17.3c2.5-5-1.6-10-3.1-11.6L40.6,9.1C43,8.6,45.5,8.3,48,8.3c1.5,0,3,0.1,4.5,0.3L35,25.8l0.6,0.5
	c0.1,0.1,5.9,5.4,3.3,10.4C36.2,42,42,50.8,45.8,55.5c0.2,0.2,0.3,0.6,0.2,0.9c-0.1,0.3-0.3,0.6-0.6,0.7L41.1,59l0.1,0.5
	c0,0.1,1.1,10.6-2,15c-0.6,0.9-5.6,1.2-9.8,1l-1-0.1l2.3,7.5l18,4.7C48.5,87.6,48.2,87.7,48,87.7z M52.8,87.4l0-0.1l-21-5.5
	l-1.5-4.8c2.9,0.1,8.8,0.1,10-1.6c3-4.2,2.5-13.2,2.3-15.4l3.3-1.5c0.7-0.3,1.2-0.9,1.4-1.6c0.2-0.7,0-1.5-0.4-2.1
	c-2.2-2.8-9.2-12.4-6.7-17.3c2.5-5-1.6-10-3.1-11.6L54.3,8.9c3.1,0.5,6,1.3,8.8,2.5L50.2,23.7l0.6,0.5c0.1,0.1,5.9,5.4,3.3,10.4
	c-2.7,5.3,3.2,14.1,6.9,18.8c0.2,0.2,0.3,0.6,0.2,0.9c-0.1,0.3-0.3,0.6-0.6,0.7l-4.3,1.9l0.1,0.5c0,0.1,1.1,10.6-2,15
	c-0.6,0.9-5.6,1.2-9.8,1l-1-0.1l2.3,7.5L62,85.1C59.1,86.2,56,87,52.8,87.4z M64.2,84.2L47,79.7l-1.5-4.8c2.9,0.1,8.8,0.1,10-1.6
	c3-4.2,2.5-13.2,2.3-15.4l3.3-1.5c0.7-0.3,1.2-0.9,1.4-1.6c0.2-0.7,0-1.5-0.4-2.1c-2.2-2.8-9.2-12.4-6.7-17.3c2.5-5-1.6-10-3.1-11.6
	l12.3-11.7c1.8,0.8,3.5,1.8,5.2,2.9l-4.9,4.7l0.6,0.5c0.1,0.1,5.9,5.4,3.3,10.4c-2.7,5.3,3.2,14.1,6.9,18.8c0.2,0.2,0.3,0.6,0.2,0.9
	c-0.1,0.3-0.3,0.6-0.6,0.7l-4.3,1.9l0.1,0.5c0,0.1,1.1,10.6-2,15c-0.6,0.9-5.6,1.2-9.8,1l-1-0.1l2.3,7.5l11.4,3
	C69.5,81.4,66.9,83,64.2,84.2z M73.3,78.5l-11.7-3.1l-1.5-4.8c2.9,0.1,8.8,0.1,10-1.6c3-4.2,2.5-13.2,2.3-15.4l3.3-1.5
	c0.7-0.3,1.2-0.9,1.4-1.6c0.2-0.7,0-1.5-0.4-2.1c-2.2-2.8-9.2-12.4-6.7-17.3c2.5-5-1.6-10-3.1-11.6l4-3.8C81,22.8,87.7,34.6,87.7,48
	C87.7,60.3,82.1,71.2,73.3,78.5z"/>
</svg>
