<?xml version="1.0" encoding="utf-8"?>
<!-- Generator: Adobe Illustrator 21.0.0, SVG Export Plug-In . SVG Version: 6.00 Build 0)  -->
<svg version="1.1" id="Layer_1" xmlns="http://www.w3.org/2000/svg" xmlns:xlink="http://www.w3.org/1999/xlink" x="0px" y="0px"
	 width="96px" height="96px" viewBox="0 0 96 96" style="enable-background:new 0 0 96 96;" xml:space="preserve">
<g>
	<path d="M44.6,48L44.6,48c0-5.7,4.6-10.3,10.3-10.3h0c5.7,0,10.3,4.6,10.3,10.3v0c0,5.7-4.6,10.3-10.3,10.3h0
		C49.2,58.3,44.6,53.7,44.6,48z"/>
	<path d="M6.9,41.1h20.6c3.8,0,6.9,3.1,6.9,6.9v0c0,3.8-3.1,6.9-6.9,6.9H6.9C3.1,54.9,0,51.8,0,48l0,0C0,44.2,3.1,41.1,6.9,41.1z"/>
	<path d="M82.3,41.1h6.9c3.8,0,6.9,3.1,6.9,6.9v0c0,3.8-3.1,6.9-6.9,6.9h-6.9c-3.8,0-6.9-3.1-6.9-6.9v0
		C75.4,44.2,78.5,41.1,82.3,41.1z"/>
</g>
</svg>
