<?xml version="1.0" encoding="utf-8"?>
<!-- Generator: Adobe Illustrator 17.0.0, SVG Export Plug-In . SVG Version: 6.00 Build 0)  -->
<!DOCTYPE svg PUBLIC "-//W3C//DTD SVG 1.1//EN" "http://www.w3.org/Graphics/SVG/1.1/DTD/svg11.dtd">
<svg version="1.1" id="图层_1" xmlns="http://www.w3.org/2000/svg" xmlns:xlink="http://www.w3.org/1999/xlink" x="0px" y="0px"
	 width="19.7px" height="15.9px" viewBox="0 0 19.7 15.9" enable-background="new 0 0 19.7 15.9" xml:space="preserve">
<path fill="#4683E6" d="M15.2,3.6h-2.9l0-1c0-0.5-0.4-0.9-1-0.9H8.3c-0.6,0-1,0.4-1,0.9v1H4.5c-0.6,0-1.2,0.5-1.2,1.2v8.3
	c0,0.6,0.5,1.2,1.2,1.2h10.7c0.6,0,1.2-0.5,1.2-1.2V4.8C16.4,4.1,15.8,3.6,15.2,3.6z M8.5,2.9l2.7,0v0.8H8.5V2.9z M15.1,4.9v3.6
	h-1.7V8.1c0-0.6-0.5-1.1-1.1-1.1H7.4c-0.6,0-1.1,0.5-1.1,1.1v0.4H4.6V4.9H15.1z M12.4,8.1v2.3c0,0.1-0.1,0.2-0.2,0.2H7.4
	c-0.1,0-0.2-0.1-0.2-0.2V8.1c0-0.1,0.1-0.2,0.2-0.2h4.9C12.4,7.9,12.4,8,12.4,8.1z"/>
</svg>
