<?xml version="1.0" encoding="utf-8"?>
<!-- Generator: Adobe Illustrator 22.1.0, SVG Export Plug-In . SVG Version: 6.00 Build 0)  -->
<svg version="1.1" id="Layer_1" xmlns="http://www.w3.org/2000/svg" xmlns:xlink="http://www.w3.org/1999/xlink" x="0px" y="0px"
	 viewBox="0 0 96 96" style="enable-background:new 0 0 96 96;" xml:space="preserve">
<style type="text/css">
	.st0{fill:#040000;}
</style>
<g id="组件">
	<g id="功能icon_x2F_盒子" transform="translate(0.000000, -1.000000)">
		<path id="合并形状" class="st0" d="M85.5,34L85.5,34v42.5c0,4.2-3.2,7.5-7.5,7.5H18c-4.2,0-7.5-3.2-7.5-7.5V34l0,0h-5V21.5
			c0-4.2,3.2-7.5,7.5-7.5h70c4.2,0,7.5,3.2,7.5,7.5V34H85.5z M85.5,29v-7.5c0-1.5-1-2.5-2.5-2.5H13c-1.5,0-2.5,1-2.5,2.5V29H85.5z
			 M15.5,34v42.5c0,1.5,1,2.5,2.5,2.5h60c1.5,0,2.5-1,2.5-2.5V34H15.5z M58,49H38c-1.5,0-2.5-1-2.5-2.5c0-1.5,1-2.5,2.5-2.5h20
			c1.5,0,2.5,1,2.5,2.5C60.5,48,59.5,49,58,49z"/>
	</g>
</g>
</svg>
