<?xml version="1.0" encoding="utf-8"?>
<!-- Generator: Adobe Illustrator 17.0.0, SVG Export Plug-In . SVG Version: 6.00 Build 0)  -->
<!DOCTYPE svg PUBLIC "-//W3C//DTD SVG 1.1//EN" "http://www.w3.org/Graphics/SVG/1.1/DTD/svg11.dtd">
<svg version="1.1" id="Layer_1" xmlns="http://www.w3.org/2000/svg" xmlns:xlink="http://www.w3.org/1999/xlink" x="0px" y="0px"
	 width="96px" height="96px" viewBox="0 0 96 96" enable-background="new 0 0 96 96" xml:space="preserve">
<path d="M79.1,16.9c-17.2-17.2-45-17.2-62.2,0s-17.2,45,0,62.2s45,17.2,62.2,0C96.3,61.9,96.3,34.1,79.1,16.9z M70.5,19.9L59,31.3
	c-6.7-4.4-15.4-4.4-22.1,0L25.5,19.9C38.6,9.4,57.4,9.4,70.5,19.9z M60,48c0,6.6-5.4,12-12,12s-12-5.4-12-12c0-6.6,5.4-12,12-12
	S60,41.4,60,48z M19.9,25.5L31.3,37c-4.4,6.7-4.4,15.4,0,22.1L19.9,70.5C9.4,57.4,9.4,38.6,19.9,25.5z M25.5,76.1L37,64.7
	c6.7,4.4,15.4,4.4,22.1,0l11.4,11.4C57.4,86.6,38.6,86.6,25.5,76.1z M76.1,70.5L64.7,59c4.4-6.7,4.4-15.4,0-22.1l11.4-11.4
	C86.6,38.6,86.6,57.4,76.1,70.5z"/>
</svg>
