<?xml version="1.0" encoding="utf-8"?>
<!-- Generator: Adobe Illustrator 24.0.1, SVG Export Plug-In . SVG Version: 6.00 Build 0)  -->
<svg version="1.1" id="Layer_1" xmlns="http://www.w3.org/2000/svg" xmlns:xlink="http://www.w3.org/1999/xlink" x="0px" y="0px"
	 viewBox="0 0 96 96" style="enable-background:new 0 0 96 96;" xml:space="preserve">
<style type="text/css">
	.st0{fill-rule:evenodd;clip-rule:evenodd;fill:#08142F;}
</style>
<path class="st0" d="M69.3,22h-9.8c-1.1,0-2,0.9-2,2v3c0,1.1,0.9,2,2,2H65c1.1,0,2,0.9,2,2v5.5c0,1.1,0.9,2,2,2h3c1.1,0,2-0.9,2-2
	v-9.8C74,24.1,71.9,22,69.3,22z M36.5,22h-9.8l-0.2,0C24,22.1,22,24.2,22,26.7v9.8l0,0.1c0.1,1,0.9,1.9,2,1.9h3l0.1,0
	c1-0.1,1.9-0.9,1.9-2V31l0-0.1c0.1-1,0.9-1.9,2-1.9h5.5l0.1,0c1-0.1,1.9-0.9,1.9-2v-3l0-0.1C38.4,22.8,37.6,22,36.5,22z M58.9,37.8
	c-0.8-0.7-2-0.6-2.7,0.1l-9.8,9.8l-0.1,0.1c-0.8,0.7-2,0.6-2.7-0.1L40.9,45l-0.1-0.1c-0.8-0.7-2-0.6-2.7,0.1l-2.1,2.1l-0.1,0.1
	c-0.7,0.8-0.6,2,0.1,2.7l7.7,7.7l0.1,0.1c0.8,0.7,2,0.6,2.7-0.1l14.7-14.7l0.1-0.1c0.7-0.8,0.6-2-0.1-2.7L59,37.9L58.9,37.8z M27,58
	h-3c-1.1,0-2,0.9-2,2v9.8c0,2.6,2.1,4.7,4.7,4.7h9.8c1.1,0,2-0.9,2-2v-3c0-1.1-0.9-2-2-2H31c-1.1,0-2-0.9-2-2V60
	C29,58.9,28.1,58,27,58z M72,58h-3l-0.1,0c-1,0.1-1.9,0.9-1.9,2v5.5l0,0.1c-0.1,1-0.9,1.9-2,1.9h-5.5l-0.1,0c-1,0.1-1.9,0.9-1.9,2v3
	l0,0.1c0.1,1,0.9,1.9,2,1.9h9.8l0.2,0c2.5-0.1,4.5-2.2,4.5-4.7V60l0-0.1C73.9,58.8,73.1,58,72,58z M48,4c24.3,0,44,19.7,44,44
	S72.3,92,48,92S4,72.3,4,48S23.7,4,48,4z"/>
</svg>
