<?xml version="1.0" encoding="utf-8"?>
<!-- Generator: Adobe Illustrator 17.0.0, SVG Export Plug-In . SVG Version: 6.00 Build 0)  -->
<!DOCTYPE svg PUBLIC "-//W3C//DTD SVG 1.1//EN" "http://www.w3.org/Graphics/SVG/1.1/DTD/svg11.dtd">
<svg version="1.1" id="Layer_1" xmlns="http://www.w3.org/2000/svg" xmlns:xlink="http://www.w3.org/1999/xlink" x="0px" y="0px"
	 width="96px" height="96px" viewBox="0 0 96 96" enable-background="new 0 0 96 96" xml:space="preserve">
<path d="M70.827,7H26.173C16.152,7,8,15.152,8,25.173v45.154C8,80.348,16.152,88.5,26.173,88.5h44.654
	C80.848,88.5,89,80.348,89,70.327V25.173C89,15.152,80.848,7,70.827,7z M72.607,41.225L48.651,65.182
	c-0.054,0.054-0.117,0.091-0.172,0.141c-0.088,0.079-0.178,0.152-0.271,0.222c-0.146,0.109-0.297,0.205-0.454,0.292
	c-0.094,0.052-0.186,0.105-0.283,0.149c-0.181,0.082-0.367,0.143-0.557,0.197c-0.083,0.023-0.162,0.055-0.246,0.073
	c-0.277,0.059-0.557,0.096-0.839,0.096c-0.001,0-0.001,0-0.002,0s-0.001,0-0.001,0c-0.234,0-0.469-0.026-0.701-0.068
	c-0.071-0.013-0.141-0.034-0.211-0.051c-0.16-0.038-0.317-0.082-0.473-0.14c-0.083-0.031-0.164-0.067-0.246-0.103
	c-0.139-0.063-0.275-0.135-0.408-0.215c-0.08-0.048-0.16-0.095-0.238-0.15c-0.037-0.026-0.078-0.044-0.114-0.072L27.461,53.574
	c-1.764-1.323-2.122-3.826-0.799-5.59c1.324-1.765,3.826-2.121,5.59-0.799l13.201,9.901l21.508-21.508
	c1.56-1.559,4.087-1.559,5.647,0C74.167,37.138,74.167,39.665,72.607,41.225z"/>
</svg>
