<?xml version="1.0" encoding="utf-8"?>
<!-- Generator: Adobe Illustrator 22.1.0, SVG Export Plug-In . SVG Version: 6.00 Build 0)  -->
<svg version="1.1" id="Layer_1" xmlns="http://www.w3.org/2000/svg" xmlns:xlink="http://www.w3.org/1999/xlink" x="0px" y="0px"
	 viewBox="0 0 96 96" style="enable-background:new 0 0 96 96;" xml:space="preserve">
<path d="M48,4C23.7,4,4,23.7,4,48s19.7,44,44,44s44-19.7,44-44S72.3,4,48,4z M62.2,62.2c-1.6,1.6-4.1,1.6-5.7,0L48,53.7l-8.5,8.5
	c-1.6,1.6-4.1,1.6-5.7,0c-1.6-1.6-1.6-4.1,0-5.7l8.5-8.5l-8.5-8.5c-1.6-1.6-1.6-4.1,0-5.7c1.6-1.6,4.1-1.6,5.7,0l8.5,8.5l8.4-8.4
	c1.6-1.6,4.1-1.6,5.7,0c1.6,1.5,1.6,4.1,0.1,5.6L53.7,48l8.5,8.5C63.8,58.1,63.8,60.6,62.2,62.2z"/>
</svg>
