<?xml version="1.0" encoding="utf-8"?>
<!-- Generator: Adobe Illustrator 22.1.0, SVG Export Plug-In . SVG Version: 6.00 Build 0)  -->
<svg version="1.1" id="Layer_1" xmlns="http://www.w3.org/2000/svg" xmlns:xlink="http://www.w3.org/1999/xlink" x="0px" y="0px"
	 viewBox="0 0 96 96" style="enable-background:new 0 0 96 96;" xml:space="preserve">
<g>
	<path d="M36.1,21.4c-0.3,0.1-0.5,0.2-0.7,0.3c-1.1,0.5-2.1,1.1-3.1,1.8c-0.3,0.2-0.5,0.3-0.8,0.5c-0.9,0.7-1.8,1.3-2.5,2
		c-0.3,0.3-0.6,0.5-0.9,0.7c-0.6,0.6-1.2,1.2-1.8,1.9c-0.2,0.3-0.4,0.5-0.6,0.7l10,8.2c0.6-0.7,1.3-1.5,2.2-2.1
		c0.3-0.3,0.6-0.5,0.9-0.7c0.1-0.1,0.3-0.2,0.5-0.3c0.3-0.2,0.7-0.3,1-0.5c0.7-0.4,1.4-0.9,2.2-1.3l-4.7-12
		C37.2,21,36.6,21.1,36.1,21.4z"/>
	<path d="M61.8,39.1c0.1,0.2,0.2,0.4,0.3,0.5c0.4,0.7,0.7,1.4,1.1,2.1c0.3,0.6,0.5,1.3,0.7,1.9c0.1,0.5,0.3,0.9,0.5,1.3L77,42.7
		c-0.1-0.3-0.1-0.5-0.1-0.9c-0.1-0.2-0.1-0.4-0.1-0.6c-0.8-3.3-2.2-6.5-4.1-9.4c-0.6-0.9-1.1-1.5-1.5-2c-0.1-0.1-0.2-0.3-0.3-0.4
		l-10,8.3C61,38,61.3,38.4,61.8,39.1z"/>
	<path d="M32.2,50.4C32,49.5,32,48.6,32,47.5c0-0.3,0.1-0.5,0.1-0.8c0-0.3,0.1-0.6,0.1-0.9c0.1-1.1,0.3-2.1,0.7-3.1l-12.2-4.1
		c-0.1,0.3-0.2,0.6-0.3,0.9c-0.3,0.9-0.5,1.7-0.7,2.5c-0.1,0.5-0.2,1.1-0.3,1.6c-0.1,1-0.3,2.1-0.3,3.1c0,0.4-0.1,0.8-0.1,1.2
		c0,1.2,0.1,2.3,0.2,3.5c0,0.2,0.1,0.5,0.1,0.7c0.1,0.5,0.2,0.9,0.3,1.3L32.2,51C32.2,50.8,32.2,50.6,32.2,50.4z"/>
	<path d="M63.7,52.6c-0.3,0.8-0.5,1.6-0.8,2.3c-0.3,0.7-0.8,1.4-1.3,2.1c-0.3,0.4-0.5,0.9-0.7,1.3l10,8.2c0.1-0.1,0.3-0.3,0.4-0.5
		c0.5-0.7,1-1.4,1.5-2.1c0.3-0.5,0.7-1,0.9-1.5c0.3-0.6,0.7-1.3,1-1.9c0.3-0.7,0.6-1.3,0.9-2.1c0.2-0.5,0.4-1.1,0.5-1.7
		c0.3-0.8,0.5-1.7,0.7-2.5c0.1-0.2,0.1-0.4,0.1-0.6l-12.7-2.5C64.1,51.7,63.9,52.1,63.7,52.6z"/>
	<path d="M56.3,33.8l6.4-11.2c-4.3-2.5-9.2-3.9-14.2-3.9l-0.1,13c0.1,0,0.2,0,0.4,0C51.4,31.8,54,32.5,56.3,33.8z"/>
	<path d="M54,63.1c-0.4,0.1-0.8,0.3-1.3,0.5c-1.2,0.3-2.5,0.5-3.7,0.6c-0.2,0-0.3,0.1-0.5,0.1c-0.3,0-0.5,0-0.7,0l0,0
		c-0.2,0-0.5,0.1-0.7,0.1l-0.9,12.8c0.3,0,0.6,0.1,0.9,0.1v0.1c0.1,0,0.3,0,0.4,0s0.3,0,0.4,0c0.1,0,0.1,0,0.1,0v-0.1
		c0.1,0,0.2,0,0.3,0v0.1c0.1,0,0.1,0,0.1,0c0.3,0,0.6-0.1,0.9-0.1c0.5,0,0.9,0,1.3,0v-0.1c3.6-0.3,7-1.2,10.2-2.7
		c0.1-0.1,0.3-0.1,0.5-0.2c0.4-0.2,0.7-0.4,1.1-0.6l-6.3-11.3C55.4,62.6,54.7,62.8,54,63.1z"/>
	<path d="M37.8,60.4c-0.3-0.3-0.6-0.7-0.9-1c-0.6-0.6-1.2-1.1-1.7-1.7c-0.1-0.2-0.3-0.4-0.5-0.6c-0.1-0.1-0.1-0.3-0.3-0.4l-11,6.9
		c0.7,1.1,1.5,2.3,2.4,3.3c0.3,0.3,0.5,0.6,0.9,0.9c0.7,0.7,1.3,1.5,2.1,2.1c0.2,0.2,0.4,0.3,0.6,0.5c0.9,0.8,1.9,1.5,2.9,2.2
		c0.1,0.1,0.1,0.1,0.1,0.1c1.1,0.7,2.4,1.4,3.6,2l5.5-11.8c-0.2-0.1-0.3-0.3-0.5-0.3C39.8,61.8,38.7,61.2,37.8,60.4z"/>
</g>
</svg>
