<?xml version="1.0" encoding="utf-8"?>
<!-- Generator: Adobe Illustrator 22.1.0, SVG Export Plug-In . SVG Version: 6.00 Build 0)  -->
<svg version="1.1" id="Layer_1" xmlns="http://www.w3.org/2000/svg" xmlns:xlink="http://www.w3.org/1999/xlink" x="0px" y="0px"
	 viewBox="0 0 96 96" style="enable-background:new 0 0 96 96;" xml:space="preserve">
<g>
	<path d="M30.1,8c-0.4,0.2-0.7,0.3-1.1,0.5c-1.6,0.8-3.2,1.7-4.7,2.7c-0.4,0.3-0.8,0.5-1.2,0.8c-1.4,1-2.7,2-3.8,3
		c-0.4,0.4-0.9,0.7-1.3,1.1c-0.9,0.9-1.8,1.8-2.7,2.8c-0.3,0.4-0.6,0.7-0.9,1.1l15,12.4c0.9-1.1,2-2.2,3.3-3.2
		c0.4-0.4,0.9-0.7,1.4-1.1c0.2-0.2,0.4-0.3,0.7-0.5c0.4-0.3,1-0.4,1.5-0.7c1.1-0.6,2.1-1.4,3.3-1.9l-7-18.1
		C31.8,7.4,30.9,7.6,30.1,8z"/>
	<path d="M68.8,34.6c0.2,0.3,0.3,0.6,0.4,0.8c0.6,1,1.1,2.1,1.6,3.2c0.4,0.9,0.7,1.9,1,2.9c0.2,0.7,0.5,1.3,0.7,2l19.1-3.5
		c-0.1-0.4-0.1-0.8-0.2-1.3c-0.1-0.3-0.2-0.6-0.2-0.9c-1.2-5-3.3-9.8-6.2-14.2c-0.9-1.3-1.6-2.2-2.3-3c-0.2-0.2-0.3-0.4-0.5-0.6
		l-15,12.5C67.6,32.9,68,33.5,68.8,34.6z"/>
	<path d="M24.2,51.6c-0.2-1.3-0.3-2.7-0.3-4.3c0-0.4,0.1-0.8,0.1-1.2c0-0.5,0.1-0.9,0.1-1.3c0.2-1.6,0.5-3.1,1-4.7L6.8,33.9
		c-0.2,0.5-0.3,0.9-0.5,1.4c-0.4,1.3-0.7,2.5-1,3.8c-0.2,0.8-0.3,1.6-0.4,2.4c-0.2,1.5-0.4,3.1-0.4,4.6c0,0.6-0.1,1.2-0.1,1.8
		c0,1.8,0.1,3.5,0.3,5.2c0,0.3,0.1,0.7,0.1,1c0.1,0.7,0.3,1.3,0.4,1.9l19.1-3.5C24.2,52.2,24.3,51.9,24.2,51.6z"/>
	<path d="M71.6,54.9c-0.4,1.2-0.7,2.4-1.2,3.5c-0.5,1.1-1.2,2.1-1.9,3.2c-0.4,0.6-0.7,1.3-1.1,1.9l15.1,12.3
		c0.2-0.2,0.4-0.4,0.6-0.7c0.8-1,1.5-2.1,2.2-3.2c0.5-0.8,1-1.5,1.4-2.3c0.5-0.9,1-1.9,1.5-2.9c0.5-1,0.9-2,1.3-3.1
		c0.3-0.8,0.6-1.7,0.8-2.5c0.4-1.2,0.7-2.5,1-3.8c0.1-0.3,0.1-0.6,0.2-0.9l-19.1-3.8C72.2,53.5,71.9,54.1,71.6,54.9z"/>
	<path d="M60.5,26.7l9.6-16.8C63.6,6.2,56.3,4.1,48.7,4l-0.2,19.5c0.2,0,0.3,0,0.6,0C53.1,23.6,57,24.7,60.5,26.7z"/>
	<path d="M57,70.7c-0.6,0.2-1.2,0.5-1.9,0.7c-1.8,0.5-3.7,0.8-5.5,0.9c-0.3,0-0.5,0.1-0.8,0.1c-0.4,0-0.7,0-1.1,0c0,0,0,0,0,0
		c-0.3,0-0.7,0.1-1,0.1l-1.4,19.3c0.5,0,0.9,0.1,1.4,0.1l0,0.1c0.2,0,0.4,0,0.6,0c0.2,0,0.4,0,0.6,0c0.1,0,0.1,0,0.2,0l0-0.1
		c0.1,0,0.3,0,0.4,0V92c0.1,0,0.1,0,0.2,0c0.5,0,0.9-0.1,1.4-0.1c0.7,0,1.3,0,2,0l0-0.1c5.4-0.4,10.5-1.8,15.3-4.1
		c0.2-0.1,0.5-0.2,0.7-0.3c0.6-0.3,1.1-0.6,1.7-0.9l-9.5-17C59.2,70,58.1,70.3,57,70.7z"/>
	<path d="M32.6,66.6c-0.5-0.4-0.9-1-1.4-1.5c-0.9-0.9-1.8-1.6-2.5-2.6c-0.2-0.3-0.5-0.6-0.7-0.9c-0.1-0.2-0.2-0.4-0.4-0.6L11,71.3
		c1.1,1.7,2.3,3.4,3.6,4.9c0.4,0.5,0.8,0.9,1.3,1.3c1,1.1,2,2.2,3.1,3.2c0.3,0.3,0.6,0.5,0.9,0.8c1.4,1.2,2.8,2.3,4.3,3.3
		c0.1,0.1,0.2,0.1,0.2,0.2c1.7,1.1,3.6,2.1,5.4,3l8.2-17.8c-0.3-0.1-0.5-0.4-0.8-0.5C35.7,68.8,34,67.8,32.6,66.6z"/>
</g>
</svg>
