<?xml version="1.0" encoding="utf-8"?>
<!-- Generator: Adobe Illustrator 17.0.0, SVG Export Plug-In . SVG Version: 6.00 Build 0)  -->
<!DOCTYPE svg PUBLIC "-//W3C//DTD SVG 1.1//EN" "http://www.w3.org/Graphics/SVG/1.1/DTD/svg11.dtd">
<svg version="1.1" id="Layer_1" xmlns="http://www.w3.org/2000/svg" xmlns:xlink="http://www.w3.org/1999/xlink" x="0px" y="0px"
	 width="96px" height="96px" viewBox="0 0 96 96" enable-background="new 0 0 96 96" xml:space="preserve">
<path d="M52,4C27.7,4,8,23.699,8,48s19.7,44,44,44s44-19.699,44-44S76.3,4,52,4z M52,84c-19.882,0-36-16.118-36-36s16.118-36,36-36
	s36,16.118,36,36S71.882,84,52,84z"/>
<path fill="none" stroke="#000000" stroke-width="8" stroke-miterlimit="10" d="M-16,36"/>
<path d="M40,75.772V20.227L78.882,48L40,75.772z M48,35.773v24.455L65.118,48L48,35.773z"/>
</svg>
