<?xml version="1.0" encoding="utf-8"?>
<!-- Generator: Adobe Illustrator 17.0.0, SVG Export Plug-In . SVG Version: 6.00 Build 0)  -->
<!DOCTYPE svg PUBLIC "-//W3C//DTD SVG 1.1//EN" "http://www.w3.org/Graphics/SVG/1.1/DTD/svg11.dtd">
<svg version="1.1" id="Layer_1" xmlns="http://www.w3.org/2000/svg" xmlns:xlink="http://www.w3.org/1999/xlink" x="0px" y="0px"
	 width="96px" height="96px" viewBox="0 0 96 96" enable-background="new 0 0 96 96" xml:space="preserve">
<path d="M66.8,65.2c1.6,1.6,1.6,4.1,0,5.7l-12,12C54.1,83.6,53.1,84,52,84s-2.1-0.4-2.8-1.2l-12-12c-1.6-1.6-1.6-4.1,0-5.7
	c1.6-1.6,4.1-1.6,5.7,0l5.2,5.2V44c0-2.2,1.8-4,4-4s4,1.8,4,4v26.3l5.2-5.2C62.7,63.6,65.3,63.6,66.8,65.2z M60,8
	C44.3,8,31,18,26.1,32H24c0,0,0,0,0,0C10.7,32,0,42.7,0,56c0,13.3,10.7,24,24,24c0,0,0.1,0,0.1,0h11l-3.5-3.5c-1.1-1.1-2-2.5-2.6-4
	c-0.1-0.2-0.1-0.3-0.2-0.5H24c-2.2,0-4.3-0.4-6.2-1.3C12,68.3,8,62.6,8,56c0-8.8,7.2-16,16-16h8.3C34.2,26.4,45.9,16,60,16
	c15.5,0,28,12.5,28,28c0,9.5-4.8,18-12,23c0,0.3,0,0.7,0,1c0,1.6-0.3,3.1-0.9,4.5c-0.6,1.5-1.5,2.8-2.6,4l-1.9,1.9
	C85.3,73.9,96,60.2,96,44C96,24.1,79.9,8,60,8z"/>
</svg>
