<?xml version="1.0" encoding="utf-8"?>
<!-- Generator: Adobe Illustrator 24.0.1, SVG Export Plug-In . SVG Version: 6.00 Build 0)  -->
<svg version="1.1" id="Layer_1" xmlns="http://www.w3.org/2000/svg" xmlns:xlink="http://www.w3.org/1999/xlink" x="0px" y="0px"
	 viewBox="0 0 96 96" style="enable-background:new 0 0 96 96;" xml:space="preserve">
<style type="text/css">
	.st0{fill:#091F42;}
</style>
<title>形状结合</title>
<desc>Created with Sketch.</desc>
<path class="st0" d="M79.1,8H16.9C12,8,8,12,8,16.9v62.2C8,84,12,88,16.9,88h62.2c4.9,0,8.9-4,8.9-8.9V16.9C88,12,84,8,79.1,8z
	 M22.8,57.5c-0.4,0.3-0.6,0.3-1,0.4c-0.8,0.1-1.4-0.3-2.3-1.2c0-0.1-0.1-0.2-0.2-0.3l-0.2-0.2L17.5,54c-1.1-1.5-0.7-2.5,0.9-3.8
	c0.3-0.2,0.7-0.6,1.3-1l0.4-0.3l12.2-9.2l3.1-2.3l-1.2-0.9c-1.1-0.8-2.3-1.8-3.7-2.8l-1.1-0.8l-4.2-3.1l-7-5.2
	c-1-0.8-1.3-1.7-0.8-2.9c0.6-1.1,1.6-2.6,2.4-3.6c1-1.2,2-1.3,3.3-0.5l0.4,0.3l17.8,13.5c1,0.8,1.8,1.4,2.3,1.8l0.3,0.2l0.8,0.7
	c2.2,2.1,1.7,4.8-1,7.2l-0.2,0.1l-0.2,0.2L23.6,56.9L22.8,57.5z M74.7,73.6c0,0.8-0.2,1-0.6,1.1l-0.2,0H43.4c-0.8,0-1-0.4-1-1l0-0.3
	v-5.7c0-0.8,0.1-1,0.9-1.1l0.3,0h29.6c1,0,1.3,0.1,1.4,0.7l0,0.2V73.6z"/>
</svg>
