<?xml version="1.0" encoding="utf-8"?>
<!-- Generator: Adobe Illustrator 17.0.0, SVG Export Plug-In . SVG Version: 6.00 Build 0)  -->
<!DOCTYPE svg PUBLIC "-//W3C//DTD SVG 1.1//EN" "http://www.w3.org/Graphics/SVG/1.1/DTD/svg11.dtd">
<svg version="1.1" id="Layer_1" xmlns="http://www.w3.org/2000/svg" xmlns:xlink="http://www.w3.org/1999/xlink" x="0px" y="0px"
	 width="96px" height="96px" viewBox="0 0 96 96" enable-background="new 0 0 96 96" xml:space="preserve">
<path d="M84,60c6.6,0,12-5.4,12-12s-5.4-12-12-12h-2c-0.4-1.2-0.9-2.4-1.5-3.5l1.5-1.4c4.7-4.7,4.7-12.3,0-17
	c-4.7-4.7-12.3-4.7-17,0l-1.4,1.5c-1.1-0.5-2.3-1-3.5-1.5v-2c0-6.6-5.4-12-12-12S36,5.4,36,12v2c-1.2,0.4-2.4,0.9-3.5,1.5L31,14.1
	c-4.7-4.7-12.3-4.7-17,0c-4.7,4.7-4.7,12.3,0,17l1.5,1.4c-0.5,1.1-1,2.3-1.5,3.5h-2C5.4,36,0,41.4,0,48s5.4,12,12,12h2
	c0.4,1.2,0.9,2.4,1.5,3.5L14.1,65c-4.7,4.7-4.7,12.3,0,17c4.7,4.7,12.3,4.7,17,0l1.4-1.5c1.1,0.5,2.3,1,3.5,1.5v2
	c0,6.6,5.4,12,12,12s12-5.4,12-12v-2c1.2-0.4,2.4-0.9,3.5-1.5l1.4,1.5c4.7,4.7,12.3,4.7,17,0c4.7-4.7,4.7-12.3,0-17l-1.5-1.4
	c0.5-1.1,1-2.3,1.5-3.5H84z M75.7,52c-0.7,4.7-2.5,9.1-5.3,12.8l5.7,5.7l0.2,0.2c1.6,1.6,1.6,4.1,0,5.7s-4.1,1.6-5.7,0l-0.2-0.2
	l-5.7-5.7c-3.7,2.7-8,4.6-12.8,5.3V84c0,2.2-1.8,4-4,4s-4-1.8-4-4v-8.3c-4.7-0.7-9.1-2.5-12.8-5.3l-5.7,5.7l-0.2,0.2
	c-1.6,1.6-4.1,1.6-5.7,0c-1.6-1.6-1.6-4.1,0-5.7l0.2-0.2l5.7-5.7c-2.7-3.7-4.6-8-5.3-12.8H12c-2.2,0-4-1.8-4-4s1.8-4,4-4h8.3
	c0.7-4.7,2.5-9.1,5.3-12.8l-5.7-5.7l-0.2-0.2c-1.6-1.6-1.6-4.1,0-5.7c1.6-1.6,4.1-1.6,5.7,0l0.2,0.2l5.7,5.7c3.7-2.7,8-4.6,12.8-5.3
	V12c0-2.2,1.8-4,4-4s4,1.8,4,4v8.3c4.7,0.7,9.1,2.5,12.8,5.3l5.7-5.7l0.2-0.2c1.6-1.6,4.1-1.6,5.7,0c1.6,1.6,1.6,4.1,0,5.7l-0.2,0.2
	l-5.7,5.7c2.7,3.7,4.6,8,5.3,12.8H84c2.2,0,4,1.8,4,4s-1.8,4-4,4H75.7z M48,32c-8.8,0-16,7.2-16,16s7.2,16,16,16s16-7.2,16-16
	S56.8,32,48,32z M48,56c-4.4,0-8-3.6-8-8s3.6-8,8-8s8,3.6,8,8S52.4,56,48,56z"/>
</svg>
