<?xml version="1.0" encoding="utf-8"?>
<!-- Generator: Adobe Illustrator 24.0.1, SVG Export Plug-In . SVG Version: 6.00 Build 0)  -->
<svg version="1.1" id="Layer_1" xmlns="http://www.w3.org/2000/svg" xmlns:xlink="http://www.w3.org/1999/xlink" x="0px" y="0px"
	 viewBox="0 0 96 96" style="enable-background:new 0 0 96 96;" xml:space="preserve">
<style type="text/css">
	.st0{fill:#091F42;}
</style>
<g>
	<circle class="st0" cx="45.9" cy="32.9" r="4"/>
	<path class="st0" d="M82,23L50,4.5c-1.2-0.7-2.8-0.7-4,0L14,23c-1.2,0.7-2,2-2,3.5v43c0,1.4,0.8,2.7,2,3.5l32,18.5
		c1.2,0.7,2.8,0.7,4,0L82,73c1.2-0.7,2-2,2-3.5v-43C84,25.1,83.2,23.8,82,23z M58,64c0,1.1-0.9,2-2,2h-5.6v6c0,1.1-0.9,2-2,2h-4
		c-1.1,0-2-0.9-2-2V44.4c-4.9-1.5-8.5-6.1-8.5-11.5c0-6.6,5.4-12,12-12s12,5.4,12,12c0,5-3.1,9.3-7.5,11.1v12H56c1.1,0,2,0.9,2,2V64
		z"/>
</g>
</svg>
