<?xml version="1.0" encoding="utf-8"?>
<!-- Generator: Adobe Illustrator 17.0.0, SVG Export Plug-In . SVG Version: 6.00 Build 0)  -->
<!DOCTYPE svg PUBLIC "-//W3C//DTD SVG 1.1//EN" "http://www.w3.org/Graphics/SVG/1.1/DTD/svg11.dtd">
<svg version="1.1" id="Layer_1" xmlns="http://www.w3.org/2000/svg" xmlns:xlink="http://www.w3.org/1999/xlink" x="0px" y="0px"
	 width="96px" height="96px" viewBox="0 0 96 96" enable-background="new 0 0 96 96" xml:space="preserve">
<path d="M53.7,48l25.2-25.2c1.6-1.6,1.6-4.1,0-5.7c-1.6-1.6-4.1-1.6-5.7,0L48,42.3L22.8,17.2c-1.6-1.6-4.1-1.6-5.7,0
	c-1.6,1.6-1.6,4.1,0,5.7L42.3,48L17.2,73.2c-1.6,1.6-1.6,4.1,0,5.7C18,79.6,19,80,20,80s2-0.4,2.8-1.2L48,53.7l25.2,25.2
	C74,79.6,75,80,76,80s2-0.4,2.8-1.2c1.6-1.6,1.6-4.1,0-5.7L53.7,48z"/>
</svg>
