<svg xmlns="http://www.w3.org/2000/svg" width="24" height="24" viewBox="0 0 24 24">
  <path fill="#526075" fill-rule="evenodd" d="M19.7810142,9.58425582 C19.9067156,9.53374078 20.0492893,9.54887916 20.1615803,9.62466401 C20.2738713,9.70044888 20.3412488,9.827006 20.3414283,9.9624777 L20.3414283,9.9624777 L20.3414283,17.4438909 C20.3354813,17.7446421 20.1555113,18.014597 19.8801821,18.1357602 L19.8801821,18.1357602 L13.5103722,20.9655056 C13.3848624,21.0208397 13.239896,21.0090414 13.1249856,20.9341402 C13.0100751,20.8592391 12.9407187,20.7313687 12.9407187,20.5942024 L12.9407187,20.5942024 L12.9407187,12.7530171 C12.9394586,12.4818332 13.1054366,12.2379097 13.358161,12.1395597 L13.358161,12.1395597 Z M3.87590415,9.64581141 C3.98691322,9.57026996 4.12797295,9.55415236 4.25316121,9.60270567 L4.25316121,9.60270567 L10.6783206,12.1395597 C10.9286378,12.2383508 11.0938374,12.4793049 11.0957484,12.7484047 L11.0957484,12.7484047 L11.0957484,20.5895899 C11.0948685,20.7269083 11.0250041,20.8545824 10.9098256,20.9293555 C10.7946472,21.0041286 10.649591,21.0159796 10.5238032,20.9608931 L10.5238032,20.9608931 L4.15860574,18.1219228 C3.88289111,18.001219 3.70273435,17.7309839 3.69735955,17.4300535 L3.69735955,17.4300535 L3.69735955,9.98092754 C3.69813568,9.84665573 3.76489507,9.72135285 3.87590415,9.64581141 Z M10.4216794,3.03108745 C10.533771,2.98141078 10.6633774,2.99176387 10.7661614,3.05860498 C10.8689454,3.12544613 10.9310296,3.23971509 10.9310296,3.36232129 L10.9310296,3.36232129 L10.9310296,6.39342341 C9.24931164,6.60389546 7.66574399,7.30118657 6.37500184,8.39957554 L6.37500184,8.39957554 L2.89079682,7.02464262 C2.75548928,6.96951506 2.66702857,6.8379531 2.66702857,6.69184636 C2.66702857,6.54573961 2.75548928,6.41417765 2.89079682,6.35905009 L2.89079682,6.35905009 Z M13.287257,3.07084939 C13.389685,3.00382863 13.5191836,2.99355491 13.6308978,3.04358684 L13.6308978,3.04358684 L21.130532,6.35905009 C21.2566365,6.42116287 21.3354595,6.55058453 21.3329115,6.69113052 C21.3301054,6.8316765 21.2464109,6.95800259 21.1180326,7.01526808 L21.1180326,7.01526808 L17.6682009,8.39957554 C16.3792312,7.30822222 14.8005504,6.61551358 13.1246432,6.4059228 L13.1246432,6.4059228 L13.1246432,3.37482068 C13.1235603,3.25241956 13.184829,3.13787015 13.287257,3.07084939 Z"/>
</svg>
