<?xml version="1.0" encoding="utf-8"?>
<!-- Generator: Adobe Illustrator 17.0.0, SVG Export Plug-In . SVG Version: 6.00 Build 0)  -->
<!DOCTYPE svg PUBLIC "-//W3C//DTD SVG 1.1//EN" "http://www.w3.org/Graphics/SVG/1.1/DTD/svg11.dtd">
<svg version="1.1" id="Layer_1" xmlns="http://www.w3.org/2000/svg" xmlns:xlink="http://www.w3.org/1999/xlink" x="0px" y="0px"
	 width="96px" height="96px" viewBox="0 0 96 96" enable-background="new 0 0 96 96" xml:space="preserve">
<g>
	<path d="M60,11.999c-15.673,0-28.998,10.02-33.942,24H24C10.746,35.999,0,46.744,0,60c0,13.255,10.746,24.001,24.001,24.001
		c0.026,0,0.051-0.002,0.077-0.002H60c19.882,0,36-16.118,36-36C96,28.117,79.882,11.999,60,11.999z M60,75.999H24
		c-8.836,0-16-7.163-16-16c0-8.837,7.164-16,16-16h8.298c1.942-13.566,13.599-24,27.702-24c15.464,0,28,12.536,28,28
		C88,63.463,75.464,75.999,60,75.999z"/>
	<path d="M72.538,45.038c-1.264,0-2.472,0.236-3.596,0.648l-4.464-4.914c0.597-1.292,0.939-2.724,0.939-4.237
		c0-5.596-4.553-10.149-10.149-10.149s-10.149,4.553-10.149,10.149c0,0.695,0.071,1.373,0.204,2.029L31.639,51.407
		C30.008,50.363,28.076,49.75,26,49.75c-5.79,0-10.5,4.71-10.5,10.5s4.71,10.5,10.5,10.5s10.5-4.71,10.5-10.5
		c0-0.758-0.085-1.496-0.238-2.209L49.97,45.174c1.545,0.951,3.356,1.51,5.299,1.51c1.146,0,2.244-0.2,3.272-0.551l4.501,4.955
		c-0.637,1.353-1.004,2.858-1.004,4.451c0,5.79,4.71,10.5,10.5,10.5s10.5-4.71,10.5-10.5S78.328,45.038,72.538,45.038z M26,62.75
		c-1.378,0-2.5-1.121-2.5-2.5s1.122-2.5,2.5-2.5s2.5,1.121,2.5,2.5S27.378,62.75,26,62.75z M55.269,38.684
		c-1.186,0-2.149-0.964-2.149-2.149s0.964-2.149,2.149-2.149s2.149,0.964,2.149,2.149S56.454,38.684,55.269,38.684z M72.538,58.038
		c-1.379,0-2.5-1.121-2.5-2.5s1.121-2.5,2.5-2.5s2.5,1.121,2.5,2.5S73.917,58.038,72.538,58.038z"/>
</g>
</svg>
