<?xml version="1.0" encoding="utf-8"?>
<!-- Generator: Adobe Illustrator 21.0.0, SVG Export Plug-In . SVG Version: 6.00 Build 0)  -->
<svg version="1.1" id="Layer_1" xmlns="http://www.w3.org/2000/svg" xmlns:xlink="http://www.w3.org/1999/xlink" x="0px" y="0px"
	 viewBox="0 0 96 96" style="enable-background:new 0 0 96 96;" xml:space="preserve">
<path d="M30.6,55.9c-2.8,0-5.2,2.3-5.2,5.2v5.2c0,2.8,2.3,5.2,5.2,5.2c2.8,0,5.2-2.3,5.2-5.2v-5.2C35.8,58.2,33.5,55.9,30.6,55.9z
	 M54,66.2V45.5c0-2.8-2.3-5.2-5.2-5.2c-2.8,0-5.2,2.3-5.2,5.2v20.7c0,2.8,2.3,5.2,5.2,5.2C51.6,71.4,54,69.1,54,66.2z M11.2,24.8
	h6.5v6.5c0,2.1,1.8,3.9,3.9,3.9c2.1,0,3.9-1.8,3.9-3.9v-6.5h6.5c2.1,0,3.9-1.8,3.9-3.9c0-2.1-1.8-3.9-3.9-3.9h-6.5v-6.5
	c0-2.1-1.8-3.9-3.9-3.9c-2.1,0-3.9,1.8-3.9,3.9V17h-6.5c-2.1,0-3.9,1.8-3.9,3.9C7.3,23,9.1,24.8,11.2,24.8L11.2,24.8z M72.1,66.2V30
	c0-2.8-2.3-5.2-5.2-5.2c-2.8,0-5.2,2.3-5.2,5.2v36.3c0,2.8,2.3,5.2,5.2,5.2C69.8,71.4,72.1,69.1,72.1,66.2z M76,6.7H44.9
	c-2.1,0-3.9,1.8-3.9,3.9c0,2.1,1.8,3.9,3.9,3.9H76c3.6,0,6.5,2.8,6.5,6.5l0,54.4c0,3.6-2.8,6.5-6.5,6.5H21.6c-3.6,0-6.5-2.8-6.5-6.5
	V44.2c0-2.1-1.8-3.9-3.9-3.9c-2.1,0-3.9,1.8-3.9,3.9v31.1c0,7.8,6.5,14.2,14.2,14.2H76c7.8,0,14.2-6.5,14.2-14.2V20.9
	C90.2,13.1,83.7,6.7,76,6.7L76,6.7L76,6.7z"/>
</svg>
