<?xml version="1.0" encoding="utf-8"?>
<!-- Generator: Adobe Illustrator 17.0.0, SVG Export Plug-In . SVG Version: 6.00 Build 0)  -->
<!DOCTYPE svg PUBLIC "-//W3C//DTD SVG 1.1//EN" "http://www.w3.org/Graphics/SVG/1.1/DTD/svg11.dtd">
<svg version="1.1" id="Layer_1" xmlns="http://www.w3.org/2000/svg" xmlns:xlink="http://www.w3.org/1999/xlink" x="0px" y="0px"
	 width="96px" height="96px" viewBox="0 0 96 96" enable-background="new 0 0 96 96" xml:space="preserve">
<path d="M48,92c-5.6,0-11-1-16.2-3.1c-5-2-9.5-4.8-13.5-8.4C10.3,73.2,5.3,63.2,4.2,52.4C4,50.2,5.6,48.2,7.8,48
	c2.2-0.2,4.2,1.4,4.4,3.6c0.9,8.8,5,17,11.6,23c3.2,3,7,5.3,11,6.9C39,83.2,43.4,84,48,84c4.9,0,9.6-1,14-2.8c2.1-0.9,4.2-2,6.1-3.3
	c1.9-1.3,3.7-2.8,5.3-4.4c1.6-1.6,3.1-3.4,4.4-5.3c1.3-1.9,2.4-4,3.3-6.1C83,57.6,84,52.9,84,48c0-4.6-0.8-9-2.5-13.2
	c-1.6-4.1-3.9-7.8-6.9-11c-6-6.6-14.2-10.7-23-11.6C49.4,12,47.8,10,48,7.8c0.2-2.2,2.2-3.8,4.4-3.6c10.8,1.1,20.8,6.1,28.1,14.2
	c3.6,4,6.4,8.5,8.4,13.5C91,37,92,42.4,92,48c0,5.9-1.2,11.7-3.5,17.1c-1.1,2.6-2.5,5.1-4.1,7.5c-1.6,2.3-3.4,4.5-5.4,6.5
	c-2,2-4.2,3.8-6.5,5.4c-2.4,1.6-4.9,3-7.5,4.1C59.7,90.8,53.9,92,48,92z M50.8,45.2L17.7,12H32c2.2,0,4-1.8,4-4c0-2.2-1.8-4-4-4H8
	C5.8,4,4,5.8,4,8v24c0,2.2,1.8,4,4,4c2.2,0,4-1.8,4-4V17.7l33.2,33.2C46,51.6,47,52,48,52s2-0.4,2.8-1.2
	C52.4,49.3,52.4,46.7,50.8,45.2z"/>
</svg>
