<?xml version="1.0" encoding="utf-8"?>
<!-- Generator: Adobe Illustrator 21.0.0, SVG Export Plug-In . SVG Version: 6.00 Build 0)  -->
<svg version="1.1" id="Layer_1" xmlns="http://www.w3.org/2000/svg" xmlns:xlink="http://www.w3.org/1999/xlink" x="0px" y="0px"
	 viewBox="0 0 96 96" style="enable-background:new 0 0 96 96;" xml:space="preserve">
<path d="M36.6,89c-1.8,0-3-1.2-3-3V73.2h-8.9c-1.8,0-3-1.2-3-3V56.7l-7.3-3.5c-0.8-0.4-1.3-1.4-1.5-1.7v-0.1v-0.1
	c-0.3-0.9-0.3-1.7,0.1-2.4l4.9-10.5V38C17.8,19.1,32,3.5,49.5,3.5c17.4,0,31.7,15.7,31.8,34.9c0,11.5-5.2,22.2-13.9,28.7V86
	c0,1.7-1.3,3-3,3H36.6z M61.4,82.8V65.4c0-1,0.4-1.9,1.2-2.4l0.8-0.6c7.5-5.3,11.9-14.3,11.9-24c0-15.8-11.6-28.7-25.8-28.7
	c-6.4,0-12.5,2.6-17.2,7.4c-5.4,5.5-8.5,13.2-8.5,21.3v1c0,0.3,0,0.9-0.3,1.3l-4,8.3l6.4,3c1.2,0.6,1.8,1.5,1.8,2.7V67h8.9
	c1.7,0,3,1.3,3,3v12.8H61.4z"/>
<path d="M55.3,41.2c-3.3,0-6-2.7-6-6c0-0.5,0-0.9,0.1-1.3l-4.7-4.7c-0.4,0.1-0.9,0.2-1.3,0.2c-0.9,0-1.7-0.2-2.5-0.6l-4.7,4.7
	c0.2,0.6,0.4,1.1,0.4,1.8c0,2.8-2.2,5-5,5s-5-2.2-5-5s2.2-5,5-5c0.7,0,1.3,0.1,1.8,0.4l4.7-4.7c-0.4-0.8-0.6-1.6-0.6-2.5
	c0-3.3,2.7-6,6-6s6,2.7,6,6c0,1.3-0.4,2.6-1.2,3.6l3.5,3.5c1-0.8,2.3-1.2,3.6-1.2s2.6,0.5,3.7,1.3l2.3-2.2c-0.6-0.8-1-1.9-1-3
	c0-2.8,2.2-5,5-5c2.8,0,4.8,2,4.8,4.7c0,2.8-2.2,5-5,5H65L61.1,34c0.1,0.4,0.2,0.8,0.2,1.2C61.3,38.6,58.7,41.2,55.3,41.2z
	 M31.7,34.2c-0.6,0-1,0.4-1,1s0.4,1,1,1c0.6,0,0.9-0.4,1-1.1C32.7,34.6,32.3,34.2,31.7,34.2z M65.4,24.3c-0.6,0-1,0.4-1,1s0.4,1,1,1
	s1-0.4,1-1S66,24.3,65.4,24.3z"/>
</svg>
