<?xml version="1.0" encoding="utf-8"?>
<!-- Generator: Adobe Illustrator 21.0.0, SVG Export Plug-In . SVG Version: 6.00 Build 0)  -->
<svg version="1.1" id="Layer_1" xmlns="http://www.w3.org/2000/svg" xmlns:xlink="http://www.w3.org/1999/xlink" x="0px" y="0px"
	 viewBox="0 0 96 96" style="enable-background:new 0 0 96 96;" xml:space="preserve">
<style type="text/css">
	.st0{fill:#231815;}
</style>
<g>
	<path class="st0" d="M55.8,25c-2.1-0.7-4.4,0.5-5,2.6c-0.7,2.1,0.5,4.4,2.6,5c5.5,1.8,9.5,6.7,10.2,12.4c0.5,4-0.6,7.9-3.1,11
		s-6,5.1-10,5.6c-7.4,0.9-14.5-3.9-16.3-11.1c-0.5-2.1-2.7-3.4-4.9-2.9c-2.1,0.5-3.4,2.7-2.9,4.9C29,62.7,38.3,69.8,48.6,69.8
		c0.9,0,1.9-0.1,2.8-0.2c6.1-0.7,11.5-3.8,15.3-8.6s5.4-10.8,4.7-16.9C70.4,35.3,64.2,27.8,55.8,25z"/>
	<path class="st0" d="M48.4,4.1c-24,0-43.6,19.5-43.6,43.6s19.5,43.6,43.6,43.6c2.2,0,4.5-0.2,6.7-0.5s3.7-2.4,3.3-4.6
		c-0.3-2.2-2.4-3.7-4.6-3.3c-1.8,0.3-3.6,0.4-5.5,0.4c-19.6,0-35.6-16-35.6-35.6s16-35.6,35.6-35.6C68,12.1,84,28.1,84,47.7
		c0,2.2-0.2,4.3-0.6,6.4c-0.4,2.2,1,4.3,3.2,4.7s4.3-1,4.7-3.2c0.5-2.6,0.7-5.2,0.7-7.9C92,23.7,72.5,4.1,48.4,4.1z"/>
</g>
</svg>
