<?xml version="1.0" encoding="utf-8"?>
<!-- Generator: Adobe Illustrator 21.0.0, SVG Export Plug-In . SVG Version: 6.00 Build 0)  -->
<svg version="1.1" id="Layer_1" xmlns="http://www.w3.org/2000/svg" xmlns:xlink="http://www.w3.org/1999/xlink" x="0px" y="0px"
	 viewBox="0 0 96 96" style="enable-background:new 0 0 96 96;" xml:space="preserve">
<path d="M48.5,4.1C23.9,4.1,3.9,24,3.9,48.6c0,19.8,12.8,36.4,30.5,42.3c2.2,0.4,3-0.9,3-2.1c0-1.1,0-4.6,0-8.3
	c-11.1,2.1-14.1-2.7-15-5.3c-0.5-1.3-2.7-5.3-4.6-6.3c-1.5-0.8-3.8-2.9,0-2.9c3.5,0,6,3.3,6.8,4.6c4,6.7,10.4,4.8,13,3.6
	c0.4-2.9,1.5-4.8,2.8-6c-10-1.2-20.3-4.9-20.3-22c0-4.8,1.8-8.9,4.6-12c-0.5-1.2-2-5.6,0.5-11.8c0,0,3.8-1.2,12.3,4.6
	c3.5-1.1,7.4-1.5,11.1-1.5s7.6,0.5,11.1,1.5c8.6-5.7,12.3-4.6,12.3-4.6c2.5,6.1,0.9,10.7,0.5,11.8c2.8,3.2,4.6,7,4.6,12
	c0,17.1-10.4,20.9-20.3,22c1.6,1.4,3,4.1,3,8.2c0,6,0,10.8,0,12.2c0,1.2,0.8,2.6,3,2.1c17.8-5.9,30-22.9,30-42.1
	C93,24,73.1,4.1,48.5,4.1z"/>
</svg>
