<?xml version="1.0" encoding="utf-8"?>
<!-- Generator: Adobe Illustrator 17.0.0, SVG Export Plug-In . SVG Version: 6.00 Build 0)  -->
<!DOCTYPE svg PUBLIC "-//W3C//DTD SVG 1.1//EN" "http://www.w3.org/Graphics/SVG/1.1/DTD/svg11.dtd">
<svg version="1.1" id="Layer_1" xmlns="http://www.w3.org/2000/svg" xmlns:xlink="http://www.w3.org/1999/xlink" x="0px" y="0px"
	 width="96px" height="96px" viewBox="0 0 96 96" enable-background="new 0 0 96 96" xml:space="preserve">
<path d="M79.879,40.656C78.605,22.641,66.895,12,48,12c-22.925,0-30.573,17.169-31.811,28.631C11.437,42.229,8,46.716,8,52v16
	c0,6.617,5.383,12,12,12s12-5.383,12-12V52c0-5.099-3.202-9.453-7.696-11.188c0.361-2.409,1.152-5.861,2.887-9.247
	C31.124,23.891,38.125,20,48,20c17.9,0,23.036,10.628,23.869,20.748C67.284,42.437,64,46.837,64,52v16c0,6.617,5.383,12,12,12
	s12-5.383,12-12V52C88,46.742,84.596,42.273,79.879,40.656z M24,68c0,2.206-1.794,4-4,4s-4-1.794-4-4V52c0-2.206,1.794-4,4-4
	s4,1.794,4,4V68z M80,68c0,2.206-1.794,4-4,4s-4-1.794-4-4V52c0-2.206,1.794-4,4-4s4,1.794,4,4V68z"/>
</svg>
