<?xml version="1.0" encoding="utf-8"?>
<!-- Generator: Adobe Illustrator 24.0.1, SVG Export Plug-In . SVG Version: 6.00 Build 0)  -->
<svg version="1.1" id="Layer_1" xmlns="http://www.w3.org/2000/svg" xmlns:xlink="http://www.w3.org/1999/xlink" x="0px" y="0px"
	 viewBox="0 0 96 96" style="enable-background:new 0 0 96 96;" xml:space="preserve">
<style type="text/css">
	.st0{fill-rule:evenodd;clip-rule:evenodd;fill:#0F1F3F;}
</style>
<path class="st0" d="M75,58c0,0.6-0.4,1-1,1H22c-0.6,0-1-0.4-1-1v-6H8c-2.1,0-3.9-1.7-4-3.8L4,48V19c0-2.2,1.8-4,4-4h13V9
	c0-0.6,0.4-1,1-1h52c0.6,0,1,0.4,1,1v20c0,0.6-0.4,1-1,1H22c-0.6,0-1-0.4-1-1v-6h-9v21h9v-6c0-0.6,0.4-1,1-1h52c0.6,0,1,0.4,1,1v6
	h13c2.1,0,3.9,1.7,4,3.8l0,0.2v29c0,2.2-1.8,4-4,4H75v6c0,0.6-0.4,1-1,1H22c-0.6,0-1-0.4-1-1V67c0-0.6,0.4-1,1-1h52c0.6,0,1,0.4,1,1
	v6h9V52h-9V58z"/>
</svg>
