<?xml version="1.0" encoding="utf-8"?>
<!-- Generator: Adobe Illustrator 17.0.0, SVG Export Plug-In . SVG Version: 6.00 Build 0)  -->
<!DOCTYPE svg PUBLIC "-//W3C//DTD SVG 1.1//EN" "http://www.w3.org/Graphics/SVG/1.1/DTD/svg11.dtd">
<svg version="1.1" id="Layer_1" xmlns="http://www.w3.org/2000/svg" xmlns:xlink="http://www.w3.org/1999/xlink" x="0px" y="0px"
	 width="96px" height="96px" viewBox="0 0 96 96" enable-background="new 0 0 96 96" xml:space="preserve">
<path d="M44.205,3.36L23.908,3.402c-4.531-0.061-8.067,1.188-10.632,3.716c-3.296,3.25-3.651,7.409-3.651,9.046V79.64
	c0,7.168,5.631,13,12.553,13H77.25h7.409h0.591V3.36H44.205z M46.833,11.354l13.315-0.028v25.309l-4.731-4.339
	c-1.146-1.052-2.906-1.053-4.053-0.002l-4.531,4.148V11.354z M77.25,84.64H22.178c-2.511,0-4.553-2.243-4.553-5s2.042-5,4.553-5
	H77.25V84.64z M77.25,66.64H22.178c-1.607,0-3.139,0.326-4.553,0.898V16.164c0-0.351,0.062-2.159,1.269-3.349
	c0.983-0.97,2.655-1.443,4.966-1.413l16.974-0.035v31.89c0,1.189,0.702,2.267,1.791,2.746c1.09,0.48,2.358,0.271,3.234-0.533
	l7.529-6.893l7.733,7.093c0.564,0.518,1.291,0.789,2.028,0.789c0.407,0,0.818-0.083,1.207-0.254
	c1.089-0.479,1.792-1.556,1.792-2.746V11.314l11.102-0.023V66.64z"/>
</svg>
