<?xml version="1.0" encoding="utf-8"?>
<!-- Generator: Adobe Illustrator 21.0.0, SVG Export Plug-In . SVG Version: 6.00 Build 0)  -->
<svg version="1.1" id="Layer_1" xmlns="http://www.w3.org/2000/svg" xmlns:xlink="http://www.w3.org/1999/xlink" x="0px" y="0px"
	 viewBox="0 0 96 70.4" style="enable-background:new 0 0 96 70.4;" xml:space="preserve">
<style type="text/css">
	.st0{fill:none;stroke:#000000;stroke-width:8;stroke-linecap:round;stroke-linejoin:round;stroke-miterlimit:10;}
</style>
<path class="st0" d="M68,25.4"/>
<g>
	<path d="M89.6,0H6.4C2.9,0,0,2.9,0,6.4v44.8c0,3.5,2.9,6.4,6.4,6.4h11.8l-0.6,12.8l16.6-12.8h55.4c3.5,0,6.4-2.9,6.4-6.4V6.4
		C96,2.9,93.1,0,89.6,0z M35.5,40.6h-5.1v-9.9h-9.6v9.9h-5.1V17.9h5.1v8.3h9.6v-8.3h5.1V40.6z M62.4,34.2c-0.6,1.6-1.6,2.9-2.6,3.8
		c-1,1-2.2,1.9-3.8,2.2c-1.6,0.6-3.2,1-4.8,1c-1.6,0-3.5-0.3-4.8-1c-1.6-0.6-2.9-1.3-3.8-2.2c-1-1-1.9-2.2-2.6-3.8
		c-0.6-1.6-1-3.2-1-4.8c0-1.9,0.3-3.5,1-4.8c0.6-1.3,1.6-2.9,2.6-3.8c1-1,2.2-1.9,3.8-2.2c1.6-0.3,3.2-1,4.8-1c1.6,0,3.5,0.3,4.8,1
		s2.9,1.3,3.8,2.2c1,1,1.9,2.2,2.6,3.8c0.6,1.6,1,3.2,1,4.8C63.4,31.4,63,33,62.4,34.2z M82.6,22.4h-6.4v18.2H71V22.4h-6.4v-4.5
		h17.9V22.4z"/>
	<path d="M56.3,24.3c-0.6-0.6-1.3-1.3-2.2-1.6c-1-0.3-1.9-0.6-2.9-0.6c-1,0-1.9,0.3-2.9,0.6c-1,0.3-1.6,1-2.2,1.6
		c-0.6,0.6-1,1.3-1.3,2.2c-0.3,1-0.6,1.9-0.6,2.9c0,1,0.3,1.9,0.6,2.9c0.3,1,1,1.6,1.3,2.2s1.3,1.3,2.2,1.6c1,0.3,1.9,0.6,2.9,0.6
		c1,0,1.9-0.3,2.9-0.6c1-0.3,1.6-1,2.2-1.6s1-1.3,1.3-2.2c0.3-1,0.6-1.9,0.6-2.9c0-1-0.3-1.9-0.6-2.9C57.3,25.6,57,25,56.3,24.3z"/>
</g>
</svg>
