<?xml version="1.0" encoding="utf-8"?>
<!-- Generator: Adobe Illustrator 21.0.0, SVG Export Plug-In . SVG Version: 6.00 Build 0)  -->
<svg version="1.1" id="图层_1" xmlns="http://www.w3.org/2000/svg" xmlns:xlink="http://www.w3.org/1999/xlink" x="0px" y="0px"
	 viewBox="0 0 96 96" style="enable-background:new 0 0 96 96;" xml:space="preserve">
<g>
	<path d="M71.6,50.6L71.6,50.6c-0.1-10.4,8.9-15.4,9.3-15.7c-5.1-7.1-13-8-15.8-8.2c-6.7-0.6-13.1,3.8-16.5,3.8
		c-3.4,0-8.7-3.7-14.2-3.6C27,27.1,20.3,31,16.5,37.3C8.9,49.9,14.5,68.5,22,78.7c3.6,5,8,10.6,13.6,10.4c5.5-0.2,7.5-3.4,14.1-3.4
		c6.6,0,8.5,3.4,14.2,3.3c5.9-0.1,9.6-5.1,13.2-10.1c4.2-5.8,5.9-11.4,6-11.7C83,67.2,71.7,63,71.6,50.6z"/>
	<path d="M60.7,20c3-3.5,5-8.3,4.5-13.1c-4.3,0.2-9.6,2.8-12.7,6.2c-2.8,3.1-5.2,8-4.6,12.7C52.7,26.2,57.7,23.5,60.7,20z"/>
</g>
<path d="M47.9,25.8"/>
</svg>
