<svg id="图层_1" data-name="图层 1" xmlns="http://www.w3.org/2000/svg" viewBox="0 0 96 96"><defs><style>.cls-1{fill:#091f42;}</style></defs><title>0609 产品图标补全</title><path class="cls-1" d="M77.51,7.52a4,4,0,0,0-4-3.52H22.46a4,4,0,0,0-4,3.52L12.25,58.94a.42.42,0,0,0,.75.29,3.88,3.88,0,0,1,3-1.47H80a3.85,3.85,0,0,1,3,1.48.42.42,0,0,0,.75-.3ZM44,41.92a2,2,0,0,1-2,2H40a2,2,0,0,1-2-2v-15L34.93,30a2,2,0,0,1-2.83,0l-1.41-1.42a2,2,0,0,1,0-2.83l8.21-8.21a3,3,0,0,1,3.78-.38A3.15,3.15,0,0,1,44,19.86Zm21.31-7.09L57.11,43a3,3,0,0,1-3.78.38A3.17,3.17,0,0,1,52,40.77V18.7a2,2,0,0,1,2-2h2a2,2,0,0,1,2,2v15l3.1-3.09a2,2,0,0,1,2.82,0L65.33,32A2,2,0,0,1,65.33,34.83Z"/><path class="cls-1" d="M80,66H16a4,4,0,0,0-4,4V88a4,4,0,0,0,4,4H80a4,4,0,0,0,4-4V70A4,4,0,0,0,80,66ZM28,84a5,5,0,1,1,5-5A5,5,0,0,1,28,84Zm20,0a5,5,0,1,1,5-5A5,5,0,0,1,48,84Zm20,0a5,5,0,1,1,5-5A5,5,0,0,1,68,84Z"/></svg>