<?xml version="1.0" encoding="utf-8"?>
<!-- Generator: Adobe Illustrator 24.0.1, SVG Export Plug-In . SVG Version: 6.00 Build 0)  -->
<svg version="1.1" id="Layer_1" xmlns="http://www.w3.org/2000/svg" xmlns:xlink="http://www.w3.org/1999/xlink" x="0px" y="0px"
	 viewBox="0 0 96 96" style="enable-background:new 0 0 96 96;" xml:space="preserve">
<style type="text/css">
	.st0{fill:#091F42;}
</style>
<path class="st0" d="M75.3,32.3c-1.5-14.8-14-26.4-29.3-26.4c-16.2,0-29.4,13.2-29.4,29.4c0,1,0.1,2.1,0.2,3.1C9.1,43.4,4,52.1,4,62
	c0,15.5,12.6,28.1,28.1,28.1c5.2,0,23.9,0,29.3,0C78.3,90.1,92,76.4,92,59.5C92,47.7,85.2,37.4,75.3,32.3z M66.7,70.8
	c-2.9,0-5.4-1.6-6.6-4H37.9c-1.3,2.4-3.8,4-6.6,4c-4.1,0-7.5-3.4-7.5-7.5c0-4,3.2-7.3,7.1-7.5L40,37c-0.9-1.2-1.5-2.8-1.5-4.4
	c0-4.1,3.4-7.5,7.5-7.5s7.5,3.4,7.5,7.5c0,4-3.2,7.3-7.2,7.5l-9,18.8c0.2,0.3,0.5,0.7,0.7,1h22.2c1.3-2.4,3.8-4,6.6-4
	c4.1,0,7.5,3.4,7.5,7.5C74.2,67.5,70.9,70.8,66.7,70.8z"/>
</svg>
