<?xml version="1.0" encoding="utf-8"?>
<!-- Generator: Adobe Illustrator 21.0.0, SVG Export Plug-In . SVG Version: 6.00 Build 0)  -->
<svg version="1.1" id="Layer_1" xmlns="http://www.w3.org/2000/svg" xmlns:xlink="http://www.w3.org/1999/xlink" x="0px" y="0px"
	 viewBox="0 0 96 96" style="enable-background:new 0 0 96 96;" xml:space="preserve">
<g>
	<path d="M37.2,67.7l-2.4,2.1c0,0,6.9,6.4,25,1L53,69.1C42.8,71.3,38.1,68.3,37.2,67.7z"/>
	<path d="M59.2,60.9c0,0-8.4,2-19.7,1.7c-4.8-0.1-3.1-3.4-3.1-3.4c-1.2,0.7-5,3.9,0.5,5.5c8.8,2.2,24-1.3,24-1.3
		C60.9,63.1,59.2,60.9,59.2,60.9z"/>
	<path d="M36.6,57.3c12.7,0.4,26.8-3.7,26.8-3.7s-21.9,1.7-23.6,1.7c-12-0.3-0.8-4.3-0.8-4.3S19.7,55.6,36.6,57.3z"/>
	<path d="M71.3,53.3c1,1.6,0.9,3.4-0.1,4.8c-1.2,1.6-2.6,2.9-4,4c-0.9,0.9-2.2,1.4-3.5,2.4c3.5-0.3,8.6-3,10.3-5.6
		c2.4-3.3,1-7.4-2.9-8.4c-2.7-0.3-5,0.3-5,0.3s-0.7,0.4-0.9,0.7C65.8,51.5,70.2,51.6,71.3,53.3z"/>
	<path d="M47.7,50.5c0.1-0.1,0.3-0.3,0.4-0.3c-1.3-2.1-2.6-4-3.9-6c-2.7-4.2-2.5-7.7,0.9-11.4c1.6-1.6,3.3-2.9,4.8-4.3
		c3.4-2.9,6.4-6,7.4-10.6c0.7-2.6,0.3-5.2-1.7-7.3c1,4.7-0.5,8.6-3.8,11.9c-1.2,1.2-2.6,2.1-3.8,3.3c-2.9,2.6-5.9,5.1-8.5,7.8
		c-1.7,1.6-1.6,3.8-0.8,6C40.6,44.4,44.5,47.3,47.7,50.5z"/>
	<path d="M49.7,33.9c-2.4,3.4-1.8,6.9,1.3,11c2.6,3.3,2.6,4,0.5,7.4c0,0.1,0,0.3,0.1,0.9c1.6-1.7,3.1-2.9,4.2-4.4c1.3-2,1.3-4-0.1-6
		c-0.7-0.9-1.3-1.8-2-2.9c-1.6-2.5-1.6-4.2,0.3-6.4c1.2-1.3,2.6-2.6,4-3.7c2-1.4,4-2.7,6.4-4.3c-0.7,0-0.9,0-1-0.1
		c-3.1,1.4-6.4,2.7-9.4,4.4C52.3,30.8,50.8,32.4,49.7,33.9z"/>
	<path d="M75.2,77.8c-29,8.4-43.6,4.3-43.6,4.3s6.3,5.2,21.8,2.2C59.1,83.3,69.4,80.3,75.2,77.8z"/>
	<path d="M62.2,78.9c8.1-1,10.2-4.2,8.9-5.4c-0.1,2.2-14.9,4.6-20.6,4.7c-6,0.3-12.1-0.3-18.2-0.5c-8.5-0.3-2.4-3.9-0.1-4.8
		c-3.3-0.5-11.5,1-11.4,4.2C20.8,78.1,18.6,83.3,62.2,78.9z"/>
</g>
</svg>
