<?xml version="1.0" encoding="utf-8"?>
<!-- Generator: Adobe Illustrator 21.0.0, SVG Export Plug-In . SVG Version: 6.00 Build 0)  -->
<svg version="1.1" id="Layer_1" xmlns="http://www.w3.org/2000/svg" xmlns:xlink="http://www.w3.org/1999/xlink" x="0px" y="0px"
	 viewBox="0 0 96 96" style="enable-background:new 0 0 96 96;" xml:space="preserve">
<g>
	<g>
		<path d="M85.3,67.8v17.5c0-0.1,0.1-0.2,0.2-0.2H10.1c0.1,0,0.2,0.1,0.2,0.2V9.8c0,0.1-0.1,0.2-0.2,0.2h22.5c1.7,0,3-1.3,3-3
			c0-1.7-1.3-3-3-3H10.1C6.9,4,4.3,6.6,4.3,9.8v75.4c0,3.2,2.6,5.8,5.8,5.8h75.4c3.2,0,5.8-2.6,5.8-5.8V62.7c0-1.7-1.3-3-3-3
			c-1.7,0-3,1.3-3,3V67.8z M85.3,14.7v32.8c0,1.7,1.3,3,3,3c1.7,0,3-1.3,3-3V9.8c0-3.2-2.6-5.8-5.8-5.8H47.8c-1.7,0-3,1.3-3,3
			c0,1.7,1.3,3,3,3h33.7L42.7,48.8c-1.2,1.2-1.2,3.1,0,4.2c1.2,1.2,3.1,1.2,4.2,0L85.3,14.7z M85.3,14.7"/>
	</g>
</g>
</svg>
