<?xml version="1.0" encoding="utf-8"?>
<!-- Generator: Adobe Illustrator 22.1.0, SVG Export Plug-In . SVG Version: 6.00 Build 0)  -->
<svg version="1.1" id="Layer_1" xmlns="http://www.w3.org/2000/svg" xmlns:xlink="http://www.w3.org/1999/xlink" x="0px" y="0px"
	 viewBox="0 0 96 96" style="enable-background:new 0 0 96 96;" xml:space="preserve">
<path d="M81,36.9c-0.1-1.5-1.3-2.6-2.7-2.6v0h0c0,0-0.1,0-0.1,0c0,0,0,0-0.1,0L60.5,34l12-26.1l0,0c0.2-0.4,0.3-0.8,0.3-1.2
	c0-0.7-0.3-1.4-0.9-1.9S70.6,4,69.8,4c0,0,0,0-0.1,0l-32,0c0,0-0.1,0-0.1,0c-1.1,0-2,0.7-2.4,1.7v0l0,0c0,0,0,0.1-0.1,0.1L15.3,52.4
	c-0.2,0.4-0.2,0.8-0.2,1.2c0.1,1.5,1.3,2.7,2.9,2.7l0,0c0,0,0,0,0.1,0h21.1l-7.5,32.4l0,0c0,0.2-0.1,0.5-0.1,0.7
	c0.1,1.5,1.3,2.7,2.9,2.7c0.8,0,1.5-0.4,2-1l43.8-52.1c0,0,0.1-0.1,0.1-0.1l0,0h0C80.7,38.2,81,37.5,81,36.9z M39.5,78.7l5.7-24.7
	l0,0c0.1-0.2,0.1-0.5,0.1-0.7c-0.1-1.5-1.3-2.7-2.9-2.7c0,0,0,0-0.1,0H22L39.6,9.5l26.1,0L53.7,35.6l0,0c-0.2,0.4-0.3,0.8-0.3,1.2
	c0.1,1.5,1.3,2.6,2.7,2.6h0c0,0,0.1,0,0.1,0c0,0,0,0,0.1,0l15.9,0.2L39.5,78.7z"/>
</svg>
