<?xml version="1.0" encoding="utf-8"?>
<!-- Generator: Adobe Illustrator 17.0.0, SVG Export Plug-In . SVG Version: 6.00 Build 0)  -->
<!DOCTYPE svg PUBLIC "-//W3C//DTD SVG 1.1//EN" "http://www.w3.org/Graphics/SVG/1.1/DTD/svg11.dtd">
<svg version="1.1" id="图层_1" xmlns="http://www.w3.org/2000/svg" xmlns:xlink="http://www.w3.org/1999/xlink" x="0px" y="0px"
	 width="595.28px" height="595.28px" viewBox="0 0 595.28 595.28" enable-background="new 0 0 595.28 595.28" xml:space="preserve">
<g>
	<g>
		<path fill="#0D0E10" d="M514.948,88.782l0.055,302.659c0.011,57.174-29.683,87.134-48.75,105.542
			c-36.43,35.17-88.504,55.691-150.575,55.701c-61.808,0.008-118.919-28.301-143.213-50.434
			c-21.727-19.788-54.871-53.129-54.881-115.436l-0.035-175.174l44.078-0.008l-0.1-44.736l44.454,0.18l-0.007-43.628l44.501-0.366
			l0.048,262.683c0,59.827,41.922,68.271,65.738,68.267c23.01-0.003,66.198-12.182,66.198-66.738l-0.303-298.513H514.948z"/>
	</g>
	<path fill="#0D0E10" d="M148.181,168.65l0.005,28.513l-28.885,0.003l-0.005-28.512L148.181,168.65z"/>
	<rect x="171.17" y="42.597" fill="#0D0E10" width="20.077" height="19.818"/>
	<path fill="#0D0E10" d="M192.154,124.752l0.004,28.51l-28.884,0.005l-0.004-28.511L192.154,124.752z M207.719,79.232l0.005,28.51
		l28.885-0.005l-0.005-28.51L207.719,79.232z M166.016,84.614l0.002,24.752l25.078-0.004l-0.002-24.751L166.016,84.614z
		 M121.665,128.887l0.005,24.755l25.078-0.004l-0.005-24.755L121.665,128.887z M82.901,131.646l0.003,19.817l20.08-0.003
		l-0.004-19.818L82.901,131.646z M127.158,86.371l0.005,19.818l20.08-0.003l-0.005-19.818L127.158,86.371z M171.168,42.599
		l0.004,19.818l20.077-0.003l-0.004-19.818L171.168,42.599z M84.892,89.381l0.003,15.452l15.656-0.002l-0.003-15.452L84.892,89.381z
		 M129.652,44.859l0.003,15.45l15.657-0.003l-0.004-15.45L129.652,44.859z M87.389,46.867l0.002,10.077l10.211-0.002l-0.001-10.076
		L87.389,46.867z"/>
</g>
</svg>
