<?xml version="1.0" encoding="utf-8"?>
<!-- Generator: Adobe Illustrator 19.0.0, SVG Export Plug-In . SVG Version: 6.00 Build 0)  -->
<svg version="1.1" id="Layer_1" xmlns="http://www.w3.org/2000/svg" xmlns:xlink="http://www.w3.org/1999/xlink" x="0px" y="0px"
	 viewBox="-462 150.9 96 96" style="enable-background:new -462 150.9 96 96;" xml:space="preserve">
<g id="XMLID_16_">
	<path id="XMLID_41_" d="M-429.3,203.3l0.4,3.2c-1.4,0.5-3.3,0.7-5.5,0.7c-2.6,0-4.5-0.6-5.5-1.9c-1.1-1.3-1.6-3.4-1.6-6.5
		c0-3.1,0.5-5.3,1.6-6.5c1.1-1.3,2.9-1.9,5.5-1.9c2,0,3.7,0.2,5.1,0.6l-0.3,3.3c-1.6,0-3.2-0.1-4.8-0.1c-1,0-1.6,0.3-2,1
		c-0.3,0.6-0.5,1.9-0.5,3.7c0,1.8,0.2,3.1,0.5,3.7c0.3,0.6,1,1,2,1C-432.1,203.5-430.4,203.4-429.3,203.3z"/>
	<path id="XMLID_38_" d="M-407.9,190.3c1.9,0,3.3,0.2,4.3,0.7c1,0.5,1.8,1.4,2.3,2.6c0.5,1.2,0.7,2.9,0.7,5.2c0,2.2-0.2,3.9-0.7,5.2
		c-0.5,1.2-1.2,2.1-2.3,2.6c-1,0.5-2.5,0.7-4.3,0.7c-2.7,0-4.6-0.6-5.7-1.8c-1.1-1.2-1.6-3.4-1.6-6.7c0-3.3,0.5-5.5,1.6-6.7
		C-412.6,190.9-410.7,190.3-407.9,190.3z M-405.8,194.8c-0.4-0.7-1.1-1-2.1-1c-1,0-1.7,0.3-2.1,1c-0.4,0.7-0.5,2-0.5,4
		c0,2,0.2,3.3,0.5,4c0.4,0.7,1.1,1,2.1,1c1,0,1.7-0.3,2.1-1c0.4-0.7,0.5-2,0.5-4C-405.3,196.8-405.5,195.5-405.8,194.8z"/>
	<path id="XMLID_36_" d="M-384.8,190.7V207c0,0-2.8,0.3-6.7,0.3c-2.6,0-4.5-0.5-5.5-1.6c-1.1-1-1.6-2.8-1.6-5.4v-9.7h4.4v9.7
		c0,1.4,0.2,2.3,0.5,2.8c0.3,0.5,1,0.8,1.9,0.7c2.6-0.1,2.6-0.1,2.6-0.1v-13.1H-384.8z"/>
	<path id="XMLID_35_" d="M-370,192.2c-1.1-1.2-3-1.8-5.7-1.8c-1.8,0-4,0.1-6.7,0.2v3.1h4.4l2.2,0c1,0,1.7,0.3,2.1,1
		c0.4,0.7,0.5,2,0.5,4c0,2-0.2,3.3-0.5,4c-0.4,0.7-1.1,1-2.1,1c-1,0-1.8,0-2.2,0v-8l-4.4-0.4V207c2.2,0.2,4.4,0.2,6.7,0.2
		c2.7,0,4.6-0.6,5.7-1.8c1.1-1.2,1.6-3.4,1.6-6.6C-368.4,195.6-368.9,193.4-370,192.2z"/>
	<path id="XMLID_33_" d="M-422.4,190.8c0,0,0,10.1,0,11.5c0,3,6.2,1.5,6.2,1.5l0.3,3.1c0,0-11.3,2.5-11.3-4.3c0-6.4,0-1.3,0-12.2
		L-422.4,190.8z"/>
	<g id="XMLID_17_">
		<g id="XMLID_30_">
			<path id="XMLID_31_" d="M-443.5,190.8l0,10.7c0,2-1.1,3.1-1.7,3.7c-1.3,1.2-3.1,2-5.3,2c-2.2,0-4.2-1-5.1-1.8
				c-0.8-0.7-1.9-1.9-1.9-4.1l0-6.2l1.6,0l0-1.6l1.6,0l0-1.5l1.6,0l0,9.3c0,2.1,1.5,2.4,2.3,2.4c0.8,0,2.3-0.4,2.3-2.4l0-10.6
				H-443.5z"/>
		</g>
		<rect id="XMLID_29_" x="-457.5" y="193.6" width="1" height="1"/>
		<rect id="XMLID_28_" x="-455.9" y="192" width="1" height="1"/>
		<rect id="XMLID_27_" x="-454.4" y="190.4" width="1" height="1"/>
		<rect id="XMLID_26_" x="-455.9" y="190.6" width="0.9" height="0.9"/>
		<rect id="XMLID_25_" x="-457.4" y="192.2" width="0.9" height="0.9"/>
		<rect id="XMLID_24_" x="-458.8" y="192.3" width="0.7" height="0.7"/>
		<rect id="XMLID_23_" x="-457.2" y="190.7" width="0.7" height="0.7"/>
		<rect id="XMLID_22_" x="-455.7" y="189.1" width="0.7" height="0.7"/>
		<rect id="XMLID_21_" x="-455.7" y="189.1" width="0.7" height="0.7"/>
		<rect id="XMLID_20_" x="-458.7" y="190.8" width="0.6" height="0.5"/>
		<rect id="XMLID_19_" x="-457.1" y="189.2" width="0.6" height="0.5"/>
		<rect id="XMLID_18_" x="-458.6" y="189.3" width="0.4" height="0.4"/>
	</g>
</g>
</svg>
