<?xml version="1.0" encoding="utf-8"?>
<!-- Generator: Adobe Illustrator 24.0.1, SVG Export Plug-In . SVG Version: 6.00 Build 0)  -->
<svg version="1.1" id="图层_1" xmlns="http://www.w3.org/2000/svg" xmlns:xlink="http://www.w3.org/1999/xlink" x="0px" y="0px"
	 viewBox="0 0 150 150" style="enable-background:new 0 0 150 150;" xml:space="preserve">
<g>
	<path d="M121.39,67.09l-2.69,0l0,1.64l-4.09,0l0,1.95l2.42,0l-1.69,2.22c-0.52,0.64-0.62,1.7-0.26,2.45c0.34,0.73,1.13,1.2,2,1.2
		l0.7,0c-1.51,2.14-3.15,4.44-3.26,4.58l-0.06,0.06c-0.44,0.58-0.59,0.8-1.41,0.8l-2.69,0c-0.45,0-0.91-0.16-0.91-1.31l-0.01-8.14
		l2.84,0l0-2.05l-6.47,0.01c0.14-1.47,0.2-2.69,0.2-3.41l-2.19,0c0,0.53-0.05,1.77-0.2,3.41l-3.34,0l0,2.05l3.12,0
		c-0.47,3.48-1.4,7.91-3.16,11.35l2.31,0c1.58-2.7,2.54-7.47,3.04-11.35l1.58,0l0.01,8.09c0,0.75,0.13,1.34,0.35,1.8
		c0.52,0.94,1.41,1.42,2.67,1.42l3.23,0c1.33,0,1.89-0.44,2.67-1.42c0.11-0.2,6.94-9.65,6.94-9.65l-2.62,0c0,0-0.53,0.75-1.28,1.8
		l-1.37,0c-0.2,0-0.45-0.05-0.55-0.23c-0.06-0.19,0-0.47,0.12-0.63l2.29-3.05l5.61,0l0-1.95l-3.87,0L121.39,67.09L121.39,67.09z"/>
	<rect x="126.11" y="68.73" width="1.98" height="11.45"/>
	<path d="M129.23,81.08c0,0.53-0.31,0.94-0.87,0.94l-1.44,0.02l-0.5,1.88l2.05,0c2,0,2.75-1.16,2.75-3.02l-0.01-13.72l-2,0
		L129.23,81.08L129.23,81.08z"/>
	<rect x="140.02" y="80.87" width="3.45" height="1.73"/>
	<path d="M100.72,67.43l0.09-0.3l-2.37,0l-0.06,0.14c-0.94,2.23-1.82,3.75-2.9,4.92l-0.06,0.06l0,2.55l0.41-0.31
		c0.44-0.34,0.84-0.7,1.23-1.09l0.01,10.42l2.19,0L99.24,70.7C99.83,69.72,100.33,68.65,100.72,67.43z"/>
	<path d="M136.17,71.5c-0.66,1.09-1.83,2.69-2.7,3.47l-0.06,0.06l0,2.22l0.37-0.3c0.44-0.36,0.84-0.73,1.23-1.09l0.01,8.06l2.05,0
		l-0.01-10.31c0.47-0.61,0.89-1.23,1.26-1.88l0.19-0.34l-2.28,0L136.17,71.5z"/>
	<path d="M138.31,67.47l0.19-0.34l-2.27,0l-0.06,0.11c-0.58,1.03-1.78,2.66-2.68,3.47l-0.06,0.06l0,2.22l0.37-0.31
		C135.75,71.06,137.23,69.34,138.31,67.47z"/>
	<polygon points="124.86,75.85 122.36,75.85 116.73,83.86 119.23,83.86 120.73,81.74 122.49,83.85 125.12,83.85 121.96,79.99 	"/>
	<rect x="108.09" y="67.57" width="2.47" height="1.98"/>
	<path d="M140.38,74.53l7.69-0.01c0.75,0,1.37-0.61,1.37-1.38l0-4.64c0-0.75-0.61-1.37-1.38-1.37l-7.69,0.01
		c-0.75,0-1.37,0.61-1.37,1.38l0,4.66C139.02,73.92,139.63,74.53,140.38,74.53z M147.26,72.77l-6.06,0c-0.12,0-0.22-0.09-0.22-0.22
		l0-1.05l6.5-0.01l0,1.05C147.48,72.68,147.37,72.77,147.26,72.77z M141.18,68.9l6.06,0c0.12,0,0.22,0.09,0.22,0.22l0,0.94
		l-6.5,0.01l0-0.94C140.96,69,141.06,68.9,141.18,68.9z"/>
	<path d="M150,78.13l-0.73,0l0-1.8c0-0.58-0.47-1.05-1.05-1.05l-9.36,0.01l0,1.69l7.89-0.01c0.25,0,0.44,0.2,0.44,0.45l0,0.7
		l-8.34,0.01l0,1.66l8.34-0.01l0,1.23c0,0.36-0.03,0.55-0.05,0.62s-0.08,0.17-0.17,0.27c-0.16,0.16-0.37,0.23-0.69,0.23l-0.89,0
		l-0.5,1.73l2.02,0c0.34,0,0.69-0.09,1.02-0.28c0.42-0.23,0.77-0.56,1-0.99c0.22-0.38,0.33-0.94,0.33-1.7l0-1.12l0.73,0L150,78.13
		L150,78.13z"/>
	<path d="M51.02,66.52c-6.55,0.01-7.62,4.26-7.62,8.82c0,4.56,1.21,8.81,7.63,8.81c6.41-0.01,7.64-4.83,7.63-8.82
		C58.66,71.36,57.57,66.52,51.02,66.52z M51.03,81.25c-2.95,0-3.3-3.83-3.3-5.9c0-2.08,0.4-6.05,3.29-6.05
		c2.89,0,3.28,3.95,3.29,6.04C54.31,77.41,53.97,81.25,51.03,81.25z"/>
	<path d="M24.79,70.18c2.06-0.3,4.89,0,4.89,0l0.45-2.83c0,0-3.06-0.5-5.3-0.32c-3.92,0.28-7.22,1.94-7.21,8.5
		c0,6.05,2.38,7.98,7.24,8.4c3.06,0.26,5.3-0.33,5.3-0.33l-0.47-2.69c0,0-3.58,0.47-5.44-0.23c-1.7-0.65-2.27-3.53-2.27-5.15
		C21.97,73.89,22.54,70.51,24.79,70.18z"/>
	<path d="M84.19,67.01l-6.01,0l0,2.81l6.36-0.01c1.48,0,2.45,0.48,2.88,1.37c0.34,0.72,0.61,2.2,0.61,4.23
		c0,2.03-0.22,3.73-0.59,4.42s-1.17,1.05-2.2,1.05c-1.05,0-2.44-0.01-2.89-0.01l-0.01-8.5l-4.16-0.37l0.01,11.59
		c2.2,0.15,4.45,0.23,6.78,0.23c2.78,0,4.7-0.6,5.78-1.8c1.08-1.2,1.62-3.34,1.62-6.63c0-3.28-0.74-5.25-1.77-6.48
		C89.3,67.35,86.97,67.01,84.19,67.01z"/>
	<path d="M36.75,78.58c0-1.41-0.01-11.23-0.01-11.23l-4.3-0.37c0.01,11.06,0,5.44,0.01,11.9c0,5.84,7.21,5.37,10.77,4.76l-0.46-2.8
		C40.08,80.98,36.75,80.83,36.75,78.58z"/>
	<path d="M11.21,67.12l0.02,11.26c0,1.95-1.26,2.75-2.73,2.75c-1.45,0-2.72-0.65-2.72-2.81l-0.01-9.69l-1.27,0.03l0,1.55L2.92,70.2
		l0,1.61l-1.59,0l0.01,6.3c0,2.23,1.32,5.97,7.16,5.96s7.14-3.74,7.14-5.8L15.62,67.1L11.21,67.12L11.21,67.12z"/>
	<path d="M70.81,67.07l0.02,11.26c0,1.95-1.26,2.75-2.73,2.75c-1.45,0-2.72-0.65-2.72-2.81l-0.01-11.22l-4.44,0l0.01,11
		c0,2.23,1.32,5.97,7.16,5.96c5.84,0,7.15-3.74,7.15-5.8l-0.01-11.17L70.81,67.07L70.81,67.07z"/>
	<rect x="4.51" y="67.12" width="1.05" height="1.03"/>
	<rect x="2.98" y="67.2" width="0.91" height="0.89"/>
	<rect x="3.07" y="65.86" width="0.72" height="0.7"/>
	<rect x="0.07" y="67.36" width="0.56" height="0.56"/>
	<rect x="1.34" y="70.26" width="1.05" height="1.03"/>
	<rect x="0" y="68.81" width="0.72" height="0.7"/>
	<rect x="2.92" y="68.65" width="1.05" height="1.03"/>
	<rect x="1.4" y="68.73" width="0.91" height="0.89"/>
	<rect x="1.49" y="67.28" width="0.72" height="0.7"/>
	<rect x="1.57" y="65.94" width="0.56" height="0.56"/>
	<rect x="0.18" y="66.05" width="0.37" height="0.36"/>
</g>
</svg>
