<?xml version="1.0" encoding="utf-8"?>
<!-- Generator: Adobe Illustrator 22.1.0, SVG Export Plug-In . SVG Version: 6.00 Build 0)  -->
<svg version="1.1" id="Layer_1" xmlns="http://www.w3.org/2000/svg" xmlns:xlink="http://www.w3.org/1999/xlink" x="0px" y="0px"
	 viewBox="0 0 96 96" style="enable-background:new 0 0 96 96;" xml:space="preserve">
<g>
	<path d="M86.1,45.1H9.9C8.3,45.1,7,46.4,7,48s1.3,2.9,2.9,2.9h76.1c1.6,0,2.9-1.3,2.9-2.9S87.7,45.1,86.1,45.1z"/>
	<path d="M83.1,59.7c-1.6,0-2.9,1.3-2.9,2.9v14.6c0,1.6-1.3,2.9-2.9,2.9H59.7c-1.6,0-2.9,1.3-2.9,2.9c0,1.6,1.3,2.9,2.9,2.9h17.6
		c4.8,0,8.8-3.9,8.8-8.8V62.6C86.1,61,84.8,59.7,83.1,59.7z"/>
	<path d="M33.4,80.2H18.7c-1.6,0-2.9-1.3-2.9-2.9V62.6c0-1.6-1.3-2.9-2.9-2.9c-1.6,0-2.9,1.3-2.9,2.9v14.6c0,4.8,3.9,8.8,8.8,8.8
		h14.6c1.6,0,2.9-1.3,2.9-2.9C36.3,81.5,35,80.2,33.4,80.2z"/>
	<path d="M12.9,36.3c1.6,0,2.9-1.3,2.9-2.9V18.7c0-1.6,1.3-2.9,2.9-2.9h14.6c1.6,0,2.9-1.3,2.9-2.9c0-1.6-1.3-2.9-2.9-2.9H18.7
		c-4.8,0-8.8,3.9-8.8,8.8v14.6C9.9,35,11.2,36.3,12.9,36.3z"/>
	<path d="M59.7,15.8h17.6c1.6,0,2.9,1.3,2.9,2.9v14.6c0,1.6,1.3,2.9,2.9,2.9c1.6,0,2.9-1.3,2.9-2.9V18.7c0-4.8-3.9-8.8-8.8-8.8H59.7
		c-1.6,0-2.9,1.3-2.9,2.9C56.8,14.5,58.1,15.8,59.7,15.8z"/>
</g>
</svg>
