<?xml version="1.0" encoding="utf-8"?>
<!-- Generator: Adobe Illustrator 17.0.0, SVG Export Plug-In . SVG Version: 6.00 Build 0)  -->
<!DOCTYPE svg PUBLIC "-//W3C//DTD SVG 1.1//EN" "http://www.w3.org/Graphics/SVG/1.1/DTD/svg11.dtd">
<svg version="1.1" id="Layer_1" xmlns="http://www.w3.org/2000/svg" xmlns:xlink="http://www.w3.org/1999/xlink" x="0px" y="0px"
	 width="96px" height="96px" viewBox="0 0 96 96" enable-background="new 0 0 96 96" xml:space="preserve">
<path d="M72,56c-1.148,0-2.269,0.127-3.35,0.357L58.499,36.055C61.864,33.121,64,28.815,64,24c0-8.836-7.164-16-16-16
	s-16,7.164-16,16c0,4.815,2.137,9.12,5.501,12.055L27.35,56.357C26.269,56.127,25.148,56,24,56c-8.836,0-16,7.164-16,16
	s7.164,16,16,16c7.088,0,13.091-4.615,15.192-11h17.616C58.909,83.385,64.912,88,72,88c8.836,0,16-7.164,16-16S80.836,56,72,56z
	 M48,16c4.418,0,8,3.582,8,8c0,4.418-3.582,8-8,8c-4.418,0-8-3.582-8-8C40,19.582,43.582,16,48,16z M24,80c-4.418,0-8-3.582-8-8
	c0-4.418,3.582-8,8-8c4.418,0,8,3.582,8,8C32,76.418,28.418,80,24,80z M56.302,69H39.697c-0.685-3.584-2.553-6.747-5.198-9.055
	L44.65,39.643C45.731,39.873,46.852,40,48,40s2.269-0.127,3.35-0.357l10.151,20.303C58.855,62.252,56.987,65.416,56.302,69z M72,80
	c-4.418,0-8-3.582-8-8c0-4.418,3.582-8,8-8c4.418,0,8,3.582,8,8C80,76.418,76.418,80,72,80z"/>
</svg>
