<?xml version="1.0" encoding="utf-8"?>
<!-- Generator: Adobe Illustrator 17.0.0, SVG Export Plug-In . SVG Version: 6.00 Build 0)  -->
<!DOCTYPE svg PUBLIC "-//W3C//DTD SVG 1.1//EN" "http://www.w3.org/Graphics/SVG/1.1/DTD/svg11.dtd">
<svg version="1.1" id="Layer_1" xmlns="http://www.w3.org/2000/svg" xmlns:xlink="http://www.w3.org/1999/xlink" x="0px" y="0px"
	 width="96px" height="96px" viewBox="0 0 96 96" enable-background="new 0 0 96 96" xml:space="preserve">
<circle cx="48" cy="79" r="4"/>
<path d="M64.117,2H29.882C22.228,2,16,8.228,16,15.882V65v8v7.118C16,87.772,22.228,94,29.882,94h34.236
	C71.772,94,78,87.772,78,80.118V15.882C78,8.228,71.772,2,64.117,2z M70,80.118C70,83.361,67.361,86,64.118,86H29.882
	C26.639,86,24,83.361,24,80.118V73h46V80.118z M70,65H24V24h46V65z M23.937,16.02c0,0,0.63-6.066,6.548-6.067
	c5.953-0.002,5.099,0.031,5.099,0.031L35.581,10h28.536C67.361,10,70,12.639,70,15.882V16H34.651"/>
</svg>
