<?xml version="1.0" encoding="utf-8"?>
<!-- Generator: Adobe Illustrator 21.0.0, SVG Export Plug-In . SVG Version: 6.00 Build 0)  -->
<svg version="1.1" id="Layer_1" xmlns="http://www.w3.org/2000/svg" xmlns:xlink="http://www.w3.org/1999/xlink" x="0px" y="0px"
	 viewBox="0 0 96 70.4" style="enable-background:new 0 0 96 70.4;" xml:space="preserve">
<style type="text/css">
	.st0{fill:none;stroke:#000000;stroke-width:8;stroke-linecap:round;stroke-linejoin:round;stroke-miterlimit:10;}
</style>
<path class="st0" d="M68,25.4"/>
<path d="M89.6,0.4H6.7c-3.6,0-6.6,3-6.6,6.6v44.5c0,3.6,3,6.6,6.6,6.6h11.6l-0.6,12.8L34.4,58h55.2c3.6,0,6.6-3,6.6-6.6V7
	C96.2,3.4,93.2,0.4,89.6,0.4z M30.4,43.5h-5.8l-8.7-13.6v13.6H9.2V16.4H15L23.7,30V16.4h6.6V43.5z M54.2,22.3H42.5v4.5h10v5.9h-10
	v4.7h11.7v5.9H35.8V16.4h18.4V22.3z M83.2,43.5h-5.4l-4.4-13.3L69,43.5h-5.4l-7.4-27.1h7l3.5,14.3l4.4-14.3h4.7l4.4,14.3l3.5-14.3h7
	L83.2,43.5z"/>
</svg>
