<?xml version="1.0" encoding="utf-8"?>
<!-- Generator: Adobe Illustrator 21.0.0, SVG Export Plug-In . SVG Version: 6.00 Build 0)  -->
<svg version="1.1" id="Layer_1" xmlns="http://www.w3.org/2000/svg" xmlns:xlink="http://www.w3.org/1999/xlink" x="0px" y="0px"
	 viewBox="0 0 96 96" style="enable-background:new 0 0 96 96;" xml:space="preserve">
<g>
	<path d="M48,93.9C22.7,93.9,2.1,73.3,2.1,48C2.1,22.7,22.7,2.1,48,2.1S93.9,22.7,93.9,48C93.9,73.3,73.3,93.9,48,93.9z M48,6.1
		C24.9,6.1,6.1,24.9,6.1,48c0,23.1,18.8,41.9,41.9,41.9c23.1,0,41.9-18.8,41.9-41.9C89.9,24.9,71.1,6.1,48,6.1z"/>
</g>
<g>
	<g>
		<path d="M56.4,30.9L37,50.3c-0.7,0.7-1.9,0.7-2.6,0l0,0c-0.7-0.7-0.7-1.9,0-2.6l19.4-19.4c0.7-0.7,1.9-0.7,2.6,0l0,0
			C57.1,29,57.1,30.2,56.4,30.9z"/>
	</g>
	<g>
		<path d="M56.4,67.1L37,47.7c-0.7-0.7-1.9-0.7-2.6,0h0c-0.7,0.7-0.7,1.9,0,2.6l19.4,19.4c0.7,0.7,1.9,0.7,2.6,0h0
			C57.1,69,57.1,67.8,56.4,67.1z"/>
	</g>
</g>
</svg>
