<?xml version="1.0" encoding="utf-8"?>
<!-- Generator: Adobe Illustrator 21.0.0, SVG Export Plug-In . SVG Version: 6.00 Build 0)  -->
<svg version="1.1" id="Layer_1" xmlns="http://www.w3.org/2000/svg" xmlns:xlink="http://www.w3.org/1999/xlink" x="0px" y="0px"
	 viewBox="0 0 96 96" style="enable-background:new 0 0 96 96;" xml:space="preserve">
<g>
	<path d="M48,93.9C22.7,93.9,2.1,73.3,2.1,48C2.1,22.7,22.7,2.1,48,2.1S93.9,22.7,93.9,48C93.9,73.3,73.3,93.9,48,93.9z M48,6.1
		C24.9,6.1,6.1,24.9,6.1,48c0,23.1,18.8,41.9,41.9,41.9c23.1,0,41.9-18.8,41.9-41.9C89.9,24.9,71.1,6.1,48,6.1z"/>
</g>
<g>
	<path d="M40,30.9l19.4,19.4c0.7,0.7,1.9,0.7,2.6,0h0c0.7-0.7,0.7-1.9,0-2.6L42.6,28.3c-0.7-0.7-1.9-0.7-2.6,0v0
		C39.3,29,39.3,30.2,40,30.9z"/>
	<path d="M40,67.1l19.4-19.4c0.7-0.7,1.9-0.7,2.6,0l0,0c0.7,0.7,0.7,1.9,0,2.6L42.6,69.7c-0.7,0.7-1.9,0.7-2.6,0h0
		C39.3,69,39.3,67.8,40,67.1z"/>
</g>
</svg>
