<?xml version="1.0" encoding="utf-8"?>
<!-- Generator: Adobe Illustrator 24.0.1, SVG Export Plug-In . SVG Version: 6.00 Build 0)  -->
<svg version="1.1" id="Layer_1" xmlns="http://www.w3.org/2000/svg" xmlns:xlink="http://www.w3.org/1999/xlink" x="0px" y="0px"
	 viewBox="0 0 96 96" style="enable-background:new 0 0 96 96;" xml:space="preserve">
<path id="形状结合" d="M66.3,4l25.6,25.6V81c0,6.1-5,11-11,11l0,0H29.7c-6.1,0-11-5-11-11l0,0v-3.3H8.2c-2.3,0-4.1-1.9-4.1-4.1
	l0,0V47.5c0-2.3,1.9-4.1,4.1-4.1l0,0h10.5V15c0-6.1,5-11,11-11l0,0H66.3z M62.9,12.3H29.7c-1.4,0-2.7,1.2-2.7,2.7l0,0v28.4h36.6
	c2.3,0,4.1,1.9,4.1,4.1l0,0v26c0,2.3-1.9,4.1-4.1,4.1l0,0H27v3.3c0,1.4,1.2,2.7,2.7,2.7l0,0H81c1.4,0,2.7-1.2,2.7-2.7l0,0V33.1
	L62.9,12.3z M20.3,50.8h-7.5v19.4h3.2v-6.8h5.2c0.8,0,1.6-0.1,2.1-0.3c0.5-0.2,1-0.5,1.4-1c0.5-0.5,0.8-1.2,1.1-2.2
	c0.3-0.9,0.4-1.9,0.5-2.7c0-1.1-0.2-2.3-0.6-3.3c-0.6-1.3-1.3-2.3-2.4-2.7C22.7,50.9,21.6,50.8,20.3,50.8L20.3,50.8z M35.9,50.8
	h-6.4v19.3l7.2,0c1,0,1.8,0,2.4-0.2c0.6-0.1,1.3-0.5,1.9-0.9c0.9-0.7,1.6-2,2-3.5c0.4-1.7,0.6-3.3,0.6-5c0-1.7-0.2-3.3-0.6-5
	c-0.6-2-1.7-3.4-3.3-4.1C38.8,51.1,37.6,50.8,35.9,50.8L35.9,50.8z M59.2,50.8h-5.3c-1.8,0-3.2,0.3-4.1,0.8c-1,0.5-1.8,1.4-2.3,2.7
	c-0.4,0.8-0.6,2.8-0.6,5.7l0,0v10.1h3.2v-8h9.1v-3.5h-9.1v-1c0.1-1.4,0.5-2.5,1.3-2.8c0.4-0.3,1.3-0.5,2.9-0.5l0,0h4.9V50.8z
	 M36,54.3c1.2,0,2.1,0.4,2.7,1c0.4,0.5,0.7,1.2,0.9,2.2c0.3,1,0.4,2.1,0.4,3.1c0,0.9-0.1,2-0.3,2.8c-0.2,0.9-0.5,1.7-0.8,2.2
	c-0.5,0.8-1.4,1.2-2.9,1.2l0,0h-3.2V54.3H36z M20.3,54.3c0.6,0,1,0.1,1.2,0.2c0.7,0.4,1.1,1.2,1,2.4c0,1.2-0.2,2.1-0.7,2.6
	c-0.3,0.3-0.8,0.5-1.7,0.5l0,0h-4.3v-5.7H20.3z"/>
</svg>
