<?xml version="1.0" encoding="utf-8"?>
<!-- Generator: Adobe Illustrator 21.0.0, SVG Export Plug-In . SVG Version: 6.00 Build 0)  -->
<svg version="1.1" id="Layer_1" xmlns="http://www.w3.org/2000/svg" xmlns:xlink="http://www.w3.org/1999/xlink" x="0px" y="0px"
	 viewBox="0 0 96 96" style="enable-background:new 0 0 96 96;" xml:space="preserve">
<g>
	<path d="M28.6,39.5h-3.7l-2,10.3h3.3c2.1,0,3.8-0.4,4.9-1.3c1.1-0.9,1.8-2.1,2.1-4c0.3-1.8,0.2-3.1-0.5-3.8
		C32,39.9,30.6,39.5,28.6,39.5z"/>
	<path d="M48,22c-25.9,0-46.8,11-46.8,24.6s21,24.6,46.8,24.6s46.8-11,46.8-24.6S73.9,22,48,22z M35.3,51c-1.1,1-2.2,1.7-3.6,2.1
		c-1.3,0.4-3,0.6-5,0.6h-4.6l-1.3,6.6h-5.4l4.8-24.7h10.3c3.1,0,5.4,0.9,6.8,2.4c1.4,1.6,1.8,3.9,1.3,6.8c-0.2,1.2-0.6,2.2-1.2,3.3
		C37,49.2,36.2,50.1,35.3,51z M51,53.8l2.1-11c0.2-1.3,0.1-2.1-0.2-2.6c-0.4-0.4-1.3-0.6-2.7-0.6H46l-2.8,14.1h-5.3l4.8-24.7H48
		l-1.3,6.6h4.8c3,0,5,0.5,6.2,1.6s1.5,2.8,1.1,5.1l-2.2,11.5H51V53.8z M80.7,44.9c-0.2,1.2-0.6,2.2-1.2,3.3c-0.5,1-1.3,1.9-2.2,2.8
		c-1.1,1-2.2,1.7-3.6,2.1c-1.3,0.4-3,0.6-5,0.6h-4.6l-1.3,6.6h-5.4l4.8-24.7h10.3c3.1,0,5.4,0.9,6.8,2.4
		C80.8,39.7,81.2,42,80.7,44.9z"/>
	<path d="M70.5,39.5h-3.7l-2,10.3H68c2.1,0,3.8-0.4,4.9-1.3c1.1-0.9,1.8-2.1,2.1-4c0.3-1.8,0.2-3.1-0.5-3.8
		C73.9,39.9,72.6,39.5,70.5,39.5z"/>
</g>
</svg>
