<?xml version="1.0" encoding="utf-8"?>
<!-- Generator: Adobe Illustrator 17.0.0, SVG Export Plug-In . SVG Version: 6.00 Build 0)  -->
<!DOCTYPE svg PUBLIC "-//W3C//DTD SVG 1.1//EN" "http://www.w3.org/Graphics/SVG/1.1/DTD/svg11.dtd">
<svg version="1.1" id="Layer_1" xmlns="http://www.w3.org/2000/svg" xmlns:xlink="http://www.w3.org/1999/xlink" x="0px" y="0px"
	 width="96px" height="96px" viewBox="0 0 96 96" enable-background="new 0 0 96 96" xml:space="preserve">
<g>
	<path fill="none" stroke="#040000" stroke-width="8" stroke-linecap="round" stroke-miterlimit="10" d="M55.539,84.603"/>
	<path fill="#040000" d="M20.118,85.594c-6.15,0-11.154-5.004-11.154-11.154s5.004-11.154,11.154-11.154S31.272,68.29,31.272,74.44
		S26.268,85.594,20.118,85.594z M20.118,71.218c-1.777,0-3.222,1.446-3.222,3.222s1.446,3.222,3.222,3.222s3.222-1.446,3.222-3.222
		S21.895,71.218,20.118,71.218z"/>
	<path fill="#040000" d="M77.831,85.453c-6.15,0-11.154-5.004-11.154-11.154s5.003-11.154,11.154-11.154
		c6.15,0,11.154,5.004,11.154,11.154S83.982,85.453,77.831,85.453z M77.831,71.076c-1.777,0-3.222,1.446-3.222,3.222
		s1.445,3.222,3.222,3.222c1.777,0,3.222-1.446,3.222-3.222S79.608,71.076,77.831,71.076z"/>
	<path fill="#040000" d="M58.209,77.827H39.424c-2.19,0-3.966-1.776-3.966-3.966V18.338H24.456V65.93
		c0,2.19-1.776,3.966-3.966,3.966s-3.966-1.776-3.966-3.966V14.372c0-2.19,1.776-3.966,3.966-3.966h18.934
		c2.19,0,3.966,1.776,3.966,3.966v55.524h10.853V14.372c0-2.19,1.776-3.966,3.966-3.966h19.829c2.19,0,3.966,1.776,3.966,3.966
		v50.195c0,2.19-1.776,3.966-3.966,3.966c-2.19,0-3.966-1.776-3.966-3.966V18.338H62.175v55.524
		C62.175,76.052,60.4,77.827,58.209,77.827z"/>
</g>
</svg>
