<?xml version="1.0" encoding="utf-8"?>
<!-- Generator: Adobe Illustrator 22.1.0, SVG Export Plug-In . SVG Version: 6.00 Build 0)  -->
<svg version="1.1" id="Layer_1" xmlns="http://www.w3.org/2000/svg" xmlns:xlink="http://www.w3.org/1999/xlink" x="0px" y="0px"
	 viewBox="0 0 96 96" style="enable-background:new 0 0 96 96;" xml:space="preserve">
<g>
	<path d="M38.3,46.6h18.4c5.1,0,9.2-4.2,9.2-9.3V19.8c0-5-4.2-8.7-9.2-9.6c-6.2-1-12.8-1-18.4,0c-7.8,1.4-9.2,4.2-9.2,9.6v7h18.4
		v2.3H22.3c-5.3,0-10,3.2-11.5,9.3c-1.7,7-1.8,11.4,0,18.7c1.3,5.4,4.4,9.3,9.8,9.3h6.3v-8.4C26.9,52,32.1,46.6,38.3,46.6z
		 M37.2,22.1c-1.9,0-3.5-1.6-3.5-3.5c0-1.9,1.5-3.5,3.5-3.5c1.9,0,3.5,1.6,3.5,3.5S39.1,22.1,37.2,22.1z"/>
	<path d="M85.1,38.5c-1.3-5.3-3.8-9.3-9.2-9.3H69v8.1c0,6.3-5.4,11.7-11.5,11.7H39.2c-5,0-9.2,4.3-9.2,9.3v17.5c0,5,4.3,7.9,9.2,9.3
		c5.8,1.7,11.4,2,18.4,0c4.6-1.3,9.2-4,9.2-9.3v-7H48.4v-2.3h27.5c5.3,0,7.3-3.7,9.2-9.3C87,51.4,86.9,45.8,85.1,38.5z M58.7,73.4
		c1.9,0,3.5,1.6,3.5,3.5c0,1.9-1.5,3.5-3.5,3.5c-1.9,0-3.5-1.6-3.5-3.5C55.3,75,56.8,73.4,58.7,73.4z"/>
</g>
</svg>
