<?xml version="1.0" encoding="utf-8"?>
<!-- Generator: Adobe Illustrator 21.0.0, SVG Export Plug-In . SVG Version: 6.00 Build 0)  -->
<svg version="1.0" id="Layer_1" xmlns="http://www.w3.org/2000/svg" xmlns:xlink="http://www.w3.org/1999/xlink" x="0px" y="0px"
	 viewBox="0 0 96 96" style="enable-background:new 0 0 96 96;" xml:space="preserve">
<style type="text/css">
	.st0{fill:#0B0C0C;}
</style>
<g>
	<path class="st0" d="M48,7.4C25.6,7.4,7.4,25.6,7.4,48S25.6,88.6,48,88.6S88.6,70.4,88.6,48S70.4,7.4,48,7.4z M48,87.2
		C26.4,87.2,8.8,69.6,8.8,48C8.8,26.4,26.4,8.8,48,8.8c21.6,0,39.2,17.6,39.2,39.2C87.2,69.6,69.6,87.2,48,87.2z"/>
	<path class="st0" d="M48.3,16c-17.9,0-32.5,14.6-32.5,32.5c0,0,0,0,0,0.1h1.1c0,0,0,0,0-0.1c0-17.3,14.1-31.4,31.4-31.4
		c17.3,0,31.4,14.1,31.4,31.4c0,0,0,0,0,0.1h1.1c0,0,0,0,0-0.1C80.8,30.6,66.2,16,48.3,16z"/>
	<path class="st0" d="M48.3,26.7c-12,0-21.8,9.8-21.8,21.8c0,0.1,0,0.1,0,0.2h1.1c0-0.1,0-0.1,0-0.2c0-11.4,9.3-20.7,20.7-20.7
		S69,37.1,69,48.5c0,0.1,0,0.1,0,0.2h1.1c0-0.1,0-0.1,0-0.2C70.1,36.5,60.3,26.7,48.3,26.7z"/>
	<path class="st0" d="M47.8,36.2c-6.8,0-12.3,5.5-12.3,12.3c0,0,0,0,0,0.1h1.1c0,0,0,0,0-0.1c0-6.2,5-11.2,11.2-11.2
		c6.2,0,11.2,5,11.2,11.2c0,0,0,0,0,0.1h1.1c0,0,0,0,0-0.1C60.1,41.7,54.6,36.2,47.8,36.2z"/>
</g>
</svg>
