<?xml version="1.0" encoding="utf-8"?>
<!-- Generator: Adobe Illustrator 24.0.1, SVG Export Plug-In . SVG Version: 6.00 Build 0)  -->
<svg version="1.1" id="Layer_1" xmlns="http://www.w3.org/2000/svg" xmlns:xlink="http://www.w3.org/1999/xlink" x="0px" y="0px"
	 viewBox="0 0 96 96" style="enable-background:new 0 0 96 96;" xml:space="preserve">
<style type="text/css">
	.st0{fill:#091F42;}
</style>
<g>
	<path class="st0" d="M79.1,16.9c-17.2-17.2-45-17.2-62.2,0c-17.2,17.2-17.2,45,0,62.2c17.2,17.2,45,17.2,62.2,0
		C96.3,61.9,96.3,34.1,79.1,16.9z M27.6,68.4l-2.6,2.6c-0.8,0.8-2,0.7-2.7-0.1c-11.6-13.1-11.6-32.9,0-45.9c0.7-0.8,2-0.8,2.7-0.1
		l2.6,2.6c0.7,0.7,0.7,1.8,0.1,2.5c-3.9,4.4-6.1,9.8-6.6,15.3c-0.7,7.2,1.5,14.6,6.6,20.4C28.3,66.6,28.3,67.7,27.6,68.4z
		 M40.1,55.5c0.6,0.8,0.5,1.8-0.1,2.5l-2.7,2.7c-0.8,0.8-2.1,0.7-2.8-0.1c-5.9-7.3-5.9-17.8,0-25.1c0.7-0.8,2-0.9,2.8-0.1L40,38
		c0.7,0.7,0.7,1.7,0.1,2.4c-1.3,1.7-2.1,3.7-2.4,5.8C37.3,49.4,38.1,52.8,40.1,55.5z M61.4,60.5c-0.7,0.8-2,0.9-2.8,0.1L56,58
		c-0.7-0.7-0.7-1.7-0.1-2.5c1.7-2.2,2.5-4.9,2.5-7.6c0-2.6-0.9-5.3-2.5-7.5c-0.6-0.8-0.5-1.8,0.1-2.5l2.7-2.7
		c0.8-0.8,2.1-0.7,2.8,0.1C67.3,42.7,67.3,53.3,61.4,60.5z M73.8,71c-0.7,0.8-2,0.8-2.7,0.1l-2.6-2.6c-0.7-0.7-0.7-1.8-0.1-2.5
		c4.5-5.1,6.7-11.5,6.7-17.9c0-6.4-2.2-12.8-6.7-17.9c-0.6-0.7-0.6-1.8,0.1-2.5l2.6-2.6c0.8-0.8,2-0.7,2.7,0.1
		C85.4,38.1,85.4,57.9,73.8,71z"/>
</g>
</svg>
