<?xml version="1.0" encoding="utf-8"?>
<!-- Generator: Adobe Illustrator 17.0.0, SVG Export Plug-In . SVG Version: 6.00 Build 0)  -->
<!DOCTYPE svg PUBLIC "-//W3C//DTD SVG 1.1//EN" "http://www.w3.org/Graphics/SVG/1.1/DTD/svg11.dtd">
<svg version="1.1" id="Layer_1" xmlns="http://www.w3.org/2000/svg" xmlns:xlink="http://www.w3.org/1999/xlink" x="0px" y="0px"
	 width="96px" height="96px" viewBox="0 0 96 96" enable-background="new 0 0 96 96" xml:space="preserve">
<g>
	<path d="M32,52H16C9.37,52,4,57.37,4,64v16c0,6.63,5.37,12,12,12h16c6.63,0,12-5.37,12-12V64C44,57.37,38.63,52,32,52z M36,80
		c0,2.21-1.79,4-4,4H16c-2.21,0-4-1.79-4-4V64c0-2.21,1.79-4,4-4h16c2.21,0,4,1.79,4,4V80z"/>
	<path d="M80,52H64c-6.63,0-12,5.37-12,12v16c0,6.63,5.37,12,12,12h16c6.63,0,12-5.37,12-12V64C92,57.37,86.63,52,80,52z"/>
	<path d="M32,4H16C9.37,4,4,9.37,4,16v16c0,6.63,5.37,12,12,12h16c6.63,0,12-5.37,12-12V16C44,9.37,38.63,4,32,4z M36,32
		c0,2.21-1.79,4-4,4H16c-2.21,0-4-1.79-4-4V16c0-2.21,1.79-4,4-4h16c2.21,0,4,1.79,4,4V32z"/>
	<path d="M80,4H64c-6.63,0-12,5.37-12,12v16c0,6.63,5.37,12,12,12h16c6.63,0,12-5.37,12-12V16C92,9.37,86.63,4,80,4z M84,32
		c0,2.21-1.79,4-4,4H64c-2.21,0-4-1.79-4-4V16c0-2.21,1.79-4,4-4h16c2.21,0,4,1.79,4,4V32z"/>
</g>
<path d="M29.688,25.665c0,1.98-1.605,3.585-3.585,3.585h-3.58c-1.98,0-3.585-1.605-3.585-3.585v-3.58
	c0-1.98,1.605-3.585,3.585-3.585h3.58c1.98,0,3.585,1.605,3.585,3.585V25.665z"/>
<path d="M77.375,25.665c0,1.98-1.605,3.585-3.585,3.585h-3.58c-1.98,0-3.585-1.605-3.585-3.585v-3.58
	c0-1.98,1.605-3.585,3.585-3.585h3.58c1.98,0,3.585,1.605,3.585,3.585V25.665z"/>
<path d="M29.375,73.79c0,1.98-1.605,3.585-3.585,3.585h-3.58c-1.98,0-3.585-1.605-3.585-3.585v-3.58c0-1.98,1.605-3.585,3.585-3.585
	h3.58c1.98,0,3.585,1.605,3.585,3.585V73.79z"/>
</svg>
