<?xml version="1.0" encoding="utf-8"?>
<!-- Generator: Adobe Illustrator 24.0.1, SVG Export Plug-In . SVG Version: 6.00 Build 0)  -->
<svg version="1.1" id="Layer_1" xmlns="http://www.w3.org/2000/svg" xmlns:xlink="http://www.w3.org/1999/xlink" x="0px" y="0px"
	 viewBox="0 0 96 96" style="enable-background:new 0 0 96 96;" xml:space="preserve">
<style type="text/css">
	.st0{fill:#091F42;}
</style>
<path class="st0" d="M48,4C23.7,4,4,23.7,4,48s19.7,44,44,44s44-19.7,44-44S72.3,4,48,4z M40.5,69H26c-1.6,0-3.1-0.9-3.9-2.2
	c-0.8-1.4-0.8-3.1,0-4.5l7.4-12.8c1-1.7,3.1-2.2,4.8-1.3c1.7,1,2.2,3.1,1.3,4.8L30.3,62h10.2c1.9,0,3.5,1.6,3.5,3.5
	C44,67.4,42.4,69,40.5,69z M42.6,40.7c-1,1.7-3.1,2.2-4.8,1.3c-1.7-1-2.2-3.1-1.3-4.8l7.6-13.1c0.8-1.4,2.3-2.2,3.9-2.2
	s3.1,0.9,3.9,2.2l7.7,13.3c1,1.7,0.4,3.8-1.3,4.8c-0.6,0.3-1.2,0.5-1.7,0.5c-1.2,0-2.4-0.6-3-1.8L48,31.3L42.6,40.7z M73.9,66.8
	C73.1,68.1,71.6,69,70,69H54.5c-1.9,0-3.5-1.6-3.5-3.5c0-1.9,1.6-3.5,3.5-3.5h11.2l-5.2-9.1c-1-1.7-0.4-3.8,1.3-4.8
	c1.7-1,3.8-0.4,4.8,1.3l7.4,12.8C74.7,63.6,74.7,65.4,73.9,66.8z"/>
</svg>
