<?xml version="1.0" encoding="utf-8"?>
<!-- Generator: Adobe Illustrator 22.1.0, SVG Export Plug-In . SVG Version: 6.00 Build 0)  -->
<svg version="1.1" id="Layer_1" xmlns="http://www.w3.org/2000/svg" xmlns:xlink="http://www.w3.org/1999/xlink" x="0px" y="0px"
	 viewBox="0 0 96 96" style="enable-background:new 0 0 96 96;" xml:space="preserve">
<path d="M62.7,53.1c5.8,0,14.2-1.2,14.2-8.1c0-0.5,0-1.1-0.1-1.6l-3.4-15c-0.8-3.3-1.5-4.8-7.3-7.7c-4.5-2.3-14.3-6.1-17.1-6.1
	c-2.7,0-3.5,3.5-6.7,3.5c-3.1,0-5.4-2.6-8.3-2.6c-2.8,0-4.6,1.9-6,5.8c0,0-3.9,11-4.4,12.6c-0.1,0.3-0.1,0.6-0.1,0.9
	C23.4,39.1,40.2,53.1,62.7,53.1 M77.7,47.8c0.8,3.8,0.8,4.2,0.8,4.7c0,6.5-7.3,10.1-16.8,10.1c-21.6,0-40.6-12.7-40.6-21
	c0-1.2,0.2-2.3,0.7-3.4C14.1,38.5,4,39.9,4,48.8c0,14.6,34.5,32.5,61.8,32.5c20.9,0,26.2-9.5,26.2-16.9C92,58.5,86.9,51.8,77.7,47.8
	"/>
</svg>
