<?xml version="1.0" encoding="utf-8"?>
<!-- Generator: Adobe Illustrator 17.0.0, SVG Export Plug-In . SVG Version: 6.00 Build 0)  -->
<!DOCTYPE svg PUBLIC "-//W3C//DTD SVG 1.1//EN" "http://www.w3.org/Graphics/SVG/1.1/DTD/svg11.dtd">
<svg version="1.1" id="Layer_1" xmlns="http://www.w3.org/2000/svg" xmlns:xlink="http://www.w3.org/1999/xlink" x="0px" y="0px"
	 width="96px" height="96px" viewBox="0 0 96 96" enable-background="new 0 0 96 96" xml:space="preserve">
<g>
	<path d="M48,4C23.7,4,4,23.699,4,48s19.7,44,44,44s44-19.699,44-44S72.3,4,48,4z M48,84c-19.882,0-36-16.118-36-36s16.118-36,36-36
		s36,16.118,36,36S67.882,84,48,84z"/>
	<path d="M32.665,49c0.037,0,0.074-0.011,0.111-0.013C32.813,48.989,32.85,49,32.887,49c0.626,0,1.258-0.195,1.797-0.6l4.667-3.5
		c1.326-0.994,1.594-2.875,0.6-4.2c-0.578-0.771-1.455-1.171-2.349-1.187c2.167-4.452,6.451-8.263,12.569-8.263
		c8.348,0,12.987,6.032,13.883,12.01c0.326,2.185,2.358,3.683,4.549,3.363c2.185-0.328,3.69-2.364,3.363-4.548
		C70.307,30.991,61.344,23.25,50.172,23.25c-11.38,0-18.684,8.148-21.193,16.429C27.78,39.262,26.403,39.63,25.6,40.7
		c-0.994,1.325-0.726,3.206,0.6,4.2l4.667,3.5C31.407,48.805,32.038,49,32.665,49z"/>
	<path d="M72.352,53.6l-4.667-3.5c-0.572-0.428-1.246-0.608-1.909-0.583c-0.663-0.025-1.337,0.155-1.908,0.583L59.2,53.6
		c-1.325,0.994-1.595,2.875-0.601,4.2c0.59,0.786,1.49,1.2,2.402,1.2c0.043,0,0.085-0.008,0.127-0.01
		c-1.763,3.879-5.308,7.197-11.259,7.647c-7.129,0.538-12.853-3.324-15.289-10.334c-0.726-2.086-3.002-3.191-5.092-2.465
		c-2.086,0.726-3.19,3.005-2.465,5.092c3.381,9.729,11.738,15.754,21.594,15.754c0.612,0,1.231-0.022,1.854-0.07
		c9.562-0.722,16.78-6.778,19.193-15.75C69.956,58.953,70.253,59,70.55,59c0.912,0,1.812-0.414,2.402-1.2
		C73.946,56.475,73.677,54.594,72.352,53.6z"/>
</g>
</svg>
