<?xml version="1.0" encoding="utf-8"?>
<!-- Generator: Adobe Illustrator 22.1.0, SVG Export Plug-In . SVG Version: 6.00 Build 0)  -->
<svg version="1.1" id="Layer_1" xmlns="http://www.w3.org/2000/svg" xmlns:xlink="http://www.w3.org/1999/xlink" x="0px" y="0px"
	 viewBox="0 0 96 96" style="enable-background:new 0 0 96 96;" xml:space="preserve">
<g>
	<path d="M79.5,6h-8c-0.7,0-1.4,0.3-1.9,0.8S68.9,8,68.9,8.7s0.3,1.4,0.8,1.9s1.2,0.8,1.9,0.8h8v8c0,0.7,0.3,1.4,0.8,1.9
		s1.2,0.8,1.9,0.8c0.7,0,1.4-0.3,1.9-0.8s0.8-1.2,0.8-1.9v-8C84.8,8.4,82.4,6,79.5,6z"/>
	<path d="M13.1,21.9c0.7,0,1.4-0.3,1.9-0.8s0.8-1.2,0.8-1.9v-8h8c0.7,0,1.4-0.3,1.9-0.8s0.8-1.2,0.8-1.9s-0.3-1.4-0.8-1.9
		S24.4,6,23.7,6h-8c-2.9,0-5.3,2.4-5.3,5.3v8c0,0.7,0.3,1.4,0.8,1.9S12.4,21.9,13.1,21.9z"/>
	<path d="M82.3,48.8c-0.7,0-1.4,0.3-1.9,0.8s-0.8,1.2-0.8,1.9v8h-8c-0.2,0-0.4,0-0.5,0.1c-2.7-2.7-5.7-4.9-9-6.5
		c5.6-4.2,9.2-10.9,9.2-18.4c0-12.6-10.3-22.9-22.9-22.9c-12.6,0-22.9,10.3-22.9,23c0,7.4,3.5,13.9,8.9,18.1c-3.4,1.7-6.6,4-9.4,6.8
		c-0.4-0.2-0.8-0.3-1.2-0.3h-8v-8c0-0.7-0.3-1.4-0.8-1.9s-1.2-0.8-1.9-0.8c-0.7,0-1.4,0.3-1.9,0.8s-0.8,1.2-0.8,1.9v8
		c0.2,3,2.6,5.4,5.5,5.4h4.8c-4.1,5.7-6.9,12.8-7.9,20.5l-0.6,4.5h71.6l-0.6-4.5c-0.9-7.8-3.7-14.8-7.8-20.5h4.3
		c2.9,0,5.3-2.4,5.3-5.3v-8c0-0.7-0.3-1.4-0.8-1.9S83,48.8,82.3,48.8z M33.5,34.8c0-8.2,6.7-14.9,14.9-14.9
		c8.2,0,14.9,6.7,14.9,14.9s-6.7,14.9-14.9,14.9C40.2,49.7,33.5,43,33.5,34.8z M21.6,81.9v-0.1C25,67.8,35.8,57.7,48,57.7
		s23,10.1,26.5,24.2H21.6z"/>
</g>
</svg>
