<?xml version="1.0" encoding="utf-8"?>
<!-- Generator: Adobe Illustrator 17.0.0, SVG Export Plug-In . SVG Version: 6.00 Build 0)  -->
<!DOCTYPE svg PUBLIC "-//W3C//DTD SVG 1.1//EN" "http://www.w3.org/Graphics/SVG/1.1/DTD/svg11.dtd">
<svg version="1.1" id="Layer_1" xmlns="http://www.w3.org/2000/svg" xmlns:xlink="http://www.w3.org/1999/xlink" x="0px" y="0px"
	 width="96px" height="96px" viewBox="0 0 96 96" enable-background="new 0 0 96 96" xml:space="preserve">
<path d="M48,4C23.7,4,4,23.699,4,48s19.7,44,44,44s44-19.699,44-44S72.3,4,48,4z M48,84c-19.882,0-36-16.118-36-36s16.118-36,36-36
	s36,16.118,36,36S67.882,84,48,84z"/>
<path d="M64,51H52v-4h12c2.209,0,4-1.791,4-4c0-2.209-1.791-4-4-4H53.657l8.485-8.484c1.562-1.562,1.562-4.096,0-5.656
	c-1.562-1.562-4.097-1.562-5.658,0L48,33.343l-8.484-8.483c-1.562-1.562-4.096-1.562-5.658,0c-1.562,1.562-1.562,4.096,0,5.656
	L42.343,39H32c-2.209,0-4,1.791-4,4c0,2.209,1.791,4,4,4h12v4H32c-2.209,0-4,1.791-4,4c0,2.209,1.791,4,4,4h12v12
	c0,2.209,1.791,4,4,4s4-1.791,4-4V59h12c2.209,0,4-1.791,4-4C68,52.791,66.209,51,64,51z"/>
</svg>
