<?xml version="1.0" encoding="utf-8"?>
<!-- Generator: Adobe Illustrator 24.0.1, SVG Export Plug-In . SVG Version: 6.00 Build 0)  -->
<svg version="1.1" id="Layer_1" xmlns="http://www.w3.org/2000/svg" xmlns:xlink="http://www.w3.org/1999/xlink" x="0px" y="0px"
	 viewBox="0 0 96 96" style="enable-background:new 0 0 96 96;" xml:space="preserve">
<style type="text/css">
	.st0{fill:#091F42;}
</style>
<g>
	<path class="st0" d="M75.1,19.7c-0.2,0.2-0.3,0.4-0.4,0.6c0,0.1-0.1,0.1-0.1,0.2c-0.1,0.2-0.2,0.4-0.3,0.6c0,0,0,0.1,0,0.1
		c-0.3,0.5-0.5,1.1-0.6,1.7c0,0,0,0,0,0c-0.2,1-0.2,2-0.1,3.1c0.6,3,2.9,5.3,5.9,5.9c0.2,0,0.4,0.1,0.7,0.1c0,0,0,0,0,0
		c0.3,0,0.5,0,0.8,0c2.6,0,4.9-1.4,6.2-3.4c0,0,0,0,0,0c0-0.1,0.1-0.1,0.2-0.2c0,0,0,0,0,0c0.9-1.6,1.3-3.4,0.9-5.3
		c-0.6-3-2.9-5.3-5.9-5.9c-0.5-0.1-1-0.1-1.4-0.1c-0.5,0-1.1,0.1-1.6,0.2c0,0,0,0,0,0c-0.5,0.1-1,0.3-1.5,0.5c0,0,0,0,0,0
		C76.7,18.1,75.9,18.8,75.1,19.7C75.2,19.6,75.2,19.6,75.1,19.7C75.1,19.6,75.1,19.6,75.1,19.7z"/>
	<path class="st0" d="M89.9,34.5c-2.1,1.8-4.6,3-7.4,3.3c0.6,2,1,4.1,1.3,6.2H70.6c-0.5-11.3-3.3-21.4-7.4-28.6
		c1.9,0.9,3.8,2,5.5,3.2c0.5-1,1.1-1.9,1.8-2.8c1.1-1.3,2.3-2.3,3.7-3.1C66.9,7.2,57.8,4,48,4C23.7,4,4,23.7,4,48s19.7,44,44,44
		c24.3,0,44-19.7,44-44C92,43.3,91.2,38.7,89.9,34.5z M48,12c2.8,0,6.2,3.3,8.9,8.5c3.2,6.2,5.2,14.6,5.6,23.5H48V12z M48,84V52
		h14.5C61.5,71.4,53.5,84,48,84z M63.2,80.6c4.1-7.2,6.8-17.3,7.4-28.6h13.2C82.4,64.7,74.3,75.4,63.2,80.6z"/>
</g>
</svg>
