<svg xmlns="http://www.w3.org/2000/svg" width="24" height="24" viewBox="0 0 24 24">
  <path fill="#526075" fill-rule="evenodd" d="M3.76404494,11.3033708 C3.42696629,11.3033708 3.13483146,11.0337079 3.13483146,10.6966292 L3.13483146,8.92134831 C3.13483146,7.93258427 3.69662921,6.98876404 4.59550562,6.47191011 L7.04494382,5.03370787 C7.33707865,4.85393258 7.71910112,4.96629213 7.8988764,5.25842697 C8.07865169,5.5505618 7.96629213,5.93258427 7.6741573,6.08988764 L5.24719101,7.48314607 C4.73033708,7.7752809 4.39325843,8.31460674 4.39325843,8.87640449 L4.39325843,10.6516854 C4.39325843,11.0337079 4.1011236,11.3033708 3.76404494,11.3033708 Z M9.65168539,4.96629213 L12.7977528,3.14606742 C13.0898876,2.96629213 13.2022472,2.60674157 13.0224719,2.31460674 C12.8426966,2.02247191 12.4606742,1.93258427 12.1685393,2.08988764 L9.02247191,3.91011236 C8.73033708,4.08988764 8.61797753,4.4494382 8.79775281,4.74157303 C8.91011236,4.94382022 9.13483146,5.05617978 9.33707865,5.05617978 C9.4494382,5.05617978 9.53932584,5.03370787 9.65168539,4.96629213 Z M6.28089888,14.7191011 C6.61797753,14.7191011 6.91011236,14.4494382 6.91011236,14.1123596 L6.91011236,10.4044944 C6.91011236,9.82022472 7.2247191,9.25842697 7.76404494,8.94382022 L11.3146067,6.8988764 C11.6067416,6.71910112 11.7191011,6.35955056 11.5393258,6.06741573 C11.3595506,5.7752809 10.9775281,5.68539326 10.6853933,5.84269663 L7.11235955,7.88764045 C6.21348315,8.40449438 5.65168539,9.37078652 5.65168539,10.4044944 L5.65168539,14.1123596 C5.65168539,14.4269663 5.92134831,14.7191011 6.28089888,14.7191011 C6.28089888,14.7191011 6.28089888,14.7191011 6.28089888,14.7191011 Z M9.38202247,19.7303371 L9.38202247,11.8651685 C9.38202247,11.2808989 9.69662921,10.7191011 10.2359551,10.4044944 L11.1573034,9.86516854 C11.4494382,9.68539326 11.5617978,9.3258427 11.3820225,9.03370787 C11.2022472,8.74157303 10.8202247,8.65168539 10.5280899,8.80898876 L9.60674157,9.34831461 C8.70786517,9.86516854 8.14606742,10.8314607 8.14606742,11.8651685 L8.14606742,19.7303371 C8.14606742,20.0674157 8.41573034,20.3370787 8.7752809,20.3370787 C9.08988764,20.3370787 9.38202247,20.0674157 9.38202247,19.7303371 Z M11.9213483,16.0674157 L11.9213483,13.3033708 C11.9213483,12.7191011 12.2359551,12.1573034 12.7752809,11.8426966 L20.3483146,7.48314607 C20.6404494,7.30337079 20.752809,6.94382022 20.5730337,6.65168539 C20.3932584,6.35955056 20.011236,6.26966292 19.7191011,6.42696629 L12.1460674,10.8089888 C11.247191,11.3258427 10.6853933,12.2921348 10.6853933,13.3258427 L10.6853933,16.0898876 C10.6853933,16.4269663 10.9550562,16.6966292 11.3146067,16.6966292 C11.6516854,16.6966292 11.9213483,16.4269663 11.9213483,16.0674157 Z M14.3932584,20.2696629 L14.3932584,14.7640449 C14.3932584,14.0224719 14.505618,13.7752809 14.9325843,13.5280899 C14.9325843,13.5280899 14.9325843,13.5280899 14.9325843,13.5280899 L16.2359551,12.741573 C16.5280899,12.5617978 16.6179775,12.1797753 16.4382022,11.8876404 C16.258427,11.5955056 15.8764045,11.505618 15.5842697,11.6853933 L14.3033708,12.4494382 C13.2921348,13.0337079 13.1348315,13.9101124 13.1348315,14.7640449 L13.1348315,20.2696629 C13.1348315,20.6067416 13.4044944,20.8764045 13.7640449,20.8764045 C14.1235955,20.8764045 14.3932584,20.6067416 14.3932584,20.2696629 Z M16.9325843,18.8314607 L16.9325843,16.2022472 C16.9325843,15.4831461 17.0898876,15.1685393 17.5168539,14.9213483 L20.3258427,13.3258427 C20.6179775,13.1460674 20.7303371,12.7865169 20.5505618,12.494382 C20.3707865,12.2022472 19.988764,12.0898876 19.6966292,12.2696629 L16.8876404,13.8651685 C15.8089888,14.494382 15.6741573,15.4382022 15.6741573,16.2247191 L15.6741573,18.8539326 C15.6741573,19.1910112 15.9438202,19.4606742 16.3033708,19.4606742 C16.6629213,19.4606742 16.9325843,19.1685393 16.9325843,18.8314607 Z M19.2247191,17.2134831 L20.3483146,16.5842697 C20.6404494,16.4269663 20.752809,16.0449438 20.5955056,15.752809 C20.4157303,15.4606742 20.0337079,15.3483146 19.741573,15.5280899 L18.6179775,16.1573034 C18.3258427,16.3146067 18.2134831,16.6966292 18.3707865,16.988764 C18.4831461,17.1910112 18.7078652,17.3033708 18.9101124,17.3033708 C19.0224719,17.3033708 19.1123596,17.2808989 19.2247191,17.2134831 Z M4.39325843,16.8314607 L4.39325843,12.8988764 C4.39325843,12.5617978 4.12359551,12.2921348 3.76404494,12.2921348 C3.40449438,12.2921348 3.13483146,12.5617978 3.13483146,12.8988764 L3.13483146,16.8314607 C3.13483146,17.1685393 3.40449438,17.4382022 3.76404494,17.4382022 C4.12359551,17.4382022 4.39325843,17.1685393 4.39325843,16.8314607 Z M13.4269663,5.68539326 L15.2921348,4.60674157 C15.5842697,4.42696629 15.6966292,4.06741573 15.5168539,3.7752809 C15.3370787,3.48314607 14.9550562,3.39325843 14.6629213,3.5505618 L12.7977528,4.62921348 C12.505618,4.80898876 12.3932584,5.16853933 12.5730337,5.46067416 C12.6853933,5.66292135 12.9101124,5.7752809 13.1123596,5.7752809 C13.2022472,5.7752809 13.3146067,5.73033708 13.4269663,5.68539326 Z M13.247191,8.6741573 L17.741573,6.08988764 C18.0337079,5.91011236 18.1460674,5.5505618 17.9662921,5.25842697 C17.7865169,4.96629213 17.4044944,4.87640449 17.1123596,5.03370787 L12.6179775,7.61797753 C12.3258427,7.79775281 12.2134831,8.15730337 12.3932584,8.4494382 C12.505618,8.65168539 12.7303371,8.76404494 12.9325843,8.76404494 C13.0449438,8.74157303 13.1348315,8.71910112 13.247191,8.6741573 Z M18.1235955,11.6404494 L20.3483146,10.3595506 C20.6404494,10.1797753 20.752809,9.82022472 20.5730337,9.52808989 C20.3932584,9.23595506 20.011236,9.14606742 19.7191011,9.30337079 L17.494382,10.5842697 C17.2022472,10.7640449 17.0898876,11.1235955 17.2696629,11.4157303 C17.3820225,11.6179775 17.6067416,11.7303371 17.8089888,11.7303371 C17.9213483,11.7303371 18.011236,11.7078652 18.1235955,11.6404494 Z M6.91011236,18.2921348 L6.91011236,16.247191 C6.91011236,15.9101124 6.64044944,15.6404494 6.28089888,15.6404494 C5.94382022,15.6404494 5.65168539,15.9101124 5.65168539,16.247191 L5.65168539,18.2921348 C5.65168539,18.6292135 5.92134831,18.8988764 6.28089888,18.8988764 C6.61797753,18.8988764 6.91011236,18.6292135 6.91011236,18.2921348 Z M11.9213483,21.2134831 L11.9213483,18 C11.9213483,17.6629213 11.6516854,17.3932584 11.2921348,17.3932584 C10.9550562,17.3932584 10.6629213,17.6629213 10.6629213,18 L10.6629213,21.1910112 C10.6629213,21.5280899 10.9325843,21.7977528 11.2921348,21.7977528 C11.6516854,21.8202247 11.9213483,21.5505618 11.9213483,21.2134831 Z"/>
</svg>
