<?xml version="1.0" encoding="utf-8"?>
<!-- Generator: Adobe Illustrator 17.0.0, SVG Export Plug-In . SVG Version: 6.00 Build 0)  -->
<!DOCTYPE svg PUBLIC "-//W3C//DTD SVG 1.1//EN" "http://www.w3.org/Graphics/SVG/1.1/DTD/svg11.dtd">
<svg version="1.1" id="Layer_1" xmlns="http://www.w3.org/2000/svg" xmlns:xlink="http://www.w3.org/1999/xlink" x="0px" y="0px"
	 width="96px" height="96px" viewBox="0 0 96 96" enable-background="new 0 0 96 96" xml:space="preserve">
<path d="M90.8,85.2L68.1,62.5c4.9-6.2,7.9-14,7.9-22.5C76,20.1,59.9,4,40,4C20.1,4,4,20.1,4,40s16.1,36,36,36
	c8.5,0,16.3-2.9,22.5-7.9l22.7,22.7C86,91.6,87,92,88,92c1,0,2-0.4,2.8-1.2C92.4,89.3,92.4,86.7,90.8,85.2z M40,68
	c-15.5,0-28-12.5-28-28s12.5-28,28-28c15.5,0,28,12.5,28,28S55.5,68,40,68z"/>
</svg>
