<?xml version="1.0" encoding="utf-8"?>
<!-- Generator: Adobe Illustrator 17.0.0, SVG Export Plug-In . SVG Version: 6.00 Build 0)  -->
<!DOCTYPE svg PUBLIC "-//W3C//DTD SVG 1.1//EN" "http://www.w3.org/Graphics/SVG/1.1/DTD/svg11.dtd">
<svg version="1.1" id="Layer_1" xmlns="http://www.w3.org/2000/svg" xmlns:xlink="http://www.w3.org/1999/xlink" x="0px" y="0px"
	 width="96px" height="96px" viewBox="0 0 96 96" enable-background="new 0 0 96 96" xml:space="preserve">
<path d="M72,56c-4.8,0-9.1,2.1-12.1,5.5L39.6,51.3c0.2-1.1,0.4-2.2,0.4-3.3s-0.1-2.3-0.4-3.3l20.3-10.2C62.9,37.9,67.2,40,72,40
	c8.8,0,16-7.2,16-16S80.8,8,72,8s-16,7.2-16,16c0,1.1,0.1,2.3,0.4,3.3L36.1,37.5C33.1,34.1,28.8,32,24,32c-8.8,0-16,7.2-16,16
	s7.2,16,16,16c4.8,0,9.1-2.1,12.1-5.5l20.3,10.2C56.1,69.7,56,70.9,56,72c0,8.8,7.2,16,16,16s16-7.2,16-16S80.8,56,72,56z M72,16
	c4.4,0,8,3.6,8,8s-3.6,8-8,8s-8-3.6-8-8S67.6,16,72,16z M24,56c-4.4,0-8-3.6-8-8s3.6-8,8-8s8,3.6,8,8S28.4,56,24,56z M72,80
	c-4.4,0-8-3.6-8-8s3.6-8,8-8s8,3.6,8,8S76.4,80,72,80z"/>
</svg>
