<?xml version="1.0" encoding="utf-8"?>
<!-- Generator: Adobe Illustrator 24.0.1, SVG Export Plug-In . SVG Version: 6.00 Build 0)  -->
<svg version="1.1" id="Layer_1" xmlns="http://www.w3.org/2000/svg" xmlns:xlink="http://www.w3.org/1999/xlink" x="0px" y="0px"
	 viewBox="0 0 96 96" style="enable-background:new 0 0 96 96;" xml:space="preserve">
<style type="text/css">
	.st0{fill:#091F42;}
</style>
<g>
	<path class="st0" d="M58.7,31.5c-0.4-0.6-1-1-1.7-1H39c-0.7,0-1.4,0.4-1.7,1l-9,15.5c-0.4,0.6-0.4,1.4,0,2l9,15.5
		c0.4,0.6,1,1,1.7,1H57c0.7,0,1.4-0.4,1.7-1l9-15.5c0.4-0.6,0.4-1.4,0-2L58.7,31.5z M54.6,48.5l-2.9,5c-0.2,0.3-0.5,0.5-0.9,0.5
		h-5.8c-0.4,0-0.7-0.2-0.9-0.5l-2.9-5c-0.2-0.3-0.2-0.7,0-1l2.9-5c0.2-0.3,0.5-0.5,0.9-0.5h5.8c0.4,0,0.7,0.2,0.9,0.5l2.9,5
		C54.8,47.8,54.8,48.2,54.6,48.5z"/>
	<path class="st0" d="M91.5,46l-20-35c-0.7-1.2-2-2-3.5-2H28c-1.4,0-2.8,0.8-3.5,2l-20,35c-0.7,1.2-0.7,2.7,0,4l20,35
		c0.7,1.2,2,2,3.5,2h40c1.4,0,2.8-0.8,3.5-2l20-35C92.2,48.8,92.2,47.2,91.5,46z M74.7,50.8l-11,19c-1,1.7-2.8,2.7-4.8,2.7H37
		c-2,0-3.8-1.1-4.8-2.7l-11-19c-1-1.7-1-3.8,0-5.5l11-19c1-1.7,2.8-2.7,4.8-2.7h22c2,0,3.8,1.1,4.8,2.7l11,19
		C75.7,46.9,75.7,49,74.7,50.8z"/>
</g>
</svg>
