<?xml version="1.0" encoding="UTF-8"?>
<svg width="16px" height="16px" viewBox="0 0 16 16" version="1.1" xmlns="http://www.w3.org/2000/svg" xmlns:xlink="http://www.w3.org/1999/xlink">
    <!-- Generator: Sketch 60.1 (88133) - https://sketch.com -->
    <title>画板备份 3</title>
    <desc>Created with Sketch.</desc>
    <g id="画板备份-3" stroke="none" stroke-width="1" fill="none" fill-rule="evenodd">
        <g id="编组" transform="translate(1.000000, 0.000000)" fill="#0A1633">
            <path d="M8.40753631,7.45994723 C8.24061829,7.6291119 8.16455939,7.87304867 8.20413218,8.1120391 L8.41149359,9.36840827 L7.32791149,8.77567242 C7.12197469,8.66240135 6.87551537,8.66240135 6.66949943,8.77567242 L5.58599647,9.36923266 L5.79335788,8.11286349 C5.83308896,7.87387306 5.75695092,7.62985385 5.58995375,7.46077162 L4.71302075,6.57043126 L5.92394809,6.38659247 C6.15418257,6.35130861 6.35331284,6.20110489 6.45738928,5.98429053 L6.99874503,4.84086268 L7.54010078,5.98346614 C7.64314832,6.20094001 7.8422786,6.3517208 8.07275052,6.38659247 L9.28446931,6.57043126 L8.40753631,7.45994723 Z M10.3925074,5.50037406 L8.48581129,5.21183783 L7.6318305,3.41219616 C7.51429932,3.15960331 7.26823572,2.99942448 6.99874503,3 C6.72917519,2.99942448 6.48319074,3.15960331 6.36558041,3.41219616 L5.51159963,5.21183783 L3.60498266,5.50037406 C3.21835652,5.55948276 2.95084446,5.93383791 3.00759184,6.33655204 C3.03006919,6.49631867 3.1023291,6.64396678 3.21321205,6.75674323 L4.59271947,8.1582049 L4.267352,10.136739 C4.19999912,10.5372273 4.45706395,10.9187546 4.84155317,10.9889926 C4.99699508,11.0172692 5.15710658,10.9907238 5.29624451,10.9133137 L6.99874503,9.97763191 L8.70433223,10.9108405 C9.04790318,11.1027583 9.47584332,10.968218 9.66009422,10.6103506 C9.73488679,10.4649284 9.76068825,10.2975774 9.73322473,10.1350902 L9.40714496,8.15655612 L10.7873647,6.75509445 C11.0666694,6.47035041 11.0714182,6.00374611 10.7980493,5.7129016 C10.6889076,5.59674516 10.5460498,5.52147842 10.3916368,5.49872528 L10.3925074,5.50037406 Z" id="Fill-1"></path>
            <g id="Fill-3">
                <path d="M12.497276,8.42156 C11.8011866,11.39924 9.9443486,13.53676 6.97235978,14.78076 C4.00029274,13.53676 2.14353296,11.39924 1.44978994,8.42156 C1.16673966,7.16972 1.09478436,5.87748 1.23705251,4.60076 C2.50018101,4.47444 3.19235978,3.32716 3.46375642,2.47676 L6.97235978,1.21036 L10.480181,2.47996 C10.7507955,3.33036 11.4437564,4.47996 12.7075888,4.60396 C12.8495441,5.87964 12.7775888,7.17068 12.4949296,8.42156 L12.497276,8.42156 Z M13.7767508,3.87676 C13.7144156,3.57324 13.4337899,3.3702 13.1331419,3.41124 C11.9099017,3.57124 11.5454324,1.96156 11.5305721,1.89516 C11.4882592,1.69316 11.3463821,1.52804 11.1559352,1.45924 L7.20691844,0.03356 C7.13167821,0.00668 7.05190168,-0.0042 6.97235978,0.00156 C6.89281788,-0.0042 6.81296313,0.00668 6.73772291,0.03356 L2.79113073,1.45924 C2.60060559,1.52804 2.45872849,1.69316 2.41649385,1.89516 C2.40241564,1.96396 2.05046034,3.57516 0.813924022,3.41516 C0.513823464,3.373 0.232415642,3.57404 0.167890503,3.87676 C0.149901676,3.96644 -0.277919553,6.09516 0.306326257,8.65036 C0.853812291,11.02884 2.40397989,14.22796 6.71973408,15.95924 C6.78738771,15.98588 6.85918659,15.99972 6.93168939,15.99996 L7.00990168,15.99996 C7.08240447,15.99972 7.15428156,15.98588 7.22185698,15.95924 C11.5360469,14.22796 13.0877788,11.02884 13.6352648,8.65036 C14.2202927,6.09516 13.7924715,3.96644 13.7767508,3.87676 L13.7767508,3.87676 Z"></path>
            </g>
        </g>
    </g>
</svg>