<?xml version="1.0" encoding="UTF-8"?>
<svg width="16px" height="16px" viewBox="0 0 16 16" version="1.1" xmlns="http://www.w3.org/2000/svg" xmlns:xlink="http://www.w3.org/1999/xlink">
    <!-- Generator: Sketch 60.1 (88133) - https://sketch.com -->
    <title>画板</title>
    <desc>Created with Sketch.</desc>
    <g id="画板" stroke="none" stroke-width="1" fill="none" fill-rule="evenodd">
        <path d="M5.54152735,2.65367274 C5.69764859,2.4975515 6.00979399,2.57561212 6.08785461,2.73173337 L7.64877575,4.99510301 L7.57071513,5.30734549 L6.71214539,6.0096969 C5.77561212,6.71214539 8.27316363,10.2243879 9.28785461,9.67806062 L10.2243879,9.05367274 L10.5365333,9.05367274 L12.0975515,11.2389818 C12.2536727,11.395103 12.1756121,11.6292849 12.0193938,11.785309 C11.9414303,11.8633696 12.0193938,11.9415274 12.0975515,11.9415274 C12.6438788,12.2536727 12.6438788,12.9561212 12.7219394,13.3463273 C12.8,14.1267393 12.3316363,14.7512242 11.4731636,15.2194909 C10.3805091,15.6878546 9.2096969,16 7.96092114,16 C3.59020601,16 0,12.409794 0,7.96101823 C0,3.59020601 3.5903031,0 7.96092114,0 C12.4096969,0 16,3.5903031 16,7.96101823 C16,9.75612124 15.3756121,11.395103 14.4389818,12.7219394 C14.0487758,13.190206 13.4243879,12.7999029 13.8926545,12.0975515 C14.7512242,10.9267393 15.2194909,9.52193938 15.2194909,7.96092114 C15.2194909,3.98050912 11.9415274,0.780509117 7.96101823,0.780509117 C3.98050912,0.780509117 0.780509117,3.98050912 0.780509117,7.96092114 C0.780509117,11.9414303 3.98050912,15.2194909 7.96101823,15.2194909 C9.05367274,15.2194909 9.99020601,14.985309 10.8487758,14.595103 C11.4732607,14.2829576 11.9415274,13.7365333 11.785309,13.3462302 C11.7073455,12.9560242 11.3170424,12.3316363 11.004897,12.4096969 C10.0683637,12.6438788 7.96101823,13.0341819 5.54152735,9.59990291 C2.57561212,5.61949088 4.29265451,3.5903031 4.68295761,3.2 L5.54152735,2.65367274 Z" id="Fill-1" fill="#0A1633"></path>
    </g>
</svg>