<?xml version="1.0" encoding="UTF-8"?>
<svg width="16px" height="16px" viewBox="0 0 16 16" version="1.1" xmlns="http://www.w3.org/2000/svg" xmlns:xlink="http://www.w3.org/1999/xlink">
    <!-- Generator: Sketch 60.1 (88133) - https://sketch.com -->
    <title>画板备份 2</title>
    <desc>Created with Sketch.</desc>
    <g id="画板备份-2" stroke="none" stroke-width="1" fill="none" fill-rule="evenodd">
        <path d="M4.5,14.0294118 C4.224,14.0294118 4,14.2402353 4,14.5 C4,14.7597647 4.224,14.9705882 4.5,14.9705882 L11.5,14.9705882 C11.776,14.9705882 12,14.7597647 12,14.5 C12,14.2402353 11.776,14.0294118 11.5,14.0294118 L4.5,14.0294118 Z M15.0588235,10.1764706 C15.0588235,10.8258824 14.5328941,11.3529412 13.8823529,11.3529412 L2.11764706,11.3529412 C1.46701176,11.3529412 0.941176471,10.8258824 0.941176471,10.1764706 L0.941176471,3.11764706 C0.941176471,2.46701176 1.46701176,1.94117647 2.11764706,1.94117647 L13.8823529,1.94117647 C14.5328941,1.94117647 15.0588235,2.46701176 15.0588235,3.11764706 L15.0588235,10.1764706 Z M2.28571429,1 C1.024,1 0,2.01195294 0,3.25882353 L0,10.0352941 C0,11.2821647 1.024,12.2941176 2.28571429,12.2941176 L13.7142857,12.2941176 C14.976,12.2941176 16,11.2821647 16,10.0352941 L16,3.25882353 C16,2.01195294 14.976,1 13.7142857,1 L2.28571429,1 Z" id="Fill-1" fill="#0A1633"></path>
    </g>
</svg>