<?xml version="1.0" encoding="UTF-8"?>
<svg width="16px" height="16px" viewBox="0 0 16 16" version="1.1" xmlns="http://www.w3.org/2000/svg" xmlns:xlink="http://www.w3.org/1999/xlink">
    <!-- Generator: Sketch 60.1 (88133) - https://sketch.com -->
    <title>画板备份</title>
    <desc>Created with Sketch.</desc>
    <g id="画板备份" stroke="none" stroke-width="1" fill="none" fill-rule="evenodd">
        <g id="编组" fill="#0A1633">
            <path d="M13.9952786,4.54356846 C13.7039635,3.47245547 12.4638485,0 7.98180237,0 C3.5354634,0 2.25964121,3.47315306 2.0047979,4.54426606 C1.1666364,4.87577704 0,5.76303592 0,7.50003876 C0,9.19929414 1.1666364,10.1604977 1.96832618,10.5296011 C2.07758843,11.1947159 2.40522226,12.6725247 3.82670197,13.559086 C4.84760439,14.2242783 6.08634317,14.3718576 6.92442822,14.4087524 C7.10648099,14.7778559 7.47135116,15 7.87254012,15 C8.49156544,15 8.96562139,14.5202121 8.96562139,13.8919922 C8.96562139,13.3006671 8.49225358,12.7832867 7.87254012,12.7832867 C7.43495589,12.7832867 7.07077388,13.0416281 6.88803295,13.4484015 C6.15982185,13.4114291 5.13891942,13.2638498 4.30075792,12.7463144 C2.9521452,11.8966479 2.87935467,10.2342874 2.87935467,10.1604977 L2.87935467,4.98723666 C2.9521452,4.54426606 3.75391144,0.996548214 7.98180237,0.996548214 C12.2090052,0.996548214 13.0114595,4.5804633 13.0842501,4.98723666 L13.0842501,10.196695 C13.0842501,10.3442743 13.1571171,10.4919312 13.2663028,10.6026157 C13.3391698,10.6764829 13.4484321,10.7133777 13.5575414,10.7133777 C13.5940131,10.7133777 13.6668037,10.7133777 13.7032754,10.6764829 C14.5057298,10.418064 16,9.45771304 16,7.53615849 C16,5.76303592 14.7969683,4.87647463 13.9952786,4.54356846" id="Fill-1"></path>
        </g>
    </g>
</svg>