<?xml version="1.0" encoding="utf-8"?>
<!-- Generator: Adobe Illustrator 17.0.0, SVG Export Plug-In . SVG Version: 6.00 Build 0)  -->
<!DOCTYPE svg PUBLIC "-//W3C//DTD SVG 1.1//EN" "http://www.w3.org/Graphics/SVG/1.1/DTD/svg11.dtd">
<svg version="1.1" id="Layer_1" xmlns="http://www.w3.org/2000/svg" xmlns:xlink="http://www.w3.org/1999/xlink" x="0px" y="0px"
	 width="96px" height="96px" viewBox="0 0 96 96" enable-background="new 0 0 96 96" xml:space="preserve">
<g>
	<path d="M60,24H20c-2.209,0-4,1.791-4,4c0,2.209,1.791,4,4,4h40c2.209,0,4-1.791,4-4C64,25.791,62.209,24,60,24z"/>
	<path d="M64,48c0-2.209-1.791-4-4-4H20c-2.209,0-4,1.791-4,4c0,2.209,1.791,4,4,4h40C62.209,52,64,50.209,64,48z"/>
	<path d="M20,64c-2.209,0-4,1.791-4,4c0,2.209,1.791,4,4,4h24c2.209,0,4-1.791,4-4c0-2.209-1.791-4-4-4H20z"/>
	<path d="M94.915,33.261c-1.512-1.609-4.043-1.689-5.653-0.177l-33,31c-1.61,1.512-1.689,4.044-0.177,5.653
		C56.872,70.577,57.935,71,59.001,71c0.981,0,1.966-0.359,2.737-1.085l33-31C96.349,37.403,96.428,34.872,94.915,33.261z"/>
	<path d="M76,64c-2.209,0-4,1.791-4,4v12.121C72,84.466,68.976,88,65.258,88H14.742C11.024,88,8,84.466,8,80.121V15.878
		C8,11.534,11.024,8,14.742,8h50.516C68.976,8,72,11.534,72,15.878V36c0,2.209,1.791,4,4,4s4-1.791,4-4V15.878
		C80,7.123,73.387,0,65.258,0H14.742C6.613,0,0,7.123,0,15.878v64.243C0,88.877,6.613,96,14.742,96h50.516
		C73.387,96,80,88.877,80,80.121V68C80,65.791,78.209,64,76,64z"/>
</g>
</svg>
