<?xml version="1.0" encoding="utf-8"?>
<!-- Generator: Adobe Illustrator 21.0.0, SVG Export Plug-In . SVG Version: 6.00 Build 0)  -->
<svg version="1.1" id="Layer_1" xmlns="http://www.w3.org/2000/svg" xmlns:xlink="http://www.w3.org/1999/xlink" x="0px" y="0px"
	 viewBox="0 0 96 96" style="enable-background:new 0 0 96 96;" xml:space="preserve">
<g>
	<circle cx="50.3" cy="40.1" r="7.9"/>
	<path d="M87.5,40.4c0-20.8-17-37.8-37.8-37.8c-20.8,0-37.8,17-37.8,37.8c0,19.6,14.9,35.7,34,37.6v7.3H33.5c-2.1,0-3.8,1.7-3.8,3.8
		c0,2.1,1.7,3.8,3.8,3.8h32.3c2.1,0,3.8-1.7,3.8-3.8c0-2.1-1.7-3.8-3.8-3.8H53.5V78C72.6,76.1,87.5,60,87.5,40.4z M49.7,70.6
		c-16.7,0-30.2-13.5-30.2-30.2c0-16.7,13.6-30.2,30.2-30.2c16.6,0,30.2,13.5,30.2,30.2C79.9,57.1,66.3,70.6,49.7,70.6z"/>
</g>
</svg>
