<?xml version="1.0" encoding="utf-8"?>
<!-- Generator: Adobe Illustrator 24.0.1, SVG Export Plug-In . SVG Version: 6.00 Build 0)  -->
<svg version="1.1" id="Layer_1" xmlns="http://www.w3.org/2000/svg" xmlns:xlink="http://www.w3.org/1999/xlink" x="0px" y="0px"
	 viewBox="0 0 96 96" style="enable-background:new 0 0 96 96;" xml:space="preserve">
<style type="text/css">
	.st0{fill:#091F42;}
</style>
<path class="st0" d="M82,23L50,4.5c-1.2-0.7-2.8-0.7-4,0L14,23c-1.2,0.7-2,2-2,3.5v43c0,1.4,0.8,2.7,2,3.5l32,18.5
	c1.2,0.7,2.8,0.7,4,0L82,73c1.2-0.7,2-2,2-3.5v-43C84,25.1,83.2,23.8,82,23z M47.2,34L47,74.4L37.8,69V38.4L24.7,46V35.2l24.5-13.5
	l10.3,5.6L47.2,34z M64.8,69.5l-10.2,4.8V38.5l10.2-5.4V69.5z"/>
</svg>
