<?xml version="1.0" encoding="utf-8"?>
<!-- Generator: Adobe Illustrator 17.0.0, SVG Export Plug-In . SVG Version: 6.00 Build 0)  -->
<!DOCTYPE svg PUBLIC "-//W3C//DTD SVG 1.1//EN" "http://www.w3.org/Graphics/SVG/1.1/DTD/svg11.dtd">
<svg version="1.1" id="Layer_1" xmlns="http://www.w3.org/2000/svg" xmlns:xlink="http://www.w3.org/1999/xlink" x="0px" y="0px"
	 width="96px" height="96px" viewBox="0 0 96 96" enable-background="new 0 0 96 96" xml:space="preserve">
<path d="M48,4C23.7,4,4,23.699,4,48c0,24.301,19.7,44,44,44s44-19.699,44-44C92,23.699,72.3,4,48,4z M48,84
	c-19.882,0-36-16.118-36-36c0-19.882,16.118-36,36-36s36,16.118,36,36C84,67.882,67.882,84,48,84z"/>
<path d="M64,44H52V32c0-2.209-1.791-4-4-4s-4,1.791-4,4v4v8v8h8h12c2.209,0,4-1.791,4-4C68,45.791,66.209,44,64,44z"/>
</svg>
