<?xml version="1.0" encoding="utf-8"?>
<!-- Generator: Adobe Illustrator 24.0.1, SVG Export Plug-In . SVG Version: 6.00 Build 0)  -->
<svg version="1.1" id="Layer_1" xmlns="http://www.w3.org/2000/svg" xmlns:xlink="http://www.w3.org/1999/xlink" x="0px" y="0px"
	 viewBox="0 0 96 96" style="enable-background:new 0 0 96 96;" xml:space="preserve">
<style type="text/css">
	.st0{fill-rule:evenodd;clip-rule:evenodd;fill:#091530;}
</style>
<path class="st0" d="M39,16.5c1.1,0,2,0.9,2,2v12c0,1.1-0.9,2-2,2H13c-1.1,0-2-0.9-2-2v-12c0-1.1,0.9-2,2-2H39z M39,39.5
	c1.1,0,2,0.9,2,2v12c0,1.1-0.9,2-2,2H10c-1.1,0-2-0.9-2-2v-12c0-1.1,0.9-2,2-2H39z M39,62.5c1.1,0,2,0.9,2,2v12c0,1.1-0.9,2-2,2H13
	c-1.1,0-2-0.9-2-2v-12c0-1.1,0.9-2,2-2H39z M58.5,9.5c5.7,0,10.4,4.6,10.5,10.2c0.6-0.1,1.3-0.2,2-0.2c5,0,9,4,9,9
	c0,1.1-0.2,2.1-0.5,3.1C84.6,35.2,88,41.2,88,48c0,5.1-1.9,9.8-5.1,13.3c0,0.4,0.1,0.8,0.1,1.2c0,6.6-5.4,12-12,12c-0.4,0-0.7,0-1,0
	c0,0.3,0,0.7,0,1c0,6.1-4.9,11-11,11s-11-4.9-11-11v-56l0,0C48.3,13.9,52.9,9.5,58.5,9.5z"/>
</svg>
