<?xml version="1.0" encoding="utf-8"?>
<!-- Generator: Adobe Illustrator 24.0.1, SVG Export Plug-In . SVG Version: 6.00 Build 0)  -->
<svg version="1.1" id="Layer_1" xmlns="http://www.w3.org/2000/svg" xmlns:xlink="http://www.w3.org/1999/xlink" x="0px" y="0px"
	 viewBox="0 0 96 96" style="enable-background:new 0 0 96 96;" xml:space="preserve">
<style type="text/css">
	.st0{fill:#091F42;}
</style>
<path class="st0" d="M48,4C23.7,4,4,23.7,4,48s19.7,44,44,44s44-19.7,44-44S72.3,4,48,4z M36,69.2c0,2.2-1.8,4-4,4c-2.2,0-4-1.8-4-4
	v-15c0-0.6,0.4-1,1-1h6c0.6,0,1,0.4,1,1V69.2z M52,69.2c0,2.2-1.8,4-4,4c-2.2,0-4-1.8-4-4v-15c0-0.6,0.4-1,1-1h6c0.6,0,1,0.4,1,1
	V69.2z M68,69.2c0,2.2-1.8,4-4,4c-2.2,0-4-1.8-4-4v-15c0-0.6,0.4-1,1-1h6c0.6,0,1,0.4,1,1V69.2z M70,43.8c0,1.1-0.9,2-2,2H28
	c-1.1,0-2-0.9-2-2v-4c0-1.1,0.9-2,2-2h16v-11c0-2.2,1.8-4,4-4c2.2,0,4,1.8,4,4v11h16c1.1,0,2,0.9,2,2V43.8z"/>
</svg>
