<svg xmlns="http://www.w3.org/2000/svg" width="24" height="24" viewBox="0 0 24 24">
  <path fill="#526075" fill-rule="evenodd" d="M20.6306711,2.41875932 C20.5933234,2.3814007 20.5466386,2.36505628 20.4976197,2.36505628 C20.4486007,2.36505628 20.401916,2.3837356 20.3645683,2.41875932 L18.5882149,4.19562906 C17.8159976,3.67226501 16.904311,3.39322897 15.9715367,3.39475347 C14.776408,3.39475347 13.5812793,3.85006175 12.6685932,4.76301324 L10.290007,7.14229087 C10.2176767,7.21535925 10.2176767,7.33306781 10.290007,7.40613619 L16.6321254,13.7500982 C16.6694731,13.7874569 16.7161579,13.8038013 16.7651768,13.8038013 C16.8118615,13.8038013 16.8608805,13.785122 16.8982283,13.7500982 L19.2768144,11.3708206 C20.8851028,9.75972975 21.0741759,7.26837623 19.8440337,5.45181295 L21.6203871,3.67494319 C21.6927484,3.60022593 21.6927484,3.48114531 21.6203871,3.40876297 L20.6306711,2.41875932 Z M13.1450847,12.9233786 L11.5904837,14.4784315 L9.48266888,12.3700039 L11.0396041,10.8126161 C11.1119654,10.7402338 11.1119654,10.6211531 11.0396041,10.5487708 L10.1899423,9.69886199 C10.1168952,9.62651068 9.99922082,9.62651068 9.92617367,9.69886199 L8.36923847,11.2562498 L7.36551712,10.2522367 C7.33030774,10.2169896 7.28226996,10.1976003 7.23246568,10.1985336 C7.18578097,10.1985336 7.13676202,10.217213 7.09941424,10.2522367 L4.7231623,12.6315143 C3.1148739,14.2402703 2.92580081,16.7339587 4.15594301,18.550522 L2.37958966,20.3273917 C2.30725937,20.4004601 2.30725937,20.5181687 2.37958966,20.5912371 L3.3693056,21.5812407 C3.40665336,21.6185993 3.45333809,21.6349437 3.50235702,21.6349437 C3.55137595,21.6349437 3.59806068,21.6162644 3.63540846,21.5812407 L5.41176184,19.8043709 C6.19839927,20.3390663 7.11341967,20.6052465 8.02844004,20.6052465 C9.22356873,20.6052465 10.4186974,20.1499383 11.3313836,19.2369868 L13.7099697,16.8577091 C13.7823311,16.7853268 13.7823311,16.6662461 13.7099697,16.5938638 L12.7062484,15.5898507 L14.2631836,14.0324629 C14.3355449,13.9600805 14.3355449,13.8409999 14.2631836,13.7686176 L13.4088533,12.9233786 C13.3358062,12.8510273 13.2181319,12.8510273 13.1450847,12.9233786 Z"/>
</svg>
