<?xml version="1.0" encoding="utf-8"?>
<!-- Generator: Adobe Illustrator 24.0.1, SVG Export Plug-In . SVG Version: 6.00 Build 0)  -->
<svg version="1.1" id="Layer_1" xmlns="http://www.w3.org/2000/svg" xmlns:xlink="http://www.w3.org/1999/xlink" x="0px" y="0px"
	 viewBox="0 0 96 96" style="enable-background:new 0 0 96 96;" xml:space="preserve">
<style type="text/css">
	.st0{fill:#091F42;}
</style>
<g>
	<path class="st0" d="M90.1,36.1H5.9c-1.1,0-2,0.9-2,2v41.8c0,2.2,1.8,4,4,4h80.3c2.2,0,4-1.8,4-4V38.1C92.1,37,91.2,36.1,90.1,36.1
		z M32.9,68.2c-0.3,2.1-2,3.8-4.1,4.1c-3.4,0.5-6.2-2.4-5.7-5.7c0.3-2.1,2-3.8,4.1-4.1C30.6,62,33.5,64.8,32.9,68.2z M52.9,68.2
		c-0.3,2.1-2,3.8-4.1,4.1c-3.4,0.5-6.2-2.4-5.7-5.7c0.3-2.1,2-3.8,4.1-4.1C50.6,62,53.5,64.8,52.9,68.2z M67.2,72.4
		c-2.1-0.3-3.8-2-4.1-4.1c-0.5-3.4,2.4-6.2,5.7-5.7c2.1,0.3,3.8,2,4.1,4.1C73.5,70,70.6,72.9,67.2,72.4z"/>
	<path class="st0" d="M88.1,12.1H7.9c-2.2,0-4,1.8-4,4v12h88.3v-12C92.1,13.9,90.4,12.1,88.1,12.1z"/>
</g>
</svg>
