<?xml version="1.0" encoding="utf-8"?>
<!-- Generator: Adobe Illustrator 24.0.1, SVG Export Plug-In . SVG Version: 6.00 Build 0)  -->
<svg version="1.1" id="Layer_1" xmlns="http://www.w3.org/2000/svg" xmlns:xlink="http://www.w3.org/1999/xlink" x="0px" y="0px"
	 viewBox="0 0 96 96" style="enable-background:new 0 0 96 96;" xml:space="preserve">
<style type="text/css">
	.st0{fill:#091F42;}
</style>
<g>
	<path class="st0" d="M48,37.3c-0.5,0-0.9,0-1.4-0.1L36.5,54.7c0.6,0.7,1.1,1.6,1.5,2.5h20c0.4-0.9,0.9-1.8,1.5-2.5L49.4,37.2
		C48.9,37.3,48.5,37.3,48,37.3z"/>
	<path class="st0" d="M48,4C23.7,4,4,23.7,4,48s19.7,44,44,44s44-19.7,44-44S72.3,4,48,4z M65.9,68.7c-3.3,0-6.1-1.8-7.5-4.5H37.6
		c-1.4,2.7-4.3,4.5-7.5,4.5c-4.7,0-8.5-3.8-8.5-8.5c0-4.7,3.8-8.5,8.5-8.5c0,0,0,0,0.1,0l10.6-18.4c-0.8-1.3-1.3-2.8-1.3-4.5
		c0-4.7,3.8-8.5,8.5-8.5s8.5,3.8,8.5,8.5c0,1.6-0.5,3.2-1.3,4.5l10.6,18.4c0,0,0,0,0.1,0c4.7,0,8.5,3.8,8.5,8.5
		C74.4,64.9,70.6,68.7,65.9,68.7z"/>
</g>
</svg>
