<?xml version="1.0" encoding="utf-8"?>
<!-- Generator: Adobe Illustrator 24.0.1, SVG Export Plug-In . SVG Version: 6.00 Build 0)  -->
<svg version="1.1" id="Layer_1" xmlns="http://www.w3.org/2000/svg" xmlns:xlink="http://www.w3.org/1999/xlink" x="0px" y="0px"
	 viewBox="0 0 96 96" style="enable-background:new 0 0 96 96;" xml:space="preserve">
<style type="text/css">
	.st0{fill:#091F42;}
</style>
<path class="st0" d="M48,4C23.7,4,4,23.7,4,48s19.7,44,44,44s44-19.7,44-44S72.3,4,48,4z M44,68c0,1.1-0.9,2-2,2H28
	c-1.1,0-2-0.9-2-2V54c0-1.1,0.9-2,2-2h14c1.1,0,2,0.9,2,2V68z M44,42c0,1.1-0.9,2-2,2H28c-1.1,0-2-0.9-2-2V28c0-1.1,0.9-2,2-2h14
	c1.1,0,2,0.9,2,2V42z M70,68c0,1.1-0.9,2-2,2H54c-1.1,0-2-0.9-2-2V54c0-1.1,0.9-2,2-2h14c1.1,0,2,0.9,2,2V68z M70,42
	c0,1.1-0.9,2-2,2H54c-1.1,0-2-0.9-2-2V28c0-1.1,0.9-2,2-2h14c1.1,0,2,0.9,2,2V42z"/>
</svg>
