<?xml version="1.0" encoding="utf-8"?>
<!-- Generator: Adobe Illustrator 24.0.1, SVG Export Plug-In . SVG Version: 6.00 Build 0)  -->
<svg version="1.1" id="Layer_1" xmlns="http://www.w3.org/2000/svg" xmlns:xlink="http://www.w3.org/1999/xlink" x="0px" y="0px"
	 viewBox="0 0 96 96" style="enable-background:new 0 0 96 96;" xml:space="preserve">
<style type="text/css">
	.st0{fill:#091F42;}
</style>
<path class="st0" d="M48,4C23.7,4,4,23.7,4,48s19.7,44,44,44c24.3,0,44-19.7,44-44S72.3,4,48,4z M70.6,44.1c0,1.2-0.9,2.1-2.1,2.1
	h-2.1c-1.2,0-2.1-0.9-2.1-2.1l0-3.9l-12,12v21.5c0,1.2-0.9,2.1-2.1,2.1h-4.2c-1.2,0-2.1-0.9-2.1-2.1V52.2l-12-12l0,3.9
	c0,1.2-0.9,2.1-2.1,2.1h-2.1c-1.2,0-2.1-0.9-2.1-2.1V29.9c0-1.2,0.9-2.1,2.1-2.1l14.1,0c1.2,0,2.1,0.9,2.1,2.1v2.1
	c0,1.2-0.9,2.1-2.1,2.1l-3.9,0L48,44.5l10.3-10.3l-3.9,0c-1.2,0-2.1-0.9-2.1-2.1v-2.1c0-1.2,0.9-2.1,2.1-2.1l14.1,0
	c1.2,0,2.1,0.9,2.1,2.1V44.1z"/>
</svg>
