<?xml version="1.0" encoding="utf-8"?>
<!-- Generator: Adobe Illustrator 17.0.0, SVG Export Plug-In . SVG Version: 6.00 Build 0)  -->
<!DOCTYPE svg PUBLIC "-//W3C//DTD SVG 1.1//EN" "http://www.w3.org/Graphics/SVG/1.1/DTD/svg11.dtd">
<svg version="1.1" id="Layer_1" xmlns="http://www.w3.org/2000/svg" xmlns:xlink="http://www.w3.org/1999/xlink" x="0px" y="0px"
	 width="96px" height="96px" viewBox="0 0 96 96" enable-background="new 0 0 96 96" xml:space="preserve">
<g>
	<path d="M41,24H25c-2.209,0-4,1.791-4,4s1.791,4,4,4h16c2.209,0,4-1.791,4-4S43.209,24,41,24z"/>
	<path d="M41,40H25c-2.209,0-4,1.791-4,4s1.791,4,4,4h16c2.209,0,4-1.791,4-4S43.209,40,41,40z"/>
	<path d="M41,56H25c-2.209,0-4,1.791-4,4s1.791,4,4,4h16c2.209,0,4-1.791,4-4S43.209,56,41,56z"/>
	<path d="M77.496,48H72v-5.496C72,36.712,67.288,32,61.496,32H57V19.504C57,13.712,52.288,9,46.496,9H19.504
		C13.712,9,9,13.712,9,19.504v57.992C9,83.288,13.712,88,19.504,88h26.992c1.669,0,3.243-0.402,4.646-1.097
		C51.419,86.963,51.705,87,52,87h8h1.496h16C83.288,87,88,82.288,88,76.496V58.504C88,52.712,83.288,48,77.496,48z M19.504,80
		C18.123,80,17,78.877,17,77.496V19.504C17,18.123,18.123,17,19.504,17h26.992C47.877,17,49,18.123,49,19.504v57.992
		C49,78.877,47.877,80,46.496,80H19.504z M60,79h-3.12c0.071-0.493,0.12-0.992,0.12-1.504V40h4.496C62.877,40,64,41.123,64,42.504
		v33.992C64,77.877,62.877,79,61.496,79H60z M80,76.496C80,77.877,78.877,79,77.496,79h-5.81C71.884,78.196,72,77.36,72,76.496V56
		h5.496C78.877,56,80,57.123,80,58.504V76.496z"/>
</g>
</svg>
