<?xml version="1.0" encoding="utf-8"?>
<!-- Generator: Adobe Illustrator 21.0.0, SVG Export Plug-In . SVG Version: 6.00 Build 0)  -->
<svg version="1.1" id="Layer_1" xmlns="http://www.w3.org/2000/svg" xmlns:xlink="http://www.w3.org/1999/xlink" x="0px" y="0px"
	 viewBox="0 0 96 96" style="enable-background:new 0 0 96 96;" xml:space="preserve">
<g>
	<path d="M26.2,26.2c-1.1-1.1-2.9-1.1-4,0c-1.1,1.1-1.1,2.9,0,4L40,48L22.2,65.8c-1.1,1.1-1.1,2.9,0,4c0.6,0.6,1.3,0.8,2,0.8
		s1.5-0.3,2-0.8L46,50c1.1-1.1,1.1-2.9,0-4L26.2,26.2z"/>
	<path d="M75.1,48c0-1.6-1.2-2.9-2.8-2.9H55c-1.6,0-2.9,1.3-2.9,2.9c0,1.6,1.3,2.9,2.9,2.9h17.2C73.8,51,75.1,49.7,75.1,48z"/>
	<path d="M33.4,80.2H18.7c-1.6,0-2.9-1.3-2.9-2.9V64v-1.5V18.8c0-1.6,1.3-2.9,2.9-2.9h14.6c1.6,0,2.9-1.3,2.9-2.9
		c0-1.6-1.3-2.9-2.9-2.9H18.7c-4.8,0-8.8,3.9-8.8,8.8v45.3c0,0.2,0,0.5,0.1,0.7v12.4c0,4.8,3.9,8.8,8.8,8.8h14.6
		c1.6,0,2.9-1.3,2.9-2.9C36.3,81.5,34.9,80.2,33.4,80.2z"/>
	<path d="M85.9,61.8V18.8c0-4.8-3.8-8.8-8.8-8.8H59.7c-1.6,0-2.9,1.3-2.9,2.9c0,1.7,1.3,3,2.9,3h17.6c1.6,0,2.9,1.3,2.9,2.9v43.9
		v5.2v9.4c0,1.6-1.3,2.9-2.9,2.9H59.7c-1.6,0-2.9,1.3-2.9,2.9c0,1.6,1.3,2.9,2.9,2.9h17.6c4.8,0,8.8-3.9,8.8-8.8V62.7
		C86.1,62.3,86,62.2,85.9,61.8z"/>
</g>
</svg>
