<svg xmlns="http://www.w3.org/2000/svg" width="24" height="24" viewBox="0 0 24 24">
  <path fill="#526075" fill-rule="evenodd" d="M17.6087116,11.4528781 C18.3059927,12.0842934 18.4110631,13.1414701 17.851705,13.89778 L19.9698367,17.5581458 C20.0378978,17.5504354 20.1063219,17.5463626 20.1748171,17.5459446 C21.1855992,17.5459446 22.005,18.3653454 22.005,19.3761275 C22.005,20.3869096 21.1855992,21.2063104 20.1748171,21.2063104 C19.4474381,21.2059357 18.7893212,20.7748548 18.4983696,20.1082007 L14.2621062,20.1082007 C13.8964276,20.9460751 12.9685525,21.3856032 12.0885873,21.1377816 C11.2086221,20.88996 10.6464902,20.0308065 10.7718107,19.1252408 C10.8971311,18.2196752 11.6714627,17.5454737 12.5856586,17.5459446 C12.6541538,17.5463626 12.7225779,17.5504354 12.7906391,17.5581458 L14.9087708,13.89778 C14.3494126,13.1414701 14.454483,12.0842934 15.1517641,11.4528781 C15.8490452,10.8214628 16.9114305,10.8214628 17.6087116,11.4528781 Z M12.4775114,2.79340756 C15.4335341,2.79340756 17.9575227,4.97631665 18.7988523,8.22794165 C20.7088977,9.04653256 22.005,11.1839644 22.005,13.5715212 C22.005,14.7304232 21.7014723,15.8195959 21.1745526,16.7275463 C21.0170165,16.6680937 20.8529067,16.6222825 20.6835461,16.5915427 L20.555,16.5724076 L18.998,13.8824076 L19.0143608,13.8459022 C19.4364792,12.7741403 19.1706872,11.5182339 18.2799416,10.711629 C17.2016707,9.73521255 15.5588051,9.73521255 14.4805341,10.711629 L14.3450928,10.8426291 C13.563716,11.6499245 13.3462133,12.8305488 13.746115,13.8459022 L13.762,13.8824076 L12.205,16.5724076 L12.0714527,16.5932502 C10.8887935,16.8114521 9.95082144,17.7628424 9.78125104,18.9881582 L9.762,19.1584076 L6.61094318,19.1652257 L6.58820455,19.1652257 C3.97326136,18.710453 1.995,16.0727712 1.995,13.0030553 C1.995,9.86512347 3.996,7.20470302 6.65642045,6.8181462 C10.2779286,6.8181462 11.3887409,9.12799846 11.3887409,9.12799846 C10.7543858,6.8181462 9.62384741,5.60184619 7.79335227,4.95357802 C9.04397727,3.0662712 10.4082955,2.79340756 12.4775114,2.79340756 Z M16.5852184,14.6444946 C16.51694,14.6481343 16.4485162,14.6481343 16.3802379,14.6444946 C16.3119595,14.6481343 16.2435358,14.6481343 16.1752574,14.6444946 L14.0571257,18.3048604 C14.1389581,18.4135738 14.207755,18.5315115 14.2621062,18.6562556 L18.4983696,18.6562556 C18.5527207,18.5315115 18.6215177,18.4135738 18.7033501,18.3048604 L16.5852184,14.6444946 Z"/>
</svg>
