<?xml version="1.0" encoding="utf-8"?>
<!-- Generator: Adobe Illustrator 24.0.1, SVG Export Plug-In . SVG Version: 6.00 Build 0)  -->
<svg version="1.1" id="Layer_1" xmlns="http://www.w3.org/2000/svg" xmlns:xlink="http://www.w3.org/1999/xlink" x="0px" y="0px"
	 viewBox="0 0 96 96" style="enable-background:new 0 0 96 96;" xml:space="preserve">
<style type="text/css">
	.st0{fill:#091F42;}
</style>
<g>
	<ellipse class="st0" cx="48" cy="17.7" rx="40" ry="9.7"/>
	<path class="st0" d="M40.7,68c0-0.7,0-1.3,0.1-2C28.2,65.4,16,63.1,8,59v19.8c0.7,2.5,14,9.1,40,9.1c0.5,0,1,0,1.5,0
		C44.1,83,40.7,75.9,40.7,68z"/>
	<path class="st0" d="M48,36.2c-14.9,0-30.5-2.3-40-7.1v19.8c0.6,2.3,12.2,8.2,34.7,9c4-9.9,13.7-16.8,25-16.8
		c7.8,0,14.8,3.3,19.7,8.6c0.3-0.3,0.5-0.6,0.6-0.8l0-19.7C78.5,33.9,62.9,36.2,48,36.2z"/>
	<path class="st0" d="M67.7,48c-10.7,0-19.5,8.5-19.9,19.1H59l8-8.1c0.8-0.8,2-0.8,2.8,0c0,0,0,0,0,0l0.6,0.6l7.9,7.5h9.3
		C87.2,56.5,78.4,48,67.7,48z"/>
	<path class="st0" d="M76.7,74.1c-0.5,0-1-0.2-1.4-0.5l-6.8-6.5l-6.3,6.4c-0.1,0.1-0.2,0.2-0.4,0.3c-0.3,0.2-0.7,0.3-1.1,0.3h-12
		c2.6,8,10.1,13.9,19,13.9s16.4-5.8,19-13.9L76.7,74.1C76.7,74.1,76.7,74.1,76.7,74.1z"/>
</g>
</svg>
