<?xml version="1.0" encoding="utf-8"?>
<!-- Generator: Adobe Illustrator 24.0.1, SVG Export Plug-In . SVG Version: 6.00 Build 0)  -->
<svg version="1.1" id="Layer_1" xmlns="http://www.w3.org/2000/svg" xmlns:xlink="http://www.w3.org/1999/xlink" x="0px" y="0px"
	 viewBox="0 0 96 96" style="enable-background:new 0 0 96 96;" xml:space="preserve">
<style type="text/css">
	.st0{fill:#091F42;}
</style>
<g>
	<path class="st0" d="M53.9,58l28.6-3.7c0.6-0.1,1.1-0.3,1.5-0.7c2.4-2,2.7-4.9,1.5-7L56.5,9.2c-2.3-3-7.2-1.4-7.2,2.4v42.4
		C49.3,56.5,51.5,58.3,53.9,58z"/>
	<path class="st0" d="M17.3,62.7l18.2-2.4c2-0.3,3.5-2,3.5-4V27.1c0-4.1-5.4-5.5-7.5-2L13.3,56.8C11.7,59.6,14,63.2,17.3,62.7z"/>
	<path class="st0" d="M78.2,88.3H17.6c-1.5,0-2.8-0.8-3.5-2.1l-5.4-9.9c-0.9-1.7,0.1-3.8,2.1-4.1l72.4-9.1c2.9-0.4,5.2,2.4,4.3,5.2
		L82,85.5C81.5,87.2,79.9,88.3,78.2,88.3z"/>
</g>
</svg>
