<?xml version="1.0" encoding="utf-8"?>
<!-- Generator: Adobe Illustrator 24.0.1, SVG Export Plug-In . SVG Version: 6.00 Build 0)  -->
<svg version="1.1" id="Layer_1" xmlns="http://www.w3.org/2000/svg" xmlns:xlink="http://www.w3.org/1999/xlink" x="0px" y="0px"
	 viewBox="0 0 96 96" style="enable-background:new 0 0 96 96;" xml:space="preserve">
<style type="text/css">
	.st0{fill:#091F42;}
</style>
<g>
	<path class="st0" d="M48,66.2c-14.9,0-30.5-2.3-40-7.1l0,19.8c0.7,2.5,14,9.1,40,9.1c26,0,39.3-6.7,40-9.2L88,59
		C78.5,63.9,62.9,66.2,48,66.2z"/>
	<path class="st0" d="M48,57.9c26,0,39.3-6.7,40-9.2L88,29c-9.5,4.9-25.1,7.2-40,7.2c-14.9,0-30.5-2.3-40-7.1l0,19.8
		C8.7,51.3,22,57.9,48,57.9z"/>
	<ellipse class="st0" cx="48" cy="17.7" rx="39.5" ry="9.6"/>
</g>
</svg>
