<?xml version="1.0" encoding="utf-8"?>
<!-- Generator: Adobe Illustrator 24.0.1, SVG Export Plug-In . SVG Version: 6.00 Build 0)  -->
<svg version="1.1" id="Layer_1" xmlns="http://www.w3.org/2000/svg" xmlns:xlink="http://www.w3.org/1999/xlink" x="0px" y="0px"
	 viewBox="0 0 96 96" style="enable-background:new 0 0 96 96;" xml:space="preserve">
<style type="text/css">
	.st0{fill:#091F42;}
</style>
<path class="st0" d="M87,56.8l-14.5-8.4c-1.2-0.7-2.8-0.7-4,0L54,56.8c-1.2,0.7-2,2-2,3.5V76c0,1.4,0.8,2.7,2,3.5l14.5,8.4
	c1.2,0.7,2.8,0.7,4,0L87,79.5c1.2-0.7,2-2,2-3.5V60.3C89,58.8,88.2,57.5,87,56.8z M42,56.8l-14.5-8.4c-1.2-0.7-2.8-0.7-4,0L9,56.8
	c-1.2,0.7-2,2-2,3.5V76c0,1.4,0.8,2.7,2,3.5l14.5,8.4c1.2,0.7,2.8,0.7,4,0L42,79.5c1.2-0.7,2-2,2-3.5V60.3
	C44,58.8,43.2,57.5,42,56.8z M67.5,38.4V20.6c0-1.4-0.8-2.7-2-3.5L50,8.2c-1.2-0.7-2.8-0.7-4,0l-15.5,8.9c-1.2,0.7-2,2-2,3.5v17.9
	c0,1.4,0.8,2.7,2,3.5L46,50.8c1.2,0.7,2.8,0.7,4,0l15.5-8.9C66.7,41.2,67.5,39.9,67.5,38.4z"/>
</svg>
