<?xml version="1.0" encoding="utf-8"?>
<!-- Generator: Adobe Illustrator 24.0.1, SVG Export Plug-In . SVG Version: 6.00 Build 0)  -->
<svg version="1.1" id="Layer_1" xmlns="http://www.w3.org/2000/svg" xmlns:xlink="http://www.w3.org/1999/xlink" x="0px" y="0px"
	 viewBox="0 0 96 96" style="enable-background:new 0 0 96 96;" xml:space="preserve">
<style type="text/css">
	.st0{fill-rule:evenodd;clip-rule:evenodd;fill:#091F42;}
</style>
<g>
	<path class="st0" d="M76,31.5c1.3-0.8,2.2-2.1,2.4-3.7c0.2-1.9-0.9-3.8-2.5-4.8L52.9,9.6c-3.2-1.9-7.2-1.9-10.4,0l-23,13.6
		c-1.3,0.8-2.2,2.1-2.4,3.7c-0.2,1.9,0.9,3.8,2.5,4.8l22.9,13.5c3.2,1.9,7.2,1.9,10.4,0L76,31.5z"/>
	<path class="st0" d="M85.8,41.7c-1.3-2.3-4.3-3.1-6.6-1.8l-24.2,14c-1.5,0.9-2.4,2.5-2.4,4.2V83c0,0.9,0.2,1.7,0.7,2.5
		c1.4,2.3,4.3,3,6.6,1.7l24.2-14.4c1.5-0.9,2.4-2.4,2.4-4.2V44.1C86.5,43.2,86.3,42.4,85.8,41.7z"/>
	<path class="st0" d="M40.9,53.9l-24.2-14c-2.3-1.3-5.3-0.5-6.6,1.8c-0.4,0.7-0.7,1.6-0.7,2.4v24.5c0,1.7,0.9,3.3,2.4,4.2L36,87.1
		c2.3,1.4,5.3,0.6,6.6-1.7c0.4-0.7,0.7-1.6,0.7-2.5V58.1C43.3,56.4,42.4,54.8,40.9,53.9z"/>
</g>
</svg>
