<svg xmlns="http://www.w3.org/2000/svg" width="24" height="24" viewBox="0 0 24 24">
  <path fill="#526075" fill-rule="evenodd" d="M12.2800389,22.0011562 L12,22.005 C14.4212351,22.0039072 16.4111224,18.0556286 16.6448061,13.0008677 L21.9555888,13.0005815 C21.4626171,17.9650279 17.3405816,21.8620717 12.2800389,22.0011562 Z M11.8518263,22.0000561 L12,22.005 L12,22.005 C6.8122067,22.005 2.54644583,18.0562959 2.04441122,13.0005815 L7.35519958,13.0009956 C7.58415288,17.9528622 9.49848899,21.8428039 11.8518263,22.0000561 Z M12,20.005 C11.0213749,20.005 9.56915778,17.04942 9.35817621,13.0009844 L14.6418238,13.0009844 C14.4308422,17.04942 12.9786251,20.005 12,20.005 Z M12,1.995 C17.1881351,1.995 21.4541163,5.94422444 21.955688,11.0004178 L16.6446062,11.0005621 C16.4099598,5.94717239 14.420056,2.00075 12,2.00075 C9.57994405,2.00075 7.59004023,5.94717239 7.35539383,11.0005621 L2.04431204,11.0004178 C2.54588373,5.94422444 6.8118649,1.995 12,1.995 Z M12,4.00075 C12.9782789,4.00075 14.4298148,6.95423918 14.6415994,11.0004694 L9.35840059,11.0004694 C9.5701852,6.95423918 11.0217211,4.00075 12,4.00075 Z"/>
</svg>
