<?xml version="1.0" encoding="utf-8"?>
<!-- Generator: Adobe Illustrator 24.0.1, SVG Export Plug-In . SVG Version: 6.00 Build 0)  -->
<svg version="1.1" id="Layer_1" xmlns="http://www.w3.org/2000/svg" xmlns:xlink="http://www.w3.org/1999/xlink" x="0px" y="0px"
	 viewBox="0 0 96 96" style="enable-background:new 0 0 96 96;" xml:space="preserve">
<style type="text/css">
	.st0{fill:#091632;}
</style>
<path class="st0" d="M62,11c1.1,0,2,0.9,2,2v12c0,1.1-0.9,2-2,2H46c-1.1,0-2-0.9-2-2V13c0-1.1,0.9-2,2-2H62z M36,11c1.1,0,2,0.9,2,2
	v12c0,1.1-0.9,2-2,2h-13c-1.1,0-2-0.9-2-2V13c0-1.1,0.9-2,2-2H36z M62,33c1.1,0,2,0.9,2,2v12c0,1.1-0.9,2-2,2H46c-1.1,0-2-0.9-2-2
	V35c0-1.1,0.9-2,2-2H62z M36,33c1.1,0,2,0.9,2,2v12c0,1.1-0.9,2-2,2h-28c-1.1,0-2-0.9-2-2V35c0-1.1,0.9-2,2-2H36z M22.1,62h-4
	c-1.1,0-2,0.9-2,2v4c0,1.1,0.9,2,2,2h4c1.1,0,2-0.9,2-2v-4C24.1,62.9,23.2,62,22.1,62z M72.4,38l1.1,0.9c2.7,2.2,4.8,5,5.5,8.7
	l0,0.2c3.1-0.9,6.9-0.7,9.7,1L89,49l1,0.7l-0.6,1.1C87,55.8,82,57.2,77,57c-7.6,19.2-23.7,28-43.2,28c-10,0-19.2-4-24.5-12.8L9,71.8
	v-0.2L8.2,70C6.5,66,5.8,60.8,6,56.5l0-0.5l0-0.1C6.1,55.4,6.5,55.1,7,55l0.1,0h60.9c1.6-0.8,2.7-1.4,3.3-1.7
	c-1.1-1.6-1.7-3.6-1.9-5.7c-0.2-2.6,0.4-6.1,2-8.2l0.2-0.2L72.4,38z"/>
</svg>
