<?xml version="1.0" encoding="utf-8"?>
<!-- Generator: Adobe Illustrator 24.0.1, SVG Export Plug-In . SVG Version: 6.00 Build 0)  -->
<svg version="1.1" id="Layer_1" xmlns="http://www.w3.org/2000/svg" xmlns:xlink="http://www.w3.org/1999/xlink" x="0px" y="0px"
	 viewBox="0 0 96 96" style="enable-background:new 0 0 96 96;" xml:space="preserve">
<style type="text/css">
	.st0{fill:#091F42;}
</style>
<path class="st0" d="M48,4C29,4,12.7,16.1,6.6,33h27.3l-2.8-2.8c-0.8-0.8-0.8-2.2,0-3l1.5-1.5c0.8-0.8,2.2-0.8,3,0l10,10
	c0.8,0.8,0.8,2.2,0,3l-10,10c-0.8,0.8-2.2,0.8-3,0l-1.5-1.5c-0.8-0.8-0.8-2.2,0-3l2.8-2.8H4.5C4.2,43.6,4,45.8,4,48
	c0,3.3,0.4,6.6,1.1,9.7h53.8L56.1,55c-0.8-0.8-0.8-2.2,0-3l1.5-1.5c0.8-0.8,2.2-0.8,3,0l10,10c0.8,0.8,0.8,2.2,0,3l-10,10
	c-0.8,0.8-2.2,0.8-3,0l-1.5-1.5c-0.8-0.8-0.8-2.2,0-3l2.8-2.8H7.9C14.9,81.4,30.2,92,48,92c24.3,0,44-19.7,44-44S72.3,4,48,4z"/>
</svg>
