<?xml version="1.0" encoding="utf-8"?>
<!-- Generator: Adobe Illustrator 24.0.1, SVG Export Plug-In . SVG Version: 6.00 Build 0)  -->
<svg version="1.1" id="Layer_1" xmlns="http://www.w3.org/2000/svg" xmlns:xlink="http://www.w3.org/1999/xlink" x="0px" y="0px"
	 viewBox="0 0 96 96" style="enable-background:new 0 0 96 96;" xml:space="preserve">
<style type="text/css">
	.st0{fill-rule:evenodd;clip-rule:evenodd;fill:#091632;}
</style>
<path class="st0" d="M56.9,40.6c-2.3-1.5-5.4,0.1-5.4,2.9v31l0,0.1c0.1,1,0.9,1.9,2,1.9h3l0.1,0c1-0.1,1.9-0.9,1.9-2V50.3l3.9,2.8
	l0.1,0.1c0.9,0.5,2,0.3,2.7-0.5l1.8-2.4l0.1-0.1c0.5-0.9,0.3-2-0.5-2.7l-9.5-6.8L56.9,40.6z M41.6,40h-3l-0.1,0
	c-1,0.1-1.9,0.9-1.9,2v24.2l-3.9-2.8l-0.1-0.1c-0.9-0.5-2-0.3-2.7,0.5l-1.8,2.4l-0.1,0.1c-0.5,0.9-0.3,2,0.5,2.7l9.5,6.8l0.1,0.1
	c2.3,1.5,5.4-0.1,5.4-2.9V42l0-0.1C43.6,40.8,42.7,40,41.6,40z M48,8c14.9,0,27,11.4,27,25.5c0,1.7-0.2,3.5-0.5,5.1
	C84.7,42.2,92,51.6,92,62.5c0,13.8-11.6,25-26,25.5l0,0H30l0,0C15.6,87.5,4,76.3,4,62.5c0-10.9,7.3-20.3,17.5-23.9
	C21.2,37,21,35.2,21,33.5C21,19.4,33.1,8,48,8z"/>
</svg>
