<?xml version="1.0" encoding="utf-8"?>
<!-- Generator: Adobe Illustrator 24.0.1, SVG Export Plug-In . SVG Version: 6.00 Build 0)  -->
<svg version="1.1" id="Layer_1" xmlns="http://www.w3.org/2000/svg" xmlns:xlink="http://www.w3.org/1999/xlink" x="0px" y="0px"
	 viewBox="0 0 96 96" style="enable-background:new 0 0 96 96;" xml:space="preserve">
<style type="text/css">
	.st0{fill:#091632;}
</style>
<path class="st0" d="M46.5,11c21.5,0,39,4,39,9s-17.5,9-39,9s-39-4-39-9S25,11,46.5,11z M84.5,30.5c0.5,0,0.9,0.4,1,0.9v0.1v15
	c0,0.8-0.4,1.5-1.1,1.8c-0.8,0.4-1.7,0.8-2.5,1.1c-3-2.8-7.2-4.6-11.8-4.6c-7.2,0-13.3,4.2-15.6,10.1c-2.6,0.1-5.2,0.2-8,0.1
	c-15.6,0-28.2-2.3-37.8-6.7C8,48,7.6,47.4,7.5,46.7v-0.2v-15c0-0.1,0-0.2,0.1-0.3c0.2-0.5,0.8-0.8,1.3-0.6
	c10.5,3.9,23.1,5.9,37.6,5.9c14.6,0,27.1-2,37.7-5.9C84.3,30.6,84.4,30.5,84.5,30.5z M70.2,52c6.1,0,11,4.5,11.6,10.3
	c3.9,2,6.6,6,6.6,10.7c0,6.6-5.4,12-12.2,12H64.7c-6.2,0-11.2-4.9-11.2-11c0-3.9,2-7.3,5.1-9.2c0-0.4-0.1-0.8-0.1-1.2
	C58.5,57.2,63.8,52,70.2,52z M8.9,56.3c10.5,4.1,23,6.1,37.6,6.1c2.1,0,4.1,0,6.1-0.1c-3.7,2.6-6.1,6.8-6.1,11.4s2.3,8.6,5.9,11.3
	c-1.9,0.1-3.9,0.1-5.9,0c-15.6-0.2-28.2-2.6-37.8-7.1C8,77.6,7.6,77,7.6,76.3v-0.2V57.2c0-0.1,0-0.2,0.1-0.4
	C7.8,56.3,8.3,56.1,8.9,56.3z"/>
</svg>
