<?xml version="1.0" encoding="utf-8"?>
<!-- Generator: Adobe Illustrator 24.0.1, SVG Export Plug-In . SVG Version: 6.00 Build 0)  -->
<svg version="1.1" id="Layer_1" xmlns="http://www.w3.org/2000/svg" xmlns:xlink="http://www.w3.org/1999/xlink" x="0px" y="0px"
	 viewBox="0 0 96 96" style="enable-background:new 0 0 96 96;" xml:space="preserve">
<style type="text/css">
	.st0{fill:#091632;}
</style>
<path class="st0" d="M36.8,27.3c-0.6-0.3-1.3-0.3-1.9,0l-10.3,5.5c-0.7,0.3-1.1,1-1.1,1.8l0.1,11.2c0,0.7,0.4,1.4,1,1.7l10.5,5.8
	c0.6,0.3,1.3,0.3,1.9,0l9.8-5.3l9.4,5.4v6.5l-7.9,5.2L44,62.6c-0.6-0.4-1.4-0.4-2,0l-5,2.8c-0.6,0.4-1,1-1,1.7v5.8
	c0,0.7,0.4,1.4,1,1.7l5,2.9c0.6,0.4,1.4,0.4,2,0l4.9-2.9c0.6-0.4,1-1,1-1.7v-4.3l8.5-5.6l6.3,3.6c0.6,0.4,1.4,0.4,2,0l7.6-4.4
	c0.6-0.4,1-1,1-1.7v-8.7c0-0.7-0.4-1.4-1-1.7l-7.6-4.4c-0.6-0.4-1.4-0.4-2,0L58,49.8l-9.5-5.5l-0.1-9.5c0-0.7-0.4-1.4-1.1-1.7
	L36.8,27.3z M52,5.1l32,18.5c2.5,1.4,4,4.1,4,6.9v35c0,2.9-1.5,5.5-4,6.9L52,90.9c-2.5,1.4-5.5,1.4-8,0L12,72.4
	c-2.5-1.4-4-4.1-4-6.9v-35c0-2.9,1.5-5.5,4-6.9L44,5.1C46.5,3.6,49.5,3.6,52,5.1z"/>
</svg>
