<?xml version="1.0" encoding="utf-8"?>
<!-- Generator: Adobe Illustrator 24.0.1, SVG Export Plug-In . SVG Version: 6.00 Build 0)  -->
<svg version="1.1" id="Layer_1" xmlns="http://www.w3.org/2000/svg" xmlns:xlink="http://www.w3.org/1999/xlink" x="0px" y="0px"
	 viewBox="0 0 96 96" style="enable-background:new 0 0 96 96;" xml:space="preserve">
<style type="text/css">
	.st0{fill:#091F42;}
</style>
<path class="st0" d="M80.8,14.3l-32-6.2c-0.5-0.1-1.1-0.1-1.6,0l-32,6.2C13.3,14.6,12,16.2,12,18v22.1c0,16.3,8.5,31.4,22.7,40.3
	l11.1,7c1.3,0.8,3,0.8,4.4,0l11.1-7C75.5,71.5,84,56.3,84,40.1V18C84,16.2,82.7,14.6,80.8,14.3z M37.8,26.7
	c-1.7,3.8-2.9,8.7-3.2,14.8h-7.3C28.4,35.1,32.3,29.7,37.8,26.7z M27.3,48.5h7.3c0.4,6.4,1.8,11.5,3.8,15.2
	C32.6,60.7,28.4,55.1,27.3,48.5z M48,64c-1.7,0-5.5-5.3-6.3-15.5h12.7C53.5,58.7,49.7,64,48,64z M41.6,41.5C42.2,30.6,46.2,25,48,25
	s5.8,5.6,6.4,16.5H41.6z M57.6,63.7c2-3.7,3.4-8.8,3.8-15.2h7.3C67.6,55.1,63.4,60.7,57.6,63.7z M61.4,41.5
	c-0.3-6.1-1.5-11.1-3.2-14.8c5.4,3,9.4,8.4,10.5,14.8H61.4z"/>
</svg>
