<?xml version="1.0" encoding="utf-8"?>
<!-- Generator: Adobe Illustrator 24.0.1, SVG Export Plug-In . SVG Version: 6.00 Build 0)  -->
<svg version="1.1" id="Layer_1" xmlns="http://www.w3.org/2000/svg" xmlns:xlink="http://www.w3.org/1999/xlink" x="0px" y="0px"
	 viewBox="0 0 96 96" style="enable-background:new 0 0 96 96;" xml:space="preserve">
<style type="text/css">
	.st0{fill:#091F42;}
</style>
<path class="st0" d="M82.7,17.1L70.9,5.3C70,4.5,68.9,4,67.7,4H16.4C14,4,12,6,12,8.4v79.1c0,2.5,2,4.4,4.4,4.4h63.1
	c2.5,0,4.4-2,4.4-4.4V20.2C84,19,83.5,17.9,82.7,17.1z M24.2,29.3l22,0.1c1.1,0,2,0.9,2,2v3.9c0,1.1-0.9,2-2,2h-22c-1.1,0-2-0.9-2-2
	l0-4C22.2,30.2,23.1,29.3,24.2,29.3z M63.2,69.3c0,1.1-0.9,2-2,2h-37c-1.1,0-2-0.9-2-2v-4c0-1.1,0.9-2,2-2h37c1.1,0,2,0.9,2,2V69.3z
	 M63.2,52.3c0,1.1-0.9,2-2,2h-37c-1.1,0-2-0.9-2-2l0-4c0-1.1,0.9-2,2-2l37,0.1c1.1,0,2,0.9,2,2V52.3z M76.9,23.3h-9.3
	c-1.4,0-2.5-1.1-2.5-2.5v-9.3c0-1.1,1.3-1.6,2.1-0.9l10.5,10.5C78.6,22,78,23.3,76.9,23.3z"/>
</svg>
