<?xml version="1.0" encoding="utf-8"?>
<!-- Generator: Adobe Illustrator 24.0.1, SVG Export Plug-In . SVG Version: 6.00 Build 0)  -->
<svg version="1.1" id="Layer_1" xmlns="http://www.w3.org/2000/svg" xmlns:xlink="http://www.w3.org/1999/xlink" x="0px" y="0px"
	 viewBox="0 0 96 96" style="enable-background:new 0 0 96 96;" xml:space="preserve">
<style type="text/css">
	.st0{fill:#091632;}
</style>
<g>
	<path class="st0" d="M23.5,47.5H4c0,0.2,0,0.3,0,0.5c0,2.9,0.3,5.8,0.8,8.5h18.7V47.5z"/>
	<path class="st0" d="M48,4C26.3,4,8.2,19.8,4.6,40.5h18.9V29c0-1.9,1.5-3.4,3.3-3.5H27h27.1C55.2,24,57,23,59,23c3.3,0,6,2.7,6,6
		s-2.7,6-6,6c-2,0-3.8-1-4.9-2.5H30.5v8h13c2.4,0,4.4,1.9,4.5,4.3V45v3.5h10h0.1C59.2,47,61,46,63,46c3.3,0,6,2.7,6,6s-2.7,6-6,6
		c-2,0-3.8-1-4.9-2.5H58H45.5c-2.4,0-4.4-1.9-4.5-4.3V51v-3.5H30.5V60c0,1.9-1.5,3.4-3.3,3.5H27H6.8c1.3,3.4,3,6.6,5,9.5h30
		c1-1.8,3-3,5.2-3c3.3,0,6,2.7,6,6s-2.7,6-6,6c-1.8,0-3.4-0.8-4.5-2H17.8c7.9,7.4,18.5,12,30.2,12c24.3,0,44-19.7,44-44S72.3,4,48,4
		z"/>
</g>
</svg>
