<?xml version="1.0" encoding="utf-8"?>
<!-- Generator: Adobe Illustrator 24.0.1, SVG Export Plug-In . SVG Version: 6.00 Build 0)  -->
<svg version="1.1" id="Layer_1" xmlns="http://www.w3.org/2000/svg" xmlns:xlink="http://www.w3.org/1999/xlink" x="0px" y="0px"
	 viewBox="0 0 96 96" style="enable-background:new 0 0 96 96;" xml:space="preserve">
<style type="text/css">
	.st0{fill:#091F42;}
</style>
<g>
	<path class="st0" d="M91.9,44.8c-1.7-24.2-22.8-42.5-47-40.7C20.6,5.9,2.4,26.9,4.1,51.2c1.1,14.9,9.5,27.6,21.4,34.7
		c5.1-4.3,9.5-9.1,13.4-14.2c-5.6-6.5-10.6-13.7-15.1-21.5l-1,3.3c-0.3,1.1-1.4,1.7-2.5,1.3l-1.9-0.6c-1.1-0.3-1.7-1.4-1.3-2.5
		L21,38.9c0.3-1.1,1.4-1.7,2.5-1.3l12.8,3.9c1.1,0.3,1.7,1.4,1.3,2.5l-0.6,1.9c-0.3,1.1-1.4,1.7-2.5,1.3L30.7,46
		c3.9,6.8,8.3,13.1,13.1,18.9c7.4-11.1,12.7-23,16.8-34.2l-3.5,1.8c-1,0.5-2.2,0.1-2.7-0.9l-0.9-1.8c-0.5-1-0.1-2.2,0.9-2.7
		l11.9-6.1c1-0.5,2.2-0.1,2.7,0.9L75,33.9c0.5,1,0.1,2.2-0.9,2.7l-1.8,0.9c-1,0.5-2.2,0.1-2.7-0.9l-1.6-3.1
		C63.6,45.8,57.7,59,49.3,71.2c5.7,6,11.9,11.4,18.6,16.1C83.2,79.5,93.2,63.1,91.9,44.8z"/>
	<path class="st0" d="M44.4,77.7c-3.3,4.1-6.9,8.1-10.9,11.8c5.5,1.9,11.5,2.8,17.7,2.3c2.6-0.2,5.2-0.6,7.7-1.3
		C53.7,86.7,48.9,82.4,44.4,77.7z"/>
</g>
</svg>
