<?xml version="1.0" encoding="utf-8"?>
<!-- Generator: Adobe Illustrator 24.0.1, SVG Export Plug-In . SVG Version: 6.00 Build 0)  -->
<svg version="1.1" id="Layer_1" xmlns="http://www.w3.org/2000/svg" xmlns:xlink="http://www.w3.org/1999/xlink" x="0px" y="0px"
	 viewBox="0 0 96 96" style="enable-background:new 0 0 96 96;" xml:space="preserve">
<style type="text/css">
	.st0{fill-rule:evenodd;clip-rule:evenodd;fill:#091632;}
</style>
<path class="st0" d="M48,8c13.8,0,25.1,9.7,26.8,22.3L74,30.8c-0.4,0.4-0.9,0.6-1.4,0.6H58.9c-1.1-1.7-3-2.8-5-2.8
	c-1.8,0-3.5,0.7-4.7,2.1c-1.2,1.4-1.7,3.3-1.3,5.2c0.3,1.5,1.1,2.9,2.4,3.8c2.7,2,6.5,1.4,8.5-1.3l15.7,0c0,0,0,0.1,0,0.1
	c6.3,2.2,11.4,6.6,14.5,12.1l-22.8,0l-0.3,0c-1.2,0-2.3,0.6-3.2,1.4l-11.4,13l-0.1,0.1c-0.4,0.3-0.8,0.5-1.3,0.5h-8.2l-0.1-0.2
	c-0.7-1.1-1.7-1.9-2.8-2.3c-0.7-0.3-1.5-0.5-2.2-0.5c-2.6,0-5,1.6-6,4.2c-0.6,1.6-0.5,3.4,0.1,5c0.7,1.6,1.9,2.9,3.5,3.6
	c0.7,0.3,1.5,0.4,2.3,0.4c2,0.1,4-0.9,5.1-2.7h10.5l0.2,0c1.2-0.1,2.4-0.6,3.3-1.5l12.1-13l0.1-0.1c0.4-0.4,1-0.7,1.5-0.7l22.4,0
	c0.3,1.5,0.4,3,0.4,4.5c0,13.8-11.6,25-26,25.5l0,0H30l0,0C15.6,87.5,4,76.3,4,62.5c0-10.9,7.3-20.3,17.5-23.9
	C21.2,37,21,35.2,21,33.5C21,19.4,33.1,8,48,8z"/>
</svg>
