<?xml version="1.0" encoding="utf-8"?>
<!-- Generator: Adobe Illustrator 24.0.1, SVG Export Plug-In . SVG Version: 6.00 Build 0)  -->
<svg version="1.1" id="Layer_1" xmlns="http://www.w3.org/2000/svg" xmlns:xlink="http://www.w3.org/1999/xlink" x="0px" y="0px"
	 viewBox="0 0 96 96" style="enable-background:new 0 0 96 96;" xml:space="preserve">
<style type="text/css">
	.st0{fill:#091F42;}
</style>
<path class="st0" d="M84,24H44l-3.2-11.1C40.3,11.2,38.8,10,37,10H12c-2.2,0-4,1.8-4,4v68c0,2.2,1.8,4,4,4h72c2.2,0,4-1.8,4-4V28
	C88,25.8,86.2,24,84,24z M21,27c-2.8,0-5-2.2-5-5s2.2-5,5-5c2.8,0,5,2.2,5,5S23.8,27,21,27z M66,71c0,1.1-0.9,2-2,2H32
	c-1.1,0-2-0.9-2-2v-3c0-1.1,0.9-2,2-2h32c1.1,0,2,0.9,2,2V71z M66,57c0,1.1-0.9,2-2,2H32c-1.1,0-2-0.9-2-2v-3c0-1.1,0.9-2,2-2h32
	c1.1,0,2,0.9,2,2V57z M66,43c0,1.1-0.9,2-2,2H32c-1.1,0-2-0.9-2-2v-3c0-1.1,0.9-2,2-2h32c1.1,0,2,0.9,2,2V43z"/>
</svg>
