<?xml version="1.0" encoding="utf-8"?>
<!-- Generator: Adobe Illustrator 24.0.1, SVG Export Plug-In . SVG Version: 6.00 Build 0)  -->
<svg version="1.1" id="Layer_1" xmlns="http://www.w3.org/2000/svg" xmlns:xlink="http://www.w3.org/1999/xlink" x="0px" y="0px"
	 viewBox="0 0 96 96" style="enable-background:new 0 0 96 96;" xml:space="preserve">
<style type="text/css">
	.st0{fill:#091632;}
</style>
<path class="st0" d="M48.5,22h-0.9C33.9,22.1,23,24.7,23,28s11.2,6,25,6s25-2.7,25-6s-11.2-6-25-6H48.5z M72,35.5
	c-0.1,0-0.2,0-0.4,0.1C65,38.1,57.1,39.3,48,39.3S31,38,24.4,35.5c-0.5-0.2-1.1,0.1-1.3,0.6c0,0.1-0.1,0.2-0.1,0.4v9.3V46
	c0.1,0.7,0.5,1.4,1.2,1.7c6.1,2.8,14.1,4.3,23.8,4.4c9.8,0.1,17.7-1.3,23.9-4.4c0.7-0.3,1.1-1,1.1-1.8v-9.3v-0.1
	C72.9,35.9,72.5,35.5,72,35.5z M60.2,59H43.8c-1.2,0-2.5,0.3-2.5,2.4c0,1.3,1,2.7,2.6,2.9c1.4,0.3,4.7,0.5,7.2,0.7
	c0.8,0,0,0.5,0,0.5l-3.1,2H37.1c0,0-4.5-3.1-7.3-5.1c-4.7-3.1-6.5,0-6.5,0s-0.5,1.1,0,1.7c2.6,2.1,11.7,9.6,12.3,10.2
	c0.7,0.5,1.5,0.3,1.5,0.3h18.7c1.5,0.1,2.4,0.9,2.4,0.9s3,2.4,3.7,2.9c1.5,1.1,2.3,0,2.3,0l8.4-8.4c0,0,0.8-0.8,0-1.3
	S62,60.1,61.5,59.5C60.8,59,60.2,59,60.2,59L60.2,59z M48,4c24.3,0,44,19.7,44,44S72.3,92,48,92S4,72.3,4,48S23.7,4,48,4z"/>
</svg>
