<?xml version="1.0" encoding="utf-8"?>
<!-- Generator: Adobe Illustrator 24.0.1, SVG Export Plug-In . SVG Version: 6.00 Build 0)  -->
<svg version="1.1" id="Layer_1" xmlns="http://www.w3.org/2000/svg" xmlns:xlink="http://www.w3.org/1999/xlink" x="0px" y="0px"
	 viewBox="0 0 96 96" style="enable-background:new 0 0 96 96;" xml:space="preserve">
<style type="text/css">
	.st0{fill:#091F42;}
</style>
<path class="st0" d="M82,8.2H70c-1.1,0-2,0.9-2,2v6.5H56v-6.5c0-1.1-0.9-2-2-2H42c-1.1,0-2,0.9-2,2v6.5H28v-6.5c0-1.1-0.9-2-2-2H14
	c-1.1,0-2,0.9-2,2v6.5v6v42.1c0,1.4,0.7,2.7,2,3.4l32,19c1.3,0.7,2.8,0.7,4.1,0l32-19c1.2-0.7,2-2,2-3.4V22.7v-4v-8.5
	C84,9.1,83.1,8.2,82,8.2z M36.5,63.2c0,1.1-0.9,2-2,2h-4c-1.1,0-2-0.9-2-2v-17c0-1.1,0.9-2,2-2h4c1.1,0,2,0.9,2,2V63.2z M52,63.2
	c0,1.1-0.9,2-2,2h-4c-1.1,0-2-0.9-2-2v-31c0-1.1,0.9-2,2-2h4c1.1,0,2,0.9,2,2V63.2z M67.5,63.2c0,1.1-0.9,2-2,2h-4c-1.1,0-2-0.9-2-2
	v-23c0-1.1,0.9-2,2-2h4c1.1,0,2,0.9,2,2V63.2z"/>
</svg>
