<?xml version="1.0" encoding="utf-8"?>
<!-- Generator: Adobe Illustrator 24.0.1, SVG Export Plug-In . SVG Version: 6.00 Build 0)  -->
<svg version="1.1" id="Layer_1" xmlns="http://www.w3.org/2000/svg" xmlns:xlink="http://www.w3.org/1999/xlink" x="0px" y="0px"
	 viewBox="0 0 96 96" style="enable-background:new 0 0 96 96;" xml:space="preserve">
<style type="text/css">
	.st0{fill:#091F42;}
</style>
<g>
	<path class="st0" d="M84,66.7H12c-2.2,0-4,1.8-4,4V84c0,2.2,1.8,4,4,4h72c2.2,0,4-1.8,4-4V70.7C88,68.5,86.2,66.7,84,66.7z
		 M21.1,82.9c-3.1,0-5.6-2.5-5.6-5.6c0-3.1,2.5-5.6,5.6-5.6s5.6,2.5,5.6,5.6C26.6,80.4,24.1,82.9,21.1,82.9z"/>
	<path class="st0" d="M84,37.3H12c-2.2,0-4,1.8-4,4v13.3c0,2.2,1.8,4,4,4h72c2.2,0,4-1.8,4-4V41.3C88,39.1,86.2,37.3,84,37.3z
		 M21.1,53.6c-3.1,0-5.6-2.5-5.6-5.6s2.5-5.6,5.6-5.6s5.6,2.5,5.6,5.6S24.1,53.6,21.1,53.6z"/>
	<path class="st0" d="M84,8H12c-2.2,0-4,1.8-4,4v13.3c0,2.2,1.8,4,4,4h72c2.2,0,4-1.8,4-4V12C88,9.8,86.2,8,84,8z M21.1,24.2
		c-3.1,0-5.6-2.5-5.6-5.6s2.5-5.6,5.6-5.6s5.6,2.5,5.6,5.6S24.1,24.2,21.1,24.2z"/>
</g>
</svg>
