<?xml version="1.0" encoding="utf-8"?>
<!-- Generator: Adobe Illustrator 21.0.0, SVG Export Plug-In . SVG Version: 6.00 Build 0)  -->
<svg version="1.1" id="Layer_1" xmlns="http://www.w3.org/2000/svg" xmlns:xlink="http://www.w3.org/1999/xlink" x="0px" y="0px"
	 viewBox="0 0 96 96" style="enable-background:new 0 0 96 96;" xml:space="preserve">
<style type="text/css">
	.st0{fill:#040000;}
</style>
<g>
	<path class="st0" d="M30.9,44.9c0,0.4,0,0.8,0.1,1.2c-3.1,2.2-5.1,5.8-5.1,9.7c0,6.5,5.3,11.9,11.9,11.9h21.6
		c6.5,0,11.9-5.3,11.9-11.9c0-5.4-3.6-10-8.6-11.4c-0.4-6.6-5.9-11.8-12.5-11.8c-2.9,0-5.7,1-7.9,2.8c-0.5-0.1-1.1-0.1-1.6-0.1
		C35.3,35.2,30.9,39.6,30.9,44.9z M36.6,46.4c-0.2-0.5-0.3-1-0.3-1.5c0-2.4,1.9-4.3,4.3-4.3c0.5,0,1,0.1,1.4,0.3l1.7,0.6l1.2-1.3
		c1.4-1.5,3.2-2.3,5.2-2.3c4,0,7.2,3.2,7.2,7.2c0,0.3,0,0.7-0.1,1.1l-0.5,2.9l3,0.1c3.5,0.2,6.2,3,6.2,6.5c0,3.6-2.9,6.5-6.5,6.5
		H37.8c-3.6,0-6.5-2.9-6.5-6.5c0-2.6,1.5-4.9,3.9-5.9l2.3-1L36.6,46.4z"/>
	<path class="st0" d="M83.1,17.2H67.8c-5.3,0-9.7,4.3-9.7,9.7v5c0,1.4,1.1,2.5,2.5,2.5s2.5-1.1,2.5-2.5v-5c0-2.6,2.1-4.7,4.7-4.7
		h15.3c2.6,0,4.7,2.1,4.7,4.7v47.5c0,2.6-2.1,4.7-4.7,4.7H67.8c-2.6,0-4.7-2.1-4.7-4.7V72c0-1.4-1.1-2.5-2.5-2.5s-2.5,1.1-2.5,2.5
		v2.4c0,5.3,4.3,9.7,9.7,9.7h15.3c5.3,0,9.7-4.3,9.7-9.7V26.8C92.8,21.5,88.5,17.2,83.1,17.2z"/>
	<path class="st0" d="M35.4,69.5c-1.4,0-2.5,1.1-2.5,2.5v2.4c0,2.6-2.1,4.7-4.7,4.7H12.9c-2.6,0-4.7-2.1-4.7-4.7V26.8
		c0-2.6,2.1-4.7,4.7-4.7h15.3c2.6,0,4.7,2.1,4.7,4.7v3.7c0,1.4,1.1,2.5,2.5,2.5s2.5-1.1,2.5-2.5v-3.7c0-5.3-4.3-9.7-9.7-9.7H12.9
		c-5.3,0-9.7,4.3-9.7,9.7v47.5c0,5.3,4.3,9.7,9.7,9.7h15.3c5.3,0,9.7-4.3,9.7-9.7V72C37.9,70.6,36.8,69.5,35.4,69.5z"/>
	<path class="st0" d="M82.8,27.1H68.9c-1.4,0-2.5,1.1-2.5,2.5s1.1,2.5,2.5,2.5h13.9c1.4,0,2.5-1.1,2.5-2.5S84.2,27.1,82.8,27.1z"/>
	<path class="st0" d="M82.8,37.4H69.2c-1.4,0-2.5,1.1-2.5,2.5c0,1.4,1.1,2.5,2.5,2.5h13.6c1.4,0,2.5-1.1,2.5-2.5
		C85.3,38.5,84.2,37.4,82.8,37.4z"/>
	<path class="st0" d="M82.8,68.3H68.9c-1.4,0-2.5,1.1-2.5,2.5c0,1.4,1.1,2.5,2.5,2.5h13.9c1.4,0,2.5-1.1,2.5-2.5
		C85.3,69.4,84.2,68.3,82.8,68.3z"/>
	<path class="st0" d="M82.8,58h-7.6c-1.4,0-2.5,1.1-2.5,2.5c0,1.4,1.1,2.5,2.5,2.5h7.6c1.4,0,2.5-1.1,2.5-2.5
		C85.3,59.1,84.2,58,82.8,58z"/>
	<path class="st0" d="M82.8,47.7h-7.6c-1.4,0-2.5,1.1-2.5,2.5c0,1.4,1.1,2.5,2.5,2.5h7.6c1.4,0,2.5-1.1,2.5-2.5
		C85.3,48.8,84.2,47.7,82.8,47.7z"/>
	<path class="st0" d="M12.9,32.1h13.9c1.4,0,2.5-1.1,2.5-2.5s-1.1-2.5-2.5-2.5H12.9c-1.4,0-2.5,1.1-2.5,2.5S11.5,32.1,12.9,32.1z"/>
	<path class="st0" d="M12.9,42.4h13.6c1.4,0,2.5-1.1,2.5-2.5c0-1.4-1.1-2.5-2.5-2.5H12.9c-1.4,0-2.5,1.1-2.5,2.5
		C10.4,41.3,11.5,42.4,12.9,42.4z"/>
	<path class="st0" d="M12.9,73.3h13.9c1.4,0,2.5-1.1,2.5-2.5c0-1.4-1.1-2.5-2.5-2.5H12.9c-1.4,0-2.5,1.1-2.5,2.5
		C10.4,72.2,11.5,73.3,12.9,73.3z"/>
	<path class="st0" d="M12.9,63h7.6c1.4,0,2.5-1.1,2.5-2.5c0-1.4-1.1-2.5-2.5-2.5h-7.6c-1.4,0-2.5,1.1-2.5,2.5
		C10.4,61.9,11.5,63,12.9,63z"/>
	<path class="st0" d="M12.9,52.7h7.6c1.4,0,2.5-1.1,2.5-2.5c0-1.4-1.1-2.5-2.5-2.5h-7.6c-1.4,0-2.5,1.1-2.5,2.5
		C10.4,51.6,11.5,52.7,12.9,52.7z"/>
</g>
</svg>
