<?xml version="1.0" encoding="utf-8"?>
<!-- Generator: Adobe Illustrator 24.0.1, SVG Export Plug-In . SVG Version: 6.00 Build 0)  -->
<svg version="1.1" id="Layer_1" xmlns="http://www.w3.org/2000/svg" xmlns:xlink="http://www.w3.org/1999/xlink" x="0px" y="0px"
	 viewBox="0 0 96 96" style="enable-background:new 0 0 96 96;" xml:space="preserve">
<style type="text/css">
	.st0{fill:#091F42;}
</style>
<g>
	<path class="st0" d="M13,59.2c0.7-0.9,1.8-1.5,3-1.5h64c1.2,0,2.3,0.6,3,1.5c0.3,0.3,0.8,0.1,0.8-0.3L77.5,7.5
		c-0.2-2-1.9-3.5-4-3.5H22.5c-2,0-3.7,1.5-4,3.5l-6.2,51.4C12.2,59.4,12.7,59.6,13,59.2z"/>
	<path class="st0" d="M80,66H16c-2.2,0-4,1.8-4,4v18c0,2.2,1.8,4,4,4h64c2.2,0,4-1.8,4-4V70C84,67.8,82.2,66,80,66z M70.5,84.6
		c-3.1,0-5.6-2.5-5.6-5.6s2.5-5.6,5.6-5.6c3.1,0,5.6,2.5,5.6,5.6S73.5,84.6,70.5,84.6z"/>
</g>
</svg>
