<svg xmlns="http://www.w3.org/2000/svg" width="24" height="24" viewBox="0 0 24 24">
  <path fill="#526075" fill-rule="evenodd" d="M12.5574587,2.61194631 L20.2822439,6.83270521 C20.5211548,6.99197914 20.7600656,7.39016394 20.7600656,7.70871177 L20.7600656,16.3095035 C20.7600656,16.6280513 20.5211548,17.0262361 20.2822439,17.1855101 L12.5574587,21.406269 C12.2389109,21.6451799 11.7610891,21.6451799 11.4425413,21.406269 L3.71775612,17.1855101 C3.47884523,17.0262361 3.23993435,16.6280513 3.23993435,16.3095035 L3.23993435,7.70871177 C3.23993435,7.39016394 3.47884524,6.99197912 3.71775612,6.83270521 L11.4425413,2.61194631 C11.7610891,2.37303542 12.2389109,2.37303542 12.5574587,2.61194631 Z M5.45487425,14.4774392 C5.40819129,14.5626356 5.3837206,14.6582185 5.3837206,14.7553664 L5.3837206,15.1394509 C5.3837206,15.5047079 5.58286444,15.840908 5.90318595,16.0164267 L10.2341463,18.3895556 C10.5142746,18.5430506 10.8657958,18.440394 11.0192908,18.1602656 C11.0659737,18.0750692 11.0904444,17.9794863 11.0904444,17.8823384 L11.0904444,17.4982539 C11.0904444,17.1329969 10.8913006,16.7967968 10.5709791,16.6212781 L6.24001874,14.2481492 C5.95989039,14.0946542 5.60836923,14.1973108 5.45487425,14.4774392 Z M12,4.52323335 L6.18650188,7.70871177 L12,10.8941902 L17.8134981,7.70871177 L12,4.52323335 Z"/>
</svg>
