<?xml version="1.0" encoding="utf-8"?>
<!-- Generator: Adobe Illustrator 24.0.1, SVG Export Plug-In . SVG Version: 6.00 Build 0)  -->
<svg version="1.1" id="Layer_1" xmlns="http://www.w3.org/2000/svg" xmlns:xlink="http://www.w3.org/1999/xlink" x="0px" y="0px"
	 viewBox="0 0 96 96" style="enable-background:new 0 0 96 96;" xml:space="preserve">
<style type="text/css">
	.st0{fill:#091F42;}
</style>
<g>
	<path class="st0" d="M84,8H12c-2.2,0-4,1.8-4,4v30c0,1.1,0.9,2,2,2h16.4C28.3,33.8,37.2,26,48,26s19.7,7.8,21.6,18H86
		c1.1,0,2-0.9,2-2V12C88,9.8,86.2,8,84,8z"/>
	<path class="st0" d="M86,52H69.6C67.7,62.2,58.8,70,48,70s-19.7-7.8-21.6-18H10c-1.1,0-2,0.9-2,2v30c0,2.2,1.8,4,4,4h72
		c2.2,0,4-1.8,4-4V54C88,52.9,87.1,52,86,52z"/>
	<path class="st0" d="M62,48c0-7.7-6.3-14-14-14s-14,6.3-14,14s6.3,14,14,14S62,55.7,62,48z M44,48c0-2.2,1.8-4,4-4s4,1.8,4,4
		s-1.8,4-4,4S44,50.2,44,48z"/>
</g>
</svg>
