<?xml version="1.0" encoding="utf-8"?>
<!-- Generator: Adobe Illustrator 24.0.1, SVG Export Plug-In . SVG Version: 6.00 Build 0)  -->
<svg version="1.1" id="Layer_1" xmlns="http://www.w3.org/2000/svg" xmlns:xlink="http://www.w3.org/1999/xlink" x="0px" y="0px"
	 viewBox="0 0 96 96" style="enable-background:new 0 0 96 96;" xml:space="preserve">
<style type="text/css">
	.st0{fill-rule:evenodd;clip-rule:evenodd;fill:#091632;}
</style>
<path class="st0" d="M46.7,14.6l-0.2,0.1L18.2,30.2c-0.3,0.2-0.6,0.5-0.8,0.8c-0.5,0.9-0.2,2.1,0.7,2.6l0.1,0.1l5.4,3L44,25.9
	c2-1.2,4.5-1.2,6.6-0.2l0.2,0.1l21.4,10.9l5.5-3c0.3-0.2,0.6-0.5,0.8-0.8c0.5-0.9,0.2-2.1-0.7-2.6l-0.1-0.1L49.4,14.7
	C48.5,14.3,47.5,14.2,46.7,14.6z M47.5,34.4l-14.3,7.5l13.2,7.2c0.8,0.5,1.8,0.5,2.7,0.1l0.2-0.1L62.5,42L47.5,34.4z M51.9,6
	l32,17.7c2.6,1.4,4.1,4.1,4.1,7v34.7c0,2.9-1.6,5.6-4.1,7L51.9,90c-2.4,1.3-5.3,1.3-7.7,0l-32-17.7c-2.6-1.4-4.1-4.1-4.1-7V30.7
	c0-2.9,1.6-5.6,4.1-7L44.1,6C46.5,4.7,49.5,4.7,51.9,6z"/>
</svg>
