<?xml version="1.0" encoding="utf-8"?>
<!-- Generator: Adobe Illustrator 24.0.1, SVG Export Plug-In . SVG Version: 6.00 Build 0)  -->
<svg version="1.1" id="Layer_1" xmlns="http://www.w3.org/2000/svg" xmlns:xlink="http://www.w3.org/1999/xlink" x="0px" y="0px"
	 viewBox="0 0 96 96" style="enable-background:new 0 0 96 96;" xml:space="preserve">
<style type="text/css">
	.st0{fill:#0E1E3E;}
</style>
<path class="st0" d="M68,7.5c1.1,0,2,0.9,2,2v13c0,1.1-0.9,2-2,2H28c-1.1,0-2-0.9-2-2v-13c0-1.1,0.9-2,2-2H68z M68,30.5
	c1.1,0,2,0.9,2,2v13c0,1.1-0.9,2-2,2H28c-1.1,0-2-0.9-2-2v-13c0-1.1,0.9-2,2-2H68z M68,53.5c1.1,0,2,0.9,2,2v13c0,1.1-0.9,2-2,2H28
	c-1.1,0-2-0.9-2-2v-13c0-1.1,0.9-2,2-2H68z M18,47.5c1.1,0,2,0.9,2,2v25c0,1.1,0.9,2,2,2h52c1.1,0,2-0.9,2-2v-25c0-1.1,0.9-2,2-2h8
	c1.1,0,2,0.9,2,2v37c0,1.1-0.9,2-2,2H10c-1.1,0-2-0.9-2-2v-37c0-1.1,0.9-2,2-2H18z"/>
</svg>
