<?xml version="1.0" encoding="utf-8"?>
<!-- Generator: Adobe Illustrator 24.0.1, SVG Export Plug-In . SVG Version: 6.00 Build 0)  -->
<svg version="1.1" id="Layer_1" xmlns="http://www.w3.org/2000/svg" xmlns:xlink="http://www.w3.org/1999/xlink" x="0px" y="0px"
	 viewBox="0 0 96 96" style="enable-background:new 0 0 96 96;" xml:space="preserve">
<style type="text/css">
	.st0{fill:#091F42;}
</style>
<g>
	<path class="st0" d="M34.9,51c-2,0-3.6,1.6-3.6,3.6c0,2,1.6,3.6,3.6,3.6c2,0,3.6-1.6,3.6-3.6C38.6,52.6,36.9,51,34.9,51z"/>
	<path class="st0" d="M84,24H44l-3.2-11.1C40.3,11.2,38.8,10,37,10H12c-2.2,0-4,1.8-4,4v68c0,2.2,1.8,4,4,4h72c2.2,0,4-1.8,4-4V28
		C88,25.8,86.2,24,84,24z M16,22c0-2.8,2.2-5,5-5c2.8,0,5,2.2,5,5s-2.2,5-5,5C18.2,27,16,24.8,16,22z M71.8,56.6c0,1.1-0.9,2-2,2
		h-5.2v4.8c0,1.1-0.9,2-2,2h-5c-1.1,0-2-0.9-2-2v-4.8H44.9c-1.6,3.9-5.4,6.7-9.9,6.7c-5.9,0-10.7-4.8-10.7-10.7
		c0-5.9,4.8-10.7,10.7-10.7c4.8,0,8.9,3.2,10.2,7.6h24.6c1.1,0,2,0.9,2,2V56.6z"/>
</g>
</svg>
