<?xml version="1.0" encoding="utf-8"?>
<!-- Generator: Adobe Illustrator 24.0.1, SVG Export Plug-In . SVG Version: 6.00 Build 0)  -->
<svg version="1.1" id="Layer_1" xmlns="http://www.w3.org/2000/svg" xmlns:xlink="http://www.w3.org/1999/xlink" x="0px" y="0px"
	 viewBox="0 0 96 96" style="enable-background:new 0 0 96 96;" xml:space="preserve">
<style type="text/css">
	.st0{fill:#091F42;}
</style>
<path class="st0" d="M48,4C23.7,4,4,23.7,4,48s19.7,44,44,44c24.3,0,44-19.7,44-44S72.3,4,48,4z M45.1,39l-1.5,1.5
	c-0.8,0.8-2.2,0.8-3,0l-2.8-2.8v31.8c0,1.2-0.9,2.1-2.1,2.1h-4.2c-1.2,0-2.1-0.9-2.1-2.1V37.7l-2.8,2.8c-0.8,0.8-2.2,0.8-3,0
	L22.1,39c-0.8-0.8-0.8-2.2,0-3l10-10c0.8-0.8,2.2-0.8,3,0l10,10C45.9,36.8,45.9,38.1,45.1,39z M73.9,39l-1.5,1.5
	c-0.8,0.8-2.2,0.8-3,0l-2.8-2.8v31.8c0,1.2-0.9,2.1-2.1,2.1h-4.2c-1.2,0-2.1-0.9-2.1-2.1V37.7l-2.8,2.8c-0.8,0.8-2.2,0.8-3,0
	L50.9,39c-0.8-0.8-0.8-2.2,0-3l10-10c0.8-0.8,2.2-0.8,3,0l10,10C74.7,36.8,74.7,38.1,73.9,39z"/>
</svg>
