<?xml version="1.0" encoding="utf-8"?>
<!-- Generator: Adobe Illustrator 24.0.1, SVG Export Plug-In . SVG Version: 6.00 Build 0)  -->
<svg version="1.1" id="Layer_1" xmlns="http://www.w3.org/2000/svg" xmlns:xlink="http://www.w3.org/1999/xlink" x="0px" y="0px"
	 viewBox="0 0 96 96" style="enable-background:new 0 0 96 96;" xml:space="preserve">
<style type="text/css">
	.st0{fill-rule:evenodd;clip-rule:evenodd;fill:#08142F;}
</style>
<path class="st0" d="M41,44.2c-1.1,0-2,0.9-2,2v17.5c0,0.3,0.1,0.6,0.2,0.9c0.5,1,1.7,1.4,2.7,0.9l17.5-8.8c0.4-0.2,0.7-0.5,0.9-0.9
	c0.5-1,0.1-2.2-0.9-2.7l-17.5-8.8C41.6,44.3,41.3,44.2,41,44.2z M48,8c14.9,0,27,11.4,27,25.5c0,1.7-0.2,3.5-0.5,5.1
	C84.7,42.2,92,51.6,92,62.5c0,13.8-11.6,25-26,25.5l0,0H30l0,0C15.6,87.5,4,76.3,4,62.5c0-10.9,7.3-20.3,17.5-23.9
	C21.2,37,21,35.2,21,33.5C21,19.4,33.1,8,48,8z"/>
</svg>
