<?xml version="1.0" encoding="utf-8"?>
<!-- Generator: Adobe Illustrator 24.0.1, SVG Export Plug-In . SVG Version: 6.00 Build 0)  -->
<svg version="1.1" id="Layer_1" xmlns="http://www.w3.org/2000/svg" xmlns:xlink="http://www.w3.org/1999/xlink" x="0px" y="0px"
	 viewBox="0 0 96 96" style="enable-background:new 0 0 96 96;" xml:space="preserve">
<style type="text/css">
	.st0{fill:#091F42;}
</style>
<path class="st0" d="M35,19c-4.4,0-8,3.6-8,8v43H16c-2.2,0-4-1.8-4-4V8c0-2.2,1.8-4,4-4h42c2.2,0,4,1.8,4,4v11H35z M84,30v58
	c0,2.2-1.8,4-4,4H38c-2.2,0-4-1.8-4-4V30c0-2.2,1.8-4,4-4h42C82.2,26,84,27.8,84,30z M74.5,68c0-1.1-0.9-2-2-2h-27c-1.1,0-2,0.9-2,2
	v3c0,1.1,0.9,2,2,2h27c1.1,0,2-0.9,2-2V68z M74.5,47c0-1.1-0.9-2-2-2h-27c-1.1,0-2,0.9-2,2v3c0,1.1,0.9,2,2,2h27c1.1,0,2-0.9,2-2V47
	z"/>
</svg>
