<?xml version="1.0" encoding="utf-8"?>
<!-- Generator: Adobe Illustrator 21.0.0, SVG Export Plug-In . SVG Version: 6.00 Build 0)  -->
<svg version="1.1" id="Layer_1" xmlns="http://www.w3.org/2000/svg" xmlns:xlink="http://www.w3.org/1999/xlink" x="0px" y="0px"
	 viewBox="0 0 96 96" style="enable-background:new 0 0 96 96;" xml:space="preserve">
<style type="text/css">
	.st0{fill:#050505;}
</style>
<g>
	<path class="st0" d="M38.3,37.7c-0.2,0-0.6,0-1.1,0.1c-0.5,0-0.9,0.1-1.1,0.1c-0.3,0-0.7,0-1.2-0.1s-0.9-0.1-1.2-0.1
		c-0.2,0-0.3,0.2-0.4,0.6c-0.2,0.8-1.5,4.9-3.8,12.5c-2.1,7-3.2,10.6-3.2,10.9c0,0.3,0.7,0.5,2.2,0.5c1.8,0,2.9,0,3.2-0.1
		c0.3-0.1,0.5-0.6,0.7-1.5c0.2-1,0.4-1.6,0.5-1.8c0.1-0.1,1-0.2,2.6-0.2c2.4,0,3.6,0,3.8,0.1c0.2,0.1,0.4,1,0.8,2.6
		c0.1,0.4,0.3,0.7,0.6,0.8c0.4,0.1,1.3,0.1,2.6,0.1c1.5,0,2.4,0,2.6-0.1c0.2-0.1,0.4-0.2,0.4-0.4c0-0.3-1.1-4-3.4-11
		c-2.2-7-3.6-11.1-4-12.3C38.7,37.9,38.5,37.7,38.3,37.7z M37.8,52.6c-0.1,0.2-0.4,0.3-1,0.3c-0.7,0-1.2,0-1.4,0
		c-0.6,0-0.8-0.1-0.8-0.3c0-0.3,0.3-1.4,0.8-3.1c0.5-1.7,0.8-2.8,1-3.3c0.2,0.5,0.5,1.5,0.9,3.1c0.4,1.7,0.7,2.7,0.7,3.1
		C37.8,52.4,37.8,52.5,37.8,52.6z"/>
	<path class="st0" d="M54.1,56.5c0.4,0,0.9,0,1.7,0.1c0.8,0.1,1.3,0.1,1.7,0.1c2.3,0,4-0.9,5.3-2.7c1.2-1.7,1.8-3.9,1.8-6.7
		c0-2.7-0.7-4.9-2.1-6.5c-1.4-1.6-3.2-2.5-5.4-2.5c-1.4,0-2.8-0.1-4.3-0.1c-2.5,0-4.1,0.1-4.9,0.2c-0.3,0-0.4,0.2-0.4,0.4l0,0.2
		c0.3,3.9,0.4,7.7,0.4,11.3c0,1.3,0,3.2,0,5.7c0,2.5,0,4.4,0,5.7c0,0.3,0.1,0.5,0.4,0.5c0.6,0,1.4,0,2.6,0.1s2,0.1,2.6,0.1
		c0.2,0,0.3-0.1,0.3-0.4c0-0.5,0-1.3-0.1-2.3s-0.1-1.8-0.1-2.3C53.5,56.7,53.7,56.5,54.1,56.5z M53.4,50.9c0-0.4,0-0.9,0-1.6
		c0-0.7,0-1.2,0-1.6c0-2.5,0-3.8,0.1-3.9c0.1-0.2,0.9-0.3,2.4-0.3c2.1,0,3.2,1.3,3.2,4c0,2.5-1,3.7-3.1,3.7
		C54.2,51.3,53.4,51.1,53.4,50.9z"/>
	<path class="st0" d="M73,56.5c0.4,0,0.9,0,1.7,0.1c0.8,0.1,1.3,0.1,1.7,0.1c2.3,0,4-0.9,5.3-2.7c1.2-1.7,1.8-3.9,1.8-6.7
		c0-2.7-0.7-4.9-2.1-6.5c-1.4-1.6-3.2-2.5-5.4-2.5c-1.4,0-2.8-0.1-4.3-0.1c-2.5,0-4.1,0.1-4.9,0.2c-0.3,0-0.4,0.2-0.4,0.4l0,0.2
		c0.3,3.9,0.4,7.7,0.4,11.3c0,1.3,0,3.2,0,5.7c0,2.5,0,4.4,0,5.7c0,0.3,0.1,0.5,0.4,0.5c0.6,0,1.4,0,2.6,0.1s2,0.1,2.6,0.1
		c0.2,0,0.3-0.1,0.3-0.4c0-0.5,0-1.3-0.1-2.3s-0.1-1.8-0.1-2.3C72.4,56.7,72.6,56.5,73,56.5z M72.3,50.9c0-0.4,0-0.9,0-1.6
		c0-0.7,0-1.2,0-1.6c0-2.5,0-3.8,0.1-3.9c0.1-0.2,0.9-0.3,2.4-0.3c2.1,0,3.2,1.3,3.2,4c0,2.5-1,3.7-3.1,3.7
		C73.1,51.3,72.3,51.1,72.3,50.9z"/>
	<path class="st0" d="M76.3,73.6c-3.1,3.1-6.8,5.6-10.9,7.3c-4.2,1.8-8.7,2.7-13.3,2.6c-4.6,0-9.1-0.9-13.3-2.7
		c-4.1-1.7-7.7-4.2-10.8-7.3c-3.1-3.1-5.6-6.8-7.3-10.9c-1.8-4.2-2.7-8.7-2.6-13.3c0-4.6,0.9-9.1,2.7-13.3c1.7-4.1,4.2-7.7,7.3-10.8
		c3.1-3.1,6.8-5.6,10.9-7.3c4.2-1.8,8.7-2.7,13.3-2.6c4.6,0,9.1,0.9,13.3,2.7c1.3,0.5,2.5,1.2,3.7,1.8L66,20.5
		c-2.5,0.5-4.1,3-3.6,5.5c0.5,2.2,2.4,3.7,4.5,3.7c0.3,0,0.7,0,1-0.1L80,27c1-0.2,1.9-0.8,2.5-1.5c1.5-1.1,2.3-3,1.9-4.9L81,7.1
		c-0.6-2.5-3.1-4-5.6-3.4c-2.5,0.6-4,3.1-3.4,5.6l0.7,2.7c-1.2-0.7-2.4-1.3-3.7-1.8c-5.3-2.2-10.8-3.4-16.6-3.4S41,7.8,35.8,10
		c-2.5,1.1-5,2.4-7.3,3.9c-2.3,1.5-4.4,3.3-6.3,5.2c-1.9,1.9-3.7,4-5.2,6.3c-1.5,2.3-2.9,4.7-4,7.2c-2.2,5.3-3.4,10.8-3.4,16.6
		s1.1,11.3,3.3,16.6c1.1,2.5,2.4,5,3.9,7.3c1.5,2.3,3.3,4.4,5.2,6.3c1.9,1.9,4,3.7,6.3,5.2c2.3,1.5,4.7,2.9,7.2,4
		c5.3,2.2,10.8,3.4,16.6,3.4s11.3-1.1,16.6-3.3c2.5-1.1,5-2.4,7.3-3.9c2.3-1.5,4.4-3.3,6.3-5.2c1.7-1.7,1.7-4.4,0-6
		C80.7,71.9,78,71.9,76.3,73.6z"/>
</g>
</svg>
