<?xml version="1.0" encoding="utf-8"?>
<!-- Generator: Adobe Illustrator 24.0.1, SVG Export Plug-In . SVG Version: 6.00 Build 0)  -->
<svg version="1.1" id="Layer_1" xmlns="http://www.w3.org/2000/svg" xmlns:xlink="http://www.w3.org/1999/xlink" x="0px" y="0px"
	 viewBox="0 0 96 96" style="enable-background:new 0 0 96 96;" xml:space="preserve">
<style type="text/css">
	.st0{fill:#091F42;}
</style>
<path class="st0" d="M78.3,29.9c-0.1-2.2-1.8-3.9-4-3.9h-6.8v-2.5C67.5,12.7,58.8,4,48,4s-19.5,8.7-19.5,19.5V26h-6.8
	c-2.2,0-4,1.7-4,3.9l-1.7,58c-0.1,2.3,1.8,4.1,4,4.1h56c2.3,0,4.1-1.9,4-4.1L78.3,29.9z M35.5,23.5C35.5,16.6,41.1,11,48,11
	s12.5,5.6,12.5,12.5V26h-25V23.5z M62.2,61.8C62.2,69.6,55.9,76,48,76s-14.2-6.4-14.2-14.2V47.7c0-1.9,1.6-3.5,3.5-3.5
	s3.5,1.6,3.5,3.5v14.1c0,4,3.3,7.2,7.2,7.2s7.2-3.3,7.2-7.2V47.7c0-1.9,1.6-3.5,3.5-3.5s3.5,1.6,3.5,3.5V61.8z"/>
</svg>
