<?xml version="1.0" encoding="utf-8"?>
<!-- Generator: Adobe Illustrator 24.0.1, SVG Export Plug-In . SVG Version: 6.00 Build 0)  -->
<svg version="1.1" id="Layer_1" xmlns="http://www.w3.org/2000/svg" xmlns:xlink="http://www.w3.org/1999/xlink" x="0px" y="0px"
	 viewBox="0 0 96 96" style="enable-background:new 0 0 96 96;" xml:space="preserve">
<style type="text/css">
	.st0{fill:#08142F;}
</style>
<path class="st0" d="M58.8,10c9.4,0,16.9,7.6,16.9,17c0,9.4-7.6,17-16.9,17c-9.4,0-16.9-7.6-16.9-17C41.9,17.6,49.5,10,58.8,10z
	 M21.9,14c8.3,0,15,6.7,15,15s-6.7,15-15,15c-8.3,0-15-6.7-15-15S13.7,14,21.9,14z M34.4,55.5c-1.1,0-2,0.9-2,2v12.9
	c0,0.3,0.1,0.5,0.2,0.8c0.4,1,1.6,1.5,2.6,1l14.9-6.5c0.5-0.2,0.8-0.6,1-1c0.4-1,0-2.2-1-2.6l-14.9-6.5C35,55.6,34.7,55.5,34.4,55.5
	z M76,44c1.1,0,2,0.9,2,2l0,8.9l11.3-4.2c1-0.4,2.2,0.1,2.6,1.2c0.1,0.2,0.1,0.5,0.1,0.7v23.6c0,1.1-0.9,2-2,2c-0.2,0-0.5,0-0.7-0.1
	L78,73.9l0,4.8c0,4-3.1,7.3-6.9,7.3H10.9C7.1,86,4,82.7,4,78.7V46c0-1.1,0.9-2,2-2H76z"/>
</svg>
