<?xml version="1.0" encoding="utf-8"?>
<!-- Generator: Adobe Illustrator 24.0.1, SVG Export Plug-In . SVG Version: 6.00 Build 0)  -->
<svg version="1.1" id="Layer_1" xmlns="http://www.w3.org/2000/svg" xmlns:xlink="http://www.w3.org/1999/xlink" x="0px" y="0px"
	 viewBox="0 0 96 96" style="enable-background:new 0 0 96 96;" xml:space="preserve">
<style type="text/css">
	.st0{fill:#091F42;}
</style>
<g>
	<path class="st0" d="M39.9,8H12c-2.2,0-4,1.8-4,4v27.9c0,2.2,1.8,4,4,4h27.9c2.2,0,4-1.8,4-4V12C43.9,9.8,42.1,8,39.9,8z"/>
	<path class="st0" d="M84,8H56.1c-2.2,0-4,1.8-4,4v27.9c0,2.2,1.8,4,4,4H84c2.2,0,4-1.8,4-4V12C88,9.8,86.2,8,84,8z"/>
	<path class="st0" d="M39.9,52.1H12c-2.2,0-4,1.8-4,4V84c0,2.2,1.8,4,4,4h27.9c2.2,0,4-1.8,4-4V56.1C43.9,53.9,42.1,52.1,39.9,52.1z
		"/>
	<path class="st0" d="M84,52.1H56.1c-2.2,0-4,1.8-4,4V84c0,2.2,1.8,4,4,4H84c2.2,0,4-1.8,4-4V56.1C88,53.9,86.2,52.1,84,52.1z"/>
</g>
</svg>
