<?xml version="1.0" encoding="utf-8"?>
<!-- Generator: Adobe Illustrator 24.0.1, SVG Export Plug-In . SVG Version: 6.00 Build 0)  -->
<svg version="1.1" id="Layer_1" xmlns="http://www.w3.org/2000/svg" xmlns:xlink="http://www.w3.org/1999/xlink" x="0px" y="0px"
	 viewBox="0 0 96 96" style="enable-background:new 0 0 96 96;" xml:space="preserve">
<style type="text/css">
	.st0{fill:#091F42;}
</style>
<g>
	<path class="st0" d="M23.6,50.3l6.9-13.5c0.8-1.5,2.4-2.5,4.1-2.5c1.7,0,3.3,1,4,2.6l11,22.9l9.2-30.9c0.6-2,2.3-3.2,4.4-3.2
		c2.1,0,3.8,1.4,4.3,3.4L73,49.5h19c0-0.5,0-1,0-1.5C92,23.7,72.3,4,48,4S4,23.7,4,48c0,0.8,0,1.5,0.1,2.3H23.6z"/>
	<path class="st0" d="M71.9,56.5c-2.5,0-4.7-1.6-5.3-3.9l-3.4-13.3l-7.8,26.2c-0.6,2.1-2.5,3.5-4.8,3.7c-0.2,0-0.3,0-0.5,0
		c-2.2,0-4.1-1.1-5-3L34.5,44.4l-5.2,10c-0.9,1.8-2.8,2.9-4.9,2.9H5C9.2,77.1,26.9,92,48,92c21.4,0,39.2-15.3,43.2-35.5H71.9z"/>
</g>
</svg>
