<?xml version="1.0" encoding="utf-8"?>
<!-- Generator: Adobe Illustrator 24.0.1, SVG Export Plug-In . SVG Version: 6.00 Build 0)  -->
<svg version="1.1" id="Layer_1" xmlns="http://www.w3.org/2000/svg" xmlns:xlink="http://www.w3.org/1999/xlink" x="0px" y="0px"
	 viewBox="0 0 96 96" style="enable-background:new 0 0 96 96;" xml:space="preserve">
<style type="text/css">
	.st0{fill:#091F42;}
</style>
<g>
	<path class="st0" d="M48,4C23.7,4,4,23.7,4,48s19.7,44,44,44s44-19.7,44-44S72.3,4,48,4z M69.6,69.9c-3.9,0-7-3.1-7-7
		c0-2.8,1.6-5.2,4-6.3v-8.6c0-0.6-0.4-1-1-1H51v9.6c2.4,1.1,4,3.5,4,6.3c0,3.9-3.1,7-7,7s-7-3.1-7-7c0-2.8,1.6-5.2,4-6.3v-9.6H30.4
		c-0.6,0-1,0.4-1,1v8.6c2.4,1.1,4,3.5,4,6.3c0,3.9-3.1,7-7,7c-3.9,0-7-3.1-7-7c0-2.8,1.6-5.2,4-6.3v-8.6c0-3.9,3.1-7,7-7H45v-5.3
		c-2.9-1.2-5-4.1-5-7.4c0-4.4,3.6-8,8-8s8,3.6,8,8c0,3.4-2.1,6.2-5,7.4v5.3h14.6c3.9,0,7,3.1,7,7v8.6c2.4,1.1,4,3.5,4,6.3
		C76.6,66.8,73.4,69.9,69.6,69.9z"/>
</g>
</svg>
