<?xml version="1.0" encoding="utf-8"?>
<!-- Generator: Adobe Illustrator 17.0.0, SVG Export Plug-In . SVG Version: 6.00 Build 0)  -->
<!DOCTYPE svg PUBLIC "-//W3C//DTD SVG 1.1//EN" "http://www.w3.org/Graphics/SVG/1.1/DTD/svg11.dtd">
<svg version="1.1" id="Layer_1" xmlns="http://www.w3.org/2000/svg" xmlns:xlink="http://www.w3.org/1999/xlink" x="0px" y="0px"
	 width="96px" height="96px" viewBox="0 0 96 96" enable-background="new 0 0 96 96" xml:space="preserve">
<g>
	<path fill="#0B0B0B" d="M89.365,50.916c-4.179-0.002-8.358,0.017-12.537-0.017c-0.802-0.007-1.123,0.229-1.286,1.048
		C73.385,62.773,63.974,69.89,53.006,68.936c-1.767-0.154-3.495-0.741-5.251-1.072c-0.334-0.063-0.921,0.018-1.049,0.235
		c-2.368,4.016-4.684,8.062-7.068,12.201c0.295,0.178,0.473,0.316,0.674,0.404c6.819,2.995,13.89,3.864,21.219,2.478
		c1.58-0.299,1.532-0.338,1.82-1.904c0.598-3.255,2.201-5.922,4.948-7.796c3.692-2.52,7.655-2.922,11.799-1.225
		c0.562,0.23,0.944,0.23,1.338-0.288c0.591-0.778,1.28-1.482,1.873-2.258c3.968-5.197,6.312-11.054,7.096-17.543
		C90.556,50.919,90.581,50.917,89.365,50.916z"/>
	<path fill="#0B0B0B" d="M46.446,27.611c0.407,0.723,0.77,0.837,1.536,0.56c3.517-1.273,7.159-1.528,10.803-0.807
		c8.733,1.727,15.04,8.087,16.772,16.797c0.143,0.721,0.402,0.961,1.14,0.955c4.277-0.032,8.555-0.015,12.832-0.018
		c0.316,0,0.633-0.035,1.037-0.059c-0.153-1.12-0.249-2.152-0.438-3.166c-1.251-6.691-4.08-12.613-8.62-17.712
		c-0.479-0.538-0.855-0.601-1.496-0.322c-2.807,1.223-5.701,1.361-8.579,0.336c-4.776-1.702-7.467-5.162-8.215-10.144
		c-0.092-0.616-0.299-0.861-0.932-0.993c-6.543-1.363-12.963-0.936-19.266,1.258c-1.123,0.391-2.21,0.884-3.385,1.358
		c0.213,0.411,0.336,0.672,0.479,0.921C42.229,20.251,44.367,23.914,46.446,27.611z"/>
	<path fill="#0B0B0B" d="M41.284,64.082c-1.306-1.406-2.729-2.739-3.824-4.299c-3.054-4.351-4.114-9.278-3.442-14.503
		c0.684-5.315,3.131-9.768,7.232-13.26c0.532-0.453,0.565-0.798,0.214-1.395c-2.212-3.77-4.382-7.565-6.571-11.35
		c-0.107-0.186-0.263-0.344-0.393-0.511c-0.148,0.061-0.248,0.081-0.323,0.136c-6.379,4.624-10.857,10.643-13.336,18.14
		c-0.19,0.575-0.06,0.876,0.418,1.215c1.542,1.095,2.744,2.51,3.591,4.2c2.735,5.457,1.328,11.542-3.539,15.307
		c-0.515,0.399-0.696,0.769-0.421,1.402c0.699,1.613,1.256,3.292,2.031,4.866c2.661,5.407,6.54,9.783,11.522,13.329
		c0.16-0.175,0.265-0.256,0.326-0.361c2.271-3.925,4.529-7.857,6.816-11.773C41.907,64.672,41.617,64.44,41.284,64.082z"/>
	<path fill="#0B0B0B" d="M75.131,21.217c4.846,0.049,8.732-3.708,8.781-8.491c0.049-4.706-3.792-8.609-8.533-8.671
		c-4.727-0.061-8.588,3.747-8.641,8.523C66.685,17.322,70.423,21.17,75.131,21.217z"/>
	<path fill="#0B0B0B" d="M14.031,39.419c-4.687,0.013-8.592,3.929-8.597,8.623c-0.005,4.676,3.93,8.612,8.609,8.612
		c4.704,0,8.583-3.904,8.572-8.626C22.603,43.301,18.72,39.406,14.031,39.419z"/>
	<path fill="#0B0B0B" d="M75.297,74.798c-4.71,0.007-8.551,3.88-8.546,8.619c0.005,4.798,3.759,8.533,8.573,8.529
		c4.755-0.004,8.594-3.829,8.59-8.56C83.911,78.712,79.977,74.791,75.297,74.798z"/>
</g>
</svg>
