<?xml version="1.0" encoding="utf-8"?>
<!-- Generator: Adobe Illustrator 24.0.1, SVG Export Plug-In . SVG Version: 6.00 Build 0)  -->
<svg version="1.1" id="Layer_1" xmlns="http://www.w3.org/2000/svg" xmlns:xlink="http://www.w3.org/1999/xlink" x="0px" y="0px"
	 viewBox="0 0 96 96" style="enable-background:new 0 0 96 96;" xml:space="preserve">
<style type="text/css">
	.st0{fill:#091F42;}
</style>
<path class="st0" d="M48,4C23.7,4,4,23.7,4,48c0,10.9,3.9,20.8,10.5,28.5l18.8-18.8V35c-2.4-1.3-4-3.8-4-6.6c0-4.1,3.4-7.5,7.5-7.5
	s7.5,3.4,7.5,7.5c0,2.9-1.6,5.4-4,6.6v15.7l10.5-10.5c-0.2-0.7-0.3-1.4-0.3-2.2c0-4.1,3.4-7.5,7.5-7.5c4.1,0,7.5,3.4,7.5,7.5
	s-3.4,7.5-7.5,7.5c-0.8,0-1.5-0.1-2.2-0.3L45.1,55.7h16c1.3-2.4,3.8-4,6.6-4c4.1,0,7.5,3.4,7.5,7.5c0,4.1-3.4,7.5-7.5,7.5
	c-2.9,0-5.4-1.6-6.6-4h-23L19.4,81.4C27.1,88,37.1,92,48,92c24.3,0,44-19.7,44-44S72.3,4,48,4z"/>
</svg>
