<?xml version="1.0" encoding="utf-8"?>
<!-- Generator: Adobe Illustrator 24.0.1, SVG Export Plug-In . SVG Version: 6.00 Build 0)  -->
<svg version="1.1" id="Layer_1" xmlns="http://www.w3.org/2000/svg" xmlns:xlink="http://www.w3.org/1999/xlink" x="0px" y="0px"
	 viewBox="0 0 96 96" style="enable-background:new 0 0 96 96;" xml:space="preserve">
<style type="text/css">
	.st0{fill:#091F42;}
</style>
<path class="st0" d="M68.6,9.1L46.5,31.3h14.7C62.4,28.8,65,27,68,27c4.1,0,7.5,3.4,7.5,7.5c0,4.1-3.4,7.5-7.5,7.5
	c-2.8,0-5.2-1.5-6.5-3.8H44.5c-0.3,0.6-0.7,1.1-1.2,1.6c-2.9,2.9-7.7,2.9-10.6,0c-2.9-2.9-2.9-7.7,0-10.6c2.1-2.1,5.1-2.7,7.7-1.8
	L61.7,6.2C57.4,4.8,52.8,4,48,4C23.7,4,4,23.7,4,48c0,16.8,9.5,31.5,23.4,38.9l22.1-22.1H34.8c-0.4,0.7-0.8,1.4-1.4,2
	c-2.9,2.9-7.7,2.9-10.6,0c-2.9-2.9-2.9-7.7,0-10.6c2.9-2.9,7.7-2.9,10.6,0c0.5,0.5,0.9,1,1.2,1.6h16.9c1.3-2.2,3.7-3.8,6.5-3.8
	c4.1,0,7.5,3.4,7.5,7.5c0,4.1-3.4,7.5-7.5,7.5c-0.8,0-1.6-0.1-2.4-0.4L34.3,89.8C38.6,91.2,43.2,92,48,92c24.3,0,44-19.7,44-44
	C92,31.2,82.5,16.5,68.6,9.1z"/>
</svg>
