<?xml version="1.0" encoding="utf-8"?>
<!-- Generator: Adobe Illustrator 22.1.0, SVG Export Plug-In . SVG Version: 6.00 Build 0)  -->
<svg version="1.1" id="Layer_1" xmlns="http://www.w3.org/2000/svg" xmlns:xlink="http://www.w3.org/1999/xlink" x="0px" y="0px"
	 viewBox="0 0 96 96" style="enable-background:new 0 0 96 96;" xml:space="preserve">
<g>
	<path d="M84.1,4H47.3c-3.8,0-6.8,3.1-6.8,6.8v18.3c0,2.2,1.8,4,4,4s4-1.8,4-4V12h34.5v71.8H46.8c-2.2,0-4,1.8-4,4s1.8,4,4,4h37.2
		c3.8,0,6.8-3.1,6.8-6.8V10.9C90.9,7.1,87.8,4,84.1,4z"/>
	<path d="M76.7,17.8H54.4c-2.2,0-4,1.8-4,4s1.8,4,4,4h22.2c2.2,0,4-1.8,4-4S78.9,17.8,76.7,17.8z"/>
	<path d="M76.7,32.8l-11.1,0c-2.2,0-4,1.8-4,4s1.8,4,4,4l11.1,0c2.2,0,4-1.8,4-4S78.9,32.8,76.7,32.8z"/>
	<path d="M76.7,48.8h-7.1c-2.2,0-4,1.8-4,4s1.8,4,4,4h7.1c2.2,0,4-1.8,4-4S78.9,48.8,76.7,48.8z"/>
	<path d="M76.7,64.8l-7.1,0c-2.2,0-4,1.8-4,4s1.8,4,4,4l7.1,0c2.2,0,4-1.8,4-4S78.9,64.8,76.7,64.8z"/>
	<path d="M58.1,57.9c0-2.1-0.3-4.2-1-6.2c-0.7-2-1.7-3.8-3-5.5L45,55.3l-3.3-3.3l9.1-9.1c-1.7-1.3-3.5-2.3-5.5-3
		c-6.7-2.3-14.3-0.8-19.6,4.5c-3.7,3.7-5.6,8.6-5.6,13.4c0,2.1,0.3,4.2,1,6.2L7.7,77.6c-3.3,3.3-3.3,8.5,0,11.8
		c1.6,1.6,3.7,2.4,5.9,2.4c2.1,0,4.3-0.8,5.9-2.4l13.4-13.4c2,0.7,4.1,1,6.2,1c4.9,0,9.7-1.8,13.4-5.6
		C56.2,67.7,58.1,62.8,58.1,57.9z M48.3,67.1c-2.8,2.8-6.7,4.1-10.4,3.7c-2.2-0.2-4.3-0.9-6.2-2.3L15.2,85.1c-0.9,0.9-2.4,0.9-3.3,0
		c-0.9-0.9-0.9-2.4,0-3.3l16.5-16.5c-1.3-1.9-2.1-4-2.3-6.2c-0.3-3.7,0.9-7.5,3.7-10.4c2.8-2.8,6.7-4.1,10.4-3.7l-7.1,7.1L45,63.8
		l7.1-7.1C52.4,60.5,51.1,64.3,48.3,67.1z"/>
</g>
</svg>
