<svg xmlns="http://www.w3.org/2000/svg" width="24" height="24" viewBox="0 0 24 24">
  <path fill="#526075" fill-rule="evenodd" d="M7.10209033,16.8317263 C7.38813802,17.3688704 7.9566766,17.734921 8.61130834,17.734921 C9.55370369,17.734921 10.3173104,16.9766914 10.3173104,16.0414358 C10.3173104,15.1059548 9.55370369,14.3479507 8.61130834,14.3479507 C7.95672887,14.3479507 7.38822666,14.7138343 7.10215851,15.250918 L7.10215851,15.250918 L2,15.2510657 C2.10196817,13.1507989 3.23317259,11.3195945 4.90269285,10.2400751 C4.87903604,10.0131482 4.86675195,9.78305997 4.86675195,9.5500365 C4.86675195,5.8823991 7.86180615,2.90909091 11.5565489,2.90909091 C15.0192735,2.90909091 17.8673846,5.52044503 18.2117686,8.86744906 C20.4600502,10.0099869 22,12.3309647 22,15.0105098 C22,15.0910422 21.9986091,15.1712526 21.9958523,15.2511179 L17.7942823,15.2511442 C17.5083051,14.713937 16.9397983,14.3479507 16.2849666,14.3479507 C16.155162,14.3479507 16.0287416,14.3623389 15.9072371,14.3895966 L15.9072371,14.3895966 L12.9983306,11.2634081 C13.0611419,11.0868895 13.0953146,10.8969323 13.0953146,10.6990321 C13.0953146,9.76377678 12.3317102,9.00554717 11.3893148,9.00554717 C10.4471468,9.00554717 9.68331504,9.76377678 9.68331504,10.6990321 C9.68331504,11.6345134 10.4471468,12.3925173 11.3893148,12.3925173 C11.5412489,12.3925173 11.688533,12.3728154 11.8287216,12.3358441 L11.8287216,12.3358441 L14.6978463,15.4190331 C14.6211236,15.6116873 14.5789668,15.8216639 14.5789668,16.0414358 C14.5789668,16.9766914 15.3428008,17.734921 16.2849666,17.734921 C16.9397574,17.734921 17.5082369,17.3688704 17.79423,16.8317263 L17.79423,16.8317263 L21.7552614,16.8317309 C20.9505001,19.7579625 18.2536572,21.9090909 15.0506644,21.9090909 L15.0506644,21.9090909 L8.38725382,21.9090909 C5.29363826,21.9090909 2.71327946,19.7287217 2.12053635,16.8316786 L7.10209033,16.8317263 Z"/>
</svg>
