<?xml version="1.0" encoding="utf-8"?>
<!-- Generator: Adobe Illustrator 24.0.1, SVG Export Plug-In . SVG Version: 6.00 Build 0)  -->
<svg version="1.1" id="Layer_1" xmlns="http://www.w3.org/2000/svg" xmlns:xlink="http://www.w3.org/1999/xlink" x="0px" y="0px"
	 viewBox="0 0 96 96" style="enable-background:new 0 0 96 96;" xml:space="preserve">
<style type="text/css">
	.st0{fill:#091F42;}
</style>
<path class="st0" d="M80.8,14.3l-32-6.2c-0.5-0.1-1.1-0.1-1.6,0l-32,6.2C13.3,14.6,12,16.2,12,18v22.1c0,16.3,8.5,31.4,22.7,40.3
	l11.1,7c1.3,0.8,3,0.8,4.4,0l11.1-7C75.5,71.5,84,56.3,84,40.1V18C84,16.2,82.7,14.6,80.8,14.3z M67.8,39.6L49.3,57.9l0,0L45,62.1
	c-0.8,0.8-2.1,0.8-2.8,0L38,57.8l0,0l-9.8-10.1c-0.8-0.8-0.8-2.1,0-2.8l2.9-2.8c0.8-0.8,2.1-0.8,2.8,0l9.8,10l18.6-18.3
	c0.8-0.8,2.1-0.8,2.8,0l2.8,2.9C68.6,37.6,68.6,38.8,67.8,39.6z"/>
</svg>
