<?xml version="1.0" encoding="utf-8"?>
<!-- Generator: Adobe Illustrator 24.0.1, SVG Export Plug-In . SVG Version: 6.00 Build 0)  -->
<svg version="1.1" id="Layer_1" xmlns="http://www.w3.org/2000/svg" xmlns:xlink="http://www.w3.org/1999/xlink" x="0px" y="0px"
	 viewBox="0 0 96 96" style="enable-background:new 0 0 96 96;" xml:space="preserve">
<style type="text/css">
	.st0{fill:#091F42;}
</style>
<path class="st0" d="M84,24H44l-3.2-11.1C40.3,11.2,38.8,10,37,10H12c-2.2,0-4,1.8-4,4v68c0,2.2,1.8,4,4,4h72c2.2,0,4-1.8,4-4V28
	C88,25.8,86.2,24,84,24z M21,27c-2.8,0-5-2.2-5-5s2.2-5,5-5c2.8,0,5,2.2,5,5S23.8,27,21,27z M70.5,57.5l-10,10c-0.8,0.8-2.2,0.8-3,0
	L56,66c-0.8-0.8-0.8-2.2,0-3l2.8-2.8H27c-1.2,0-2.1-0.9-2.1-2.1v-4.2c0-1.2,0.9-2.1,2.1-2.1h31.8L56,49c-0.8-0.8-0.8-2.2,0-3
	l1.5-1.5c0.8-0.8,2.2-0.8,3,0l10,10C71.3,55.3,71.3,56.7,70.5,57.5z"/>
</svg>
