<?xml version="1.0" encoding="utf-8"?>
<!-- Generator: Adobe Illustrator 24.0.1, SVG Export Plug-In . SVG Version: 6.00 Build 0)  -->
<svg version="1.1" id="Layer_1" xmlns="http://www.w3.org/2000/svg" xmlns:xlink="http://www.w3.org/1999/xlink" x="0px" y="0px"
	 viewBox="0 0 96 96" style="enable-background:new 0 0 96 96;" xml:space="preserve">
<style type="text/css">
	.st0{fill:#091530;}
</style>
<path class="st0" d="M81,36h-9v-9h9V36z M81,54h-9v-9h9V54z M81,72h-9v-9h9V72z M61.8,50L42.3,61.3c-0.3,0.2-0.7,0.2-1,0.2
	c-0.4,0-0.8-0.1-1.2-0.3c-0.7-0.4-1.1-1.1-1.1-1.9V36.6c0-0.8,0.4-1.5,1.1-1.9c0.7-0.4,1.5-0.4,2.2-0.1L61.8,46
	c0.8,0.4,1.2,1.1,1.2,2S62.5,49.6,61.8,50z M24,36h-9v-9h9V36z M24,54h-9v-9h9V54z M24,72h-9v-9h9V72z M84,12h-3v6h-9v-6H24v6h-9v-6
	h-3c-1.7,0-3,1.3-3,3v66c0,1.7,1.3,3,3,3h3v-3h9v3h48v-3h9v3h3c1.7,0,3-1.3,3-3V15C87,13.3,85.7,12,84,12z"/>
</svg>
