<?xml version="1.0" encoding="utf-8"?>
<!-- Generator: Adobe Illustrator 24.0.1, SVG Export Plug-In . SVG Version: 6.00 Build 0)  -->
<svg version="1.1" id="Layer_1" xmlns="http://www.w3.org/2000/svg" xmlns:xlink="http://www.w3.org/1999/xlink" x="0px" y="0px"
	 viewBox="0 0 96 96" style="enable-background:new 0 0 96 96;" xml:space="preserve">
<style type="text/css">
	.st0{fill:#091F42;}
</style>
<g>
	<path class="st0" d="M25,47.5l6.8-16.4c0.7-1.7,2.4-2.9,4.3-2.8c1.9,0.1,3.5,1.2,4.1,3l5.6,16.2h9.9c1.7,0,3.2,0.9,4,2.4l3,5.6
		l4.8-5.9c0.9-1.1,2.1-1.7,3.5-1.7h12.3c0.4-2.5,0.7-5.1,0.7-7.8V18c0-1.8-1.3-3.4-3.2-3.8l-32-6.2c-0.5-0.1-1.1-0.1-1.6,0l-32,6.2
		C13.3,14.6,12,16.2,12,18v22.1c0,2.5,0.2,5,0.6,7.4H25z"/>
	<path class="st0" d="M72.2,54.8l-6.4,7.9c-0.9,1.1-2.1,1.7-3.5,1.7c-0.1,0-0.3,0-0.4,0c-1.5-0.1-2.8-1-3.5-2.3l-4.1-7.6H44
		c-1.9,0-3.6-1.2-4.3-3l-4-11.6l-4.9,11.9c-0.7,1.7-2.3,2.8-4.2,2.8H14.3C17.7,65,24.8,74.2,34.7,80.4l11.1,7c1.3,0.8,3,0.8,4.4,0
		l11.1-7c9.7-6.1,16.8-15.2,20.3-25.5H72.2z"/>
</g>
</svg>
