<?xml version="1.0" encoding="utf-8"?>
<!-- Generator: Adobe Illustrator 17.0.0, SVG Export Plug-In . SVG Version: 6.00 Build 0)  -->
<!DOCTYPE svg PUBLIC "-//W3C//DTD SVG 1.1//EN" "http://www.w3.org/Graphics/SVG/1.1/DTD/svg11.dtd">
<svg version="1.1" id="Layer_1" xmlns="http://www.w3.org/2000/svg" xmlns:xlink="http://www.w3.org/1999/xlink" x="0px" y="0px"
	 width="96px" height="96px" viewBox="0 0 96 96" enable-background="new 0 0 96 96" xml:space="preserve">
<path fill="#040000" d="M48,4.901L3.166,21.526l0.979,3.54c1.5,5.425,2.244,10.159,2.963,14.738
	C9.321,53.887,11.07,65.01,32.065,79.462c5.72,3.937,11.05,9.299,12.802,11.061l3.106,3.106l2.828-2.773
	c1.935-1.896,7.15-6.795,13.789-11.294c18.745-12.698,26.991-53.066,27.333-54.778l0.668-3.347L48,4.901z M15.011,38.562
	c-0.57-3.627-1.2-7.637-2.244-12.063l31.713-11.76v64.383c-2.308-2.048-5.031-4.29-7.879-6.25
	C18.438,60.37,17.075,51.694,15.011,38.562z M78.016,44.285C72.793,58.63,66.599,68.538,60.103,72.938
	c-2.825,1.914-5.397,3.889-7.622,5.711V15.095l30.85,11.44C82.415,30.353,80.655,37.036,78.016,44.285z"/>
</svg>
