<?xml version="1.0" encoding="utf-8"?>
<!-- Generator: Adobe Illustrator 21.0.0, SVG Export Plug-In . SVG Version: 6.00 Build 0)  -->
<svg version="1.1" id="Layer_1" xmlns="http://www.w3.org/2000/svg" xmlns:xlink="http://www.w3.org/1999/xlink" x="0px" y="0px"
	 viewBox="0 0 96 96" style="enable-background:new 0 0 96 96;" xml:space="preserve">
<style type="text/css">
	.st0{fill:#1A1D1E;}
</style>
<path class="st0" d="M77.9,60.8c6.8,0,12.3-5.5,12.3-12.3s-5.5-12.3-12.3-12.3c-4.3,0-8.1,2.2-10.2,5.5L58,33.9
	c0.3-1,0.5-2.1,0.5-3.3c0-0.1,0-0.2,0-0.3l9.1-6c2.2,3.4,6,5.5,10.2,5.5c6.8,0,12.3-5.5,12.3-12.3S84.7,5.2,77.9,5.2
	c-6.5,0-11.9,5.1-12.3,11.5l-9.7,6.3c-2.2-3-5.8-4.8-9.8-4.8c-6.8,0-12.3,5.5-12.3,12.3c0,1.4,0.3,2.8,0.7,4.1L27.9,39
	c-2.2-2.1-5.2-3.4-8.6-3.4c-6.9,0-12.5,5.5-12.5,12.3s5.5,12.3,12.3,12.3c2.8,0,5.3-0.9,7.4-2.5l7.5,4.5c-0.3,1-0.5,2.1-0.5,3.3
	c0,6.8,5.5,12.3,12.3,12.3c3.4,0,6.5-1.4,8.8-3.6l10.8,5.5c0.5,6.3,5.8,11.4,12.3,11.4c6.8,0,12.3-5.5,12.3-12.3
	c0-6.8-5.5-12.3-12.3-12.3c-4.5,0-8.3,2.3-10.5,5.9l-9.1-4.6c0.1-0.7,0.2-1.3,0.2-2c0-1.1-0.2-2.3-0.5-3.4l10.2-6
	C70.5,59,73.9,60.8,77.9,60.8z M77.9,12.6c2.7,0,4.8,2.2,4.8,4.8s-2.2,4.8-4.8,4.8S73,20.1,73,17.5S75.2,12.6,77.9,12.6z M77.9,73.6
	c2.7,0,4.8,2.2,4.8,4.8s-2.2,4.8-4.8,4.8S73,81.1,73,78.5S75.2,73.6,77.9,73.6z M77.9,43.6c2.7,0,4.8,2.2,4.8,4.8
	c0,2.7-2.2,4.8-4.8,4.8S73,51,73,48.4C72.9,45.8,75.2,43.6,77.9,43.6z M31.4,45.6l7.6-4.9c2,1.4,4.5,2.3,7.2,2.3c3,0,5.7-1,7.8-2.8
	l11.2,9.2L53.9,56c-2.1-1.7-4.8-2.8-7.7-2.8c-3,0-5.7,1-7.8,2.8L31,51.6c0.4-1.2,0.6-2.4,0.6-3.7C31.6,47.1,31.5,46.4,31.4,45.6z
	 M46.1,25.7c2.7,0,4.8,2.2,4.8,4.8s-2.2,4.8-4.8,4.8c-2.6,0-4.8-2.2-4.8-4.8S43.4,25.7,46.1,25.7z M19.3,52.7
	c-2.7,0-4.8-2.2-4.8-4.8c0-2.7,2.2-4.8,4.8-4.8s4.8,2.2,4.8,4.8C24.1,50.5,22,52.7,19.3,52.7z M46.1,70.4c-2.7,0-4.8-2.2-4.8-4.8
	c0-2.6,2.2-4.8,4.8-4.8c2.6,0,4.8,2.2,4.8,4.8C50.9,68.1,48.8,70.4,46.1,70.4z"/>
</svg>
