<?xml version="1.0" encoding="utf-8"?>
<!-- Generator: Adobe Illustrator 21.0.0, SVG Export Plug-In . SVG Version: 6.00 Build 0)  -->
<svg version="1.1" id="Layer_1" xmlns="http://www.w3.org/2000/svg" xmlns:xlink="http://www.w3.org/1999/xlink" x="0px" y="0px"
	 viewBox="0 0 96 96" style="enable-background:new 0 0 96 96;" xml:space="preserve">
<style type="text/css">
	.st0{fill:#040000;}
</style>
<g>
	<path class="st0" d="M70.8,22.2H50.7c-2,0-3.6,1.6-3.6,3.6s1.6,3.6,3.6,3.6h20.1c2,0,3.6-1.6,3.6-3.6S72.8,22.2,70.8,22.2z"/>
	<path class="st0" d="M70.8,35.7H54.1c-2,0-3.6,1.6-3.6,3.6s1.6,3.6,3.6,3.6h16.7c2,0,3.6-1.6,3.6-3.6S72.8,35.7,70.8,35.7z"/>
	<path class="st0" d="M70.8,50.1h-14c-2,0-3.6,1.6-3.6,3.6s1.6,3.6,3.6,3.6h14c2,0,3.6-1.6,3.6-3.6C74.4,51.7,72.8,50.1,70.8,50.1z"
		/>
	<path class="st0" d="M70.8,64.6h-8.6c-2,0-3.6,1.6-3.6,3.6s1.6,3.6,3.6,3.6h8.6c2,0,3.6-1.6,3.6-3.6S72.8,64.6,70.8,64.6z"/>
	<g>
		<path class="st0" d="M77.5,9.8H44.3c-3.4,0-6.2,2.8-6.2,6.2v24c0,2,1.6,3.6,3.6,3.6s3.6-1.6,3.6-3.6V17h31.1v64.7h-20
			c-2,0-3.6,1.6-3.6,3.6s1.6,3.6,3.6,3.6h21c3.4,0,6.2-2.8,6.2-6.2V15.9C83.7,12.5,80.9,9.8,77.5,9.8z"/>
		<path class="st0" d="M56.2,68.8c0-3.6-2.3-6.8-5.5-8c0.5-1.1,0.8-2.3,0.8-3.5c0-2.3-0.9-4.4-2.5-6c-2.6-2.6-6.4-3.2-9.5-1.7
			c-1.2-3.2-4.3-5.5-8-5.5s-6.8,2.3-8,5.5c-3.1-1.4-7-0.8-9.5,1.7c-1.6,1.6-2.5,3.8-2.5,6c0,1.2,0.3,2.4,0.8,3.5
			c-3.2,1.2-5.5,4.3-5.5,8s2.3,6.8,5.5,8c-0.5,1.1-0.8,2.3-0.8,3.5c0,2.3,0.9,4.4,2.5,6c1.6,1.6,3.8,2.5,6,2.5
			c1.2,0,2.4-0.3,3.5-0.8c1.2,3.2,4.3,5.5,8,5.5s6.8-2.3,8-5.5c1.1,0.5,2.3,0.8,3.5,0.8c2.3,0,4.4-0.9,6-2.5c1.6-1.6,2.5-3.8,2.5-6
			c0-1.2-0.3-2.4-0.8-3.5C53.9,75.5,56.2,72.4,56.2,68.8z M47.6,71.3c-0.1,0-0.2,0-0.4,0c-1.4-0.2-2.8,0.6-3.2,1.9
			c-0.2,0.5-0.4,0.9-0.6,1.3c-0.6,1.3-0.2,2.9,0.9,3.8c0.1,0.1,0.2,0.1,0.3,0.2c1,1,1,2.6,0,3.6s-2.6,1-3.6,0
			c-0.1-0.1-0.2-0.2-0.3-0.4c-0.8-1.2-2.4-1.7-3.7-1.1c-0.4,0.2-0.8,0.3-1.2,0.5c-1.4,0.5-2.3,2-2,3.4c0,0.2,0.1,0.3,0.1,0.5
			c0,1.4-1.1,2.5-2.5,2.5c-1.4,0-2.5-1.1-2.5-2.5c0-0.2,0-0.4,0.1-0.7c0.4-1.5-0.4-3-1.8-3.6c-0.4-0.1-0.8-0.3-1.1-0.5
			c-0.4-0.2-0.9-0.3-1.4-0.3c-1,0-2.1,0.6-2.6,1.5c-0.1,0.3-0.3,0.4-0.4,0.6c-1,1-2.6,1-3.6,0s-1-2.6,0-3.6c0.2-0.2,0.4-0.3,0.6-0.4
			c1.4-0.7,2-2.5,1.4-3.9c-0.2-0.3-0.3-0.7-0.4-1.1c-0.5-1.5-2.2-2.4-3.8-1.9c-0.3,0.1-0.6,0.1-0.8,0.1c-1.4,0-2.5-1.1-2.5-2.5
			c0-1.4,1.1-2.5,2.5-2.5c0.2,0,0.5,0,0.8,0.2c1.5,0.5,3.2-0.3,3.8-1.9c0.1-0.4,0.3-0.8,0.4-1.1c0.7-1.5,0.1-3.2-1.4-3.9
			c-0.3-0.1-0.5-0.3-0.6-0.4c-1-1-1-2.6,0-3.6s2.6-1,3.6,0c0.1,0.1,0.3,0.3,0.4,0.6c0.8,1.4,2.5,1.9,4,1.2c0.4-0.2,0.7-0.4,1.1-0.5
			c1.4-0.6,2.2-2.1,1.8-3.6c-0.1-0.3-0.1-0.5-0.1-0.7c0-1.4,1.1-2.5,2.5-2.5c1.4,0,2.5,1.1,2.5,2.5c0,0.2,0,0.3-0.1,0.5
			c-0.3,1.5,0.6,3,2,3.4c0.4,0.1,0.8,0.3,1.2,0.5c1.3,0.6,2.9,0.1,3.7-1.1c0.1-0.2,0.2-0.3,0.3-0.4c1-1,2.6-1,3.6,0s1,2.6,0,3.6
			c-0.1,0.1-0.2,0.1-0.3,0.2c-1.2,0.9-1.6,2.4-0.9,3.7c0.2,0.4,0.4,0.9,0.6,1.3c0.5,1.3,1.9,2.1,3.3,1.9c0.1,0,0.2,0,0.3,0
			c1.4,0,2.5,1.1,2.5,2.5C50.1,70,49,71.3,47.6,71.3z"/>
		<path class="st0" d="M32.2,60.2c-4.9,0-8.9,4-8.9,8.9c0,4.9,4,8.9,8.9,8.9c4.9,0,8.9-4,8.9-8.9C41.1,64.2,37.1,60.2,32.2,60.2z
			 M32.2,72c-1.6,0-2.9-1.3-2.9-2.9c0-1.6,1.3-2.9,2.9-2.9c1.6,0,2.9,1.3,2.9,2.9C35.1,70.7,33.8,72,32.2,72z"/>
	</g>
</g>
</svg>
