<?xml version="1.0" encoding="utf-8"?>
<!-- Generator: Adobe Illustrator 21.0.0, SVG Export Plug-In . SVG Version: 6.00 Build 0)  -->
<svg version="1.1" id="Layer_1" xmlns="http://www.w3.org/2000/svg" xmlns:xlink="http://www.w3.org/1999/xlink" x="0px" y="0px"
	 viewBox="0 0 96 96" style="enable-background:new 0 0 96 96;" xml:space="preserve">
<style type="text/css">
	.st0{fill:#040000;}
</style>
<g>
	<path class="st0" d="M56.8,53c4.8,9.5,3.6,11.5,3.5,11.6c-0.9,1.4-7.8,1.2-12.3,1c-2.5-0.1-5-0.1-7.8-0.1c-3.2,0-4.7-0.6-5-1.2
		c-0.9-1.7,1.5-7.1,4.2-10.7l-3.2-2.4l-3.2-2.4c-1.5,1.9-8.6,12-5,19.1c1.9,3.8,6,5.7,12.2,5.6c2.6,0,5.1,0,7.5,0.1
		c1.8,0.1,3.6,0.1,5.3,0.1c6.4,0,11.4-0.7,14-4.8c2.6-4.1,1.7-9.9-3.1-19.5L56.8,53z"/>
	<path class="st0" d="M73.1,1.8H24.4c-8.8,0-16,7.2-16,16v60c0,8.8,7.2,16,16,16h48.7c8.8,0,16-7.2,16-16v-60
		C89.1,9,81.9,1.8,73.1,1.8z M81.1,77.8c0,4.4-3.6,8-8,8H24.4c-4.4,0-8-3.6-8-8v-60c0-4.4,3.6-8,8-8h48.7c4.4,0,8,3.6,8,8V77.8z"/>
	<path class="st0" d="M42.2,50.7c2,0.9,4.2,1.4,6.5,1.4C57.7,52.2,65,44.8,65,36c0-3.9-1.4-7.6-3.8-10.4c-2.9-3.6-7.4-5.9-12.4-5.9
		h-0.3c-8.8,0-16,7.2-16,16V36C32.4,42.6,36.5,48.3,42.2,50.7z M48.6,29c4,0,7.2,3.2,7.2,7.2s-3.2,7.2-7.2,7.2c-4,0-7.2-3.2-7.2-7.2
		S44.6,29,48.6,29z"/>
</g>
</svg>
