<?xml version="1.0" encoding="utf-8"?>
<!-- Generator: Adobe Illustrator 24.0.1, SVG Export Plug-In . SVG Version: 6.00 Build 0)  -->
<svg version="1.1" id="Layer_1" xmlns="http://www.w3.org/2000/svg" xmlns:xlink="http://www.w3.org/1999/xlink" x="0px" y="0px"
	 viewBox="0 0 96 96" style="enable-background:new 0 0 96 96;" xml:space="preserve">
<style type="text/css">
	.st0{fill:#091632;}
</style>
<path class="st0" d="M74.5,24c-5.2,0-9.5,4.3-9.5,9.5c0,2,0.6,3.9,1.8,5.5L59,48.6c-1.1-0.4-2.2-0.6-3.4-0.6c-2.1,0-4.1,0.7-5.7,1.9
	L43,45.4c0-0.3,0-0.6,0-0.9c0-4.7-3.8-8.5-8.5-8.5S26,39.8,26,44.5c0,1.6,0.4,3,1.2,4.3l-7.3,8.5C19.2,57.1,18.6,57,18,57
	c-3.9,0-7,3.1-7,7s3.1,7,7,7s7-3.1,7-7c0-0.8-0.1-1.5-0.4-2.2l7.8-9c0.6,0.2,1.3,0.2,2,0.2c2,0,3.8-0.7,5.2-1.8l6.5,4.3
	c-0.1,0.6-0.2,1.3-0.2,2c0,5.2,4.3,9.5,9.5,9.5s9.5-4.3,9.5-9.5c0-1.6-0.4-3.1-1.1-4.5l8.4-10.3c0.7,0.2,1.5,0.3,2.2,0.3
	c5.2,0,9.5-4.3,9.5-9.5C84,28.3,79.7,24,74.5,24z M48,4c24.3,0,44,19.7,44,44S72.3,92,48,92S4,72.3,4,48S23.7,4,48,4z"/>
</svg>
