<?xml version="1.0" encoding="utf-8"?>
<!-- Generator: Adobe Illustrator 24.0.1, SVG Export Plug-In . SVG Version: 6.00 Build 0)  -->
<svg version="1.1" id="Layer_1" xmlns="http://www.w3.org/2000/svg" xmlns:xlink="http://www.w3.org/1999/xlink" x="0px" y="0px"
	 viewBox="0 0 96 96" style="enable-background:new 0 0 96 96;" xml:space="preserve">
<style type="text/css">
	.st0{fill:#091F42;}
</style>
<path class="st0" d="M80,4H16c-2.2,0-4,1.8-4,4v80c0,2.2,1.8,4,4,4h64c2.2,0,4-1.8,4-4V8C84,5.8,82.2,4,80,4z M44.3,24.1l3.7-7.5
	l3.7,7.5l8.3,1.2l-6,5.8l1.4,8.3L48,35.5l-7.4,3.9l1.4-8.3l-6-5.8L44.3,24.1z M58,73c0,1.1-0.9,2-2,2H28.5c-1.1,0-2-0.9-2-2v-3
	c0-1.1,0.9-2,2-2H56c1.1,0,2,0.9,2,2V73z M70,57c0,1.1-0.9,2-2,2H29c-1.1,0-2-0.9-2-2v-3c0-1.1,0.9-2,2-2h39c1.1,0,2,0.9,2,2V57z"/>
</svg>
