<?xml version="1.0" encoding="utf-8"?>
<!-- Generator: Adobe Illustrator 24.0.1, SVG Export Plug-In . SVG Version: 6.00 Build 0)  -->
<svg version="1.1" id="Layer_1" xmlns="http://www.w3.org/2000/svg" xmlns:xlink="http://www.w3.org/1999/xlink" x="0px" y="0px"
	 viewBox="0 0 96 96" style="enable-background:new 0 0 96 96;" xml:space="preserve">
<style type="text/css">
	.st0{fill:#091F42;}
</style>
<g>
	<g>
		<ellipse class="st0" cx="48" cy="17.7" rx="40" ry="9.7"/>
		<g>
			<path class="st0" d="M40.7,68c0-0.7,0-1.3,0.1-2C28.2,65.4,16,63.1,8,59v19.8c0.7,2.5,14,9.1,40,9.1c0.5,0,1,0,1.5,0
				C44.1,83,40.7,75.9,40.7,68z"/>
		</g>
		<g>
			<path class="st0" d="M67.7,41c7.8,0,14.8,3.3,19.7,8.6c0.3-0.3,0.5-0.6,0.6-0.8l0-19.7c-9.4,4.9-25.1,7.1-40,7.1
				c-14.9,0-30.5-2.3-40-7.1v19.8c0.6,2.3,12.2,8.2,34.7,9C46.7,48,56.4,41,67.7,41z"/>
		</g>
	</g>
	<path class="st0" d="M67.7,48c-11,0-20,8.9-20,20c0,11,8.9,20,20,20s20-8.9,20-20C87.7,57,78.7,48,67.7,48z M74.8,77.8
		C74,78.6,73,79,72,79c-1,0-2-0.4-2.8-1.2l-5-5C63.4,72.1,63,71.1,63,70V59c0-2.2,1.8-4,4-4s4,1.8,4,4v9.4l3.8,3.8
		C76.4,73.7,76.4,76.2,74.8,77.8z"/>
</g>
</svg>
