<?xml version="1.0" encoding="utf-8"?>
<!-- Generator: Adobe Illustrator 17.0.0, SVG Export Plug-In . SVG Version: 6.00 Build 0)  -->
<!DOCTYPE svg PUBLIC "-//W3C//DTD SVG 1.1//EN" "http://www.w3.org/Graphics/SVG/1.1/DTD/svg11.dtd">
<svg version="1.1" id="Layer_1" xmlns="http://www.w3.org/2000/svg" xmlns:xlink="http://www.w3.org/1999/xlink" x="0px" y="0px"
	 width="96px" height="96px" viewBox="0 0 96 96" enable-background="new 0 0 96 96" xml:space="preserve">
<g>
	<path d="M81.667,60.833H14.333c-7.26,0-13.167,5.906-13.167,13.167s5.907,13.167,13.167,13.167h67.333
		c7.26,0,13.166-5.906,13.166-13.167S88.927,60.833,81.667,60.833z M81.667,79.167H14.333c-2.849,0-5.167-2.318-5.167-5.167
		s2.318-5.167,5.167-5.167h67.333c2.849,0,5.166,2.318,5.166,5.167S84.516,79.167,81.667,79.167z"/>
	<path d="M25.167,52.833V23.167c0-2.209,1.791-4,4-4s4,1.791,4,4v29.667c0,2.209-1.791,4-4,4S25.167,55.042,25.167,52.833z"/>
	<path d="M64.167,52.833V23.167c0-2.209,1.791-4,4-4s4,1.791,4,4v29.667c0,2.209-1.791,4-4,4S64.167,55.042,64.167,52.833z"/>
</g>
</svg>
