<?xml version="1.0" encoding="utf-8"?>
<!-- Generator: Adobe Illustrator 17.0.0, SVG Export Plug-In . SVG Version: 6.00 Build 0)  -->
<!DOCTYPE svg PUBLIC "-//W3C//DTD SVG 1.1//EN" "http://www.w3.org/Graphics/SVG/1.1/DTD/svg11.dtd">
<svg version="1.1" id="Layer_1" xmlns="http://www.w3.org/2000/svg" xmlns:xlink="http://www.w3.org/1999/xlink" x="0px" y="0px"
	 width="96px" height="96px" viewBox="0 0 96 96" enable-background="new 0 0 96 96" xml:space="preserve">
<g>
	<path d="M80,4H16C9.383,4,4,9.383,4,16v64c0,6.617,5.383,12,12,12h64c6.617,0,12-5.383,12-12V16C92,9.383,86.617,4,80,4z M84,80
		c0,2.206-1.794,4-4,4H16c-2.206,0-4-1.794-4-4V32h72V80z M84,24H12v-8c0-2.206,1.794-4,4-4h64c2.206,0,4,1.794,4,4V24z"/>
	<path d="M37.114,53.874c0.626,3.985,1.121,7.131,7.061,11.22c1.618,1.114,3.126,2.631,3.622,3.129l0.879,0.879l0.8-0.785
		c0.547-0.536,2.023-1.922,3.901-3.195c5.303-3.592,7.636-15.013,7.733-15.497l0.189-0.947L48.684,44L36,48.704l0.276,1.001
		C36.7,51.239,36.91,52.579,37.114,53.874z"/>
</g>
</svg>
