<?xml version="1.0" encoding="utf-8"?>
<!-- Generator: Adobe Illustrator 24.0.1, SVG Export Plug-In . SVG Version: 6.00 Build 0)  -->
<svg version="1.1" id="Layer_1" xmlns="http://www.w3.org/2000/svg" xmlns:xlink="http://www.w3.org/1999/xlink" x="0px" y="0px"
	 viewBox="0 0 96 96" style="enable-background:new 0 0 96 96;" xml:space="preserve">
<style type="text/css">
	.st0{fill:#091F42;}
</style>
<g>
	<path class="st0" d="M48.9,32.8c-0.7-0.2-1.3-0.3-2-0.3c-1.4,0-2.8,0.4-4,1.1c-1.8,1.1-3.1,2.8-3.7,4.9c-0.5,2.1-0.2,4.2,0.9,6
		c1.1,1.8,2.8,3.1,4.9,3.7c2.1,0.5,4.2,0.2,6-0.9c3.8-2.2,5-7.1,2.8-10.9C52.6,34.7,50.9,33.4,48.9,32.8z"/>
	<path class="st0" d="M80.8,14.3l-32-6.2c-0.5-0.1-1.1-0.1-1.6,0l-32,6.2C13.3,14.6,12,16.2,12,18v22.1c0,16.3,8.5,31.4,22.7,40.3
		l11.1,7c1.3,0.8,3,0.8,4.4,0l11.1-7C75.5,71.5,84,56.3,84,40.1V18C84,16.2,82.7,14.6,80.8,14.3z M63.1,65.1l-2.6,1.5
		c-1,0.6-2.2,0.2-2.7-0.7l-6.6-11.1c-1.4,0.4-2.9,0.7-4.3,0.7c-1.3,0-2.5-0.2-3.8-0.5c-3.9-1-7.1-3.4-9.1-6.9
		c-2-3.4-2.6-7.5-1.6-11.3c1-3.9,3.4-7.1,6.9-9.1c3.4-2,7.5-2.6,11.3-1.6c3.9,1,7.1,3.4,9.1,6.9c3.6,6.1,2.4,13.6-2.5,18.3l6.6,11.1
		C64.4,63.3,64.1,64.6,63.1,65.1z"/>
</g>
</svg>
