<?xml version="1.0" encoding="utf-8"?>
<!-- Generator: Adobe Illustrator 24.0.1, SVG Export Plug-In . SVG Version: 6.00 Build 0)  -->
<svg version="1.1" id="Layer_1" xmlns="http://www.w3.org/2000/svg" xmlns:xlink="http://www.w3.org/1999/xlink" x="0px" y="0px"
	 viewBox="0 0 96 96" style="enable-background:new 0 0 96 96;" xml:space="preserve">
<style type="text/css">
	.st0{fill-rule:evenodd;clip-rule:evenodd;fill:#091632;}
</style>
<path class="st0" d="M62,20H34v8h28V20z M40.5,45.6c-1.1,0-2,0.9-2,2v17.8c0,0.3,0.1,0.6,0.2,0.8c0.4,1,1.6,1.5,2.6,1l20.1-8.9
	c0.5-0.2,0.8-0.6,1-1c0.4-1,0-2.2-1-2.6l-20.1-8.9C41.1,45.6,40.8,45.6,40.5,45.6z M63.4,12c3.3,0,6.4,2.3,6.6,5.7l0,0.2V28h12
	c3.3,0,6,2.7,6,6v44c0,3.3-2.7,6-6,6H14c-3.3,0-6-2.7-6-6V34c0-3.3,2.7-6,6-6h12V17.9c0-3.5,3-5.8,6.3-5.9l0.2,0H63.4z"/>
</svg>
