<?xml version="1.0" encoding="utf-8"?>
<!-- Generator: Adobe Illustrator 21.0.0, SVG Export Plug-In . SVG Version: 6.00 Build 0)  -->
<svg version="1.1" id="Layer_1" xmlns="http://www.w3.org/2000/svg" xmlns:xlink="http://www.w3.org/1999/xlink" x="0px" y="0px"
	 viewBox="0 0 96 96" style="enable-background:new 0 0 96 96;" xml:space="preserve">
<style type="text/css">
	.st0{fill:#060001;}
</style>
<g>
	<path class="st0" d="M33.7,47.9c0.8,0.4,1.7,0.6,2.5,0.6c1.7,0,3.2-0.7,4.4-1.8c1.2-1.2,1.8-2.8,1.8-4.4c0-0.9-0.2-1.7-0.6-2.5
		c2.3-0.9,4-3.2,4-5.8c0-2.6-1.7-4.9-4-5.8c0.4-0.8,0.6-1.7,0.6-2.5c0-1.7-0.7-3.2-1.8-4.4C38.7,19.4,36,19,33.7,20
		c-0.9-2.3-3.1-4-5.8-4c-2.7,0-4.9,1.7-5.8,4c-2.2-1-5.1-0.6-6.9,1.2c-1.2,1.2-1.8,2.8-1.8,4.4c0,0.9,0.2,1.7,0.6,2.5
		c-2.3,0.9-4,3.1-4,5.8c0,2.7,1.7,4.9,4,5.8c-0.4,0.8-0.6,1.7-0.6,2.5c0,1.7,0.7,3.2,1.8,4.4c1.2,1.2,2.8,1.8,4.4,1.8
		c0.9,0,1.7-0.2,2.5-0.6c0.9,2.3,3.1,4,5.8,4C30.6,51.9,32.9,50.2,33.7,47.9z M26,45.7c0-0.1,0-0.3,0.1-0.5c0.3-1.1-0.3-2.2-1.3-2.6
		c-0.3-0.1-0.6-0.2-0.8-0.4c-0.3-0.1-0.7-0.2-1-0.2c-0.7,0-1.5,0.4-1.9,1.1c-0.1,0.2-0.2,0.3-0.3,0.4c-0.7,0.7-1.9,0.7-2.6,0
		c-0.7-0.7-0.7-1.9,0-2.6c0.1-0.1,0.3-0.2,0.4-0.3c1-0.5,1.5-1.8,1-2.8c-0.1-0.2-0.2-0.5-0.3-0.8c-0.4-1.1-1.6-1.7-2.8-1.4
		c-0.2,0.1-0.4,0.1-0.6,0.1c-1,0-1.8-0.8-1.8-1.8c0-1,0.8-1.8,1.8-1.8c0.1,0,0.4,0,0.6,0.1c1.1,0.4,2.3-0.2,2.8-1.4
		c0.1-0.3,0.2-0.6,0.3-0.8c0.5-1.1,0.1-2.3-1-2.8c-0.2-0.1-0.4-0.2-0.4-0.3c-0.7-0.7-0.7-1.9,0-2.6c0.7-0.7,1.9-0.7,2.6,0
		c0.1,0.1,0.2,0.2,0.3,0.4c0.6,1,1.8,1.4,2.9,0.9c0.3-0.1,0.5-0.3,0.8-0.4c1-0.4,1.6-1.5,1.3-2.6C26,22.4,26,22.3,26,22.1
		c0-1,0.8-1.8,1.8-1.8c1,0,1.8,0.8,1.8,1.8c0,0.1,0,0.2-0.1,0.4C29.4,23.6,30,24.7,31,25c0.3,0.1,0.6,0.2,0.9,0.4
		c0.9,0.4,2.1,0.1,2.7-0.8c0.1-0.1,0.1-0.2,0.2-0.3c0.7-0.7,1.9-0.7,2.6,0c0.7,0.7,0.7,1.9,0,2.6c-0.1,0.1-0.1,0.1-0.2,0.1
		c-0.9,0.7-1.2,1.7-0.7,2.7c0.1,0.3,0.3,0.7,0.4,0.9c0.4,0.9,1.4,1.5,2.4,1.4c0.1,0,0.1,0,0.2,0c1,0,1.8,0.8,1.8,1.8
		c0,1-0.8,2-1.8,2c-0.1,0-0.1,0-0.3,0c-1-0.1-2,0.4-2.3,1.4c-0.1,0.4-0.3,0.7-0.4,0.9c-0.4,0.9-0.1,2.1,0.7,2.8
		c0.1,0.1,0.1,0.1,0.2,0.1c0.7,0.7,0.7,1.9,0,2.6c-0.7,0.7-1.9,0.7-2.6,0c-0.1-0.1-0.1-0.1-0.2-0.3c-0.6-0.9-1.7-1.2-2.7-0.8
		c-0.3,0.1-0.6,0.2-0.9,0.4c-1,0.4-1.7,1.5-1.5,2.5c0,0.1,0.1,0.2,0.1,0.4c0,1-0.8,1.8-1.8,1.8C26.8,47.6,26,46.8,26,45.7z"/>
	<path class="st0" d="M32.8,34c0-2.7-2.2-4.9-4.9-4.9S23,31.3,23,34c0,2.7,2.2,4.9,4.9,4.9S32.8,36.7,32.8,34z M27.9,35.6
		c-0.9,0-1.6-0.7-1.6-1.6c0-0.9,0.7-1.6,1.6-1.6c0.9,0,1.6,0.7,1.6,1.6C29.5,34.9,28.8,35.6,27.9,35.6z"/>
	<path class="st0" d="M50,33.1c-0.4,0.8-0.6,1.7-0.6,2.5c0,1.7,0.7,3.2,1.8,4.4c1.2,1.2,2.8,1.8,4.4,1.8c0.9,0,1.7-0.2,2.5-0.6
		c0.9,2.3,3.1,4,5.8,4c2.7,0,4.9-1.7,5.8-4c0.8,0.4,1.7,0.6,2.5,0.6c1.7,0,3.2-0.7,4.4-1.8c1.2-1.2,1.8-2.8,1.8-4.4
		c0-0.9-0.2-1.7-0.6-2.5c2.3-0.9,4-3.2,4-5.8c0-2.6-1.7-4.9-4-5.8c0.4-0.8,0.6-1.7,0.6-2.5c0-1.7-0.7-3.2-1.8-4.4
		c-1.9-1.9-4.6-2.3-6.9-1.2c-0.9-2.3-3.1-4-5.8-4c-2.7,0-4.9,1.7-5.8,4c-2.2-1-5.1-0.6-6.9,1.2c-1.2,1.2-1.8,2.8-1.8,4.4
		c0,0.9,0.2,1.7,0.6,2.5c-2.3,0.9-4,3.1-4,5.8C46,30,47.7,32.3,50,33.1z M52,25.4c0.1,0,0.4,0,0.6,0.1c1.1,0.4,2.3-0.2,2.8-1.4
		c0.1-0.3,0.2-0.6,0.3-0.8c0.5-1.1,0.1-2.3-1-2.8c-0.2-0.1-0.4-0.2-0.4-0.3c-0.7-0.7-0.7-1.9,0-2.6c0.7-0.7,1.9-0.7,2.6,0
		c0.1,0.1,0.2,0.2,0.3,0.4c0.6,1,1.8,1.4,2.9,0.9c0.3-0.1,0.5-0.3,0.8-0.4c1-0.4,1.6-1.5,1.3-2.6C62,15.8,62,15.6,62,15.5
		c0-1,0.8-1.8,1.8-1.8c1,0,1.8,0.8,1.8,1.8c0,0.1,0,0.2-0.1,0.4C65.4,17,66,18,67,18.3c0.3,0.1,0.6,0.2,0.9,0.4
		c0.9,0.4,2.1,0.1,2.7-0.8c0.1-0.1,0.1-0.2,0.2-0.3c0.7-0.7,1.9-0.7,2.6,0c0.7,0.7,0.7,1.9,0,2.6c-0.1,0.1-0.1,0.1-0.2,0.1
		c-0.9,0.7-1.2,1.7-0.7,2.7c0.1,0.3,0.3,0.7,0.4,0.9c0.4,0.9,1.4,1.5,2.4,1.4c0.1,0,0.1,0,0.2,0c1,0,1.8,0.8,1.8,1.8
		c0,1-0.8,2-1.8,2c-0.1,0-0.1,0-0.3,0c-1-0.1-2,0.4-2.3,1.4c-0.1,0.4-0.3,0.7-0.4,0.9c-0.4,0.9-0.1,2.1,0.7,2.8
		c0.1,0.1,0.1,0.1,0.2,0.1c0.7,0.7,0.7,1.9,0,2.6c-0.7,0.7-1.9,0.7-2.6,0c-0.1-0.1-0.1-0.1-0.2-0.3c-0.6-0.9-1.7-1.2-2.7-0.8
		c-0.3,0.1-0.6,0.2-0.9,0.4c-1,0.4-1.7,1.5-1.5,2.5c0,0.1,0.1,0.2,0.1,0.4c0,1-0.8,1.8-1.8,1.8c-1,0-1.8-0.8-1.8-1.8
		c0-0.1,0-0.3,0.1-0.5c0.3-1.1-0.3-2.2-1.3-2.6c-0.3-0.1-0.6-0.2-0.8-0.4c-0.3-0.1-0.7-0.2-1-0.2c-0.7,0-1.5,0.4-1.9,1.1
		c-0.1,0.2-0.2,0.3-0.3,0.4c-0.7,0.7-1.9,0.7-2.6,0c-0.7-0.7-0.7-1.9,0-2.6c0.1-0.1,0.3-0.2,0.4-0.3c1-0.5,1.5-1.8,1-2.8
		c-0.1-0.2-0.2-0.5-0.3-0.8c-0.4-1.1-1.6-1.7-2.8-1.4c-0.2,0.1-0.4,0.1-0.6,0.1c-1,0-1.8-0.8-1.8-1.8C50.2,26.2,51,25.4,52,25.4z"/>
	<path class="st0" d="M63.9,32.2c2.7,0,4.9-2.2,4.9-4.9s-2.2-4.9-4.9-4.9S59,24.6,59,27.3S61.2,32.2,63.9,32.2z M63.9,25.7
		c0.9,0,1.6,0.7,1.6,1.6c0,0.9-0.7,1.6-1.6,1.6c-0.9,0-1.6-0.7-1.6-1.6C62.3,26.4,63,25.7,63.9,25.7z"/>
	<path class="st0" d="M55.9,62.7c0.4-0.8,0.6-1.7,0.6-2.5c0-1.7-0.7-3.2-1.8-4.4c-1.9-1.9-4.6-2.3-6.9-1.2c-0.9-2.3-3.1-4-5.8-4
		c-2.7,0-4.9,1.7-5.8,4c-2.2-1-5.1-0.6-6.9,1.2c-1.2,1.2-1.8,2.8-1.8,4.4c0,0.9,0.2,1.7,0.6,2.5c-2.3,0.9-4,3.1-4,5.8
		c0,2.7,1.7,4.9,4,5.8c-0.4,0.8-0.6,1.7-0.6,2.5c0,1.7,0.7,3.2,1.8,4.4c1.2,1.2,2.8,1.8,4.4,1.8c0.9,0,1.7-0.2,2.5-0.6
		c0.9,2.3,3.1,4,5.8,4c2.7,0,4.9-1.7,5.8-4c0.8,0.4,1.7,0.6,2.5,0.6c1.7,0,3.2-0.7,4.4-1.8c1.2-1.2,1.8-2.8,1.8-4.4
		c0-0.9-0.2-1.7-0.6-2.5c2.3-0.9,4-3.2,4-5.8C59.9,65.9,58.2,63.5,55.9,62.7z M53.6,70.3c-0.1,0-0.1,0-0.3,0c-1-0.1-2,0.4-2.3,1.4
		c-0.1,0.4-0.3,0.7-0.4,0.9c-0.4,0.9-0.1,2.1,0.7,2.8c0.1,0.1,0.1,0.1,0.2,0.1c0.7,0.7,0.7,1.9,0,2.6c-0.7,0.7-1.9,0.7-2.6,0
		c-0.1-0.1-0.1-0.1-0.2-0.3C48,77,46.9,76.6,45.9,77c-0.3,0.1-0.6,0.2-0.9,0.4c-1,0.4-1.7,1.5-1.5,2.5c0,0.1,0.1,0.2,0.1,0.4
		c0,1-0.8,1.8-1.8,1.8c-1,0-1.8-0.8-1.8-1.8c0-0.1,0-0.3,0.1-0.5c0.3-1.1-0.3-2.2-1.3-2.6c-0.3-0.1-0.6-0.2-0.8-0.4
		c-0.3-0.1-0.7-0.2-1-0.2c-0.7,0-1.5,0.4-1.9,1.1c-0.1,0.2-0.2,0.3-0.3,0.4c-0.7,0.7-1.9,0.7-2.6,0c-0.7-0.7-0.7-1.9,0-2.6
		c0.1-0.1,0.3-0.2,0.4-0.3c1-0.5,1.5-1.8,1-2.8c-0.1-0.2-0.2-0.5-0.3-0.8c-0.4-1.1-1.6-1.7-2.8-1.4c-0.2,0.1-0.4,0.1-0.6,0.1
		c-1,0-1.8-0.8-1.8-1.8c0-1,0.8-1.8,1.8-1.8c0.1,0,0.4,0,0.6,0.1c1.1,0.4,2.3-0.2,2.8-1.4c0.1-0.3,0.2-0.6,0.3-0.8
		c0.5-1.1,0.1-2.3-1-2.8c-0.2-0.1-0.4-0.2-0.4-0.3c-0.7-0.7-0.7-1.9,0-2.6c0.7-0.7,1.9-0.7,2.6,0c0.1,0.1,0.2,0.2,0.3,0.4
		c0.6,1,1.8,1.4,2.9,0.9c0.3-0.1,0.5-0.3,0.8-0.4c1-0.4,1.6-1.5,1.3-2.6C40,56.9,40,56.8,40,56.6c0-1,0.8-1.8,1.8-1.8
		c1,0,1.8,0.8,1.8,1.8c0,0.1,0,0.2-0.1,0.4c-0.2,1.1,0.4,2.2,1.5,2.5c0.3,0.1,0.6,0.2,0.9,0.4c0.9,0.4,2.1,0.1,2.7-0.8
		c0.1-0.1,0.1-0.2,0.2-0.3c0.7-0.7,1.9-0.7,2.6,0c0.7,0.7,0.7,1.9,0,2.6c-0.1,0.1-0.1,0.1-0.2,0.1c-0.9,0.7-1.2,1.7-0.7,2.7
		c0.1,0.3,0.3,0.7,0.4,0.9c0.4,0.9,1.4,1.5,2.4,1.4c0.1,0,0.1,0,0.2,0c1,0,1.8,0.8,1.8,1.8C55.4,69.3,54.6,70.3,53.6,70.3z"/>
	<path class="st0" d="M41.9,63.6c-2.7,0-4.9,2.2-4.9,4.9s2.2,4.9,4.9,4.9s4.9-2.2,4.9-4.9S44.6,63.6,41.9,63.6z M41.9,70.1
		c-0.9,0-1.6-0.7-1.6-1.6c0-0.9,0.7-1.6,1.6-1.6c0.9,0,1.6,0.7,1.6,1.6C43.5,69.4,42.8,70.1,41.9,70.1z"/>
	<path class="st0" d="M85.4,59.5c0.1-2-1.1-3.8-2.8-4.5c0.3-0.6,0.5-1.2,0.5-1.9c0.1-1.3-0.4-2.4-1.2-3.4c-1.4-1.5-3.4-1.9-5.2-1.2
		c-0.6-1.8-2.2-3.1-4.3-3.2c-2-0.1-3.8,1.1-4.5,2.8c-1.7-0.8-3.8-0.6-5.3,0.7c-0.9,0.8-1.5,2-1.5,3.2c0,0.7,0.1,1.3,0.4,1.9
		c-1.8,0.6-3.1,2.2-3.2,4.3c-0.1,2,1.1,3.8,2.8,4.5c-0.3,0.6-0.5,1.2-0.5,1.9c-0.1,1.3,0.4,2.4,1.2,3.4c0.8,0.9,2,1.5,3.2,1.5
		c0.7,0,1.3-0.1,1.9-0.4c0.6,1.8,2.2,3.1,4.3,3.2c2,0.1,3.8-1.1,4.5-2.8c0.6,0.3,1.2,0.5,1.9,0.5c1.3,0.1,2.4-0.4,3.4-1.2
		c0.9-0.8,1.5-2,1.5-3.2c0-0.7-0.1-1.3-0.4-1.9C83.9,63.1,85.3,61.4,85.4,59.5z M80.6,60.6c-0.1,0-0.1,0-0.2,0
		c-0.8-0.1-1.6,0.3-1.8,1c-0.1,0.3-0.2,0.5-0.4,0.7c-0.4,0.7-0.2,1.6,0.4,2.1c0.1,0.1,0.1,0.1,0.2,0.1c0.5,0.6,0.5,1.5-0.1,2
		c-0.6,0.5-1.5,0.5-2-0.1c-0.1-0.1-0.1-0.1-0.2-0.2c-0.4-0.7-1.3-1-2-0.7c-0.2,0.1-0.4,0.1-0.7,0.2c-0.8,0.2-1.3,1-1.2,1.8
		c0,0.1,0,0.2,0,0.3c0,0.8-0.7,1.3-1.4,1.3c-0.8,0-1.3-0.7-1.3-1.4c0-0.1,0-0.2,0.1-0.4c0.3-0.8-0.1-1.7-0.9-2
		c-0.2-0.1-0.4-0.2-0.6-0.3c-0.2-0.1-0.5-0.2-0.8-0.2c-0.5,0-1.2,0.3-1.5,0.8c-0.1,0.2-0.2,0.2-0.2,0.3c-0.6,0.5-1.5,0.5-2-0.1
		c-0.5-0.6-0.5-1.5,0.1-2c0.1-0.1,0.2-0.2,0.3-0.2c0.8-0.3,1.2-1.3,0.9-2.1c-0.1-0.2-0.1-0.4-0.2-0.6c-0.2-0.8-1.1-1.4-2-1.1
		c-0.2,0-0.3,0-0.4,0c-0.8,0-1.3-0.7-1.3-1.4s0.7-1.3,1.4-1.3c0.1,0,0.3,0,0.4,0.1c0.8,0.3,1.8-0.1,2.1-0.9c0.1-0.2,0.2-0.4,0.2-0.6
		c0.4-0.8,0.1-1.8-0.7-2.2c-0.2-0.1-0.3-0.2-0.3-0.2c-0.5-0.6-0.5-1.5,0.1-2c0.6-0.5,1.5-0.5,2,0.1c0.1,0.1,0.2,0.2,0.2,0.3
		c0.4,0.8,1.3,1.1,2.2,0.8c0.2-0.1,0.4-0.2,0.6-0.2c0.8-0.3,1.3-1.1,1.1-1.9c0-0.2,0-0.3,0-0.4c0-0.8,0.7-1.3,1.4-1.3
		c0.8,0,1.3,0.7,1.3,1.4c0,0.1,0,0.2-0.1,0.3c-0.2,0.8,0.3,1.7,1,1.9c0.2,0.1,0.4,0.2,0.6,0.3c0.7,0.4,1.6,0.1,2.1-0.5
		c0.1-0.1,0.1-0.2,0.2-0.2c0.6-0.5,1.5-0.5,2,0.1c0.5,0.6,0.5,1.5-0.1,2c-0.1,0.1-0.1,0-0.2,0.1c-0.7,0.5-0.9,1.3-0.6,2
		c0.1,0.2,0.2,0.5,0.3,0.7c0.2,0.7,1,1.2,1.8,1.1c0.1,0,0.1,0,0.2,0c0.8,0,1.3,0.7,1.3,1.4C82,60,81.4,60.6,80.6,60.6z"/>
	<path class="st0" d="M72,55.1c-2-0.1-3.8,1.5-3.9,3.6c-0.1,2,1.5,3.8,3.6,3.9c2,0.1,3.8-1.5,3.9-3.6C75.6,57,74,55.2,72,55.1z
		 M71.7,60c-0.7,0-1.2-0.6-1.2-1.3c0-0.7,0.6-1.2,1.3-1.2c0.7,0,1.2,0.6,1.2,1.3C73,59.6,72.4,60.1,71.7,60z"/>
</g>
</svg>
