<?xml version="1.0" encoding="utf-8"?>
<!-- Generator: Adobe Illustrator 21.0.0, SVG Export Plug-In . SVG Version: 6.00 Build 0)  -->
<svg version="1.1" id="Layer_1" xmlns="http://www.w3.org/2000/svg" xmlns:xlink="http://www.w3.org/1999/xlink" x="0px" y="0px"
	 width="96px" height="96px" viewBox="0 0 96 96" style="enable-background:new 0 0 96 96;" xml:space="preserve">
<g>
	<path d="M69.1,47.3c-1-0.2-1.6-0.5-1.9-0.9c-0.3-0.4-0.3-0.8-0.2-1.1l0.3-0.5c0.1-0.1,0.1-0.2,0.2-0.3s0.2-0.4,0.4-0.9
		c0.2-0.4,0.3-0.9,0.5-1.3c0.1-0.4,0.2-1,0.2-1.6c0.1-0.6,0-1.2-0.1-1.8c-0.1-0.6-0.3-1.2-0.6-1.8s-0.7-1.3-1.3-1.8
		c-0.9-0.9-2.2-1.5-3.6-1.8c-1.5-0.3-3-0.3-4.5-0.1s-2.9,0.5-4.2,0.9c-1.3,0.4-2.4,0.7-3.3,1L49.7,36c-0.7,0.2-1.2,0.3-1.7,0.4
		c-0.4,0.1-0.8,0-1-0.1c-0.2-0.1-0.4-0.2-0.6-0.3c-0.1-0.1-0.2-0.3-0.2-0.7c0-0.4,0.1-0.7,0.1-0.9c0-0.3,0.1-0.7,0.2-1.3
		c0.1-0.6,0.2-1,0.3-1.3c0-0.8-0.1-1.5-0.2-2.2s-0.3-1.5-0.6-2.3c-0.3-0.9-0.8-1.6-1.4-2.1c-0.6-0.5-1.4-1-2.4-1.3
		c-1-0.3-2.2-0.4-3.7-0.3c-1.5,0.1-3.3,0.5-5.2,1.2c-2.3,0.8-4.7,2-7.1,3.5s-4.5,3.2-6.2,4.9c-1.8,1.7-3.4,3.3-4.8,4.9
		c-1.5,1.6-2.6,2.9-3.4,3.9l-1.1,1.6c-2.2,2.9-3.8,5.7-4.9,8.6s-1.6,5-1.5,6.5v2.1c0.4,3.2,1.4,6.1,2.9,8.6s3.4,4.6,5.6,6.1
		s4.7,2.9,7.6,4c2.9,1.1,5.7,1.9,8.4,2.4c2.7,0.5,5.5,0.8,8.5,1c4.9,0.4,10,0,15.3-1.1c5.3-1.2,10.2-3.2,14.8-6
		c4.6-2.9,7.8-6.3,9.6-10.3c1.1-2.3,1.7-4.5,1.7-6.6c0-2.1-0.3-3.7-1-5c-0.7-1.3-1.7-2.4-2.8-3.4c-1.2-1-2.3-1.7-3.3-2.2
		C70.8,47.7,69.9,47.4,69.1,47.3L69.1,47.3z M38.6,78.4c-7.2,0.3-13.3-1.1-18.3-4.2s-7.5-7.1-7.5-11.9c0-4.7,2.5-8.8,7.5-12.2
		c5-3.4,11.1-5.3,18.4-5.6C45.8,44,52,45.2,57,48s7.5,6.5,7.5,11.2c0,4.8-2.5,9.1-7.6,12.9C51.7,76,45.6,78,38.6,78.4L38.6,78.4z
		 M35.7,50.7c-1.9,0.2-3.7,0.7-5.2,1.3c-1.5,0.7-2.7,1.5-3.6,2.4c-0.9,0.9-1.6,1.9-2.2,2.9c-0.6,1-1,2-1.3,3c-0.2,1-0.4,1.9-0.5,2.7
		c-0.1,0.8-0.1,1.5-0.1,1.9l0.1,0.8v0.4c0,0.2,0.1,0.6,0.2,1.2c0.1,0.6,0.3,1.1,0.6,1.7c0.2,0.5,0.6,1.1,1.1,1.7
		c0.5,0.6,1.2,1.1,1.9,1.5c4.4,2.1,8.5,2.8,12.3,1.9c3.8-0.8,6.9-2.7,9.2-5.7c0.9-1.1,1.6-2.5,1.8-4.2c0.3-1.7,0.2-3.4-0.2-5
		c-0.4-1.7-1.2-3.2-2.2-4.6c-1.1-1.4-2.6-2.5-4.7-3.2C40.8,50.6,38.4,50.3,35.7,50.7L35.7,50.7z M32.1,69.6
		c-0.4,0.1-0.8,0.1-1.1,0.1c-0.4,0-0.7-0.1-1-0.2s-0.6-0.2-0.9-0.3c-0.3-0.1-0.5-0.3-0.7-0.6c-0.2-0.2-0.4-0.5-0.6-0.7
		c-0.2-0.2-0.3-0.5-0.4-0.8c-0.1-0.3-0.2-0.6-0.2-0.9c0-0.7,0.2-1.5,0.6-2.1c0.4-0.7,1-1.3,1.7-1.8c0.7-0.5,1.5-0.8,2.3-0.9
		c0.6-0.1,1.2,0,1.7,0.1c0.6,0.1,1.1,0.3,1.4,0.5c0.4,0.2,0.7,0.5,1,0.8c0.3,0.3,0.5,0.7,0.6,1c0.1,0.4,0.2,0.8,0.2,1.3
		c0,0.7-0.2,1.4-0.6,2.1c-0.4,0.7-1,1.2-1.7,1.7C33.7,69.2,32.9,69.5,32.1,69.6L32.1,69.6z M40.6,62.4c-0.5,0.3-1,0.5-1.4,0.5
		c-0.5,0-0.8-0.2-1-0.6l-0.2-0.4c-0.1-0.1-0.1-0.3-0.1-0.4V61c0-0.2,0-0.4,0.1-0.5l0.2-0.4c0.1-0.1,0.2-0.2,0.3-0.3l0.3-0.4
		c0.5-0.4,1-0.6,1.5-0.5c0.5,0.1,0.8,0.3,1,0.8c0.2,0.3,0.3,0.6,0.2,0.9c0,0.3-0.1,0.6-0.3,0.9C41.1,61.8,40.8,62.1,40.6,62.4
		L40.6,62.4z M76.1,41.5c0.4,0,0.8-0.1,1.1-0.3s0.6-0.4,0.8-0.7c0.2-0.3,0.3-0.6,0.4-0.9c0.1-0.1,0.1-0.2,0.1-0.3
		c0.8-7.6-1.9-11.9-8-13c-1.8-0.3-3.5-0.4-5-0.1c-0.5,0-0.9,0.1-1.2,0.3c-0.3,0.2-0.6,0.5-0.9,0.9c-0.2,0.4-0.4,0.7-0.3,1.1
		c0,0.7,0.2,1.2,0.7,1.7c0.5,0.5,1,0.7,1.7,0.7c5.2-1.2,8,0.5,8.4,5c0.1,1.1,0.1,2.2-0.2,3.2c0,0.7,0.2,1.2,0.7,1.7
		S75.4,41.5,76.1,41.5L76.1,41.5z M74.4,13.3c-2.9-0.7-6.9-0.5-11.8,0.4c-0.1,0-0.1,0-0.2,0.1L62.3,14l-0.1,0.1
		c-0.7,0.2-1.3,0.6-1.8,1.3c-0.5,0.6-0.7,1.3-0.7,2.1c0,1,0.3,1.8,1,2.5c0.7,0.7,1.5,1,2.4,1h0.3c0.1,0,0.2,0,0.5-0.1
		c0.2-0.1,0.5-0.1,0.7-0.2c0.3,0,0.5-0.1,0.9-0.2s0.6-0.2,0.8-0.3c0.2-0.1,0.7-0.2,1.3-0.2c0.7,0,1.5,0.1,2.5,0.2
		c1,0.1,2,0.3,3.2,0.7s2.3,0.9,3.5,1.5c1.2,0.6,2.3,1.4,3.5,2.5c1.2,1.1,2.2,2.3,3,3.7c1.7,3.9,2.1,7.7,1,11.4c0,0.1,0,0.1-0.1,0.2
		s-0.1,0.2-0.2,0.5c-0.1,0.3-0.1,0.5-0.2,0.7c-0.1,0.2-0.1,0.5-0.2,0.9c-0.1,0.4-0.1,0.7-0.1,0.9c0,0.6,0.2,1.1,0.5,1.5
		c0.3,0.4,0.7,0.7,1.3,0.9c0.5,0.2,1.1,0.2,1.7,0.2c1.9,0,3-1.1,3.3-3.4c0.8-2.6,1.2-5.1,1.3-7.4s-0.1-4.4-0.5-6.2
		c-0.4-1.8-1.1-3.5-1.9-5c-0.9-1.6-1.9-2.9-3-4c-1.1-1.1-2.4-2.1-3.8-3c-1.4-0.9-2.7-1.6-4-2.1C77.1,14.1,75.8,13.6,74.4,13.3
		L74.4,13.3z"/>
</g>
</svg>
