<?xml version="1.0" encoding="utf-8"?>
<!-- Generator: Adobe Illustrator 21.0.0, SVG Export Plug-In . SVG Version: 6.00 Build 0)  -->
<svg version="1.1" id="Layer_1" xmlns="http://www.w3.org/2000/svg" xmlns:xlink="http://www.w3.org/1999/xlink" x="0px" y="0px"
	 width="96px" height="96px" viewBox="0 0 96 96" style="enable-background:new 0 0 96 96;" xml:space="preserve">
<style type="text/css">
	.st0{fill-rule:evenodd;clip-rule:evenodd;}
</style>
<g>
	<path class="st0" d="M65.4,35.6c-14.7,0-26.3,10.1-26.3,22.5c0,12.4,11.6,22.5,26.3,22.5c3.1,0,6.2-0.8,9.3-1.6l8.5,4.7l-2.3-7.7
		c6.2-4.6,10.8-10.8,10.8-17.8C91.7,45.7,79.3,35.6,65.4,35.6L65.4,35.6z M56.9,54.2c-1.6,0-3.1-1.5-3.1-3.1c0-1.5,1.5-3.1,3.1-3.1
		c2.3,0,3.9,1.5,3.9,3.1C60.8,52.7,59.2,54.2,56.9,54.2L56.9,54.2z M73.9,54.2c-1.5,0-3.1-1.5-3.1-3.1c0-1.5,1.5-3.1,3.1-3.1
		c2.3,0,3.9,1.5,3.9,3.1C77.8,52.7,76.2,54.2,73.9,54.2L73.9,54.2z M63.5,33.9c1,0,2,0.1,3,0.2c-2.7-12.5-16-21.7-31.2-21.7
		c-17,0-31,11.6-31,26.3c0,8.5,4.6,15.5,12.4,20.9l-3.1,9.3l10.8-5.4c3.9,0.8,7,1.6,10.9,1.6c1,0,1.9,0,2.9-0.1
		c-0.6-2.1-0.9-4.2-0.9-6.5C37.2,44.9,48.8,33.9,63.5,33.9L63.5,33.9z M46.8,25.5c2.3,0,3.9,1.5,3.9,3.9c0,2.3-1.5,3.9-3.9,3.9
		c-2.3,0-4.7-1.5-4.7-3.9C42.2,27.1,44.5,25.5,46.8,25.5L46.8,25.5z M25.2,33.3c-2.3,0-4.7-1.5-4.7-3.9c0-2.3,2.3-3.9,4.7-3.9
		c2.3,0,3.8,1.5,3.8,3.9C29,31.7,27.5,33.3,25.2,33.3L25.2,33.3z"/>
</g>
</svg>
