<?xml version="1.0" encoding="utf-8"?>
<!-- Generator: Adobe Illustrator 21.0.0, SVG Export Plug-In . SVG Version: 6.00 Build 0)  -->
<svg version="1.0" id="Layer_1" xmlns="http://www.w3.org/2000/svg" xmlns:xlink="http://www.w3.org/1999/xlink" x="0px" y="0px"
	 viewBox="0 0 96 96" style="enable-background:new 0 0 96 96;" xml:space="preserve">
<style type="text/css">
	.st0{fill:#0B0C0C;}
</style>
<g>
	<path class="st0" d="M48,7.1C25.4,7.1,7.1,25.4,7.1,48S25.4,88.9,48,88.9S88.9,70.6,88.9,48S70.6,7.1,48,7.1z M8.5,48
		c0-16.1,9.7-30.1,23.7-36.2c2,0.4,15.7,3.9,17.8,14c0.7,3.3,1.1,6.1,1.5,8.6c1,6.3,1.6,10,4.6,12.8c0.9,0.8,0.8,1.4,0.8,1.6
		c-0.3,1.5-3.5,3-5.4,3.5l-0.6,0.2l0.1,0.6c0.4,2.2,1.2,8.5,0.5,10.6c-0.1,0.2-0.1,0.4-0.2,0.7c-0.9,2.9-2.5,7.8-11.7,7.1
		c-2.5-0.2-4.3,0.5-5.3,2c-2.1,3.2,0.3,9.4,1.6,12.2C20,80.4,8.5,65.5,8.5,48z M48,87.5c-3.6,0-7.1-0.5-10.4-1.4
		c-1.4-2.6-4.1-9.2-2.3-12c0.7-1,2-1.5,4-1.3c10.3,0.8,12.2-5.2,13.1-8c0.1-0.2,0.1-0.4,0.2-0.6c0.8-2.4,0-8.7-0.3-10.7
		c1.5-0.5,5.3-2.1,5.8-4.4c0.2-0.7,0.1-1.8-1.2-2.9c-2.6-2.4-3.2-6-4.1-11.9c-0.4-2.5-0.8-5.3-1.5-8.6c-1.9-9.3-12.4-13.3-17-14.6
		c4.3-1.6,8.9-2.4,13.7-2.4c21.8,0,39.5,17.7,39.5,39.5S69.8,87.5,48,87.5z"/>
	<path class="st0" d="M67,26.9c-1.6,0-2.9,1.1-3.2,2.6h-3.6c-0.4,0-0.7,0.3-0.7,0.7c0,0.4,0.3,0.7,0.7,0.7h3.6
		c0.3,1.5,1.6,2.6,3.2,2.6s2.9-1.1,3.2-2.6h3.6c0.4,0,0.7-0.3,0.7-0.7c0-0.4-0.3-0.7-0.7-0.7h-3.6C70,28,68.6,26.9,67,26.9z
		 M67,32.1c-1.1,0-1.9-0.9-1.9-1.9c0-1.1,0.9-1.9,1.9-1.9s1.9,0.9,1.9,1.9C69,31.2,68.1,32.1,67,32.1z"/>
	<path class="st0" d="M80.7,41.7h-3.6c-0.3-1.5-1.6-2.6-3.2-2.6c-1.6,0-2.9,1.1-3.2,2.6H67c-0.4,0-0.7,0.3-0.7,0.7
		c0,0.4,0.3,0.7,0.7,0.7h3.6c0.3,1.5,1.6,2.6,3.2,2.6c1.6,0,2.9-1.1,3.2-2.6h3.6c0.4,0,0.7-0.3,0.7-0.7C81.4,42,81.1,41.7,80.7,41.7
		z M73.9,44.3c-1.1,0-1.9-0.9-1.9-1.9c0-1.1,0.9-1.9,1.9-1.9s1.9,0.9,1.9,1.9C75.8,43.5,74.9,44.3,73.9,44.3z"/>
	<path class="st0" d="M60.4,51.7c-0.4,0-0.7,0.3-0.7,0.7s0.3,0.7,0.7,0.7H64c0.3,1.5,1.6,2.6,3.2,2.6c1.6,0,2.9-1.1,3.2-2.6h3.6
		c0.4,0,0.7-0.3,0.7-0.7s-0.3-0.7-0.7-0.7h-3.6c-0.3-1.5-1.6-2.6-3.2-2.6c-1.6,0-2.9,1.1-3.2,2.6H60.4z M67.2,50.5
		c1.1,0,1.9,0.9,1.9,1.9c0,1.1-0.9,1.9-1.9,1.9s-1.9-0.9-1.9-1.9C65.3,51.3,66.2,50.5,67.2,50.5z"/>
	<path class="st0" d="M76,63.4h-3.6c-0.3-1.5-1.6-2.6-3.2-2.6s-2.9,1.1-3.2,2.6h-3.6c-0.4,0-0.7,0.3-0.7,0.7c0,0.4,0.3,0.7,0.7,0.7
		h3.6c0.3,1.5,1.6,2.6,3.2,2.6s2.9-1.1,3.2-2.6H76c0.4,0,0.7-0.3,0.7-0.7C76.7,63.7,76.4,63.4,76,63.4z M69.2,66
		c-1.1,0-1.9-0.9-1.9-1.9c0-1.1,0.9-1.9,1.9-1.9s1.9,0.9,1.9,1.9C71.1,65.1,70.2,66,69.2,66z"/>
	<path class="st0" d="M64.3,76.6h-3.6c-0.3-1.5-1.6-2.6-3.2-2.6s-2.9,1.1-3.2,2.6h-3.6c-0.4,0-0.7,0.3-0.7,0.7s0.3,0.7,0.7,0.7h3.6
		c0.3,1.5,1.6,2.6,3.2,2.6s2.9-1.1,3.2-2.6h3.6c0.4,0,0.7-0.3,0.7-0.7S64.7,76.6,64.3,76.6z M57.5,79.2c-1.1,0-1.9-0.9-1.9-1.9
		s0.9-1.9,1.9-1.9c1.1,0,1.9,0.9,1.9,1.9S58.6,79.2,57.5,79.2z"/>
	<path class="st0" d="M63.4,19.7h3.6c0.4,0,0.7-0.3,0.7-0.7c0-0.4-0.3-0.7-0.7-0.7h-3.6c-0.3-1.5-1.6-2.6-3.2-2.6
		c-1.6,0-2.9,1.1-3.2,2.6h-3.6c-0.4,0-0.7,0.3-0.7,0.7c0,0.4,0.3,0.7,0.7,0.7h3.6c0.3,1.5,1.6,2.6,3.2,2.6
		C61.7,22.3,63,21.2,63.4,19.7z M58.2,19c0-1.1,0.9-1.9,1.9-1.9c1.1,0,1.9,0.9,1.9,1.9s-0.9,1.9-1.9,1.9C59.1,20.9,58.2,20,58.2,19z
		"/>
</g>
</svg>
