<?xml version="1.0" encoding="utf-8"?>
<!-- Generator: Adobe Illustrator 21.0.0, SVG Export Plug-In . SVG Version: 6.00 Build 0)  -->
<svg version="1.0" id="Layer_1" xmlns="http://www.w3.org/2000/svg" xmlns:xlink="http://www.w3.org/1999/xlink" x="0px" y="0px"
	 viewBox="0 0 96 96" style="enable-background:new 0 0 96 96;" xml:space="preserve">
<style type="text/css">
	.st0{fill:#0B0C0C;}
</style>
<g>
	<path class="st0" d="M48,7.9C25.9,7.9,7.9,25.9,7.9,48s18,40.1,40.1,40.1c22.1,0,40.1-18,40.1-40.1S70.1,7.9,48,7.9z M48,86.8
		C26.6,86.8,9.2,69.4,9.2,48S26.6,9.2,48,9.2c21.4,0,38.8,17.4,38.8,38.8S69.4,86.8,48,86.8z"/>
	<path class="st0" d="M42.9,35c0,2.3,1.8,4.1,4.1,4.1c2.3,0,4.1-1.8,4.1-4.1c0-0.5-0.1-1-0.3-1.5l6.1-4.9c0.7,0.7,1.7,1.1,2.8,1.1
		c2.3,0,4.1-1.8,4.1-4.1c0-2.3-1.8-4.1-4.1-4.1c-2.3,0-4.1,1.8-4.1,4.1c0,0.7,0.2,1.3,0.5,1.8l-6,4.8c-0.8-0.9-1.9-1.4-3.1-1.4
		C44.7,30.9,42.9,32.7,42.9,35z M59.7,22.9c1.5,0,2.7,1.2,2.7,2.7c0,1.5-1.2,2.7-2.7,2.7c-1.5,0-2.7-1.2-2.7-2.7
		C57,24.1,58.2,22.9,59.7,22.9z M47,32.2c1.5,0,2.7,1.2,2.7,2.7c0,1.5-1.2,2.7-2.7,2.7c-1.5,0-2.7-1.2-2.7-2.7
		C44.2,33.5,45.5,32.2,47,32.2z"/>
	<path class="st0" d="M71.3,47.4c-2,0-3.7,1.5-4,3.4h-8.4c-0.1-0.8-0.5-1.4-0.9-2l6.3-5.8c0.6,0.3,1.2,0.5,1.9,0.5
		c2.3,0,4.1-1.8,4.1-4.1c0-2.3-1.8-4.1-4.1-4.1c-2.3,0-4.1,1.8-4.1,4.1c0,1.1,0.4,2,1.1,2.7l-6.3,5.8c-0.6-0.3-1.3-0.5-2-0.5
		c-2.3,0-4.1,1.8-4.1,4.1c0,2.3,1.8,4.1,4.1,4.1c2,0,3.7-1.5,4-3.4h8.4c0.3,1.9,2,3.4,4,3.4c2.3,0,4.1-1.8,4.1-4.1
		C75.4,49.2,73.5,47.4,71.3,47.4z M66.1,36.7c1.5,0,2.7,1.2,2.7,2.7c0,1.5-1.2,2.7-2.7,2.7c-1.5,0-2.7-1.2-2.7-2.7
		C63.4,37.9,64.6,36.7,66.1,36.7z M54.8,54.2c-1.5,0-2.7-1.2-2.7-2.7c0-1.5,1.2-2.7,2.7-2.7c1.5,0,2.7,1.2,2.7,2.7
		C57.5,53,56.3,54.2,54.8,54.2z M71.3,54.2c-1.5,0-2.7-1.2-2.7-2.7c0-1.5,1.2-2.7,2.7-2.7S74,50,74,51.5C74,53,72.8,54.2,71.3,54.2z
		"/>
	<path class="st0" d="M27.5,40.5l6.8,4.9c0,0,0,0,0,0c-1.6,2.2-1.1,5.2,1.1,6.7c2.2,1.6,5.2,1.1,6.7-1.1c1.6-2.2,1.1-5.2-1.1-6.7
		c-1.8-1.3-4.1-1.1-5.7,0.1l-7-5c0.9-1.8,0.4-3.9-1.3-5.1c-1.8-1.3-4.4-0.9-5.7,0.9s-0.9,4.4,0.9,5.7C23.9,42.2,26.2,41.9,27.5,40.5
		z M35.4,46.2c1.1-1.5,3.3-1.9,4.8-0.8c1.5,1.1,1.9,3.3,0.8,4.8c-1.1,1.5-3.3,1.9-4.8,0.8C34.7,50,34.3,47.8,35.4,46.2z M22.5,36
		c0.9-1.2,2.6-1.5,3.8-0.6c1.2,0.9,1.5,2.6,0.6,3.8c-0.9,1.2-2.6,1.5-3.8,0.6C21.9,39,21.6,37.3,22.5,36z"/>
	<path class="st0" d="M41.3,26.4c2.7,0,4.8-2.2,4.8-4.8c0-2.7-2.2-4.8-4.8-4.8c-2.7,0-4.8,2.2-4.8,4.8
		C36.4,24.2,38.6,26.4,41.3,26.4z M41.3,18.1c1.9,0,3.4,1.5,3.4,3.4c0,1.9-1.5,3.4-3.4,3.4c-1.9,0-3.4-1.5-3.4-3.4
		C37.8,19.6,39.4,18.1,41.3,18.1z"/>
	<path class="st0" d="M69.8,59.7c-2.1,0-3.9,1.6-4.1,3.7h-13c-0.3-1.9-2-3.4-4-3.4c-2,0-3.7,1.5-4,3.4H30.3v0.6c0-2.2-1.9-4-4.1-4
		c-2.3,0-4.1,1.8-4.1,4.1c0,2.3,1.8,4.1,4.1,4.1c2.2,0,4.1-1.8,4.1-4v0.6h14.3c0.3,1.9,2,3.4,4,3.4c2,0,3.7-1.5,4-3.4h13.1
		c0.4,1.8,2,3.1,4,3.1c2.3,0,4.1-1.8,4.1-4.1C73.9,61.6,72,59.7,69.8,59.7z M26.2,66.9c-1.5,0-2.7-1.2-2.7-2.7s1.2-2.7,2.7-2.7
		c1.5,0,2.7,1.2,2.7,2.7S27.7,66.9,26.2,66.9z M48.7,66.9c-1.5,0-2.7-1.2-2.7-2.7s1.2-2.7,2.7-2.7c1.5,0,2.7,1.2,2.7,2.7
		S50.2,66.9,48.7,66.9z M69.8,66.6c-1.5,0-2.7-1.2-2.7-2.7c0-1.5,1.2-2.7,2.7-2.7c1.5,0,2.7,1.2,2.7,2.7
		C72.5,65.4,71.3,66.6,69.8,66.6z"/>
	<path class="st0" d="M58.4,75.7c0-2-1.7-3.7-3.7-3.7c-2,0-3.6,1.6-3.7,3.6v-0.2h-8.1v1.4H51v-1c0.1,2,1.7,3.6,3.7,3.6
		C56.7,79.4,58.4,77.8,58.4,75.7v1.1h9.8v-1.4h-9.8V75.7z M54.7,78.1c-1.3,0-2.3-1-2.3-2.3c0-1.3,1-2.3,2.3-2.3c1.3,0,2.3,1,2.3,2.3
		C57,77,56,78.1,54.7,78.1z"/>
</g>
</svg>
