<?xml version="1.0" encoding="utf-8"?>
<!-- Generator: Adobe Illustrator 21.0.0, SVG Export Plug-In . SVG Version: 6.00 Build 0)  -->
<svg version="1.0" id="Layer_1" xmlns="http://www.w3.org/2000/svg" xmlns:xlink="http://www.w3.org/1999/xlink" x="0px" y="0px"
	 viewBox="0 0 96 96" style="enable-background:new 0 0 96 96;" xml:space="preserve">
<style type="text/css">
	.st0{fill:#0B0C0C;}
</style>
<g>
	<path class="st0" d="M48,7.9C25.9,7.9,7.9,25.9,7.9,48c0,22.1,18,40.1,40.1,40.1s40.1-18,40.1-40.1C88.1,25.9,70.1,7.9,48,7.9z
		 M48,86.7C26.6,86.7,9.3,69.4,9.3,48C9.3,26.6,26.6,9.3,48,9.3S86.7,26.6,86.7,48C86.7,69.4,69.4,86.7,48,86.7z"/>
	<path class="st0" d="M43.6,49.3c0,2.5,2,4.5,4.5,4.5c2.5,0,4.5-2,4.5-4.5c0-2.5-2-4.5-4.5-4.5C45.6,44.8,43.6,46.8,43.6,49.3z
		 M48.1,46.2c1.7,0,3.1,1.4,3.1,3.1c0,1.7-1.4,3.1-3.1,3.1S45,51,45,49.3C45,47.6,46.4,46.2,48.1,46.2z"/>
	<path class="st0" d="M76.4,45.4c-2,0-3.6,1.5-4,3.4h-4.3L48.7,29.3V24c1.9-0.3,3.4-2,3.4-4c0-2.2-1.8-4-4-4s-4,1.8-4,4
		c0,2,1.5,3.6,3.4,4v5.3L27.9,48.8h-4.6c-0.3-1.9-2-3.4-4-3.4c-2.2,0-4,1.8-4,4c0,2.2,1.8,4,4,4c2,0,3.6-1.5,4-3.4h4.6l19.4,19.4
		v4.4c-1.9,0.3-3.4,2-3.4,4c0,2.2,1.8,4,4,4s4-1.8,4-4c0-2-1.5-3.6-3.4-4v-4.3l19.5-19.5h4.3c0.3,1.9,2,3.4,4,3.4c2.2,0,4-1.8,4-4
		C80.5,47.2,78.6,45.4,76.4,45.4z M19.3,52.1c-1.5,0-2.7-1.2-2.7-2.7c0-1.5,1.2-2.7,2.7-2.7c1.5,0,2.7,1.2,2.7,2.7
		C22,50.9,20.8,52.1,19.3,52.1z M45.3,20.1c0-1.5,1.2-2.7,2.7-2.7s2.7,1.2,2.7,2.7c0,1.5-1.2,2.7-2.7,2.7S45.3,21.5,45.3,20.1z
		 M50.7,77.9c0,1.5-1.2,2.7-2.7,2.7s-2.7-1.2-2.7-2.7s1.2-2.7,2.7-2.7S50.7,76.4,50.7,77.9z M66.9,49.5L48,68.3L29.2,49.4L48,30.6
		L66.9,49.5L66.9,49.5z M76.4,52.1c-1.5,0-2.7-1.2-2.7-2.7c0-1.5,1.2-2.7,2.7-2.7s2.7,1.2,2.7,2.7C79.1,50.9,77.9,52.1,76.4,52.1z"
		/>
</g>
</svg>
