<?xml version="1.0" encoding="utf-8"?>
<!-- Generator: Adobe Illustrator 21.0.0, SVG Export Plug-In . SVG Version: 6.00 Build 0)  -->
<svg version="1.1" id="Layer_1" xmlns="http://www.w3.org/2000/svg" xmlns:xlink="http://www.w3.org/1999/xlink" x="0px" y="0px"
	 viewBox="0 0 96 96" style="enable-background:new 0 0 96 96;" xml:space="preserve">
<g>
	<path d="M89.2,13.3c-2.7,0-58.5,0-82.2,0c-1.6,0-1.7,0.5-1.7,1.9c0,18.9,0,62.1,0,66.2c0,3,0.8,3.8,2.9,3.8c5.6,0,76.9,0,81.2,0
		c1.7,0,2.1-1.3,2.1-2.9c0-18.8,0-63,0-67.1C91.6,14.2,90.7,13.3,89.2,13.3z M37.5,18.9c1.9,0,3.6,1.6,3.5,3.6
		c0,1.9-1.6,3.5-3.5,3.5c-1.9,0-3.5-1.6-3.5-3.5C34,20.5,35.6,18.9,37.5,18.9z M26.7,18.9c1.9,0,3.5,1.5,3.5,3.5s-1.5,3.5-3.5,3.5
		c-2,0-3.5-1.5-3.5-3.5C23.2,20.5,24.8,18.9,26.7,18.9z M15.7,18.9c1.9,0,3.6,1.6,3.6,3.5c0,1.9-1.6,3.5-3.5,3.5s-3.5-1.5-3.5-3.5
		C12.2,20.6,13.8,19,15.7,18.9z M87.1,78.2c0,1.9-0.7,2.6-2.7,2.6c-24,0-48.7,0-72.7,0c-2,0-1.9-0.7-1.9-2.7c0-15.1,0-30.9,0-46
		c0-1.2,0.2-1.4,1.4-1.4c12.4,0,24.9,0,37.2,0c12.5,0,25.1,0,37.6,0c0.8,0,1,0.2,1,1C87.1,47.1,87.1,62.9,87.1,78.2z"/>
	<path d="M69.4,66.7c-2.6,0-18,0-20.7,0c-0.8,0-0.9,0.1-0.9,0.6c0,0.6,0,2.7,0,3.2c0,0.4,0.1,0.7,0.7,0.7c1.3,0,20.1,0,21.3,0
		c0.4,0,0.6-0.1,0.6-0.6c0-0.4,0-2.7,0-3.4C70.4,66.8,70.2,66.7,69.4,66.7z"/>
	<path d="M28.8,39.5c-0.7-0.5-1-0.6-1.5,0c-0.4,0.5-1.2,1.6-1.7,2.5c-0.1,0.3-0.1,0.6,0.4,1c1.9,1.4,10.2,7.5,13.6,10.2
		C36,56,28,61.8,26.1,63.3c-0.7,0.6-1,0.9-0.5,1.6c0.3,0.4,1.3,1.5,1.6,2c0.7,0.7,0.9,0.5,1.6,0c1.5-1.2,13-10,15-11.6
		c1.7-1.5,1.9-3,0.4-4.2C42.8,49.9,29.7,40.2,28.8,39.5z"/>
</g>
</svg>
