<?xml version="1.0" encoding="iso-8859-1"?>
<!-- Generator: Adobe Illustrator 23.0.1, SVG Export Plug-In . SVG Version: 6.00 Build 0)  -->
<svg version="1.1" id="&#x56FE;&#x5C42;_1" xmlns="http://www.w3.org/2000/svg" xmlns:xlink="http://www.w3.org/1999/xlink" x="0px"
	 y="0px" viewBox="0 0 96 96" style="enable-background:new 0 0 96 96;" xml:space="preserve">
<title>zhyaqfw/icon_æéç®¡ç</title>
<desc>Created with Sketch.</desc>
<g>
	<path id="Fill-1" style="fill-rule:evenodd;clip-rule:evenodd;fill:#0A1633;" d="M47.548,92c-0.9,0-1.794-0.21-2.586-0.621
		c-1.692-0.895-3.52-2-5.417-3.241c-4.899-3.246-9.973-7.348-14.32-11.631c-4.933-4.83-9.005-9.905-11.768-14.632
		c-2.796-4.796-4.244-9.352-4.244-13.18V9.212l4.141,1.276c3.173,0.968,6.282,1.447,9.216,1.447c8.526,0,16.911-2.415,23.672-6.8
		L47.998,4l1.76,1.139c6.727,4.38,15.151,6.8,23.672,6.8c2.933,0,6.038-0.484,9.216-1.447l4.141-1.276V48.66
		c0,3.691-1.52,8.179-4.38,12.907C79.575,66.26,75.4,71.3,70.291,76.199c-4.42,4.209-9.626,8.384-14.632,11.768
		c-1.931,1.276-3.76,2.415-5.451,3.349C49.41,91.76,48.482,92,47.548,92z M15.662,48.655c0,2.66,1.208,6.18,3.383,9.939
		c2.449,4.244,6.14,8.834,10.697,13.254c4.072,3.97,8.834,7.832,13.391,10.873c1.555,1.036,3.07,1.931,4.454,2.689
		c1.413-0.792,2.933-1.726,4.556-2.831c4.728-3.139,9.592-7.074,13.772-11.044c4.693-4.522,8.526-9.113,11.078-13.322
		c2.21-3.691,3.452-7.108,3.452-9.592V17.664c-2.347,0.45-4.659,0.689-6.937,0.689c-9.108,0-17.913-2.347-25.432-6.761
		c-7.534,4.42-16.3,6.761-25.442,6.761c-2.244,0-4.591-0.24-6.937-0.689v30.991C15.697,48.655,15.662,48.655,15.662,48.655z
		 M44.512,52.86c-6.448-1.315-11.318-7.035-11.318-13.865c0-7.798,6.351-14.148,14.148-14.148s14.148,6.351,14.148,14.148
		c0,6.566-4.473,12.1-10.56,13.689v2.806h3.554c1.76,0,3.212,1.447,3.212,3.212c0,1.76-1.452,3.212-3.212,3.212h-3.554v6.038
		c0,1.76-1.447,3.173-3.207,3.173c-1.76,0-3.212-1.447-3.212-3.212C44.512,67.912,44.512,52.86,44.512,52.86z M47.342,31.265
		c-4.244,0-7.729,3.452-7.729,7.729c0,4.244,3.452,7.729,7.729,7.729c4.244,0,7.729-3.452,7.729-7.729S51.62,31.265,47.342,31.265z"
		/>
</g>
</svg>
