<?xml version="1.0" encoding="iso-8859-1"?>
<!-- Generator: Adobe Illustrator 23.0.1, SVG Export Plug-In . SVG Version: 6.00 Build 0)  -->
<svg version="1.1" id="&#x56FE;&#x5C42;_1" xmlns="http://www.w3.org/2000/svg" xmlns:xlink="http://www.w3.org/1999/xlink" x="0px"
	 y="0px" viewBox="0 0 96 96" style="enable-background:new 0 0 96 96;" xml:space="preserve">
<title>jkyy/icon_ç­ä¿¡å</title>
<desc>Created with Sketch.</desc>
<g>
	<path style="fill-rule:evenodd;clip-rule:evenodd;fill:#0A1633;" d="M88.543,30.873c-2.216-5.243-5.391-9.946-9.427-13.987
		c-4.026-4.031-8.734-7.201-13.982-9.427c-5.426-2.295-11.192-3.457-17.132-3.457S36.301,5.165,30.875,7.46
		c-5.247,2.221-9.951,5.396-13.987,9.432c-4.041,4.041-7.211,8.744-9.432,13.982C5.162,36.303,4,42.065,4,48
		s1.162,11.702,3.457,17.127c2.216,5.238,5.391,9.946,9.432,13.987c4.036,4.036,8.744,7.211,13.987,9.427
		c5.426,2.295,11.187,3.457,17.127,3.457s11.707-1.162,17.132-3.457c5.247-2.221,9.951-5.391,13.982-9.427
		c4.041-4.041,7.211-8.749,9.427-13.987C90.838,59.707,92,53.945,92,48C92.005,42.065,90.838,36.303,88.543,30.873z M85.758,48.005
		c0,20.817-16.939,37.756-37.756,37.756S10.251,68.822,10.251,48.005s16.934-37.751,37.751-37.751S85.758,27.188,85.758,48.005z"/>
	<path style="fill-rule:evenodd;clip-rule:evenodd;fill:#0A1633;" d="M69.818,30.264H27.181c-2.171,0-3.932,1.731-3.932,3.863
		v27.924c0,2.132,1.766,3.863,3.932,3.863h42.637c2.171,0,3.932-1.731,3.932-3.863V34.137C73.76,32.005,71.989,30.264,69.818,30.264
		z M28.467,36.224c0-0.435,0.361-0.791,0.806-0.791h38.453c0.445,0,0.806,0.356,0.806,0.791v4.219l-19.798,8.962l-20.268-9.006
		V36.224z M68.542,59.964c0,0.208-0.084,0.41-0.237,0.559s-0.356,0.232-0.569,0.232H29.273c-0.445,0-0.806-0.356-0.806-0.791v-14.15
		l19.674,8.764c0.005,0,0.01,0.005,0.015,0.005l0.035,0.01c0.035,0.01,0.064,0.025,0.094,0.035c0.035,0.01,0.069,0.015,0.099,0.03
		l0.015,0.005c0.069,0.015,0.134,0.02,0.208,0.03h0.025c0.069,0.005,0.138,0.005,0.208,0h0.025c0.069-0.005,0.138-0.015,0.208-0.03
		l0.015-0.005c0.069-0.015,0.134-0.035,0.198-0.059l0.035-0.01c0.005,0,0.015-0.005,0.025-0.005l19.19-8.709v14.09H68.542z"/>
</g>
</svg>
