<?xml version="1.0" encoding="iso-8859-1"?>
<!-- Generator: Adobe Illustrator 23.0.1, SVG Export Plug-In . SVG Version: 6.00 Build 0)  -->
<svg version="1.1" id="&#x56FE;&#x5C42;_1" xmlns="http://www.w3.org/2000/svg" xmlns:xlink="http://www.w3.org/1999/xlink" x="0px"
	 y="0px" viewBox="0 0 96 96" style="enable-background:new 0 0 96 96;" xml:space="preserve">
<title>aqfh/icon_DDOSæ»å»é²æ¤</title>
<desc>Created with Sketch.</desc>
<g>
	<g id="DDoSgongjifanghu" transform="translate(1.890110, 1.000000)">
		<path id="Fill-1" style="fill-rule:evenodd;clip-rule:evenodd;fill:#0A1633;" d="M82.404,3H9.816C7.966,3,6.469,4.497,6.469,6.347
			v38.76c0,21.582,27.482,39.817,35.942,44.837C43.556,90.648,44.789,91,46.11,91s2.554-0.352,3.699-1.057
			c8.455-5.108,35.942-23.343,35.942-44.837V6.347C85.662,4.497,84.253,3,82.404,3z M79.057,45.107
			c0,18.499-27.218,35.854-32.683,39.2c-0.176,0.088-0.44,0.088-0.616,0c-5.46-3.259-32.683-20.613-32.683-39.2V9.693h65.978v35.413
			H79.057z"/>
		<path id="Fill-2" style="fill-rule:evenodd;clip-rule:evenodd;fill:#0A1633;" d="M27.434,41.76h15.417v15.505
			c0,1.849,1.497,3.347,3.259,3.347c1.849,0,3.259-1.497,3.259-3.347V41.76h15.417c1.849,0,3.259-1.497,3.259-3.347
			s-1.497-3.347-3.259-3.347H49.368V19.645c0-1.849-1.497-3.347-3.259-3.347c-1.849,0-3.259,1.497-3.259,3.347V35.15H27.434
			c-1.849,0-3.259,1.497-3.259,3.347C24.088,40.263,25.585,41.76,27.434,41.76z"/>
	</g>
</g>
</svg>
