<?xml version="1.0" encoding="iso-8859-1"?>
<!-- Generator: Adobe Illustrator 23.0.1, SVG Export Plug-In . SVG Version: 6.00 Build 0)  -->
<svg version="1.1" id="&#x56FE;&#x5C42;_1" xmlns="http://www.w3.org/2000/svg" xmlns:xlink="http://www.w3.org/1999/xlink" x="0px"
	 y="0px" viewBox="0 0 96 96" style="enable-background:new 0 0 96 96;" xml:space="preserve">
<title>js/icon_ç§æä¸åº</title>
<desc>Created with Sketch.</desc>
<g>
	<path id="&#x8DEF;&#x5F84;" style="fill-rule:evenodd;clip-rule:evenodd;fill:#0A1633;" d="M4,48
		C4,24.768,22.006,5.74,44.822,4.112v6.375C25.521,12.101,10.356,28.278,10.356,48s15.165,35.899,34.467,37.512v6.375
		C22.006,90.26,4,71.232,4,48z"/>
	<path style="fill-rule:evenodd;clip-rule:evenodd;fill:#0A1633;" d="M92,48c0,23.232-18.006,42.26-40.822,43.888v-6.375
		C70.479,83.899,85.644,67.722,85.644,48S70.479,12.101,51.178,10.488V4.112C73.994,5.74,92,24.768,92,48z"/>
	<path id="&#x5408;&#x5E76;&#x5F62;&#x72B6;" style="fill-rule:evenodd;clip-rule:evenodd;fill:#0A1633;" d="M48,77.333
		c-16.202,0-29.333-13.132-29.333-29.333S31.798,18.667,48,18.667S77.333,31.798,77.333,48S64.202,77.333,48,77.333z M48,70.978
		c12.692,0,22.978-10.286,22.978-22.978S60.692,25.022,48,25.022S25.022,35.308,25.022,48S35.308,70.978,48,70.978z"/>
	<path id="&#x77E9;&#x5F62;" style="fill-rule:evenodd;clip-rule:evenodd;fill:#0A1633;" d="M37.968,44.822h20.064
		c1.755,0,3.178,1.423,3.178,3.178l0,0c0,1.755-1.423,3.178-3.178,3.178H37.968c-1.755,0-3.178-1.423-3.178-3.178l0,0
		C34.79,46.245,36.213,44.822,37.968,44.822z"/>
</g>
</svg>
