<?xml version="1.0" encoding="iso-8859-1"?>
<!-- Generator: Adobe Illustrator 23.0.1, SVG Export Plug-In . SVG Version: 6.00 Build 0)  -->
<svg version="1.1" id="&#x56FE;&#x5C42;_1" xmlns="http://www.w3.org/2000/svg" xmlns:xlink="http://www.w3.org/1999/xlink" x="0px"
	 y="0px" viewBox="0 0 96 96" style="enable-background:new 0 0 96 96;" xml:space="preserve">
<title>rqfw/icon_å®¹å¨éç¾¤</title>
<desc>Created with Sketch.</desc>
<g id="Clip-2">
</g>
<g>
	<path style="fill-rule:evenodd;clip-rule:evenodd;fill:#0A1633;" d="M64.723,56.579c-1.287,0-2.476,0.382-3.498,1.018l-5.411-4.154
		c0.201-0.631,0.338-1.292,0.342-1.986c0-3.674-2.985-6.659-6.659-6.659s-6.659,2.985-6.659,6.659c0,3.674,2.985,6.659,6.659,6.659
		c1.071,0,2.07-0.279,2.97-0.734l5.764,4.423c-0.103,0.465-0.166,0.944-0.166,1.438c0,3.674,2.985,6.659,6.659,6.659
		c3.665,0,6.659-2.985,6.659-6.659C71.382,59.569,68.398,56.579,64.723,56.579z M49.497,52.949c-0.827,0-1.497-0.67-1.497-1.497
		c0-0.827,0.67-1.497,1.497-1.497c0.817,0,1.487,0.67,1.497,1.497C50.994,52.274,50.324,52.949,49.497,52.949z M64.723,64.731
		c-0.827,0-1.497-0.67-1.497-1.497s0.67-1.497,1.497-1.497c0.817,0,1.497,0.67,1.497,1.497S65.55,64.731,64.723,64.731z"/>
	<path style="fill-rule:evenodd;clip-rule:evenodd;fill:#0A1633;" d="M48,3.998C23.698,3.998,4,23.7,4,48.002s19.698,44,44,44
		s44-19.698,44-44S72.302,3.998,48,3.998z M74.739,74.736c-3.474,3.474-7.52,6.204-12.016,8.102
		c-4.663,1.972-9.609,2.97-14.717,2.97s-10.054-0.998-14.717-2.97c-4.501-1.903-8.543-4.628-12.016-8.102s-6.204-7.52-8.102-12.016
		c-1.972-4.663-2.97-9.609-2.97-14.717s0.993-10.059,2.96-14.722c1.903-4.501,4.628-8.543,8.102-12.016s7.52-6.204,12.016-8.102
		c4.663-1.972,9.609-2.97,14.717-2.97s10.054,0.998,14.717,2.97c4.501,1.903,8.543,4.628,12.016,8.102s6.204,7.52,8.102,12.016
		c1.972,4.653,2.97,9.609,2.97,14.717s-0.998,10.054-2.97,14.717C80.943,67.221,78.212,71.262,74.739,74.736z"/>
	<path style="fill-rule:evenodd;clip-rule:evenodd;fill:#0A1633;" d="M50.133,65.851c-1.091,0.886-2.256,1.712-3.449,2.471
		c-10.779-6.82-17.413-18.798-17.413-31.597c0-0.827,0.024-1.654,0.078-2.476c6.307-0.607,12.726-1.37,17.614-5.852
		c2.021,1.859,4.457,3.288,7.364,4.325c3.244,1.16,6.537,1.634,9.188,2.011c0.181,0.024,0.352,0.049,0.524,0.078
		c0.034,0.636,0.054,1.272,0.054,1.908c0,3.596-0.509,7.138-1.512,10.554c-0.406,1.37,0.377,2.794,1.747,3.2
		c1.37,0.406,2.794-0.377,3.2-1.747c1.145-3.88,1.722-7.921,1.722-12.012c0-1.473-0.078-2.96-0.225-4.413
		c-0.113-1.145-0.974-2.074-2.109-2.28c-0.827-0.147-1.712-0.274-2.657-0.411c-5.035-0.724-11.287-1.619-15.28-6.625
		c-0.489-0.612-1.238-0.974-2.021-0.974h-0.024c-0.793,0-1.531,0.372-2.021,0.988c-3.836,4.922-9.834,5.499-16.777,6.16
		c-0.46,0.054-0.935,0.103-1.409,0.147c-1.204,0.122-2.158,1.057-2.304,2.26c-0.205,1.698-0.308,3.425-0.308,5.147
		c0,7.603,2.03,15.065,5.876,21.577c3.733,6.321,9.061,11.605,15.417,15.28c0.396,0.23,0.842,0.342,1.292,0.342
		c0.44,0,0.886-0.113,1.272-0.338c1.884-1.081,3.709-2.334,5.402-3.699c1.12-0.895,1.292-2.52,0.396-3.63
		C52.873,65.127,51.244,64.956,50.133,65.851z"/>
</g>
</svg>
