<?xml version="1.0" encoding="iso-8859-1"?>
<!-- Generator: Adobe Illustrator 23.0.1, SVG Export Plug-In . SVG Version: 6.00 Build 0)  -->
<svg version="1.1" id="&#x56FE;&#x5C42;_1" xmlns="http://www.w3.org/2000/svg" xmlns:xlink="http://www.w3.org/1999/xlink" x="0px"
	 y="0px" viewBox="0 0 96 96" style="enable-background:new 0 0 96 96;" xml:space="preserve">
<title>aqfh/icon_WEBåºç¨é²ç«å¢</title>
<desc>Created with Sketch.</desc>
<g>
	<polygon style="fill:#0A1633;" points="64.828,82.963 40.561,79.192 40.561,16.808 64.858,13.037 64.858,21.072 70.977,21.072 
		70.977,5.893 34.441,11.57 34.441,48.977 24.914,39.48 21.685,42.631 25.796,46.525 18.563,46.525 18.563,51.483 25.796,51.483 
		21.685,55.383 24.909,58.558 34.441,49.071 34.441,84.42 70.923,90.107 70.982,76.159 64.862,76.139 	"/>
	<rect x="7.185" y="64.609" style="fill:#0A1633;" width="8.773" height="5.184"/>
	<polygon style="fill:#0A1633;" points="23.531,34.557 26.761,37.782 33.737,30.835 26.761,23.888 23.531,27.113 24.865,28.24 
		18.78,28.24 18.78,33.41 24.88,33.41 	"/>
	<rect x="11.37" y="46.525" style="fill:#0A1633;" width="5.165" height="4.958"/>
	<rect x="4" y="46.525" style="fill:#0A1633;" width="5.032" height="4.958"/>
	<path style="fill:#0A1633;" d="M66.133,29.594l0.945-0.03v-4.47l-0.999,0.03c-12.491,0.276-22.613,10.63-22.569,23.071
		C43.461,60.646,53.588,70.999,66.079,71.27l0.999,0.02v-4.456l-0.945-0.025c-10.172-0.335-18.147-8.512-18.147-18.61
		C47.985,38.082,55.951,29.909,66.133,29.594z"/>
	<path style="fill:#0A1633;" d="M69.781,25.035l-1.049-0.03l0.123,4.8l0.926,0.049c1.172,0.039,2.196,0.197,3.471,0.527
		c0.546,0.985,1.817,3.545,2.777,7.774h-7.021v3.043h7.616c0.226,1.669,0.369,3.481,0.433,5.312h-8.05v3.038h8.064
		c-0.054,1.758-0.202,3.54-0.448,5.312h-7.616v3.043h6.996c-0.975,4.278-2.245,6.819-2.792,7.789
		c-1.118,0.295-2.28,0.473-3.441,0.512l-0.931,0.025l-0.123,4.805l1.049-0.054C82.247,70.542,92.015,60.454,92,48.007
		C92.015,35.566,82.262,25.478,69.781,25.035z M87.091,49.524c-0.172,1.831-0.615,3.614-1.319,5.322h-5.75
		c0.222-1.718,0.364-3.53,0.414-5.322H87.091z M77.658,63.91c0.709-1.777,1.334-3.87,1.792-6.036h4.534
		C82.286,60.429,80.105,62.507,77.658,63.91z M79.455,38.136c-0.463-2.147-1.083-4.239-1.787-6.026
		c2.447,1.403,4.633,3.481,6.336,6.026H79.455z M80.041,41.169h5.775c0.645,1.585,1.078,3.436,1.255,5.317h-6.617
		C80.405,44.733,80.268,42.951,80.041,41.169z"/>
	<polygon style="fill:#0A1633;" points="22.95,63.491 24.279,64.609 18.199,64.609 18.199,69.793 24.294,69.793 22.955,70.926 
		26.185,74.155 33.161,67.208 26.185,60.257 	"/>
	<rect x="7.761" y="28.24" style="fill:#0A1633;" width="8.773" height="5.17"/>
</g>
</svg>
