<?xml version="1.0" encoding="iso-8859-1"?>
<!-- Generator: Adobe Illustrator 23.0.1, SVG Export Plug-In . SVG Version: 6.00 Build 0)  -->
<svg version="1.1" id="&#x56FE;&#x5C42;_1" xmlns="http://www.w3.org/2000/svg" xmlns:xlink="http://www.w3.org/1999/xlink" x="0px"
	 y="0px" viewBox="0 0 96 96" style="enable-background:new 0 0 96 96;" xml:space="preserve">
<title>cc/icon_å¯¹è±¡å¨å­</title>
<desc>Created with Sketch.</desc>
<g>
	<path style="fill:#0A1633;" d="M78.304,4.012H55.086c-1.488,0-2.74,0.937-3.041,2.274c-0.346,1.518,0.11,2.775,1.252,3.456
		c0.982,0.586,2.134,0.586,2.976,0.586l18.88-0.015v75.38H20.842V10.318h7.88v15.333c0,0.636,0,1.593,0.581,2.384
		c0.892,1.202,2.525,1.202,3.311,1.202l11.566-0.005c0.992,0,2.119-0.07,2.93-0.922c0.817-0.857,0.817-2.059,0.817-2.78
		c0-4.263,0-8.526-0.005-12.789c0-2.024,0.105-4.088-0.025-6.106c-0.035-0.611-0.185-1.237-0.591-1.693
		c-0.541-0.611-1.398-0.771-2.174-0.817c-1.007-0.05-2.019-0.045-3.026-0.06c-2.124-0.035-4.253-0.05-6.377-0.06
		c-4.243-0.015-8.486,0-12.724,0.005c-0.426,0-0.847,0-1.272,0c-1.348,0-2.695,0-4.043,0c-1.858,0-3.151,1.297-3.151,3.151v81.682
		c0,1.858,1.297,3.156,3.151,3.156h60.618c1.853,0,3.151-1.297,3.151-3.156V7.167C81.455,5.309,80.157,4.012,78.304,4.012z
		 M35.028,22.932V10.318h6.161v12.613H35.028z"/>
	<path style="fill:#0A1633;" d="M38.32,50.808c-1.914,0-3.256,1.337-3.256,3.251s1.342,3.251,3.256,3.251h20.258
		c1.548,0,2.805-1.458,2.805-3.251c0-1.914-1.342-3.251-3.251-3.251H38.32z"/>
	<path style="fill:#0A1633;" d="M70.379,41.912c0-1.914-1.342-3.256-3.251-3.256H29.764c-1.914,0-3.251,1.342-3.251,3.256
		c0,1.914,1.337,3.251,3.251,3.251h37.359C69.042,45.168,70.379,43.825,70.379,41.912z"/>
</g>
</svg>
