<?xml version="1.0" encoding="iso-8859-1"?>
<!-- Generator: Adobe Illustrator 23.0.1, SVG Export Plug-In . SVG Version: 6.00 Build 0)  -->
<svg version="1.1" id="&#x56FE;&#x5C42;_1" xmlns="http://www.w3.org/2000/svg" xmlns:xlink="http://www.w3.org/1999/xlink" x="0px"
	 y="0px" viewBox="0 0 96 96" style="enable-background:new 0 0 96 96;" xml:space="preserve">
<title>cc/icon_æä»¶å¨å­</title>
<desc>Created with Sketch.</desc>
<g>
	<path id="Fill-1" style="fill-rule:evenodd;clip-rule:evenodd;fill:#0A1633;" d="M91.354,40.696
		c-0.557-0.689-1.403-1.095-2.293-1.095H82.52v-12.79c0-0.772-0.308-1.516-0.86-2.063c-0.552-0.548-1.3-0.856-2.078-0.856H51.294
		l-7.05-12.687c-0.528-0.909-1.511-1.467-2.572-1.457H16.397c-1.623,0-2.938,1.305-2.938,2.919v26.938H6.936
		c-0.895,0-1.736,0.406-2.293,1.095c-0.557,0.689-0.768,1.594-0.572,2.459l9.465,40.833c0.308,1.325,1.496,2.264,2.865,2.259h63.185
		c1.369,0,2.557-0.939,2.865-2.259l9.48-40.833C92.122,42.295,91.912,41.385,91.354,40.696z M19.34,15.581h20.573l7.069,12.643
		c0.528,0.909,1.511,1.467,2.572,1.457h27.095v9.876H19.34V15.581z M77.235,80.434H18.69l-8.111-35H85.36L77.235,80.434z"/>
	<path id="Fill-3" style="fill-rule:evenodd;clip-rule:evenodd;fill:#0A1633;" d="M57.997,58.907H37.986
		c-1.623,0-2.938,1.423-2.938,3.178s1.315,3.178,2.938,3.178h20.015c1.623,0,2.938-1.423,2.938-3.178S59.62,58.907,57.997,58.907z"
		/>
</g>
</svg>
