<?xml version="1.0" encoding="iso-8859-1"?>
<!-- Generator: Adobe Illustrator 23.0.1, SVG Export Plug-In . SVG Version: 6.00 Build 0)  -->
<svg version="1.1" id="&#x56FE;&#x5C42;_1" xmlns="http://www.w3.org/2000/svg" xmlns:xlink="http://www.w3.org/1999/xlink" x="0px"
	 y="0px" viewBox="0 0 96 96" style="enable-background:new 0 0 96 96;" xml:space="preserve">
<title>wl/icon_å¨çå¨æå é</title>
<desc>Created with Sketch.</desc>
<g>
	<path style="fill:#0A1633;" d="M48,4C23.697,4,4,23.697,4,48s19.697,44,44,44s44-19.697,44-44S72.303,4,48,4z M85.644,48
		c0,20.792-16.852,37.644-37.644,37.644S10.356,68.792,10.356,48S27.208,10.356,48,10.356S85.644,27.208,85.644,48z"/>
	<path style="fill:#0A1633;" d="M70.807,39.449l-2.337,4.561l1.085,0.557c2.381,1.217,3.799,2.601,3.799,3.696
		c0,2.997-9.675,7.534-24.259,7.534c-1.701,0-3.403-0.068-5.163-0.21l0.939-7.9l-13.928,8.448l11.582,11.45l0.812-6.898
		c1.99,0.161,3.882,0.244,5.764,0.244c17.028,0,29.387-5.324,29.387-12.662c0-2.229-1.139-5.471-6.59-8.262L70.807,39.449z"/>
	<path style="fill:#0A1633;" d="M22.157,48.269c0-2.831,8.761-7.162,22.484-7.514l1.222-0.029l-0.132-5.128l-1.222,0.029
		c-13.239,0.337-27.48,4.434-27.48,12.638c0,2.567,1.486,6.238,8.565,9.167l1.129,0.464l1.956-4.737l-1.124-0.464
		C23.57,51.046,22.157,49.281,22.157,48.269z"/>
	<path style="fill:#0A1633;" d="M55.064,63.302c-2.019,7.006-4.938,10.14-6.928,10.14c-1.555,0-3.339-1.75-4.889-4.806l-0.552-1.09
		l-4.571,2.312l0.552,1.095c3.192,6.297,6.908,7.622,9.465,7.622c4.992,0,9.308-5.045,11.856-13.85l0.337-1.173l-4.928-1.418
		L55.064,63.302z"/>
	<path style="fill:#0A1633;" d="M41.923,28.601c1.648-3.98,3.848-6.36,5.876-6.36c3.046,0,7.5,6.038,8.321,17.4l-7.993,0.029
		l10.071,12.804l9.959-12.872l-6.898,0.024C60.364,26.513,54.8,17.117,47.8,17.117c-4.297,0-8.067,3.383-10.614,9.524l-0.469,1.124
		l4.737,1.965L41.923,28.601z"/>
</g>
</svg>
