<?xml version="1.0" encoding="iso-8859-1"?>
<!-- Generator: Adobe Illustrator 23.0.1, SVG Export Plug-In . SVG Version: 6.00 Build 0)  -->
<svg version="1.1" id="&#x56FE;&#x5C42;_1" xmlns="http://www.w3.org/2000/svg" xmlns:xlink="http://www.w3.org/1999/xlink" x="0px"
	 y="0px" viewBox="0 0 96 96" style="enable-background:new 0 0 96 96;" xml:space="preserve">
<title>sjfx/icon_æç®¡Hadoopéç¾¤UHadoop</title>
<desc>Created with Sketch.</desc>
<path style="fill:#0A1633;" d="M47.81,4L6.916,25.477v44.531l40.16,21.814L47.408,92L88.71,70.06l0.374-0.201V25.87L47.81,4z
	 M83.379,33.948v32.485L50.698,83.8V68.178l16.142-9.07V41.427L83.379,33.948z M50.693,61.635V48.723l10.437-4.718v11.766
	L50.693,61.635z M46.935,32.146l11.878,6.65l-10.521,4.755l-12.075-5.457L46.935,32.146z M44.993,48.316v14.48L32.928,55.87V42.864
	L44.993,48.316z M47.801,10.445l33.935,17.99l-16.474,7.446L46.954,25.617L29.75,35.165l-15.594-7.048L47.801,10.445z
	 M12.616,33.677l14.611,6.604v18.889l17.766,10.198v14.836L12.616,66.62V33.677z"/>
</svg>
