<?xml version="1.0" encoding="iso-8859-1"?>
<!-- Generator: Adobe Illustrator 23.0.1, SVG Export Plug-In . SVG Version: 6.00 Build 0)  -->
<svg version="1.1" id="&#x56FE;&#x5C42;_1" xmlns="http://www.w3.org/2000/svg" xmlns:xlink="http://www.w3.org/1999/xlink" x="0px"
	 y="0px" viewBox="0 0 96 96" style="enable-background:new 0 0 96 96;" xml:space="preserve">
<title>aqfh/icon_ä¸»æºå¥ä¾µæ£æµ</title>
<desc>Created with Sketch.</desc>
<g>
	<path style="fill-rule:evenodd;clip-rule:evenodd;fill:#0A1633;" d="M31.075,7.381H10.771c-1.863,0-3.383,1.525-3.383,3.383v20.308
		h6.771v-16.92h16.925V7.381H31.075z M14.154,81.843V64.918H7.383v20.308c0,1.863,1.525,3.383,3.383,3.383h20.308v-6.771h-16.92
		V81.843z M64.925,7.381v6.771h16.925v16.925h6.771V10.769c0-1.863-1.525-3.383-3.383-3.383H64.925V7.381z M81.846,64.923v16.925
		H64.92v6.771h20.308c1.863,0,3.383-1.525,3.383-3.383V64.928h-6.766C81.846,64.928,81.846,64.923,81.846,64.923z M81.846,37.335
		l-24.371,3.892L71.52,20.918l1.017,10.829L81.846,37.335z M88.617,51.381H7.383C5.525,51.381,4,49.86,4,47.998
		c0-1.863,1.525-3.383,3.383-3.383h81.229c1.863,0,3.388,1.52,3.388,3.383C92,49.86,90.475,51.381,88.617,51.381z M69.32,53.077
		c-2.366,9.646-11,16.92-21.32,16.92c-10.325,0-19.125-7.28-21.325-16.925h-6.937C22.108,66.61,33.954,76.764,48,76.764
		S73.892,66.61,76.263,53.072L69.32,53.077L69.32,53.077z M59.675,29.381l3.554-5.754c-4.4-2.708-9.646-4.4-15.229-4.4
		c-14.217,0-25.892,10.154-28.263,23.692h6.937c2.371-9.646,11-16.92,21.325-16.92C52.229,25.998,56.292,27.181,59.675,29.381z"/>
</g>
</svg>
