<?xml version="1.0" encoding="iso-8859-1"?>
<!-- Generator: Adobe Illustrator 23.0.1, SVG Export Plug-In . SVG Version: 6.00 Build 0)  -->
<svg version="1.1" id="&#x56FE;&#x5C42;_1" xmlns="http://www.w3.org/2000/svg" xmlns:xlink="http://www.w3.org/1999/xlink" x="0px"
	 y="0px" viewBox="0 0 96 96" style="enable-background:new 0 0 96 96;" xml:space="preserve">
<title>js/icon_äºä¸»æº</title>
<desc>Created with Sketch.</desc>
<g>
	<path id="&#x5408;&#x5E76;&#x5F62;&#x72B6;" style="fill-rule:evenodd;clip-rule:evenodd;fill:#0A1633;" d="M8.889,4h78.222
		C89.81,4,92,6.19,92,8.889v78.222C92,89.81,89.81,92,87.111,92H8.889C6.19,92,4,89.81,4,87.111V8.889C4,6.19,6.19,4,8.889,4z
		 M15.244,10.356c-2.699,0-4.889,2.19-4.889,4.889v24.689c0,2.699,2.19,4.889,4.889,4.889h65.511c2.699,0,4.889-2.19,4.889-4.889
		V15.244c0-2.699-2.19-4.889-4.889-4.889H15.244z M15.244,51.178c-2.699,0-4.889,2.19-4.889,4.889v24.689
		c0,2.699,2.19,4.889,4.889,4.889h65.511c2.699,0,4.889-2.19,4.889-4.889V56.067c0-2.699-2.19-4.889-4.889-4.889
		C80.756,51.178,15.244,51.178,15.244,51.178z"/>
	<path id="&#x77E9;&#x5F62;" style="fill-rule:evenodd;clip-rule:evenodd;fill:#0A1633;" d="M24.348,24.411h32.697
		c1.755,0,3.178,1.423,3.178,3.178l0,0c0,1.755-1.423,3.178-3.178,3.178H24.348c-1.755,0-3.178-1.423-3.178-3.178l0,0
		C21.17,25.834,22.592,24.411,24.348,24.411z"/>
	<path id="&#x77E9;&#x5F62;-copy-2" style="fill-rule:evenodd;clip-rule:evenodd;fill:#0A1633;" d="M68.289,24.411h3.422
		c1.755,0,3.178,1.423,3.178,3.178l0,0c0,1.755-1.423,3.178-3.178,3.178h-3.422c-1.755,0-3.178-1.423-3.178-3.178l0,0
		C65.111,25.834,66.534,24.411,68.289,24.411z"/>
	<path id="&#x77E9;&#x5F62;-copy-3" style="fill-rule:evenodd;clip-rule:evenodd;fill:#0A1633;" d="M24.348,65.233h32.697
		c1.755,0,3.178,1.423,3.178,3.178l0,0c0,1.755-1.423,3.178-3.178,3.178H24.348c-1.755,0-3.178-1.423-3.178-3.178l0,0
		C21.17,66.656,22.592,65.233,24.348,65.233z"/>
	<path id="&#x77E9;&#x5F62;-copy-4" style="fill-rule:evenodd;clip-rule:evenodd;fill:#0A1633;" d="M68.289,65.233h3.422
		c1.755,0,3.178,1.423,3.178,3.178l0,0c0,1.755-1.423,3.178-3.178,3.178h-3.422c-1.755,0-3.178-1.423-3.178-3.178l0,0
		C65.111,66.656,66.534,65.233,68.289,65.233z"/>
</g>
</svg>
