<?xml version="1.0" encoding="iso-8859-1"?>
<!-- Generator: Adobe Illustrator 23.0.1, SVG Export Plug-In . SVG Version: 6.00 Build 0)  -->
<svg version="1.1" id="&#x56FE;&#x5C42;_1" xmlns="http://www.w3.org/2000/svg" xmlns:xlink="http://www.w3.org/1999/xlink" x="0px"
	 y="0px" viewBox="0 0 96 96" style="enable-background:new 0 0 96 96;" xml:space="preserve">
<title>zjj/icon_åå¸å¼æ¶æ¯ç³»ç»</title>
<desc>Created with Sketch.</desc>
<g>
	<path style="fill-rule:evenodd;clip-rule:evenodd;fill:#0A1633;" d="M26.554,47.905c-0.049-5.355,1.589-10.142,4.607-13.492
		c0.895-0.998,0.822-2.548-0.156-3.443c-0.484-0.45-1.12-0.665-1.751-0.641c-0.641,0.029-1.232,0.313-1.663,0.797
		c-3.824,4.245-5.903,10.216-5.854,16.808c0.049,6.675,2.342,13.037,6.142,17.013c0.44,0.474,1.037,0.738,1.682,0.753
		c0.02,0,0.039,0,0.059,0c0.621,0,1.208-0.24,1.663-0.68c0.963-0.934,0.993-2.484,0.064-3.438
		C28.373,58.458,26.588,53.343,26.554,47.905z"/>
	<path style="fill-rule:evenodd;clip-rule:evenodd;fill:#0A1633;" d="M36.285,48.457c-0.064-1.878,0.406-3.819,1.394-5.78
		c0.293-0.577,0.342-1.237,0.147-1.853c-0.201-0.626-0.621-1.13-1.188-1.413c-0.577-0.298-1.237-0.347-1.844-0.152
		c-0.611,0.201-1.105,0.626-1.389,1.203c-1.369,2.709-2.015,5.453-1.922,8.152c0.093,2.743,0.929,5.409,2.484,7.932
		c0.342,0.557,0.875,0.944,1.506,1.095c0.181,0.044,0.362,0.064,0.543,0.064c0.445,0,0.88-0.122,1.262-0.367
		c1.13-0.704,1.482-2.206,0.778-3.364C36.955,52.188,36.359,50.335,36.285,48.457z"/>
	<path style="fill-rule:evenodd;clip-rule:evenodd;fill:#0A1633;" d="M47.875,42.432c-3.012,0-5.467,2.484-5.467,5.531
		c0,3.047,2.45,5.526,5.467,5.526s5.462-2.479,5.462-5.526C53.338,44.917,50.888,42.432,47.875,42.432z"/>
	<path style="fill-rule:evenodd;clip-rule:evenodd;fill:#0A1633;" d="M62.634,40.467c-0.293-0.582-0.792-1.012-1.403-1.208
		s-1.257-0.142-1.829,0.156c-1.174,0.597-1.648,2.059-1.051,3.267c0.998,1.981,1.467,3.922,1.389,5.775
		c-0.064,1.858-0.655,3.712-1.765,5.516c-0.699,1.139-0.352,2.651,0.773,3.364c0.386,0.245,0.826,0.367,1.276,0.367
		c0.181,0,0.367-0.02,0.553-0.064c0.626-0.147,1.159-0.533,1.496-1.091c1.56-2.533,2.396-5.203,2.484-7.937
		C64.649,45.919,64.008,43.181,62.634,40.467z"/>
	<path style="fill-rule:evenodd;clip-rule:evenodd;fill:#0A1633;" d="M65.03,30.97c-0.978,0.9-1.051,2.445-0.156,3.443
		c3.003,3.33,4.641,8.123,4.607,13.492c-0.044,5.458-1.839,10.573-4.802,13.678c-0.914,0.954-0.89,2.499,0.064,3.448
		c0.455,0.435,1.042,0.675,1.663,0.675c0.02,0,0.034,0,0.054,0c0.646-0.015,1.252-0.284,1.707-0.753
		c3.785-3.971,6.074-10.328,6.123-17.013c0.068-6.509-1.966-12.416-5.726-16.671l-0.117-0.142c-0.425-0.484-1.017-0.763-1.663-0.797
		C66.101,30.28,65.505,30.525,65.03,30.97z"/>
	<path style="fill-rule:evenodd;clip-rule:evenodd;fill:#0A1633;" d="M70.087,10.044l-0.088-0.152H26.001L4.098,47.841L4,47.998
		l21.913,37.953l0.088,0.156h44.002l21.903-37.953L92,47.998L70.087,10.044z M66.82,79.745H29.185L10.362,48.012L29.18,16.275
		h37.635l18.827,31.738L66.82,79.745z"/>
</g>
</svg>
