<?xml version="1.0" encoding="iso-8859-1"?>
<!-- Generator: Adobe Illustrator 23.0.1, SVG Export Plug-In . SVG Version: 6.00 Build 0)  -->
<svg version="1.1" id="&#x56FE;&#x5C42;_1" xmlns="http://www.w3.org/2000/svg" xmlns:xlink="http://www.w3.org/1999/xlink" x="0px"
	 y="0px" viewBox="0 0 96 96" style="enable-background:new 0 0 96 96;" xml:space="preserve">
<title>jkyy/icon_èµæºçæ§</title>
<desc>Created with Sketch.</desc>
<g id="Clip-2">
</g>
<g>
	<path style="fill-rule:evenodd;clip-rule:evenodd;fill:#0A1633;" d="M47.998,28.16c-8.186,0-15.879,3.188-21.669,8.974
		s-8.974,13.482-8.974,21.669c0,1.736,1.408,3.144,3.144,3.144c1.736,0,3.144-1.408,3.144-3.144c0-6.504,2.533-12.622,7.135-17.223
		s10.719-7.135,17.223-7.135s12.622,2.533,17.223,7.135s7.135,10.719,7.135,17.223c0,1.736,1.408,3.144,3.144,3.144
		c1.736,0,3.144-1.408,3.144-3.144c0-8.186-3.188-15.879-8.974-21.669C63.881,31.349,56.184,28.16,47.998,28.16z"/>
	<path style="fill-rule:evenodd;clip-rule:evenodd;fill:#0A1633;" d="M47.998,14.018C23.698,14.018,4,33.716,4,58.015
		c0,8.842,2.607,17.072,7.091,23.967h73.813C89.389,75.087,92,66.857,92,58.015C92,33.716,72.302,14.018,47.998,14.018z
		 M81.325,75.693H14.675c-2.88-5.418-4.391-11.468-4.391-17.678c0-5.096,0.998-10.035,2.963-14.676
		c1.897-4.489,4.621-8.524,8.084-11.991c3.467-3.467,7.502-6.186,11.991-8.084c4.646-1.966,9.585-2.963,14.676-2.963
		c5.096,0,10.035,0.998,14.681,2.963c4.489,1.897,8.524,4.621,11.991,8.084c3.467,3.467,6.186,7.502,8.084,11.991
		c1.966,4.646,2.963,9.585,2.963,14.676C85.716,64.226,84.205,70.275,81.325,75.693z"/>
	<path style="fill-rule:evenodd;clip-rule:evenodd;fill:#0A1633;" d="M49.988,56.098c-0.983,0-1.956,0.186-2.871,0.543l-6.783-6.788
		c-1.227-1.227-3.218-1.227-4.445,0c-1.227,1.227-1.227,3.218,0,4.445l6.788,6.788c-0.357,0.914-0.543,1.888-0.543,2.871
		c0,4.338,3.516,7.859,7.859,7.859c4.338,0,7.859-3.516,7.859-7.859C57.847,59.614,54.326,56.098,49.988,56.098z"/>
</g>
</svg>
