<?xml version="1.0" encoding="iso-8859-1"?>
<!-- Generator: Adobe Illustrator 23.0.1, SVG Export Plug-In . SVG Version: 6.00 Build 0)  -->
<svg version="1.1" id="&#x56FE;&#x5C42;_1" xmlns="http://www.w3.org/2000/svg" xmlns:xlink="http://www.w3.org/1999/xlink" x="0px"
	 y="0px" viewBox="0 0 96 96" style="enable-background:new 0 0 96 96;" xml:space="preserve">
<title>wl/icon_åºç¡ç½ç»</title>
<desc>Created with Sketch.</desc>
<g>
	<path id="wangluoxitong" style="fill-rule:evenodd;clip-rule:evenodd;fill:#0A1633;" d="M88.891,51.151
		c1.716,0,3.109-1.393,3.109-3.109s-1.393-3.109-3.109-3.109H51.158v-7.265h11.655c1.745,0,3.163-1.418,3.163-3.163V11.878
		c0-1.745-1.413-3.163-3.163-3.163H33.182c-1.745,0-3.158,1.413-3.158,3.163v22.626c0,1.745,1.413,3.158,3.158,3.158h11.655v7.265
		H7.109C5.393,44.932,4,46.321,4,48.042c0,1.716,1.393,3.109,3.109,3.109h14.183v7.187H9.637c-1.745,0-3.163,1.413-3.163,3.158
		v22.626c0,1.745,1.418,3.163,3.163,3.163h29.632c1.745,0,3.163-1.413,3.163-3.163V61.496c0-1.745-1.418-3.158-3.163-3.158H27.613
		v-7.187h40.715v7.187h-12.11c-1.745,0-3.158,1.413-3.158,3.158v22.626c0,1.745,1.413,3.163,3.158,3.163H85.85
		c1.745,0,3.163-1.413,3.163-3.163V61.496c0-1.745-1.413-3.158-3.163-3.158h-11.2v-7.187H88.891z M36.345,31.346h23.31V15.042
		h-23.31V31.346z M12.8,80.963h23.31V64.659H12.8V80.963z M59.381,80.963h23.31V64.659h-23.31
		C59.381,64.659,59.381,80.963,59.381,80.963z"/>
</g>
</svg>
