<?xml version="1.0" encoding="iso-8859-1"?>
<!-- Generator: Adobe Illustrator 23.0.1, SVG Export Plug-In . SVG Version: 6.00 Build 0)  -->
<svg version="1.1" id="&#x56FE;&#x5C42;_1" xmlns="http://www.w3.org/2000/svg" xmlns:xlink="http://www.w3.org/1999/xlink" x="0px"
	 y="0px" viewBox="0 0 96 96" style="enable-background:new 0 0 96 96;" xml:space="preserve">
<title>yff/icon_è¾¹ç¼ååèç¹</title>
<desc>Created with Sketch.</desc>
<g>
	<g id="margin_1188095_easyicon.net" transform="translate(1.000000, 1.000000)">
		<path id="&#x8DEF;&#x5F84;" style="fill-rule:evenodd;clip-rule:evenodd;fill:#0A1633;" d="M72.667,9.356H21.333
			c-2.2,0-3.667-1.271-3.667-3.178S19.133,3,21.333,3h51.333c2.2,0,3.667,1.271,3.667,3.178S74.867,9.356,72.667,9.356z"/>
		<path style="fill-rule:evenodd;clip-rule:evenodd;fill:#0A1633;" d="M72.667,91H21.333c-2.2,0-3.667-1.271-3.667-3.178
			c0-1.907,1.467-3.178,3.667-3.178h51.333c2.2,0,3.667,1.271,3.667,3.178C76.333,89.729,74.867,91,72.667,91z"/>
		<path style="fill-rule:evenodd;clip-rule:evenodd;fill:#0A1633;" d="M87.822,76.333c-1.907,0-3.178-1.467-3.178-3.667V21.333
			c0-2.2,1.271-3.667,3.178-3.667c1.907,0,3.178,1.467,3.178,3.667v51.333C91,74.867,89.729,76.333,87.822,76.333z"/>
		<path style="fill-rule:evenodd;clip-rule:evenodd;fill:#0A1633;" d="M6.178,76.333C4.271,76.333,3,74.867,3,72.667V21.333
			c0-2.2,1.271-3.667,3.178-3.667s3.178,1.467,3.178,3.667v51.333C9.356,74.867,8.084,76.333,6.178,76.333z"/>
		<path id="&#x5F62;&#x72B6;" style="fill:#0A1633;" d="M72.667,76.333H21.333c-2.2,0-3.667-1.467-3.667-3.667V21.333
			c0-2.2,1.467-3.667,3.667-3.667h51.333c2.2,0,3.667,1.467,3.667,3.667v51.333C76.333,74.867,74.867,76.333,72.667,76.333z
			 M24.022,69.978h45.956V24.022H24.022V69.978z"/>
	</g>
</g>
</svg>
