<?xml version="1.0" encoding="iso-8859-1"?>
<!-- Generator: Adobe Illustrator 23.0.1, SVG Export Plug-In . SVG Version: 6.00 Build 0)  -->
<svg version="1.1" id="&#x56FE;&#x5C42;_1" xmlns="http://www.w3.org/2000/svg" xmlns:xlink="http://www.w3.org/1999/xlink" x="0px"
	 y="0px" viewBox="0 0 96 96" style="enable-background:new 0 0 96 96;" xml:space="preserve">
<title>yff/icon_å¼æ¾å¼ååèç¹</title>
<desc>Created with Sketch.</desc>
<path style="fill:#0A1633;" d="M78.006,17.379L78.006,17.379c-3.236,0.015-6.241,1.267-8.465,3.521
	c-2.279,2.304-3.471,5.214-3.456,8.41c0.01,0.972,0.13,1.918,0.361,2.835l-25.039,9.086c-1.392-2.91-3.476-5.4-6.091-7.273
	l2.014-4.964c0.811,0.145,1.653,0.225,2.534,0.225c3.707,0,6.857-1.217,9.121-3.511c2.489-2.524,3.747-5.495,3.727-8.826
	C52.666,9.78,46.831,4,39.703,4c-3.511,0.02-6.747,1.352-9.116,3.757c-2.454,2.494-3.742,5.6-3.727,8.986
	c0.025,4.152,2.054,7.909,5.465,10.218l-1.823,4.498c-1.938-0.666-3.957-1.007-6.026-1.007c-4.949,0.035-9.622,2.029-13.163,5.62
	c-3.456,3.496-5.42,8.37-5.384,13.364c0.07,10.378,8.445,18.818,18.783,18.818c4.909,0,9.652-2.044,13.148-5.64l10.498,7.453
	c-1.102,2.159-1.673,4.558-1.658,6.992C46.755,85.303,53.392,92,61.587,92c3.852,0,7.503-1.543,10.288-4.338
	c2.835-2.845,4.453-6.772,4.433-10.759c-0.055-8.229-6.737-14.921-14.896-14.921c-3.601,0.025-7.022,1.367-9.742,3.807L41.04,58.241
	c1.478-2.785,2.249-5.88,2.224-9.021c-0.005-0.942-0.09-1.898-0.24-2.85l25.981-9.407c2.284,2.6,5.555,4.077,9.156,4.077
	c3.341,0,6.266-1.177,8.455-3.401c2.274-2.304,3.471-5.189,3.456-8.335C90.022,22.733,84.612,17.379,78.006,17.379z M84.843,29.375
	c0.025,3.636-2.725,6.542-6.256,6.627c-4.077-0.075-6.727-2.64-6.752-6.547c-0.02-2.064,0.486-3.586,1.553-4.663
	c1.232-1.252,2.905-1.948,4.693-1.963C81.717,22.833,84.818,25.828,84.843,29.375z M32.245,17.063
	c-0.02-1.999,0.751-3.892,2.184-5.334l0,0c1.407-1.428,3.316-2.224,5.359-2.234c4.117,0,7.493,3.351,7.518,7.478
	c0.015,2.009-0.756,3.907-2.179,5.339c-1.402,1.423-3.291,2.214-5.374,2.229C35.426,24.541,32.27,21.401,32.245,17.063z
	 M37.855,48.959c0.04,7.318-5.88,13.308-13.198,13.354h-0.1c-7.623,0-13.193-5.54-13.243-13.183
	c-0.025-3.526,1.342-6.867,3.847-9.407c2.489-2.519,5.845-3.922,9.447-3.942C31.864,35.781,37.81,41.696,37.855,48.959z
	 M52.27,76.783c-0.015-2.665,0.857-4.969,2.519-6.667c1.773-1.788,4.157-2.78,6.707-2.795c5.194,0,9.452,4.192,9.487,9.341
	c0.035,5.164-4.097,9.407-9.196,9.462C56.037,86.095,52.3,82.428,52.27,76.783z"/>
</svg>
