<?xml version="1.0" encoding="iso-8859-1"?>
<!-- Generator: Adobe Illustrator 23.0.1, SVG Export Plug-In . SVG Version: 6.00 Build 0)  -->
<svg version="1.1" id="&#x56FE;&#x5C42;_1" xmlns="http://www.w3.org/2000/svg" xmlns:xlink="http://www.w3.org/1999/xlink" x="0px"
	 y="0px" viewBox="0 0 96 96" style="enable-background:new 0 0 96 96;" xml:space="preserve">
<title>js/icon_ç©çäºä¸»æº</title>
<desc>Created with Sketch.</desc>
<g>
	<path style="fill-rule:evenodd;clip-rule:evenodd;fill:#0A1633;" d="M87.111,18.251H64.788V8.889C64.788,6.195,62.593,4,59.9,4
		H36.105c-2.694,0-4.889,2.195-4.889,4.889v9.362H8.889C6.195,18.251,4,20.446,4,23.14v63.971C4,89.805,6.195,92,8.889,92h22.328
		h6.356h20.856h6.36h22.323C89.805,92,92,89.805,92,87.111V23.14C92,20.441,89.805,18.251,87.111,18.251z M31.216,85.64H10.356
		V24.602h20.861C31.216,24.602,31.216,85.64,31.216,85.64z M58.428,85.64H37.572V18.251v-7.896h20.856v7.896
		C58.428,18.251,58.428,85.64,58.428,85.64z M85.64,85.64H64.784V24.602H85.64V85.64z"/>
	<path style="fill-rule:evenodd;clip-rule:evenodd;fill:#0A1633;" d="M52.889,12.8h-9.778c-1.755,0-3.178,1.423-3.178,3.178
		c0,1.755,1.423,3.178,3.178,3.178h9.778c1.755,0,3.178-1.423,3.178-3.178C56.067,14.223,54.644,12.8,52.889,12.8z"/>
	<path style="fill-rule:evenodd;clip-rule:evenodd;fill:#0A1633;" d="M15.895,33.368h9.778c1.755,0,3.178-1.423,3.178-3.178
		s-1.423-3.178-3.178-3.178h-9.778c-1.755,0-3.178,1.423-3.178,3.178S14.14,33.368,15.895,33.368z"/>
	<path style="fill-rule:evenodd;clip-rule:evenodd;fill:#0A1633;" d="M70.328,33.368h9.778c1.755,0,3.178-1.423,3.178-3.178
		s-1.423-3.178-3.178-3.178h-9.778c-1.755,0-3.178,1.423-3.178,3.178C67.15,31.945,68.572,33.368,70.328,33.368z"/>
	<path style="fill-rule:evenodd;clip-rule:evenodd;fill:#0A1633;" d="M52.889,21.6h-9.778c-1.755,0-3.178,1.423-3.178,3.178
		c0,1.755,1.423,3.178,3.178,3.178h9.778c1.755,0,3.178-1.423,3.178-3.178C56.067,23.023,54.644,21.6,52.889,21.6z"/>
	<path style="fill-rule:evenodd;clip-rule:evenodd;fill:#0A1633;" d="M15.895,42.168h9.778c1.755,0,3.178-1.423,3.178-3.178
		c0-1.755-1.423-3.178-3.178-3.178h-9.778c-1.755,0-3.178,1.423-3.178,3.178C12.717,40.745,14.14,42.168,15.895,42.168z"/>
	<path style="fill-rule:evenodd;clip-rule:evenodd;fill:#0A1633;" d="M70.328,42.168h9.778c1.755,0,3.178-1.423,3.178-3.178
		c0-1.755-1.423-3.178-3.178-3.178h-9.778c-1.755,0-3.178,1.423-3.178,3.178C67.15,40.745,68.572,42.168,70.328,42.168z"/>
	<path style="fill-rule:evenodd;clip-rule:evenodd;fill:#0A1633;" d="M43.111,43.111c-1.755,0-3.178,1.423-3.178,3.178v3.422
		c0,1.755,1.423,3.178,3.178,3.178s3.178-1.423,3.178-3.178v-3.422C46.289,44.534,44.866,43.111,43.111,43.111z"/>
	<path style="fill-rule:evenodd;clip-rule:evenodd;fill:#0A1633;" d="M15.895,60.012c1.755,0,3.178-1.423,3.178-3.178v-3.422
		c0-1.755-1.423-3.178-3.178-3.178s-3.178,1.423-3.178,3.178v3.422C12.717,58.589,14.14,60.012,15.895,60.012z"/>
	<path style="fill-rule:evenodd;clip-rule:evenodd;fill:#0A1633;" d="M70.328,60.012c1.755,0,3.178-1.423,3.178-3.178v-3.422
		c0-1.755-1.423-3.178-3.178-3.178c-1.755,0-3.178,1.423-3.178,3.178v3.422C67.15,58.589,68.572,60.012,70.328,60.012z"/>
</g>
</svg>
