<?xml version="1.0" encoding="iso-8859-1"?>
<!-- Generator: Adobe Illustrator 23.0.1, SVG Export Plug-In . SVG Version: 6.00 Build 0)  -->
<svg version="1.1" id="&#x56FE;&#x5C42;_1" xmlns="http://www.w3.org/2000/svg" xmlns:xlink="http://www.w3.org/1999/xlink" x="0px"
	 y="0px" viewBox="0 0 96 96" style="enable-background:new 0 0 96 96;" xml:space="preserve">
<title>aqhg/icon_æå¿æç¥</title>
<desc>Created with Sketch.</desc>
<path style="fill:#0A1633;" d="M85.068,12.468C73.902,6.93,61.02,4,47.818,4C34.684,4,21.841,6.93,10.68,12.468l-3.906,1.938
	l0.03,4.823c0,0.074,0,0.173,0.015,0.276c0,0.005,0,0.015,0,0.025l0,0l0.182,2.693c0.015,0.33,0.03,0.439,0.03,0.439s0,0,0-0.005
	l0.207,2.782c0.015,0.296,0.044,0.592,0.054,0.616l0.109,1.42c0.015,0.173,1.47,17.503,2.747,23.92l0.173,0.858l5.982-5.494
	l-0.044-0.261c-0.281-1.652-2.086-19.427-2.106-19.594l-0.572-8.305l0.113-0.059c10.234-5.075,22.036-7.758,34.124-7.758
	c12.157,0,23.999,2.678,34.227,7.753l0.148,0.074l-0.01,0.163c-1.055,16.601-3.151,35.51-5.469,40.338
	c-3.516,7.294-9.681,16.004-28.723,25.296l-0.113,0.054l-0.113-0.054c-0.538-0.261-1.06-0.518-1.568-0.774l-4.957-2.658l-2.87-1.706
	l-5.129-3.462l-3.891-3.142l-0.385-0.345c-0.187-0.163-0.365-0.321-0.533-0.488l-3.004-3.043c-1.845-2.071-3.368-4.182-4.799-6.648
	c-0.33-0.582-0.656-1.169-0.957-1.746l-0.695-1.46l4.552-4.552l6.772-7.127l9.578,9.578l17.286-16.838v6.9h6.776V28.132H45.391
	v6.781h7.279L39.946,47.307l-9.775-9.765L18.67,49.65l-7.452,7.457l1.386,4.281l0.089,0.168l0.015,0.015
	c0.079,0.187,0.158,0.36,0.212,0.473l0.636,1.287c0.365,0.715,0.76,1.435,1.263,2.318c1.598,2.757,3.413,5.257,5.548,7.659
	l3.334,3.393c0.247,0.237,0.498,0.464,0.755,0.69l2.283,1.953l10.766,7.304l5.583,3.013L47.857,92l3.087-1.499
	C71.851,80.302,78.79,70.393,82.809,62.044c3.645-7.57,5.617-34.716,6.13-42.848l0.286-4.651L85.068,12.468z"/>
</svg>
