<?xml version="1.0" encoding="iso-8859-1"?>
<!-- Generator: Adobe Illustrator 23.0.1, SVG Export Plug-In . SVG Version: 6.00 Build 0)  -->
<svg version="1.1" id="&#x56FE;&#x5C42;_1" xmlns="http://www.w3.org/2000/svg" xmlns:xlink="http://www.w3.org/1999/xlink" x="0px"
	 y="0px" viewBox="0 0 96 96" style="enable-background:new 0 0 96 96;" xml:space="preserve">
<title>aqhg/icon_ç­ä¿æµè¯</title>
<desc>Created with Sketch.</desc>
<g>
	<path style="fill-rule:evenodd;clip-rule:evenodd;fill:#0A1633;" d="M48,4C23.741,4,4,23.741,4,48c0,24.264,19.741,44,44,44
		c24.264,0,44-19.736,44-44C92,23.741,72.264,4,48,4z M62.706,82.814c-4.659,1.97-9.602,2.968-14.706,2.968
		s-10.047-0.997-14.706-2.968c-4.498-1.902-8.536-4.625-12.007-8.096s-6.199-7.514-8.096-12.007
		c-1.97-4.664-2.968-9.607-2.968-14.711s0.997-10.047,2.968-14.706c1.902-4.498,4.625-8.536,8.096-12.007s7.514-6.199,12.007-8.096
		c4.659-1.97,9.602-2.968,14.706-2.968s10.047,0.997,14.706,2.968c4.498,1.902,8.536,4.625,12.007,8.096
		c3.471,3.471,6.199,7.514,8.096,12.007c1.97,4.649,2.968,9.602,2.968,14.706s-0.997,10.047-2.968,14.706
		c-1.897,4.498-4.625,8.536-8.096,12.007C71.242,78.184,67.204,80.912,62.706,82.814z"/>
	<path style="fill-rule:evenodd;clip-rule:evenodd;fill:#0A1633;" d="M69.066,27.555h-3.989c-2.992,0-5.432,2.44-5.432,5.432v30.032
		c0,2.992,2.44,5.432,5.432,5.432h3.989c2.992,0,5.432-2.435,5.432-5.432V32.986C74.498,29.989,72.063,27.555,69.066,27.555z
		 M70.152,62.354c0,0.953-0.66,1.731-1.467,1.731h-3.232c-0.807,0-1.462-0.777-1.462-1.731V33.646c0-0.953,0.66-1.731,1.462-1.731
		h3.232c0.807,0,1.467,0.777,1.467,1.731V62.354z"/>
	<path style="fill-rule:evenodd;clip-rule:evenodd;fill:#0A1633;" d="M49.995,27.555h-3.989c-2.992,0-5.432,2.44-5.432,5.432v30.032
		c0,2.992,2.44,5.432,5.432,5.432h3.989c2.992,0,5.432-2.435,5.432-5.432V32.986C55.426,29.989,52.987,27.555,49.995,27.555z
		 M51.08,62.354c0,0.953-0.66,1.731-1.467,1.731h-3.232c-0.807,0-1.462-0.777-1.462-1.731V33.646c0-0.953,0.66-1.731,1.462-1.731
		h3.232c0.807,0,1.467,0.777,1.467,1.731V62.354z"/>
	<path style="fill-rule:evenodd;clip-rule:evenodd;fill:#0A1633;" d="M30.923,27.555h-3.989c-2.992,0-5.432,2.44-5.432,5.432v30.032
		c0,2.992,2.44,5.432,5.432,5.432h3.989c2.992,0,5.432-2.435,5.432-5.432V32.986C36.355,29.989,33.915,27.555,30.923,27.555z
		 M32.008,62.354c0,0.953-0.66,1.731-1.467,1.731H27.31c-0.807,0-1.462-0.777-1.462-1.731V33.646c0-0.953,0.66-1.731,1.462-1.731
		h3.232c0.807,0,1.467,0.777,1.467,1.731V62.354z"/>
</g>
</svg>
