<?xml version="1.0" encoding="iso-8859-1"?>
<!-- Generator: Adobe Illustrator 23.0.1, SVG Export Plug-In . SVG Version: 6.00 Build 0)  -->
<svg version="1.1" id="&#x56FE;&#x5C42;_1" xmlns="http://www.w3.org/2000/svg" xmlns:xlink="http://www.w3.org/1999/xlink" x="0px"
	 y="0px" viewBox="0 0 96 96" style="enable-background:new 0 0 96 96;" xml:space="preserve">
<title>aqfh/icon_WEBæ¼æ´æ«æ</title>
<desc>Created with Sketch.</desc>
<path style="fill-rule:evenodd;clip-rule:evenodd;fill:#0A1633;" d="M48,4C23.697,4,4,23.697,4,48s19.697,44,44,44s44-19.697,44-44
	S72.303,4,48,4z M50.2,9.93c19.311,1.095,34.775,16.564,35.87,35.87H72.376V32.448c0-3.745-2.371-7.079-5.906-8.311L50.2,18.481
	V9.93z M45.8,9.93v8.551l-16.27,5.656c-3.54,1.232-5.906,4.566-5.906,8.311V45.8H9.935C11.025,26.489,26.489,11.025,45.8,9.93z
	 M45.8,86.07C26.489,84.975,11.025,69.506,9.93,50.2h13.689v0.46c0,8.512,2.919,15.014,13.611,21.897
	c2.488,1.599,5.334,3.129,8.57,4.581V86.07z M40.408,67.624c-8.854-5.7-10.922-10.306-10.922-16.964V32.453
	c0-1.247,0.787-2.361,1.97-2.772L48,23.927l4.679,1.628l0,0l-6.502,9.563c-0.259,0.381-0.323,0.87-0.171,1.305
	c0.152,0.435,0.508,0.782,0.948,0.919l4.948,1.54l-3.217,7.974c-0.269,0.675-0.01,1.442,0.616,1.809
	c0.626,0.367,1.423,0.225,1.882-0.332l8.125-9.964c0.303-0.372,0.406-0.86,0.274-1.32c-0.132-0.46-0.469-0.826-0.919-0.988
	l-4.757-1.692l4.864-6.693l5.774,2.009c1.178,0.411,1.97,1.52,1.97,2.772v18.211c0,6.659-2.068,11.264-10.922,16.964
	c-2.18,1.403-4.703,2.762-7.592,4.072C45.116,70.386,42.588,69.027,40.408,67.624z M50.2,86.07v-8.932
	c3.232-1.452,6.082-2.982,8.57-4.581c10.692-6.884,13.611-13.386,13.611-21.897V50.2h13.694C84.975,69.506,69.506,84.975,50.2,86.07
	z"/>
</svg>
